<svg viewBox="0 0 218.2 77" xmlns="http://www.w3.org/2000/svg"><g fill="#c6c6c6"><path d="m5.2 67h-.3l-.3-.3-.5-.3h-1.5l-.6.4-.3.6a1.7 1.7 0 0 0 -.1.7 1.9 1.9 0 0 0 .2.8 1 1 0 0 0 .4.5l.6.4.8.3.7.3.6.4a1.8 1.8 0 0 1 .5.7 2.5 2.5 0 0 1 .1.9 3.7 3.7 0 0 1 -.1 1.1 1.9 1.9 0 0 1 -.5.9 1.6 1.6 0 0 1 -.8.6 2 2 0 0 1 -1.1.3 2 2 0 0 1 -1.3-.4 2.8 2.8 0 0 1 -1-.9l.2-.2h.2l.2.2.3.3.4.2.4.2h.6l.9-.2.6-.4a1.6 1.6 0 0 0 .4-.7 2.8 2.8 0 0 0 .1-.9 1.1 1.1 0 0 0 -.2-.8 1 1 0 0 0 -.4-.5l-.6-.4-.8-.3-.7-.3-.6-.4-.5-.7a4.6 4.6 0 0 1 0-1.9 1.8 1.8 0 0 1 .5-.7 2 2 0 0 1 .7-.6l.9-.2a1.8 1.8 0 0 1 1.1.3 1.3 1.3 0 0 1 .9.7z"/><path d="m18.9 65.8v.6h-2.7v8.8h-.6v-8.8h-2.8v-.6z"/><path d="m29.8 74.7a1.7 1.7 0 0 0 1-.3 2.1 2.1 0 0 0 .8-.6 3 3 0 0 0 .4-1 5 5 0 0 0 .2-1.2v-5.8h.6v5.8a5.9 5.9 0 0 1 -.2 1.4 6.7 6.7 0 0 1 -.6 1.2 3.9 3.9 0 0 1 -1 .8 2.4 2.4 0 0 1 -1.2.3 2.8 2.8 0 0 1 -1.3-.3l-.9-.8a2.3 2.3 0 0 1 -.6-1.2 5.9 5.9 0 0 1 -.2-1.4v-5.8h.6v5.8a4.9 4.9 0 0 0 .1 1.2l.5 1a1.6 1.6 0 0 0 .8.6 1.7 1.7 0 0 0 1 .3z"/><path d="m48.2 70.5a5.5 5.5 0 0 1 -.2 1.9 5.3 5.3 0 0 1 -.8 1.5 2.7 2.7 0 0 1 -1.2.9 2.4 2.4 0 0 1 -1.5.4h-2.9v-9.4h2.9a2.4 2.4 0 0 1 1.5.4 2.7 2.7 0 0 1 1.2.9 5.3 5.3 0 0 1 .8 1.5 5.5 5.5 0 0 1 .2 1.9zm-.5 0a4.3 4.3 0 0 0 -.3-1.7 2.3 2.3 0 0 0 -.6-1.3 1.9 1.9 0 0 0 -1-.8 2.8 2.8 0 0 0 -1.3-.3h-2.3v8.2h2.3a2.8 2.8 0 0 0 1.3-.3 1.9 1.9 0 0 0 1-.8 2.6 2.6 0 0 0 .6-1.3 4.7 4.7 0 0 0 .3-1.7z"/><path d="m57.4 75.2h-.5v-9.4h.5z"/><path d="m73.6 70.5a6.4 6.4 0 0 1 -.3 2 10.1 10.1 0 0 1 -.7 1.5 4.7 4.7 0 0 1 -1.2.9 3.2 3.2 0 0 1 -3.1 0l-1.2-.9a10.1 10.1 0 0 1 -.7-1.5 6.8 6.8 0 0 1 0-4 10.1 10.1 0 0 1 .7-1.5l1.2-.9a2.8 2.8 0 0 1 1.5-.4 2.9 2.9 0 0 1 1.6.4 4.7 4.7 0 0 1 1.2.9 10.1 10.1 0 0 1 .7 1.5 6.4 6.4 0 0 1 .3 2zm-.6 0a9.9 9.9 0 0 0 -.2-1.8 5.4 5.4 0 0 0 -.7-1.3 2.7 2.7 0 0 0 -1-.8 2.8 2.8 0 0 0 -1.3-.3 2.4 2.4 0 0 0 -1.2.3 2.7 2.7 0 0 0 -1 .8 5.4 5.4 0 0 0 -.7 1.3 9.9 9.9 0 0 0 -.2 1.8 8.8 8.8 0 0 0 .2 1.7 4.6 4.6 0 0 0 .7 1.4 2.7 2.7 0 0 0 1 .8 2.4 2.4 0 0 0 1.2.3 2.8 2.8 0 0 0 1.3-.3 2.7 2.7 0 0 0 1-.8 4.6 4.6 0 0 0 .7-1.4 8.8 8.8 0 0 0 .2-1.7z"/><path d="m86.6 65.5.8.2a1.8 1.8 0 0 1 .7.5 1.6 1.6 0 0 1 .4.7 1.9 1.9 0 0 1 .2.7l-.9.3h-.2c-.1 0-.1-.1-.1-.2l-.2-.3v-.4l-.3-.2h-.8l-.3.2-.2.4v.8c0 .1.1.3.1.4l.2.4.3.4 2.2 2.6.3-.9c0-.3.1-.6.1-.9s0-.2.1-.2h1a4.1 4.1 0 0 1 -.2 1.6 3.9 3.9 0 0 1 -.6 1.5l1.7 2.1h-1.4c-.1 0-.2 0-.2-.1h-.3a.3.3 0 0 1 -.1-.2l-.6-.6a3.6 3.6 0 0 1 -1.2.8 3.2 3.2 0 0 1 -1.4.3l-.9-.2a1.6 1.6 0 0 1 -.8-.6l-.6-.8a4.3 4.3 0 0 1 -.2-1.2c0-.3.1-.5.1-.8a1.6 1.6 0 0 1 .4-.7 1.8 1.8 0 0 1 .5-.7l.7-.4a9.3 9.3 0 0 1 -.5-1 2.8 2.8 0 0 1 -.1-.9 3.1 3.1 0 0 1 .1-1 3.5 3.5 0 0 1 .5-.8 1.8 1.8 0 0 1 .7-.5zm-2 6.9c0 .2.1.5.1.7l.3.4c.1.2.3.3.4.4h.6l.8-.2.8-.5-2.1-2.6a2.7 2.7 0 0 0 -.7.8 2.9 2.9 0 0 0 -.2 1z"/><path d="m105.3 73.6h.1l.2.3-.5.6-.7.4-.7.3h-.9a2.4 2.4 0 0 1 -1.5-.4 2.7 2.7 0 0 1 -1.2-.9 5.1 5.1 0 0 1 -.7-1.5 6.4 6.4 0 0 1 -.3-2 5.4 5.4 0 0 1 .3-1.9 4.8 4.8 0 0 1 .8-1.6 2.7 2.7 0 0 1 1.2-.9 2.6 2.6 0 0 1 1.5-.4h.8l.7.2.6.4.5.5-.2.3h-.2l-.2-.2-.3-.2-.4-.3h-1.3a3.1 3.1 0 0 0 -1.3.3 3.9 3.9 0 0 0 -1 .8 4.6 4.6 0 0 0 -.7 1.4 4.7 4.7 0 0 0 -.2 1.7 5.2 5.2 0 0 0 .2 1.8 5.4 5.4 0 0 0 .7 1.3 2.7 2.7 0 0 0 1 .8 2.4 2.4 0 0 0 1.2.3h.8l.6-.2.5-.3c.2-.1.3-.3.5-.5h.1z"/><path d="m120 70.5a6.4 6.4 0 0 1 -.3 2 5.5 5.5 0 0 1 -.8 1.5 3.1 3.1 0 0 1 -1.1.9 3.2 3.2 0 0 1 -3.1 0 4.7 4.7 0 0 1 -1.2-.9 5.1 5.1 0 0 1 -.7-1.5 6.8 6.8 0 0 1 0-4 5.1 5.1 0 0 1 .7-1.5 4.7 4.7 0 0 1 1.2-.9 2.8 2.8 0 0 1 1.5-.4 2.9 2.9 0 0 1 1.6.4 3.1 3.1 0 0 1 1.1.9 5.5 5.5 0 0 1 .8 1.5 6.4 6.4 0 0 1 .3 2zm-.6 0a9.9 9.9 0 0 0 -.2-1.8 5.4 5.4 0 0 0 -.7-1.3 2.7 2.7 0 0 0 -1-.8 2.8 2.8 0 0 0 -1.3-.3 2.4 2.4 0 0 0 -1.2.3 2.7 2.7 0 0 0 -1 .8 5.4 5.4 0 0 0 -.7 1.3 5.2 5.2 0 0 0 -.2 1.8 4.7 4.7 0 0 0 .2 1.7 4.6 4.6 0 0 0 .7 1.4 2.7 2.7 0 0 0 1 .8 2.4 2.4 0 0 0 1.2.3 2.8 2.8 0 0 0 1.3-.3 2.7 2.7 0 0 0 1-.8 4.6 4.6 0 0 0 .7-1.4 8.8 8.8 0 0 0 .2-1.7z"/><path d="m127.4 65.8h.4a.2.2 0 0 1 .2.2l2 7.7v.3a.4.4 0 0 1 .1-.3l2.2-7.7h.1a.1.1 0 0 1 .1-.1h.3l2.3 7.7v.4c.1 0 .1.2.1.3v-.3a.4.4 0 0 0 .1-.3l2-7.7h.1a.1.1 0 0 1 .1-.1h.4l-2.4 9.4h-.6l-2.3-8.1a.6.6 0 0 0 -.1-.4v.4l-2.4 8.1h-.5z"/><path d="m152 70.5a6.4 6.4 0 0 1 -.3 2 5.1 5.1 0 0 1 -.7 1.5l-1.2.9a3.2 3.2 0 0 1 -3.1 0 3.1 3.1 0 0 1 -1.1-.9 5.5 5.5 0 0 1 -.8-1.5 6.8 6.8 0 0 1 0-4 5.5 5.5 0 0 1 .8-1.5 3.1 3.1 0 0 1 1.1-.9 2.9 2.9 0 0 1 1.6-.4 2.8 2.8 0 0 1 1.5.4l1.2.9a5.1 5.1 0 0 1 .7 1.5 6.4 6.4 0 0 1 .3 2zm-.6 0a9.9 9.9 0 0 0 -.2-1.8 5.4 5.4 0 0 0 -.7-1.3 2.7 2.7 0 0 0 -1-.8 2.4 2.4 0 0 0 -1.2-.3 2.8 2.8 0 0 0 -1.3.3 3.9 3.9 0 0 0 -1 .8 5.4 5.4 0 0 0 -.7 1.3 9.9 9.9 0 0 0 -.2 1.8 8.8 8.8 0 0 0 .2 1.7 4.6 4.6 0 0 0 .7 1.4 3.9 3.9 0 0 0 1 .8 2.8 2.8 0 0 0 1.3.3 2.4 2.4 0 0 0 1.2-.3 2.7 2.7 0 0 0 1-.8 4.6 4.6 0 0 0 .7-1.4 8.8 8.8 0 0 0 .2-1.7z"/><path d="m161.2 70.9v4.3h-.6v-9.4h2a2.8 2.8 0 0 1 2.1.7 2.4 2.4 0 0 1 .6 1.8 3.4 3.4 0 0 1 -.1 1 1.8 1.8 0 0 1 -.5.7 2 2 0 0 1 -.7.6l-.9.3.2.2 2.7 4.1h-.7l-2.6-3.8a.2.2 0 0 0 -.2-.2h-1.3zm0-.5h2.3l.7-.4a1.6 1.6 0 0 0 .4-.7 2.9 2.9 0 0 0 .2-.9 2 2 0 0 0 -.6-1.5 2.4 2.4 0 0 0 -1.6-.4h-1.4z"/><path d="m174.8 70.1h1l3.2-4.1h.2a.1.1 0 0 1 .1-.1h.5l-3.4 4.1-.2.2h-.2l.2.2c.1 0 .1.1.2.2l3.6 4.5h-.8l-3.3-4.1a.1.1 0 0 1 -.1-.1h-1v4.5h-.6v-9.6h.6z"/><path d="m188.8 75.2h-.6v-9.4h.6z"/><path d="m198.3 65.9h.1l5.1 8v-8.1h.5v9.4h-.3a.2.2 0 0 1 -.2-.2l-5.1-8.1v8.3h-.5v-9.4h.3a.1.1 0 0 1 .1.1z"/><path d="m215.3 74.7h.7l.6-.2.6-.2.5-.3v-2.6h-1.7v-.4h2.2v3.3l-.6.5-.7.3-.8.2h-.9a2.6 2.6 0 0 1 -1.5-.4 2.7 2.7 0 0 1 -1.2-.9 5.5 5.5 0 0 1 -.8-1.5 6.8 6.8 0 0 1 0-4 3.6 3.6 0 0 1 .8-1.5 2.7 2.7 0 0 1 1.2-.9 3.3 3.3 0 0 1 1.7-.4h.8l.7.2.6.4.6.4-.2.3a.1.1 0 0 1 -.1.1h-.1l-.3-.2-.4-.3-.7-.3h-1a2.8 2.8 0 0 0 -1.3.3 3.1 3.1 0 0 0 -1.1.8 5.4 5.4 0 0 0 -.7 1.3 8.2 8.2 0 0 0 0 3.6 5.4 5.4 0 0 0 .7 1.3 2.5 2.5 0 0 0 1 .8 3.2 3.2 0 0 0 1.4.3z"/></g><path d="m96.7 33.3h-.2l-.5-.8c-5.6-9.7-11.2-19.2-16.6-29-1.3-2.1-2.6-3.2-5.2-2.8a29.4 29.4 0 0 1 -4.2 0v49.1h7.6v-32.7a2 2 0 0 1 .8.8c1.7 3.1 3.5 6.2 5.3 9.3l12.5 21.8c.2.3.5.8.8.9h7.4v-49.1h-7.7zm-70.3-32.6v35.6a21.7 21.7 0 0 0 .2 3.6 11.1 11.1 0 0 0 5.3 8.1 19.2 19.2 0 0 0 13.1 2 13.7 13.7 0 0 0 7.7-4c2.5-2.6 3.2-6 3.2-9.5v-34.7a3.1 3.1 0 0 0 -.1-1h-7.6v1.3c0 10.4.1 20.7 0 31a27.8 27.8 0 0 1 -.7 5.7 4.3 4.3 0 0 1 -3.2 3.6 12 12 0 0 1 -3.8.4c-3.9-.2-5.4-1.5-6.2-5.1a19.5 19.5 0 0 1 -.3-3.4v-33.6zm106.6 28.2c.7 2 1.3 3.9 1.9 5.8s.7 1.7 1.9 1.5a4.5 4.5 0 0 1 2 0c.2 0 .6.3.6.5a5.2 5.2 0 0 1 -3.5 5.7 10.4 10.4 0 0 1 -5.8.1c-2.8-.7-4.1-2.2-4.1-5.1-.1-8-.1-16.1 0-24.1 0-2.6 1.2-4 3.7-4.8a15.5 15.5 0 0 1 8.8.5c.9.3 1.1.1 1.4-.7s1-3.3 1.6-4.9.1-1.1-.6-1.4a22.1 22.1 0 0 0 -8.8-1.9c-2.9.1-5.7.4-8.2 2.1s-5.5 6.8-5.6 11.4c-.1 7.9-.1 15.9 0 23.8.1 5.4 2.5 9.4 7.4 11.6a16.9 16.9 0 0 0 12.7.6c.4 0 .7-.2 1-.1a22.3 22.3 0 0 0 2.3.4h5.4v-21zm69.6-.7h6.4a1.2 1.2 0 0 0 1.4-1.1c.4-1.8 1-3.5 1.5-5.2s.1-.7.2-1.1h-9.5v-12.4h15.6v-7.6h-23.3v49h23.1v-6.9h-15.4zm-42-27.4v49h25.2v-7h-17.7v-42zm-160.4 45.2q1.2 3.2 2.4 6a1.1 1.1 0 0 0 .9.5l3.7-.4c2.9-.6 5.5-1.7 6.6-4.7a14.5 14.5 0 0 0 1.1-5c.2-13.6.1-27.2.2-40.7 0-.3-.1-.6-.1-.9h-11.6v7.3l4.1.3v.4c0 10.3.1 20.6 0 30.9 0 3.2-1.8 5.2-4.8 6z" fill="#fff"/></svg>