<svg enable-background="new 0 0 226 162" viewBox="0 0 226 162" xmlns="http://www.w3.org/2000/svg" xmlns:xlink="http://www.w3.org/1999/xlink"><g fill="#c6c6c6"><path d="m9 147.3h-.3l-.3-.3-.5-.3h-1.5l-.6.4-.3.6c-.1.2-.1.5-.1.7 0 .3.1.6.2.8s.2.4.4.5l.6.4.8.3.7.3.6.4c.2.2.4.4.5.7s.1.6.1.9c0 .4 0 .7-.1 1.1-.1.3-.3.7-.5.9-.2.3-.5.5-.8.6-.3.2-.7.3-1.1.3-.5 0-.9-.1-1.3-.4-.4-.2-.7-.5-1-.9l.2-.2h.2l.2.2.3.3.4.2.4.2h.6l.9-.2.6-.4c.2-.2.3-.4.4-.7s.1-.6.1-.9 0-.6-.2-.8c-.1-.2-.2-.4-.4-.5l-.6-.4-.8-.3-.7-.3-.6-.4-.5-.7c-.1-.6-.1-1.3 0-1.9.1-.3.3-.5.5-.7.2-.3.4-.5.7-.6l.9-.2c.4 0 .8.1 1.1.3.4.1.7.3.9.7z"/><path d="m22.7 146.1v.6h-2.7v8.8h-.6v-8.8h-2.8v-.6z"/><path d="m33.6 155c.4 0 .7-.1 1-.3.3-.1.6-.3.8-.6s.3-.6.4-1 .2-.8.2-1.2v-5.8h.6v5.8c0 .5-.1.9-.2 1.4-.2.4-.4.8-.6 1.2-.3.3-.6.6-1 .8s-.8.3-1.2.3c-.5 0-.9-.1-1.3-.3l-.9-.8c-.3-.3-.5-.7-.6-1.2s-.2-.9-.2-1.4v-5.8h.6v5.8c0 .4 0 .8.1 1.2l.5 1c.2.3.5.5.8.6.3.2.6.3 1 .3z"/><path d="m52 150.8c0 .6 0 1.3-.2 1.9-.2.5-.5 1-.8 1.5-.3.4-.7.7-1.2.9-.4.3-1 .4-1.5.4h-2.9v-9.4h2.9c.5 0 1.1.1 1.5.4.5.2.9.5 1.2.9.3.5.6 1 .8 1.5.2.6.2 1.3.2 1.9zm-.5 0c0-.6-.1-1.2-.3-1.7-.1-.5-.3-.9-.6-1.3-.2-.4-.6-.7-1-.8-.4-.2-.8-.3-1.3-.3h-2.3v8.2h2.3c.5 0 .9-.1 1.3-.3.4-.1.8-.4 1-.8.3-.4.5-.8.6-1.3.2-.5.3-1.1.3-1.7z"/><path d="m61.2 155.5h-.5v-9.4h.5z"/><path d="m77.4 150.8c0 .7-.1 1.4-.3 2-.2.5-.4 1-.7 1.5-.3.4-.8.7-1.2.9-1 .5-2.1.5-3.1 0l-1.2-.9c-.3-.5-.5-1-.7-1.5-.4-1.3-.4-2.7 0-4 .2-.5.4-1 .7-1.5l1.2-.9c.5-.3 1-.4 1.5-.4.6 0 1.1.1 1.6.4.4.2.9.5 1.2.9.3.5.5 1 .7 1.5.2.7.3 1.3.3 2zm-.6 0c0-.6-.1-1.2-.2-1.8-.2-.5-.4-.9-.7-1.3-.3-.3-.6-.6-1-.8s-.8-.3-1.3-.3c-.4 0-.8.1-1.2.3s-.7.5-1 .8c-.3.4-.5.8-.7 1.3-.1.6-.2 1.2-.2 1.8s.1 1.1.2 1.7c.2.5.4 1 .7 1.4.3.3.6.6 1 .8s.8.3 1.2.3c.5 0 .9-.1 1.3-.3s.7-.5 1-.8c.3-.4.5-.9.7-1.4.1-.5.2-1.1.2-1.7z"/><path d="m90.4 145.8.8.2c.3.1.5.3.7.5s.3.4.4.7c.1.2.2.5.2.7l-.9.3h-.2c-.1 0-.1-.1-.1-.2l-.2-.3v-.4l-.3-.2h-.8l-.3.2-.2.4v.8c0 .1.1.3.1.4l.2.4.3.4 2.2 2.6.3-.9c0-.3.1-.6.1-.9s0-.2.1-.2h1c0 .5 0 1.1-.2 1.6-.1.5-.3 1-.6 1.5l1.7 2.1h-1.4c-.1 0-.2 0-.2-.1h-.3c-.1-.1-.1-.1-.1-.2l-.6-.6c-.3.3-.8.6-1.2.8s-.9.3-1.4.3l-.9-.2c-.3-.1-.6-.3-.8-.6l-.6-.8c-.1-.4-.2-.8-.2-1.2 0-.3.1-.5.1-.8.1-.3.2-.5.4-.7.1-.3.3-.5.5-.7l.7-.4c-.2-.3-.4-.7-.5-1s-.1-.6-.1-.9 0-.7.1-1 .3-.6.5-.8.4-.4.7-.5zm-2 6.9c0 .2.1.5.1.7l.3.4c.1.2.3.3.4.4h.6l.8-.2.8-.5-2.1-2.6c-.3.2-.5.5-.7.8-.1.3-.2.7-.2 1z"/><path d="m109.1 153.9.3.3-.5.6-.7.4-.7.3h-.9c-.5 0-1.1-.1-1.5-.4-.5-.2-.9-.5-1.2-.9-.3-.5-.5-1-.7-1.5-.2-.6-.3-1.3-.3-2 0-.6.1-1.3.3-1.9s.4-1.1.8-1.6c.3-.4.7-.7 1.2-.9.4-.3 1-.4 1.5-.4h.8l.7.2.6.4.5.5-.2.3h-.2l-.2-.2-.3-.2-.4-.3h-1.3c-.4 0-.9.1-1.3.3s-.7.5-1 .8c-.3.4-.5.9-.7 1.4s-.2 1.1-.2 1.7 0 1.2.2 1.8c.2.5.4.9.7 1.3.3.3.6.6 1 .8s.8.3 1.2.3h.8l.6-.2.5-.3c.2-.1.3-.3.5-.5h.1z"/><path d="m123.8 150.8c0 .7-.1 1.4-.3 2-.2.5-.5 1-.8 1.5-.3.4-.7.7-1.1.9-1 .5-2.1.5-3.1 0-.4-.2-.9-.5-1.2-.9-.3-.5-.5-1-.7-1.5-.4-1.3-.4-2.7 0-4 .2-.5.4-1 .7-1.5.3-.4.8-.7 1.2-.9.5-.3 1-.4 1.5-.4.6 0 1.1.1 1.6.4.4.2.8.5 1.1.9.3.5.6 1 .8 1.5.2.7.3 1.3.3 2zm-.6 0c0-.6-.1-1.2-.2-1.8-.2-.5-.4-.9-.7-1.3-.3-.3-.6-.6-1-.8s-.8-.3-1.3-.3c-.4 0-.8.1-1.2.3s-.7.5-1 .8c-.3.4-.5.8-.7 1.3-.2.6-.2 1.2-.2 1.8s0 1.2.2 1.7.4 1 .7 1.4c.3.3.6.6 1 .8s.8.3 1.2.3c.5 0 .9-.1 1.3-.3s.7-.5 1-.8c.3-.4.5-.9.7-1.4.1-.5.2-1.1.2-1.7z"/><path d="m131.2 146.1h.4c.1 0 .2.1.2.2l2 7.7v.3c0-.1 0-.2.1-.3l2.2-7.7h.1c0-.1 0-.1.1-.1h.3l2.3 7.7v.4c.1 0 .1.2.1.3v-.3c.1-.1.1-.2.1-.3l2-7.7h.1c0-.1 0-.1.1-.1h.4l-2.4 9.4h-.6l-2.3-8.1c0-.1 0-.3-.1-.4v.4l-2.4 8.1h-.5z"/><path d="m155.8 150.8c0 .7-.1 1.4-.3 2-.2.5-.4 1-.7 1.5l-1.2.9c-1 .5-2.1.5-3.1 0-.4-.2-.8-.5-1.1-.9-.3-.5-.6-1-.8-1.5-.4-1.3-.4-2.7 0-4 .2-.5.5-1 .8-1.5.3-.4.7-.7 1.1-.9.5-.3 1-.4 1.6-.4.5 0 1 .1 1.5.4l1.2.9c.3.5.5 1 .7 1.5.2.7.3 1.3.3 2zm-.6 0c0-.6-.1-1.2-.2-1.8-.2-.5-.4-.9-.7-1.3-.3-.3-.6-.6-1-.8s-.8-.3-1.2-.3c-.5 0-.9.1-1.3.3s-.7.5-1 .8c-.3.4-.5.8-.7 1.3-.1.6-.2 1.2-.2 1.8s.1 1.1.2 1.7c.2.5.4 1 .7 1.4.3.3.6.6 1 .8s.8.3 1.3.3c.4 0 .8-.1 1.2-.3s.7-.5 1-.8c.3-.4.5-.9.7-1.4.1-.5.2-1.1.2-1.7z"/><path d="m165 151.2v4.3h-.6v-9.4h2c.8-.1 1.5.2 2.1.7.4.5.7 1.1.6 1.8 0 .3 0 .7-.1 1s-.3.5-.5.7c-.2.3-.4.5-.7.6l-.9.3.2.2 2.7 4.1h-.7l-2.6-3.8c0-.1-.1-.2-.2-.2h-1.3zm0-.5h2.3l.7-.4c.2-.2.3-.4.4-.7s.2-.6.2-.9c0-.6-.2-1.1-.6-1.5-.5-.3-1-.5-1.6-.4h-1.4z"/><path d="m178.6 150.4h1l3.2-4.1h.2c0-.1 0-.1.1-.1h.5l-3.4 4.1-.2.2h-.2l.2.2c.1 0 .1.1.2.2l3.6 4.5h-.8l-3.3-4.1c-.1 0-.1 0-.1-.1h-1v4.5h-.6v-9.6h.6z"/><path d="m192.6 155.5h-.6v-9.4h.6z"/><path d="m202.1 146.2h.1l5.1 8v-8.1h.5v9.4h-.3c-.1 0-.2-.1-.2-.2l-5.1-8.1v8.3h-.5v-9.4l.4.1c0-.1 0 0 0 0z"/><path d="m219.1 155h.7l.6-.2.6-.2.5-.3v-2.6h-1.7v-.4h2.2v3.3l-.6.5-.7.3-.8.2h-.9c-.5 0-1.1-.1-1.5-.4-.5-.2-.9-.5-1.2-.9-.3-.5-.6-1-.8-1.5-.4-1.3-.4-2.7 0-4 .1-.6.4-1.1.8-1.5.3-.4.7-.7 1.2-.9.5-.3 1.1-.4 1.7-.4h.8l.7.2.6.4.6.4-.2.3c0 .1 0 .1-.1.1h-.1l-.3-.2-.4-.3-.7-.3h-1c-.5 0-.9.1-1.3.3s-.8.5-1.1.8c-.3.4-.5.8-.7 1.3-.3 1.2-.3 2.4 0 3.6.2.5.4.9.7 1.3.3.3.6.6 1 .8s.9.3 1.4.3z"/></g><path d="m100.5 113.6h-.2l-.5-.8c-5.6-9.7-11.2-19.2-16.6-29-1.3-2.1-2.6-3.2-5.2-2.8-1.4.1-2.8.1-4.2 0v49.1h7.6v-32.7c.3.2.6.5.8.8 1.7 3.1 3.5 6.2 5.3 9.3l12.5 21.8c.2.3.5.8.8.9h7.4v-49.1h-7.7zm-70.3-32.6v35.6c0 1.2 0 2.4.2 3.6.4 3.4 2.4 6.4 5.3 8.1 4 2.2 8.6 2.9 13.1 2 2.9-.5 5.6-1.9 7.7-4 2.5-2.6 3.2-6 3.2-9.5v-34.7c0-.3 0-.7-.1-1h-7.6v1.3c0 10.4.1 20.7 0 31 0 1.9-.3 3.8-.7 5.7-.2 1.7-1.5 3.2-3.2 3.6-1.2.3-2.5.5-3.8.4-3.9-.2-5.4-1.5-6.2-5.1-.2-1.1-.3-2.3-.3-3.4v-33.6zm106.6 28.2c.7 2 1.3 3.9 1.9 5.8s.7 1.7 1.9 1.5c.7-.2 1.3-.2 2 0 .2 0 .6.3.6.5.4 2.5-1.1 4.9-3.5 5.7-1.9.6-3.9.6-5.8.1-2.8-.7-4.1-2.2-4.1-5.1-.1-8-.1-16.1 0-24.1 0-2.6 1.2-4 3.7-4.8 2.9-.7 6-.5 8.8.5.9.3 1.1.1 1.4-.7s1-3.3 1.6-4.9.1-1.1-.6-1.4c-2.8-1.2-5.8-1.9-8.8-1.9-2.9.1-5.7.4-8.2 2.1s-5.5 6.8-5.6 11.4c-.1 7.9-.1 15.9 0 23.8.1 5.4 2.5 9.4 7.4 11.6 4 1.8 8.5 2.1 12.7.6.4 0 .7-.2 1-.1.8.2 1.5.3 2.3.4h5.4v-21zm69.6-.7h6.4c.7.1 1.3-.3 1.4-1v-.1c.4-1.8 1-3.5 1.5-5.2s.1-.7.2-1.1h-9.5v-12.4h15.6v-7.6h-23.3v49h23.1v-6.9h-15.4zm-42-27.4v49h25.2v-7h-17.7v-42zm-160.4 45.2c.8 2.1 1.6 4.1 2.4 6 .2.3.5.5.9.5l3.7-.4c2.9-.6 5.5-1.7 6.6-4.7.7-1.6 1-3.3 1.1-5 .2-13.6.1-27.2.2-40.7 0-.3-.1-.6-.1-.9h-11.6v7.3l4.1.3v.4c0 10.3.1 20.6 0 30.9 0 3.2-1.8 5.2-4.8 6z" fill="#fff"/><image height="317" overflow="visible" transform="matrix(.2434 0 0 .2434 -3.295 -1.0665)" width="942" xlink:href="jungle_logo_bit.png"/></svg>