<svg enable-background="new 0 0 997.7 240.2" viewBox="0 0 997.7 240.2" xmlns="http://www.w3.org/2000/svg"><path d="m6.3 120c0-33.5 0-67 0-100.5 0-8.8 2.6-11.4 11.2-11.4h22.5c8.6 0 11.3 2.7 11.3 11.5v44.5 111.5c0 9.2 2.7 11.9 11.9 11.9h31c9.4 0 12.1-2.8 12.1-12.3 0-21.8 0-43.7 0-65.5 0-9.4 2.7-12.1 12.3-12.1h22.5c6.6.1 9.9 3.1 10.5 9.5.1 1.2.1 2.3.1 3.5.1 36.8.1 73.7.2 110.5 0 8.3-3.1 11.5-11.3 11.5-40.8 0-81.7 0-122.5 0-8.9 0-11.7-2.8-11.7-11.6-.2-33.6-.1-67.3-.1-101z" fill="#9fc2ff"/><path d="m181.6 164.1c0-19 0-38 0-57 0-6.1 3.1-9.3 9.2-9.5 8.8-.2 17.7-.2 26.5 0 6 .1 9.3 3.5 9.3 9.5.1 38.6.1 77.3 0 115.9 0 6-3.3 9.4-9.2 9.5-8.5.2-17 .2-25.5 0-6.6-.1-10.1-4-10.1-11-.1-19.2 0-38.3 0-57.5-.1.1-.1.1-.2.1z" fill="#9fc2ff"/><g fill="#fff"><path d="m871.1 50.4c0-3.5 0-6.3 0-9.3h27.4v12.5c-4.1 0-8.2 0-13 0v18.3c-.1 13.6.5 27.3-.3 40.9-1.6 25.7-17.6 38.6-43.2 35.6-8.7-1-16.8-3.6-24.1-9.8 3-3.5 5.9-6.8 9-10.3 11.3 7.1 23.1 11.1 35.1 3 8.7-5.9 9.7-15.3 8.9-25.8-8.4 7.2-17.5 11.5-28.3 10.8-10.7-.7-19.4-5.5-25.8-14.2-11.3-15.2-9.7-37.7 3.5-51.4 13.3-14 29.8-14.3 50.8-.3zm-.1 27.7c-.1-13.5-11-24.9-23.7-24.7-13 .2-22.7 11.1-22.6 25.5.1 14.2 9.8 24.3 23.1 24.1 13.1 0 23.3-11 23.2-24.9z"/><path d="m618.8 41.1v12.6c-4.2 0-8.3 0-12.9 0v5.9c0 16.3.1 32.7-.1 49 0 4.5-.4 9-1.5 13.4-4.6 19.5-20.7 29.4-42.4 26.4-10.2-1.4-16.9-4.1-23.8-9.9 3-3.4 6.1-6.7 9.2-10.1 11.5 7.3 23.3 11.1 35.3 2.8 8.5-5.9 9.4-15.3 8.5-25.3-21.8 17.8-41.8 10.3-51.8-.9-13.3-14.9-12.9-38.8.9-54 13.1-14.4 31.2-14.8 50.7-.8.2-3.2.4-6 .7-9.1zm-51 62c13.4 0 24-11.1 23.8-24.9-.2-13.5-11-24.8-23.7-24.7-12.8 0-22.9 11.1-22.9 25.2 0 14 9.8 24.5 22.8 24.4z"/><path d="m426.1 181.4c-3.5 0-6.6 0-10 0 0-3.7 0-7 0-10.6h22.6c.1 2.1.2 4.2.3 5.4 6.3-2.2 12.5-5.1 19-6.4 7.3-1.4 13.4 1.6 16.5 8.2 5.8-2.7 10.9-5.9 16.5-7.6 13.7-4 22.7 3.1 22.7 17.2v33.4c3.6.2 6.8.3 10.4.5v10.7c-7.4 0-14.7 0-22.7 0 0-5.5 0-11.1 0-16.7 0-8.5.2-17-.1-25.5-.2-8.5-4.4-11.4-12.5-8.6-3.6 1.2-6.9 3.3-10.1 5.3-1.1.7-2.2 2.3-2.2 3.5-.2 10.1-.1 20.3-.1 30.8h10.2v11c-7.3 0-14.7 0-22.6 0 0-9.8 0-19.6 0-29.4 0-4.3.1-8.7 0-13-.3-8-4.4-11-11.8-8.4-3.9 1.4-7.5 3.6-11 5.7-1 .6-2 2.3-2 3.6-.2 10-.1 20-.1 30.5h10.7v11c-11.5 0-22.7 0-34.3 0 0-3.6 0-7 0-10.9h10.8c-.2-13-.2-25.9-.2-39.7z"/><path d="m324 221.4h10.7v11c-11.3 0-22.6 0-34.1 0 0-3.6 0-7 0-10.8h10.6c0-13.4 0-26.4 0-39.9-3.1-.1-6.2-.3-9.8-.5 0-3.5 0-6.8 0-10.5h22.3c.2 2 .3 4.1.4 5.5 6.4-2.2 12.5-5.1 19-6.4 7.4-1.5 13.3 1.8 16.2 7.6 7.5-2.7 14.3-6.5 21.6-7.5 11.5-1.5 17.7 5.2 17.8 16.8.1 11.3 0 22.7 0 34.5 3.6.2 7 .4 10.6.6v10.5c-7.4 0-14.8 0-22.7 0 0-11.7 0-23.3 0-34.9 0-3.2 0-6.4-.4-9.5-.7-5.6-4-8.4-9.3-6.9-4.8 1.4-9.3 4.2-13.8 6.6-.8.4-1.4 1.9-1.5 2.9-.1 10.1-.1 20.3-.1 30.9h10v11c-7.3 0-14.6 0-22.7 0 0-1.7 0-3.5 0-5.2 0-12.2.1-24.3 0-36.5-.1-9-4.5-11.9-13.1-8.8-.8.3-1.5.6-2.3.9-6.7 2.7-10.9 6.5-9.8 14.9 1.1 7.5.4 15.2.4 23.7z"/><path d="m259.5 113.9c0-4.5 0-8.4 0-13h13c0-26.4 0-52.1 0-78.3-4.3 0-8.4 0-12.9 0 0-4.5 0-8.6 0-13.1h42.7v12.8c-4.4 0-8.6 0-13.1 0v78.2h33.6c0-10.4 0-21 0-31.7h13.1v45.2c-25.4-.1-50.7-.1-76.4-.1z"/><path d="m449.5 53.8c-4.1 0-8 0-12.2 0 0-4.5 0-8.4 0-12.6h26.7c.2 2.4.4 4.7.7 7.6 2.2-1.2 3.8-2.5 5.7-3.2 5.9-2.1 11.8-4.9 17.9-5.5 11.4-1.1 18.7 5.2 19.5 16.6.9 12.4.6 25 .9 37.5v7h11.9v12.8c-8.7 0-17.4 0-26.8 0 0-3.9 0-7.9 0-11.8 0-12.7.1-25.3 0-38-.1-9.2-4.2-12.8-13-10.2-5.1 1.5-9.9 4.6-14.6 7.3-1 .6-1.8 2.4-1.8 3.7-.1 11.8-.1 23.6-.1 36.1h12.2v12.9c-12.9 0-25.9 0-39.2 0 0-4 0-7.9 0-12.4h12.2c0-16.2 0-31.8 0-47.8z"/><path d="m924 80.9c.3 10.1 6.7 18.5 15.6 21.5 11.5 3.8 23.4 0 32.4-10.8 3.9 1.7 7.9 3.5 11.8 5.3.1.6.3 1 .2 1.2-7.6 13.3-25.7 20.5-44.6 17.7-15.5-2.3-27.6-13.5-31.1-28.6-3.9-16.9 3-34.3 16.8-42.6 14.3-8.6 33.5-7.4 45.8 3.3 9.8 8.6 13.1 20.1 13.7 33.2-20.2-.2-40.2-.2-60.6-.2zm44.8-10.5c-2.3-11.6-11.8-19.4-23.1-19.3-10.9.1-19.4 7.7-21.4 19.3z"/><path d="m633.3 53.8c0-4.4 0-8.3 0-12.6h24.4c.1 1.6.3 3.4.3 5.1v44.5c0 10.4 4.2 13.9 14.2 10.8 4.8-1.5 9.1-4.6 13.6-7.1.8-.5 1.5-1.9 1.5-2.8.1-12.4.1-24.9.1-37.8-4.4 0-8.3 0-12.6 0 0-4.5 0-8.5 0-12.8h27.3v29.9 30h12.3v12.8c-8.8 0-17.7 0-26.7 0-.2-2.3-.3-4.4-.5-6.9-4.2 2.1-7.9 4.6-12 6-4 1.4-8.4 2.6-12.6 2.5-11.8-.3-18.1-7-18.7-20.2-.5-12-.4-23.9-.5-35.9 0-1.6 0-3.3 0-5.4-3.6-.1-6.7-.1-10.1-.1z"/><path d="m774.7 72.1c0-.8 0-2.7 0-4.5-.1-6-.4-12.2-6.8-14.9-7.3-3-15.2-3.1-21 2.8-3.6 3.7-6.6 4-10.7 2.3-2-.8-4.2-1-6.8-1.6 3.7-8 9.7-12.8 17.5-15.4 8.2-2.7 16.7-2.9 25.1-.8 10.5 2.6 16.3 9.9 16.8 22 .4 11 .2 22 .3 33v5.9h12v12.7c-8 0-16.2 0-24.8 0-.1-2.3-.2-4.6-.4-7.8-1.8 1.4-3.1 2.4-4.5 3.4-8.1 5.5-16.9 7.8-26.5 4.7-11-3.6-17.9-14-16.5-24.4 1.5-11.7 11.2-20.8 23.8-20.8 7.3 0 14.7 2.2 22.5 3.4zm.9 19.9c-1-2.8-1.2-5.2-2.4-6.2-5.7-4.4-12.1-7-19.4-6.2-6.9.8-12.2 7-11.7 13.3.6 6.8 6.3 12 13.5 10.9 5.4-.9 10.6-3.3 15.5-5.8 2.1-1.1 3.1-4 4.5-6z"/><path d="m397.1 74.3c-.6-5.7-.5-10.6-1.9-15-.9-2.7-3.8-5.6-6.5-6.8-7.5-3.4-16.6-1-22.4 5-.9.9-2.8 1.6-4 1.4-3.6-.6-7.1-1.7-11.1-2.7 2.9-6.5 7.5-10.8 13.5-13.6 9.6-4.5 19.6-5 29.7-2.3 10.9 2.9 16.2 10.8 16.4 23.8.2 10.5 0 21 0 31.5v5.5h11.9v12.7c-8 0-16.1 0-24.4 0-.2-2.5-.4-4.8-.5-6-6.9 2.5-13.6 6.1-20.7 7.3-16.7 2.7-30.6-13.2-26.3-29.2 2.4-9.1 11.8-16.4 22.3-17.3 6.9-.6 13.6.3 19.8 3.8 1 .5 2 .9 4.2 1.9zm-17.9 4.1c-8.8.9-15.2 6.3-15.3 13.4-.1 6.9 5.5 12.3 13 12.2 7.2 0 13.2-3 18.4-7.7 2.4-2.2 2.2-9.2-.5-10.7-5.1-2.7-10.4-4.9-15.6-7.2z"/><path d="m595.8 204.7c-17.5 0-34.5 0-51.6 0-.1 10.1 8.5 17.8 17.4 18.7 7.7.8 14.8-.9 20.1-6.7 2.7-3 4.8-3.3 7.9-1.3 1.7 1 3.6 1.7 5.9 2.7-5 8.3-12.3 12.7-21.1 14.9-19.2 4.9-37.1-3.7-42.8-20.5-6.3-18.4 3.8-38 21.9-42.7 19.8-5.1 37.7 6.3 41.2 26.4.5 2.7.7 5.3 1.1 8.5zm-14-9.1c-1.2-9.2-9.5-16.3-18.9-16.4s-17.1 6.7-18.4 16.4z"/><path d="m850.7 221.4h9.8v10.9c-11 0-22 0-33.4 0 0-3.4 0-6.8 0-10.6h10.3c0-13.5 0-26.5 0-40-3.3-.2-6.7-.3-10.3-.5 0-3.5 0-6.8 0-10.4h22.6c.2 1.9.3 3.8.6 6.3 1.5-.8 2.6-1.7 3.9-2.1 5.9-1.9 11.8-4.6 17.9-5.2 8.1-.8 13.5 3.8 14.6 11.9 1.1 8.2.9 16.6 1.1 24.9.1 4.8 0 9.6 0 14.8h10.2v11c-7.4 0-14.6 0-22.3 0-.1-1.2-.4-2.4-.4-3.7 0-12.3.1-24.6 0-36.9-.1-10.2-4.4-13.1-14-9.6-1.1.4-2.1 1-3.2 1.4-5.9 2.4-9.1 6.1-8.3 13.2.8 7.6.2 15.3.3 23 .1.3.3.6.6 1.6z"/><path d="m787.3 168.8c18.5 0 33 14.3 33.1 32.8.1 18.1-14.4 32.7-32.5 32.9-18.6.2-33-14-33-32.7-.1-19.1 13.5-32.9 32.4-33zm19.8 32.7c-.1-11.3-8.7-20.5-19.4-20.6-10.6-.1-19.9 9.7-19.8 20.9.1 11.5 9 20.5 20.1 20.4 10.9-.2 19.1-9.1 19.1-20.7z"/><path d="m669.2 229.9c-2.9 5.4-7.6 1.3-11.9 3.6 0-4.4 0-7.9 0-11.3 0-3.5 0-6.9 0-11.1 2.8 0 5.1-.4 7.3.1 1.5.4 3.5 1.6 4 3 3.4 8.4 17.1 12.1 24.2 6.3 4.5-3.6 3.6-9-2-10.7-6.7-2-13.6-3.1-20.3-5.1-9.4-2.9-13.8-8.8-12.7-18.2.5-4 2.9-8.7 5.9-11.4 3.3-2.8 8.2-4.7 12.6-5.1 9.4-.9 18.8 2.8 28.6 0v20.8c-3.2 0-6.5 0-9.8 0-2.8-10-13.2-12.3-20-10.3-3.4 1-6.2 2.8-6.3 6.8-.1 3.9 2.8 5.5 6.1 6.2 5.4 1.2 10.8 2.1 16.1 3.3 7.4 1.7 14.1 4.5 16.4 12.7 2.7 9.5-2.1 18.6-11.5 22.1-8.7 3.3-17.6 2.8-26.7-1.7z"/><path d="m203.8 8.1c4.5 0 9-.1 13.5 0 5.7.1 9.2 3.3 9.3 8.9.2 9 .2 18 0 27-.1 5.6-3.6 8.9-9.2 9.1-9 .2-18 .2-26.9 0-5.4-.1-8.9-3.4-9-8.7-.2-9.1-.3-18.3 0-27.4.2-5.7 3.6-8.6 9.4-8.8 4.2-.2 8.5-.1 12.9-.1z"/><path d="m129.2 8.1c4.3 0 8.7-.1 13 0 5.8.1 9 3.2 9.1 9 .1 9 .1 18 0 26.9-.1 5.5-3.2 8.8-8.6 9-9.3.2-18.6.2-27.9 0-5-.1-8.3-3.6-8.4-8.8-.2-9.1-.2-18.3 0-27.4.1-5.5 3.4-8.5 8.9-8.7 4.6-.1 9.3 0 13.9 0z"/><path d="m269.3 155.1c-3-.2-5.8-.3-8.9-.5 0-3.5 0-6.9 0-10.6h32.3v10.7c-3.1 0-5.8 0-9 0v66.7h9v10.9c-10.7 0-21.4 0-32.4 0 0-3.5 0-6.8 0-10.6 2.9-.2 5.8-.4 9.1-.6-.1-21.9-.1-43.8-.1-66z"/><path d="m627.5 221.5h13.6v11c-12.6 0-25 0-37.7 0 0-3.6 0-6.9 0-10.8h11.9c0-13.5 0-26.5 0-40-3.8 0-7.5 0-11.8 0 0-3.8 0-7.2 0-10.9h22v10.5c6.4-10.2 16-12.3 27.1-11.6v12.1c-3.3.3-6.6.5-9.9.8-8.4 1-13.1 5.3-14 13.6-.8 8.2-.8 16.4-1.2 25.3z"/><path d="m738.8 221.3c3.4.2 6.1.3 9.2.4v10.7c-10.2 0-20.3 0-30.8 0 0-3.3 0-6.7 0-10.7 2.7-.1 5.6-.3 9-.4 0-13.1 0-26.2 0-39.7-2.9 0-5.8 0-9.1 0 0-3.8 0-7 0-11.1h10.6 11c.1 17.1.1 33.8.1 50.8z"/><path d="m928.4 206.4c-2.1-.2-3.6-.3-5.3-.5 0-1.8 0-3.4 0-4.9 9.6-1 10-.9 11.9 2.4 3.1-1 6.2-2.3 9.4-2.8 5.2-.7 8 1.3 8.7 6.6.7 6.2.7 12.6 1 19.2 1.5.1 2.9.3 4.6.4v5c-3.5 0-6.9 0-11.2 0 0-6.1.1-12.4 0-18.6-.1-3.1 1-7.3-4.3-7.3-5 0-8.7 3.6-8.7 8.1v12.2c1.8.2 3.4.4 5.2.7v4.9c-5.4 0-10.9 0-16.5 0-.1-1.5-.2-3-.3-4.8 1.7-.2 3.3-.4 5.5-.7 0-3.1 0-6.4 0-9.6s0-6.5 0-10.3z"/><path d="m988.8 200.6v11.8c-2.6.2-4.8 1.1-6.3-2.6-1.7-4.2-7.1-5.4-11.2-3.3-4.4 2.3-5.7 6.3-5.4 10.9.3 4.3 2 7.8 6.2 9.4 4.4 1.6 8.2.5 11.2-3.1.5-.6 1.1-1.2 1.8-2.1 1.5.7 2.9 1.4 4.3 2.1-3.6 8.2-12 11.5-20.3 8.3-8.1-3.1-12.1-12.7-9.1-21.7 2.6-7.9 10.9-11.9 18.8-9.9 3.1.8 6.3.2 10 .2z"/><path d="m909.5 206.5c-1.5-.2-2.8-.4-4.5-.6-.1-1.6-.1-3.2-.2-5h11.2v12.5 12.8c1.6.3 3.1.6 4.6.9v4.8c-5.1 0-10.1 0-15.5 0-.1-1.5-.2-3-.4-4.8 1.7-.3 3.1-.5 4.8-.7 0-6.5 0-12.9 0-19.9z"/><path d="m739.7 149.4c.1 4.1-3.3 7.6-7.5 7.6-4 0-7.2-3.2-7.2-7.3-.1-4.2 2.8-7.4 6.9-7.6 4.2-.2 7.7 3 7.8 7.3z"/><path d="m912.1 184.7c2 2.5 3.9 3.9 3.7 5-.2 1.5-2 2.7-3.1 4.1-1.2-1.1-3.3-2-3.5-3.2-.2-1.5 1.4-3.1 2.9-5.9z"/></g></svg>