<?xml version="1.0" encoding="utf-8"?>
<!-- Generator: Adobe Illustrator 24.1.0, SVG Export Plug-In . SVG Version: 6.00 Build 0)  -->
<svg version="1.1" id="Layer_1" xmlns="http://www.w3.org/2000/svg" xmlns:xlink="http://www.w3.org/1999/xlink" x="0px" y="0px"
	 viewBox="0 0 997.7 240.2" style="enable-background:new 0 0 997.7 240.2;" xml:space="preserve">
<style type="text/css">
	.st0{fill:#9FC2FF;}
	.st1{fill:#FFFFFF;}
</style>
<g id="_x39_qqUGe_1_">
	<g>
		<path class="st0" d="M6.3,120c0-33.5,0-67,0-100.5c0-8.8,2.6-11.4,11.2-11.4c7.5,0,15,0,22.5,0c8.6,0,11.3,2.7,11.3,11.5
			c0,14.8,0,29.7,0,44.5c0,37.2,0,74.4,0,111.5c0,9.2,2.7,11.9,11.9,11.9c10.3,0,20.7,0,31,0c9.4,0,12.1-2.8,12.1-12.3
			c0-21.8,0-43.7,0-65.5c0-9.4,2.7-12.1,12.3-12.1c7.5,0,15,0,22.5,0c6.6,0.1,9.9,3.1,10.5,9.5c0.1,1.2,0.1,2.3,0.1,3.5
			c0.1,36.8,0.1,73.7,0.2,110.5c0,8.3-3.1,11.5-11.3,11.5c-40.8,0-81.7,0-122.5,0c-8.9,0-11.7-2.8-11.7-11.6
			C6.2,187.4,6.3,153.7,6.3,120z"/>
		<path class="st0" d="M181.6,164.1c0-19,0-38,0-57c0-6.1,3.1-9.3,9.2-9.5c8.8-0.2,17.7-0.2,26.5,0c6,0.1,9.3,3.5,9.3,9.5
			c0.1,38.6,0.1,77.3,0,115.9c0,6-3.3,9.4-9.2,9.5c-8.5,0.2-17,0.2-25.5,0c-6.6-0.1-10.1-4-10.1-11c-0.1-19.2,0-38.3,0-57.5
			C181.7,164.1,181.7,164.1,181.6,164.1z"/>
		<path class="st1" d="M871.1,50.4c0-3.5,0-6.3,0-9.3c9.2,0,18.1,0,27.4,0c0,4.2,0,8.1,0,12.5c-4.1,0-8.2,0-13,0
			c0,6.4,0,12.4,0,18.3c-0.1,13.6,0.5,27.3-0.3,40.9c-1.6,25.7-17.6,38.6-43.2,35.6c-8.7-1-16.8-3.6-24.1-9.8c3-3.5,5.9-6.8,9-10.3
			c11.3,7.1,23.1,11.1,35.1,3c8.7-5.9,9.7-15.3,8.9-25.8c-8.4,7.2-17.5,11.5-28.3,10.8c-10.7-0.7-19.4-5.5-25.8-14.2
			c-11.3-15.2-9.7-37.7,3.5-51.4C833.6,36.7,850.1,36.4,871.1,50.4z M871,78.1c-0.1-13.5-11-24.9-23.7-24.7
			c-13,0.2-22.7,11.1-22.6,25.5c0.1,14.2,9.8,24.3,23.1,24.1C860.9,103,871.1,92,871,78.1z"/>
		<path class="st1" d="M618.8,41.1c0,4.2,0,8.1,0,12.6c-4.2,0-8.3,0-12.9,0c0,2.3,0,4.1,0,5.9c0,16.3,0.1,32.7-0.1,49
			c0,4.5-0.4,9-1.5,13.4c-4.6,19.5-20.7,29.4-42.4,26.4c-10.2-1.4-16.9-4.1-23.8-9.9c3-3.4,6.1-6.7,9.2-10.1
			c11.5,7.3,23.3,11.1,35.3,2.8c8.5-5.9,9.4-15.3,8.5-25.3c-21.8,17.8-41.8,10.3-51.8-0.9C526,90.1,526.4,66.2,540.2,51
			c13.1-14.4,31.2-14.8,50.7-0.8c0.2-3.2,0.4-6,0.7-9.1C600.8,41.1,609.6,41.1,618.8,41.1z M567.8,103.1c13.4,0,24-11.1,23.8-24.9
			c-0.2-13.5-11-24.8-23.7-24.7C555.1,53.5,545,64.6,545,78.7C545,92.7,554.8,103.2,567.8,103.1z"/>
		<path class="st1" d="M426.1,181.4c-3.5,0-6.6,0-10,0c0-3.7,0-7,0-10.6c7.4,0,14.8,0,22.6,0c0.1,2.1,0.2,4.2,0.3,5.4
			c6.3-2.2,12.5-5.1,19-6.4c7.3-1.4,13.4,1.6,16.5,8.2c5.8-2.7,10.9-5.9,16.5-7.6c13.7-4,22.7,3.1,22.7,17.2c0,11,0,22,0,33.4
			c3.6,0.2,6.8,0.3,10.4,0.5c0,3.6,0,7,0,10.7c-7.4,0-14.7,0-22.7,0c0-5.5,0-11.1,0-16.7c0-8.5,0.2-17-0.1-25.5
			c-0.2-8.5-4.4-11.4-12.5-8.6c-3.6,1.2-6.9,3.3-10.1,5.3c-1.1,0.7-2.2,2.3-2.2,3.5c-0.2,10.1-0.1,20.3-0.1,30.8c3.6,0,6.7,0,10.2,0
			c0,3.8,0,7.2,0,11c-7.3,0-14.7,0-22.6,0c0-9.8,0-19.6,0-29.4c0-4.3,0.1-8.7,0-13c-0.3-8-4.4-11-11.8-8.4c-3.9,1.4-7.5,3.6-11,5.7
			c-1,0.6-2,2.3-2,3.6c-0.2,10-0.1,20-0.1,30.5c3.7,0,7.1,0,10.7,0c0,4,0,7.4,0,11c-11.5,0-22.7,0-34.3,0c0-3.6,0-7,0-10.9
			c3.7,0,7.1,0,10.8,0C426.1,208.1,426.1,195.2,426.1,181.4z"/>
		<path class="st1" d="M324,221.4c3.9,0,7.1,0,10.7,0c0,3.9,0,7.3,0,11c-11.3,0-22.6,0-34.1,0c0-3.6,0-7,0-10.8c3.6,0,6.9,0,10.6,0
			c0-13.4,0-26.4,0-39.9c-3.1-0.1-6.2-0.3-9.8-0.5c0-3.5,0-6.8,0-10.5c7.3,0,14.6,0,22.3,0c0.2,2,0.3,4.1,0.4,5.5
			c6.4-2.2,12.5-5.1,19-6.4c7.4-1.5,13.3,1.8,16.2,7.6c7.5-2.7,14.3-6.5,21.6-7.5c11.5-1.5,17.7,5.2,17.8,16.8
			c0.1,11.3,0,22.7,0,34.5c3.6,0.2,7,0.4,10.6,0.6c0,3.6,0,6.9,0,10.5c-7.4,0-14.8,0-22.7,0c0-11.7,0-23.3,0-34.9
			c0-3.2,0-6.4-0.4-9.5c-0.7-5.6-4-8.4-9.3-6.9c-4.8,1.4-9.3,4.2-13.8,6.6c-0.8,0.4-1.4,1.9-1.5,2.9c-0.1,10.1-0.1,20.3-0.1,30.9
			c3.5,0,6.6,0,10,0c0,3.9,0,7.3,0,11c-7.3,0-14.6,0-22.7,0c0-1.7,0-3.5,0-5.2c0-12.2,0.1-24.3,0-36.5c-0.1-9-4.5-11.9-13.1-8.8
			c-0.8,0.3-1.5,0.6-2.3,0.9c-6.7,2.7-10.9,6.5-9.8,14.9C324.7,205.2,324,212.9,324,221.4z"/>
		<path class="st1" d="M259.5,113.9c0-4.5,0-8.4,0-13c4.4,0,8.6,0,13,0c0-26.4,0-52.1,0-78.3c-4.3,0-8.4,0-12.9,0
			c0-4.5,0-8.6,0-13.1c14.1,0,28.3,0,42.7,0c0,4.2,0,8.2,0,12.8c-4.4,0-8.6,0-13.1,0c0,26.4,0,52.1,0,78.2c11.1,0,22,0,33.6,0
			c0-10.4,0-21,0-31.7c4.8,0,8.9,0,13.1,0c0,15.2,0,30.1,0,45.2C310.5,113.9,285.2,113.9,259.5,113.9z"/>
		<path class="st1" d="M449.5,53.8c-4.1,0-8,0-12.2,0c0-4.5,0-8.4,0-12.6c9,0,17.7,0,26.7,0c0.2,2.4,0.4,4.7,0.7,7.6
			c2.2-1.2,3.8-2.5,5.7-3.2c5.9-2.1,11.8-4.9,17.9-5.5c11.4-1.1,18.7,5.2,19.5,16.6c0.9,12.4,0.6,25,0.9,37.5c0,2.1,0,4.3,0,7
			c4.2,0,7.9,0,11.9,0c0,4.5,0,8.5,0,12.8c-8.7,0-17.4,0-26.8,0c0-3.9,0-7.9,0-11.8c0-12.7,0.1-25.3,0-38c-0.1-9.2-4.2-12.8-13-10.2
			c-5.1,1.5-9.9,4.6-14.6,7.3c-1,0.6-1.8,2.4-1.8,3.7c-0.1,11.8-0.1,23.6-0.1,36.1c4.1,0,8,0,12.2,0c0,4.6,0,8.5,0,12.9
			c-12.9,0-25.9,0-39.2,0c0-4,0-7.9,0-12.4c4,0,7.9,0,12.2,0C449.5,85.4,449.5,69.8,449.5,53.8z"/>
		<path class="st1" d="M924,80.9c0.3,10.1,6.7,18.5,15.6,21.5c11.5,3.8,23.4,0,32.4-10.8c3.9,1.7,7.9,3.5,11.8,5.3
			c0.1,0.6,0.3,1,0.2,1.2c-7.6,13.3-25.7,20.5-44.6,17.7c-15.5-2.3-27.6-13.5-31.1-28.6c-3.9-16.9,3-34.3,16.8-42.6
			c14.3-8.6,33.5-7.4,45.8,3.3c9.8,8.6,13.1,20.1,13.7,33.2C964.4,80.9,944.4,80.9,924,80.9z M968.8,70.4
			C966.5,58.8,957,51,945.7,51.1c-10.9,0.1-19.4,7.7-21.4,19.3C939.1,70.4,953.8,70.4,968.8,70.4z"/>
		<path class="st1" d="M633.3,53.8c0-4.4,0-8.3,0-12.6c8,0,15.9,0,24.4,0c0.1,1.6,0.3,3.4,0.3,5.1c0,14.8,0,29.7,0,44.5
			c0,10.4,4.2,13.9,14.2,10.8c4.8-1.5,9.1-4.6,13.6-7.1c0.8-0.5,1.5-1.9,1.5-2.8c0.1-12.4,0.1-24.9,0.1-37.8c-4.4,0-8.3,0-12.6,0
			c0-4.5,0-8.5,0-12.8c9.1,0,17.8,0,27.3,0c0,10.1,0,20,0,29.9c0,9.8,0,19.6,0,30c4.2,0,8.1,0,12.3,0c0,4.5,0,8.5,0,12.8
			c-8.8,0-17.7,0-26.7,0c-0.2-2.3-0.3-4.4-0.5-6.9c-4.2,2.1-7.9,4.6-12,6c-4,1.4-8.4,2.6-12.6,2.5c-11.8-0.3-18.1-7-18.7-20.2
			c-0.5-12-0.4-23.9-0.5-35.9c0-1.6,0-3.3,0-5.4C639.8,53.8,636.7,53.8,633.3,53.8z"/>
		<path class="st1" d="M774.7,72.1c0-0.8,0-2.7,0-4.5c-0.1-6-0.4-12.2-6.8-14.9c-7.3-3-15.2-3.1-21,2.8c-3.6,3.7-6.6,4-10.7,2.3
			c-2-0.8-4.2-1-6.8-1.6c3.7-8,9.7-12.8,17.5-15.4c8.2-2.7,16.7-2.9,25.1-0.8c10.5,2.6,16.3,9.9,16.8,22c0.4,11,0.2,22,0.3,33
			c0,1.8,0,3.6,0,5.9c4.1,0,7.9,0,12,0c0,4.5,0,8.4,0,12.7c-8,0-16.2,0-24.8,0c-0.1-2.3-0.2-4.6-0.4-7.8c-1.8,1.4-3.1,2.4-4.5,3.4
			c-8.1,5.5-16.9,7.8-26.5,4.7c-11-3.6-17.9-14-16.5-24.4c1.5-11.7,11.2-20.8,23.8-20.8C759.5,68.7,766.9,70.9,774.7,72.1z
			 M775.6,92c-1-2.8-1.2-5.2-2.4-6.2c-5.7-4.4-12.1-7-19.4-6.2c-6.9,0.8-12.2,7-11.7,13.3c0.6,6.8,6.3,12,13.5,10.9
			c5.4-0.9,10.6-3.3,15.5-5.8C773.2,96.9,774.2,94,775.6,92z"/>
		<path class="st1" d="M397.1,74.3c-0.6-5.7-0.5-10.6-1.9-15c-0.9-2.7-3.8-5.6-6.5-6.8c-7.5-3.4-16.6-1-22.4,5
			c-0.9,0.9-2.8,1.6-4,1.4c-3.6-0.6-7.1-1.7-11.1-2.7c2.9-6.5,7.5-10.8,13.5-13.6c9.6-4.5,19.6-5,29.7-2.3
			c10.9,2.9,16.2,10.8,16.4,23.8c0.2,10.5,0,21,0,31.5c0,1.6,0,3.3,0,5.5c4.1,0,7.8,0,11.9,0c0,4.5,0,8.4,0,12.7c-8,0-16.1,0-24.4,0
			c-0.2-2.5-0.4-4.8-0.5-6c-6.9,2.5-13.6,6.1-20.7,7.3c-16.7,2.7-30.6-13.2-26.3-29.2c2.4-9.1,11.8-16.4,22.3-17.3
			c6.9-0.6,13.6,0.3,19.8,3.8C393.9,72.9,394.9,73.3,397.1,74.3z M379.2,78.4c-8.8,0.9-15.2,6.3-15.3,13.4
			c-0.1,6.9,5.5,12.3,13,12.2c7.2,0,13.2-3,18.4-7.7c2.4-2.2,2.2-9.2-0.5-10.7C389.7,82.9,384.4,80.7,379.2,78.4z"/>
		<path class="st1" d="M595.8,204.7c-17.5,0-34.5,0-51.6,0c-0.1,10.1,8.5,17.8,17.4,18.7c7.7,0.8,14.8-0.9,20.1-6.7
			c2.7-3,4.8-3.3,7.9-1.3c1.7,1,3.6,1.7,5.9,2.7c-5,8.3-12.3,12.7-21.1,14.9c-19.2,4.9-37.1-3.7-42.8-20.5
			c-6.3-18.4,3.8-38,21.9-42.7c19.8-5.1,37.7,6.3,41.2,26.4C595.2,198.9,595.4,201.5,595.8,204.7z M581.8,195.6
			c-1.2-9.2-9.5-16.3-18.9-16.4c-9.4-0.1-17.1,6.7-18.4,16.4C556.9,195.6,569.2,195.6,581.8,195.6z"/>
		<path class="st1" d="M850.7,221.4c3.2,0,6.4,0,9.8,0c0,3.7,0,7.1,0,10.9c-11,0-22,0-33.4,0c0-3.4,0-6.8,0-10.6c3.3,0,6.6,0,10.3,0
			c0-13.5,0-26.5,0-40c-3.3-0.2-6.7-0.3-10.3-0.5c0-3.5,0-6.8,0-10.4c7.5,0,14.9,0,22.6,0c0.2,1.9,0.3,3.8,0.6,6.3
			c1.5-0.8,2.6-1.7,3.9-2.1c5.9-1.9,11.8-4.6,17.9-5.2c8.1-0.8,13.5,3.8,14.6,11.9c1.1,8.2,0.9,16.6,1.1,24.9c0.1,4.8,0,9.6,0,14.8
			c3.7,0,6.8,0,10.2,0c0,3.9,0,7.3,0,11c-7.4,0-14.6,0-22.3,0c-0.1-1.2-0.4-2.4-0.4-3.7c0-12.3,0.1-24.6,0-36.9
			c-0.1-10.2-4.4-13.1-14-9.6c-1.1,0.4-2.1,1-3.2,1.4c-5.9,2.4-9.1,6.1-8.3,13.2c0.8,7.6,0.2,15.3,0.3,23
			C850.2,220.1,850.4,220.4,850.7,221.4z"/>
		<path class="st1" d="M787.3,168.8c18.5,0,33,14.3,33.1,32.8c0.1,18.1-14.4,32.7-32.5,32.9c-18.6,0.2-33-14-33-32.7
			C754.8,182.7,768.4,168.9,787.3,168.8z M807.1,201.5c-0.1-11.3-8.7-20.5-19.4-20.6c-10.6-0.1-19.9,9.7-19.8,20.9
			c0.1,11.5,9,20.5,20.1,20.4C798.9,222,807.1,213.1,807.1,201.5z"/>
		<path class="st1" d="M669.2,229.9c-2.9,5.4-7.6,1.3-11.9,3.6c0-4.4,0-7.9,0-11.3c0-3.5,0-6.9,0-11.1c2.8,0,5.1-0.4,7.3,0.1
			c1.5,0.4,3.5,1.6,4,3c3.4,8.4,17.1,12.1,24.2,6.3c4.5-3.6,3.6-9-2-10.7c-6.7-2-13.6-3.1-20.3-5.1c-9.4-2.9-13.8-8.8-12.7-18.2
			c0.5-4,2.9-8.7,5.9-11.4c3.3-2.8,8.2-4.7,12.6-5.1c9.4-0.9,18.8,2.8,28.6,0c0,7.5,0,13.9,0,20.8c-3.2,0-6.5,0-9.8,0
			c-2.8-10-13.2-12.3-20-10.3c-3.4,1-6.2,2.8-6.3,6.8c-0.1,3.9,2.8,5.5,6.1,6.2c5.4,1.2,10.8,2.1,16.1,3.3
			c7.4,1.7,14.1,4.5,16.4,12.7c2.7,9.5-2.1,18.6-11.5,22.1C687.2,234.9,678.3,234.4,669.2,229.9z"/>
		<path class="st1" d="M203.8,8.1c4.5,0,9-0.1,13.5,0c5.7,0.1,9.2,3.3,9.3,8.9c0.2,9,0.2,18,0,27c-0.1,5.6-3.6,8.9-9.2,9.1
			c-9,0.2-18,0.2-26.9,0c-5.4-0.1-8.9-3.4-9-8.7c-0.2-9.1-0.3-18.3,0-27.4c0.2-5.7,3.6-8.6,9.4-8.8C195.1,8,199.4,8.1,203.8,8.1z"/>
		<path class="st1" d="M129.2,8.1c4.3,0,8.7-0.1,13,0c5.8,0.1,9,3.2,9.1,9c0.1,9,0.1,18,0,26.9c-0.1,5.5-3.2,8.8-8.6,9
			c-9.3,0.2-18.6,0.2-27.9,0c-5-0.1-8.3-3.6-8.4-8.8c-0.2-9.1-0.2-18.3,0-27.4c0.1-5.5,3.4-8.5,8.9-8.7C119.9,8,124.6,8.1,129.2,8.1
			z"/>
		<path class="st1" d="M269.3,155.1c-3-0.2-5.8-0.3-8.9-0.5c0-3.5,0-6.9,0-10.6c10.7,0,21.4,0,32.3,0c0,3.6,0,7,0,10.7
			c-3.1,0-5.8,0-9,0c0,22.4,0,44.3,0,66.7c3.1,0,5.9,0,9,0c0,3.8,0,7.2,0,10.9c-10.7,0-21.4,0-32.4,0c0-3.5,0-6.8,0-10.6
			c2.9-0.2,5.8-0.4,9.1-0.6C269.3,199.2,269.3,177.3,269.3,155.1z"/>
		<path class="st1" d="M627.5,221.5c5.1,0,9.2,0,13.6,0c0,3.9,0,7.3,0,11c-12.6,0-25,0-37.7,0c0-3.6,0-6.9,0-10.8
			c3.9,0,7.7,0,11.9,0c0-13.5,0-26.5,0-40c-3.8,0-7.5,0-11.8,0c0-3.8,0-7.2,0-10.9c7.2,0,14.4,0,22,0c0,3.7,0,7.1,0,10.5
			c6.4-10.2,16-12.3,27.1-11.6c0,4,0,7.9,0,12.1c-3.3,0.3-6.6,0.5-9.9,0.8c-8.4,1-13.1,5.3-14,13.6
			C627.9,204.4,627.9,212.6,627.5,221.5z"/>
		<path class="st1" d="M738.8,221.3c3.4,0.2,6.1,0.3,9.2,0.4c0,3.6,0,7,0,10.7c-10.2,0-20.3,0-30.8,0c0-3.3,0-6.7,0-10.7
			c2.7-0.1,5.6-0.3,9-0.4c0-13.1,0-26.2,0-39.7c-2.9,0-5.8,0-9.1,0c0-3.8,0-7,0-11.1c3.5,0,7,0,10.6,0c3.5,0,6.9,0,11,0
			C738.8,187.6,738.8,204.3,738.8,221.3z"/>
		<path class="st1" d="M928.4,206.4c-2.1-0.2-3.6-0.3-5.3-0.5c0-1.8,0-3.4,0-4.9c9.6-1,10-0.9,11.9,2.4c3.1-1,6.2-2.3,9.4-2.8
			c5.2-0.7,8,1.3,8.7,6.6c0.7,6.2,0.7,12.6,1,19.2c1.5,0.1,2.9,0.3,4.6,0.4c0,1.6,0,3.2,0,5c-3.5,0-6.9,0-11.2,0
			c0-6.1,0.1-12.4,0-18.6c-0.1-3.1,1-7.3-4.3-7.3c-5,0-8.7,3.6-8.7,8.1c0,4,0,8,0,12.2c1.8,0.2,3.4,0.4,5.2,0.7c0,1.5,0,3.1,0,4.9
			c-5.4,0-10.9,0-16.5,0c-0.1-1.5-0.2-3-0.3-4.8c1.7-0.2,3.3-0.4,5.5-0.7c0-3.1,0-6.4,0-9.6C928.4,213.5,928.4,210.2,928.4,206.4z"
			/>
		<path class="st1" d="M988.8,200.6c0,4.1,0,7.8,0,11.8c-2.6,0.2-4.8,1.1-6.3-2.6c-1.7-4.2-7.1-5.4-11.2-3.3
			c-4.4,2.3-5.7,6.3-5.4,10.9c0.3,4.3,2,7.8,6.2,9.4c4.4,1.6,8.2,0.5,11.2-3.1c0.5-0.6,1.1-1.2,1.8-2.1c1.5,0.7,2.9,1.4,4.3,2.1
			c-3.6,8.2-12,11.5-20.3,8.3c-8.1-3.1-12.1-12.7-9.1-21.7c2.6-7.9,10.9-11.9,18.8-9.9C981.9,201.2,985.1,200.6,988.8,200.6z"/>
		<path class="st1" d="M909.5,206.5c-1.5-0.2-2.8-0.4-4.5-0.6c-0.1-1.6-0.1-3.2-0.2-5c3.7,0,7.2,0,11.2,0c0,4.3,0,8.4,0,12.5
			c0,4.1,0,8.3,0,12.8c1.6,0.3,3.1,0.6,4.6,0.9c0,1.6,0,3,0,4.8c-5.1,0-10.1,0-15.5,0c-0.1-1.5-0.2-3-0.4-4.8
			c1.7-0.3,3.1-0.5,4.8-0.7C909.5,219.9,909.5,213.5,909.5,206.5z"/>
		<path class="st1" d="M739.7,149.4c0.1,4.1-3.3,7.6-7.5,7.6c-4,0-7.2-3.2-7.2-7.3c-0.1-4.2,2.8-7.4,6.9-7.6
			C736.1,141.9,739.6,145.1,739.7,149.4z"/>
		<path class="st1" d="M912.1,184.7c2,2.5,3.9,3.9,3.7,5c-0.2,1.5-2,2.7-3.1,4.1c-1.2-1.1-3.3-2-3.5-3.2
			C909,189.1,910.6,187.5,912.1,184.7z"/>
	</g>
</g>
</svg>
