<svg enable-background="new 0 0 456 442" viewBox="0 0 456 442" xmlns="http://www.w3.org/2000/svg"><g fill="#a2ce8a"><path d="m295.3 135.3c-13.7-2.4-45.9 21.5-52 56.8-3.1 18.2 3.2 36.2 11 49.5 4.8 8.3 10 15 14.1 18.4.3-.7.5-1.5.8-2.3.1-.3.2-.6.3-.9.2-.5.4-1 .5-1.5.2-.5.4-1 .6-1.6.1-.3.2-.5.3-.8 1.1-3.2 2.3-6.7 3.6-10.5.3-1 .7-2 1-3-2.3-2.5-8-9.1-13.5-19-6.9-12.3-6.5-21.4-6.5-21.4s2.3 8.9 8.3 16.8c5.5 7.2 13.2 14.9 15.9 11 1.4-4.3 2.7-8.6 3.9-12.8 0-.1.1-.2.1-.4-1.6-1.7-6.9-7.5-12.2-16.8-6-10.6-5.7-18.5-5.7-18.5s2 7.7 7.3 14.4c4.8 6.2 11.4 12.8 13.7 9.5.1-.3.2-.6.2-.9.5-2 .9-3.9 1.3-5.8.1-.3.2-.7.2-1 .4-1.8.8-3.6 1.1-5.4-1.3-1.1-4.7-4.1-8.2-8.8-4.4-5.8-4.8-10.5-4.8-10.5s1.8 4.4 5.4 8c3.3 3.4 7.8 6.8 8.9 4.5.7-3.8 1.2-7.4 1.6-10.8 0 0 0 0 0-.1.4-3.4.7-6.6.9-9.6 0-.1 0-.2 0-.2.1-1.3.1-2.6.1-3.8 0-.2 0-.4 0-.6 0-1.3 0-2.6 0-3.8 0-.1 0-.2 0-.3 0-1.1-.1-2.1-.2-3.1 0-.3 0-.5-.1-.8-.1-1.1-.2-2.1-.3-3.1s6.9 13 4.7 37.3c0 2.8 3.8.9 7.1-1.8 3.4-2.7 5.3-6.3 5.3-6.3s-2.4 5.9-5.4 9.5c-2.4 2.8-6.6 5-7.9 5.6 0 .3-.1.6-.1.9-.3 1.9-.7 3.8-1.1 5.9-.1.4-.2.8-.3 1.2-.4 2-.9 4-1.4 6.1.4 3.3 6.6 1.3 12.3-1.9 6.4-3.5 10.6-8.8 10.6-8.8s-5.7 9-11.7 14.1c-4.3 3.6-11.2 5.9-14 6.7-1.1 3.9-2.4 7.7-3.6 11.6 0 .2-.1.4-.1.8-1.3 6.4 7.6 3.7 15.8-.8s13.7-11.3 13.7-11.3-7.4 11.6-15.2 18c-7 5.8-19.1 8.9-19.6 9-2.1 5.8-4.1 11.1-5.8 15.5-.2.5-.4 1-.6 1.5-.2.4-.3.8-.4 1.1-.3.8-.6 1.6-.9 2.3 0 .1-.1.1-.1.2.5 0 .9 0 1.4-.1 1.1-.2 2.3-.8 3.7-1.4 13.2-5.8 40.8-26.2 45.8-55.1 5.5-31-17.3-68.4-29.8-70.6"/><path d="m185.3 182.5c-2.2-24.6-22.9-42.9-32.5-42.1-8.8.8-26.6 25.3-24.7 47.1 1.8 20.2 19.6 35.8 28.3 40.6.9.5 1.8 1 2.5 1.2.3.1.6.1 1 .1-1.1-3.6-2.6-8.8-4.2-14.7-.3-.1-8.5-3-13-7.3-5-4.9-9.4-13.3-9.4-13.3s3.4 5 8.8 8.5 11.4 5.9 10.8 1.5c0-.2 0-.4 0-.5-.6-2.7-1.3-5.5-1.8-8.2-1.9-.7-6.4-2.7-9.2-5.4-3.9-3.8-7.3-10.4-7.3-10.4s2.6 3.9 6.8 6.7c3.9 2.6 8 4.3 8.4 1.9-.5-3.2-.9-6.3-1.2-9.1 0-.2 0-.4 0-.6-.8-.5-3.6-2.2-5.1-4.3-1.9-2.6-3.2-6.8-3.2-6.8s1.1 2.6 3.3 4.6c2.1 2 4.6 3.6 4.8 1.6-.2-16.9 5.4-25.4 5.4-25.4-1.3 5.9-1.6 14.3-.6 24.9.5 1.8 3.8-.3 6.4-2.5 2.7-2.3 4.2-5.2 4.2-5.2s-.5 3.2-3.9 7c-2.7 3.1-5.2 4.9-6.2 5.6.3 2.8.7 5.6 1.2 8.6 0 .2.1.4.1.6 1.4 2.4 6.3-1.8 10-5.7 4-4.4 5.8-9.5 5.8-9.5s-.2 5.5-5 12.4c-4.2 6.1-8.2 9.8-9.4 10.8.6 3 1.3 6.2 2 9.3 1.6 2.9 7.3-2 11.6-6.7 4.6-5.1 6.7-11.1 6.7-11.1s-.2 6.3-5.7 14.4c-4.4 6.5-8.7 10.7-10.4 12.3 1.4 5.8 2.8 11 3.8 14.6 3-2.1 7-6.5 10.8-11.9 5.8-8.9 11.2-20.9 10.1-33.6"/><path d="m282.2 283.3c-.1.1-.3.1-.4.2-2.1.9-4.2 1.8-6.7 2.3-1.4.3-2.8.4-4.2.4-.4 0-.8 0-1.2 0-4.1-.2-8.2-1.6-12-4.1-1-.6-2-1.3-3-2.2-15.1-14.1-25.8-41.8-30.8-66.9-2-10.2-7.5-14.1-13.4-14.1-3 0-6.4.6-9 2.9-6.8 6-14.8 37.6-27.6 44.7-12.9 7.2-31.4-4.2-35.1-7.8-11-10.7-19.6-26.6-20.8-41.2-.4-4.4-.2-8.7.4-12.7-3.9 14.5-4.8 30.1-2.2 46 9.5 56.8 62.8 96.6 120 89.7 46.3-5.6 82-39.4 92.4-82-11.3 22.3-32.1 38.4-46.4 44.8"/><path d="m238.9 167.3c9.6-15.3 5.6-35.1-.4-38.9-5.5-3.4-26.7 3-35.2 16.5-7.9 12.5-4.4 29.5-1.4 36.2.3.7.6 1.3.9 1.8.1.2.3.4.5.5.9-2.6 2.3-6.3 4-10.4-.1-.2-3.6-5.5-4.3-10-.8-5 .4-11.9.4-11.9s-.3 4.4 1.3 8.8c1.6 4.5 4 8.5 5.7 5.6.1-.2.1-.2.2-.3.8-1.9 1.7-3.8 2.6-5.6-.8-1.2-2.6-4.4-3-7.3-.6-3.9.3-9.2.3-9.2s-.2 3.4 1 6.9c1.1 3.2 2.8 6 4.1 4.8 1.1-2.1 2.2-4.1 3.4-5.8.1-.1.2-.3.3-.4-.3-.6-1.1-2.9-1.1-4.8.1-2.4 1.2-5.4 1.2-5.4s-.5 2-.1 4.2c.3 2.1 1.1 4.1 2.1 3.1 7.4-9.9 14.4-12.5 14.4-12.5-3.4 2.9-7.3 7.6-11.4 14.2-.5 1.3 2.4 1.5 4.8 1.4 2.6-.1 4.7-1.2 4.7-1.2s-1.7 1.6-5.3 2.4c-2.9.6-5.2.6-6.1.5-1 1.7-2.1 3.6-3.1 5.5-.1.1-.1.3-.2.4-.2 2 4.5 1.8 8.4 1.1 4.2-.8 7.6-3 7.6-3s-2.5 3.1-8.4 5c-5.1 1.7-9.1 2.1-10.3 2.2-1 2-2 4.2-2.9 6.3-.3 2.4 5.2 2.1 9.7 1.2 4.9-.9 8.8-3.5 8.8-3.5s-2.9 3.6-9.7 5.9c-5.5 1.9-9.8 2.4-11.5 2.6-1.7 4-3.2 7.6-4.3 10.2 2.7.1 6.9-.7 11.5-2.2 7.3-2.4 15.8-7 20.8-14.9"/></g><g fill="#fff"><path d="m188.3 132.7c0-.1-.1-.2-.1-.3s-.1-.2-.1-.2c-1.8-4.2-3.5-8.2-6.2-14.5-21.2-48.5-34.6-66.7-40.3-73 .1-.4.1-.8.1-1.2.2-5.4-4.1-10-9.5-10.1-1.4 0-2.5.2-3 .4-19.1-18.7-43.4-28.1-44.6-28.3-3.1-.5-7.4 7.5-7.8 10.6-.5 3.1-1 5.5 4.8 6.4.3 0 24.1 3.7 40.9 18.6-.1.6-.2 1.2-.2 1.8-.2 5.4 4.1 9.9 9.5 10.1.6 0 1.1 0 1.7-.1 4.5 5.2 17.3 22.4 37.9 69.5 2.7 6.1 4.4 10.2 6.1 14.2.1.2.1.3.2.5 0 .1.1.2.1.3 1 1.8 2.9 3 5.1 3 3.2 0 5.8-2.6 5.8-5.8-.1-.7-.2-1.3-.4-1.9"/><path d="m17.6 389.3v41.7c0 .8-.2 1.5-.5 2.3-.3.7-.7 1.3-1.3 1.8-.5.5-1.2.9-1.8 1.2-.7.3-1.5.5-2.3.5s-1.5-.2-2.2-.5-1.3-.7-1.8-1.2-.9-1.1-1.2-1.8c-.4-.8-.5-1.6-.5-2.3v-57.1c0-.8.2-1.6.5-2.3s.7-1.3 1.3-1.8c.5-.5 1.2-.9 1.9-1.2s1.5-.4 2.3-.4c1.5 0 2.9.6 4.1 1.7l23.2 27.5 23.1-27.5c.5-.5 1.1-.9 1.8-1.2s1.4-.5 2.1-.5h.4c.8 0 1.5.2 2.2.5s1.3.7 1.8 1.2.9 1.1 1.2 1.8.4 1.4.4 2.2v57.1c0 .8-.2 1.5-.5 2.3-.3.7-.7 1.3-1.3 1.8-.5.5-1.1.9-1.8 1.2s-1.5.5-2.3.5-1.5-.2-2.2-.5-1.3-.7-1.8-1.2-1-1.1-1.3-1.8-.5-1.5-.5-2.3v-41.7l-17.7 21c-.5.5-1.1.9-1.8 1.3-.7.3-1.4.5-2.1.5-1.4 0-2.6-.6-3.7-1.7h-.1v-.1z"/><path d="m81.1 411.8c0-3.5.7-6.8 2-9.9 1.4-3.1 3.2-5.8 5.5-8.1s5-4.2 8.1-5.5 6.4-2 9.9-2 6.9.7 10 2 5.8 3.2 8.1 5.5 4.1 5 5.4 8.1 2 6.4 2 9.9v19c0 .8-.2 1.6-.5 2.3s-.7 1.3-1.3 1.9c-.5.5-1.2 1-1.9 1.3s-1.5.5-2.3.5c-1.4 0-2.6-.4-3.5-1.2-1-.8-1.6-1.9-1.9-3.1-2 1.5-4.2 2.8-6.6 3.6-2.4.9-4.9 1.3-7.5 1.3-3.5 0-6.8-.7-9.9-2s-5.8-3.2-8.1-5.5-4.2-5-5.5-8.1c-1.3-3.2-2-6.5-2-10zm11.6 0c0 1.9.4 3.7 1.1 5.4s1.7 3.2 3 4.4c1.3 1.3 2.7 2.3 4.4 3s3.5 1.1 5.4 1.1 3.7-.4 5.4-1.1 3.2-1.7 4.4-3 2.2-2.7 2.9-4.4 1.1-3.5 1.1-5.4-.4-3.7-1.1-5.4-1.7-3.2-2.9-4.4c-1.3-1.2-2.7-2.2-4.4-3-1.7-.7-3.5-1.1-5.4-1.1s-3.7.4-5.4 1.1-3.2 1.7-4.4 3c-1.3 1.3-2.3 2.7-3 4.4-.7 1.6-1.1 3.4-1.1 5.4z"/><path d="m154.1 386.9h18.6c.8 0 1.6.2 2.3.5s1.3.7 1.9 1.3c.5.5 1 1.2 1.3 1.9s.5 1.5.5 2.3-.2 1.5-.5 2.2-.7 1.3-1.3 1.8c-.5.5-1.2.9-1.9 1.2s-1.5.5-2.3.5h-18.6v13.4c0 1.9.4 3.7 1.1 5.3.7 1.7 1.7 3.1 3 4.3 1.2 1.2 2.7 2.2 4.4 2.9s3.5 1.1 5.4 1.1c1.7 0 3.3-.2 4.8-.7s2.8-1.3 4.1-2.4c.6-.6 1.3-1 2-1.4.8-.4 1.5-.6 2.4-.6 1.3 0 2.5.5 3.6 1.4.6.6 1.1 1.3 1.4 2 .3.8.4 1.6.3 2.4s-.3 1.7-.6 2.4c-.4.8-.9 1.5-1.5 2.1-2.1 2.1-4.6 3.6-7.4 4.7s-5.8 1.6-9 1.6c-3.5 0-6.8-.7-9.9-2s-5.8-3.1-8.1-5.4-4.1-5-5.5-8.1c-1.3-3.1-2-6.4-2-9.9v-34.4c0-.8.2-1.6.5-2.3s.8-1.3 1.3-1.9c.5-.5 1.2-1 1.9-1.3s1.5-.5 2.3-.5 1.5.2 2.2.5 1.3.7 1.8 1.3c.5.5.9 1.2 1.2 1.9s.5 1.5.5 2.3v9.6z"/><path d="m203.2 417c.5 1.3 1.1 2.5 2 3.6.8 1.1 1.8 2 2.9 2.8s2.3 1.4 3.6 1.8 2.7.6 4.2.6c3.7 0 6.6-1 8.7-2.9.7-.5 1.4-.9 2.1-1.1s1.3-.3 1.9-.3c1 0 1.9.3 2.7.8s1.4 1.2 1.9 2c.4.6.6 1.2.8 1.8.2.7.2 1.3.1 2s-.3 1.3-.6 2-.8 1.3-1.5 1.8c-.8.7-1.7 1.4-2.7 2.1s-2.1 1.2-3.5 1.7c-1.3.5-2.8.9-4.4 1.2s-3.5.5-5.5.5c-3.5 0-6.9-.7-10-2s-5.8-3.2-8.1-5.5-4.2-5-5.5-8.1c-1.4-3.1-2-6.4-2-9.9s.7-6.9 2-10c1.4-3.1 3.2-5.8 5.5-8.1s5-4.1 8.1-5.5c3.1-1.3 6.4-2 10-2 3.5 0 6.8.7 9.9 2s5.8 3.1 8.1 5.4 4.2 4.9 5.6 8 2.1 6.4 2.1 9.9c0 1.6-.5 3-1.6 4s-2.4 1.5-4.2 1.5h-32.6zm26.5-9.7c-.4-1.5-1-2.8-1.8-4s-1.8-2.2-3-3-2.5-1.4-4-1.9c-1.5-.4-3-.6-4.7-.6-1.6 0-3.2.2-4.6.7-1.4.4-2.7 1.1-3.9 1.9s-2.2 1.8-3 3-1.4 2.5-1.8 3.9z"/><path d="m261.9 389.3v41.7c0 .8-.2 1.5-.5 2.3-.3.7-.7 1.3-1.3 1.8-.5.5-1.1.9-1.8 1.2s-1.5.5-2.3.5-1.5-.2-2.3-.5c-.7-.3-1.3-.7-1.8-1.2s-.9-1.1-1.2-1.8-.5-1.5-.5-2.3v-57.1c0-.8.2-1.6.5-2.3s.7-1.3 1.3-1.8c.5-.5 1.2-.9 1.9-1.2s1.5-.4 2.3-.4c1.5 0 2.9.6 4.1 1.7l23.2 27.5 23.1-27.5c.5-.5 1.1-.9 1.8-1.2s1.4-.5 2.1-.5h.4c.8 0 1.5.2 2.2.5s1.3.7 1.8 1.2.9 1.1 1.2 1.8.4 1.4.4 2.2v57.1c0 .8-.2 1.5-.5 2.3s-.7 1.3-1.3 1.8-1.2.9-1.8 1.2c-.7.3-1.5.5-2.3.5s-1.5-.2-2.2-.5-1.3-.7-1.8-1.2-1-1.1-1.3-1.8-.5-1.5-.5-2.3v-41.7l-17.7 21c-.5.5-1.1.9-1.8 1.3-.7.3-1.4.5-2.1.5-1.4 0-2.6-.6-3.7-1.7h-.1v-.1z"/><path d="m325.3 411.8c0-3.5.7-6.8 2-9.9 1.4-3.1 3.2-5.8 5.5-8.1s5-4.2 8.1-5.5 6.4-2 9.9-2 6.9.7 10 2 5.8 3.2 8.1 5.5 4.1 5 5.4 8.1 2 6.4 2 9.9v19c0 .8-.2 1.6-.5 2.3s-.7 1.3-1.3 1.9c-.5.5-1.2 1-1.9 1.3s-1.5.5-2.3.5c-1.4 0-2.6-.4-3.5-1.2-1-.8-1.6-1.9-1.9-3.1-2 1.5-4.2 2.8-6.6 3.6-2.4.9-4.9 1.3-7.5 1.3-3.5 0-6.8-.7-9.9-2s-5.8-3.2-8.1-5.5-4.2-5-5.5-8.1c-1.3-3.2-2-6.5-2-10zm11.6 0c0 1.9.4 3.7 1.1 5.4s1.7 3.2 3 4.4c1.3 1.3 2.7 2.3 4.4 3s3.5 1.1 5.4 1.1 3.7-.4 5.4-1.1 3.2-1.7 4.4-3c1.3-1.3 2.2-2.7 2.9-4.4s1.1-3.5 1.1-5.4-.4-3.7-1.1-5.4-1.7-3.2-2.9-4.4c-1.3-1.2-2.7-2.2-4.4-3-1.7-.7-3.5-1.1-5.4-1.1s-3.7.4-5.4 1.1-3.2 1.7-4.4 3c-1.3 1.3-2.3 2.7-3 4.4-.7 1.6-1.1 3.4-1.1 5.4z"/><path d="m398.3 386.9h18.7c.8 0 1.6.2 2.3.5s1.3.7 1.9 1.3c.5.5 1 1.2 1.3 1.9s.5 1.5.5 2.3-.2 1.5-.5 2.2-.7 1.3-1.3 1.8-1.2.9-1.9 1.2-1.5.5-2.3.5h-18.6v13.4c0 1.9.4 3.7 1.1 5.3.7 1.7 1.7 3.1 3 4.3 1.2 1.2 2.7 2.2 4.4 2.9s3.5 1.1 5.4 1.1c1.7 0 3.3-.2 4.8-.7s2.8-1.3 4.1-2.4c.6-.6 1.3-1 2-1.4.8-.4 1.5-.6 2.4-.6 1.3 0 2.5.5 3.6 1.4.6.6 1.1 1.3 1.4 2 .3.8.4 1.6.3 2.4s-.3 1.7-.6 2.4c-.4.8-.9 1.5-1.5 2.1-2.1 2.1-4.6 3.6-7.4 4.7s-5.8 1.6-9 1.6c-3.5 0-6.8-.7-9.9-2s-5.8-3.1-8.1-5.4-4.2-5-5.5-8.1-2-6.4-2-9.9v-34.4c0-.8.2-1.6.5-2.3s.7-1.3 1.3-1.9 1.2-1 1.9-1.3 1.5-.5 2.2-.5c.8 0 1.5.2 2.2.5s1.3.7 1.8 1.3c.5.5.9 1.2 1.2 1.9s.5 1.5.5 2.3v9.6z"/><path d="m437.8 375c0-.9.2-1.7.5-2.5s.8-1.5 1.4-2c.6-.6 1.2-1 2-1.4.8-.3 1.6-.5 2.5-.5s1.7.2 2.5.5 1.5.8 2.1 1.4 1.1 1.3 1.4 2c.3.8.5 1.6.5 2.5s-.2 1.7-.5 2.4c-.3.8-.8 1.4-1.4 2s-1.3 1-2.1 1.4c-.8.3-1.6.5-2.5.5s-1.7-.2-2.5-.5-1.5-.8-2-1.4c-.6-.6-1-1.2-1.4-2-.3-.7-.5-1.5-.5-2.4zm12.2 55.9c0 .8-.2 1.5-.5 2.3-.3.7-.7 1.3-1.2 1.8s-1.1.9-1.8 1.2-1.5.5-2.3.5-1.5-.2-2.3-.5c-.7-.3-1.3-.7-1.9-1.2-.5-.5-1-1.1-1.3-1.8s-.5-1.5-.5-2.3v-38.2c0-.8.2-1.5.5-2.2s.7-1.3 1.3-1.8c.5-.5 1.2-1 1.9-1.3s1.5-.5 2.3-.5 1.6.2 2.3.5 1.3.7 1.8 1.3c.5.5.9 1.2 1.2 1.8.3.7.4 1.4.4 2.2v38.2z"/></g></svg>