<?xml version="1.0" encoding="utf-8"?>
<!-- Generator: Adobe Illustrator 24.1.0, SVG Export Plug-In . SVG Version: 6.00 Build 0)  -->
<svg version="1.1" id="Layer_1" xmlns="http://www.w3.org/2000/svg" xmlns:xlink="http://www.w3.org/1999/xlink" x="0px" y="0px"
	 viewBox="0 0 513 146" style="enable-background:new 0 0 513 146;" xml:space="preserve">
<style type="text/css">
	.st0{fill:#F277A8;}
	.st1{fill:#FFFFFF;}
</style>
<path class="st0" d="M101.4,49.9c-3-2.5-7.4-3.8-13.2-3.8H72.8v29h15.4c5.7,0,10.1-1.3,13.2-3.8c3-2.5,4.6-6.1,4.6-10.7
	S104.5,52.4,101.4,49.9z"/>
<path class="st0" d="M114.8,51.3c-0.4-2.4-0.9-4.9-1.7-7.4c-2.5-8.3-7-16.8-15-25.1c-0.1-0.1-0.1-0.1-0.2-0.2
	c-0.8-0.8-1.5-1.6-2.3-2.3c-1.9-1.6-3.9-3.1-5.9-4.5c-6.5-4.2-13.9-7.1-21.9-8.3c-2.7-0.3-5.3-0.5-8-0.5c-2.9,0.1-6.6,0.4-9.7,0.9
	c-1.1,0.2-2.3,0.4-3.4,0.6c-4.4,1-8.5,2.6-12.4,4.6c-2.5,1.3-4.9,2.7-7.2,4.4C20.3,18.3,14.7,24.6,10.7,32C9.3,34.6,8,37.3,7,40.2
	c-1.7,4.9-2.8,10.1-3,15.5c0.1,4,0.7,7.8,1.6,11.5C6,68.6,6.4,70,6.9,71.3c0.9,2.4,2,4.8,3.2,7c0.1,0.2,0.2,0.3,0.3,0.5
	c2.4,3.4,6,6.1,8.9,8.5c4.2,3.5,3.7,3.1,6.3,7.1c0.3,0.4,0.5,0.9,0.7,1.4c0.6,1.4,1,2.8,1.1,4.3v0.1c0.1,1.3,0.1,2.5-0.1,3.9
	c-0.1,0.9-0.3,1.8-0.6,2.7c-1.4,6.2-4.6,11.6-9.1,15.7c-0.3,0.3-0.6,0.6-0.9,0.8c-0.3,0.4-0.5,0.9-0.5,1.5v0.1
	c0,1.5,1.2,2.7,2.7,2.7h0.4c0.1,0,0.2-0.1,0.4-0.1c0.2-0.1,0.4-0.1,0.6-0.2c3.2-1.1,6.2-2.5,9-4.2c7.1-4.2,13-10.2,17.2-17.2
	c0.2-0.3,0.4-0.6,0.6-1c0.3-0.5,0.5-1,0.8-1.4c0.1-0.2,0.1-0.3,0.2-0.5c0.2-0.6,0.4-1.2,0.6-1.7c0.1-0.7,0.3-1.3,0.4-2
	c0.1-0.5,0.1-1,0.2-1.6c0.1-1,0.2-2.1,0.2-3.1c0-0.5,0-1.1,0-1.6c-0.1-0.6-0.1-1.1-0.2-1.7c-0.2-1.3-0.6-2.6-1-4
	c-0.2,0.1-0.4,0.2-0.5,0.3c-1.6,1.2-3.6,2-5.7,2.2c-0.4,0-0.7,0-1.1,0c-2.2,0-4.2-0.6-6-1.7c-0.8-0.5-1.6-1.1-2.3-1.8
	c-1.2-1.2-2.2-2.8-2.7-4.5c-1-2-1.8-4.1-2.3-6.3c-0.3-1.1-0.5-2.2-0.6-3.4c-0.2-1.2-0.2-2.5-0.2-3.8c0-1.1,0.1-2.1,0.2-3.1
	c0.2-1.9,0.5-3.7,1.1-5.4c0.2-0.7,0.5-1.5,0.7-2.2c1.3-3.4,3.2-6.5,5.5-9.2c0,0,0-0.1,0.1-0.1c0.7,1.1,1.4,2.1,2.2,3.1
	c3.7,4.5,8.2,7.8,12.8,11.1c0.3,0.2,0.7,0.5,1,0.7c1.1,0.8,2.3,1.7,3.4,2.5l0.1,0.1c2.1,1.4,3.9,3.2,5.2,5.4
	c1.6,2.2,2.7,4.8,2.8,7.9c0.3,5.3-2,15.7-4.8,19.6c-0.7,1-1.5,1.9-2.3,2.7c-0.1,0.1-0.3,0.3-0.4,0.4c-0.2,0.2-0.3,0.3-0.5,0.4
	c-0.5,0.5-0.9,1-1.3,1.6c-0.3,0.5-0.6,1-0.9,1.5c-0.1,0.3-0.3,0.5-0.4,0.8c0.4,0,0.8,0.1,1.3,0.1h0.6c1.8-0.1,3.4-0.6,4.9-1.3
	c0.9-0.4,1.8-0.9,2.7-1.6c0.6-0.4,1.1-0.9,1.6-1.5c-0.1,0.4-0.2,0.8-0.2,1.2c-0.2,0.9-0.4,1.8-0.7,2.6c-0.5,1.4-1,2.7-1.6,3.8
	c0,0,0,0.1-0.1,0.1c-1.6,3.3-3.5,6.5-5.7,9.4c-7.2,9.3-17.6,16-29.6,18.2c-1.4,0.3-4.2,1.9-3,2.2s11.3,2.5,17.2,2.8
	c1,0,2.1,0.1,3.1,0.1c28.4,0,53.1-16.1,65.5-39.6c5.4-10.2,8.4-21.9,8.4-34.2C115.7,67.3,115.6,56.2,114.8,51.3z M105.8,75.2
	c-4.2,3.5-10,5.3-17.4,5.3H72.8v18.3h-6.1v-58h21.7c7.4,0,13.2,1.8,17.4,5.3s6.3,8.4,6.3,14.6S110,71.7,105.8,75.2z"/>
<path class="st1" d="M105.8,46.1c-4.2-3.5-10-5.3-17.4-5.3H66.7v58.1h6.1V80.5h15.6c7.4,0,13.2-1.8,17.4-5.3s6.3-8.4,6.3-14.6
	C112.1,54.5,110,49.6,105.8,46.1z M101.4,71.3c-3,2.5-7.4,3.8-13.2,3.8H72.8v-29h15.4c5.7,0,10.1,1.3,13.2,3.8
	c3,2.5,4.6,6.1,4.6,10.8C106,65.3,104.5,68.8,101.4,71.3z"/>
<path class="st1" d="M161.5,93.5v5.3h-41.1v-58h39.8v5.3h-33.7v20.7h30V72h-30v21.6L161.5,93.5L161.5,93.5z"/>
<path class="st1" d="M170.9,40.8h6.1v52.7h32.5v5.3h-38.6V40.8z"/>
<path class="st1" d="M223.1,92.9c-4.2-4.3-6.3-10.6-6.3-18.8V40.8h6.1v33c0,6.7,1.5,11.8,4.6,15.1c3,3.3,7.4,5,13.2,5
	s10.2-1.7,13.3-5c3-3.3,4.6-8.3,4.6-15.1v-33h6V74c0,8.2-2.1,14.5-6.3,18.8s-10,6.5-17.5,6.5C233.1,99.3,227.3,97.2,223.1,92.9
	L223.1,92.9z"/>
<path class="st1" d="M335.8,40.8v58.1h-5.9V52.4l-22.8,39.1h-2.9l-22.8-38.8v46.2h-5.9V40.8h5.1l25.2,43l25-43L335.8,40.8z"/>
<path class="st1" d="M447.9,72.2c2.3-3.1,3.4-7,3.4-11.5c0-6.2-2.1-11.1-6.3-14.6s-10-5.3-17.4-5.3h-21.7v58.1h6.1V80.4h15.6
	c1.6,0,3.2-0.1,4.6-0.2l13.3,18.7h6.7l-14.2-20C442.3,77.5,445.6,75.3,447.9,72.2z M427.4,75.2H412V46.1h15.4
	c5.7,0,10.1,1.3,13.2,3.8c3,2.5,4.6,6.1,4.6,10.8c0,4.6-1.5,8.2-4.6,10.7C437.6,73.9,433.2,75.2,427.4,75.2z"/>
<g>
	<path class="st1" d="M438.1,79c4.2-1.4,7.5-3.7,9.8-6.8c2.3-3.1,3.4-7,3.4-11.5c0-6.2-2.1-11.1-6.3-14.6c-4.2-3.5-10-5.3-17.4-5.3
		h-21.7v57.9h6.1V80.3h15.6c1.6,0,3.1,0,4.6-0.2l13.3,18.7l0,0.1h6.8L438.1,79z M427.4,75.2H412V46.1h15.4c5.8,0,10.2,1.3,13.2,3.8
		c3.1,2.5,4.6,6.1,4.6,10.8c0,4.6-1.5,8.1-4.6,10.7C437.5,73.9,433.1,75.2,427.4,75.2z"/>
</g>
<path class="st1" d="M477.2,71.5l-11.9,12v15.3h-6.1v-58h6.1v35.1l34.1-35.1h7l-25.1,26.3l26.9,31.8h-7.3L477.2,71.5z"/>
<path class="st1" d="M367.8,40.8l-26.5,58.1h6.4l7-15.5H387l7,15.5h6.5L374,40.8L367.8,40.8z M356.9,78.3l13.9-31.2l13.9,31.2H356.9
	z"/>
</svg>
