<?xml version="1.0" encoding="utf-8"?>
<!-- Generator: Adobe Illustrator 24.1.0, SVG Export Plug-In . SVG Version: 6.00 Build 0)  -->
<svg version="1.1" xmlns="http://www.w3.org/2000/svg" xmlns:xlink="http://www.w3.org/1999/xlink" x="0px" y="0px"
	 viewBox="0 0 1000 1000" style="enable-background:new 0 0 1000 1000;" xml:space="preserve">
<style type="text/css">
	.st0{fill:#8BC53E;}
	.st1{fill:#333333;}
	.st2{fill:none;}
	.st3{fill:#F2F2F2;}
	.st4{fill:#E6E6E6;}
</style>
<g id="Layer_1">
	<rect x="-2242" y="-2216" class="st0" width="1000" height="1000"/>
	<rect y="-2216" class="st0" width="1000" height="1000"/>
	<rect x="-1139" y="-2216" class="st0" width="1000" height="1000"/>
	<g>
		<path class="st1" d="M762.4,503.8c0-39.5-8.8-76.9-24.5-110.5h243.5l-102.5-29c-19.9-54.3-51.5-104-93.6-146.1
			C709.1,142,607.7,100,499.8,100s-209.3,42-285.5,118.3c-42.1,42.1-73.7,91.9-93.6,146.1l-102.5,29h243.6
			c-15.7,33.6-24.4,71-24.4,110.5c0,39.4,8.8,76.9,24.4,110.5H18.2l102.5,29c19.9,54.3,51.6,104,93.6,146.1
			c76.3,76.3,177.7,118.3,285.5,118.3s209.3-42,285.5-118.3c42.1-42.1,73.7-91.8,93.6-146.1l102.5-29H738
			C753.6,580.7,762.4,543.2,762.4,503.8z M151.8,364.4c55.3-138,190.3-235.4,348-235.4c157.7,0,292.7,97.4,348,235.4H722.2
			c-46.5-73.9-128.8-123.1-222.3-123.1c-93.6,0-175.8,49.2-222.3,123.1H151.8z M733.4,503.8c0,40-10,77.6-27.7,110.5
			c-5.4,10.1-11.6,19.8-18.4,29c-42.6,57.2-110.7,94.2-187.4,94.2c-76.7,0-144.8-37-187.4-94.2c-6.8-9.2-13-18.8-18.4-29
			c-17.7-32.9-27.7-70.5-27.7-110.5c0-40,10-77.6,27.7-110.5c5.4-10.1,11.6-19.8,18.4-29c42.6-57.2,110.7-94.2,187.4-94.2
			c76.8,0,144.8,37,187.4,94.2c6.8,9.2,13,18.8,18.4,29C723.4,426.2,733.4,463.8,733.4,503.8z M847.8,643.2
			c-55.3,138-190.3,235.4-348,235.4c-157.7,0-292.7-97.4-348-235.4h125.7c46.5,73.9,128.8,123.1,222.3,123.1
			c93.6,0,175.8-49.2,222.3-123.1H847.8z"/>
		<path id="SVGID_x5F_1_x5F_" class="st2" d="M819.5,649.3h28.6c-18.3,49.1-47.3,94-86,132.1c-70.1,69-163.2,106.9-262.3,106.9
			s-192.2-38-262.3-106.9c-38.7-38.1-67.7-83-86-132.1h28.6C231,774,354.9,862.1,499.8,862.1S768.7,774,819.5,649.3z"/>
		<text>		<textPath  xlink:href="#SVGID_x5F_1_x5F_" startOffset="2602.6721%">
<tspan  class="st1" style="font-family:'PatuaOne-Regular'; font-size:95.6102px; letter-spacing:238.2;">PATINETE</tspan>		</textPath>
</text>
	</g>
	<path id="SVGID_x5F_2_x5F_" class="st2" d="M785.3,503.8c0,157.7-127.8,285.5-285.5,285.5S214.3,661.5,214.3,503.8
		s127.8-285.5,285.5-285.5S785.3,346.1,785.3,503.8z"/>
	<text>	<textPath  xlink:href="#SVGID_x5F_2_x5F_" startOffset="3677.1392%">
<tspan  class="st1" style="font-family:'PatuaOne-Regular'; font-size:96.6126px; letter-spacing:80;">TALLER DEL</tspan>	</textPath>
</text>
	<g id="TinLdq_6_">
		<g>
			<path class="st1" d="M873.3,511.4c9.9,1.7,19,3.3,29.7,5.1c-21.3-29.8-41.8-58.4-62.3-87.1c-0.4,0.2-0.9,0.4-1.3,0.5
				c5.2,18.3,10.5,36.7,16,56.1c-11.1-1.8-21.5-3.5-33.6-5.5c25.2,33.3,49.4,65.3,73.6,97.3c0.4-0.2,0.7-0.3,1.1-0.5
				C888.8,555.6,881.2,533.9,873.3,511.4z"/>
		</g>
	</g>
	<g id="TinLdq_5_">
		<g>
			<path class="st1" d="M126.3,511.4c-9.9,1.7-19,3.3-29.7,5.1c21.3-29.8,41.8-58.4,62.3-87.1c0.4,0.2,0.9,0.4,1.3,0.5
				c-5.2,18.3-10.5,36.7-16,56.1c11.1-1.8,21.5-3.5,33.6-5.5c-25.2,33.3-49.4,65.3-73.6,97.3c-0.4-0.2-0.7-0.3-1.1-0.5
				C110.8,555.6,118.4,533.9,126.3,511.4z"/>
		</g>
	</g>
	<g id="_x33_cX7Jq.tif_2_">
		<g>
			<path class="st1" d="M528.6,531.3c-0.3,0.2-0.6,0.4-1.1,0.6c-0.7-2.6-1.5-5.1-2.2-7.6c-0.1-0.3,0.4-0.9,0.7-1.2
				c1.3-0.9,2.6-1.7,4.1-2.7c-12.6-62.5-25.2-125.1-37.8-187.8c-0.9,0-1.6,0-2.5,0c-0.4-2.5-0.8-4.9-1.3-7.7
				c1.9-0.3,3.8-0.6,5.7-0.7c0.3,0,1,0.7,1.1,1.2c1.8,8.7,3.6,17.5,5.4,26.2c3.4,16.7,6.9,33.3,10.3,50c0.9,4.4,1.8,8.8,3.1,13.1
				c-5.3-30.3-10.6-60.6-15.9-91.1c3-0.4,5.8-0.8,8.8-1.2c-0.6-3.4-1.2-6.6-1.9-10.2c-2.3,0.2-4.6,0.2-6.9,0.5
				c-2.1,0.3-4.2,0.9-6.3,1.4c-1,0.3-1.3,1-1.3,2.1c-0.1,1.8-0.5,3.5-1.1,5.2c-0.8,2.1-2.1,2.6-4.2,1.9c-0.7-0.2-1.5-0.4-2.3-0.4
				c-3.4,0.1-6.8,0.2-10.2,0.3c-0.8,0-1.8-0.2-2.5-0.6c-2-1.1-4-1-6.1-0.9c-9.6,0.4-19.3,0.7-28.9,1.1c-0.8,0-1.7,0.2-2.5,0.6
				c-1.3,0.6-2.3,0.3-3.2-0.7c-2.4-2.7-2.6-9.3-0.2-12.5c-0.3,4-0.7,8,2.9,10.8c2.5-3.2,1.1-9.6-2.5-12.7c3.6-2,7,1.1,8.2,7.6
				c9.7-0.6,19.4-1.2,29.2-1.8c0.1-1,0.2-1.9,0.4-3.1c-1,0-1.8,0-2.5,0c-8.2,0-16.4-0.1-24.6-0.1c-1.6,0-2.7-0.6-3.7-2.2
				c0.9,0,1.5,0,2.1,0c9.1,0,18.1,0,27.2-0.1c2.1,0,4.1-0.5,6.2-0.8c0-0.2,0-0.4-0.1-0.6c-2.1,0.1-4.1,0.2-6.2,0.3
				c1.5-1.6,2.7-3.4,5.4-3.2c3.4,0.2,6.9,0.1,10.3,0c1.7-0.1,2.8,0.3,2.7,2c1.5,0.7,2.7,1.2,4.3,1.9c4-2.3,8.9-2.9,13.9-3.1
				c0.8,0,1.6-0.7,2.4-1.1c0.9-0.4,1.7-1.2,2.6-1.2c4.6-0.1,9.1-0.1,13.7-0.1c0.2,0.6,0.5,1.1,0.7,1.6c0.1-0.1,0.2-0.3,0.3-0.4
				c1.1,0.5,2.1,1,3.2,1.5c1.2,0.5,2.5,1.3,3.7,1.3c7.1-0.1,14.3-0.3,21.4-0.5c1.2,0,2.5,0.2,3.7,0.1c0.8,0,1.8-0.1,2.4-0.6
				c3.9-2.5,6.3-0.6,7.7,2.1c1.9,3.5,2.1,7.2,0.4,10.9c-1.3,2.8-3.3,3.5-6.1,2.3c-0.6-0.2-1.3-0.3-1.9-0.3
				c-10.6,0.2-21.1,0.4-31.7,0.6c-3.6,0.1-7.1-0.1-10.7-0.1c-1.4,0-2-0.7-2.2-2c-0.6-3.7-1.2-7.4-2-11.1c-0.2-0.9-0.9-1.8-1.3-2.7
				c-0.3,0.1-0.5,0.2-0.8,0.3c1.2,8.1,2.3,16.2,3.5,24.5c-1.3,0.2-2.4,0.4-3.5,0.5c12.4,62.3,24.8,124.4,37.2,186.6
				c0.1,0,0.2,0.1,0.3,0.1c4.7,0.3,4.7,0.3,5.4,4.9c0.2,1.4,0.8,2.6-0.2,4.3c-0.7,1.2,0.5,3.4,0.8,5.1c1.8,9.5,3.7,18.9,5.5,28.4
				c1.6,8.1,3.1,16.3,4.8,24.4c1.6,7.3,3.4,14.5,5.3,22.1c-4.2-0.7-6.7,1.7-8.5,5.1c0.4,0.3,0.7,0.6,1.1,0.7
				c5.9,1.9,11.7,4,17.7,5.6c2.3,0.6,4.8,0.3,7.2,0.1c0.9,0,1.7-0.8,2.8-1.3c-4.1-5.4-9.9-7.1-15.5-9.2c5.8,1.2,11.6,2.1,16.4,6
				c2.4,2,2.7,3.9,0.7,6.3c-1.5,1.7-1.2,2.7,0.2,4.1c1.6,1.8,3,3.8,4.5,5.8c-2.6,2.9-5.9,4.1-9.5,4.7c4,1.5,7.9,1,12.1-0.9
				c1.5,4.6,3,8.9,4.4,13.3c0.1,0.5-0.3,1.4-0.8,1.8c-2.7,2.5-6.1,3.6-10.1,4.1c4.2,1.6,7.9,1.3,12.1,0c0.1,3-0.1,5.7,0.3,8.4
				c0.6,4.2-1.8,6.2-5.3,7.4c-2.3,0.8-4.8,1.1-7.2,1.7c3.4,2,7.2,1.7,11.7,1.3c-1.4,3.8-2.1,7.6-4.2,10.5c-1.4,1.9-4.6,2.4-7.1,3.5
				c-0.6,0.2-1.3,0.2-2,0.7c1,0.2,2,0.5,3,0.7c1.1,0.2,2.2,0.2,3.4,0.6c-4.4,3.8-7.1,10.2-14.9,8.9c0.1,0.2,0.1,0.4,0.2,0.6
				c0.8,0.4,1.6,0.9,2.6,1.5c-1,0.7-1.6,1.2-2.3,1.6c-9.1,4.2-18,4.7-27.1-0.5c-4.9-2.8-9.4-6-13.2-10.2
				c-11.3-15.1-15.6-25.3-13.4-46.9c-0.6,1.6-1.1,3-1.7,4.4c-0.2,0-0.3,0-0.5-0.1c-0.1-0.4-0.3-0.8-0.3-1.2
				c-0.1-2.2-0.4-4.5-0.2-6.7c0.3-4.9,1.8-9.4,5.1-13.1c2.2-2.5,4.6-4.9,7.2-7c4.9-3.9,6.6-8.8,5.6-14.8c-1.9-11.4-3.9-22.7-6-34.1
				c-1.2-6.3-2.6-12.6-3.9-19c-0.4-2.1-0.7-4.3-1.3-6.4c-0.2-0.6-1-1.1-1.6-1.6c-0.1-0.1-0.2-0.1-0.4-0.1c-3.9-1.2-4.7-3.5-2.1-6.8
				c0.4-0.6,1.2-1,1.4-1.6c0.4-1,0.5-2.1,0.7-3.1C529.1,531.4,528.9,531.4,528.6,531.3z M538.3,631.2c-3.7,2.9-6.3,11.1-6.7,16.1
				c-0.8,9.1,0.3,18,4.6,26.4c3.8,7.6,8.9,13.9,17,17.2c6.7,2.7,13.3,2,19.1-2.4c5.7-4.3,8.8-10.5,9.9-17.3
				c1.6-10.1,0.8-20-3.8-29.4c-3.7-7.5-8.7-13.7-16.5-17.2c-1.6-0.7-3.4-1.1-5.5-1.8c0.4,2.5,0.6,4.4,1,6.2c0.1,0.6,0.7,1.3,1.3,1.5
				c9.4,4.1,14.2,11.8,16.3,21.3c1,4.3,0.7,8.9,0.9,13.4c0.2,3.5-0.7,6.7-2.2,9.8c-3,6.5-7.4,11.1-15.3,11.2c-2.7,0-5.4-0.8-6.1-2.5
				c0.5,0,0.9-0.1,1.4-0.1c5.2,0,9-2.6,11.4-7c5-8.9,4.7-18.2,0.9-27.4c-1.5-3.6-3.5-6.9-7-9.5c0.4,3.6,0.8,6.7,1.2,9.9
				c0.4,3.7,0.9,7.5,1.3,11.2c0.2,1.8-1.2,3.4-2.8,3.5c-1.9,0.1-2.3-1.2-2.7-2.7c-0.5-1.7-1.3-3.3-2.2-4.8c-0.4-0.6-1.7-1-2.4-0.9
				c-0.7,0.2-1.4,1.2-1.6,1.9c-0.3,0.8-0.2,1.8-0.1,2.7c0.1,0.9,0.2,1.8,0.4,2.7c-0.3,0.1-0.5,0.1-0.8,0.2
				C542.4,654,541.3,642.3,538.3,631.2z M527.7,308.4c0.3,4.4,0.3,4.4,3.8,4.3c9.8-0.3,19.5-0.6,29.3-0.8c1.6,0,1.9-0.8,1.7-2.1
				c-0.3-1.4-1.1-1.9-2.6-1.9c-4.3,0.2-8.6,0.4-12.9,0.4C540.6,308.4,534.2,308.4,527.7,308.4z"/>
			<path class="st1" d="M414.1,621.2c-5.9,1.3-9,5.8-12,10.6c0.6-5.4,4.8-13,11.2-15c5.3-1.6,11.6,0.4,15.3,5.7
				c2.6,3.6,4.7,7.6,7.2,11.4c2.4,3.6,5.3,6.6,9.7,7.6c1,0.2,2,0.2,3.6,0.4c-2.1-1.4-4.2-2.2-5.3-3.6c-2.3-2.9-4.3-6.2-6.1-9.4
				c-2.3-4.1-4.3-8.3-7.8-11.6c-7.7-7.3-19.8-5.6-25.2,3.5c-3,5.1-4.4,10.7-5.2,16.5c-0.1,0.7-0.2,1.4-0.3,2.1c-0.2,0-0.7-5-0.5-7.4
				c0.5-5.8,2-11.2,5.6-15.8c5.3-6.9,13.6-9.2,21.8-6.3c6.3,2.2,10.5,6.7,13.7,12.3c2,3.5,3.4,7.4,5.3,11c0.9,1.7,2,3.2,3.1,4.8
				c1,1.5,2.4,1.9,4.3,1.9c18.3-0.3,36.6-0.6,54.9-0.7c2.2,0,3.4-0.6,4.4-2.8c5.3-12.1,10.9-24,16.3-36c2.4-5.3,4.8-10.7,7.2-16
				c0.1-0.3,0.4-0.6,1-0.9c1.9,9.4,3,18.9,4.4,28.4c-9.6,4.6-21.2,21.7-20.6,31.8c0.1,1.1-0.4,1.5-1.5,1.5c-9.4-0.3-18.7-0.6-28.1-1
				c-4.3-0.2-8.7-0.5-13-0.7c-10.9-0.3-21.9-0.5-32.8-1c-4.4-0.2-7.8,1.7-11.7,4.1c2.8,0.1,5.1,0.3,7.5,0.4c12.7,0.4,25.4,0.6,38,1
				c6.8,0.2,13.7,0.5,20.5,0.8c6.5,0.3,13,0.5,19.6,0.7c0.5,0,0.9,0.1,1.2,0.1c0.9,3.5,1.8,6.7,2.5,10.1c0.2,0.7-0.1,1.8-0.6,2.3
				c-1.9,1.8-3.8,3.4-5.9,4.9c-0.5,0.4-1.5,0.4-2.3,0.4c-8.7-0.3-17.4-0.6-26.1-1c-4.7-0.2-9.4-0.2-14-0.9
				c-9.2-1.3-18.4-1.3-27.6-1.6c-0.5,0-1,0-1.6,0c-0.3,1.4-0.6,2.6-0.8,3.9c-0.3,2.6-0.9,3.2-3.5,3.7c-1.3,0.3-2.6,0.3-4,0.8
				c1.3,0.2,2.6,0.6,3.9,0.7c2.1,0.2,2.5,0.6,1.8,2.7c-1.5,4.5-3.2,5.7-8,5.6c-0.3,0-0.5,0-0.8,0.4c1.3,0.3,2.7,0.5,3.9,0.9
				c0.4,0.1,0.9,1.1,0.8,1.2c-1.7,2-3.1,4.5-6,5.1c-0.8,0.2-1.7,0.1-2.6,0.1c0.6,0.3,1.1,0.6,1.9,1c-2.9,2-5.8,2.4-8.8,1.3
				c-7.1-2.5-11.5-7.8-15-14.2c-3-5.6-5.4-14.3-5.9-20.4c-0.6-6.7-0.3-13.3,1.7-19.8C404.7,630.9,407.7,625,414.1,621.2z
				 M421.6,678.6c-1.5,1.2-3.1,1.1-4.4,0c-1.1-0.9-2.2-2-2.9-3.2c-3.1-5.2-4.1-11.1-4.8-17c-0.2-1.6-0.8-3.2-0.8-4.8
				c0-1.9,0.5-3.9,0.8-5.8c0.6-4.3,1.2-8.5,3.5-12.3c1.1-1.8,2.5-3.3,4.9-3c1.8,0.2,3.8,2.2,4.3,3.8c-8.9,2-8.9,9.3-6.9,12.7
				c2.3,0.6,2.3-1.1,3.1-2.2c0.5-0.8,1.4-1.7,2.2-1.9c0.7-0.1,1.9,0.8,2.2,1.5c1,2.2,2.5,1.7,4.2,1.2c-0.4-4.4-2.9-11.2-5.3-14.4
				c-0.8-1.1-1.7-2.2-2.8-3c-2.3-1.9-4.9-1.8-6.6,0.6c-1.5,2.2-2.8,4.8-3.5,7.4c-2.4,9.9-1.5,19.7,1,29.4c1.1,4.4,2.6,8.6,5.7,12.1
				c3.7,4.1,7.1,3.7,9.7-1.1c2.6-4.7,3.3-9.9,3.1-15.2c0-1.5-0.7-3.2-2.4-4.1c-0.5,2.8-1,5.4-1.5,8c-0.3,1.6-1,3.3-2.8,3.4
				c-1.9,0.1-2.7-1.7-3.2-3.3c-0.7-2.5-1.2-5.1-1.8-7.7c-0.1-0.5-0.7-0.8-1.1-1.2c-0.2,0.2-0.4,0.3-0.5,0.5
				C415.9,666,416.4,673,421.6,678.6z"/>
		</g>
	</g>
	<circle class="st2" cx="-637.4" cy="502.6" r="242.4"/>
	<g>
		<path class="st0" d="M-376.6,503.8c0-39.5-8.8-76.9-24.5-110.5h243.5l-102.5-29c-19.9-54.3-51.5-104-93.6-146.1
			C-429.9,142-531.3,100-639.2,100s-209.3,42-285.5,118.3c-42.1,42.1-73.7,91.9-93.6,146.1l-102.5,29h243.6
			c-15.7,33.6-24.4,71-24.4,110.5c0,39.4,8.8,76.9,24.4,110.5h-243.6l102.5,29c19.9,54.3,51.6,104,93.6,146.1
			c76.3,76.3,177.7,118.3,285.5,118.3s209.3-42,285.5-118.3c42.1-42.1,73.7-91.8,93.6-146.1l102.5-29H-401
			C-385.4,580.7-376.6,543.2-376.6,503.8z M-987.2,364.4c55.3-138,190.3-235.4,348-235.4c157.7,0,292.7,97.4,348,235.4h-125.7
			c-46.5-73.9-128.8-123.1-222.3-123.1c-93.6,0-175.8,49.2-222.3,123.1H-987.2z M-405.6,503.8c0,40-10,77.6-27.7,110.5
			c-5.4,10.1-11.6,19.8-18.4,29c-42.6,57.2-110.7,94.2-187.4,94.2c-76.7,0-144.8-37-187.4-94.2c-6.8-9.2-13-18.8-18.4-29
			c-17.7-32.9-27.7-70.5-27.7-110.5c0-40,10-77.6,27.7-110.5c5.4-10.1,11.6-19.8,18.4-29c42.6-57.2,110.7-94.2,187.4-94.2
			c76.8,0,144.8,37,187.4,94.2c6.8,9.2,13,18.8,18.4,29C-415.6,426.2-405.6,463.8-405.6,503.8z M-291.2,643.2
			c-55.3,138-190.3,235.4-348,235.4c-157.7,0-292.7-97.4-348-235.4h125.7c46.5,73.9,128.8,123.1,222.3,123.1
			c93.6,0,175.8-49.2,222.3-123.1H-291.2z"/>
		<path id="SVGID_x5F_3_x5F_" class="st2" d="M-319.5,649.3h28.6c-18.3,49.1-47.3,94-86,132.1c-70.1,69-163.2,106.9-262.3,106.9
			s-192.2-38-262.3-106.9c-38.7-38.1-67.7-83-86-132.1h28.6C-908,774-784.1,862.1-639.2,862.1S-370.3,774-319.5,649.3z"/>
		<text>		<textPath  xlink:href="#SVGID_x5F_3_x5F_" startOffset="2602.6721%">
<tspan  class="st0" style="font-family:'PatuaOne-Regular'; font-size:95.6102px; letter-spacing:238.2;">PATINETE</tspan>		</textPath>
</text>
	</g>
	<path id="SVGID_x5F_4_x5F_" class="st2" d="M-353.7,503.8c0,157.7-127.8,285.5-285.5,285.5s-285.5-127.8-285.5-285.5
		s127.8-285.5,285.5-285.5S-353.7,346.1-353.7,503.8z"/>
	<text>	<textPath  xlink:href="#SVGID_x5F_4_x5F_" startOffset="3677.1392%">
<tspan  class="st0" style="font-family:'PatuaOne-Regular'; font-size:96.6126px; letter-spacing:80;">TALLER DEL</tspan>	</textPath>
</text>
	<g id="TinLdq_4_">
		<g>
			<path class="st0" d="M-265.7,511.4c9.9,1.7,19,3.3,29.7,5.1c-21.3-29.8-41.8-58.4-62.3-87.1c-0.4,0.2-0.9,0.4-1.3,0.5
				c5.2,18.3,10.5,36.7,16,56.1c-11.1-1.8-21.5-3.5-33.6-5.5c25.2,33.3,49.4,65.3,73.6,97.3c0.4-0.2,0.7-0.3,1.1-0.5
				C-250.2,555.6-257.8,533.9-265.7,511.4z"/>
		</g>
	</g>
	<g id="TinLdq_3_">
		<g>
			<path class="st0" d="M-1012.7,511.4c-9.9,1.7-19,3.3-29.7,5.1c21.3-29.8,41.8-58.4,62.3-87.1c0.4,0.2,0.9,0.4,1.3,0.5
				c-5.2,18.3-10.5,36.7-16,56.1c11.1-1.8,21.5-3.5,33.6-5.5c-25.2,33.3-49.4,65.3-73.6,97.3c-0.4-0.2-0.7-0.3-1.1-0.5
				C-1028.2,555.6-1020.6,533.9-1012.7,511.4z"/>
		</g>
	</g>
	<g id="_x33_cX7Jq.tif_3_">
		<g>
			<path class="st0" d="M-610.4,531.3c-0.3,0.2-0.6,0.4-1.1,0.6c-0.7-2.6-1.5-5.1-2.2-7.6c-0.1-0.3,0.4-0.9,0.7-1.2
				c1.3-0.9,2.6-1.7,4.1-2.7c-12.6-62.5-25.2-125.1-37.8-187.8c-0.9,0-1.6,0-2.5,0c-0.4-2.5-0.8-4.9-1.3-7.7
				c1.9-0.3,3.8-0.6,5.7-0.7c0.3,0,1,0.7,1.1,1.2c1.8,8.7,3.6,17.5,5.4,26.2c3.4,16.7,6.9,33.3,10.3,50c0.9,4.4,1.8,8.8,3.1,13.1
				c-5.3-30.3-10.6-60.6-15.9-91.1c3-0.4,5.8-0.8,8.8-1.2c-0.6-3.4-1.2-6.6-1.9-10.2c-2.3,0.2-4.6,0.2-6.9,0.5
				c-2.1,0.3-4.2,0.9-6.3,1.4c-1,0.3-1.3,1-1.3,2.1c-0.1,1.8-0.5,3.5-1,5.2c-0.8,2.1-2.1,2.6-4.2,1.9c-0.7-0.2-1.5-0.4-2.3-0.4
				c-3.4,0.1-6.8,0.2-10.2,0.3c-0.8,0-1.8-0.2-2.5-0.6c-2-1.1-4-1-6.1-0.9c-9.6,0.4-19.3,0.7-28.9,1.1c-0.8,0-1.7,0.2-2.5,0.6
				c-1.3,0.6-2.3,0.3-3.2-0.7c-2.4-2.7-2.6-9.3-0.2-12.5c-0.3,4-0.7,8,2.9,10.8c2.5-3.2,1.1-9.6-2.5-12.7c3.6-2,7,1.1,8.2,7.6
				c9.7-0.6,19.4-1.2,29.2-1.8c0.1-1,0.2-1.9,0.4-3.1c-1,0-1.8,0-2.5,0c-8.2,0-16.4-0.1-24.6-0.1c-1.6,0-2.7-0.6-3.7-2.2
				c0.9,0,1.5,0,2.1,0c9.1,0,18.1,0,27.2-0.1c2.1,0,4.1-0.5,6.2-0.8c0-0.2,0-0.4-0.1-0.6c-2.1,0.1-4.1,0.2-6.2,0.3
				c1.5-1.6,2.7-3.4,5.4-3.2c3.4,0.2,6.9,0.1,10.3,0c1.7-0.1,2.8,0.3,2.7,2c1.5,0.7,2.7,1.2,4.3,1.9c4-2.3,8.9-2.9,13.9-3.1
				c0.8,0,1.6-0.7,2.4-1.1c0.9-0.4,1.7-1.2,2.6-1.2c4.6-0.1,9.1-0.1,13.7-0.1c0.2,0.6,0.5,1.1,0.7,1.6c0.1-0.1,0.2-0.3,0.3-0.4
				c1.1,0.5,2.1,1,3.2,1.5c1.2,0.5,2.5,1.3,3.7,1.3c7.1-0.1,14.3-0.3,21.4-0.5c1.2,0,2.5,0.2,3.7,0.1c0.8,0,1.8-0.1,2.4-0.6
				c3.9-2.5,6.3-0.6,7.7,2.1c1.9,3.5,2.1,7.2,0.4,10.9c-1.3,2.8-3.3,3.5-6.1,2.3c-0.6-0.2-1.3-0.3-1.9-0.3
				c-10.6,0.2-21.1,0.4-31.7,0.6c-3.6,0.1-7.1-0.1-10.7-0.1c-1.4,0-2-0.7-2.2-2c-0.6-3.7-1.2-7.4-2-11.1c-0.2-0.9-0.9-1.8-1.3-2.7
				c-0.3,0.1-0.5,0.2-0.8,0.3c1.2,8.1,2.3,16.2,3.5,24.5c-1.3,0.2-2.4,0.4-3.5,0.5c12.4,62.3,24.8,124.4,37.2,186.6
				c0.1,0,0.2,0.1,0.3,0.1c4.7,0.3,4.7,0.3,5.4,4.9c0.2,1.4,0.8,2.6-0.2,4.3c-0.7,1.2,0.5,3.4,0.8,5.1c1.8,9.5,3.7,18.9,5.5,28.4
				c1.6,8.1,3.1,16.3,4.8,24.4c1.6,7.3,3.4,14.5,5.3,22.1c-4.2-0.7-6.7,1.7-8.5,5.1c0.4,0.3,0.7,0.6,1.1,0.7
				c5.9,1.9,11.7,4,17.7,5.6c2.3,0.6,4.8,0.3,7.2,0.1c0.9,0,1.7-0.8,2.8-1.3c-4.1-5.4-9.9-7.1-15.5-9.2c5.8,1.2,11.6,2.1,16.4,6
				c2.4,2,2.7,3.9,0.7,6.3c-1.5,1.7-1.2,2.7,0.2,4.1c1.6,1.8,3,3.8,4.5,5.8c-2.6,2.9-5.9,4.1-9.5,4.7c4,1.5,7.9,1,12.1-0.9
				c1.5,4.6,3,8.9,4.4,13.3c0.1,0.5-0.3,1.4-0.8,1.8c-2.7,2.5-6.1,3.6-10.1,4.1c4.2,1.6,7.9,1.3,12.1,0c0.1,3-0.1,5.7,0.3,8.4
				c0.6,4.2-1.8,6.2-5.3,7.4c-2.3,0.8-4.8,1.1-7.2,1.7c3.4,2,7.2,1.7,11.7,1.3c-1.4,3.8-2.1,7.6-4.2,10.5c-1.4,1.9-4.6,2.4-7.1,3.5
				c-0.6,0.2-1.3,0.2-2,0.7c1,0.2,2,0.5,3,0.7c1.1,0.2,2.2,0.2,3.4,0.6c-4.4,3.8-7.1,10.2-14.9,8.9c0.1,0.2,0.1,0.4,0.2,0.6
				c0.8,0.4,1.6,0.9,2.6,1.5c-1,0.7-1.6,1.2-2.3,1.6c-9.1,4.2-18,4.7-27.1-0.5c-4.9-2.8-9.4-6-13.2-10.2
				c-11.3-15.1-15.6-25.3-13.4-46.9c-0.6,1.6-1.1,3-1.7,4.4c-0.2,0-0.3,0-0.5-0.1c-0.1-0.4-0.3-0.8-0.3-1.2
				c-0.1-2.2-0.4-4.5-0.2-6.7c0.3-4.9,1.8-9.4,5.1-13.1c2.2-2.5,4.6-4.9,7.2-7c4.9-3.9,6.6-8.8,5.6-14.8c-1.9-11.4-3.9-22.7-6-34.1
				c-1.2-6.3-2.6-12.6-3.9-19c-0.4-2.1-0.7-4.3-1.3-6.4c-0.2-0.6-1-1.1-1.6-1.6c-0.1-0.1-0.2-0.1-0.4-0.1c-3.9-1.2-4.7-3.5-2.1-6.8
				c0.4-0.6,1.2-1,1.4-1.6c0.4-1,0.5-2.1,0.7-3.1C-609.9,531.4-610.1,531.4-610.4,531.3z M-600.7,631.2c-3.7,2.9-6.3,11.1-6.7,16.1
				c-0.8,9.1,0.3,18,4.6,26.4c3.8,7.6,8.9,13.9,17,17.2c6.7,2.7,13.3,2,19.1-2.4c5.7-4.3,8.8-10.5,9.9-17.3
				c1.6-10.1,0.8-20-3.8-29.4c-3.7-7.5-8.7-13.7-16.5-17.2c-1.6-0.7-3.4-1.1-5.5-1.8c0.4,2.5,0.6,4.4,1,6.2c0.1,0.6,0.7,1.3,1.3,1.5
				c9.4,4.1,14.2,11.8,16.3,21.3c1,4.3,0.7,8.9,0.9,13.4c0.2,3.5-0.7,6.7-2.2,9.8c-3,6.5-7.4,11.1-15.3,11.2c-2.7,0-5.4-0.8-6.1-2.5
				c0.5,0,0.9-0.1,1.4-0.1c5.2,0,9-2.6,11.4-7c5-8.9,4.7-18.2,0.9-27.4c-1.5-3.6-3.5-6.9-7-9.5c0.4,3.6,0.8,6.7,1.2,9.9
				c0.4,3.7,0.9,7.5,1.3,11.2c0.2,1.8-1.2,3.4-2.8,3.5c-1.9,0.1-2.3-1.2-2.7-2.7c-0.5-1.7-1.3-3.3-2.2-4.8c-0.4-0.6-1.7-1-2.4-0.9
				c-0.7,0.2-1.4,1.2-1.6,1.9c-0.3,0.8-0.2,1.8-0.1,2.7c0.1,0.9,0.2,1.8,0.4,2.7c-0.3,0.1-0.5,0.1-0.8,0.2
				C-596.6,654-597.7,642.3-600.7,631.2z M-611.3,308.4c0.3,4.4,0.3,4.4,3.8,4.3c9.8-0.3,19.5-0.6,29.3-0.8c1.6,0,1.9-0.8,1.7-2.1
				c-0.3-1.4-1.1-1.9-2.6-1.9c-4.3,0.2-8.6,0.4-12.9,0.4C-598.4,308.4-604.8,308.4-611.3,308.4z"/>
			<path class="st0" d="M-724.9,621.2c-5.9,1.3-9,5.8-12,10.6c0.6-5.4,4.8-13,11.2-15c5.3-1.6,11.6,0.4,15.3,5.7
				c2.6,3.6,4.7,7.6,7.2,11.4c2.4,3.6,5.3,6.6,9.7,7.6c1,0.2,2,0.2,3.6,0.4c-2.1-1.4-4.2-2.2-5.3-3.6c-2.3-2.9-4.3-6.2-6.1-9.4
				c-2.3-4.1-4.3-8.3-7.8-11.6c-7.7-7.3-19.8-5.6-25.2,3.5c-3,5.1-4.4,10.7-5.2,16.5c-0.1,0.7-0.2,1.4-0.3,2.1c-0.2,0-0.7-5-0.5-7.4
				c0.5-5.8,2-11.2,5.6-15.8c5.3-6.9,13.6-9.2,21.8-6.3c6.3,2.2,10.5,6.7,13.7,12.3c2,3.5,3.4,7.4,5.3,11c0.9,1.7,2,3.2,3.1,4.8
				c1,1.5,2.4,1.9,4.3,1.9c18.3-0.3,36.6-0.6,54.9-0.7c2.2,0,3.4-0.6,4.4-2.8c5.3-12.1,10.9-24,16.3-36c2.4-5.3,4.8-10.7,7.2-16
				c0.1-0.3,0.4-0.6,1-0.9c1.9,9.4,3,18.9,4.4,28.4c-9.6,4.6-21.2,21.7-20.6,31.8c0.1,1.1-0.4,1.5-1.5,1.5c-9.4-0.3-18.7-0.6-28.1-1
				c-4.3-0.2-8.7-0.5-13-0.7c-10.9-0.3-21.9-0.5-32.8-1c-4.4-0.2-7.8,1.7-11.7,4.1c2.8,0.1,5.1,0.3,7.5,0.4c12.7,0.4,25.4,0.6,38,1
				c6.8,0.2,13.7,0.5,20.5,0.8c6.5,0.3,13,0.5,19.6,0.7c0.5,0,0.9,0.1,1.2,0.1c0.9,3.5,1.8,6.7,2.5,10.1c0.2,0.7-0.1,1.8-0.6,2.3
				c-1.9,1.8-3.8,3.4-5.9,4.9c-0.5,0.4-1.5,0.4-2.3,0.4c-8.7-0.3-17.4-0.6-26.1-1c-4.7-0.2-9.4-0.2-14-0.9
				c-9.2-1.3-18.4-1.3-27.6-1.6c-0.5,0-1,0-1.6,0c-0.3,1.4-0.6,2.6-0.8,3.9c-0.3,2.6-0.9,3.2-3.5,3.7c-1.3,0.3-2.6,0.3-4,0.8
				c1.3,0.2,2.6,0.6,3.9,0.7c2.1,0.2,2.5,0.6,1.8,2.7c-1.5,4.5-3.2,5.7-8,5.6c-0.3,0-0.5,0-0.8,0.4c1.3,0.3,2.7,0.5,3.9,0.9
				c0.4,0.1,0.9,1.1,0.8,1.2c-1.7,2-3.1,4.5-6,5.1c-0.8,0.2-1.7,0.1-2.6,0.1c0.6,0.3,1.1,0.6,1.9,1c-2.9,2-5.8,2.4-8.8,1.3
				c-7.1-2.5-11.5-7.8-15-14.2c-3-5.6-5.4-14.3-5.9-20.4c-0.6-6.7-0.3-13.3,1.7-19.8C-734.3,630.9-731.3,625-724.9,621.2z
				 M-717.4,678.6c-1.5,1.2-3.1,1.1-4.4,0c-1.1-0.9-2.2-2-2.9-3.2c-3.1-5.2-4.1-11.1-4.8-17c-0.2-1.6-0.8-3.2-0.8-4.8
				c0-1.9,0.5-3.9,0.8-5.8c0.6-4.3,1.2-8.5,3.5-12.3c1.1-1.8,2.5-3.3,4.9-3c1.8,0.2,3.8,2.2,4.3,3.8c-8.9,2-8.9,9.3-6.9,12.7
				c2.3,0.6,2.3-1.1,3.1-2.2c0.5-0.8,1.4-1.7,2.2-1.9c0.7-0.1,1.9,0.8,2.2,1.5c1,2.2,2.5,1.7,4.2,1.2c-0.4-4.4-2.9-11.2-5.3-14.4
				c-0.8-1.1-1.7-2.2-2.8-3c-2.3-1.9-4.9-1.8-6.6,0.6c-1.5,2.2-2.8,4.8-3.5,7.4c-2.4,9.9-1.5,19.7,1,29.4c1.1,4.4,2.6,8.6,5.7,12.1
				c3.7,4.1,7.1,3.7,9.7-1.1c2.6-4.7,3.3-9.9,3.1-15.2c0-1.5-0.7-3.2-2.4-4.1c-0.5,2.8-1,5.4-1.5,8c-0.3,1.6-1,3.3-2.8,3.4
				c-1.9,0.1-2.7-1.7-3.2-3.3c-0.7-2.5-1.2-5.1-1.8-7.7c-0.1-0.5-0.7-0.8-1.1-1.2c-0.2,0.2-0.4,0.3-0.5,0.5
				C-723.1,666-722.6,673-717.4,678.6z"/>
		</g>
	</g>
	<g>
		<circle class="st2" cx="501.6" cy="-1713.4" r="242.4"/>
		<g>
			<path class="st3" d="M762.4-1712.2c0-39.5-8.8-76.9-24.5-110.5h243.5l-102.5-29c-19.9-54.3-51.5-104-93.6-146.1
				C709.1-2074,607.7-2116,499.8-2116s-209.3,42-285.5,118.3c-42.1,42.1-73.7,91.8-93.6,146.1l-102.5,29h243.6
				c-15.7,33.6-24.4,71-24.4,110.5c0,39.4,8.8,76.9,24.4,110.5H18.2l102.5,29c19.9,54.3,51.6,104,93.6,146.1
				c76.3,76.3,177.7,118.3,285.5,118.3s209.3-42,285.5-118.3c42.1-42.1,73.7-91.8,93.6-146.1l102.5-29H738
				C753.6-1635.3,762.4-1672.8,762.4-1712.2z M151.8-1851.6c55.3-138,190.3-235.4,348-235.4c157.7,0,292.7,97.4,348,235.4H722.2
				c-46.5-73.9-128.8-123.1-222.3-123.1c-93.6,0-175.8,49.2-222.3,123.1H151.8z M733.4-1712.2c0,40-10,77.6-27.7,110.5
				c-5.4,10.1-11.6,19.8-18.4,29c-42.6,57.2-110.7,94.2-187.4,94.2c-76.7,0-144.8-37-187.4-94.2c-6.8-9.2-13-18.8-18.4-29
				c-17.7-32.9-27.7-70.5-27.7-110.5c0-40,10-77.6,27.7-110.5c5.4-10.1,11.6-19.8,18.4-29c42.6-57.2,110.7-94.2,187.4-94.2
				c76.8,0,144.8,37,187.4,94.2c6.8,9.2,13,18.8,18.4,29C723.4-1789.8,733.4-1752.2,733.4-1712.2z M847.8-1572.8
				c-55.3,138-190.3,235.4-348,235.4c-157.7,0-292.7-97.4-348-235.4h125.7c46.5,73.9,128.8,123.1,222.3,123.1
				c93.6,0,175.8-49.2,222.3-123.1H847.8z"/>
			<path id="SVGID_x5F_5_x5F_" class="st2" d="M819.5-1566.7h28.6c-18.3,49.1-47.3,94-86,132.1c-70.1,69-163.2,106.9-262.3,106.9
				s-192.2-38-262.3-106.9c-38.7-38.1-67.7-83-86-132.1h28.6c50.8,124.7,174.8,212.8,319.7,212.8S768.7-1442,819.5-1566.7z"/>
			<text>			<textPath  xlink:href="#SVGID_x5F_5_x5F_" startOffset="2602.6721%">
<tspan  class="st3" style="font-family:'PatuaOne-Regular'; font-size:95.6102px; letter-spacing:238.2;">PATINETE</tspan>			</textPath>
</text>
		</g>
		<path id="SVGID_x5F_6_x5F_" class="st2" d="M785.3-1712.2c0,157.7-127.8,285.5-285.5,285.5s-285.5-127.8-285.5-285.5
			s127.8-285.5,285.5-285.5S785.3-1869.9,785.3-1712.2z"/>
		<text>		<textPath  xlink:href="#SVGID_x5F_6_x5F_" startOffset="3677.1392%">
<tspan  class="st3" style="font-family:'PatuaOne-Regular'; font-size:96.6126px; letter-spacing:80;">TALLER DEL</tspan>		</textPath>
</text>
		<g id="TinLdq_12_">
			<g>
				<path class="st3" d="M873.3-1704.6c9.9,1.7,19,3.3,29.7,5.1c-21.3-29.8-41.8-58.4-62.3-87.1c-0.4,0.2-0.9,0.4-1.3,0.5
					c5.2,18.3,10.5,36.7,16,56.1c-11.1-1.8-21.5-3.5-33.6-5.5c25.2,33.3,49.4,65.3,73.6,97.3c0.4-0.2,0.7-0.3,1.1-0.5
					C888.8-1660.4,881.2-1682.1,873.3-1704.6z"/>
			</g>
		</g>
		<g id="TinLdq_11_">
			<g>
				<path class="st3" d="M126.3-1704.6c-9.9,1.7-19,3.3-29.7,5.1c21.3-29.8,41.8-58.4,62.3-87.1c0.4,0.2,0.9,0.4,1.3,0.5
					c-5.2,18.3-10.5,36.7-16,56.1c11.1-1.8,21.5-3.5,33.6-5.5c-25.2,33.3-49.4,65.3-73.6,97.3c-0.4-0.2-0.7-0.3-1.1-0.5
					C110.8-1660.4,118.4-1682.1,126.3-1704.6z"/>
			</g>
		</g>
		<g id="_x33_cX7Jq.tif_6_">
			<g>
				<path class="st3" d="M528.6-1684.7c-0.3,0.2-0.6,0.4-1.1,0.6c-0.7-2.6-1.5-5.1-2.2-7.6c-0.1-0.3,0.4-0.9,0.7-1.2
					c1.3-0.9,2.6-1.7,4.1-2.7c-12.6-62.5-25.2-125.1-37.8-187.8c-0.9,0-1.6,0-2.5,0c-0.4-2.5-0.8-4.9-1.3-7.7
					c1.9-0.3,3.8-0.6,5.7-0.7c0.3,0,1,0.7,1.1,1.2c1.8,8.7,3.6,17.5,5.4,26.2c3.4,16.7,6.9,33.3,10.3,50c0.9,4.4,1.8,8.8,3.1,13.1
					c-5.3-30.3-10.6-60.6-15.9-91.1c3-0.4,5.8-0.8,8.8-1.2c-0.6-3.4-1.2-6.6-1.9-10.2c-2.3,0.2-4.6,0.2-6.9,0.5
					c-2.1,0.3-4.2,0.9-6.3,1.4c-1,0.3-1.3,1-1.3,2.1c-0.1,1.8-0.5,3.5-1.1,5.2c-0.8,2.1-2.1,2.6-4.2,1.9c-0.7-0.2-1.5-0.4-2.3-0.4
					c-3.4,0.1-6.8,0.2-10.2,0.3c-0.8,0-1.8-0.2-2.5-0.6c-2-1.1-4-1-6.1-0.9c-9.6,0.4-19.3,0.7-28.9,1.1c-0.8,0-1.7,0.2-2.5,0.6
					c-1.3,0.6-2.3,0.3-3.2-0.7c-2.4-2.7-2.6-9.3-0.2-12.5c-0.3,4-0.7,8,2.9,10.8c2.5-3.2,1.1-9.6-2.5-12.7c3.6-2,7,1.1,8.2,7.6
					c9.7-0.6,19.4-1.2,29.2-1.8c0.1-1,0.2-1.9,0.4-3.1c-1,0-1.8,0-2.5,0c-8.2,0-16.4-0.1-24.6-0.1c-1.6,0-2.7-0.6-3.7-2.2
					c0.9,0,1.5,0,2.1,0c9.1,0,18.1,0,27.2-0.1c2.1,0,4.1-0.5,6.2-0.8c0-0.2,0-0.4-0.1-0.6c-2.1,0.1-4.1,0.2-6.2,0.3
					c1.5-1.6,2.7-3.4,5.4-3.2c3.4,0.2,6.9,0.1,10.3,0c1.7-0.1,2.8,0.3,2.7,2c1.5,0.7,2.7,1.2,4.3,1.9c4-2.3,8.9-2.9,13.9-3.1
					c0.8,0,1.6-0.7,2.4-1.1c0.9-0.4,1.7-1.2,2.6-1.2c4.6-0.1,9.1-0.1,13.7-0.1c0.2,0.6,0.5,1.1,0.7,1.6c0.1-0.1,0.2-0.3,0.3-0.4
					c1.1,0.5,2.1,1,3.2,1.5c1.2,0.5,2.5,1.3,3.7,1.3c7.1-0.1,14.3-0.3,21.4-0.5c1.2,0,2.5,0.2,3.7,0.1c0.8,0,1.8-0.1,2.4-0.6
					c3.9-2.5,6.3-0.6,7.7,2.1c1.9,3.5,2.1,7.2,0.4,10.9c-1.3,2.8-3.3,3.5-6.1,2.3c-0.6-0.2-1.3-0.3-1.9-0.3
					c-10.6,0.2-21.1,0.4-31.7,0.6c-3.6,0.1-7.1-0.1-10.7-0.1c-1.4,0-2-0.7-2.2-2c-0.6-3.7-1.2-7.4-2-11.1c-0.2-0.9-0.9-1.8-1.3-2.7
					c-0.3,0.1-0.5,0.2-0.8,0.3c1.2,8.1,2.3,16.2,3.5,24.5c-1.3,0.2-2.4,0.4-3.5,0.5c12.4,62.3,24.8,124.4,37.2,186.6
					c0.1,0,0.2,0.1,0.3,0.1c4.7,0.3,4.7,0.3,5.4,4.9c0.2,1.4,0.8,2.6-0.2,4.3c-0.7,1.2,0.5,3.4,0.8,5.1c1.8,9.5,3.7,18.9,5.5,28.4
					c1.6,8.1,3.1,16.3,4.8,24.4c1.6,7.3,3.4,14.5,5.3,22.1c-4.2-0.7-6.7,1.7-8.5,5.1c0.4,0.3,0.7,0.6,1.1,0.7
					c5.9,1.9,11.7,4,17.7,5.6c2.3,0.6,4.8,0.3,7.2,0.1c0.9,0,1.7-0.8,2.8-1.3c-4.1-5.4-9.9-7.1-15.5-9.2c5.8,1.2,11.6,2.1,16.4,6
					c2.4,2,2.7,3.9,0.7,6.3c-1.5,1.7-1.2,2.7,0.2,4.1c1.6,1.8,3,3.8,4.5,5.8c-2.6,2.9-5.9,4.1-9.5,4.7c4,1.5,7.9,1,12.1-0.9
					c1.5,4.6,3,8.9,4.4,13.3c0.1,0.5-0.3,1.4-0.8,1.8c-2.7,2.5-6.1,3.6-10.1,4.1c4.2,1.6,7.9,1.3,12.1,0c0.1,3-0.1,5.7,0.3,8.4
					c0.6,4.2-1.8,6.2-5.3,7.4c-2.3,0.8-4.8,1.1-7.2,1.7c3.4,2,7.2,1.7,11.7,1.3c-1.4,3.8-2.1,7.6-4.2,10.5c-1.4,1.9-4.6,2.4-7.1,3.5
					c-0.6,0.2-1.3,0.2-2,0.7c1,0.2,2,0.5,3,0.7c1.1,0.2,2.2,0.2,3.4,0.6c-4.4,3.8-7.1,10.2-14.9,8.9c0.1,0.2,0.1,0.4,0.2,0.6
					c0.8,0.4,1.6,0.9,2.6,1.5c-1,0.7-1.6,1.2-2.3,1.6c-9.1,4.2-18,4.7-27.1-0.5c-4.9-2.8-9.4-6-13.2-10.2
					c-11.3-15.1-15.6-25.3-13.4-46.9c-0.6,1.6-1.1,3-1.7,4.4c-0.2,0-0.3,0-0.5-0.1c-0.1-0.4-0.3-0.8-0.3-1.2
					c-0.1-2.2-0.4-4.5-0.2-6.7c0.3-4.9,1.8-9.4,5.1-13.1c2.2-2.5,4.6-4.9,7.2-7c4.9-3.9,6.6-8.8,5.6-14.8c-1.9-11.4-3.9-22.7-6-34.1
					c-1.2-6.3-2.6-12.6-3.9-19c-0.4-2.1-0.7-4.3-1.3-6.4c-0.2-0.6-1-1.1-1.6-1.6c-0.1-0.1-0.2-0.1-0.4-0.1c-3.9-1.2-4.7-3.5-2.1-6.8
					c0.4-0.6,1.2-1,1.4-1.6c0.4-1,0.5-2.1,0.7-3.1C529.1-1684.6,528.9-1684.6,528.6-1684.7z M538.3-1584.8
					c-3.7,2.9-6.3,11.1-6.7,16.1c-0.8,9.1,0.3,18,4.6,26.4c3.8,7.6,8.9,13.9,17,17.2c6.7,2.7,13.3,2,19.1-2.4
					c5.7-4.3,8.8-10.5,9.9-17.3c1.6-10.1,0.8-20-3.8-29.4c-3.7-7.5-8.7-13.7-16.5-17.2c-1.6-0.7-3.4-1.1-5.5-1.8
					c0.4,2.5,0.6,4.4,1,6.2c0.1,0.6,0.7,1.3,1.3,1.5c9.4,4.1,14.2,11.8,16.3,21.3c1,4.3,0.7,8.9,0.9,13.4c0.2,3.5-0.7,6.7-2.2,9.8
					c-3,6.5-7.4,11.1-15.3,11.2c-2.7,0-5.4-0.8-6.1-2.5c0.5,0,0.9-0.1,1.4-0.1c5.2,0,9-2.6,11.4-7c5-8.9,4.7-18.2,0.9-27.4
					c-1.5-3.6-3.5-6.9-7-9.5c0.4,3.6,0.8,6.7,1.2,9.9c0.4,3.7,0.9,7.5,1.3,11.2c0.2,1.8-1.2,3.4-2.8,3.5c-1.9,0.1-2.3-1.2-2.7-2.7
					c-0.5-1.7-1.3-3.3-2.2-4.8c-0.4-0.6-1.7-1-2.4-0.9c-0.7,0.2-1.4,1.2-1.6,1.9c-0.3,0.8-0.2,1.8-0.1,2.7c0.1,0.9,0.2,1.8,0.4,2.7
					c-0.3,0.1-0.5,0.1-0.8,0.2C542.4-1562,541.3-1573.7,538.3-1584.8z M527.7-1907.6c0.3,4.4,0.3,4.4,3.8,4.3
					c9.8-0.3,19.5-0.6,29.3-0.8c1.6,0,1.9-0.8,1.7-2.1c-0.3-1.4-1.1-1.9-2.6-1.9c-4.3,0.2-8.6,0.4-12.9,0.4
					C540.6-1907.6,534.2-1907.6,527.7-1907.6z"/>
				<path class="st3" d="M414.1-1594.8c-5.9,1.3-9,5.8-12,10.6c0.6-5.4,4.8-13,11.2-15c5.3-1.6,11.6,0.4,15.3,5.7
					c2.6,3.6,4.7,7.6,7.2,11.4c2.4,3.6,5.3,6.6,9.7,7.6c1,0.2,2,0.2,3.6,0.4c-2.1-1.4-4.2-2.2-5.3-3.6c-2.3-2.9-4.3-6.2-6.1-9.4
					c-2.3-4.1-4.3-8.3-7.8-11.6c-7.7-7.3-19.8-5.6-25.2,3.5c-3,5.1-4.4,10.7-5.2,16.5c-0.1,0.7-0.2,1.4-0.3,2.1
					c-0.2,0-0.7-5-0.5-7.4c0.5-5.8,2-11.2,5.6-15.8c5.3-6.9,13.6-9.2,21.8-6.3c6.3,2.2,10.5,6.7,13.7,12.3c2,3.5,3.4,7.4,5.3,11
					c0.9,1.7,2,3.2,3.1,4.8c1,1.5,2.4,1.9,4.3,1.9c18.3-0.3,36.6-0.6,54.9-0.7c2.2,0,3.4-0.6,4.4-2.8c5.3-12.1,10.9-24,16.3-36
					c2.4-5.3,4.8-10.7,7.2-16c0.1-0.3,0.4-0.6,1-0.9c1.9,9.4,3,18.9,4.4,28.4c-9.6,4.6-21.2,21.7-20.6,31.8c0.1,1.1-0.4,1.5-1.5,1.5
					c-9.4-0.3-18.7-0.6-28.1-1c-4.3-0.2-8.7-0.5-13-0.7c-10.9-0.3-21.9-0.5-32.8-1c-4.4-0.2-7.8,1.7-11.7,4.1
					c2.8,0.1,5.1,0.3,7.5,0.4c12.7,0.4,25.4,0.6,38,1c6.8,0.2,13.7,0.5,20.5,0.8c6.5,0.3,13,0.5,19.6,0.7c0.5,0,0.9,0.1,1.2,0.1
					c0.9,3.5,1.8,6.7,2.5,10.1c0.2,0.7-0.1,1.8-0.6,2.3c-1.9,1.8-3.8,3.4-5.9,4.9c-0.5,0.4-1.5,0.4-2.3,0.4
					c-8.7-0.3-17.4-0.6-26.1-1c-4.7-0.2-9.4-0.2-14-0.9c-9.2-1.3-18.4-1.3-27.6-1.6c-0.5,0-1,0-1.6,0c-0.3,1.4-0.6,2.6-0.8,3.9
					c-0.3,2.6-0.9,3.2-3.5,3.7c-1.3,0.3-2.6,0.3-4,0.8c1.3,0.2,2.6,0.6,3.9,0.7c2.1,0.2,2.5,0.6,1.8,2.7c-1.5,4.5-3.2,5.7-8,5.6
					c-0.3,0-0.5,0-0.8,0.4c1.3,0.3,2.7,0.5,3.9,0.9c0.4,0.1,0.9,1.1,0.8,1.2c-1.7,2-3.1,4.5-6,5.1c-0.8,0.2-1.7,0.1-2.6,0.1
					c0.6,0.3,1.1,0.6,1.9,1c-2.9,2-5.8,2.4-8.8,1.3c-7.1-2.5-11.5-7.8-15-14.2c-3-5.6-5.4-14.3-5.9-20.4c-0.6-6.7-0.3-13.3,1.7-19.8
					C404.7-1585.1,407.7-1591,414.1-1594.8z M421.6-1537.4c-1.5,1.2-3.1,1.1-4.4,0c-1.1-0.9-2.2-2-2.9-3.2c-3.1-5.2-4.1-11.1-4.8-17
					c-0.2-1.6-0.8-3.2-0.8-4.8c0-1.9,0.5-3.9,0.8-5.8c0.6-4.3,1.2-8.5,3.5-12.3c1.1-1.8,2.5-3.3,4.9-3c1.8,0.2,3.8,2.2,4.3,3.8
					c-8.9,2-8.9,9.3-6.9,12.7c2.3,0.6,2.3-1.1,3.1-2.2c0.5-0.8,1.4-1.7,2.2-1.9c0.7-0.1,1.9,0.8,2.2,1.5c1,2.2,2.5,1.7,4.2,1.2
					c-0.4-4.4-2.9-11.2-5.3-14.4c-0.8-1.1-1.7-2.2-2.8-3c-2.3-1.9-4.9-1.8-6.6,0.6c-1.5,2.2-2.8,4.8-3.5,7.4
					c-2.4,9.9-1.5,19.7,1,29.4c1.1,4.4,2.6,8.6,5.7,12.1c3.7,4.1,7.1,3.7,9.7-1.1c2.6-4.7,3.3-9.9,3.1-15.2c0-1.5-0.7-3.2-2.4-4.1
					c-0.5,2.8-1,5.4-1.5,8c-0.3,1.6-1,3.3-2.8,3.4c-1.9,0.1-2.7-1.7-3.2-3.3c-0.7-2.5-1.2-5.1-1.8-7.7c-0.1-0.5-0.7-0.8-1.1-1.2
					c-0.2,0.2-0.4,0.3-0.5,0.5C415.9-1550,416.4-1543,421.6-1537.4z"/>
			</g>
		</g>
	</g>
	<g>
		<path class="st1" d="M-376.6-1712.2c0-39.5-8.8-76.9-24.5-110.5h243.5l-102.5-29c-19.9-54.3-51.5-104-93.6-146.1
			C-429.9-2074-531.3-2116-639.2-2116s-209.3,42-285.5,118.3c-42.1,42.1-73.7,91.8-93.6,146.1l-102.5,29h243.6
			c-15.7,33.6-24.4,71-24.4,110.5c0,39.4,8.8,76.9,24.4,110.5h-243.6l102.5,29c19.9,54.3,51.6,104,93.6,146.1
			c76.3,76.3,177.7,118.3,285.5,118.3s209.3-42,285.5-118.3c42.1-42.1,73.7-91.8,93.6-146.1l102.5-29H-401
			C-385.4-1635.3-376.6-1672.8-376.6-1712.2z M-987.2-1851.6c55.3-138,190.3-235.4,348-235.4c157.7,0,292.7,97.4,348,235.4h-125.7
			c-46.5-73.9-128.8-123.1-222.3-123.1c-93.6,0-175.8,49.2-222.3,123.1H-987.2z M-405.6-1712.2c0,40-10,77.6-27.7,110.5
			c-5.4,10.1-11.6,19.8-18.4,29c-42.6,57.2-110.7,94.2-187.4,94.2c-76.7,0-144.8-37-187.4-94.2c-6.8-9.2-13-18.8-18.4-29
			c-17.7-32.9-27.7-70.5-27.7-110.5c0-40,10-77.6,27.7-110.5c5.4-10.1,11.6-19.8,18.4-29c42.6-57.2,110.7-94.2,187.4-94.2
			c76.8,0,144.8,37,187.4,94.2c6.8,9.2,13,18.8,18.4,29C-415.6-1789.8-405.6-1752.2-405.6-1712.2z M-291.2-1572.8
			c-55.3,138-190.3,235.4-348,235.4c-157.7,0-292.7-97.4-348-235.4h125.7c46.5,73.9,128.8,123.1,222.3,123.1
			c93.6,0,175.8-49.2,222.3-123.1H-291.2z"/>
		<path id="SVGID_x5F_7_x5F_" class="st2" d="M-319.5-1566.7h28.6c-18.3,49.1-47.3,94-86,132.1c-70.1,69-163.2,106.9-262.3,106.9
			s-192.2-38-262.3-106.9c-38.7-38.1-67.7-83-86-132.1h28.6c50.8,124.7,174.8,212.8,319.7,212.8S-370.3-1442-319.5-1566.7z"/>
		<text>		<textPath  xlink:href="#SVGID_x5F_7_x5F_" startOffset="2602.6721%">
<tspan  class="st1" style="font-family:'PatuaOne-Regular'; font-size:95.6102px; letter-spacing:238.2;">PATINETE</tspan>		</textPath>
</text>
	</g>
	<path id="SVGID_x5F_8_x5F_" class="st2" d="M-353.7-1712.2c0,157.7-127.8,285.5-285.5,285.5s-285.5-127.8-285.5-285.5
		s127.8-285.5,285.5-285.5S-353.7-1869.9-353.7-1712.2z"/>
	<text>	<textPath  xlink:href="#SVGID_x5F_8_x5F_" startOffset="3677.1392%">
<tspan  class="st1" style="font-family:'PatuaOne-Regular'; font-size:96.6126px; letter-spacing:80;">TALLER DEL</tspan>	</textPath>
</text>
	<g id="TinLdq_10_">
		<g>
			<path class="st1" d="M-265.7-1704.6c9.9,1.7,19,3.3,29.7,5.1c-21.3-29.8-41.8-58.4-62.3-87.1c-0.4,0.2-0.9,0.4-1.3,0.5
				c5.2,18.3,10.5,36.7,16,56.1c-11.1-1.8-21.5-3.5-33.6-5.5c25.2,33.3,49.4,65.3,73.6,97.3c0.4-0.2,0.7-0.3,1.1-0.5
				C-250.2-1660.4-257.8-1682.1-265.7-1704.6z"/>
		</g>
	</g>
	<g id="TinLdq_9_">
		<g>
			<path class="st1" d="M-1012.7-1704.6c-9.9,1.7-19,3.3-29.7,5.1c21.3-29.8,41.8-58.4,62.3-87.1c0.4,0.2,0.9,0.4,1.3,0.5
				c-5.2,18.3-10.5,36.7-16,56.1c11.1-1.8,21.5-3.5,33.6-5.5c-25.2,33.3-49.4,65.3-73.6,97.3c-0.4-0.2-0.7-0.3-1.1-0.5
				C-1028.2-1660.4-1020.6-1682.1-1012.7-1704.6z"/>
		</g>
	</g>
	<g id="_x33_cX7Jq.tif_5_">
		<g>
			<path class="st1" d="M-610.4-1684.7c-0.3,0.2-0.6,0.4-1.1,0.6c-0.7-2.6-1.5-5.1-2.2-7.6c-0.1-0.3,0.4-0.9,0.7-1.2
				c1.3-0.9,2.6-1.7,4.1-2.7c-12.6-62.5-25.2-125.1-37.8-187.8c-0.9,0-1.6,0-2.5,0c-0.4-2.5-0.8-4.9-1.3-7.7
				c1.9-0.3,3.8-0.6,5.7-0.7c0.3,0,1,0.7,1.1,1.2c1.8,8.7,3.6,17.5,5.4,26.2c3.4,16.7,6.9,33.3,10.3,50c0.9,4.4,1.8,8.8,3.1,13.1
				c-5.3-30.3-10.6-60.6-15.9-91.1c3-0.4,5.8-0.8,8.8-1.2c-0.6-3.4-1.2-6.6-1.9-10.2c-2.3,0.2-4.6,0.2-6.9,0.5
				c-2.1,0.3-4.2,0.9-6.3,1.4c-1,0.3-1.3,1-1.3,2.1c-0.1,1.8-0.5,3.5-1,5.2c-0.8,2.1-2.1,2.6-4.2,1.9c-0.7-0.2-1.5-0.4-2.3-0.4
				c-3.4,0.1-6.8,0.2-10.2,0.3c-0.8,0-1.8-0.2-2.5-0.6c-2-1.1-4-1-6.1-0.9c-9.6,0.4-19.3,0.7-28.9,1.1c-0.8,0-1.7,0.2-2.5,0.6
				c-1.3,0.6-2.3,0.3-3.2-0.7c-2.4-2.7-2.6-9.3-0.2-12.5c-0.3,4-0.7,8,2.9,10.8c2.5-3.2,1.1-9.6-2.5-12.7c3.6-2,7,1.1,8.2,7.6
				c9.7-0.6,19.4-1.2,29.2-1.8c0.1-1,0.2-1.9,0.4-3.1c-1,0-1.8,0-2.5,0c-8.2,0-16.4-0.1-24.6-0.1c-1.6,0-2.7-0.6-3.7-2.2
				c0.9,0,1.5,0,2.1,0c9.1,0,18.1,0,27.2-0.1c2.1,0,4.1-0.5,6.2-0.8c0-0.2,0-0.4-0.1-0.6c-2.1,0.1-4.1,0.2-6.2,0.3
				c1.5-1.6,2.7-3.4,5.4-3.2c3.4,0.2,6.9,0.1,10.3,0c1.7-0.1,2.8,0.3,2.7,2c1.5,0.7,2.7,1.2,4.3,1.9c4-2.3,8.9-2.9,13.9-3.1
				c0.8,0,1.6-0.7,2.4-1.1c0.9-0.4,1.7-1.2,2.6-1.2c4.6-0.1,9.1-0.1,13.7-0.1c0.2,0.6,0.5,1.1,0.7,1.6c0.1-0.1,0.2-0.3,0.3-0.4
				c1.1,0.5,2.1,1,3.2,1.5c1.2,0.5,2.5,1.3,3.7,1.3c7.1-0.1,14.3-0.3,21.4-0.5c1.2,0,2.5,0.2,3.7,0.1c0.8,0,1.8-0.1,2.4-0.6
				c3.9-2.5,6.3-0.6,7.7,2.1c1.9,3.5,2.1,7.2,0.4,10.9c-1.3,2.8-3.3,3.5-6.1,2.3c-0.6-0.2-1.3-0.3-1.9-0.3
				c-10.6,0.2-21.1,0.4-31.7,0.6c-3.6,0.1-7.1-0.1-10.7-0.1c-1.4,0-2-0.7-2.2-2c-0.6-3.7-1.2-7.4-2-11.1c-0.2-0.9-0.9-1.8-1.3-2.7
				c-0.3,0.1-0.5,0.2-0.8,0.3c1.2,8.1,2.3,16.2,3.5,24.5c-1.3,0.2-2.4,0.4-3.5,0.5c12.4,62.3,24.8,124.4,37.2,186.6
				c0.1,0,0.2,0.1,0.3,0.1c4.7,0.3,4.7,0.3,5.4,4.9c0.2,1.4,0.8,2.6-0.2,4.3c-0.7,1.2,0.5,3.4,0.8,5.1c1.8,9.5,3.7,18.9,5.5,28.4
				c1.6,8.1,3.1,16.3,4.8,24.4c1.6,7.3,3.4,14.5,5.3,22.1c-4.2-0.7-6.7,1.7-8.5,5.1c0.4,0.3,0.7,0.6,1.1,0.7
				c5.9,1.9,11.7,4,17.7,5.6c2.3,0.6,4.8,0.3,7.2,0.1c0.9,0,1.7-0.8,2.8-1.3c-4.1-5.4-9.9-7.1-15.5-9.2c5.8,1.2,11.6,2.1,16.4,6
				c2.4,2,2.7,3.9,0.7,6.3c-1.5,1.7-1.2,2.7,0.2,4.1c1.6,1.8,3,3.8,4.5,5.8c-2.6,2.9-5.9,4.1-9.5,4.7c4,1.5,7.9,1,12.1-0.9
				c1.5,4.6,3,8.9,4.4,13.3c0.1,0.5-0.3,1.4-0.8,1.8c-2.7,2.5-6.1,3.6-10.1,4.1c4.2,1.6,7.9,1.3,12.1,0c0.1,3-0.1,5.7,0.3,8.4
				c0.6,4.2-1.8,6.2-5.3,7.4c-2.3,0.8-4.8,1.1-7.2,1.7c3.4,2,7.2,1.7,11.7,1.3c-1.4,3.8-2.1,7.6-4.2,10.5c-1.4,1.9-4.6,2.4-7.1,3.5
				c-0.6,0.2-1.3,0.2-2,0.7c1,0.2,2,0.5,3,0.7c1.1,0.2,2.2,0.2,3.4,0.6c-4.4,3.8-7.1,10.2-14.9,8.9c0.1,0.2,0.1,0.4,0.2,0.6
				c0.8,0.4,1.6,0.9,2.6,1.5c-1,0.7-1.6,1.2-2.3,1.6c-9.1,4.2-18,4.7-27.1-0.5c-4.9-2.8-9.4-6-13.2-10.2
				c-11.3-15.1-15.6-25.3-13.4-46.9c-0.6,1.6-1.1,3-1.7,4.4c-0.2,0-0.3,0-0.5-0.1c-0.1-0.4-0.3-0.8-0.3-1.2
				c-0.1-2.2-0.4-4.5-0.2-6.7c0.3-4.9,1.8-9.4,5.1-13.1c2.2-2.5,4.6-4.9,7.2-7c4.9-3.9,6.6-8.8,5.6-14.8c-1.9-11.4-3.9-22.7-6-34.1
				c-1.2-6.3-2.6-12.6-3.9-19c-0.4-2.1-0.7-4.3-1.3-6.4c-0.2-0.6-1-1.1-1.6-1.6c-0.1-0.1-0.2-0.1-0.4-0.1c-3.9-1.2-4.7-3.5-2.1-6.8
				c0.4-0.6,1.2-1,1.4-1.6c0.4-1,0.5-2.1,0.7-3.1C-609.9-1684.6-610.1-1684.6-610.4-1684.7z M-600.7-1584.8
				c-3.7,2.9-6.3,11.1-6.7,16.1c-0.8,9.1,0.3,18,4.6,26.4c3.8,7.6,8.9,13.9,17,17.2c6.7,2.7,13.3,2,19.1-2.4
				c5.7-4.3,8.8-10.5,9.9-17.3c1.6-10.1,0.8-20-3.8-29.4c-3.7-7.5-8.7-13.7-16.5-17.2c-1.6-0.7-3.4-1.1-5.5-1.8
				c0.4,2.5,0.6,4.4,1,6.2c0.1,0.6,0.7,1.3,1.3,1.5c9.4,4.1,14.2,11.8,16.3,21.3c1,4.3,0.7,8.9,0.9,13.4c0.2,3.5-0.7,6.7-2.2,9.8
				c-3,6.5-7.4,11.1-15.3,11.2c-2.7,0-5.4-0.8-6.1-2.5c0.5,0,0.9-0.1,1.4-0.1c5.2,0,9-2.6,11.4-7c5-8.9,4.7-18.2,0.9-27.4
				c-1.5-3.6-3.5-6.9-7-9.5c0.4,3.6,0.8,6.7,1.2,9.9c0.4,3.7,0.9,7.5,1.3,11.2c0.2,1.8-1.2,3.4-2.8,3.5c-1.9,0.1-2.3-1.2-2.7-2.7
				c-0.5-1.7-1.3-3.3-2.2-4.8c-0.4-0.6-1.7-1-2.4-0.9c-0.7,0.2-1.4,1.2-1.6,1.9c-0.3,0.8-0.2,1.8-0.1,2.7c0.1,0.9,0.2,1.8,0.4,2.7
				c-0.3,0.1-0.5,0.1-0.8,0.2C-596.6-1562-597.7-1573.7-600.7-1584.8z M-611.3-1907.6c0.3,4.4,0.3,4.4,3.8,4.3
				c9.8-0.3,19.5-0.6,29.3-0.8c1.6,0,1.9-0.8,1.7-2.1c-0.3-1.4-1.1-1.9-2.6-1.9c-4.3,0.2-8.6,0.4-12.9,0.4
				C-598.4-1907.6-604.8-1907.6-611.3-1907.6z"/>
			<path class="st1" d="M-724.9-1594.8c-5.9,1.3-9,5.8-12,10.6c0.6-5.4,4.8-13,11.2-15c5.3-1.6,11.6,0.4,15.3,5.7
				c2.6,3.6,4.7,7.6,7.2,11.4c2.4,3.6,5.3,6.6,9.7,7.6c1,0.2,2,0.2,3.6,0.4c-2.1-1.4-4.2-2.2-5.3-3.6c-2.3-2.9-4.3-6.2-6.1-9.4
				c-2.3-4.1-4.3-8.3-7.8-11.6c-7.7-7.3-19.8-5.6-25.2,3.5c-3,5.1-4.4,10.7-5.2,16.5c-0.1,0.7-0.2,1.4-0.3,2.1c-0.2,0-0.7-5-0.5-7.4
				c0.5-5.8,2-11.2,5.6-15.8c5.3-6.9,13.6-9.2,21.8-6.3c6.3,2.2,10.5,6.7,13.7,12.3c2,3.5,3.4,7.4,5.3,11c0.9,1.7,2,3.2,3.1,4.8
				c1,1.5,2.4,1.9,4.3,1.9c18.3-0.3,36.6-0.6,54.9-0.7c2.2,0,3.4-0.6,4.4-2.8c5.3-12.1,10.9-24,16.3-36c2.4-5.3,4.8-10.7,7.2-16
				c0.1-0.3,0.4-0.6,1-0.9c1.9,9.4,3,18.9,4.4,28.4c-9.6,4.6-21.2,21.7-20.6,31.8c0.1,1.1-0.4,1.5-1.5,1.5c-9.4-0.3-18.7-0.6-28.1-1
				c-4.3-0.2-8.7-0.5-13-0.7c-10.9-0.3-21.9-0.5-32.8-1c-4.4-0.2-7.8,1.7-11.7,4.1c2.8,0.1,5.1,0.3,7.5,0.4c12.7,0.4,25.4,0.6,38,1
				c6.8,0.2,13.7,0.5,20.5,0.8c6.5,0.3,13,0.5,19.6,0.7c0.5,0,0.9,0.1,1.2,0.1c0.9,3.5,1.8,6.7,2.5,10.1c0.2,0.7-0.1,1.8-0.6,2.3
				c-1.9,1.8-3.8,3.4-5.9,4.9c-0.5,0.4-1.5,0.4-2.3,0.4c-8.7-0.3-17.4-0.6-26.1-1c-4.7-0.2-9.4-0.2-14-0.9
				c-9.2-1.3-18.4-1.3-27.6-1.6c-0.5,0-1,0-1.6,0c-0.3,1.4-0.6,2.6-0.8,3.9c-0.3,2.6-0.9,3.2-3.5,3.7c-1.3,0.3-2.6,0.3-4,0.8
				c1.3,0.2,2.6,0.6,3.9,0.7c2.1,0.2,2.5,0.6,1.8,2.7c-1.5,4.5-3.2,5.7-8,5.6c-0.3,0-0.5,0-0.8,0.4c1.3,0.3,2.7,0.5,3.9,0.9
				c0.4,0.1,0.9,1.1,0.8,1.2c-1.7,2-3.1,4.5-6,5.1c-0.8,0.2-1.7,0.1-2.6,0.1c0.6,0.3,1.1,0.6,1.9,1c-2.9,2-5.8,2.4-8.8,1.3
				c-7.1-2.5-11.5-7.8-15-14.2c-3-5.6-5.4-14.3-5.9-20.4c-0.6-6.7-0.3-13.3,1.7-19.8C-734.3-1585.1-731.3-1591-724.9-1594.8z
				 M-717.4-1537.4c-1.5,1.2-3.1,1.1-4.4,0c-1.1-0.9-2.2-2-2.9-3.2c-3.1-5.2-4.1-11.1-4.8-17c-0.2-1.6-0.8-3.2-0.8-4.8
				c0-1.9,0.5-3.9,0.8-5.8c0.6-4.3,1.2-8.5,3.5-12.3c1.1-1.8,2.5-3.3,4.9-3c1.8,0.2,3.8,2.2,4.3,3.8c-8.9,2-8.9,9.3-6.9,12.7
				c2.3,0.6,2.3-1.1,3.1-2.2c0.5-0.8,1.4-1.7,2.2-1.9c0.7-0.1,1.9,0.8,2.2,1.5c1,2.2,2.5,1.7,4.2,1.2c-0.4-4.4-2.9-11.2-5.3-14.4
				c-0.8-1.1-1.7-2.2-2.8-3c-2.3-1.9-4.9-1.8-6.6,0.6c-1.5,2.2-2.8,4.8-3.5,7.4c-2.4,9.9-1.5,19.7,1,29.4c1.1,4.4,2.6,8.6,5.7,12.1
				c3.7,4.1,7.1,3.7,9.7-1.1c2.6-4.7,3.3-9.9,3.1-15.2c0-1.5-0.7-3.2-2.4-4.1c-0.5,2.8-1,5.4-1.5,8c-0.3,1.6-1,3.3-2.8,3.4
				c-1.9,0.1-2.7-1.7-3.2-3.3c-0.7-2.5-1.2-5.1-1.8-7.7c-0.1-0.5-0.7-0.8-1.1-1.2c-0.2,0.2-0.4,0.3-0.5,0.5
				C-723.1-1550-722.6-1543-717.4-1537.4z"/>
		</g>
	</g>
	<rect x="-2242" y="-1092" class="st1" width="1000" height="1000"/>
	<rect y="-1092" class="st1" width="1000" height="1000"/>
	<rect x="-1139" y="-1092" class="st1" width="1000" height="1000"/>
	<circle class="st2" cx="501.6" cy="-589.4" r="242.4"/>
	<g>
		<path class="st3" d="M762.4-588.2c0-39.5-8.8-76.9-24.5-110.5h243.5l-102.5-29c-19.9-54.3-51.5-104-93.6-146.1
			C709.1-950,607.7-992,499.8-992s-209.3,42-285.5,118.3c-42.1,42.1-73.7,91.9-93.6,146.1l-102.5,29h243.6
			c-15.7,33.6-24.4,71-24.4,110.5c0,39.4,8.8,76.9,24.4,110.5H18.2l102.5,29c19.9,54.3,51.6,104,93.6,146.1
			c76.3,76.3,177.7,118.3,285.5,118.3s209.3-42,285.5-118.3c42.1-42.1,73.7-91.8,93.6-146.1l102.5-29H738
			C753.6-511.3,762.4-548.8,762.4-588.2z M151.8-727.6c55.3-138,190.3-235.4,348-235.4c157.7,0,292.7,97.4,348,235.4H722.2
			c-46.5-73.9-128.8-123.1-222.3-123.1c-93.6,0-175.8,49.2-222.3,123.1H151.8z M733.4-588.2c0,40-10,77.6-27.7,110.5
			c-5.4,10.1-11.6,19.8-18.4,29c-42.6,57.2-110.7,94.2-187.4,94.2c-76.7,0-144.8-37-187.4-94.2c-6.8-9.2-13-18.8-18.4-29
			c-17.7-32.9-27.7-70.5-27.7-110.5c0-40,10-77.6,27.7-110.5c5.4-10.1,11.6-19.8,18.4-29c42.6-57.2,110.7-94.2,187.4-94.2
			c76.8,0,144.8,37,187.4,94.2c6.8,9.2,13,18.8,18.4,29C723.4-665.8,733.4-628.2,733.4-588.2z M847.8-448.8
			c-55.3,138-190.3,235.4-348,235.4c-157.7,0-292.7-97.4-348-235.4h125.7c46.5,73.9,128.8,123.1,222.3,123.1
			c93.6,0,175.8-49.2,222.3-123.1H847.8z"/>
		<path id="SVGID_x5F_9_x5F_" class="st2" d="M819.5-442.7h28.6c-18.3,49.1-47.3,94-86,132.1c-70.1,69-163.2,106.9-262.3,106.9
			s-192.2-38-262.3-106.9c-38.7-38.1-67.7-83-86-132.1h28.6C231-318,354.9-229.9,499.8-229.9S768.7-318,819.5-442.7z"/>
		<text>		<textPath  xlink:href="#SVGID_x5F_9_x5F_" startOffset="2602.6721%">
<tspan  class="st3" style="font-family:'PatuaOne-Regular'; font-size:95.6102px; letter-spacing:238.2;">PATINETE</tspan>		</textPath>
</text>
	</g>
	<path id="SVGID_x5F_10_x5F_" class="st2" d="M785.3-588.2c0,157.7-127.8,285.5-285.5,285.5S214.3-430.5,214.3-588.2
		s127.8-285.5,285.5-285.5S785.3-745.9,785.3-588.2z"/>
	<text>	<textPath  xlink:href="#SVGID_x5F_10_x5F_" startOffset="3677.1392%">
<tspan  class="st3" style="font-family:'PatuaOne-Regular'; font-size:96.6126px; letter-spacing:80;">TALLER DEL</tspan>	</textPath>
</text>
	<g id="TinLdq_18_">
		<g>
			<path class="st3" d="M873.3-580.6c9.9,1.7,19,3.3,29.7,5.1c-21.3-29.8-41.8-58.4-62.3-87.1c-0.4,0.2-0.9,0.4-1.3,0.5
				c5.2,18.3,10.5,36.7,16,56.1c-11.1-1.8-21.5-3.5-33.6-5.5c25.2,33.3,49.4,65.3,73.6,97.3c0.4-0.2,0.7-0.3,1.1-0.5
				C888.8-536.4,881.2-558.1,873.3-580.6z"/>
		</g>
	</g>
	<g id="TinLdq_17_">
		<g>
			<path class="st3" d="M126.3-580.6c-9.9,1.7-19,3.3-29.7,5.1c21.3-29.8,41.8-58.4,62.3-87.1c0.4,0.2,0.9,0.4,1.3,0.5
				c-5.2,18.3-10.5,36.7-16,56.1c11.1-1.8,21.5-3.5,33.6-5.5c-25.2,33.3-49.4,65.3-73.6,97.3c-0.4-0.2-0.7-0.3-1.1-0.5
				C110.8-536.4,118.4-558.1,126.3-580.6z"/>
		</g>
	</g>
	<g id="_x33_cX7Jq.tif_9_">
		<g>
			<path class="st3" d="M528.6-560.7c-0.3,0.2-0.6,0.4-1.1,0.6c-0.7-2.6-1.5-5.1-2.2-7.6c-0.1-0.3,0.4-0.9,0.7-1.2
				c1.3-0.9,2.6-1.7,4.1-2.7c-12.6-62.5-25.2-125.1-37.8-187.8c-0.9,0-1.6,0-2.5,0c-0.4-2.5-0.8-4.9-1.3-7.7
				c1.9-0.3,3.8-0.6,5.7-0.7c0.3,0,1,0.7,1.1,1.2c1.8,8.7,3.6,17.5,5.4,26.2c3.4,16.7,6.9,33.3,10.3,50c0.9,4.4,1.8,8.8,3.1,13.1
				c-5.3-30.3-10.6-60.6-15.9-91.1c3-0.4,5.8-0.8,8.8-1.2c-0.6-3.4-1.2-6.6-1.9-10.2c-2.3,0.2-4.6,0.2-6.9,0.5
				c-2.1,0.3-4.2,0.9-6.3,1.4c-1,0.3-1.3,1-1.3,2.1c-0.1,1.8-0.5,3.5-1.1,5.2c-0.8,2.1-2.1,2.6-4.2,1.9c-0.7-0.2-1.5-0.4-2.3-0.4
				c-3.4,0.1-6.8,0.2-10.2,0.3c-0.8,0-1.8-0.2-2.5-0.6c-2-1.1-4-1-6.1-0.9c-9.6,0.4-19.3,0.7-28.9,1.1c-0.8,0-1.7,0.2-2.5,0.6
				c-1.3,0.6-2.3,0.3-3.2-0.7c-2.4-2.7-2.6-9.3-0.2-12.5c-0.3,4-0.7,8,2.9,10.8c2.5-3.2,1.1-9.6-2.5-12.7c3.6-2,7,1.1,8.2,7.6
				c9.7-0.6,19.4-1.2,29.2-1.8c0.1-1,0.2-1.9,0.4-3.1c-1,0-1.8,0-2.5,0c-8.2,0-16.4-0.1-24.6-0.1c-1.6,0-2.7-0.6-3.7-2.2
				c0.9,0,1.5,0,2.1,0c9.1,0,18.1,0,27.2-0.1c2.1,0,4.1-0.5,6.2-0.8c0-0.2,0-0.4-0.1-0.6c-2.1,0.1-4.1,0.2-6.2,0.3
				c1.5-1.6,2.7-3.4,5.4-3.2c3.4,0.2,6.9,0.1,10.3,0c1.7-0.1,2.8,0.3,2.7,2c1.5,0.7,2.7,1.2,4.3,1.9c4-2.3,8.9-2.9,13.9-3.1
				c0.8,0,1.6-0.7,2.4-1.1c0.9-0.4,1.7-1.2,2.6-1.2c4.6-0.1,9.1-0.1,13.7-0.1c0.2,0.6,0.5,1.1,0.7,1.6c0.1-0.1,0.2-0.3,0.3-0.4
				c1.1,0.5,2.1,1,3.2,1.5c1.2,0.5,2.5,1.3,3.7,1.3c7.1-0.1,14.3-0.3,21.4-0.5c1.2,0,2.5,0.2,3.7,0.1c0.8,0,1.8-0.1,2.4-0.6
				c3.9-2.5,6.3-0.6,7.7,2.1c1.9,3.5,2.1,7.2,0.4,10.9c-1.3,2.8-3.3,3.5-6.1,2.3c-0.6-0.2-1.3-0.3-1.9-0.3
				c-10.6,0.2-21.1,0.4-31.7,0.6c-3.6,0.1-7.1-0.1-10.7-0.1c-1.4,0-2-0.7-2.2-2c-0.6-3.7-1.2-7.4-2-11.1c-0.2-0.9-0.9-1.8-1.3-2.7
				c-0.3,0.1-0.5,0.2-0.8,0.3c1.2,8.1,2.3,16.2,3.5,24.5c-1.3,0.2-2.4,0.4-3.5,0.5c12.4,62.3,24.8,124.4,37.2,186.6
				c0.1,0,0.2,0.1,0.3,0.1c4.7,0.3,4.7,0.3,5.4,4.9c0.2,1.4,0.8,2.6-0.2,4.3c-0.7,1.2,0.5,3.4,0.8,5.1c1.8,9.5,3.7,18.9,5.5,28.4
				c1.6,8.1,3.1,16.3,4.8,24.4c1.6,7.3,3.4,14.5,5.3,22.1c-4.2-0.7-6.7,1.7-8.5,5.1c0.4,0.3,0.7,0.6,1.1,0.7
				c5.9,1.9,11.7,4,17.7,5.6c2.3,0.6,4.8,0.3,7.2,0.1c0.9,0,1.7-0.8,2.8-1.3c-4.1-5.4-9.9-7.1-15.5-9.2c5.8,1.2,11.6,2.1,16.4,6
				c2.4,2,2.7,3.9,0.7,6.3c-1.5,1.7-1.2,2.7,0.2,4.1c1.6,1.8,3,3.8,4.5,5.8c-2.6,2.9-5.9,4.1-9.5,4.7c4,1.5,7.9,1,12.1-0.9
				c1.5,4.6,3,8.9,4.4,13.3c0.1,0.5-0.3,1.4-0.8,1.8c-2.7,2.5-6.1,3.6-10.1,4.1c4.2,1.6,7.9,1.3,12.1,0c0.1,3-0.1,5.7,0.3,8.4
				c0.6,4.2-1.8,6.2-5.3,7.4c-2.3,0.8-4.8,1.1-7.2,1.7c3.4,2,7.2,1.7,11.7,1.3c-1.4,3.8-2.1,7.6-4.2,10.5c-1.4,1.9-4.6,2.4-7.1,3.5
				c-0.6,0.2-1.3,0.2-2,0.7c1,0.2,2,0.5,3,0.7c1.1,0.2,2.2,0.2,3.4,0.6c-4.4,3.8-7.1,10.2-14.9,8.9c0.1,0.2,0.1,0.4,0.2,0.6
				c0.8,0.4,1.6,0.9,2.6,1.5c-1,0.7-1.6,1.2-2.3,1.6c-9.1,4.2-18,4.7-27.1-0.5c-4.9-2.8-9.4-6-13.2-10.2
				c-11.3-15.1-15.6-25.3-13.4-46.9c-0.6,1.6-1.1,3-1.7,4.4c-0.2,0-0.3,0-0.5-0.1c-0.1-0.4-0.3-0.8-0.3-1.2
				c-0.1-2.2-0.4-4.5-0.2-6.7c0.3-4.9,1.8-9.4,5.1-13.1c2.2-2.5,4.6-4.9,7.2-7c4.9-3.9,6.6-8.8,5.6-14.8c-1.9-11.4-3.9-22.7-6-34.1
				c-1.2-6.3-2.6-12.6-3.9-19c-0.4-2.1-0.7-4.3-1.3-6.4c-0.2-0.6-1-1.1-1.6-1.6c-0.1-0.1-0.2-0.1-0.4-0.1c-3.9-1.2-4.7-3.5-2.1-6.8
				c0.4-0.6,1.2-1,1.4-1.6c0.4-1,0.5-2.1,0.7-3.1C529.1-560.6,528.9-560.6,528.6-560.7z M538.3-460.8c-3.7,2.9-6.3,11.1-6.7,16.1
				c-0.8,9.1,0.3,18,4.6,26.4c3.8,7.6,8.9,13.9,17,17.2c6.7,2.7,13.3,2,19.1-2.4c5.7-4.3,8.8-10.5,9.9-17.3
				c1.6-10.1,0.8-20-3.8-29.4c-3.7-7.5-8.7-13.7-16.5-17.2c-1.6-0.7-3.4-1.1-5.5-1.8c0.4,2.5,0.6,4.4,1,6.2c0.1,0.6,0.7,1.3,1.3,1.5
				c9.4,4.1,14.2,11.8,16.3,21.3c1,4.3,0.7,8.9,0.9,13.4c0.2,3.5-0.7,6.7-2.2,9.8c-3,6.5-7.4,11.1-15.3,11.2c-2.7,0-5.4-0.8-6.1-2.5
				c0.5,0,0.9-0.1,1.4-0.1c5.2,0,9-2.6,11.4-7c5-8.9,4.7-18.2,0.9-27.4c-1.5-3.6-3.5-6.9-7-9.5c0.4,3.6,0.8,6.7,1.2,9.9
				c0.4,3.7,0.9,7.5,1.3,11.2c0.2,1.8-1.2,3.4-2.8,3.5c-1.9,0.1-2.3-1.2-2.7-2.7c-0.5-1.7-1.3-3.3-2.2-4.8c-0.4-0.6-1.7-1-2.4-0.9
				c-0.7,0.2-1.4,1.2-1.6,1.9c-0.3,0.8-0.2,1.8-0.1,2.7c0.1,0.9,0.2,1.8,0.4,2.7c-0.3,0.1-0.5,0.1-0.8,0.2
				C542.4-438,541.3-449.7,538.3-460.8z M527.7-783.6c0.3,4.4,0.3,4.4,3.8,4.3c9.8-0.3,19.5-0.6,29.3-0.8c1.6,0,1.9-0.8,1.7-2.1
				c-0.3-1.4-1.1-1.9-2.6-1.9c-4.3,0.2-8.6,0.4-12.9,0.4C540.6-783.6,534.2-783.6,527.7-783.6z"/>
			<path class="st3" d="M414.1-470.8c-5.9,1.3-9,5.8-12,10.6c0.6-5.4,4.8-13,11.2-15c5.3-1.6,11.6,0.4,15.3,5.7
				c2.6,3.6,4.7,7.6,7.2,11.4c2.4,3.6,5.3,6.6,9.7,7.6c1,0.2,2,0.2,3.6,0.4c-2.1-1.4-4.2-2.2-5.3-3.6c-2.3-2.9-4.3-6.2-6.1-9.4
				c-2.3-4.1-4.3-8.3-7.8-11.6c-7.7-7.3-19.8-5.6-25.2,3.5c-3,5.1-4.4,10.7-5.2,16.5c-0.1,0.7-0.2,1.4-0.3,2.1c-0.2,0-0.7-5-0.5-7.4
				c0.5-5.8,2-11.2,5.6-15.8c5.3-6.9,13.6-9.2,21.8-6.3c6.3,2.2,10.5,6.7,13.7,12.3c2,3.5,3.4,7.4,5.3,11c0.9,1.7,2,3.2,3.1,4.8
				c1,1.5,2.4,1.9,4.3,1.9c18.3-0.3,36.6-0.6,54.9-0.7c2.2,0,3.4-0.6,4.4-2.8c5.3-12.1,10.9-24,16.3-36c2.4-5.3,4.8-10.7,7.2-16
				c0.1-0.3,0.4-0.6,1-0.9c1.9,9.4,3,18.9,4.4,28.4c-9.6,4.6-21.2,21.7-20.6,31.8c0.1,1.1-0.4,1.5-1.5,1.5c-9.4-0.3-18.7-0.6-28.1-1
				c-4.3-0.2-8.7-0.5-13-0.7c-10.9-0.3-21.9-0.5-32.8-1c-4.4-0.2-7.8,1.7-11.7,4.1c2.8,0.1,5.1,0.3,7.5,0.4c12.7,0.4,25.4,0.6,38,1
				c6.8,0.2,13.7,0.5,20.5,0.8c6.5,0.3,13,0.5,19.6,0.7c0.5,0,0.9,0.1,1.2,0.1c0.9,3.5,1.8,6.7,2.5,10.1c0.2,0.7-0.1,1.8-0.6,2.3
				c-1.9,1.8-3.8,3.4-5.9,4.9c-0.5,0.4-1.5,0.4-2.3,0.4c-8.7-0.3-17.4-0.6-26.1-1c-4.7-0.2-9.4-0.2-14-0.9
				c-9.2-1.3-18.4-1.3-27.6-1.6c-0.5,0-1,0-1.6,0c-0.3,1.4-0.6,2.6-0.8,3.9c-0.3,2.6-0.9,3.2-3.5,3.7c-1.3,0.3-2.6,0.3-4,0.8
				c1.3,0.2,2.6,0.6,3.9,0.7c2.1,0.2,2.5,0.6,1.8,2.7c-1.5,4.5-3.2,5.7-8,5.6c-0.3,0-0.5,0-0.8,0.4c1.3,0.3,2.7,0.5,3.9,0.9
				c0.4,0.1,0.9,1.1,0.8,1.2c-1.7,2-3.1,4.5-6,5.1c-0.8,0.2-1.7,0.1-2.6,0.1c0.6,0.3,1.1,0.6,1.9,1c-2.9,2-5.8,2.4-8.8,1.3
				c-7.1-2.5-11.5-7.8-15-14.2c-3-5.6-5.4-14.3-5.9-20.4c-0.6-6.7-0.3-13.3,1.7-19.8C404.7-461.1,407.7-467,414.1-470.8z
				 M421.6-413.4c-1.5,1.2-3.1,1.1-4.4,0c-1.1-0.9-2.2-2-2.9-3.2c-3.1-5.2-4.1-11.1-4.8-17c-0.2-1.6-0.8-3.2-0.8-4.8
				c0-1.9,0.5-3.9,0.8-5.8c0.6-4.3,1.2-8.5,3.5-12.3c1.1-1.8,2.5-3.3,4.9-3c1.8,0.2,3.8,2.2,4.3,3.8c-8.9,2-8.9,9.3-6.9,12.7
				c2.3,0.6,2.3-1.1,3.1-2.2c0.5-0.8,1.4-1.7,2.2-1.9c0.7-0.1,1.9,0.8,2.2,1.5c1,2.2,2.5,1.7,4.2,1.2c-0.4-4.4-2.9-11.2-5.3-14.4
				c-0.8-1.1-1.7-2.2-2.8-3c-2.3-1.9-4.9-1.8-6.6,0.6c-1.5,2.2-2.8,4.8-3.5,7.4c-2.4,9.9-1.5,19.7,1,29.4c1.1,4.4,2.6,8.6,5.7,12.1
				c3.7,4.1,7.1,3.7,9.7-1.1c2.6-4.7,3.3-9.9,3.1-15.2c0-1.5-0.7-3.2-2.4-4.1c-0.5,2.8-1,5.4-1.5,8c-0.3,1.6-1,3.3-2.8,3.4
				c-1.9,0.1-2.7-1.7-3.2-3.3c-0.7-2.5-1.2-5.1-1.8-7.7c-0.1-0.5-0.7-0.8-1.1-1.2c-0.2,0.2-0.4,0.3-0.5,0.5
				C415.9-426,416.4-419,421.6-413.4z"/>
		</g>
	</g>
	<circle class="st2" cx="-637.4" cy="-589.4" r="242.4"/>
	<g>
		<path class="st0" d="M-376.6-588.2c0-39.5-8.8-76.9-24.5-110.5h243.5l-102.5-29c-19.9-54.3-51.5-104-93.6-146.1
			C-429.9-950-531.3-992-639.2-992s-209.3,42-285.5,118.3c-42.1,42.1-73.7,91.9-93.6,146.1l-102.5,29h243.6
			c-15.7,33.6-24.4,71-24.4,110.5c0,39.4,8.8,76.9,24.4,110.5h-243.6l102.5,29c19.9,54.3,51.6,104,93.6,146.1
			c76.3,76.3,177.7,118.3,285.5,118.3s209.3-42,285.5-118.3c42.1-42.1,73.7-91.8,93.6-146.1l102.5-29H-401
			C-385.4-511.3-376.6-548.8-376.6-588.2z M-987.2-727.6c55.3-138,190.3-235.4,348-235.4c157.7,0,292.7,97.4,348,235.4h-125.7
			c-46.5-73.9-128.8-123.1-222.3-123.1c-93.6,0-175.8,49.2-222.3,123.1H-987.2z M-405.6-588.2c0,40-10,77.6-27.7,110.5
			c-5.4,10.1-11.6,19.8-18.4,29c-42.6,57.2-110.7,94.2-187.4,94.2c-76.7,0-144.8-37-187.4-94.2c-6.8-9.2-13-18.8-18.4-29
			c-17.7-32.9-27.7-70.5-27.7-110.5c0-40,10-77.6,27.7-110.5c5.4-10.1,11.6-19.8,18.4-29c42.6-57.2,110.7-94.2,187.4-94.2
			c76.8,0,144.8,37,187.4,94.2c6.8,9.2,13,18.8,18.4,29C-415.6-665.8-405.6-628.2-405.6-588.2z M-291.2-448.8
			c-55.3,138-190.3,235.4-348,235.4c-157.7,0-292.7-97.4-348-235.4h125.7c46.5,73.9,128.8,123.1,222.3,123.1
			c93.6,0,175.8-49.2,222.3-123.1H-291.2z"/>
		<path id="SVGID_x5F_11_x5F_" class="st2" d="M-319.5-442.7h28.6c-18.3,49.1-47.3,94-86,132.1c-70.1,69-163.2,106.9-262.3,106.9
			s-192.2-38-262.3-106.9c-38.7-38.1-67.7-83-86-132.1h28.6C-908-318-784.1-229.9-639.2-229.9S-370.3-318-319.5-442.7z"/>
		<text>		<textPath  xlink:href="#SVGID_x5F_11_x5F_" startOffset="2602.6721%">
<tspan  class="st0" style="font-family:'PatuaOne-Regular'; font-size:95.6102px; letter-spacing:238.2;">PATINETE</tspan>		</textPath>
</text>
	</g>
	<path id="SVGID_x5F_12_x5F_" class="st2" d="M-353.7-588.2c0,157.7-127.8,285.5-285.5,285.5s-285.5-127.8-285.5-285.5
		s127.8-285.5,285.5-285.5S-353.7-745.9-353.7-588.2z"/>
	<text>	<textPath  xlink:href="#SVGID_x5F_12_x5F_" startOffset="3677.1392%">
<tspan  class="st0" style="font-family:'PatuaOne-Regular'; font-size:96.6126px; letter-spacing:80;">TALLER DEL</tspan>	</textPath>
</text>
	<g id="TinLdq_16_">
		<g>
			<path class="st0" d="M-265.7-580.6c9.9,1.7,19,3.3,29.7,5.1c-21.3-29.8-41.8-58.4-62.3-87.1c-0.4,0.2-0.9,0.4-1.3,0.5
				c5.2,18.3,10.5,36.7,16,56.1c-11.1-1.8-21.5-3.5-33.6-5.5c25.2,33.3,49.4,65.3,73.6,97.3c0.4-0.2,0.7-0.3,1.1-0.5
				C-250.2-536.4-257.8-558.1-265.7-580.6z"/>
		</g>
	</g>
	<g id="TinLdq_15_">
		<g>
			<path class="st0" d="M-1012.7-580.6c-9.9,1.7-19,3.3-29.7,5.1c21.3-29.8,41.8-58.4,62.3-87.1c0.4,0.2,0.9,0.4,1.3,0.5
				c-5.2,18.3-10.5,36.7-16,56.1c11.1-1.8,21.5-3.5,33.6-5.5c-25.2,33.3-49.4,65.3-73.6,97.3c-0.4-0.2-0.7-0.3-1.1-0.5
				C-1028.2-536.4-1020.6-558.1-1012.7-580.6z"/>
		</g>
	</g>
	<g id="_x33_cX7Jq.tif_8_">
		<g>
			<path class="st0" d="M-610.4-560.7c-0.3,0.2-0.6,0.4-1.1,0.6c-0.7-2.6-1.5-5.1-2.2-7.6c-0.1-0.3,0.4-0.9,0.7-1.2
				c1.3-0.9,2.6-1.7,4.1-2.7c-12.6-62.5-25.2-125.1-37.8-187.8c-0.9,0-1.6,0-2.5,0c-0.4-2.5-0.8-4.9-1.3-7.7
				c1.9-0.3,3.8-0.6,5.7-0.7c0.3,0,1,0.7,1.1,1.2c1.8,8.7,3.6,17.5,5.4,26.2c3.4,16.7,6.9,33.3,10.3,50c0.9,4.4,1.8,8.8,3.1,13.1
				c-5.3-30.3-10.6-60.6-15.9-91.1c3-0.4,5.8-0.8,8.8-1.2c-0.6-3.4-1.2-6.6-1.9-10.2c-2.3,0.2-4.6,0.2-6.9,0.5
				c-2.1,0.3-4.2,0.9-6.3,1.4c-1,0.3-1.3,1-1.3,2.1c-0.1,1.8-0.5,3.5-1,5.2c-0.8,2.1-2.1,2.6-4.2,1.9c-0.7-0.2-1.5-0.4-2.3-0.4
				c-3.4,0.1-6.8,0.2-10.2,0.3c-0.8,0-1.8-0.2-2.5-0.6c-2-1.1-4-1-6.1-0.9c-9.6,0.4-19.3,0.7-28.9,1.1c-0.8,0-1.7,0.2-2.5,0.6
				c-1.3,0.6-2.3,0.3-3.2-0.7c-2.4-2.7-2.6-9.3-0.2-12.5c-0.3,4-0.7,8,2.9,10.8c2.5-3.2,1.1-9.6-2.5-12.7c3.6-2,7,1.1,8.2,7.6
				c9.7-0.6,19.4-1.2,29.2-1.8c0.1-1,0.2-1.9,0.4-3.1c-1,0-1.8,0-2.5,0c-8.2,0-16.4-0.1-24.6-0.1c-1.6,0-2.7-0.6-3.7-2.2
				c0.9,0,1.5,0,2.1,0c9.1,0,18.1,0,27.2-0.1c2.1,0,4.1-0.5,6.2-0.8c0-0.2,0-0.4-0.1-0.6c-2.1,0.1-4.1,0.2-6.2,0.3
				c1.5-1.6,2.7-3.4,5.4-3.2c3.4,0.2,6.9,0.1,10.3,0c1.7-0.1,2.8,0.3,2.7,2c1.5,0.7,2.7,1.2,4.3,1.9c4-2.3,8.9-2.9,13.9-3.1
				c0.8,0,1.6-0.7,2.4-1.1c0.9-0.4,1.7-1.2,2.6-1.2c4.6-0.1,9.1-0.1,13.7-0.1c0.2,0.6,0.5,1.1,0.7,1.6c0.1-0.1,0.2-0.3,0.3-0.4
				c1.1,0.5,2.1,1,3.2,1.5c1.2,0.5,2.5,1.3,3.7,1.3c7.1-0.1,14.3-0.3,21.4-0.5c1.2,0,2.5,0.2,3.7,0.1c0.8,0,1.8-0.1,2.4-0.6
				c3.9-2.5,6.3-0.6,7.7,2.1c1.9,3.5,2.1,7.2,0.4,10.9c-1.3,2.8-3.3,3.5-6.1,2.3c-0.6-0.2-1.3-0.3-1.9-0.3
				c-10.6,0.2-21.1,0.4-31.7,0.6c-3.6,0.1-7.1-0.1-10.7-0.1c-1.4,0-2-0.7-2.2-2c-0.6-3.7-1.2-7.4-2-11.1c-0.2-0.9-0.9-1.8-1.3-2.7
				c-0.3,0.1-0.5,0.2-0.8,0.3c1.2,8.1,2.3,16.2,3.5,24.5c-1.3,0.2-2.4,0.4-3.5,0.5c12.4,62.3,24.8,124.4,37.2,186.6
				c0.1,0,0.2,0.1,0.3,0.1c4.7,0.3,4.7,0.3,5.4,4.9c0.2,1.4,0.8,2.6-0.2,4.3c-0.7,1.2,0.5,3.4,0.8,5.1c1.8,9.5,3.7,18.9,5.5,28.4
				c1.6,8.1,3.1,16.3,4.8,24.4c1.6,7.3,3.4,14.5,5.3,22.1c-4.2-0.7-6.7,1.7-8.5,5.1c0.4,0.3,0.7,0.6,1.1,0.7
				c5.9,1.9,11.7,4,17.7,5.6c2.3,0.6,4.8,0.3,7.2,0.1c0.9,0,1.7-0.8,2.8-1.3c-4.1-5.4-9.9-7.1-15.5-9.2c5.8,1.2,11.6,2.1,16.4,6
				c2.4,2,2.7,3.9,0.7,6.3c-1.5,1.7-1.2,2.7,0.2,4.1c1.6,1.8,3,3.8,4.5,5.8c-2.6,2.9-5.9,4.1-9.5,4.7c4,1.5,7.9,1,12.1-0.9
				c1.5,4.6,3,8.9,4.4,13.3c0.1,0.5-0.3,1.4-0.8,1.8c-2.7,2.5-6.1,3.6-10.1,4.1c4.2,1.6,7.9,1.3,12.1,0c0.1,3-0.1,5.7,0.3,8.4
				c0.6,4.2-1.8,6.2-5.3,7.4c-2.3,0.8-4.8,1.1-7.2,1.7c3.4,2,7.2,1.7,11.7,1.3c-1.4,3.8-2.1,7.6-4.2,10.5c-1.4,1.9-4.6,2.4-7.1,3.5
				c-0.6,0.2-1.3,0.2-2,0.7c1,0.2,2,0.5,3,0.7c1.1,0.2,2.2,0.2,3.4,0.6c-4.4,3.8-7.1,10.2-14.9,8.9c0.1,0.2,0.1,0.4,0.2,0.6
				c0.8,0.4,1.6,0.9,2.6,1.5c-1,0.7-1.6,1.2-2.3,1.6c-9.1,4.2-18,4.7-27.1-0.5c-4.9-2.8-9.4-6-13.2-10.2
				c-11.3-15.1-15.6-25.3-13.4-46.9c-0.6,1.6-1.1,3-1.7,4.4c-0.2,0-0.3,0-0.5-0.1c-0.1-0.4-0.3-0.8-0.3-1.2
				c-0.1-2.2-0.4-4.5-0.2-6.7c0.3-4.9,1.8-9.4,5.1-13.1c2.2-2.5,4.6-4.9,7.2-7c4.9-3.9,6.6-8.8,5.6-14.8c-1.9-11.4-3.9-22.7-6-34.1
				c-1.2-6.3-2.6-12.6-3.9-19c-0.4-2.1-0.7-4.3-1.3-6.4c-0.2-0.6-1-1.1-1.6-1.6c-0.1-0.1-0.2-0.1-0.4-0.1c-3.9-1.2-4.7-3.5-2.1-6.8
				c0.4-0.6,1.2-1,1.4-1.6c0.4-1,0.5-2.1,0.7-3.1C-609.9-560.6-610.1-560.6-610.4-560.7z M-600.7-460.8c-3.7,2.9-6.3,11.1-6.7,16.1
				c-0.8,9.1,0.3,18,4.6,26.4c3.8,7.6,8.9,13.9,17,17.2c6.7,2.7,13.3,2,19.1-2.4c5.7-4.3,8.8-10.5,9.9-17.3
				c1.6-10.1,0.8-20-3.8-29.4c-3.7-7.5-8.7-13.7-16.5-17.2c-1.6-0.7-3.4-1.1-5.5-1.8c0.4,2.5,0.6,4.4,1,6.2c0.1,0.6,0.7,1.3,1.3,1.5
				c9.4,4.1,14.2,11.8,16.3,21.3c1,4.3,0.7,8.9,0.9,13.4c0.2,3.5-0.7,6.7-2.2,9.8c-3,6.5-7.4,11.1-15.3,11.2c-2.7,0-5.4-0.8-6.1-2.5
				c0.5,0,0.9-0.1,1.4-0.1c5.2,0,9-2.6,11.4-7c5-8.9,4.7-18.2,0.9-27.4c-1.5-3.6-3.5-6.9-7-9.5c0.4,3.6,0.8,6.7,1.2,9.9
				c0.4,3.7,0.9,7.5,1.3,11.2c0.2,1.8-1.2,3.4-2.8,3.5c-1.9,0.1-2.3-1.2-2.7-2.7c-0.5-1.7-1.3-3.3-2.2-4.8c-0.4-0.6-1.7-1-2.4-0.9
				c-0.7,0.2-1.4,1.2-1.6,1.9c-0.3,0.8-0.2,1.8-0.1,2.7c0.1,0.9,0.2,1.8,0.4,2.7c-0.3,0.1-0.5,0.1-0.8,0.2
				C-596.6-438-597.7-449.7-600.7-460.8z M-611.3-783.6c0.3,4.4,0.3,4.4,3.8,4.3c9.8-0.3,19.5-0.6,29.3-0.8c1.6,0,1.9-0.8,1.7-2.1
				c-0.3-1.4-1.1-1.9-2.6-1.9c-4.3,0.2-8.6,0.4-12.9,0.4C-598.4-783.6-604.8-783.6-611.3-783.6z"/>
			<path class="st0" d="M-724.9-470.8c-5.9,1.3-9,5.8-12,10.6c0.6-5.4,4.8-13,11.2-15c5.3-1.6,11.6,0.4,15.3,5.7
				c2.6,3.6,4.7,7.6,7.2,11.4c2.4,3.6,5.3,6.6,9.7,7.6c1,0.2,2,0.2,3.6,0.4c-2.1-1.4-4.2-2.2-5.3-3.6c-2.3-2.9-4.3-6.2-6.1-9.4
				c-2.3-4.1-4.3-8.3-7.8-11.6c-7.7-7.3-19.8-5.6-25.2,3.5c-3,5.1-4.4,10.7-5.2,16.5c-0.1,0.7-0.2,1.4-0.3,2.1c-0.2,0-0.7-5-0.5-7.4
				c0.5-5.8,2-11.2,5.6-15.8c5.3-6.9,13.6-9.2,21.8-6.3c6.3,2.2,10.5,6.7,13.7,12.3c2,3.5,3.4,7.4,5.3,11c0.9,1.7,2,3.2,3.1,4.8
				c1,1.5,2.4,1.9,4.3,1.9c18.3-0.3,36.6-0.6,54.9-0.7c2.2,0,3.4-0.6,4.4-2.8c5.3-12.1,10.9-24,16.3-36c2.4-5.3,4.8-10.7,7.2-16
				c0.1-0.3,0.4-0.6,1-0.9c1.9,9.4,3,18.9,4.4,28.4c-9.6,4.6-21.2,21.7-20.6,31.8c0.1,1.1-0.4,1.5-1.5,1.5c-9.4-0.3-18.7-0.6-28.1-1
				c-4.3-0.2-8.7-0.5-13-0.7c-10.9-0.3-21.9-0.5-32.8-1c-4.4-0.2-7.8,1.7-11.7,4.1c2.8,0.1,5.1,0.3,7.5,0.4c12.7,0.4,25.4,0.6,38,1
				c6.8,0.2,13.7,0.5,20.5,0.8c6.5,0.3,13,0.5,19.6,0.7c0.5,0,0.9,0.1,1.2,0.1c0.9,3.5,1.8,6.7,2.5,10.1c0.2,0.7-0.1,1.8-0.6,2.3
				c-1.9,1.8-3.8,3.4-5.9,4.9c-0.5,0.4-1.5,0.4-2.3,0.4c-8.7-0.3-17.4-0.6-26.1-1c-4.7-0.2-9.4-0.2-14-0.9
				c-9.2-1.3-18.4-1.3-27.6-1.6c-0.5,0-1,0-1.6,0c-0.3,1.4-0.6,2.6-0.8,3.9c-0.3,2.6-0.9,3.2-3.5,3.7c-1.3,0.3-2.6,0.3-4,0.8
				c1.3,0.2,2.6,0.6,3.9,0.7c2.1,0.2,2.5,0.6,1.8,2.7c-1.5,4.5-3.2,5.7-8,5.6c-0.3,0-0.5,0-0.8,0.4c1.3,0.3,2.7,0.5,3.9,0.9
				c0.4,0.1,0.9,1.1,0.8,1.2c-1.7,2-3.1,4.5-6,5.1c-0.8,0.2-1.7,0.1-2.6,0.1c0.6,0.3,1.1,0.6,1.9,1c-2.9,2-5.8,2.4-8.8,1.3
				c-7.1-2.5-11.5-7.8-15-14.2c-3-5.6-5.4-14.3-5.9-20.4c-0.6-6.7-0.3-13.3,1.7-19.8C-734.3-461.1-731.3-467-724.9-470.8z
				 M-717.4-413.4c-1.5,1.2-3.1,1.1-4.4,0c-1.1-0.9-2.2-2-2.9-3.2c-3.1-5.2-4.1-11.1-4.8-17c-0.2-1.6-0.8-3.2-0.8-4.8
				c0-1.9,0.5-3.9,0.8-5.8c0.6-4.3,1.2-8.5,3.5-12.3c1.1-1.8,2.5-3.3,4.9-3c1.8,0.2,3.8,2.2,4.3,3.8c-8.9,2-8.9,9.3-6.9,12.7
				c2.3,0.6,2.3-1.1,3.1-2.2c0.5-0.8,1.4-1.7,2.2-1.9c0.7-0.1,1.9,0.8,2.2,1.5c1,2.2,2.5,1.7,4.2,1.2c-0.4-4.4-2.9-11.2-5.3-14.4
				c-0.8-1.1-1.7-2.2-2.8-3c-2.3-1.9-4.9-1.8-6.6,0.6c-1.5,2.2-2.8,4.8-3.5,7.4c-2.4,9.9-1.5,19.7,1,29.4c1.1,4.4,2.6,8.6,5.7,12.1
				c3.7,4.1,7.1,3.7,9.7-1.1c2.6-4.7,3.3-9.9,3.1-15.2c0-1.5-0.7-3.2-2.4-4.1c-0.5,2.8-1,5.4-1.5,8c-0.3,1.6-1,3.3-2.8,3.4
				c-1.9,0.1-2.7-1.7-3.2-3.3c-0.7-2.5-1.2-5.1-1.8-7.7c-0.1-0.5-0.7-0.8-1.1-1.2c-0.2,0.2-0.4,0.3-0.5,0.5
				C-723.1-426-722.6-419-717.4-413.4z"/>
		</g>
	</g>
</g>
<g id="Layer_2">
	<g id="NO_EDITAR_1_">
		<circle class="st0" cx="-1740.4" cy="502.6" r="242.4"/>
		<g>
			<path class="st1" d="M-1479.6,503.8c0-39.5-8.8-76.9-24.5-110.5h243.6l-102.5-29c-19.9-54.3-51.5-104-93.6-146.1
				C-1532.9,142-1634.3,100-1742.2,100c-107.9,0-209.3,42-285.5,118.3c-42.1,42.1-73.7,91.9-93.6,146.1l-102.5,29h243.6
				c-15.6,33.6-24.4,71-24.4,110.5c0,39.4,8.8,76.9,24.4,110.5h-243.6l102.5,29c19.9,54.3,51.6,104,93.6,146.1
				c76.3,76.3,177.7,118.3,285.5,118.3c107.9,0,209.3-42,285.5-118.3c42.1-42.1,73.7-91.8,93.6-146.1l102.5-29h-243.6
				C-1488.4,580.7-1479.6,543.2-1479.6,503.8z M-2090.2,364.4c55.3-138,190.3-235.4,348-235.4c157.7,0,292.7,97.4,348,235.4h-125.7
				c-46.5-73.9-128.8-123.1-222.3-123.1c-93.6,0-175.8,49.2-222.3,123.1H-2090.2z M-1508.6,503.8c0,40-10,77.6-27.7,110.5
				c-5.4,10.1-11.6,19.8-18.4,29c-42.6,57.2-110.7,94.2-187.4,94.2c-76.7,0-144.8-37-187.4-94.2c-6.8-9.2-13-18.8-18.4-29
				c-17.7-32.9-27.7-70.5-27.7-110.5c0-40,10.1-77.6,27.7-110.5c5.4-10.1,11.6-19.8,18.4-29c42.6-57.2,110.7-94.2,187.4-94.2
				c76.8,0,144.8,37,187.4,94.2c6.8,9.2,13,18.8,18.4,29C-1518.6,426.2-1508.6,463.8-1508.6,503.8z M-1394.2,643.2
				c-55.3,138-190.3,235.4-348,235.4c-157.7,0-292.7-97.4-348-235.4h125.7c46.5,73.9,128.8,123.1,222.3,123.1
				c93.6,0,175.8-49.2,222.3-123.1H-1394.2z"/>
			<path id="SVGID_x5F_13_x5F_" class="st2" d="M-1422.5,649.3h28.6c-18.3,49.1-47.3,94-86,132.1c-70.1,69-163.2,106.9-262.3,106.9
				c-99.1,0-192.2-38-262.3-106.9c-38.7-38.1-67.7-83-86-132.1h28.6c50.8,124.7,174.8,212.8,319.7,212.8S-1473.3,774-1422.5,649.3z"
				/>
			<text>			<textPath  xlink:href="#SVGID_x5F_13_x5F_" startOffset="2602.6721%">
<tspan  class="st1" style="font-family:'PatuaOne-Regular'; font-size:95.6102px; letter-spacing:238.2;">PATINETE</tspan>			</textPath>
</text>
		</g>
		<path id="SVGID_x5F_14_x5F_" class="st2" d="M-1456.7,503.8c0,157.7-127.8,285.5-285.5,285.5s-285.5-127.8-285.5-285.5
			s127.8-285.5,285.5-285.5S-1456.7,346.1-1456.7,503.8z"/>
		<text>		<textPath  xlink:href="#SVGID_x5F_14_x5F_" startOffset="3677.1392%">
<tspan  class="st1" style="font-family:'PatuaOne-Regular'; font-size:96.6126px; letter-spacing:80;">TALLER DEL</tspan>		</textPath>
</text>
		<g id="TinLdq_8_">
			<g>
				<path class="st1" d="M-1368.7,511.4c9.9,1.7,19,3.3,29.7,5.1c-21.3-29.8-41.8-58.4-62.3-87.1c-0.4,0.2-0.9,0.4-1.3,0.5
					c5.2,18.3,10.5,36.7,16,56.1c-11.1-1.8-21.5-3.5-33.6-5.5c25.2,33.3,49.4,65.3,73.6,97.3c0.4-0.2,0.7-0.3,1.1-0.5
					C-1353.2,555.6-1360.8,533.9-1368.7,511.4z"/>
			</g>
		</g>
		<g id="TinLdq_7_">
			<g>
				<path class="st1" d="M-2115.7,511.4c-9.9,1.7-19,3.3-29.7,5.1c21.3-29.8,41.8-58.4,62.3-87.1c0.4,0.2,0.9,0.4,1.3,0.5
					c-5.2,18.3-10.5,36.7-16,56.1c11.1-1.8,21.5-3.5,33.6-5.5c-25.2,33.3-49.4,65.3-73.6,97.3c-0.4-0.2-0.7-0.3-1.1-0.5
					C-2131.2,555.6-2123.6,533.9-2115.7,511.4z"/>
			</g>
		</g>
		<g id="_x33_cX7Jq.tif_4_">
			<g>
				<path class="st1" d="M-1713.4,531.3c-0.3,0.2-0.6,0.4-1.1,0.6c-0.7-2.6-1.5-5.1-2.2-7.6c-0.1-0.3,0.4-0.9,0.7-1.2
					c1.3-0.9,2.6-1.7,4.1-2.7c-12.6-62.5-25.2-125.1-37.8-187.8c-0.9,0-1.6,0-2.5,0c-0.4-2.5-0.8-4.9-1.3-7.7
					c1.9-0.3,3.8-0.6,5.7-0.7c0.3,0,1,0.7,1.1,1.2c1.8,8.7,3.6,17.5,5.4,26.2c3.4,16.7,6.9,33.3,10.3,50c0.9,4.4,1.8,8.8,3.1,13.1
					c-5.3-30.3-10.6-60.6-15.9-91.1c3-0.4,5.8-0.8,8.8-1.2c-0.6-3.4-1.2-6.6-1.9-10.2c-2.3,0.2-4.6,0.2-6.9,0.5
					c-2.1,0.3-4.2,0.9-6.3,1.4c-1,0.3-1.3,1-1.3,2.1c-0.1,1.8-0.5,3.5-1,5.2c-0.8,2.1-2.1,2.6-4.2,1.9c-0.7-0.2-1.5-0.4-2.3-0.4
					c-3.4,0.1-6.8,0.2-10.2,0.3c-0.8,0-1.8-0.2-2.5-0.6c-2-1.1-4-1-6.1-0.9c-9.6,0.4-19.3,0.7-28.9,1.1c-0.8,0-1.7,0.2-2.5,0.6
					c-1.3,0.6-2.3,0.3-3.2-0.7c-2.4-2.7-2.6-9.3-0.2-12.5c-0.3,4-0.7,8,2.9,10.8c2.5-3.2,1.1-9.6-2.5-12.7c3.6-2,7,1.1,8.2,7.6
					c9.7-0.6,19.4-1.2,29.2-1.8c0.1-1,0.2-1.9,0.4-3.1c-1,0-1.8,0-2.5,0c-8.2,0-16.4-0.1-24.6-0.1c-1.6,0-2.7-0.6-3.7-2.2
					c0.9,0,1.5,0,2.1,0c9.1,0,18.1,0,27.2-0.1c2.1,0,4.1-0.5,6.2-0.8c0-0.2,0-0.4-0.1-0.6c-2.1,0.1-4.1,0.2-6.2,0.3
					c1.5-1.6,2.7-3.4,5.4-3.2c3.4,0.2,6.9,0.1,10.3,0c1.7-0.1,2.8,0.3,2.7,2c1.5,0.7,2.7,1.2,4.3,1.9c4-2.3,8.9-2.9,13.9-3.1
					c0.8,0,1.6-0.7,2.4-1.1c0.9-0.4,1.7-1.2,2.6-1.2c4.6-0.1,9.1-0.1,13.7-0.1c0.2,0.6,0.5,1.1,0.7,1.6c0.1-0.1,0.2-0.3,0.3-0.4
					c1.1,0.5,2.1,1,3.2,1.5c1.2,0.5,2.5,1.3,3.7,1.3c7.1-0.1,14.3-0.3,21.4-0.5c1.2,0,2.5,0.2,3.7,0.1c0.8,0,1.8-0.1,2.4-0.6
					c3.9-2.5,6.3-0.6,7.7,2.1c1.9,3.5,2.1,7.2,0.4,10.9c-1.3,2.8-3.3,3.5-6.1,2.3c-0.6-0.2-1.3-0.3-1.9-0.3
					c-10.6,0.2-21.1,0.4-31.7,0.6c-3.6,0.1-7.1-0.1-10.7-0.1c-1.4,0-2-0.7-2.2-2c-0.6-3.7-1.2-7.4-2-11.1c-0.2-0.9-0.9-1.8-1.3-2.7
					c-0.3,0.1-0.5,0.2-0.8,0.3c1.2,8.1,2.3,16.2,3.5,24.5c-1.3,0.2-2.4,0.4-3.5,0.5c12.4,62.3,24.8,124.4,37.2,186.6
					c0.1,0,0.2,0.1,0.3,0.1c4.7,0.3,4.7,0.3,5.4,4.9c0.2,1.4,0.8,2.6-0.2,4.3c-0.7,1.2,0.5,3.4,0.8,5.1c1.8,9.5,3.7,18.9,5.5,28.4
					c1.6,8.1,3.1,16.3,4.8,24.4c1.6,7.3,3.4,14.5,5.3,22.1c-4.2-0.7-6.7,1.7-8.5,5.1c0.4,0.3,0.7,0.6,1.1,0.7
					c5.9,1.9,11.7,4,17.7,5.6c2.3,0.6,4.8,0.3,7.2,0.1c0.9,0,1.7-0.8,2.8-1.3c-4.1-5.4-9.9-7.1-15.5-9.2c5.8,1.2,11.6,2.1,16.4,6
					c2.4,2,2.7,3.9,0.7,6.3c-1.5,1.7-1.2,2.7,0.2,4.1c1.6,1.8,3,3.8,4.5,5.8c-2.6,2.9-5.9,4.1-9.5,4.7c4,1.5,7.9,1,12.1-0.9
					c1.5,4.6,3,8.9,4.4,13.3c0.1,0.5-0.3,1.4-0.8,1.8c-2.7,2.5-6.1,3.6-10.1,4.1c4.2,1.6,7.9,1.3,12.1,0c0.1,3-0.1,5.7,0.3,8.4
					c0.6,4.2-1.8,6.2-5.3,7.4c-2.3,0.8-4.8,1.1-7.2,1.7c3.4,2,7.2,1.7,11.7,1.3c-1.4,3.8-2.1,7.6-4.2,10.5c-1.4,1.9-4.6,2.4-7.1,3.5
					c-0.6,0.2-1.3,0.2-2,0.7c1,0.2,2,0.5,3,0.7c1.1,0.2,2.2,0.2,3.4,0.6c-4.4,3.8-7.1,10.2-14.9,8.9c0.1,0.2,0.1,0.4,0.2,0.6
					c0.8,0.4,1.6,0.9,2.6,1.5c-1,0.7-1.6,1.2-2.3,1.6c-9.1,4.2-18,4.7-27.1-0.5c-4.9-2.8-9.4-6-13.2-10.2
					c-11.3-15.1-15.6-25.3-13.4-46.9c-0.6,1.6-1.1,3-1.7,4.4c-0.2,0-0.3,0-0.5-0.1c-0.1-0.4-0.3-0.8-0.3-1.2
					c-0.1-2.2-0.4-4.5-0.2-6.7c0.3-4.9,1.8-9.4,5.1-13.1c2.2-2.5,4.6-4.9,7.2-7c4.9-3.9,6.6-8.8,5.6-14.8c-1.9-11.4-3.9-22.7-6-34.1
					c-1.2-6.3-2.6-12.6-3.9-19c-0.4-2.1-0.7-4.3-1.3-6.4c-0.2-0.6-1-1.1-1.6-1.6c-0.1-0.1-0.2-0.1-0.4-0.1c-3.9-1.2-4.7-3.5-2.1-6.8
					c0.4-0.6,1.2-1,1.4-1.6c0.4-1,0.5-2.1,0.7-3.1C-1712.9,531.4-1713.1,531.4-1713.4,531.3z M-1703.7,631.2
					c-3.7,2.9-6.3,11.1-6.7,16.1c-0.8,9.1,0.3,18,4.6,26.4c3.8,7.6,8.9,13.9,17,17.2c6.7,2.7,13.3,2,19.1-2.4
					c5.7-4.3,8.8-10.5,9.9-17.3c1.6-10.1,0.8-20-3.8-29.4c-3.7-7.5-8.7-13.7-16.5-17.2c-1.6-0.7-3.4-1.1-5.5-1.8
					c0.4,2.5,0.6,4.4,1,6.2c0.1,0.6,0.7,1.3,1.3,1.5c9.4,4.1,14.2,11.8,16.3,21.3c1,4.3,0.7,8.9,0.9,13.4c0.2,3.5-0.7,6.7-2.2,9.8
					c-3,6.5-7.4,11.1-15.3,11.2c-2.7,0-5.4-0.8-6.1-2.5c0.5,0,0.9-0.1,1.4-0.1c5.2,0,9-2.6,11.4-7c5-8.9,4.7-18.2,0.9-27.4
					c-1.5-3.6-3.5-6.9-7-9.5c0.4,3.6,0.8,6.7,1.2,9.9c0.4,3.7,0.9,7.5,1.3,11.2c0.2,1.8-1.2,3.4-2.8,3.5c-1.9,0.1-2.3-1.2-2.7-2.7
					c-0.5-1.7-1.3-3.3-2.2-4.8c-0.4-0.6-1.7-1-2.4-0.9c-0.7,0.2-1.4,1.2-1.6,1.9c-0.3,0.8-0.2,1.8-0.1,2.7c0.1,0.9,0.2,1.8,0.4,2.7
					c-0.3,0.1-0.5,0.1-0.8,0.2C-1699.6,654-1700.7,642.3-1703.7,631.2z M-1714.3,308.4c0.3,4.4,0.3,4.4,3.8,4.3
					c9.8-0.3,19.5-0.6,29.3-0.8c1.6,0,1.9-0.8,1.7-2.1c-0.3-1.4-1.1-1.9-2.6-1.9c-4.3,0.2-8.6,0.4-12.9,0.4
					C-1701.4,308.4-1707.8,308.4-1714.3,308.4z"/>
				<path class="st1" d="M-1827.9,621.2c-5.9,1.3-9,5.8-12,10.6c0.6-5.4,4.8-13,11.2-15c5.3-1.6,11.6,0.4,15.3,5.7
					c2.6,3.6,4.7,7.6,7.2,11.4c2.4,3.6,5.3,6.6,9.7,7.6c1,0.2,2,0.2,3.6,0.4c-2.1-1.4-4.2-2.2-5.3-3.6c-2.3-2.9-4.3-6.2-6.1-9.4
					c-2.3-4.1-4.3-8.3-7.8-11.6c-7.7-7.3-19.8-5.6-25.2,3.5c-3,5.1-4.4,10.7-5.2,16.5c-0.1,0.7-0.2,1.4-0.3,2.1
					c-0.2,0-0.7-5-0.5-7.4c0.5-5.8,2-11.2,5.6-15.8c5.3-6.9,13.6-9.2,21.8-6.3c6.3,2.2,10.5,6.7,13.7,12.3c2,3.5,3.4,7.4,5.3,11
					c0.9,1.7,2,3.2,3.1,4.8c1,1.5,2.4,1.9,4.3,1.9c18.3-0.3,36.6-0.6,54.9-0.7c2.2,0,3.4-0.6,4.4-2.8c5.3-12.1,10.9-24,16.3-36
					c2.4-5.3,4.8-10.7,7.2-16c0.1-0.3,0.4-0.6,1-0.9c1.9,9.4,3,18.9,4.4,28.4c-9.6,4.6-21.2,21.7-20.6,31.8c0.1,1.1-0.4,1.5-1.5,1.5
					c-9.4-0.3-18.7-0.6-28.1-1c-4.3-0.2-8.7-0.5-13-0.7c-10.9-0.3-21.9-0.5-32.8-1c-4.4-0.2-7.8,1.7-11.7,4.1
					c2.8,0.1,5.1,0.3,7.5,0.4c12.7,0.4,25.4,0.6,38,1c6.8,0.2,13.7,0.5,20.5,0.8c6.5,0.3,13,0.5,19.6,0.7c0.5,0,0.9,0.1,1.2,0.1
					c0.9,3.5,1.8,6.7,2.5,10.1c0.2,0.7-0.1,1.8-0.6,2.3c-1.9,1.8-3.8,3.4-5.9,4.9c-0.5,0.4-1.5,0.4-2.3,0.4
					c-8.7-0.3-17.4-0.6-26.1-1c-4.7-0.2-9.4-0.2-14-0.9c-9.2-1.3-18.4-1.3-27.6-1.6c-0.5,0-1,0-1.6,0c-0.3,1.4-0.6,2.6-0.8,3.9
					c-0.3,2.6-0.9,3.2-3.5,3.7c-1.3,0.3-2.6,0.3-4,0.8c1.3,0.2,2.6,0.6,3.9,0.7c2.1,0.2,2.5,0.6,1.8,2.7c-1.5,4.5-3.2,5.7-8,5.6
					c-0.3,0-0.5,0-0.8,0.4c1.3,0.3,2.7,0.5,3.9,0.9c0.4,0.1,0.9,1.1,0.8,1.2c-1.7,2-3.1,4.5-6,5.1c-0.8,0.2-1.7,0.1-2.6,0.1
					c0.6,0.3,1.1,0.6,1.9,1c-2.9,2-5.8,2.4-8.8,1.3c-7.1-2.5-11.5-7.8-15-14.2c-3-5.6-5.4-14.3-5.9-20.4c-0.6-6.7-0.3-13.3,1.7-19.8
					C-1837.3,630.9-1834.3,625-1827.9,621.2z M-1820.4,678.6c-1.5,1.2-3.1,1.1-4.4,0c-1.1-0.9-2.2-2-2.9-3.2
					c-3.1-5.2-4.1-11.1-4.8-17c-0.2-1.6-0.8-3.2-0.8-4.8c0-1.9,0.5-3.9,0.8-5.8c0.6-4.3,1.2-8.5,3.5-12.3c1.1-1.8,2.5-3.3,4.9-3
					c1.8,0.2,3.8,2.2,4.3,3.8c-8.9,2-8.9,9.3-6.9,12.7c2.3,0.6,2.3-1.1,3.1-2.2c0.5-0.8,1.4-1.7,2.2-1.9c0.7-0.1,1.9,0.8,2.2,1.5
					c1,2.2,2.5,1.7,4.2,1.2c-0.4-4.4-2.9-11.2-5.3-14.4c-0.8-1.1-1.7-2.2-2.8-3c-2.3-1.9-4.9-1.8-6.6,0.6c-1.5,2.2-2.8,4.8-3.5,7.4
					c-2.4,9.9-1.5,19.7,1,29.4c1.1,4.4,2.6,8.6,5.7,12.1c3.7,4.1,7.1,3.7,9.7-1.1c2.6-4.7,3.3-9.9,3.1-15.2c0-1.5-0.7-3.2-2.4-4.1
					c-0.5,2.8-1,5.4-1.5,8c-0.3,1.6-1,3.3-2.8,3.4c-1.9,0.1-2.7-1.7-3.2-3.3c-0.7-2.5-1.2-5.1-1.8-7.7c-0.1-0.5-0.7-0.8-1.1-1.2
					c-0.2,0.2-0.4,0.3-0.5,0.5C-1826.1,666-1825.6,673-1820.4,678.6z"/>
			</g>
		</g>
	</g>
	<g id="NO_EDITAR_2_">
		<circle class="st1" cx="-1740.4" cy="-1713.4" r="242.4"/>
		<g>
			<path class="st4" d="M-1479.6-1712.2c0-39.5-8.8-76.9-24.5-110.5h243.6l-102.5-29c-19.9-54.3-51.5-104-93.6-146.1
				c-76.3-76.3-177.7-118.3-285.5-118.3c-107.9,0-209.3,42-285.5,118.3c-42.1,42.1-73.7,91.8-93.6,146.1l-102.5,29h243.6
				c-15.6,33.6-24.4,71-24.4,110.5c0,39.4,8.8,76.9,24.4,110.5h-243.6l102.5,29c19.9,54.3,51.6,104,93.6,146.1
				c76.3,76.3,177.7,118.3,285.5,118.3c107.9,0,209.3-42,285.5-118.3c42.1-42.1,73.7-91.8,93.6-146.1l102.5-29h-243.6
				C-1488.4-1635.3-1479.6-1672.8-1479.6-1712.2z M-2090.2-1851.6c55.3-138,190.3-235.4,348-235.4c157.7,0,292.7,97.4,348,235.4
				h-125.7c-46.5-73.9-128.8-123.1-222.3-123.1c-93.6,0-175.8,49.2-222.3,123.1H-2090.2z M-1508.6-1712.2c0,40-10,77.6-27.7,110.5
				c-5.4,10.1-11.6,19.8-18.4,29c-42.6,57.2-110.7,94.2-187.4,94.2c-76.7,0-144.8-37-187.4-94.2c-6.8-9.2-13-18.8-18.4-29
				c-17.7-32.9-27.7-70.5-27.7-110.5c0-40,10.1-77.6,27.7-110.5c5.4-10.1,11.6-19.8,18.4-29c42.6-57.2,110.7-94.2,187.4-94.2
				c76.8,0,144.8,37,187.4,94.2c6.8,9.2,13,18.8,18.4,29C-1518.6-1789.8-1508.6-1752.2-1508.6-1712.2z M-1394.2-1572.8
				c-55.3,138-190.3,235.4-348,235.4c-157.7,0-292.7-97.4-348-235.4h125.7c46.5,73.9,128.8,123.1,222.3,123.1
				c93.6,0,175.8-49.2,222.3-123.1H-1394.2z"/>
			<path id="SVGID_x5F_15_x5F_" class="st2" d="M-1422.5-1566.7h28.6c-18.3,49.1-47.3,94-86,132.1c-70.1,69-163.2,106.9-262.3,106.9
				c-99.1,0-192.2-38-262.3-106.9c-38.7-38.1-67.7-83-86-132.1h28.6c50.8,124.7,174.8,212.8,319.7,212.8S-1473.3-1442-1422.5-1566.7
				z"/>
			<text>			<textPath  xlink:href="#SVGID_x5F_15_x5F_" startOffset="2602.6721%">
<tspan  class="st4" style="font-family:'PatuaOne-Regular'; font-size:95.6102px; letter-spacing:238.2;">PATINETE</tspan>			</textPath>
</text>
		</g>
		<path id="SVGID_x5F_16_x5F_" class="st2" d="M-1456.7-1712.2c0,157.7-127.8,285.5-285.5,285.5s-285.5-127.8-285.5-285.5
			s127.8-285.5,285.5-285.5S-1456.7-1869.9-1456.7-1712.2z"/>
		<text>		<textPath  xlink:href="#SVGID_x5F_16_x5F_" startOffset="3677.1392%">
<tspan  class="st4" style="font-family:'PatuaOne-Regular'; font-size:96.6126px; letter-spacing:80;">TALLER DEL</tspan>		</textPath>
</text>
		<g id="TinLdq_2_">
			<g>
				<path class="st4" d="M-1368.7-1704.6c9.9,1.7,19,3.3,29.7,5.1c-21.3-29.8-41.8-58.4-62.3-87.1c-0.4,0.2-0.9,0.4-1.3,0.5
					c5.2,18.3,10.5,36.7,16,56.1c-11.1-1.8-21.5-3.5-33.6-5.5c25.2,33.3,49.4,65.3,73.6,97.3c0.4-0.2,0.7-0.3,1.1-0.5
					C-1353.2-1660.4-1360.8-1682.1-1368.7-1704.6z"/>
			</g>
		</g>
		<g id="TinLdq_1_">
			<g>
				<path class="st4" d="M-2115.7-1704.6c-9.9,1.7-19,3.3-29.7,5.1c21.3-29.8,41.8-58.4,62.3-87.1c0.4,0.2,0.9,0.4,1.3,0.5
					c-5.2,18.3-10.5,36.7-16,56.1c11.1-1.8,21.5-3.5,33.6-5.5c-25.2,33.3-49.4,65.3-73.6,97.3c-0.4-0.2-0.7-0.3-1.1-0.5
					C-2131.2-1660.4-2123.6-1682.1-2115.7-1704.6z"/>
			</g>
		</g>
		<g id="_x33_cX7Jq.tif_1_">
			<g>
				<path class="st4" d="M-1713.4-1684.7c-0.3,0.2-0.6,0.4-1.1,0.6c-0.7-2.6-1.5-5.1-2.2-7.6c-0.1-0.3,0.4-0.9,0.7-1.2
					c1.3-0.9,2.6-1.7,4.1-2.7c-12.6-62.5-25.2-125.1-37.8-187.8c-0.9,0-1.6,0-2.5,0c-0.4-2.5-0.8-4.9-1.3-7.7
					c1.9-0.3,3.8-0.6,5.7-0.7c0.3,0,1,0.7,1.1,1.2c1.8,8.7,3.6,17.5,5.4,26.2c3.4,16.7,6.9,33.3,10.3,50c0.9,4.4,1.8,8.8,3.1,13.1
					c-5.3-30.3-10.6-60.6-15.9-91.1c3-0.4,5.8-0.8,8.8-1.2c-0.6-3.4-1.2-6.6-1.9-10.2c-2.3,0.2-4.6,0.2-6.9,0.5
					c-2.1,0.3-4.2,0.9-6.3,1.4c-1,0.3-1.3,1-1.3,2.1c-0.1,1.8-0.5,3.5-1,5.2c-0.8,2.1-2.1,2.6-4.2,1.9c-0.7-0.2-1.5-0.4-2.3-0.4
					c-3.4,0.1-6.8,0.2-10.2,0.3c-0.8,0-1.8-0.2-2.5-0.6c-2-1.1-4-1-6.1-0.9c-9.6,0.4-19.3,0.7-28.9,1.1c-0.8,0-1.7,0.2-2.5,0.6
					c-1.3,0.6-2.3,0.3-3.2-0.7c-2.4-2.7-2.6-9.3-0.2-12.5c-0.3,4-0.7,8,2.9,10.8c2.5-3.2,1.1-9.6-2.5-12.7c3.6-2,7,1.1,8.2,7.6
					c9.7-0.6,19.4-1.2,29.2-1.8c0.1-1,0.2-1.9,0.4-3.1c-1,0-1.8,0-2.5,0c-8.2,0-16.4-0.1-24.6-0.1c-1.6,0-2.7-0.6-3.7-2.2
					c0.9,0,1.5,0,2.1,0c9.1,0,18.1,0,27.2-0.1c2.1,0,4.1-0.5,6.2-0.8c0-0.2,0-0.4-0.1-0.6c-2.1,0.1-4.1,0.2-6.2,0.3
					c1.5-1.6,2.7-3.4,5.4-3.2c3.4,0.2,6.9,0.1,10.3,0c1.7-0.1,2.8,0.3,2.7,2c1.5,0.7,2.7,1.2,4.3,1.9c4-2.3,8.9-2.9,13.9-3.1
					c0.8,0,1.6-0.7,2.4-1.1c0.9-0.4,1.7-1.2,2.6-1.2c4.6-0.1,9.1-0.1,13.7-0.1c0.2,0.6,0.5,1.1,0.7,1.6c0.1-0.1,0.2-0.3,0.3-0.4
					c1.1,0.5,2.1,1,3.2,1.5c1.2,0.5,2.5,1.3,3.7,1.3c7.1-0.1,14.3-0.3,21.4-0.5c1.2,0,2.5,0.2,3.7,0.1c0.8,0,1.8-0.1,2.4-0.6
					c3.9-2.5,6.3-0.6,7.7,2.1c1.9,3.5,2.1,7.2,0.4,10.9c-1.3,2.8-3.3,3.5-6.1,2.3c-0.6-0.2-1.3-0.3-1.9-0.3
					c-10.6,0.2-21.1,0.4-31.7,0.6c-3.6,0.1-7.1-0.1-10.7-0.1c-1.4,0-2-0.7-2.2-2c-0.6-3.7-1.2-7.4-2-11.1c-0.2-0.9-0.9-1.8-1.3-2.7
					c-0.3,0.1-0.5,0.2-0.8,0.3c1.2,8.1,2.3,16.2,3.5,24.5c-1.3,0.2-2.4,0.4-3.5,0.5c12.4,62.3,24.8,124.4,37.2,186.6
					c0.1,0,0.2,0.1,0.3,0.1c4.7,0.3,4.7,0.3,5.4,4.9c0.2,1.4,0.8,2.6-0.2,4.3c-0.7,1.2,0.5,3.4,0.8,5.1c1.8,9.5,3.7,18.9,5.5,28.4
					c1.6,8.1,3.1,16.3,4.8,24.4c1.6,7.3,3.4,14.5,5.3,22.1c-4.2-0.7-6.7,1.7-8.5,5.1c0.4,0.3,0.7,0.6,1.1,0.7
					c5.9,1.9,11.7,4,17.7,5.6c2.3,0.6,4.8,0.3,7.2,0.1c0.9,0,1.7-0.8,2.8-1.3c-4.1-5.4-9.9-7.1-15.5-9.2c5.8,1.2,11.6,2.1,16.4,6
					c2.4,2,2.7,3.9,0.7,6.3c-1.5,1.7-1.2,2.7,0.2,4.1c1.6,1.8,3,3.8,4.5,5.8c-2.6,2.9-5.9,4.1-9.5,4.7c4,1.5,7.9,1,12.1-0.9
					c1.5,4.6,3,8.9,4.4,13.3c0.1,0.5-0.3,1.4-0.8,1.8c-2.7,2.5-6.1,3.6-10.1,4.1c4.2,1.6,7.9,1.3,12.1,0c0.1,3-0.1,5.7,0.3,8.4
					c0.6,4.2-1.8,6.2-5.3,7.4c-2.3,0.8-4.8,1.1-7.2,1.7c3.4,2,7.2,1.7,11.7,1.3c-1.4,3.8-2.1,7.6-4.2,10.5c-1.4,1.9-4.6,2.4-7.1,3.5
					c-0.6,0.2-1.3,0.2-2,0.7c1,0.2,2,0.5,3,0.7c1.1,0.2,2.2,0.2,3.4,0.6c-4.4,3.8-7.1,10.2-14.9,8.9c0.1,0.2,0.1,0.4,0.2,0.6
					c0.8,0.4,1.6,0.9,2.6,1.5c-1,0.7-1.6,1.2-2.3,1.6c-9.1,4.2-18,4.7-27.1-0.5c-4.9-2.8-9.4-6-13.2-10.2
					c-11.3-15.1-15.6-25.3-13.4-46.9c-0.6,1.6-1.1,3-1.7,4.4c-0.2,0-0.3,0-0.5-0.1c-0.1-0.4-0.3-0.8-0.3-1.2
					c-0.1-2.2-0.4-4.5-0.2-6.7c0.3-4.9,1.8-9.4,5.1-13.1c2.2-2.5,4.6-4.9,7.2-7c4.9-3.9,6.6-8.8,5.6-14.8c-1.9-11.4-3.9-22.7-6-34.1
					c-1.2-6.3-2.6-12.6-3.9-19c-0.4-2.1-0.7-4.3-1.3-6.4c-0.2-0.6-1-1.1-1.6-1.6c-0.1-0.1-0.2-0.1-0.4-0.1c-3.9-1.2-4.7-3.5-2.1-6.8
					c0.4-0.6,1.2-1,1.4-1.6c0.4-1,0.5-2.1,0.7-3.1C-1712.9-1684.6-1713.1-1684.6-1713.4-1684.7z M-1703.7-1584.8
					c-3.7,2.9-6.3,11.1-6.7,16.1c-0.8,9.1,0.3,18,4.6,26.4c3.8,7.6,8.9,13.9,17,17.2c6.7,2.7,13.3,2,19.1-2.4
					c5.7-4.3,8.8-10.5,9.9-17.3c1.6-10.1,0.8-20-3.8-29.4c-3.7-7.5-8.7-13.7-16.5-17.2c-1.6-0.7-3.4-1.1-5.5-1.8
					c0.4,2.5,0.6,4.4,1,6.2c0.1,0.6,0.7,1.3,1.3,1.5c9.4,4.1,14.2,11.8,16.3,21.3c1,4.3,0.7,8.9,0.9,13.4c0.2,3.5-0.7,6.7-2.2,9.8
					c-3,6.5-7.4,11.1-15.3,11.2c-2.7,0-5.4-0.8-6.1-2.5c0.5,0,0.9-0.1,1.4-0.1c5.2,0,9-2.6,11.4-7c5-8.9,4.7-18.2,0.9-27.4
					c-1.5-3.6-3.5-6.9-7-9.5c0.4,3.6,0.8,6.7,1.2,9.9c0.4,3.7,0.9,7.5,1.3,11.2c0.2,1.8-1.2,3.4-2.8,3.5c-1.9,0.1-2.3-1.2-2.7-2.7
					c-0.5-1.7-1.3-3.3-2.2-4.8c-0.4-0.6-1.7-1-2.4-0.9c-0.7,0.2-1.4,1.2-1.6,1.9c-0.3,0.8-0.2,1.8-0.1,2.7c0.1,0.9,0.2,1.8,0.4,2.7
					c-0.3,0.1-0.5,0.1-0.8,0.2C-1699.6-1562-1700.7-1573.7-1703.7-1584.8z M-1714.3-1907.6c0.3,4.4,0.3,4.4,3.8,4.3
					c9.8-0.3,19.5-0.6,29.3-0.8c1.6,0,1.9-0.8,1.7-2.1c-0.3-1.4-1.1-1.9-2.6-1.9c-4.3,0.2-8.6,0.4-12.9,0.4
					C-1701.4-1907.6-1707.8-1907.6-1714.3-1907.6z"/>
				<path class="st4" d="M-1827.9-1594.8c-5.9,1.3-9,5.8-12,10.6c0.6-5.4,4.8-13,11.2-15c5.3-1.6,11.6,0.4,15.3,5.7
					c2.6,3.6,4.7,7.6,7.2,11.4c2.4,3.6,5.3,6.6,9.7,7.6c1,0.2,2,0.2,3.6,0.4c-2.1-1.4-4.2-2.2-5.3-3.6c-2.3-2.9-4.3-6.2-6.1-9.4
					c-2.3-4.1-4.3-8.3-7.8-11.6c-7.7-7.3-19.8-5.6-25.2,3.5c-3,5.1-4.4,10.7-5.2,16.5c-0.1,0.7-0.2,1.4-0.3,2.1
					c-0.2,0-0.7-5-0.5-7.4c0.5-5.8,2-11.2,5.6-15.8c5.3-6.9,13.6-9.2,21.8-6.3c6.3,2.2,10.5,6.7,13.7,12.3c2,3.5,3.4,7.4,5.3,11
					c0.9,1.7,2,3.2,3.1,4.8c1,1.5,2.4,1.9,4.3,1.9c18.3-0.3,36.6-0.6,54.9-0.7c2.2,0,3.4-0.6,4.4-2.8c5.3-12.1,10.9-24,16.3-36
					c2.4-5.3,4.8-10.7,7.2-16c0.1-0.3,0.4-0.6,1-0.9c1.9,9.4,3,18.9,4.4,28.4c-9.6,4.6-21.2,21.7-20.6,31.8c0.1,1.1-0.4,1.5-1.5,1.5
					c-9.4-0.3-18.7-0.6-28.1-1c-4.3-0.2-8.7-0.5-13-0.7c-10.9-0.3-21.9-0.5-32.8-1c-4.4-0.2-7.8,1.7-11.7,4.1
					c2.8,0.1,5.1,0.3,7.5,0.4c12.7,0.4,25.4,0.6,38,1c6.8,0.2,13.7,0.5,20.5,0.8c6.5,0.3,13,0.5,19.6,0.7c0.5,0,0.9,0.1,1.2,0.1
					c0.9,3.5,1.8,6.7,2.5,10.1c0.2,0.7-0.1,1.8-0.6,2.3c-1.9,1.8-3.8,3.4-5.9,4.9c-0.5,0.4-1.5,0.4-2.3,0.4
					c-8.7-0.3-17.4-0.6-26.1-1c-4.7-0.2-9.4-0.2-14-0.9c-9.2-1.3-18.4-1.3-27.6-1.6c-0.5,0-1,0-1.6,0c-0.3,1.4-0.6,2.6-0.8,3.9
					c-0.3,2.6-0.9,3.2-3.5,3.7c-1.3,0.3-2.6,0.3-4,0.8c1.3,0.2,2.6,0.6,3.9,0.7c2.1,0.2,2.5,0.6,1.8,2.7c-1.5,4.5-3.2,5.7-8,5.6
					c-0.3,0-0.5,0-0.8,0.4c1.3,0.3,2.7,0.5,3.9,0.9c0.4,0.1,0.9,1.1,0.8,1.2c-1.7,2-3.1,4.5-6,5.1c-0.8,0.2-1.7,0.1-2.6,0.1
					c0.6,0.3,1.1,0.6,1.9,1c-2.9,2-5.8,2.4-8.8,1.3c-7.1-2.5-11.5-7.8-15-14.2c-3-5.6-5.4-14.3-5.9-20.4c-0.6-6.7-0.3-13.3,1.7-19.8
					C-1837.3-1585.1-1834.3-1591-1827.9-1594.8z M-1820.4-1537.4c-1.5,1.2-3.1,1.1-4.4,0c-1.1-0.9-2.2-2-2.9-3.2
					c-3.1-5.2-4.1-11.1-4.8-17c-0.2-1.6-0.8-3.2-0.8-4.8c0-1.9,0.5-3.9,0.8-5.8c0.6-4.3,1.2-8.5,3.5-12.3c1.1-1.8,2.5-3.3,4.9-3
					c1.8,0.2,3.8,2.2,4.3,3.8c-8.9,2-8.9,9.3-6.9,12.7c2.3,0.6,2.3-1.1,3.1-2.2c0.5-0.8,1.4-1.7,2.2-1.9c0.7-0.1,1.9,0.8,2.2,1.5
					c1,2.2,2.5,1.7,4.2,1.2c-0.4-4.4-2.9-11.2-5.3-14.4c-0.8-1.1-1.7-2.2-2.8-3c-2.3-1.9-4.9-1.8-6.6,0.6c-1.5,2.2-2.8,4.8-3.5,7.4
					c-2.4,9.9-1.5,19.7,1,29.4c1.1,4.4,2.6,8.6,5.7,12.1c3.7,4.1,7.1,3.7,9.7-1.1c2.6-4.7,3.3-9.9,3.1-15.2c0-1.5-0.7-3.2-2.4-4.1
					c-0.5,2.8-1,5.4-1.5,8c-0.3,1.6-1,3.3-2.8,3.4c-1.9,0.1-2.7-1.7-3.2-3.3c-0.7-2.5-1.2-5.1-1.8-7.7c-0.1-0.5-0.7-0.8-1.1-1.2
					c-0.2,0.2-0.4,0.3-0.5,0.5C-1826.1-1550-1825.6-1543-1820.4-1537.4z"/>
			</g>
		</g>
	</g>
	<g id="NO_EDITAR_3_">
		<circle class="st0" cx="-1740.4" cy="-589.4" r="242.4"/>
		<g>
			<path class="st4" d="M-1479.6-588.2c0-39.5-8.8-76.9-24.5-110.5h243.6l-102.5-29c-19.9-54.3-51.5-104-93.6-146.1
				C-1532.9-950-1634.3-992-1742.2-992c-107.9,0-209.3,42-285.5,118.3c-42.1,42.1-73.7,91.9-93.6,146.1l-102.5,29h243.6
				c-15.6,33.6-24.4,71-24.4,110.5c0,39.4,8.8,76.9,24.4,110.5h-243.6l102.5,29c19.9,54.3,51.6,104,93.6,146.1
				c76.3,76.3,177.7,118.3,285.5,118.3c107.9,0,209.3-42,285.5-118.3c42.1-42.1,73.7-91.8,93.6-146.1l102.5-29h-243.6
				C-1488.4-511.3-1479.6-548.8-1479.6-588.2z M-2090.2-727.6c55.3-138,190.3-235.4,348-235.4c157.7,0,292.7,97.4,348,235.4h-125.7
				c-46.5-73.9-128.8-123.1-222.3-123.1c-93.6,0-175.8,49.2-222.3,123.1H-2090.2z M-1508.6-588.2c0,40-10,77.6-27.7,110.5
				c-5.4,10.1-11.6,19.8-18.4,29c-42.6,57.2-110.7,94.2-187.4,94.2c-76.7,0-144.8-37-187.4-94.2c-6.8-9.2-13-18.8-18.4-29
				c-17.7-32.9-27.7-70.5-27.7-110.5c0-40,10.1-77.6,27.7-110.5c5.4-10.1,11.6-19.8,18.4-29c42.6-57.2,110.7-94.2,187.4-94.2
				c76.8,0,144.8,37,187.4,94.2c6.8,9.2,13,18.8,18.4,29C-1518.6-665.8-1508.6-628.2-1508.6-588.2z M-1394.2-448.8
				c-55.3,138-190.3,235.4-348,235.4c-157.7,0-292.7-97.4-348-235.4h125.7c46.5,73.9,128.8,123.1,222.3,123.1
				c93.6,0,175.8-49.2,222.3-123.1H-1394.2z"/>
			<path id="SVGID_x5F_17_x5F_" class="st2" d="M-1422.5-442.7h28.6c-18.3,49.1-47.3,94-86,132.1c-70.1,69-163.2,106.9-262.3,106.9
				c-99.1,0-192.2-38-262.3-106.9c-38.7-38.1-67.7-83-86-132.1h28.6c50.8,124.7,174.8,212.8,319.7,212.8S-1473.3-318-1422.5-442.7z"
				/>
			<text>			<textPath  xlink:href="#SVGID_x5F_17_x5F_" startOffset="2602.6721%">
<tspan  class="st4" style="font-family:'PatuaOne-Regular'; font-size:95.6102px; letter-spacing:238.2;">PATINETE</tspan>			</textPath>
</text>
		</g>
		<path id="SVGID_x5F_18_x5F_" class="st2" d="M-1456.7-588.2c0,157.7-127.8,285.5-285.5,285.5s-285.5-127.8-285.5-285.5
			s127.8-285.5,285.5-285.5S-1456.7-745.9-1456.7-588.2z"/>
		<text>		<textPath  xlink:href="#SVGID_x5F_18_x5F_" startOffset="3677.1392%">
<tspan  class="st4" style="font-family:'PatuaOne-Regular'; font-size:96.6126px; letter-spacing:80;">TALLER DEL</tspan>		</textPath>
</text>
		<g id="TinLdq_14_">
			<g>
				<path class="st4" d="M-1368.7-580.6c9.9,1.7,19,3.3,29.7,5.1c-21.3-29.8-41.8-58.4-62.3-87.1c-0.4,0.2-0.9,0.4-1.3,0.5
					c5.2,18.3,10.5,36.7,16,56.1c-11.1-1.8-21.5-3.5-33.6-5.5c25.2,33.3,49.4,65.3,73.6,97.3c0.4-0.2,0.7-0.3,1.1-0.5
					C-1353.2-536.4-1360.8-558.1-1368.7-580.6z"/>
			</g>
		</g>
		<g id="TinLdq_13_">
			<g>
				<path class="st4" d="M-2115.7-580.6c-9.9,1.7-19,3.3-29.7,5.1c21.3-29.8,41.8-58.4,62.3-87.1c0.4,0.2,0.9,0.4,1.3,0.5
					c-5.2,18.3-10.5,36.7-16,56.1c11.1-1.8,21.5-3.5,33.6-5.5c-25.2,33.3-49.4,65.3-73.6,97.3c-0.4-0.2-0.7-0.3-1.1-0.5
					C-2131.2-536.4-2123.6-558.1-2115.7-580.6z"/>
			</g>
		</g>
		<g id="_x33_cX7Jq.tif_7_">
			<g>
				<path class="st4" d="M-1713.4-560.7c-0.3,0.2-0.6,0.4-1.1,0.6c-0.7-2.6-1.5-5.1-2.2-7.6c-0.1-0.3,0.4-0.9,0.7-1.2
					c1.3-0.9,2.6-1.7,4.1-2.7c-12.6-62.5-25.2-125.1-37.8-187.8c-0.9,0-1.6,0-2.5,0c-0.4-2.5-0.8-4.9-1.3-7.7
					c1.9-0.3,3.8-0.6,5.7-0.7c0.3,0,1,0.7,1.1,1.2c1.8,8.7,3.6,17.5,5.4,26.2c3.4,16.7,6.9,33.3,10.3,50c0.9,4.4,1.8,8.8,3.1,13.1
					c-5.3-30.3-10.6-60.6-15.9-91.1c3-0.4,5.8-0.8,8.8-1.2c-0.6-3.4-1.2-6.6-1.9-10.2c-2.3,0.2-4.6,0.2-6.9,0.5
					c-2.1,0.3-4.2,0.9-6.3,1.4c-1,0.3-1.3,1-1.3,2.1c-0.1,1.8-0.5,3.5-1,5.2c-0.8,2.1-2.1,2.6-4.2,1.9c-0.7-0.2-1.5-0.4-2.3-0.4
					c-3.4,0.1-6.8,0.2-10.2,0.3c-0.8,0-1.8-0.2-2.5-0.6c-2-1.1-4-1-6.1-0.9c-9.6,0.4-19.3,0.7-28.9,1.1c-0.8,0-1.7,0.2-2.5,0.6
					c-1.3,0.6-2.3,0.3-3.2-0.7c-2.4-2.7-2.6-9.3-0.2-12.5c-0.3,4-0.7,8,2.9,10.8c2.5-3.2,1.1-9.6-2.5-12.7c3.6-2,7,1.1,8.2,7.6
					c9.7-0.6,19.4-1.2,29.2-1.8c0.1-1,0.2-1.9,0.4-3.1c-1,0-1.8,0-2.5,0c-8.2,0-16.4-0.1-24.6-0.1c-1.6,0-2.7-0.6-3.7-2.2
					c0.9,0,1.5,0,2.1,0c9.1,0,18.1,0,27.2-0.1c2.1,0,4.1-0.5,6.2-0.8c0-0.2,0-0.4-0.1-0.6c-2.1,0.1-4.1,0.2-6.2,0.3
					c1.5-1.6,2.7-3.4,5.4-3.2c3.4,0.2,6.9,0.1,10.3,0c1.7-0.1,2.8,0.3,2.7,2c1.5,0.7,2.7,1.2,4.3,1.9c4-2.3,8.9-2.9,13.9-3.1
					c0.8,0,1.6-0.7,2.4-1.1c0.9-0.4,1.7-1.2,2.6-1.2c4.6-0.1,9.1-0.1,13.7-0.1c0.2,0.6,0.5,1.1,0.7,1.6c0.1-0.1,0.2-0.3,0.3-0.4
					c1.1,0.5,2.1,1,3.2,1.5c1.2,0.5,2.5,1.3,3.7,1.3c7.1-0.1,14.3-0.3,21.4-0.5c1.2,0,2.5,0.2,3.7,0.1c0.8,0,1.8-0.1,2.4-0.6
					c3.9-2.5,6.3-0.6,7.7,2.1c1.9,3.5,2.1,7.2,0.4,10.9c-1.3,2.8-3.3,3.5-6.1,2.3c-0.6-0.2-1.3-0.3-1.9-0.3
					c-10.6,0.2-21.1,0.4-31.7,0.6c-3.6,0.1-7.1-0.1-10.7-0.1c-1.4,0-2-0.7-2.2-2c-0.6-3.7-1.2-7.4-2-11.1c-0.2-0.9-0.9-1.8-1.3-2.7
					c-0.3,0.1-0.5,0.2-0.8,0.3c1.2,8.1,2.3,16.2,3.5,24.5c-1.3,0.2-2.4,0.4-3.5,0.5c12.4,62.3,24.8,124.4,37.2,186.6
					c0.1,0,0.2,0.1,0.3,0.1c4.7,0.3,4.7,0.3,5.4,4.9c0.2,1.4,0.8,2.6-0.2,4.3c-0.7,1.2,0.5,3.4,0.8,5.1c1.8,9.5,3.7,18.9,5.5,28.4
					c1.6,8.1,3.1,16.3,4.8,24.4c1.6,7.3,3.4,14.5,5.3,22.1c-4.2-0.7-6.7,1.7-8.5,5.1c0.4,0.3,0.7,0.6,1.1,0.7
					c5.9,1.9,11.7,4,17.7,5.6c2.3,0.6,4.8,0.3,7.2,0.1c0.9,0,1.7-0.8,2.8-1.3c-4.1-5.4-9.9-7.1-15.5-9.2c5.8,1.2,11.6,2.1,16.4,6
					c2.4,2,2.7,3.9,0.7,6.3c-1.5,1.7-1.2,2.7,0.2,4.1c1.6,1.8,3,3.8,4.5,5.8c-2.6,2.9-5.9,4.1-9.5,4.7c4,1.5,7.9,1,12.1-0.9
					c1.5,4.6,3,8.9,4.4,13.3c0.1,0.5-0.3,1.4-0.8,1.8c-2.7,2.5-6.1,3.6-10.1,4.1c4.2,1.6,7.9,1.3,12.1,0c0.1,3-0.1,5.7,0.3,8.4
					c0.6,4.2-1.8,6.2-5.3,7.4c-2.3,0.8-4.8,1.1-7.2,1.7c3.4,2,7.2,1.7,11.7,1.3c-1.4,3.8-2.1,7.6-4.2,10.5c-1.4,1.9-4.6,2.4-7.1,3.5
					c-0.6,0.2-1.3,0.2-2,0.7c1,0.2,2,0.5,3,0.7c1.1,0.2,2.2,0.2,3.4,0.6c-4.4,3.8-7.1,10.2-14.9,8.9c0.1,0.2,0.1,0.4,0.2,0.6
					c0.8,0.4,1.6,0.9,2.6,1.5c-1,0.7-1.6,1.2-2.3,1.6c-9.1,4.2-18,4.7-27.1-0.5c-4.9-2.8-9.4-6-13.2-10.2
					c-11.3-15.1-15.6-25.3-13.4-46.9c-0.6,1.6-1.1,3-1.7,4.4c-0.2,0-0.3,0-0.5-0.1c-0.1-0.4-0.3-0.8-0.3-1.2
					c-0.1-2.2-0.4-4.5-0.2-6.7c0.3-4.9,1.8-9.4,5.1-13.1c2.2-2.5,4.6-4.9,7.2-7c4.9-3.9,6.6-8.8,5.6-14.8c-1.9-11.4-3.9-22.7-6-34.1
					c-1.2-6.3-2.6-12.6-3.9-19c-0.4-2.1-0.7-4.3-1.3-6.4c-0.2-0.6-1-1.1-1.6-1.6c-0.1-0.1-0.2-0.1-0.4-0.1c-3.9-1.2-4.7-3.5-2.1-6.8
					c0.4-0.6,1.2-1,1.4-1.6c0.4-1,0.5-2.1,0.7-3.1C-1712.9-560.6-1713.1-560.6-1713.4-560.7z M-1703.7-460.8
					c-3.7,2.9-6.3,11.1-6.7,16.1c-0.8,9.1,0.3,18,4.6,26.4c3.8,7.6,8.9,13.9,17,17.2c6.7,2.7,13.3,2,19.1-2.4
					c5.7-4.3,8.8-10.5,9.9-17.3c1.6-10.1,0.8-20-3.8-29.4c-3.7-7.5-8.7-13.7-16.5-17.2c-1.6-0.7-3.4-1.1-5.5-1.8
					c0.4,2.5,0.6,4.4,1,6.2c0.1,0.6,0.7,1.3,1.3,1.5c9.4,4.1,14.2,11.8,16.3,21.3c1,4.3,0.7,8.9,0.9,13.4c0.2,3.5-0.7,6.7-2.2,9.8
					c-3,6.5-7.4,11.1-15.3,11.2c-2.7,0-5.4-0.8-6.1-2.5c0.5,0,0.9-0.1,1.4-0.1c5.2,0,9-2.6,11.4-7c5-8.9,4.7-18.2,0.9-27.4
					c-1.5-3.6-3.5-6.9-7-9.5c0.4,3.6,0.8,6.7,1.2,9.9c0.4,3.7,0.9,7.5,1.3,11.2c0.2,1.8-1.2,3.4-2.8,3.5c-1.9,0.1-2.3-1.2-2.7-2.7
					c-0.5-1.7-1.3-3.3-2.2-4.8c-0.4-0.6-1.7-1-2.4-0.9c-0.7,0.2-1.4,1.2-1.6,1.9c-0.3,0.8-0.2,1.8-0.1,2.7c0.1,0.9,0.2,1.8,0.4,2.7
					c-0.3,0.1-0.5,0.1-0.8,0.2C-1699.6-438-1700.7-449.7-1703.7-460.8z M-1714.3-783.6c0.3,4.4,0.3,4.4,3.8,4.3
					c9.8-0.3,19.5-0.6,29.3-0.8c1.6,0,1.9-0.8,1.7-2.1c-0.3-1.4-1.1-1.9-2.6-1.9c-4.3,0.2-8.6,0.4-12.9,0.4
					C-1701.4-783.6-1707.8-783.6-1714.3-783.6z"/>
				<path class="st4" d="M-1827.9-470.8c-5.9,1.3-9,5.8-12,10.6c0.6-5.4,4.8-13,11.2-15c5.3-1.6,11.6,0.4,15.3,5.7
					c2.6,3.6,4.7,7.6,7.2,11.4c2.4,3.6,5.3,6.6,9.7,7.6c1,0.2,2,0.2,3.6,0.4c-2.1-1.4-4.2-2.2-5.3-3.6c-2.3-2.9-4.3-6.2-6.1-9.4
					c-2.3-4.1-4.3-8.3-7.8-11.6c-7.7-7.3-19.8-5.6-25.2,3.5c-3,5.1-4.4,10.7-5.2,16.5c-0.1,0.7-0.2,1.4-0.3,2.1
					c-0.2,0-0.7-5-0.5-7.4c0.5-5.8,2-11.2,5.6-15.8c5.3-6.9,13.6-9.2,21.8-6.3c6.3,2.2,10.5,6.7,13.7,12.3c2,3.5,3.4,7.4,5.3,11
					c0.9,1.7,2,3.2,3.1,4.8c1,1.5,2.4,1.9,4.3,1.9c18.3-0.3,36.6-0.6,54.9-0.7c2.2,0,3.4-0.6,4.4-2.8c5.3-12.1,10.9-24,16.3-36
					c2.4-5.3,4.8-10.7,7.2-16c0.1-0.3,0.4-0.6,1-0.9c1.9,9.4,3,18.9,4.4,28.4c-9.6,4.6-21.2,21.7-20.6,31.8c0.1,1.1-0.4,1.5-1.5,1.5
					c-9.4-0.3-18.7-0.6-28.1-1c-4.3-0.2-8.7-0.5-13-0.7c-10.9-0.3-21.9-0.5-32.8-1c-4.4-0.2-7.8,1.7-11.7,4.1
					c2.8,0.1,5.1,0.3,7.5,0.4c12.7,0.4,25.4,0.6,38,1c6.8,0.2,13.7,0.5,20.5,0.8c6.5,0.3,13,0.5,19.6,0.7c0.5,0,0.9,0.1,1.2,0.1
					c0.9,3.5,1.8,6.7,2.5,10.1c0.2,0.7-0.1,1.8-0.6,2.3c-1.9,1.8-3.8,3.4-5.9,4.9c-0.5,0.4-1.5,0.4-2.3,0.4
					c-8.7-0.3-17.4-0.6-26.1-1c-4.7-0.2-9.4-0.2-14-0.9c-9.2-1.3-18.4-1.3-27.6-1.6c-0.5,0-1,0-1.6,0c-0.3,1.4-0.6,2.6-0.8,3.9
					c-0.3,2.6-0.9,3.2-3.5,3.7c-1.3,0.3-2.6,0.3-4,0.8c1.3,0.2,2.6,0.6,3.9,0.7c2.1,0.2,2.5,0.6,1.8,2.7c-1.5,4.5-3.2,5.7-8,5.6
					c-0.3,0-0.5,0-0.8,0.4c1.3,0.3,2.7,0.5,3.9,0.9c0.4,0.1,0.9,1.1,0.8,1.2c-1.7,2-3.1,4.5-6,5.1c-0.8,0.2-1.7,0.1-2.6,0.1
					c0.6,0.3,1.1,0.6,1.9,1c-2.9,2-5.8,2.4-8.8,1.3c-7.1-2.5-11.5-7.8-15-14.2c-3-5.6-5.4-14.3-5.9-20.4c-0.6-6.7-0.3-13.3,1.7-19.8
					C-1837.3-461.1-1834.3-467-1827.9-470.8z M-1820.4-413.4c-1.5,1.2-3.1,1.1-4.4,0c-1.1-0.9-2.2-2-2.9-3.2
					c-3.1-5.2-4.1-11.1-4.8-17c-0.2-1.6-0.8-3.2-0.8-4.8c0-1.9,0.5-3.9,0.8-5.8c0.6-4.3,1.2-8.5,3.5-12.3c1.1-1.8,2.5-3.3,4.9-3
					c1.8,0.2,3.8,2.2,4.3,3.8c-8.9,2-8.9,9.3-6.9,12.7c2.3,0.6,2.3-1.1,3.1-2.2c0.5-0.8,1.4-1.7,2.2-1.9c0.7-0.1,1.9,0.8,2.2,1.5
					c1,2.2,2.5,1.7,4.2,1.2c-0.4-4.4-2.9-11.2-5.3-14.4c-0.8-1.1-1.7-2.2-2.8-3c-2.3-1.9-4.9-1.8-6.6,0.6c-1.5,2.2-2.8,4.8-3.5,7.4
					c-2.4,9.9-1.5,19.7,1,29.4c1.1,4.4,2.6,8.6,5.7,12.1c3.7,4.1,7.1,3.7,9.7-1.1c2.6-4.7,3.3-9.9,3.1-15.2c0-1.5-0.7-3.2-2.4-4.1
					c-0.5,2.8-1,5.4-1.5,8c-0.3,1.6-1,3.3-2.8,3.4c-1.9,0.1-2.7-1.7-3.2-3.3c-0.7-2.5-1.2-5.1-1.8-7.7c-0.1-0.5-0.7-0.8-1.1-1.2
					c-0.2,0.2-0.4,0.3-0.5,0.5C-1826.1-426-1825.6-419-1820.4-413.4z"/>
			</g>
		</g>
	</g>
</g>
<g id="Layer_3">
</g>
</svg>
