<svg enable-background="new 0 0 945.3 945.3" viewBox="0 0 945.3 945.3" xmlns="http://www.w3.org/2000/svg"><g fill="#9c3"><path d="m254.7 525.5c111.3-144.7 221.5-287.9 331.7-431.1.3.3.6.6.9.8-29.3 98.1-58.6 196.2-88.2 295.2 61.9 15.9 123.1 31.6 185.6 47.7-114 145.6-227.3 290-340.5 434.4-.4-.3-.8-.7-1.1-1 32.2-107.5 64.4-215 97-323.7-61.9-7.4-123-14.7-185.4-22.3z"/><path d="m755.5 826.5 29.1 41.7-237.5 3.9 112-183.1 34.7 49.2c377.6-325.6 32.7-674.7 32.7-674.7s449.5 365.7 29 763z"/><path d="m188 118.8-29.1-41.7 237.5-3.9-112 183.1-34.7-49.2c-377.6 325.7-32.7 674.8-32.7 674.8s-449.5-365.8-29-763.1z"/></g></svg>