<svg enable-background="new 0 0 2609.2 443.9" viewBox="0 0 2609.2 443.9" xmlns="http://www.w3.org/2000/svg"><g fill="#fff"><path d="m309.6 211.9c-2.7 6-28.7 22.2-31.7 37.1-3.5 17.6-3 33.6.6 50.4 1.1 5.1 2.1 10.2 2.6 15.4.8 7-5.6 12.2-11.6 8.3-12-7.9-25.4-11.3-39-14.4-3.9-.9-8.2.7-12.4.6-19.1-.1-36.3 6.5-52.5 15.7-7.6 4.4-13.2-2.5-14.5-5.7-1.4-3.2 2.2-5.2 3.8-14.8s-2.6-32.3-6.8-47.8c-3-11.2-10.1-21.4-16.4-31.5-2.9-4.7-8.4-7.8-12.3-12-4.8-5.3.6-16.5 8.9-16.7 13.6-.2 24.8-6.1 36.7-11.3 18.1-8.1 30.9-21 39.7-38.3 5.6-11.1 12.1-11.9 21-3.5 10.9 10.3 23.9 18.9 32.8 30.6 8.6 11.4 19.8 16.5 31.6 21.8 2.3 1 4.8 1.9 7.2 2 9.3.7 15.1 8.1 12.3 14.1zm-91.3-57.4c-2.4 2.8-4.6 6-7.4 8.6-8.9 8.1-16.8 18.1-27.2 23.5-16.3 8.3-34.2 13.4-52.8 20.4 31.1 28.2 36.5 63.3 34.8 102.5 33.4-15.2 66.2-17.7 99.9-3.2-1.3-13.7-2.6-24.8-3.3-35.9-1.3-20.9 6.8-37.9 21.4-52.4 3.3-3.2 5.9-7.2 7.7-9.3-31.8-6.5-62.9-43.4-73.1-54.2z"/><path d="m263.5 45.3c0 11.6-.6 26.8.2 41.8.5 9.1 2.5 18.4 5.3 27.1 11 33.4 36.2 43.2 72.1 35.4 18.2-3.9 35.4-12.3 53.1-18.6 2.7-1 5.4-1.9 8.2-2.2-17.8 16.7-39.1 26.1-62.9 28.7-14.2 1.6-29.9 3.1-43-1.1-16.6-5.3-29.7-17.8-34.8-36.4-6-22.2-5.1-56.4 1.8-74.7z"/><path d="m132.3 426c5.3-30.7 20.9-55.2 45-74 7-5.5 14.7-11.8 22.9-13.6 19.7-4.4 38.8-1.5 54.3 13.1 17.2 16.2 31.2 34.5 38 57.6-8.5-11.9-16.2-24.5-25.9-35.4-7.1-8.1-16-15.2-25.3-20.7-28.4-16.8-48.7-6-68 12-17.1 16-28.6 36.1-38.3 57.3-.5 1.3-1.7 2.5-2.7 3.7z"/><path d="m149.8 22.8c6.2 12.1 14.5 23.6 18.1 36.5 5 17.5 9.4 36.2 8.5 54.2-1.1 21.8-13.2 39.2-35 47.9-17.9 7.2-64.5 7.5-83.9-2.6 13.8 1 26.1 3.1 38.4 2.6 20.6-.8 41.2-3.5 57.4-18.3 18.3-16.6 18.6-38.4 13.5-59.8-4.4-18.4-12.5-36-18.9-54-.6-1.6-.9-3.4-1.3-5 1-.5 2.1-1 3.2-1.5z"/><path d="m10.2 211.6c31.1-3.8 58.9 3.9 84.2 21.8 9 6.4 16.3 13.4 21.8 23.6 9.8 18.1 8.2 35.5-1 52.1-8.1 14.6-18.8 27.8-28.6 41.4-1.3 1.8-4 2.6-7.6 2.3 5.2-6.7 10.6-13.3 15.7-20.1 9.4-12.6 15.5-26.8 18.2-42.2 4.9-28.7-11.3-49.4-41.8-61.4-17.4-6.8-36-10.4-54-15.5-2.3-.7-4.6-1.3-6.9-2z"/><path d="m356.9 380.2c-15.1-10.9-26.4-24.3-33.7-40.6-5.8-12.9-11.1-26.5-13.7-40.3-2.2-11.5-1.2-24 4.5-35 5.8-11.2 13.9-20.8 26.3-24.7 17-5.3 34.2-9.6 51.5-13.9 3.4-.8 7.3.6 10.9 3.3-8.4 1.3-16.9 1.9-25 3.9-18 4.6-35.3 11-48.5 25.1-11 11.8-14.1 25.5-11.9 41.6 3.9 28.3 19.7 50.3 35.8 72.3 1.4 1.9 2.9 3.5 4.2 5.4.3.4-.1 1.2-.4 2.9z"/><g enable-background="new"><path d="m515.2 264.2c36.4 0 52.4 13.7 52.4 42.8 0 29-16.8 42.1-52.1 42.1h-20.3v33.8h-32v-118.7zm-19.9 60.3h18.8c13.9 0 20.3-5 20.3-16.3s-6.1-16.6-20.5-16.6h-18.7v32.9z"/><path d="m619.4 292.8v16.4h60.7v27.2h-60.7v17.8h66.3v28.7h-98.2v-118.7h97.2v28.7h-65.3z"/><path d="m754.6 264.2c35.1 0 63.6 25.6 63.6 59.4s-28.5 59.3-63.6 59.3h-50.9v-118.7zm-18.9 90.1h17.7c17.7 0 32.1-13.3 32.1-30.8s-14.4-30.8-32.1-30.8h-17.7z"/><path d="m919.4 382.9-7.6-20.8h-44.4l-7.6 20.8h-38.2l46.9-118.7h41.8l47.3 118.7zm-16.2-46.3-13.8-36.9-13.7 36.9z"/><path d="m1026.4 262.5c16.8.2 33.6 5.9 46.7 17.3l-20.8 21.9c-7.4-6.5-16.7-9.8-25.9-9.8-17.2 0-32.3 11.9-32.3 31.7 0 17.2 12.5 31.1 30.3 31.1 8.4 0 16-2.2 22.3-5.9v-11.3h-20.3v-22.7h50.7v51.9c-14.3 11.2-32.7 18-52.8 18-35.1 0-63.6-27.3-63.6-61 .2-39.2 32-61.6 65.7-61.2z"/><path d="m1224.3 323.5c0 33.7-28.5 61-63.6 61s-63.6-27.3-63.6-61 28.5-61 63.6-61c35.2 0 63.6 27.3 63.6 61zm-93.9 0c0 17.2 12.5 31.1 30.3 31.1s30.3-13.9 30.3-31.1-12.5-31.1-30.3-31.1c-17.7.1-30.3 14-30.3 31.1z"/><path d="m1307.7 262.5c16.8.2 33.6 5.9 46.7 17.3l-20.8 21.9c-7.4-6.5-16.7-9.8-25.9-9.8-17.2 0-32.3 11.9-32.3 31.7 0 17.2 12.5 31.1 30.3 31.1 8.4 0 16-2.2 22.3-5.9v-11.3h-20.3v-22.7h50.7v51.9c-14.3 11.2-32.7 18-52.8 18-35.1 0-63.6-27.3-63.6-61 .2-39.2 32-61.6 65.7-61.2z"/><path d="m1381.6 382.9v-118.7h32v118.7z"/><path d="m1527.5 382.9-7.6-20.8h-44.4l-7.6 20.8h-38.2l46.9-118.7h41.8l47.3 118.7zm-16.1-46.3-13.8-36.9-13.7 36.9z"/></g><g enable-background="new"><path d="m1750.1 382.9-21.4-68.3-21.4 68.3h-32.8l-39-118.7h35.7l21.2 68.8 20.6-68.8h31.2l20.6 68.8 21.2-68.8h35.7l-39 118.7z"/><path d="m1912.2 382.9-7.6-20.8h-44.4l-7.6 20.8h-38.2l46.9-118.7h41.8l47.3 118.7zm-16.1-46.3-13.8-36.9-13.7 36.9z"/><path d="m2055.7 354.2v28.7h-90v-118.7h32v90z"/><path d="m2121.9 264.2c35.1 0 63.6 25.6 63.6 59.4s-28.5 59.3-63.6 59.3h-50.9v-118.7zm-18.9 90.1h17.7c17.7 0 32.1-13.3 32.1-30.8s-14.4-30.8-32.1-30.8h-17.7z"/><path d="m2329.6 323.5c0 33.7-28.5 61-63.6 61s-63.6-27.3-63.6-61 28.5-61 63.6-61 63.6 27.3 63.6 61zm-93.9 0c0 17.2 12.5 31.1 30.3 31.1s30.3-13.9 30.3-31.1-12.5-31.1-30.3-31.1c-17.7.1-30.3 14-30.3 31.1z"/><path d="m2403.1 264.2c38.7 0 54.2 12.4 54.2 41.3 0 19.4-7 31.3-23.5 37l26.7 40.4h-36.7l-23-36.2-5.4.1h-13.6v36.1h-32v-118.7zm-21.4 57.9h23c14 0 19.3-4.3 19.3-14.6s-5.3-14.6-19.3-14.6h-23z"/><path d="m2507.7 292.8v21.6h56v27.2h-56v41.3h-32v-118.7h93.4v28.7h-61.4z"/></g><g enable-background="new"><path d="m541.7 95.7c-8.4-1.5-16-2.2-22.9-2.2-9 0-16 1.2-21 3.7-8.2 4-12.6 9.5-13.2 16.3-.4 5.2-.5 10.9-.5 16.8 0 21.6 1.8 37.9 5.3 49 1.3 3.9 4.8 7 10.2 9.3 4.4 1.8 9 2.7 13.9 2.7 3.8 0 8.6-.4 14.5-1.3 7.9-1.1 12.7-1.8 14.5-2l-4 14.6-31.1 4.4c-4 0-10.1-.9-18.1-2.7-9-2.2-14.5-4.3-16.3-6.2-4.8-5.5-8.8-16.8-12.1-34-2.7-14.3-4-26.5-4-36.6 0-3.5 1-9.2 3.1-17s3.9-13.4 5.5-16.8c1-2 3.8-4.7 8.6-8.1 4.8-3.5 8.3-5.6 10.6-6.3 5-1.6 12.7-2.4 23.2-2.4 17.9 0 31 1.4 39.3 4.2z"/><path d="m630.6 151.1-41.9 2.9v4.9c-.1 16.6.9 26.1 2.9 28.5 2.1 2.4 16.9 3.4 44.5 2.9l-2.6 13c-23.2 2.1-41.3 3.1-54.4 3.1-7.9 0-12.3-.5-13-1.6-2.4-3.2-3.7-30.7-3.7-82.5 0-25.4 1.2-39.3 3.6-41.7s21.7-3.7 57.9-3.7c5.9 0 10.9.1 15.2.2l-3.5 15.7c-25.4 0-39.5 1.6-42.5 4.8-2.3 2.6-3.6 14.3-3.8 35.3l2.7 3.5 40.3 2z"/><path d="m754.1 201.3-19.4 4.9c-13.2-41.3-27.8-74-43.7-98.1l-6 2.9c-2.1 26.1-3.4 57.4-3.8 93.9l-19.2 2c0-9.9-.3-26.8-.9-50.7-.5-22.3-.7-39.3-.7-50.9l2.6-24.3 34.8-3.7c12.3 21.2 20 34.6 23.1 40.1 8.2 15.6 14.2 29.8 18.1 42.6l-1.1-71.4 1.8-12.1 26.5-.7c-7.1 55.3-11.1 97.1-12.1 125.5z"/><path d="m868.9 92.4-30.2 5.9-3.3 4.8c-.7 22.4-2 56.1-3.8 101l-20.5 4.2c.4-5 .5-10.4.5-16.3 0-6.8-.2-17.2-.7-31.1s-.7-24.3-.7-31.2-.7-16.1-2.2-27.7l-5-3-28.4-3.3 2.4-15.6c29.8-1.1 59.7-2.4 89.9-3.8z"/><path d="m907.5 202.7-26.9 2.9c1.6-20 2.4-41 2.4-63l-1-64.5 32.8-2c4.8-.4 10.6-.1 17.6.7 6 .7 11.9 1.5 17.8 2.4l12.1 10.6c1.2 7.1 2.5 14.1 3.8 21 1.6 9 2.2 15.9 1.8 20.5v.9c-3.5 4-7.1 8.1-10.6 12.3-4.9 5.5-8.8 8.7-11.9 9.5 6.1 10.7 19 28.6 38.8 53.6l-17.2 4.9c-3.3-3.2-12.7-13.2-28.2-30.2-16-17.4-24.3-26.9-24.9-28.4l-2.9-8.4c9.9-2.7 15.8-4.5 17.8-5.5 3.7-1.8 8.4-6 14.3-12.4l-3.8-34.4-33.3 2c-.4 16.2-.5 30.5-.5 42.8-.2 24.5.5 46.1 2 64.7z"/><path d="m1064.1 151.1-41.9 2.9v4.9c-.1 16.6.9 26.1 2.9 28.5 2.1 2.4 16.9 3.4 44.5 2.9l-2.6 13c-23.2 2.1-41.3 3.1-54.4 3.1-7.9 0-12.3-.5-13-1.6-2.4-3.2-3.7-30.7-3.7-82.5 0-25.4 1.2-39.3 3.6-41.7s21.7-3.7 57.9-3.7c5.9 0 10.9.1 15.2.2l-3.5 15.7c-25.4 0-39.5 1.6-42.5 4.8-2.3 2.6-3.6 14.3-3.8 35.3l2.7 3.5 40.3 2z"/><path d="m1189.7 205.6c-6.5 0-18.7-.2-36.8-.7-.7-16.6-1.6-41.5-2.7-74.8-.1-11.6-.5-28.9-1.3-52l46.8-2.7c3.3-.1 10.2 1.2 20.8 3.8 10.6 2.7 16.7 5 18.4 7 .6.9 1.5 2.1 2.6 3.7 5.5 8.3 8.2 16.9 8.2 25.8 0 41.4-7 68.3-20.9 80.9-3.3 2.9-8.8 5.2-16.7 7-6.4 1.3-12.6 2-18.4 2zm28.9-101.5-16.7-9.7-23.8-.2c-1.1 24.4-1.6 44.3-1.6 59.7l.2 37.1c2.4.2 4.9.4 7.5.4 6.6 0 15.7-2.8 27.4-8.4 5-13.9 8-36.1 9-66.4-.4-3-1.1-7.1-2-12.5z"/><path d="m1339.2 151.1-41.9 2.9v4.9c-.1 16.6.9 26.1 2.9 28.5 2.1 2.4 16.9 3.4 44.5 2.9l-2.6 13c-23.2 2.1-41.3 3.1-54.4 3.1-7.9 0-12.3-.5-13-1.6-2.4-3.2-3.7-30.7-3.7-82.5 0-25.4 1.2-39.3 3.6-41.7s21.7-3.7 57.9-3.7c5.9 0 10.9.1 15.2.2l-3.5 15.7c-25.4 0-39.5 1.6-42.5 4.8-2.3 2.6-3.6 14.3-3.8 35.3l2.7 3.5 40.3 2z"/><path d="m1494.5 149.1-43.4 4.2-1.6 50.7-21.6 2.6c-1.1-26.6-2.3-66.5-3.7-119.7l4.2-7.1 73-2.2-6 16.7-38.1 3.3-5.1 3.8c-.1 2.7-.4 7.4-.7 14.1-.5 6-.7 10.7-.7 14.3 0 2.1.1 4 .2 5.9l46.1.2z"/><path d="m1568.1 206.2c-15.7 0-25.4-1.4-28.9-4.2-11.3-8.8-18.9-22.3-22.7-40.5-2.2-10.9-3.3-26.8-3.3-47.8 0-2.2.1-3.4.2-3.7 3.3-13.7 9.8-23.3 19.6-28.8 8.2-4.8 19.8-7.1 34.8-7.1 17.3 0 30 2.9 38.1 8.8 5.5 3.9 9.2 9.4 11.2 16.5 1.5 4.9 2.2 11.7 2.2 20.3 0 6.8-.4 15.1-1.1 24.9-.5 6.5-3.2 15.9-8.2 28.2-5.5 13.2-10.4 21.4-14.8 24.6-1.5 1.1-5.9 2.8-13.2 5.2-7.5 2.4-12.1 3.6-13.9 3.6zm-12.1-112.2c-2.3 0-5.5 2-9.6 6s-6.3 7.3-6.5 9.9c-.9 9.3-1.3 21.6-1.3 37 0 15.5 3.7 27.2 11.2 35.1 2 2.1 8.2 3.1 18.8 3.1 6.2 0 10.7-.5 13.4-1.6 2.1-.9 4.5-7.6 7.3-20.1 2-9.1 3.3-16.7 4-22.7.9-6.5 1.3-12.4 1.3-17.8 0-14.4-2.7-22.9-8.2-25.4-1.3-.7-6.2-1.5-14.6-2.4-7.7-.7-13-1.1-15.8-1.1z"/><path d="m1666 202.7-26.9 2.9c1.6-20 2.4-41 2.4-63l-.9-64.6 32.8-2c4.8-.4 10.6-.1 17.6.7 6 .7 11.9 1.5 17.8 2.4l12.1 10.6c1.2 7.1 2.5 14.1 3.8 21 1.6 9 2.2 15.9 1.8 20.5v.9c-3.5 4-7.1 8.1-10.6 12.3-4.9 5.5-8.8 8.7-11.9 9.5 6.1 10.7 19 28.6 38.8 53.6l-17.2 4.9c-3.3-3.2-12.7-13.2-28.2-30.2-16-17.4-24.3-26.9-24.9-28.4l-2.9-8.4c9.9-2.7 15.8-4.5 17.8-5.5 3.7-1.8 8.4-6 14.3-12.4l-3.8-34.4-33.3 2c-.4 16.2-.5 30.5-.5 42.8-.3 24.6.4 46.2 1.9 64.8z"/><path d="m1863.4 207.5v-9.2c0-49.9-1.8-79.6-5.3-89.1l-4.8.7c-4.5 11-9 22-13.5 32.9-5.5 13.1-9.5 24.2-11.9 33.5l-18.1 5.1c-1.6-9.5-5.7-21.7-12.3-36.6-7.9-17.9-12.9-29.9-14.8-35.9l-4.6 2.9c-.2 7.7-1.4 20.6-3.5 38.6-2 16.5-2.9 29.3-2.9 38.6 0 4.9.2 9.7.5 14.5l-26 2.6 6.6-63.3c1.7-13.7 4.2-34.2 7.5-61.7l32.6-5.1 5.5 12.6c1.5 2.9 3.6 7.5 6.4 13.7 6 13.9 10.9 28.5 14.8 43.9 2.6-9.5 7.3-21.2 14.1-35.1 9.1-18.3 14.6-29.7 16.5-34.2l28.9 3.1c.5 11 2.6 30.5 6.2 58.6 3.2 24.8 4.7 44.3 4.6 58.7l-.2 5.7z"/><path d="m1925.3 203.8-20.9 2.4c4.6-30.3 8.6-52.3 11.9-66.2 5.7-24.4 13.2-45.4 22.5-63l43.9-2.7c9.5 33.1 16.1 59 19.8 77.9.9 4 1.9 10 3.1 18l3.3 36-25.4-2.6-2.6-37.7-33.7 4.2-13.5-3.5zm52.5-60.7c0-3.5-1.8-11.8-5.3-24.8s-6.2-21-8.1-23.9l-14.5 1.3c-4.8 14.3-8.1 26.5-9.9 36.8-.2 2.1-.6 5.2-1.1 9.5-.5 2.6-1.1 6.3-1.8 11.3l40.1-3.7c.4.1.6-2.1.6-6.5z"/><path d="m2106.7 95.7c-8.4-1.5-16-2.2-22.9-2.2-9 0-16 1.2-21 3.7-8.2 4-12.6 9.5-13.2 16.3-.4 5.2-.5 10.9-.5 16.8 0 21.6 1.8 37.9 5.3 49 1.3 3.9 4.8 7 10.2 9.3 4.4 1.8 9 2.7 13.9 2.7 3.8 0 8.6-.4 14.5-1.3 7.9-1.1 12.7-1.8 14.5-2l-4 14.6-31.1 4.4c-4 0-10.1-.9-18.1-2.7-9-2.2-14.5-4.3-16.3-6.2-4.8-5.5-8.8-16.8-12.1-34-2.7-14.3-4-26.5-4-36.6 0-3.5 1-9.2 3.1-17s3.9-13.4 5.5-16.8c1-2 3.8-4.7 8.6-8.1 4.8-3.5 8.3-5.6 10.6-6.3 5-1.6 12.7-2.4 23.2-2.4 17.9 0 31 1.4 39.3 4.2z"/><path d="m2151.1 204.5-19.6 1.6-4.6-95.8c-.1-6.7-.5-17.2-1.1-31.3l31.7-2.9c-1.3 21.5-2.7 42.9-4 64.3-1.6 26.2-2.4 47.5-2.4 64.1z"/><path d="m2234 206.2c-15.7 0-25.4-1.4-28.9-4.2-11.3-8.8-18.9-22.3-22.7-40.5-2.2-10.9-3.3-26.8-3.3-47.8 0-2.2.1-3.4.2-3.7 3.3-13.7 9.8-23.3 19.6-28.8 8.2-4.8 19.8-7.1 34.8-7.1 17.3 0 30 2.9 38.1 8.8 5.5 3.9 9.2 9.4 11.2 16.5 1.5 4.9 2.2 11.7 2.2 20.3 0 6.8-.4 15.1-1.1 24.9-.5 6.5-3.2 15.9-8.2 28.2-5.5 13.2-10.4 21.4-14.8 24.6-1.5 1.1-5.9 2.8-13.2 5.2-7.5 2.4-12.1 3.6-13.9 3.6zm-12.1-112.2c-2.3 0-5.5 2-9.6 6.1-4.1 4-6.3 7.3-6.5 9.9-.9 9.3-1.3 21.6-1.3 37 0 15.5 3.7 27.3 11.2 35.2 2 2.1 8.2 3.1 18.8 3.1 6.2 0 10.7-.5 13.4-1.6 2.1-.9 4.5-7.6 7.3-20.2 2-9.2 3.3-16.7 4-22.7.9-6.5 1.3-12.4 1.3-17.8 0-14.4-2.7-22.9-8.2-25.5-1.3-.7-6.2-1.5-14.6-2.4-7.7-.7-13-1.1-15.8-1.1zm31.7-38.4c-4.6 3.4-10.9 8.2-18.7 14.3l-14.1 1.1c2.4-5 6.2-11.3 11.2-19 1-1 3.7-6.5 8.1-16.5l24.9 2.4c-1 .9-2.8 3.8-5.5 8.9-2.7 5-4.7 7.9-5.9 8.8z"/><path d="m2434.8 151.1-41.9 2.9v4.9c-.1 16.6.9 26.1 2.9 28.5 2.1 2.4 16.9 3.4 44.5 2.9l-2.6 13c-23.2 2.1-41.3 3.1-54.4 3.1-7.9 0-12.3-.5-13-1.6-2.4-3.2-3.7-30.7-3.7-82.5 0-25.4 1.2-39.3 3.6-41.7s21.7-3.7 57.9-3.7c5.9 0 10.9.1 15.2.2l-3.5 15.7c-25.4 0-39.5 1.6-42.5 4.8-2.3 2.6-3.6 14.3-3.8 35.3l2.7 3.5 40.3 2z"/><path d="m2558.3 201.3-19.4 4.9c-13.2-41.3-27.8-74-43.7-98.1l-6 2.9c-2.1 26.1-3.4 57.4-3.8 93.9l-19.2 2c0-9.9-.3-26.8-.9-50.7-.5-22.3-.7-39.3-.7-50.9l2.4-24.3 34.8-3.7c12.3 21.2 20 34.6 23.1 40.1 8.2 15.6 14.2 29.8 18.1 42.6l-1.1-71.4 1.8-12.1 26.5-.7c-7 55.3-10.9 97.1-11.9 125.5z"/></g></g></svg>