<?xml version="1.0" encoding="utf-8"?>
<!-- Generator: Adobe Illustrator 24.1.0, SVG Export Plug-In . SVG Version: 6.00 Build 0)  -->
<svg version="1.1" id="Layer_1" xmlns="http://www.w3.org/2000/svg" xmlns:xlink="http://www.w3.org/1999/xlink" x="0px" y="0px"
	 viewBox="0 0 2609.2 443.9" style="enable-background:new 0 0 2609.2 443.9;" xml:space="preserve">
<style type="text/css">
	.st0{fill:#FFFFFF;}
	.st1{enable-background:new    ;}
</style>
<g>
	<path class="st0" d="M309.6,211.9c-2.7,6-28.7,22.2-31.7,37.1c-3.5,17.6-3,33.6,0.6,50.4c1.1,5.1,2.1,10.2,2.6,15.4
		c0.8,7-5.6,12.2-11.6,8.3c-12-7.9-25.4-11.3-39-14.4c-3.9-0.9-8.2,0.7-12.4,0.6c-19.1-0.1-36.3,6.5-52.5,15.7
		c-7.6,4.4-13.2-2.5-14.5-5.7c-1.4-3.2,2.2-5.2,3.8-14.8s-2.6-32.3-6.8-47.8c-3-11.2-10.1-21.4-16.4-31.5c-2.9-4.7-8.4-7.8-12.3-12
		c-4.8-5.3,0.6-16.5,8.9-16.7c13.6-0.2,24.8-6.1,36.7-11.3c18.1-8.1,30.9-21,39.7-38.3c5.6-11.1,12.1-11.9,21-3.5
		c10.9,10.3,23.9,18.9,32.8,30.6c8.6,11.4,19.8,16.5,31.6,21.8c2.3,1,4.8,1.9,7.2,2C306.6,198.5,312.4,205.9,309.6,211.9
		L309.6,211.9z M218.3,154.5c-2.4,2.8-4.6,6-7.4,8.6c-8.9,8.1-16.8,18.1-27.2,23.5c-16.3,8.3-34.2,13.4-52.8,20.4
		c31.1,28.2,36.5,63.3,34.8,102.5c33.4-15.2,66.2-17.7,99.9-3.2c-1.3-13.7-2.6-24.8-3.3-35.9c-1.3-20.9,6.8-37.9,21.4-52.4
		c3.3-3.2,5.9-7.2,7.7-9.3C259.6,202.2,228.5,165.3,218.3,154.5L218.3,154.5z"/>
	<path class="st0" d="M263.5,45.3c0,11.6-0.6,26.8,0.2,41.8c0.5,9.1,2.5,18.4,5.3,27.1c11,33.4,36.2,43.2,72.1,35.4
		c18.2-3.9,35.4-12.3,53.1-18.6c2.7-1,5.4-1.9,8.2-2.2c-17.8,16.7-39.1,26.1-62.9,28.7c-14.2,1.6-29.9,3.1-43-1.1
		c-16.6-5.3-29.7-17.8-34.8-36.4C255.7,97.8,256.6,63.6,263.5,45.3L263.5,45.3z"/>
	<path class="st0" d="M132.3,426c5.3-30.7,20.9-55.2,45-74c7-5.5,14.7-11.8,22.9-13.6c19.7-4.4,38.8-1.5,54.3,13.1
		c17.2,16.2,31.2,34.5,38,57.6c-8.5-11.9-16.2-24.5-25.9-35.4c-7.1-8.1-16-15.2-25.3-20.7c-28.4-16.8-48.7-6-68,12
		c-17.1,16-28.6,36.1-38.3,57.3C134.5,423.6,133.3,424.8,132.3,426L132.3,426z"/>
	<path class="st0" d="M149.8,22.8c6.2,12.1,14.5,23.6,18.1,36.5c5,17.5,9.4,36.2,8.5,54.2c-1.1,21.8-13.2,39.2-35,47.9
		c-17.9,7.2-64.5,7.5-83.9-2.6c13.8,1,26.1,3.1,38.4,2.6c20.6-0.8,41.2-3.5,57.4-18.3c18.3-16.6,18.6-38.4,13.5-59.8
		c-4.4-18.4-12.5-36-18.9-54c-0.6-1.6-0.9-3.4-1.3-5C147.6,23.8,148.7,23.3,149.8,22.8z"/>
	<path class="st0" d="M10.2,211.6c31.1-3.8,58.9,3.9,84.2,21.8c9,6.4,16.3,13.4,21.8,23.6c9.8,18.1,8.2,35.5-1,52.1
		c-8.1,14.6-18.8,27.8-28.6,41.4c-1.3,1.8-4,2.6-7.6,2.3c5.2-6.7,10.6-13.3,15.7-20.1c9.4-12.6,15.5-26.8,18.2-42.2
		c4.9-28.7-11.3-49.4-41.8-61.4c-17.4-6.8-36-10.4-54-15.5C14.8,212.9,12.5,212.3,10.2,211.6L10.2,211.6z"/>
	<path class="st0" d="M356.9,380.2c-15.1-10.9-26.4-24.3-33.7-40.6c-5.8-12.9-11.1-26.5-13.7-40.3c-2.2-11.5-1.2-24,4.5-35
		c5.8-11.2,13.9-20.8,26.3-24.7c17-5.3,34.2-9.6,51.5-13.9c3.4-0.8,7.3,0.6,10.9,3.3c-8.4,1.3-16.9,1.9-25,3.9
		c-18,4.6-35.3,11-48.5,25.1c-11,11.8-14.1,25.5-11.9,41.6c3.9,28.3,19.7,50.3,35.8,72.3c1.4,1.9,2.9,3.5,4.2,5.4
		C357.6,377.7,357.2,378.5,356.9,380.2L356.9,380.2z"/>
</g>
<g class="st1">
	<path class="st0" d="M515.2,264.2c36.4,0,52.4,13.7,52.4,42.8c0,29-16.8,42.1-52.1,42.1h-20.3v33.8h-32V264.2L515.2,264.2z
		 M495.3,324.5h18.8c13.9,0,20.3-5,20.3-16.3c0-11.3-6.1-16.6-20.5-16.6h-18.7V324.5z"/>
	<path class="st0" d="M619.4,292.8v16.4h60.7v27.2h-60.7v17.8h66.3v28.7l-98.2,0V264.2h97.2v28.7H619.4z"/>
	<path class="st0" d="M754.6,264.2c35.1,0,63.6,25.6,63.6,59.4s-28.5,59.3-63.6,59.3h-50.9V264.2L754.6,264.2z M735.7,354.3h17.7
		c17.7,0,32.1-13.3,32.1-30.8c0-17.5-14.4-30.8-32.1-30.8h-17.7L735.7,354.3z"/>
	<path class="st0" d="M919.4,382.9l-7.6-20.8h-44.4l-7.6,20.8h-38.2l46.9-118.7h41.8l47.3,118.7H919.4z M903.2,336.6l-13.8-36.9
		l-13.7,36.9H903.2z"/>
	<path class="st0" d="M1026.4,262.5c16.8,0.2,33.6,5.9,46.7,17.3l-20.8,21.9c-7.4-6.5-16.7-9.8-25.9-9.8
		c-17.2,0-32.3,11.9-32.3,31.7c0,17.2,12.5,31.1,30.3,31.1c8.4,0,16-2.2,22.3-5.9v-11.3h-20.3v-22.7h50.7l0,51.9
		c-14.3,11.2-32.7,18-52.8,18c-35.1,0-63.6-27.3-63.6-61C960.9,284.5,992.7,262.1,1026.4,262.5L1026.4,262.5z"/>
	<path class="st0" d="M1224.3,323.5c0,33.7-28.5,61-63.6,61c-35.1,0-63.6-27.3-63.6-61s28.5-61,63.6-61
		C1195.9,262.5,1224.3,289.8,1224.3,323.5z M1130.4,323.5c0,17.2,12.5,31.1,30.3,31.1c17.8,0,30.3-13.9,30.3-31.1
		c0-17.2-12.5-31.1-30.3-31.1C1143,292.5,1130.4,306.4,1130.4,323.5z"/>
	<path class="st0" d="M1307.7,262.5c16.8,0.2,33.6,5.9,46.7,17.3l-20.8,21.9c-7.4-6.5-16.7-9.8-25.9-9.8
		c-17.2,0-32.3,11.9-32.3,31.7c0,17.2,12.5,31.1,30.3,31.1c8.4,0,16-2.2,22.3-5.9v-11.3h-20.3v-22.7h50.7l0,51.9
		c-14.3,11.2-32.7,18-52.8,18c-35.1,0-63.6-27.3-63.6-61C1242.2,284.5,1274,262.1,1307.7,262.5L1307.7,262.5z"/>
	<path class="st0" d="M1381.6,382.9V264.2h32v118.7H1381.6z"/>
	<path class="st0" d="M1527.5,382.9l-7.6-20.8h-44.4l-7.6,20.8h-38.2l46.9-118.7h41.8l47.3,118.7H1527.5z M1511.4,336.6l-13.8-36.9
		l-13.7,36.9H1511.4z"/>
</g>
<g class="st1">
	<path class="st0" d="M1750.1,382.9l-21.4-68.3l-21.4,68.3h-32.8l-39-118.7h35.7l21.2,68.8l20.6-68.8h31.2l20.6,68.8l21.2-68.8h35.7
		l-39,118.7H1750.1z"/>
	<path class="st0" d="M1912.2,382.9l-7.6-20.8h-44.4l-7.6,20.8h-38.2l46.9-118.7h41.8l47.3,118.7H1912.2z M1896.1,336.6l-13.8-36.9
		l-13.7,36.9H1896.1z"/>
	<path class="st0" d="M2055.7,354.2v28.7h-90V264.2h32v90H2055.7z"/>
	<path class="st0" d="M2121.9,264.2c35.1,0,63.6,25.6,63.6,59.4s-28.5,59.3-63.6,59.3H2071V264.2L2121.9,264.2z M2103,354.3h17.7
		c17.7,0,32.1-13.3,32.1-30.8c0-17.5-14.4-30.8-32.1-30.8H2103L2103,354.3z"/>
	<path class="st0" d="M2329.6,323.5c0,33.7-28.5,61-63.6,61c-35.1,0-63.6-27.3-63.6-61s28.5-61,63.6-61
		C2301.1,262.5,2329.6,289.8,2329.6,323.5z M2235.7,323.5c0,17.2,12.5,31.1,30.3,31.1c17.8,0,30.3-13.9,30.3-31.1
		c0-17.2-12.5-31.1-30.3-31.1C2248.3,292.5,2235.7,306.4,2235.7,323.5z"/>
	<path class="st0" d="M2403.1,264.2c38.7,0,54.2,12.4,54.2,41.3c0,19.4-7,31.3-23.5,37l26.7,40.4h-36.7l-23-36.2l-5.4,0.1h-13.6
		v36.1h-32V264.2L2403.1,264.2z M2381.7,322.1l23,0c14,0,19.3-4.3,19.3-14.6c0-10.3-5.3-14.6-19.3-14.6h-23V322.1z"/>
	<path class="st0" d="M2507.7,292.8v21.6h56v27.2h-56v41.3h-32V264.2h93.4v28.7H2507.7z"/>
</g>
<g class="st1">
	<path class="st0" d="M541.7,95.7c-8.4-1.5-16-2.2-22.9-2.2c-9,0-16,1.2-21,3.7c-8.2,4-12.6,9.5-13.2,16.3
		c-0.4,5.2-0.5,10.9-0.5,16.8c0,21.6,1.8,37.9,5.3,49c1.3,3.9,4.8,7,10.2,9.3c4.4,1.8,9,2.7,13.9,2.7c3.8,0,8.6-0.4,14.5-1.3
		c7.9-1.1,12.7-1.8,14.5-2l-4,14.6l-31.1,4.4c-4,0-10.1-0.9-18.1-2.7c-9-2.2-14.5-4.3-16.3-6.2c-4.8-5.5-8.8-16.8-12.1-34
		c-2.7-14.3-4-26.5-4-36.6c0-3.5,1-9.2,3.1-17c2.1-7.8,3.9-13.4,5.5-16.8c1-2,3.8-4.7,8.6-8.1c4.8-3.5,8.3-5.6,10.6-6.3
		c5-1.6,12.7-2.4,23.2-2.4c17.9,0,31,1.4,39.3,4.2L541.7,95.7z"/>
	<path class="st0" d="M630.6,151.1l-41.9,2.9v4.9c-0.1,16.6,0.9,26.1,2.9,28.5c2.1,2.4,16.9,3.4,44.5,2.9l-2.6,13
		c-23.2,2.1-41.3,3.1-54.4,3.1c-7.9,0-12.3-0.5-13-1.6c-2.4-3.2-3.7-30.7-3.7-82.5c0-25.4,1.2-39.3,3.6-41.7
		c2.4-2.4,21.7-3.7,57.9-3.7c5.9,0,10.9,0.1,15.2,0.2l-3.5,15.7c-25.4,0-39.5,1.6-42.5,4.8c-2.3,2.6-3.6,14.3-3.8,35.3l2.7,3.5
		l40.3,2L630.6,151.1z"/>
	<path class="st0" d="M754.1,201.3l-19.4,4.9c-13.2-41.3-27.8-74-43.7-98.1l-6,2.9c-2.1,26.1-3.4,57.4-3.8,93.9l-19.2,2
		c0-9.9-0.3-26.8-0.9-50.7c-0.5-22.3-0.7-39.3-0.7-50.9l2.6-24.3l34.8-3.7c12.3,21.2,20,34.6,23.1,40.1
		c8.2,15.6,14.2,29.8,18.1,42.6l-1.1-71.4l1.8-12.1l26.5-0.7C759.1,131.1,755.1,172.9,754.1,201.3z"/>
	<path class="st0" d="M868.9,92.4l-30.2,5.9l-3.3,4.8c-0.7,22.4-2,56.1-3.8,101l-20.5,4.2c0.4-5,0.5-10.4,0.5-16.3
		c0-6.8-0.2-17.2-0.7-31.1c-0.5-13.9-0.7-24.3-0.7-31.2c0-6.9-0.7-16.1-2.2-27.7L803,99l-28.4-3.3l2.4-15.6
		c29.8-1.1,59.7-2.4,89.9-3.8L868.9,92.4z"/>
	<path class="st0" d="M907.5,202.7l-26.9,2.9c1.6-20,2.4-41,2.4-63L882,78.1l32.8-2c4.8-0.4,10.6-0.1,17.6,0.7
		c6,0.7,11.9,1.5,17.8,2.4l12.1,10.6c1.2,7.1,2.5,14.1,3.8,21c1.6,9,2.2,15.9,1.8,20.5v0.9c-3.5,4-7.1,8.1-10.6,12.3
		c-4.9,5.5-8.8,8.7-11.9,9.5c6.1,10.7,19,28.6,38.8,53.6l-17.2,4.9c-3.3-3.2-12.7-13.2-28.2-30.2c-16-17.4-24.3-26.9-24.9-28.4
		l-2.9-8.4c9.9-2.7,15.8-4.5,17.8-5.5c3.7-1.8,8.4-6,14.3-12.4l-3.8-34.4l-33.3,2c-0.4,16.2-0.5,30.5-0.5,42.8
		C905.3,162.5,906,184.1,907.5,202.7z"/>
	<path class="st0" d="M1064.1,151.1l-41.9,2.9v4.9c-0.1,16.6,0.9,26.1,2.9,28.5c2.1,2.4,16.9,3.4,44.5,2.9l-2.6,13
		c-23.2,2.1-41.3,3.1-54.4,3.1c-7.9,0-12.3-0.5-13-1.6c-2.4-3.2-3.7-30.7-3.7-82.5c0-25.4,1.2-39.3,3.6-41.7
		c2.4-2.4,21.7-3.7,57.9-3.7c5.9,0,10.9,0.1,15.2,0.2l-3.5,15.7c-25.4,0-39.5,1.6-42.5,4.8c-2.3,2.6-3.6,14.3-3.8,35.3l2.7,3.5
		l40.3,2L1064.1,151.1z"/>
	<path class="st0" d="M1189.7,205.6c-6.5,0-18.7-0.2-36.8-0.7c-0.7-16.6-1.6-41.5-2.7-74.8c-0.1-11.6-0.5-28.9-1.3-52l46.8-2.7
		c3.3-0.1,10.2,1.2,20.8,3.8c10.6,2.7,16.7,5,18.4,7c0.6,0.9,1.5,2.1,2.6,3.7c5.5,8.3,8.2,16.9,8.2,25.8c0,41.4-7,68.3-20.9,80.9
		c-3.3,2.9-8.8,5.2-16.7,7C1201.7,204.9,1195.5,205.6,1189.7,205.6z M1218.6,104.1l-16.7-9.7l-23.8-0.2c-1.1,24.4-1.6,44.3-1.6,59.7
		l0.2,37.1c2.4,0.2,4.9,0.4,7.5,0.4c6.6,0,15.7-2.8,27.4-8.4c5-13.9,8-36.1,9-66.4C1220.2,113.6,1219.5,109.5,1218.6,104.1z"/>
	<path class="st0" d="M1339.2,151.1l-41.9,2.9v4.9c-0.1,16.6,0.9,26.1,2.9,28.5c2.1,2.4,16.9,3.4,44.5,2.9l-2.6,13
		c-23.2,2.1-41.3,3.1-54.4,3.1c-7.9,0-12.3-0.5-13-1.6c-2.4-3.2-3.7-30.7-3.7-82.5c0-25.4,1.2-39.3,3.6-41.7
		c2.4-2.4,21.7-3.7,57.9-3.7c5.9,0,10.9,0.1,15.2,0.2l-3.5,15.7c-25.4,0-39.5,1.6-42.5,4.8c-2.3,2.6-3.6,14.3-3.8,35.3l2.7,3.5
		l40.3,2L1339.2,151.1z"/>
	<path class="st0" d="M1494.5,149.1l-43.4,4.2l-1.6,50.7l-21.6,2.6c-1.1-26.6-2.3-66.5-3.7-119.7l4.2-7.1l73-2.2l-6,16.7l-38.1,3.3
		l-5.1,3.8c-0.1,2.7-0.4,7.4-0.7,14.1c-0.5,6-0.7,10.7-0.7,14.3c0,2.1,0.1,4,0.2,5.9l46.1,0.2L1494.5,149.1z"/>
	<path class="st0" d="M1568.1,206.2c-15.7,0-25.4-1.4-28.9-4.2c-11.3-8.8-18.9-22.3-22.7-40.5c-2.2-10.9-3.3-26.8-3.3-47.8
		c0-2.2,0.1-3.4,0.2-3.7c3.3-13.7,9.8-23.3,19.6-28.8c8.2-4.8,19.8-7.1,34.8-7.1c17.3,0,30,2.9,38.1,8.8c5.5,3.9,9.2,9.4,11.2,16.5
		c1.5,4.9,2.2,11.7,2.2,20.3c0,6.8-0.4,15.1-1.1,24.9c-0.5,6.5-3.2,15.9-8.2,28.2c-5.5,13.2-10.4,21.4-14.8,24.6
		c-1.5,1.1-5.9,2.8-13.2,5.2C1574.5,205,1569.9,206.2,1568.1,206.2z M1556,94c-2.3,0-5.5,2-9.6,6c-4.1,4-6.3,7.3-6.5,9.9
		c-0.9,9.3-1.3,21.6-1.3,37c0,15.5,3.7,27.2,11.2,35.1c2,2.1,8.2,3.1,18.8,3.1c6.2,0,10.7-0.5,13.4-1.6c2.1-0.9,4.5-7.6,7.3-20.1
		c2-9.1,3.3-16.7,4-22.7c0.9-6.5,1.3-12.4,1.3-17.8c0-14.4-2.7-22.9-8.2-25.4c-1.3-0.7-6.2-1.5-14.6-2.4
		C1564.1,94.4,1558.8,94,1556,94z"/>
	<path class="st0" d="M1666,202.7l-26.9,2.9c1.6-20,2.4-41,2.4-63l-0.9-64.6l32.8-2c4.8-0.4,10.6-0.1,17.6,0.7
		c6,0.7,11.9,1.5,17.8,2.4l12.1,10.6c1.2,7.1,2.5,14.1,3.8,21c1.6,9,2.2,15.9,1.8,20.5v0.9c-3.5,4-7.1,8.1-10.6,12.3
		c-4.9,5.5-8.8,8.7-11.9,9.5c6.1,10.7,19,28.6,38.8,53.6l-17.2,4.9c-3.3-3.2-12.7-13.2-28.2-30.2c-16-17.4-24.3-26.9-24.9-28.4
		l-2.9-8.4c9.9-2.7,15.8-4.5,17.8-5.5c3.7-1.8,8.4-6,14.3-12.4l-3.8-34.4l-33.3,2c-0.4,16.2-0.5,30.5-0.5,42.8
		C1663.8,162.5,1664.5,184.1,1666,202.7z"/>
	<path class="st0" d="M1863.4,207.5v-9.2c0-49.9-1.8-79.6-5.3-89.1l-4.8,0.7c-4.5,11-9,22-13.5,32.9c-5.5,13.1-9.5,24.2-11.9,33.5
		l-18.1,5.1c-1.6-9.5-5.7-21.7-12.3-36.6c-7.9-17.9-12.9-29.9-14.8-35.9l-4.6,2.9c-0.2,7.7-1.4,20.6-3.5,38.6
		c-2,16.5-2.9,29.3-2.9,38.6c0,4.9,0.2,9.7,0.5,14.5l-26,2.6l6.6-63.3c1.7-13.7,4.2-34.2,7.5-61.7l32.6-5.1l5.5,12.6
		c1.5,2.9,3.6,7.5,6.4,13.7c6,13.9,10.9,28.5,14.8,43.9c2.6-9.5,7.3-21.2,14.1-35.1c9.1-18.3,14.6-29.7,16.5-34.2l28.9,3.1
		c0.5,11,2.6,30.5,6.2,58.6c3.2,24.8,4.7,44.3,4.6,58.7l-0.2,5.7L1863.4,207.5z"/>
	<path class="st0" d="M1925.3,203.8l-20.9,2.4c4.6-30.3,8.6-52.3,11.9-66.2c5.7-24.4,13.2-45.4,22.5-63l43.9-2.7
		c9.5,33.1,16.1,59,19.8,77.9c0.9,4,1.9,10,3.1,18l3.3,36l-25.4-2.6l-2.6-37.7l-33.7,4.2l-13.5-3.5L1925.3,203.8z M1977.8,143.1
		c0-3.5-1.8-11.8-5.3-24.8c-3.5-13-6.2-21-8.1-23.9l-14.5,1.3c-4.8,14.3-8.1,26.5-9.9,36.8c-0.2,2.1-0.6,5.2-1.1,9.5
		c-0.5,2.6-1.1,6.3-1.8,11.3l40.1-3.7C1977.6,149.7,1977.8,147.5,1977.8,143.1z"/>
	<path class="st0" d="M2106.7,95.7c-8.4-1.5-16-2.2-22.9-2.2c-9,0-16,1.2-21,3.7c-8.2,4-12.6,9.5-13.2,16.3
		c-0.4,5.2-0.5,10.9-0.5,16.8c0,21.6,1.8,37.9,5.3,49c1.3,3.9,4.8,7,10.2,9.3c4.4,1.8,9,2.7,13.9,2.7c3.8,0,8.6-0.4,14.5-1.3
		c7.9-1.1,12.7-1.8,14.5-2l-4,14.6l-31.1,4.4c-4,0-10.1-0.9-18.1-2.7c-9-2.2-14.5-4.3-16.3-6.2c-4.8-5.5-8.8-16.8-12.1-34
		c-2.7-14.3-4-26.5-4-36.6c0-3.5,1-9.2,3.1-17c2.1-7.8,3.9-13.4,5.5-16.8c1-2,3.8-4.7,8.6-8.1c4.8-3.5,8.3-5.6,10.6-6.3
		c5-1.6,12.7-2.4,23.2-2.4c17.9,0,31,1.4,39.3,4.2L2106.7,95.7z"/>
	<path class="st0" d="M2151.1,204.5l-19.6,1.6l-4.6-95.8c-0.1-6.7-0.5-17.2-1.1-31.3l31.7-2.9c-1.3,21.5-2.7,42.9-4,64.3
		C2151.9,166.6,2151.1,187.9,2151.1,204.5z"/>
	<path class="st0" d="M2234,206.2c-15.7,0-25.4-1.4-28.9-4.2c-11.3-8.8-18.9-22.3-22.7-40.5c-2.2-10.9-3.3-26.8-3.3-47.8
		c0-2.2,0.1-3.4,0.2-3.7c3.3-13.7,9.8-23.3,19.6-28.8c8.2-4.8,19.8-7.1,34.8-7.1c17.3,0,30,2.9,38.1,8.8c5.5,3.9,9.2,9.4,11.2,16.5
		c1.5,4.9,2.2,11.7,2.2,20.3c0,6.8-0.4,15.1-1.1,24.9c-0.5,6.5-3.2,15.9-8.2,28.2c-5.5,13.2-10.4,21.4-14.8,24.6
		c-1.5,1.1-5.9,2.8-13.2,5.2C2240.4,205,2235.8,206.2,2234,206.2z M2221.9,94c-2.3,0-5.5,2-9.6,6.1c-4.1,4-6.3,7.3-6.5,9.9
		c-0.9,9.3-1.3,21.6-1.3,37c0,15.5,3.7,27.3,11.2,35.2c2,2.1,8.2,3.1,18.8,3.1c6.2,0,10.7-0.5,13.4-1.6c2.1-0.9,4.5-7.6,7.3-20.2
		c2-9.2,3.3-16.7,4-22.7c0.9-6.5,1.3-12.4,1.3-17.8c0-14.4-2.7-22.9-8.2-25.5c-1.3-0.7-6.2-1.5-14.6-2.4
		C2230,94.4,2224.7,94,2221.9,94z M2253.6,55.6c-4.6,3.4-10.9,8.2-18.7,14.3l-14.1,1.1c2.4-5,6.2-11.3,11.2-19c1-1,3.7-6.5,8.1-16.5
		l24.9,2.4c-1,0.9-2.8,3.8-5.5,8.9C2256.8,51.8,2254.8,54.7,2253.6,55.6z"/>
	<path class="st0" d="M2434.8,151.1l-41.9,2.9v4.9c-0.1,16.6,0.9,26.1,2.9,28.5c2.1,2.4,16.9,3.4,44.5,2.9l-2.6,13
		c-23.2,2.1-41.3,3.1-54.4,3.1c-7.9,0-12.3-0.5-13-1.6c-2.4-3.2-3.7-30.7-3.7-82.5c0-25.4,1.2-39.3,3.6-41.7
		c2.4-2.4,21.7-3.7,57.9-3.7c5.9,0,10.9,0.1,15.2,0.2l-3.5,15.7c-25.4,0-39.5,1.6-42.5,4.8c-2.3,2.6-3.6,14.3-3.8,35.3l2.7,3.5
		l40.3,2L2434.8,151.1z"/>
	<path class="st0" d="M2558.3,201.3l-19.4,4.9c-13.2-41.3-27.8-74-43.7-98.1l-6,2.9c-2.1,26.1-3.4,57.4-3.8,93.9l-19.2,2
		c0-9.9-0.3-26.8-0.9-50.7c-0.5-22.3-0.7-39.3-0.7-50.9L2467,81l34.8-3.7c12.3,21.2,20,34.6,23.1,40.1c8.2,15.6,14.2,29.8,18.1,42.6
		l-1.1-71.4l1.8-12.1l26.5-0.7C2563.2,131.1,2559.3,172.9,2558.3,201.3z"/>
</g>
</svg>
