<?xml version="1.0" encoding="utf-8"?>
<!-- Generator: Adobe Illustrator 24.1.0, SVG Export Plug-In . SVG Version: 6.00 Build 0)  -->
<svg version="1.1" id="Layer_1" xmlns="http://www.w3.org/2000/svg" xmlns:xlink="http://www.w3.org/1999/xlink" x="0px" y="0px"
	 viewBox="0 0 82 74" style="enable-background:new 0 0 82 74;" xml:space="preserve">
<style type="text/css">
	.st0{fill:#D80077;}
</style>
<g>
	<path class="st0" d="M23.2,70.9c-0.1,1.1-1.2,2-2.5,2H3.8c-1.4,0-2.6-1-2.5-2.2l2.4-36.5c0.1-1.1,1.2-2,2.5-2H23
		c1.4,0,2.6,1,2.5,2.2L23.2,70.9z M50,70.9c-0.1,1.1-1.2,2-2.5,2H30.6c-1.4,0-2.6-1-2.5-2.2l3.3-49.9c0.1-1.1,1.2-2,2.5-2h16.9
		c1.4,0,2.6,1,2.5,2.2L50,70.9z M76.9,70.9c-0.1,1.1-1.2,2-2.5,2H57.5c-1.4,0-2.6-1-2.5-2.2l4.4-67.6c0.1-1.1,1.2-2,2.5-2h16.9
		c1.4,0,2.6,1,2.5,2.2L76.9,70.9z"/>
</g>
</svg>
