<?xml version="1.0" encoding="utf-8"?>
<!-- Generator: Adobe Illustrator 24.1.0, SVG Export Plug-In . SVG Version: 6.00 Build 0)  -->
<svg version="1.1" id="Layer_1" xmlns="http://www.w3.org/2000/svg" xmlns:xlink="http://www.w3.org/1999/xlink" x="0px" y="0px"
	 viewBox="0 0 200 200" style="enable-background:new 0 0 200 200;" xml:space="preserve">
<style type="text/css">
	.st0{fill:#456DE5;}
</style>
<path class="st0" d="M147.6,27.6c14,7.3,25.2,20.7,31.8,35.9c6.5,15.2,8.4,32.3,3.9,46.9c-4.5,14.7-11.5,31-22.5,42.4
	c-11,11.4-25.9,17.9-39.9,25c-13.9,7-30.9,10.5-44.4,5.2s-29.3-18.5-40.4-31.5c-11.1-13.1-17.4-26-20.8-40.2
	c-3.3-14.1,2-30.4,9.6-45S42.4,38.8,55.3,31c12.9-7.7,28.8-10.4,45.2-11.1C116.8,19.2,133.6,20.4,147.6,27.6L147.6,27.6z"/>
</svg>
