<?xml version="1.0" encoding="utf-8"?>
<!-- Generator: Adobe Illustrator 24.1.0, SVG Export Plug-In . SVG Version: 6.00 Build 0)  -->
<svg version="1.1" id="Layer_1" xmlns="http://www.w3.org/2000/svg" xmlns:xlink="http://www.w3.org/1999/xlink" x="0px" y="0px"
	 viewBox="0 0 200 200" style="enable-background:new 0 0 200 200;" xml:space="preserve">
<style type="text/css">
	.st0{fill:#009793;}
</style>
<path class="st0" d="M142,27.6c11.6,9.8,27.9,25.3,33.3,40.3s14,32.5,14.2,48c0.3,15.5-7.6,29-17.1,41.7
	c-9.5,12.7-34.5,21.5-50.5,25.2C106,186.5,89.2,185,75,179c-14.3-6-29.9-12.1-40.5-23.9c-10.7-11.8-16.5-29.3-19.7-44
	c-3.1-14.6,0.2-30.8,8.1-43.7c7.9-12.8,20.3-22.2,33.4-31.3C69.5,27,83.2,18.3,98.5,16C113.7,13.7,130.5,17.8,142,27.6z"/>
</svg>
