<?xml version="1.0" encoding="utf-8"?>
<!-- Generator: Adobe Illustrator 24.1.0, SVG Export Plug-In . SVG Version: 6.00 Build 0)  -->
<svg version="1.1" id="Layer_1" xmlns="http://www.w3.org/2000/svg" xmlns:xlink="http://www.w3.org/1999/xlink" x="0px" y="0px"
	 viewBox="0 0 200 200" style="enable-background:new 0 0 200 200;" xml:space="preserve">
<style type="text/css">
	.st0{fill:#F74162;}
</style>
<path class="st0" d="M149.1,24.9c12.5,8.5,17.9,26.1,24.2,41.2c6.3,15.2,20.6,40.9,17.8,55.1c-2.8,14.1-12.7,26.8-23.6,37.8
	c-10.8,11-32.6,10.4-46.9,17.4s-31,11.7-47.4,9.4c-16.3-2.4-32.2-11.7-42.2-25c-10.1-13.4-14.4-30.8-16.5-48.2
	c-2-17.5-1.9-35,4.7-49.6c6.5-14.6,19.5-26.3,34.1-34c14.5-7.6,30.6-11.1,47-11.6C116.8,16.9,136.5,16.3,149.1,24.9z"/>
</svg>
