<?xml version="1.0" encoding="utf-8"?>
<!-- Generator: Adobe Illustrator 24.1.0, SVG Export Plug-In . SVG Version: 6.00 Build 0)  -->
<svg version="1.1" id="Layer_1" xmlns="http://www.w3.org/2000/svg" xmlns:xlink="http://www.w3.org/1999/xlink" x="0px" y="0px"
	 viewBox="0 0 200 200" style="enable-background:new 0 0 200 200;" xml:space="preserve">
<style type="text/css">
	.st0{fill:#AF45BA;}
</style>
<path class="st0" d="M137.1,33.9c13.5,10.1,28.6,19.4,38,32.6c9.4,13.2,15,36.3,13.5,52.8c-1.5,16.6-10.3,32.6-22.3,45.1
	c-12,12.4-29.3,21.2-45,23.6c-15.7,2.4-31.9-1.6-47.2-6.9s-32.7-11.9-43.4-22.6S13,133,11.5,117.8c-1.4-15.1,2.6-36.6,9.3-50.9
	C27.4,52.6,39.5,39.6,51.9,29C64.4,18.3,80,10.1,94.8,11.5C109.6,12.8,123.5,23.8,137.1,33.9z"/>
</svg>
