<?xml version="1.0" encoding="utf-8"?>
<!-- Generator: Adobe Illustrator 24.1.0, SVG Export Plug-In . SVG Version: 6.00 Build 0)  -->
<svg version="1.1" xmlns="http://www.w3.org/2000/svg" xmlns:xlink="http://www.w3.org/1999/xlink" x="0px" y="0px"
	 viewBox="0 0 500 200" style="enable-background:new 0 0 500 200;" xml:space="preserve">
<style type="text/css">
	.st0{display:none;}
	.st1{display:inline;}
	.st2{fill:#D80077;}
	.st3{font-family:'Raleway-Light';}
	.st4{font-size:93.0754px;}
	.st5{letter-spacing:-1;}
	.st6{fill:#6E0270;}
	.st7{font-family:'Raleway-SemiBold';}
	.st8{font-size:114.7791px;}
	.st9{letter-spacing:-4;}
	.st10{fill:#FFFFFF;}
	.st11{fill:url(#SVGID_1_);}
</style>
<g id="Layer_1" class="st0">
	<g class="st1">
		<text transform="matrix(1 0 0 1 155.0015 87.9819)"><tspan x="0" y="0" class="st2 st3 st4">R</tspan><tspan x="61.1" y="0" class="st2 st3 st4">a</tspan><tspan x="111" y="0" class="st2 st3 st4">n</tspan><tspan x="163.7" y="0" class="st2 st3 st4">ki</tspan><tspan x="231.6" y="0" class="st2 st3 st4 st5">n</tspan><tspan x="283.5" y="0" class="st2 st3 st4">g</tspan></text>
		<g>
			<text transform="matrix(1 0 0 1 159.7368 178.0967)" class="st6 st7 st8 st9">Online</text>
		</g>
		<rect x="26" y="57" class="st10" width="100" height="87"/>
		<linearGradient id="SVGID_1_" gradientUnits="userSpaceOnUse" x1="116.2988" y1="161.5724" x2="46.0995" y2="39.9838">
			<stop  offset="0" style="stop-color:#6E0270"/>
			<stop  offset="1" style="stop-color:#D80077"/>
		</linearGradient>
		<path class="st11" d="M144.1,56L88.5,23.9c-4.5-2.6-10.1-2.6-14.6,0L18.3,56c-4.5,2.6-7.3,7.4-7.3,12.6v64.2
			c0,5.2,2.8,10,7.3,12.6l55.6,32.1c4.5,2.6,10.1,2.6,14.6,0l55.6-32.1c4.5-2.6,7.3-7.4,7.3-12.6V68.7
			C151.4,63.5,148.6,58.6,144.1,56z M63.9,134.7c-0.1,1.1-1.2,2-2.5,2H44.5c-1.4,0-2.6-1-2.5-2.2L44.3,98c0.1-1.1,1.2-2,2.5-2h16.9
			c1.4,0,2.6,1,2.5,2.2L63.9,134.7z M90.7,134.7c-0.1,1.1-1.2,2-2.5,2H71.3c-1.4,0-2.6-1-2.5-2.2l3.3-49.9c0.1-1.1,1.2-2,2.5-2h16.9
			c1.4,0,2.6,1,2.5,2.2L90.7,134.7z M117.6,134.7c-0.1,1.1-1.2,2-2.5,2H98.2c-1.4,0-2.6-1-2.5-2.2l4.4-67.6c0.1-1.1,1.2-2,2.5-2
			h16.9c1.4,0,2.6,1,2.5,2.2L117.6,134.7z"/>
	</g>
</g>
<g id="Layer_1_copy">
	<g>
		<g>
			<path class="st10" d="M163.7,88V21.9h27.5c2.8,0,5.4,0.6,7.7,1.8c2.4,1.2,4.4,2.7,6.1,4.7c1.7,2,3,4.2,4,6.6
				c1,2.5,1.4,4.9,1.4,7.4c0,2.4-0.4,4.8-1.1,7c-0.7,2.3-1.8,4.3-3.2,6.1c-1.4,1.8-3,3.3-4.9,4.5c-1.9,1.2-4,2-6.3,2.3L211.3,88
				h-5.5l-16-24.9h-21.4V88H163.7z M168.4,58.7h23.2c2.1,0,4-0.5,5.8-1.4c1.7-0.9,3.2-2.2,4.5-3.7c1.2-1.5,2.2-3.3,2.8-5.2s1-4,1-6
				c0-2.1-0.4-4.1-1.2-6.1c-0.8-2-1.8-3.7-3.2-5.2c-1.3-1.5-2.9-2.7-4.7-3.6c-1.8-0.9-3.7-1.3-5.7-1.3h-22.5V58.7z"/>
			<path class="st10" d="M235.2,88.9c-2.2,0-4.3-0.4-6.2-1.2c-1.9-0.8-3.6-1.8-5.1-3.2c-1.5-1.3-2.6-2.9-3.4-4.7
				c-0.8-1.8-1.2-3.8-1.2-5.9c0-2.1,0.5-4,1.5-5.8c1-1.7,2.4-3.2,4.1-4.5c1.8-1.3,3.9-2.3,6.4-3c2.5-0.7,5.2-1.1,8.2-1.1
				c2.6,0,5.2,0.2,7.9,0.7c2.6,0.5,5,1.1,7.1,1.9v-4.7c0-4.6-1.3-8.2-3.9-10.9c-2.6-2.7-6.1-4-10.6-4c-2.4,0-4.9,0.5-7.5,1.5
				c-2.6,1-5.3,2.4-8.1,4.3l-1.8-3.2c6.2-4.2,12.1-6.3,17.7-6.3c5.8,0,10.4,1.7,13.8,5.1c3.4,3.4,5,8.1,5,14v23.6
				c0,1.6,0.7,2.3,2,2.3V88c-0.3,0.1-0.6,0.1-1,0.1c-0.3,0-0.6,0-0.9,0c-1.2,0-2.2-0.4-3-1.3c-0.7-0.8-1.2-1.8-1.3-3v-4
				c-2.2,2.9-5.1,5.2-8.6,6.7C243,88.1,239.3,88.9,235.2,88.9z M236.2,85.2c3.6,0,6.9-0.7,9.9-2c3-1.4,5.3-3.2,6.9-5.4
				c1-1.3,1.5-2.5,1.5-3.7v-8.6c-2.2-0.9-4.6-1.5-7-2c-2.4-0.4-4.9-0.7-7.5-0.7c-2.4,0-4.6,0.3-6.6,0.8c-2,0.5-3.7,1.3-5.1,2.2
				c-1.4,0.9-2.5,2.1-3.3,3.4c-0.8,1.3-1.2,2.8-1.2,4.4c0,1.6,0.3,3.1,0.9,4.6c0.6,1.4,1.5,2.7,2.6,3.7c1.1,1,2.4,1.8,4,2.4
				C232.8,84.9,234.4,85.2,236.2,85.2z"/>
			<path class="st10" d="M312.9,88h-4.7V61c0-6.3-0.9-10.8-2.7-13.7c-1.8-2.9-4.6-4.3-8.4-4.3c-2,0-4.1,0.4-6.1,1.1
				c-2,0.7-3.9,1.8-5.6,3.2c-1.7,1.4-3.3,3-4.6,4.8c-1.3,1.8-2.3,3.8-2.9,5.9v30h-4.7V39.6h4.4v11.5c1-1.9,2.2-3.6,3.7-5.1
				c1.5-1.5,3.1-2.8,4.9-3.9c1.8-1.1,3.8-1.9,5.8-2.5c2-0.6,4.2-0.9,6.3-0.9c5.3,0,9,1.8,11.2,5.5c2.2,3.7,3.3,9,3.3,15.9V88z"/>
			<path class="st10" d="M361,88l-18.9-25.9l-11.4,10.5V88H326V20h4.7v47.5L360,39.7h5.4l-20.2,19.6L366.1,88H361z"/>
			<path class="st10" d="M374.6,28.6V20h4.7v8.6H374.6z M374.6,88V39.6h4.7V88H374.6z"/>
			<path class="st10" d="M433.4,88h-4.7V61c0-6.3-0.9-10.8-2.7-13.7c-1.8-2.9-4.6-4.3-8.4-4.3c-2,0-4.1,0.4-6.1,1.1
				c-2,0.7-3.9,1.8-5.6,3.2c-1.7,1.4-3.3,3-4.6,4.8c-1.3,1.8-2.3,3.8-2.9,5.9v30h-4.7V39.6h4.4v11.5c1-1.9,2.2-3.6,3.7-5.1
				c1.5-1.5,3.1-2.8,4.9-3.9c1.8-1.1,3.8-1.9,5.8-2.5c2-0.6,4.2-0.9,6.3-0.9c5.3,0,9,1.8,11.2,5.5c2.2,3.7,3.3,9,3.3,15.9V88z"/>
			<path class="st10" d="M465.3,88.7c-3.4,0-6.4-0.7-9.2-2.1c-2.8-1.4-5.2-3.3-7.2-5.6c-2-2.3-3.6-5-4.7-8c-1.1-3-1.7-6-1.7-9.2
				c0-3.3,0.5-6.5,1.6-9.5c1.1-3,2.6-5.7,4.6-8.1c2-2.3,4.4-4.2,7.1-5.5c2.8-1.4,5.8-2,9.2-2c4.2,0,7.9,1.1,11,3.3
				c3.1,2.2,5.8,4.9,8,8.1V39.6h4.3v49.3c0,3.3-0.6,6.2-1.9,8.7c-1.2,2.5-2.9,4.5-5,6.2c-2.1,1.6-4.5,2.9-7.3,3.7
				c-2.8,0.8-5.7,1.3-8.7,1.3c-2.8,0-5.3-0.3-7.5-0.8c-2.2-0.5-4.2-1.3-5.9-2.2c-1.7-1-3.2-2.1-4.6-3.5c-1.3-1.4-2.5-2.9-3.5-4.6
				l3.2-2.1c1.9,3.3,4.5,5.7,7.8,7.2c3.3,1.5,6.8,2.3,10.5,2.3c2.5,0,4.8-0.3,7-1c2.2-0.7,4.1-1.7,5.8-3c1.6-1.3,2.9-3,3.9-5
				c1-2,1.4-4.3,1.4-7V78.3c-2,3.2-4.6,5.7-7.9,7.6C472.3,87.8,468.9,88.7,465.3,88.7z M466.4,84.7c2,0,4-0.4,6-1.2
				c2-0.8,3.7-1.8,5.3-3c1.6-1.2,2.9-2.6,3.9-4.2c1-1.6,1.7-3.1,1.9-4.7V55.8c-0.7-1.9-1.7-3.6-3-5.2c-1.2-1.6-2.7-2.9-4.2-4
				c-1.6-1.1-3.3-2-5.1-2.7c-1.8-0.7-3.7-1-5.5-1c-2.9,0-5.5,0.6-7.8,1.9c-2.3,1.2-4.2,2.9-5.8,4.8c-1.6,2-2.8,4.2-3.6,6.7
				c-0.8,2.5-1.3,5-1.3,7.6c0,2.8,0.5,5.4,1.5,7.9c1,2.5,2.4,4.7,4.1,6.6c1.7,1.9,3.8,3.4,6.1,4.6C461.2,84.2,463.8,84.7,466.4,84.7
				z"/>
		</g>
		<g>
			<path class="st10" d="M202.8,178.7c-5.8,0-11.1-1.2-15.9-3.5c-4.8-2.3-8.9-5.4-12.3-9.3c-3.4-3.9-6.1-8.3-8-13.3
				c-1.9-5-2.8-10.1-2.8-15.3c0-5.4,1-10.6,3-15.6c2-5,4.7-9.4,8.2-13.2c3.5-3.8,7.6-6.9,12.4-9.1c4.8-2.3,10-3.4,15.7-3.4
				c5.8,0,11.1,1.2,15.9,3.6c4.8,2.4,8.9,5.6,12.3,9.5c3.4,3.9,6,8.3,7.9,13.3c1.9,4.9,2.8,10,2.8,15.1c0,5.4-1,10.6-2.9,15.6
				c-2,5-4.7,9.4-8.2,13.1c-3.5,3.8-7.7,6.8-12.5,9.1C213.5,177.5,208.4,178.7,202.8,178.7z M176.8,137.4c0,3.8,0.6,7.5,1.8,11.1
				c1.2,3.6,3,6.8,5.2,9.5c2.3,2.8,5,5,8.2,6.6c3.2,1.6,6.8,2.5,10.8,2.5c4.1,0,7.8-0.9,11-2.6c3.2-1.7,5.9-4,8.1-6.8
				c2.2-2.8,3.9-6,5.1-9.5c1.1-3.5,1.7-7.1,1.7-10.8c0-3.9-0.6-7.6-1.8-11.2c-1.2-3.6-3-6.7-5.2-9.4c-2.3-2.7-5-4.9-8.1-6.5
				c-3.2-1.6-6.7-2.5-10.6-2.5c-4.1,0-7.8,0.9-11,2.6s-5.9,4-8.1,6.7c-2.2,2.8-3.9,5.9-5.1,9.5C177.4,130.1,176.8,133.7,176.8,137.4
				z"/>
			<path class="st10" d="M302.9,178.1h-12.6v-33.6c0-5.7-0.9-9.8-2.7-12.3c-1.8-2.6-4.5-3.8-8-3.8c-1.8,0-3.7,0.3-5.5,1
				s-3.6,1.7-5.2,2.9c-1.6,1.3-3,2.8-4.3,4.5c-1.3,1.7-2.2,3.6-2.9,5.7v35.7H249v-60h11.5v12.1c2.3-4.1,5.6-7.2,10-9.6
				c4.4-2.3,9.2-3.5,14.5-3.5c3.6,0,6.5,0.7,8.8,2c2.3,1.3,4.1,3.1,5.5,5.3c1.3,2.3,2.3,4.9,2.8,7.8c0.5,2.9,0.8,6.1,0.8,9.4V178.1z
				"/>
			<path class="st10" d="M313.1,94.3h12.6v66.5c0,2.2,0.6,4,1.7,5.2c1.1,1.3,2.8,1.9,4.8,1.9c0.8,0,1.8-0.2,2.9-0.5
				c1.1-0.3,2.2-0.6,3.2-1l1.8,9.9c-1.8,0.8-4,1.5-6.5,2c-2.5,0.5-4.8,0.7-6.8,0.7c-4.4,0-7.7-1.2-10.2-3.6
				c-2.4-2.4-3.6-5.7-3.6-10.1V94.3z"/>
			<path class="st10" d="M342.9,108.2V94.3h12.6v13.9H342.9z M342.9,178.1v-60h12.6v60H342.9z"/>
			<path class="st10" d="M419.9,178.1h-12.6v-33.6c0-5.7-0.9-9.8-2.7-12.3c-1.8-2.6-4.5-3.8-8-3.8c-1.8,0-3.7,0.3-5.5,1
				c-1.8,0.7-3.6,1.7-5.2,2.9c-1.6,1.3-3,2.8-4.3,4.5s-2.2,3.6-2.9,5.7v35.7h-12.6v-60h11.5v12.1c2.3-4.1,5.6-7.2,10-9.6
				c4.4-2.3,9.2-3.5,14.5-3.5c3.6,0,6.5,0.7,8.8,2c2.3,1.3,4.1,3.1,5.5,5.3c1.3,2.3,2.3,4.9,2.8,7.8c0.5,2.9,0.8,6.1,0.8,9.4V178.1z
				"/>
			<path class="st10" d="M457.2,179.2c-4.7,0-8.9-0.8-12.7-2.5c-3.8-1.6-7.1-3.9-9.8-6.7c-2.7-2.8-4.8-6.1-6.3-9.9
				c-1.5-3.7-2.2-7.7-2.2-11.9c0-4.2,0.7-8.2,2.2-12s3.6-7.1,6.3-10c2.7-2.9,6-5.1,9.8-6.8c3.8-1.6,8.1-2.5,12.9-2.5
				c4.7,0,8.9,0.8,12.7,2.5c3.8,1.7,7,3.9,9.7,6.7c2.7,2.8,4.7,6,6.1,9.8c1.4,3.7,2.1,7.6,2.1,11.7c0,0.9,0,1.8-0.1,2.6
				c-0.1,0.8-0.2,1.5-0.2,2h-48.1c0.2,2.7,0.9,5.1,1.9,7.2c1,2.1,2.4,4,4,5.6c1.6,1.6,3.5,2.8,5.6,3.6c2.1,0.8,4.3,1.3,6.6,1.3
				c1.7,0,3.3-0.2,5-0.6c1.6-0.4,3.2-1,4.5-1.8c1.4-0.8,2.6-1.8,3.7-2.9c1.1-1.1,1.9-2.4,2.5-3.8l10.8,3.1
				c-2.1,4.5-5.5,8.2-10.3,11.1C469.2,177.8,463.6,179.2,457.2,179.2z M475.5,143.5c-0.2-2.5-0.9-4.9-1.9-7c-1-2.1-2.4-4-4-5.5
				c-1.6-1.5-3.5-2.7-5.6-3.5c-2.1-0.8-4.4-1.3-6.8-1.3c-2.4,0-4.6,0.4-6.7,1.3c-2.1,0.8-4,2-5.6,3.5c-1.6,1.5-2.9,3.3-3.9,5.5
				c-1,2.1-1.6,4.5-1.8,7H475.5z"/>
		</g>
		<g>
			<path class="st10" d="M144.1,56L88.5,23.9c-4.5-2.6-10.1-2.6-14.6,0L18.3,56c-4.5,2.6-7.3,7.4-7.3,12.6v64.2
				c0,5.2,2.8,10,7.3,12.6l55.6,32.1c4.5,2.6,10.1,2.6,14.6,0l55.6-32.1c4.5-2.6,7.3-7.4,7.3-12.6V68.7
				C151.4,63.5,148.6,58.6,144.1,56z M63.9,134.7c-0.1,1.1-1.2,2-2.5,2H44.5c-1.4,0-2.6-1-2.5-2.2L44.3,98c0.1-1.1,1.2-2,2.5-2h16.9
				c1.4,0,2.6,1,2.5,2.2L63.9,134.7z M90.7,134.7c-0.1,1.1-1.2,2-2.5,2H71.3c-1.4,0-2.6-1-2.5-2.2l3.3-49.9c0.1-1.1,1.2-2,2.5-2
				h16.9c1.4,0,2.6,1,2.5,2.2L90.7,134.7z M117.6,134.7c-0.1,1.1-1.2,2-2.5,2H98.2c-1.4,0-2.6-1-2.5-2.2l4.4-67.6
				c0.1-1.1,1.2-2,2.5-2h16.9c1.4,0,2.6,1,2.5,2.2L117.6,134.7z"/>
		</g>
	</g>
</g>
</svg>
