<svg enable-background="new 0 0 500 200" viewBox="0 0 500 200" xmlns="http://www.w3.org/2000/svg"><g fill="#fff"><path d="m163.7 88v-66.1h27.5c2.8 0 5.4.6 7.7 1.8 2.4 1.2 4.4 2.7 6.1 4.7s3 4.2 4 6.6c1 2.5 1.4 4.9 1.4 7.4 0 2.4-.4 4.8-1.1 7-.7 2.3-1.8 4.3-3.2 6.1s-3 3.3-4.9 4.5-4 2-6.3 2.3l16.4 25.7h-5.5l-16-24.9h-21.4v24.9zm4.7-29.3h23.2c2.1 0 4-.5 5.8-1.4 1.7-.9 3.2-2.2 4.5-3.7 1.2-1.5 2.2-3.3 2.8-5.2s1-4 1-6c0-2.1-.4-4.1-1.2-6.1s-1.8-3.7-3.2-5.2c-1.3-1.5-2.9-2.7-4.7-3.6s-3.7-1.3-5.7-1.3h-22.5z"/><path d="m235.2 88.9c-2.2 0-4.3-.4-6.2-1.2s-3.6-1.8-5.1-3.2c-1.5-1.3-2.6-2.9-3.4-4.7s-1.2-3.8-1.2-5.9.5-4 1.5-5.8c1-1.7 2.4-3.2 4.1-4.5 1.8-1.3 3.9-2.3 6.4-3s5.2-1.1 8.2-1.1c2.6 0 5.2.2 7.9.7 2.6.5 5 1.1 7.1 1.9v-4.7c0-4.6-1.3-8.2-3.9-10.9s-6.1-4-10.6-4c-2.4 0-4.9.5-7.5 1.5s-5.3 2.4-8.1 4.3l-1.8-3.2c6.2-4.2 12.1-6.3 17.7-6.3 5.8 0 10.4 1.7 13.8 5.1s5 8.1 5 14v23.6c0 1.6.7 2.3 2 2.3v4.2c-.3.1-.6.1-1 .1-.3 0-.6 0-.9 0-1.2 0-2.2-.4-3-1.3-.7-.8-1.2-1.8-1.3-3v-4c-2.2 2.9-5.1 5.2-8.6 6.7-3.3 1.6-7 2.4-11.1 2.4zm1-3.7c3.6 0 6.9-.7 9.9-2 3-1.4 5.3-3.2 6.9-5.4 1-1.3 1.5-2.5 1.5-3.7v-8.6c-2.2-.9-4.6-1.5-7-2-2.4-.4-4.9-.7-7.5-.7-2.4 0-4.6.3-6.6.8s-3.7 1.3-5.1 2.2-2.5 2.1-3.3 3.4-1.2 2.8-1.2 4.4.3 3.1.9 4.6c.6 1.4 1.5 2.7 2.6 3.7s2.4 1.8 4 2.4c1.5.6 3.1.9 4.9.9z"/><path d="m312.9 88h-4.7v-27c0-6.3-.9-10.8-2.7-13.7s-4.6-4.3-8.4-4.3c-2 0-4.1.4-6.1 1.1s-3.9 1.8-5.6 3.2-3.3 3-4.6 4.8-2.3 3.8-2.9 5.9v30h-4.7v-48.4h4.4v11.5c1-1.9 2.2-3.6 3.7-5.1s3.1-2.8 4.9-3.9 3.8-1.9 5.8-2.5 4.2-.9 6.3-.9c5.3 0 9 1.8 11.2 5.5s3.3 9 3.3 15.9v27.9z"/><path d="m361 88-18.9-25.9-11.4 10.5v15.4h-4.7v-68h4.7v47.5l29.3-27.8h5.4l-20.2 19.6 20.9 28.7z"/><path d="m374.6 28.6v-8.6h4.7v8.6zm0 59.4v-48.4h4.7v48.4z"/><path d="m433.4 88h-4.7v-27c0-6.3-.9-10.8-2.7-13.7s-4.6-4.3-8.4-4.3c-2 0-4.1.4-6.1 1.1s-3.9 1.8-5.6 3.2-3.3 3-4.6 4.8-2.3 3.8-2.9 5.9v30h-4.7v-48.4h4.4v11.5c1-1.9 2.2-3.6 3.7-5.1s3.1-2.8 4.9-3.9 3.8-1.9 5.8-2.5 4.2-.9 6.3-.9c5.3 0 9 1.8 11.2 5.5s3.3 9 3.3 15.9v27.9z"/><path d="m465.3 88.7c-3.4 0-6.4-.7-9.2-2.1s-5.2-3.3-7.2-5.6-3.6-5-4.7-8-1.7-6-1.7-9.2c0-3.3.5-6.5 1.6-9.5s2.6-5.7 4.6-8.1c2-2.3 4.4-4.2 7.1-5.5 2.8-1.4 5.8-2 9.2-2 4.2 0 7.9 1.1 11 3.3s5.8 4.9 8 8.1v-10.5h4.3v49.3c0 3.3-.6 6.2-1.9 8.7-1.2 2.5-2.9 4.5-5 6.2-2.1 1.6-4.5 2.9-7.3 3.7s-5.7 1.3-8.7 1.3c-2.8 0-5.3-.3-7.5-.8s-4.2-1.3-5.9-2.2c-1.7-1-3.2-2.1-4.6-3.5-1.3-1.4-2.5-2.9-3.5-4.6l3.2-2.1c1.9 3.3 4.5 5.7 7.8 7.2s6.8 2.3 10.5 2.3c2.5 0 4.8-.3 7-1s4.1-1.7 5.8-3c1.6-1.3 2.9-3 3.9-5s1.4-4.3 1.4-7v-10.8c-2 3.2-4.6 5.7-7.9 7.6s-6.7 2.8-10.3 2.8zm1.1-4c2 0 4-.4 6-1.2s3.7-1.8 5.3-3 2.9-2.6 3.9-4.2 1.7-3.1 1.9-4.7v-15.8c-.7-1.9-1.7-3.6-3-5.2-1.2-1.6-2.7-2.9-4.2-4-1.6-1.1-3.3-2-5.1-2.7s-3.7-1-5.5-1c-2.9 0-5.5.6-7.8 1.9-2.3 1.2-4.2 2.9-5.8 4.8-1.6 2-2.8 4.2-3.6 6.7s-1.3 5-1.3 7.6c0 2.8.5 5.4 1.5 7.9s2.4 4.7 4.1 6.6 3.8 3.4 6.1 4.6 4.9 1.7 7.5 1.7z"/><path d="m202.8 178.7c-5.8 0-11.1-1.2-15.9-3.5s-8.9-5.4-12.3-9.3-6.1-8.3-8-13.3-2.8-10.1-2.8-15.3c0-5.4 1-10.6 3-15.6s4.7-9.4 8.2-13.2 7.6-6.9 12.4-9.1c4.8-2.3 10-3.4 15.7-3.4 5.8 0 11.1 1.2 15.9 3.6s8.9 5.6 12.3 9.5 6 8.3 7.9 13.3c1.9 4.9 2.8 10 2.8 15.1 0 5.4-1 10.6-2.9 15.6-2 5-4.7 9.4-8.2 13.1-3.5 3.8-7.7 6.8-12.5 9.1-4.9 2.2-10 3.4-15.6 3.4zm-26-41.3c0 3.8.6 7.5 1.8 11.1s3 6.8 5.2 9.5c2.3 2.8 5 5 8.2 6.6s6.8 2.5 10.8 2.5c4.1 0 7.8-.9 11-2.6s5.9-4 8.1-6.8 3.9-6 5.1-9.5c1.1-3.5 1.7-7.1 1.7-10.8 0-3.9-.6-7.6-1.8-11.2s-3-6.7-5.2-9.4c-2.3-2.7-5-4.9-8.1-6.5-3.2-1.6-6.7-2.5-10.6-2.5-4.1 0-7.8.9-11 2.6s-5.9 4-8.1 6.7c-2.2 2.8-3.9 5.9-5.1 9.5-1.4 3.5-2 7.1-2 10.8z"/><path d="m302.9 178.1h-12.6v-33.6c0-5.7-.9-9.8-2.7-12.3-1.8-2.6-4.5-3.8-8-3.8-1.8 0-3.7.3-5.5 1s-3.6 1.7-5.2 2.9c-1.6 1.3-3 2.8-4.3 4.5s-2.2 3.6-2.9 5.7v35.7h-12.7v-60h11.5v12.1c2.3-4.1 5.6-7.2 10-9.6 4.4-2.3 9.2-3.5 14.5-3.5 3.6 0 6.5.7 8.8 2s4.1 3.1 5.5 5.3c1.3 2.3 2.3 4.9 2.8 7.8s.8 6.1.8 9.4z"/><path d="m313.1 94.3h12.6v66.5c0 2.2.6 4 1.7 5.2 1.1 1.3 2.8 1.9 4.8 1.9.8 0 1.8-.2 2.9-.5s2.2-.6 3.2-1l1.8 9.9c-1.8.8-4 1.5-6.5 2s-4.8.7-6.8.7c-4.4 0-7.7-1.2-10.2-3.6-2.4-2.4-3.6-5.7-3.6-10.1v-71z"/><path d="m342.9 108.2v-13.9h12.6v13.9zm0 69.9v-60h12.6v60z"/><path d="m419.9 178.1h-12.6v-33.6c0-5.7-.9-9.8-2.7-12.3-1.8-2.6-4.5-3.8-8-3.8-1.8 0-3.7.3-5.5 1s-3.6 1.7-5.2 2.9c-1.6 1.3-3 2.8-4.3 4.5s-2.2 3.6-2.9 5.7v35.7h-12.6v-60h11.5v12.1c2.3-4.1 5.6-7.2 10-9.6 4.4-2.3 9.2-3.5 14.5-3.5 3.6 0 6.5.7 8.8 2s4.1 3.1 5.5 5.3c1.3 2.3 2.3 4.9 2.8 7.8s.8 6.1.8 9.4v36.4z"/><path d="m457.2 179.2c-4.7 0-8.9-.8-12.7-2.5-3.8-1.6-7.1-3.9-9.8-6.7s-4.8-6.1-6.3-9.9c-1.5-3.7-2.2-7.7-2.2-11.9s.7-8.2 2.2-12 3.6-7.1 6.3-10 6-5.1 9.8-6.8c3.8-1.6 8.1-2.5 12.9-2.5 4.7 0 8.9.8 12.7 2.5s7 3.9 9.7 6.7 4.7 6 6.1 9.8c1.4 3.7 2.1 7.6 2.1 11.7 0 .9 0 1.8-.1 2.6s-.2 1.5-.2 2h-48.1c.2 2.7.9 5.1 1.9 7.2s2.4 4 4 5.6 3.5 2.8 5.6 3.6 4.3 1.3 6.6 1.3c1.7 0 3.3-.2 5-.6 1.6-.4 3.2-1 4.5-1.8 1.4-.8 2.6-1.8 3.7-2.9s1.9-2.4 2.5-3.8l10.8 3.1c-2.1 4.5-5.5 8.2-10.3 11.1-4.7 2.8-10.3 4.2-16.7 4.2zm18.3-35.7c-.2-2.5-.9-4.9-1.9-7s-2.4-4-4-5.5-3.5-2.7-5.6-3.5-4.4-1.3-6.8-1.3-4.6.4-6.7 1.3c-2.1.8-4 2-5.6 3.5s-2.9 3.3-3.9 5.5c-1 2.1-1.6 4.5-1.8 7z"/><path d="m144.1 56-55.6-32.1c-4.5-2.6-10.1-2.6-14.6 0l-55.6 32.1c-4.5 2.6-7.3 7.4-7.3 12.6v64.2c0 5.2 2.8 10 7.3 12.6l55.6 32.1c4.5 2.6 10.1 2.6 14.6 0l55.6-32.1c4.5-2.6 7.3-7.4 7.3-12.6v-64.1c0-5.2-2.8-10.1-7.3-12.7zm-80.2 78.7c-.1 1.1-1.2 2-2.5 2h-16.9c-1.4 0-2.6-1-2.5-2.2l2.3-36.5c.1-1.1 1.2-2 2.5-2h16.9c1.4 0 2.6 1 2.5 2.2zm26.8 0c-.1 1.1-1.2 2-2.5 2h-16.9c-1.4 0-2.6-1-2.5-2.2l3.3-49.9c.1-1.1 1.2-2 2.5-2h16.9c1.4 0 2.6 1 2.5 2.2zm26.9 0c-.1 1.1-1.2 2-2.5 2h-16.9c-1.4 0-2.6-1-2.5-2.2l4.4-67.6c.1-1.1 1.2-2 2.5-2h16.9c1.4 0 2.6 1 2.5 2.2z"/></g></svg>