<svg enable-background="new 0 0 32 90.7" viewBox="0 0 32 90.7" xmlns="http://www.w3.org/2000/svg"><g fill="#fff"><circle cx="16" cy="13" r="3"/><path d="m16 .5c-8.3 0-15 6.7-15 15v25c0 8.3 6.7 15 15 15s15-6.7 15-15v-25c0-8.3-6.7-15-15-15zm13 40c0 7.2-5.8 13-13 13s-13-5.8-13-13v-25c0-7.2 5.8-13 13-13s13 5.8 13 13z"/><path d="m29.3 59.8-13.3 13.3-13.3-13.3c-.4-.4-1-.4-1.4 0s-.4 1 0 1.4l14 14c.2.2.5.3.7.3.3 0 .5-.1.7-.3l14-14c.4-.4.4-1 0-1.4s-1-.4-1.4 0z"/><path d="m29.3 73.8-13.3 13.3-13.3-13.3c-.4-.4-1-.4-1.4 0s-.4 1 0 1.4l14 14c.2.2.5.3.7.3.3 0 .5-.1.7-.3l14-14c.4-.4.4-1 0-1.4s-1-.4-1.4 0z"/></g></svg>