<?xml version="1.0" encoding="utf-8"?>
<!-- Generator: Adobe Illustrator 24.1.0, SVG Export Plug-In . SVG Version: 6.00 Build 0)  -->
<svg version="1.1" id="Layer_1" xmlns="http://www.w3.org/2000/svg" xmlns:xlink="http://www.w3.org/1999/xlink" x="0px" y="0px"
	 viewBox="0 0 32 90.7" style="enable-background:new 0 0 32 90.7;" xml:space="preserve">
<style type="text/css">
	.st0{fill:#FFFFFF;}
</style>
<circle class="st0" cx="16" cy="13" r="3"/>
<path class="st0" d="M16,0.5c-8.3,0-15,6.7-15,15v25c0,8.3,6.7,15,15,15s15-6.7,15-15v-25C31,7.2,24.3,0.5,16,0.5z M29,40.5
	c0,7.2-5.8,13-13,13s-13-5.8-13-13v-25c0-7.2,5.8-13,13-13s13,5.8,13,13V40.5z"/>
<path class="st0" d="M29.3,59.8L16,73.1L2.7,59.8c-0.4-0.4-1-0.4-1.4,0s-0.4,1,0,1.4l14,14c0.2,0.2,0.5,0.3,0.7,0.3
	c0.3,0,0.5-0.1,0.7-0.3l14-14c0.4-0.4,0.4-1,0-1.4S29.7,59.4,29.3,59.8z"/>
<path class="st0" d="M29.3,73.8L16,87.1L2.7,73.8c-0.4-0.4-1-0.4-1.4,0s-0.4,1,0,1.4l14,14c0.2,0.2,0.5,0.3,0.7,0.3
	c0.3,0,0.5-0.1,0.7-0.3l14-14c0.4-0.4,0.4-1,0-1.4S29.7,73.4,29.3,73.8z"/>
</svg>
