<?xml version="1.0" encoding="iso-8859-1"?>
<!-- Generator: Adobe Illustrator 19.0.0, SVG Export Plug-In . SVG Version: 6.00 Build 0)  -->
<svg version="1.1" id="Layer_1" xmlns="http://www.w3.org/2000/svg" xmlns:xlink="http://www.w3.org/1999/xlink" x="0px" y="0px"
	 viewBox="0 0 512 512" style="enable-background:new 0 0 512 512;" xml:space="preserve">
<polygon style="fill:#A2A9AF;" points="401.086,11.584 338.766,91.048 173.234,91.048 110.914,11.584 "/>
<path style="fill:#4C5870;" d="M303.563,114.528c0,0.012-22.716,52.648-22.716,52.648L256,190.344l-24.847-23.167l-22.716-52.636
	c0-0.012-0.452-35.075-0.452-35.075h96.029L303.563,114.528z"/>
<g>
	<polygon style="fill:#EBEDEC;" points="110.914,11.584 110.914,61.092 188.965,144.611 231.153,79.464 	"/>
	<polygon style="fill:#EBEDEC;" points="401.086,11.584 401.086,61.092 323.035,144.611 280.847,79.464 	"/>
</g>
<polygon style="fill:#269AF2;" points="306.851,460.722 256,500.416 205.149,460.722 231.152,167.17 280.848,167.17 "/>
<path style="fill:#11113F;" d="M401.086,0H110.914C104.516,0,99.33,5.186,99.33,11.584v49.504c0,2.936,1.114,5.763,3.119,7.908
	l78.046,83.528c2.2,2.355,5.269,3.676,8.463,3.676c0.341,0,0.682-0.015,1.024-0.045c3.553-0.315,6.761-2.248,8.701-5.242
	l7.704-11.896l12.967,30.054L193.61,459.701c-0.346,3.913,1.314,7.736,4.411,10.153l50.851,39.694
	c2.094,1.636,4.611,2.452,7.127,2.452c2.516,0,5.033-0.818,7.127-2.452l50.851-39.694c3.096-2.418,4.757-6.24,4.411-10.153
	l-25.745-290.632l12.967-30.054l7.704,11.896c1.938,2.993,5.148,4.927,8.701,5.242c0.342,0.03,0.683,0.045,1.024,0.045
	c3.193,0,6.262-1.321,8.463-3.676l78.046-83.528c2.005-2.145,3.119-4.972,3.119-7.908V11.584C412.67,5.186,407.484,0,401.086,0z
	 M256,485.721l-38.757-30.253l24.512-276.714h28.49l24.512,276.714L256,485.721z M273.23,155.587h-34.46l-17.24-39.956
	l15.921-24.585h37.098l15.921,24.585L273.23,155.587z M324.701,125.871l-11.376-17.568c-0.01-0.016-0.021-0.032-0.031-0.049
	l-16.031-24.756l56.064-31.65c5.572-3.145,7.538-10.21,4.393-15.782c-3.145-5.571-10.21-7.538-15.782-4.393l-64.132,36.205h-43.609
	l-64.132-36.205c-5.571-3.146-12.638-1.179-15.782,4.393c-3.145,5.572-1.179,12.637,4.393,15.782l56.064,31.65l-16.032,24.754
	c-0.01,0.016-0.021,0.032-0.031,0.049l-11.376,17.568l-64.802-69.352V23.167h267.005v33.351L324.701,125.871z"/>
<g>
</g>
<g>
</g>
<g>
</g>
<g>
</g>
<g>
</g>
<g>
</g>
<g>
</g>
<g>
</g>
<g>
</g>
<g>
</g>
<g>
</g>
<g>
</g>
<g>
</g>
<g>
</g>
<g>
</g>
</svg>
