<svg enable-background="new 0 0 512 512" viewBox="0 0 512 512" xmlns="http://www.w3.org/2000/svg"><path d="m401.086 11.584-62.32 79.464h-165.532l-62.32-79.464z" fill="#a2a9af"/><path d="m303.563 114.528c0 .012-22.716 52.648-22.716 52.648l-24.847 23.168-24.847-23.167-22.716-52.636c0-.012-.452-35.075-.452-35.075h96.029z" fill="#4c5870"/><path d="m110.914 11.584v49.508l78.051 83.519 42.188-65.147z" fill="#ebedec"/><path d="m401.086 11.584v49.508l-78.051 83.519-42.188-65.147z" fill="#ebedec"/><path d="m306.851 460.722-50.851 39.694-50.851-39.694 26.003-293.552h49.696z" fill="#269af2"/><path d="m401.086 0h-290.172c-6.398 0-11.584 5.186-11.584 11.584v49.504c0 2.936 1.114 5.763 3.119 7.908l78.046 83.528c2.2 2.355 5.269 3.676 8.463 3.676.341 0 .682-.015 1.024-.045 3.553-.315 6.761-2.248 8.701-5.242l7.704-11.896 12.967 30.054-25.744 290.63c-.346 3.913 1.314 7.736 4.411 10.153l50.851 39.694c2.094 1.636 4.611 2.452 7.127 2.452s5.033-.818 7.127-2.452l50.851-39.694c3.096-2.418 4.757-6.24 4.411-10.153l-25.745-290.632 12.967-30.054 7.704 11.896c1.938 2.993 5.148 4.927 8.701 5.242.342.03.683.045 1.024.045 3.193 0 6.262-1.321 8.463-3.676l78.046-83.528c2.005-2.145 3.119-4.972 3.119-7.908v-49.502c.003-6.398-5.183-11.584-11.581-11.584zm-145.086 485.721-38.757-30.253 24.512-276.714h28.49l24.512 276.714zm17.23-330.134h-34.46l-17.24-39.956 15.921-24.585h37.098l15.921 24.585zm51.471-29.716-11.376-17.568c-.01-.016-.021-.032-.031-.049l-16.031-24.756 56.064-31.65c5.572-3.145 7.538-10.21 4.393-15.782-3.145-5.571-10.21-7.538-15.782-4.393l-64.132 36.205h-43.609l-64.132-36.205c-5.571-3.146-12.638-1.179-15.782 4.393-3.145 5.572-1.179 12.637 4.393 15.782l56.064 31.65-16.032 24.754c-.01.016-.021.032-.031.049l-11.376 17.568-64.802-69.352v-33.35h267.005v33.351z" fill="#11113f"/></svg>