<?xml version="1.0" encoding="iso-8859-1"?>
<!-- Generator: Adobe Illustrator 19.0.0, SVG Export Plug-In . SVG Version: 6.00 Build 0)  -->
<svg version="1.1" id="Layer_1" xmlns="http://www.w3.org/2000/svg" xmlns:xlink="http://www.w3.org/1999/xlink" x="0px" y="0px"
	 viewBox="0 0 512 512" style="enable-background:new 0 0 512 512;" xml:space="preserve">
<g>
	<rect x="53.285" y="305.81" style="fill:#FFB14D;" width="405.43" height="23.167"/>
	<rect x="53.285" y="180.706" style="fill:#FFB14D;" width="405.43" height="23.167"/>
	<rect x="53.285" y="30.118" style="fill:#FFB14D;" width="405.43" height="37.068"/>
</g>
<g>
	<path style="fill:#FF9E24;" d="M53.285,11.584c-10.237,0-18.534,8.299-18.534,18.534s0,435.548,0,435.548h37.068
		c0,0,0-425.312,0-435.548S63.522,11.584,53.285,11.584z"/>
	<path style="fill:#FF9E24;" d="M458.715,11.584c-10.237,0-18.534,8.299-18.534,18.534s0,435.548,0,435.548h37.068
		c0,0,0-425.312,0-435.548S468.951,11.584,458.715,11.584z"/>
</g>
<rect x="11.584" y="442.498" style="fill:#FFB14D;" width="488.833" height="57.919"/>
<path style="fill:#EE3840;" d="M327.041,278.011c-12.298,0-22.269,9.97-22.269,22.269v34.228c0,12.298,9.97,22.269,22.269,22.269
	s22.269-9.97,22.269-22.269V300.28C349.309,287.981,339.339,278.011,327.041,278.011z"/>
<g>
	<path style="fill:#C21B23;" d="M371.578,278.011c-12.298,0-22.269,9.97-22.269,22.269v34.228c0,12.298,9.97,22.269,22.269,22.269
		s22.269-9.97,22.269-22.269V300.28C393.846,287.981,383.876,278.011,371.578,278.011z"/>
	<path style="fill:#C21B23;" d="M184.959,278.011c-12.298,0-22.269,9.97-22.269,22.269v34.228c0,12.298,9.97,22.269,22.269,22.269
		s22.269-9.97,22.269-22.269V300.28C207.228,287.981,197.258,278.011,184.959,278.011z"/>
</g>
<path style="fill:#EE3840;" d="M162.691,209.403c0,12.298-9.97,22.269-22.269,22.269s-22.269-9.97-22.269-22.269v-34.228
	c0-12.298,9.97-22.269,22.269-22.269s22.269,9.97,22.269,22.269V209.403z"/>
<path style="fill:#C21B23;" d="M282.504,152.907c-12.298,0-22.269,9.97-22.269,22.269v34.228c0,12.298,9.97,22.269,22.269,22.269
	s22.269-9.97,22.269-22.269v-34.228C304.772,162.877,294.802,152.907,282.504,152.907z"/>
<path style="fill:#EE3840;" d="M327.041,152.907c-12.298,0-22.269,9.97-22.269,22.269v34.228c0,12.298,9.97,22.269,22.269,22.269
	s22.269-9.97,22.269-22.269v-34.228C349.309,162.877,339.339,152.907,327.041,152.907z"/>
<path style="fill:#C21B23;" d="M371.578,152.907c-12.298,0-22.269,9.97-22.269,22.269v34.228c0,12.298,9.97,22.269,22.269,22.269
	s22.269-9.97,22.269-22.269v-34.228C393.846,162.877,383.876,152.907,371.578,152.907z"/>
<path style="fill:#EE3840;" d="M140.422,278.011c-12.298,0-22.269,9.97-22.269,22.269v34.228c0,12.298,9.97,22.269,22.269,22.269
	s22.269-9.97,22.269-22.269V300.28C162.691,287.981,152.721,278.011,140.422,278.011z"/>
<path style="fill:#11113F;" d="M500.416,430.914h-11.584V30.118C488.833,13.51,475.323,0,458.715,0
	c-12.505,0-23.25,7.66-27.797,18.534H81.083C76.535,7.66,65.79,0,53.285,0C36.678,0,23.167,13.51,23.167,30.118v400.796H11.584
	C5.187,430.914,0,436.101,0,442.498v57.919C0,506.813,5.187,512,11.584,512h488.833c6.397,0,11.584-5.187,11.584-11.584v-57.919
	C512,436.101,506.813,430.914,500.416,430.914z M458.715,23.167c3.833,0,6.95,3.117,6.95,6.95v400.796h-13.9V30.118
	C451.765,26.285,454.882,23.167,458.715,23.167z M83.403,430.914V328.977h23.167v5.53c0,18.666,15.185,33.852,33.852,33.852
	c8.521,0,16.312-3.172,22.269-8.388c5.958,5.215,13.746,8.388,22.269,8.388c18.666,0,33.853-15.185,33.853-33.852v-5.53h74.376v5.53
	c0,18.666,15.186,33.852,33.853,33.852c8.521,0,16.311-3.172,22.269-8.388c5.957,5.215,13.748,8.388,22.269,8.388
	c18.666,0,33.852-15.185,33.852-33.852v-5.53h23.167v101.937H83.403z M316.356,300.28c0-5.891,4.793-10.685,10.686-10.685
	c5.891,0,10.685,4.793,10.685,10.685v34.229c0,5.891-4.793,10.685-10.685,10.685c-5.893,0-10.686-4.793-10.686-10.685V300.28z
	 M360.893,300.28c0-5.891,4.793-10.685,10.686-10.685c5.891,0,10.685,4.793,10.685,10.685v34.229
	c0,5.891-4.793,10.685-10.685,10.685c-5.893,0-10.686-4.793-10.686-10.685V300.28z M371.578,266.428
	c-8.521,0-16.312,3.172-22.269,8.388c-5.957-5.215-13.746-8.388-22.269-8.388c-18.666,0-33.853,15.185-33.853,33.852v5.53h-74.376
	v-5.53c0-18.666-15.186-33.852-33.853-33.852c-8.521,0-16.311,3.172-22.269,8.388c-5.958-5.215-13.748-8.388-22.269-8.388
	c-18.666,0-33.852,15.185-33.852,33.852v5.53H83.403V203.873h23.167v5.53c0,18.666,15.185,33.852,33.852,33.852
	c18.667,0,33.853-15.185,33.853-33.852v-5.53h74.376v5.53c0,18.666,15.186,33.852,33.853,33.852c8.521,0,16.311-3.172,22.269-8.388
	c5.958,5.215,13.748,8.388,22.269,8.388c8.521,0,16.311-3.172,22.269-8.388c5.957,5.215,13.748,8.388,22.269,8.388
	c18.666,0,33.852-15.185,33.852-33.852v-5.53h23.167V305.81h-23.167v-5.53C405.43,281.613,390.245,266.428,371.578,266.428z
	 M129.738,300.28c0-5.891,4.793-10.685,10.685-10.685c5.893,0,10.686,4.793,10.686,10.685v34.229
	c0,5.891-4.793,10.685-10.686,10.685c-5.891,0-10.685-4.793-10.685-10.685C129.738,334.509,129.738,300.28,129.738,300.28z
	 M174.275,300.28c0-5.891,4.793-10.685,10.685-10.685c5.893,0,10.686,4.793,10.686,10.685v34.229
	c0,5.891-4.793,10.685-10.686,10.685c-5.891,0-10.685-4.793-10.685-10.685V300.28z M428.597,180.706H405.43v-5.53
	c0-18.666-15.185-33.852-33.852-33.852c-8.521,0-16.312,3.172-22.269,8.388c-5.957-5.215-13.746-8.388-22.269-8.388
	s-16.312,3.172-22.269,8.388c-5.957-5.215-13.746-8.388-22.269-8.388c-18.666,0-33.853,15.185-33.853,33.852v5.53h-74.376v-5.53
	c0-18.666-15.186-33.852-33.853-33.852s-33.851,15.185-33.851,33.852v5.53H83.403V78.769h345.195V180.706z M271.818,192.313
	c0-0.008,0.001-0.015,0.001-0.023c0-0.008-0.001-0.015-0.001-0.023v-17.092c0-5.891,4.793-10.685,10.686-10.685
	c5.891,0,10.685,4.793,10.685,10.685v34.229c0,5.891-4.793,10.685-10.685,10.685c-5.893,0-10.686-4.793-10.686-10.685V192.313z
	 M316.356,175.176c0-5.891,4.793-10.685,10.686-10.685c5.891,0,10.685,4.793,10.685,10.685v34.229
	c0,5.891-4.793,10.685-10.685,10.685c-5.893,0-10.686-4.793-10.686-10.685V175.176z M360.893,175.176
	c0-5.891,4.793-10.685,10.686-10.685c5.891,0,10.685,4.793,10.685,10.685v34.229c0,5.891-4.793,10.685-10.685,10.685
	c-5.893,0-10.686-4.793-10.686-10.685V175.176z M129.738,175.176c0-5.891,4.793-10.685,10.685-10.685
	c5.893,0,10.686,4.793,10.686,10.685v34.229c0,5.891-4.793,10.685-10.686,10.685c-5.891,0-10.685-4.793-10.685-10.685
	C129.738,209.405,129.738,175.176,129.738,175.176z M428.597,55.602H83.403v-13.9h345.195V55.602z M46.335,30.118
	c0-3.833,3.117-6.95,6.95-6.95s6.95,3.117,6.95,6.95v400.796h-13.9V30.118z M488.833,488.833H23.167v-34.751h465.665V488.833z"/>
<g>
</g>
<g>
</g>
<g>
</g>
<g>
</g>
<g>
</g>
<g>
</g>
<g>
</g>
<g>
</g>
<g>
</g>
<g>
</g>
<g>
</g>
<g>
</g>
<g>
</g>
<g>
</g>
<g>
</g>
</svg>
