<svg enable-background="new 0 0 512 512" viewBox="0 0 512 512" xmlns="http://www.w3.org/2000/svg"><g fill="#ffb14d"><path d="m53.285 305.81h405.43v23.167h-405.43z"/><path d="m53.285 180.706h405.43v23.167h-405.43z"/><path d="m53.285 30.118h405.43v37.068h-405.43z"/></g><path d="m53.285 11.584c-10.237 0-18.534 8.299-18.534 18.534s0 435.548 0 435.548h37.068s0-425.312 0-435.548-8.297-18.534-18.534-18.534z" fill="#ff9e24"/><path d="m458.715 11.584c-10.237 0-18.534 8.299-18.534 18.534s0 435.548 0 435.548h37.068s0-425.312 0-435.548-8.298-18.534-18.534-18.534z" fill="#ff9e24"/><path d="m11.584 442.498h488.833v57.919h-488.833z" fill="#ffb14d"/><path d="m327.041 278.011c-12.298 0-22.269 9.97-22.269 22.269v34.228c0 12.298 9.97 22.269 22.269 22.269s22.269-9.97 22.269-22.269v-34.228c-.001-12.299-9.971-22.269-22.269-22.269z" fill="#ee3840"/><path d="m371.578 278.011c-12.298 0-22.269 9.97-22.269 22.269v34.228c0 12.298 9.97 22.269 22.269 22.269s22.269-9.97 22.269-22.269v-34.228c-.001-12.299-9.971-22.269-22.269-22.269z" fill="#c21b23"/><path d="m184.959 278.011c-12.298 0-22.269 9.97-22.269 22.269v34.228c0 12.298 9.97 22.269 22.269 22.269s22.269-9.97 22.269-22.269v-34.228c0-12.299-9.97-22.269-22.269-22.269z" fill="#c21b23"/><path d="m162.691 209.403c0 12.298-9.97 22.269-22.269 22.269s-22.269-9.97-22.269-22.269v-34.228c0-12.298 9.97-22.269 22.269-22.269s22.269 9.97 22.269 22.269z" fill="#ee3840"/><path d="m282.504 152.907c-12.298 0-22.269 9.97-22.269 22.269v34.228c0 12.298 9.97 22.269 22.269 22.269s22.269-9.97 22.269-22.269v-34.228c-.001-12.299-9.971-22.269-22.269-22.269z" fill="#c21b23"/><path d="m327.041 152.907c-12.298 0-22.269 9.97-22.269 22.269v34.228c0 12.298 9.97 22.269 22.269 22.269s22.269-9.97 22.269-22.269v-34.228c-.001-12.299-9.971-22.269-22.269-22.269z" fill="#ee3840"/><path d="m371.578 152.907c-12.298 0-22.269 9.97-22.269 22.269v34.228c0 12.298 9.97 22.269 22.269 22.269s22.269-9.97 22.269-22.269v-34.228c-.001-12.299-9.971-22.269-22.269-22.269z" fill="#c21b23"/><path d="m140.422 278.011c-12.298 0-22.269 9.97-22.269 22.269v34.228c0 12.298 9.97 22.269 22.269 22.269s22.269-9.97 22.269-22.269v-34.228c0-12.299-9.97-22.269-22.269-22.269z" fill="#ee3840"/><path d="m500.416 430.914h-11.584v-400.796c.001-16.608-13.509-30.118-30.117-30.118-12.505 0-23.25 7.66-27.797 18.534h-349.835c-4.548-10.874-15.293-18.534-27.798-18.534-16.607 0-30.118 13.51-30.118 30.118v400.796h-11.583c-6.397 0-11.584 5.187-11.584 11.584v57.919c0 6.396 5.187 11.583 11.584 11.583h488.833c6.397 0 11.584-5.187 11.584-11.584v-57.919c-.001-6.396-5.188-11.583-11.585-11.583zm-41.701-407.747c3.833 0 6.95 3.117 6.95 6.95v400.796h-13.9v-400.795c0-3.833 3.117-6.951 6.95-6.951zm-375.312 407.747v-101.937h23.167v5.53c0 18.666 15.185 33.852 33.852 33.852 8.521 0 16.312-3.172 22.269-8.388 5.958 5.215 13.746 8.388 22.269 8.388 18.666 0 33.853-15.185 33.853-33.852v-5.53h74.376v5.53c0 18.666 15.186 33.852 33.853 33.852 8.521 0 16.311-3.172 22.269-8.388 5.957 5.215 13.748 8.388 22.269 8.388 18.666 0 33.852-15.185 33.852-33.852v-5.53h23.167v101.937zm232.953-130.634c0-5.891 4.793-10.685 10.686-10.685 5.891 0 10.685 4.793 10.685 10.685v34.229c0 5.891-4.793 10.685-10.685 10.685-5.893 0-10.686-4.793-10.686-10.685zm44.537 0c0-5.891 4.793-10.685 10.686-10.685 5.891 0 10.685 4.793 10.685 10.685v34.229c0 5.891-4.793 10.685-10.685 10.685-5.893 0-10.686-4.793-10.686-10.685zm10.685-33.852c-8.521 0-16.312 3.172-22.269 8.388-5.957-5.215-13.746-8.388-22.269-8.388-18.666 0-33.853 15.185-33.853 33.852v5.53h-74.376v-5.53c0-18.666-15.186-33.852-33.853-33.852-8.521 0-16.311 3.172-22.269 8.388-5.958-5.215-13.748-8.388-22.269-8.388-18.666 0-33.852 15.185-33.852 33.852v5.53h-23.165v-101.937h23.167v5.53c0 18.666 15.185 33.852 33.852 33.852s33.853-15.185 33.853-33.852v-5.53h74.376v5.53c0 18.666 15.186 33.852 33.853 33.852 8.521 0 16.311-3.172 22.269-8.388 5.958 5.215 13.748 8.388 22.269 8.388s16.311-3.172 22.269-8.388c5.957 5.215 13.748 8.388 22.269 8.388 18.666 0 33.852-15.185 33.852-33.852v-5.53h23.167v101.937h-23.167v-5.53c-.002-18.667-15.187-33.852-33.854-33.852zm-241.84 33.852c0-5.891 4.793-10.685 10.685-10.685 5.893 0 10.686 4.793 10.686 10.685v34.229c0 5.891-4.793 10.685-10.686 10.685-5.891 0-10.685-4.793-10.685-10.685zm44.537 0c0-5.891 4.793-10.685 10.685-10.685 5.893 0 10.686 4.793 10.686 10.685v34.229c0 5.891-4.793 10.685-10.686 10.685-5.891 0-10.685-4.793-10.685-10.685zm254.322-119.574h-23.167v-5.53c0-18.666-15.185-33.852-33.852-33.852-8.521 0-16.312 3.172-22.269 8.388-5.957-5.215-13.746-8.388-22.269-8.388s-16.312 3.172-22.269 8.388c-5.957-5.215-13.746-8.388-22.269-8.388-18.666 0-33.853 15.185-33.853 33.852v5.53h-74.376v-5.53c0-18.666-15.186-33.852-33.853-33.852s-33.851 15.185-33.851 33.852v5.53h-23.166v-101.937h345.195v101.937zm-156.779 11.607c0-.008.001-.015.001-.023s-.001-.015-.001-.023v-17.092c0-5.891 4.793-10.685 10.686-10.685 5.891 0 10.685 4.793 10.685 10.685v34.229c0 5.891-4.793 10.685-10.685 10.685-5.893 0-10.686-4.793-10.686-10.685zm44.538-17.137c0-5.891 4.793-10.685 10.686-10.685 5.891 0 10.685 4.793 10.685 10.685v34.229c0 5.891-4.793 10.685-10.685 10.685-5.893 0-10.686-4.793-10.686-10.685zm44.537 0c0-5.891 4.793-10.685 10.686-10.685 5.891 0 10.685 4.793 10.685 10.685v34.229c0 5.891-4.793 10.685-10.685 10.685-5.893 0-10.686-4.793-10.686-10.685zm-231.155 0c0-5.891 4.793-10.685 10.685-10.685 5.893 0 10.686 4.793 10.686 10.685v34.229c0 5.891-4.793 10.685-10.686 10.685-5.891 0-10.685-4.793-10.685-10.685zm298.859-119.574h-345.194v-13.9h345.195v13.9zm-382.262-25.484c0-3.833 3.117-6.95 6.95-6.95s6.95 3.117 6.95 6.95v400.796h-13.9zm442.498 458.715h-465.666v-34.751h465.665v34.751z" fill="#11113f"/></svg>