<svg enable-background="new 0 0 512 512" viewBox="0 0 512 512" xmlns="http://www.w3.org/2000/svg"><path d="m81.086 184.181h349.828v229.357h-349.828z" fill="#3d3d3b"/><g fill="#e6e2e0"><path d="m57.919 184.181h46.335v229.357h-46.335z"/><path d="m407.747 184.181h46.335v229.357h-46.335z"/><path d="m292.686 184.181h46.335v229.357h-46.335z"/><path d="m172.98 184.181h46.335v229.357h-46.335z"/></g><path d="m34.751 396.162h442.498v69.502h-442.498z" fill="#ccc4c1"/><path d="m477.249 150.588h-442.498l221.249-139.005z" fill="#ccc4c1"/><path d="m34.751 150.588h442.498v46.335h-442.498z" fill="#ada7a4"/><path d="m11.584 442.497h488.833v57.919h-488.833z" fill="#ada7a4"/><path d="m34.751 162.172h442.498c5.163 0 9.703-3.416 11.131-8.376 1.428-4.961-.598-10.269-4.968-13.015l-221.249-139.006c-3.769-2.367-8.557-2.367-12.326 0l-221.25 139.005c-4.371 2.747-6.397 8.054-4.968 13.015 1.43 4.96 5.969 8.377 11.132 8.377zm221.249-136.908 181.037 113.74h-362.074z" fill="#11113f"/><path d="m500.416 430.914h-11.584v-34.751c0-6.397-5.187-11.584-11.584-11.584h-11.584v-176.073h11.584c6.397 0 11.584-5.187 11.584-11.584s-5.187-11.584-11.584-11.584h-442.497c-6.397 0-11.584 5.187-11.584 11.584s5.187 11.584 11.584 11.584h11.584v176.072h-11.584c-6.397 0-11.584 5.187-11.584 11.584v34.751h-11.583c-6.397.001-11.584 5.188-11.584 11.584v57.919c0 6.396 5.187 11.584 11.584 11.584h488.833c6.397 0 11.584-5.187 11.584-11.584v-57.919c-.001-6.396-5.188-11.583-11.585-11.583zm-57.918-46.335h-23.168v-176.073h23.167v176.073zm-91.897 0v-176.073h45.562v176.072h-45.562zm-46.335 0v-176.073h23.167v176.072h-23.167zm-73.364 0v-176.073h50.197v176.072h-50.197zm-46.335 0v-176.073h23.167v176.072h-23.167zm-68.73 0v-176.073h45.562v176.072h-45.562zm-46.335-176.073h23.168v176.072h-23.168zm419.331 280.326h-465.666v-34.751h93.377c6.397 0 11.584-5.187 11.584-11.584s-5.187-11.584-11.584-11.584h-70.21v-23.167h419.33v23.167h-309.605c-6.397 0-11.584 5.187-11.584 11.584s5.187 11.584 11.584 11.584h332.773v34.751z" fill="#11113f"/></svg>