<svg enable-background="new 0 0 512 512" viewBox="0 0 512 512" xmlns="http://www.w3.org/2000/svg"><path d="m421.305 11.584h-306.996c-12.989 0-23.615 10.627-23.615 23.615v11.808l312.9 453.41h17.711c25.976 0 47.23-21.254 47.23-47.23v-394.373c.001-25.976-21.253-47.23-47.23-47.23z" fill="#1f5985"/><path d="m90.695 82.429c-12.989 0-23.615 10.627-23.615 23.615v370.757c0 12.989 10.627 23.615 23.615 23.615h312.9v-417.987z" fill="#269af2"/><path d="m319.76 303.23h-252.681c-12.989 0-23.615 10.627-23.615 23.615v47.23c0 12.989 10.627 23.615 23.615 23.615h252.681c12.989 0 23.615-10.627 23.615-23.615v-47.23c.001-12.988-10.626-23.615-23.615-23.615z" fill="#1f5985"/><path d="m403.594 47.007h-312.899v35.423h312.9c9.781 0 17.711-7.93 17.711-17.711-.001-9.783-7.93-17.712-17.712-17.712z" fill="#181818"/><path d="m194.12 279.619h47.226v141.692h-47.226z" fill="#ff9e24"/><g fill="#11113f"><path d="m421.305 0h-306.996c-19.408 0-35.198 15.791-35.198 35.199v37.613c-13.734 4.801-23.616 17.881-23.616 33.231v187.569c-13.734 4.801-23.615 17.881-23.615 33.231v47.23c0 15.351 9.882 28.429 23.615 33.23v69.495c0 19.409 15.791 35.199 35.199 35.199h330.611c32.43 0 58.814-26.383 58.814-58.813v-394.371c0-32.43-26.384-58.813-58.814-58.813zm-366.257 326.845c0-6.635 5.397-12.032 12.031-12.032h115.461v71.293h-115.461c-6.634 0-12.031-5.397-12.031-12.031zm174.718 82.877h-24.058v-12.02c0-.003 0-.008 0-.012s0-.007 0-.012v-106.48h24.058zm227.186 43.465c0 19.655-15.991 35.645-35.647 35.645h-6.128v-307.22c0-6.397-5.186-11.584-11.584-11.584s-11.584 5.187-11.584 11.584v307.221h-301.314c-6.634 0-12.032-5.397-12.032-12.032v-67.527h103.877v23.839c0 6.397 5.186 11.584 11.584 11.584s11.584-5.187 11.584-11.584v-.224h24.058v.224c0 6.397 5.186 11.584 11.584 11.584s11.584-5.187 11.584-11.584v-165.306c0-6.397-5.186-11.584-11.584-11.584s-11.584 5.187-11.584 11.584v.224h-24.058v-.224c0-6.397-5.186-11.584-11.584-11.584s-11.584 5.187-11.584 11.584v23.838h-103.877v-185.601c0-6.635 5.398-12.032 12.032-12.032h301.317v52.177c0 6.397 5.186 11.584 11.584 11.584s11.584-5.187 11.584-11.584v-54.569c10.408-4.499 17.711-14.862 17.711-26.903 0-6.397-5.186-11.584-11.584-11.584s-11.584 5.187-11.584 11.584c0 3.379-2.749 6.128-6.128 6.128h-301.317v-12.255h277.701c6.398 0 11.584-5.187 11.584-11.584s-5.186-11.584-11.584-11.584h-277.701v-.224c0-6.635 5.397-12.032 12.031-12.032h306.996c19.655 0 35.647 15.991 35.647 35.645z"/><path d="m319.76 291.645h-42.988c-6.398 0-11.584 5.187-11.584 11.584s5.186 11.584 11.584 11.584h42.988c6.634 0 12.032 5.397 12.032 12.032v47.23c0 6.634-5.398 12.031-12.032 12.031h-42.988c-6.398 0-11.584 5.187-11.584 11.584s5.186 11.584 11.584 11.584h42.988c19.409 0 35.199-15.79 35.199-35.198v-47.23c.001-19.41-15.789-35.201-35.199-35.201z"/></g></svg>