<?xml version="1.0" encoding="iso-8859-1"?>
<!-- Generator: Adobe Illustrator 19.0.0, SVG Export Plug-In . SVG Version: 6.00 Build 0)  -->
<svg version="1.1" id="Layer_1" xmlns="http://www.w3.org/2000/svg" xmlns:xlink="http://www.w3.org/1999/xlink" x="0px" y="0px"
	 viewBox="0 0 512 512" style="enable-background:new 0 0 512 512;" xml:space="preserve">
<path style="fill:#1F5985;" d="M421.305,11.584H114.309c-12.989,0-23.615,10.627-23.615,23.615v11.808l312.9,453.41h17.711
	c25.976,0,47.23-21.254,47.23-47.23V58.814C468.536,32.838,447.282,11.584,421.305,11.584z"/>
<path style="fill:#269AF2;" d="M90.695,82.429c-12.989,0-23.615,10.627-23.615,23.615v370.757c0,12.989,10.627,23.615,23.615,23.615
	h312.9V82.429H90.695z"/>
<path style="fill:#1F5985;" d="M319.76,303.23H67.079c-12.989,0-23.615,10.627-23.615,23.615v47.23
	c0,12.989,10.627,23.615,23.615,23.615H319.76c12.989,0,23.615-10.627,23.615-23.615v-47.23
	C343.376,313.857,332.749,303.23,319.76,303.23z"/>
<path style="fill:#181818;" d="M403.594,47.007H90.695V82.43h312.9c9.781,0,17.711-7.93,17.711-17.711
	C421.305,54.936,413.376,47.007,403.594,47.007z"/>
<rect x="194.12" y="279.619" style="fill:#FF9E24;" width="47.226" height="141.692"/>
<g>
	<path style="fill:#11113F;" d="M421.305,0H114.309C94.901,0,79.111,15.791,79.111,35.199v37.613
		c-13.734,4.801-23.616,17.881-23.616,33.231v187.569c-13.734,4.801-23.615,17.881-23.615,33.231v47.23
		c0,15.351,9.882,28.429,23.615,33.23v69.495c0,19.409,15.791,35.199,35.199,35.199h330.611c32.43,0,58.814-26.383,58.814-58.813
		V58.813C480.119,26.383,453.735,0,421.305,0z M55.048,326.845c0-6.635,5.397-12.032,12.031-12.032H182.54v71.293H67.079
		c-6.634,0-12.031-5.397-12.031-12.031C55.048,374.075,55.048,326.845,55.048,326.845z M229.766,409.722h-24.058v-12.02
		c0-0.003,0-0.008,0-0.012s0-0.007,0-0.012v-106.48h24.058V409.722z M456.952,453.187c0,19.655-15.991,35.645-35.647,35.645h-6.128
		V181.612c0-6.397-5.186-11.584-11.584-11.584c-6.398,0-11.584,5.187-11.584,11.584v307.221H90.695
		c-6.634,0-12.032-5.397-12.032-12.032v-67.527H182.54v23.839c0,6.397,5.186,11.584,11.584,11.584
		c6.398,0,11.584-5.187,11.584-11.584v-0.224h24.058v0.224c0,6.397,5.186,11.584,11.584,11.584s11.584-5.187,11.584-11.584V267.807
		c0-6.397-5.186-11.584-11.584-11.584s-11.584,5.187-11.584,11.584v0.224h-24.058v-0.224c0-6.397-5.186-11.584-11.584-11.584
		c-6.398,0-11.584,5.187-11.584,11.584v23.838H78.663V106.044c0-6.635,5.398-12.032,12.032-12.032h301.317v52.177
		c0,6.397,5.186,11.584,11.584,11.584c6.398,0,11.584-5.187,11.584-11.584V91.62c10.408-4.499,17.711-14.862,17.711-26.903
		c0-6.397-5.186-11.584-11.584-11.584c-6.398,0-11.584,5.187-11.584,11.584c0,3.379-2.749,6.128-6.128,6.128H102.278V58.59h277.701
		c6.398,0,11.584-5.187,11.584-11.584s-5.186-11.584-11.584-11.584H102.278v-0.224c0-6.635,5.397-12.032,12.031-12.032h306.996
		c19.655,0,35.647,15.991,35.647,35.645V453.187z"/>
	<path style="fill:#11113F;" d="M319.76,291.645h-42.988c-6.398,0-11.584,5.187-11.584,11.584c0,6.397,5.186,11.584,11.584,11.584
		h42.988c6.634,0,12.032,5.397,12.032,12.032v47.23c0,6.634-5.398,12.031-12.032,12.031h-42.988
		c-6.398,0-11.584,5.187-11.584,11.584c0,6.397,5.186,11.584,11.584,11.584h42.988c19.409,0,35.199-15.79,35.199-35.198v-47.23
		C354.96,307.436,339.17,291.645,319.76,291.645z"/>
</g>
<g>
</g>
<g>
</g>
<g>
</g>
<g>
</g>
<g>
</g>
<g>
</g>
<g>
</g>
<g>
</g>
<g>
</g>
<g>
</g>
<g>
</g>
<g>
</g>
<g>
</g>
<g>
</g>
<g>
</g>
</svg>
