<svg enable-background="new 0 0 512 512" viewBox="0 0 512 512" xmlns="http://www.w3.org/2000/svg"><path d="m466.054 273.806h-41.021c-9.578-24.195-26.714-45.596-49.139-62.316-.38-48.674-6.099-78.977-19.757-78.977-10.052 0-40.381 17.489-62.425 44.494-11.734-2.018-23.893-3.086-36.358-3.086-97.351 0-176.271 64.721-176.271 144.558 0 42.663 22.541 81.004 58.383 107.465l-11.639 66.012 45.185 7.968 8.948-50.748c22.86 8.885 48.417 13.862 75.395 13.862s52.535-4.978 75.395-13.862l8.948 50.748 45.184-7.968-11.639-66.012c22.743-16.79 40.121-38.364 49.791-62.791h41.021c8.594 0 15.561-6.967 15.561-15.561v-58.226c0-8.594-6.968-15.56-15.562-15.56z" fill="#ada7a4"/><circle cx="254.943" cy="63.388" fill="#ffb14d" r="52.522"/><g fill="#11113f"><path d="m464.847 261.732h-33.083c-9.891-21.19-25.301-40.423-45.076-56.229-.401-23.537-2.089-41.404-5.141-54.496-4.728-20.284-13.682-30.569-26.616-30.569-14.112 0-44.139 17.649-67.232 43.6-10.396-1.456-20.98-2.191-31.552-2.191-49.868 0-96.853 16.009-132.298 45.078-32.151 26.367-51.439 60.632-55.309 97.653-14.431-4.77-24.876-18.377-24.876-34.384 0-6.668-5.407-12.074-12.074-12.074s-12.074 5.406-12.074 12.074c0 29.313 21.009 53.803 48.757 59.229 3.241 38.485 23.462 74.74 56.827 101.617l-10.372 58.82c-.557 3.154.163 6.398 1.999 9.022 1.836 2.622 4.64 4.409 7.794 4.965l45.184 7.968c6.567 1.158 12.829-3.226 13.987-9.794l6.484-36.768c21.029 6.548 43.154 9.86 65.97 9.86 22.815 0 44.939-3.311 65.969-9.86l6.484 36.768c1.032 5.858 6.126 9.98 11.876 9.979.695 0 1.402-.06 2.111-.185l45.185-7.968c6.567-1.158 10.951-7.421 9.793-13.987l-10.369-58.818c19.536-15.734 34.762-34.806 44.569-55.814h33.083c15.239 0 27.636-12.398 27.636-27.635v-58.226c0-15.238-12.397-27.635-27.636-27.635zm3.488 85.86c0 1.923-1.565 3.487-3.488 3.487h-41.021c-4.954 0-9.403 3.025-11.226 7.63-8.693 21.959-24.508 41.85-45.735 57.522-3.687 2.721-5.514 7.296-4.719 11.81l9.542 54.122-21.405 3.774-6.852-38.858c-.628-3.559-2.817-6.652-5.966-8.425-1.832-1.031-3.873-1.553-5.924-1.553-1.479 0-2.963.272-4.374.82-22.266 8.653-46.16 13.042-71.019 13.042-24.86 0-48.755-4.388-71.02-13.042-3.369-1.308-7.148-1.041-10.298.733-3.149 1.774-5.339 4.865-5.966 8.425l-6.852 38.858-21.404-3.774 9.542-54.122c.796-4.513-1.031-9.088-4.719-11.81-33.987-25.092-53.481-60.721-53.481-97.751 0-73.052 73.659-132.485 164.197-132.485 11.537 0 23.079.979 34.311 2.911 4.291.738 8.646-.891 11.4-4.265 19.066-23.357 43.765-37.772 51.918-39.822 2.095 3.01 8.44 16.271 8.835 66.764.029 3.779 1.828 7.326 4.856 9.586 20.915 15.594 36.52 35.332 45.13 57.081 1.823 4.605 6.272 7.63 11.226 7.63h41.021c1.923 0 3.488 1.564 3.488 3.487v5.439 1.093c-4.172 1.902-7.077 6.099-7.077 10.981 0 4.883 2.905 9.08 7.077 10.981v1.093 28.639h.003z"/><path d="m256.149 129.192c35.618 0 64.596-28.978 64.596-64.596s-28.978-64.596-64.596-64.596-64.596 28.978-64.596 64.596 28.978 64.596 64.596 64.596zm0-105.044c22.303 0 40.448 18.145 40.448 40.448s-18.146 40.448-40.448 40.448-40.448-18.145-40.448-40.448 18.145-40.448 40.448-40.448z"/><path d="m303.381 214.486c-15.083-4.791-30.973-7.22-47.232-7.22-16.258 0-32.149 2.429-47.233 7.22-6.356 2.019-9.872 8.807-7.853 15.163 2.02 6.356 8.807 9.872 15.164 7.852 12.716-4.039 26.149-6.088 39.923-6.088s27.206 2.048 39.921 6.088c1.216.386 2.446.57 3.658.57 5.118 0 9.872-3.283 11.503-8.423 2.021-6.354-1.495-13.143-7.851-15.162z"/></g></svg>