<svg enable-background="new 0 0 512 512" viewBox="0 0 512 512" xmlns="http://www.w3.org/2000/svg"><path d="m34.762 223.832h115.86v230.852h-115.86z" fill="#269af2"/><path d="m198.069 117.702h115.86v336.982h-115.86z" fill="#4c5870"/><path d="m361.388 11.584h115.86v443.1h-115.86z" fill="#181818"/><g fill="#11113f"><path d="m34.76 466.272h115.857c6.397 0 11.584-5.186 11.584-11.584v-230.857c0-6.398-5.187-11.584-11.584-11.584h-115.857c-6.397 0-11.584 5.186-11.584 11.584v230.858c0 6.397 5.186 11.583 11.584 11.583zm11.584-230.857h92.689v207.69h-92.689z"/><path d="m198.072 466.272h115.856c6.397 0 11.584-5.186 11.584-11.584v-336.981c0-6.398-5.187-11.584-11.584-11.584h-115.856c-6.397 0-11.584 5.186-11.584 11.584v336.982c0 6.397 5.187 11.583 11.584 11.583zm11.583-336.982h92.688v313.814h-92.688z"/><path d="m477.239 0h-115.856c-6.396 0-11.583 5.186-11.583 11.584v443.105c0 6.398 5.187 11.584 11.584 11.584h115.856c6.397 0 11.584-5.186 11.584-11.584v-443.105c-.001-6.398-5.187-11.584-11.585-11.584zm-11.584 443.105h-92.689v-419.938h92.689z"/><path d="m477.239 488.833h-442.479c-6.397 0-11.584 5.186-11.584 11.584s5.187 11.584 11.584 11.584h442.479c6.397 0 11.584-5.186 11.584-11.584s-5.186-11.584-11.584-11.584z"/></g></svg>