<svg enable-background="new 0 0 512 512" viewBox="0 0 512 512" xmlns="http://www.w3.org/2000/svg"><path d="m192.046 71.078h127.896v77.611h-127.896z" fill="#269af2"/><path d="m192.046 362.153h127.896v77.611h-127.896z" fill="#4c5870"/><path d="m373.459 362.153h127.896v77.611h-127.896z" fill="#181818"/><path d="m10.645 362.153h127.896v77.611h-127.896z" fill="#a2a9af"/><g fill="#11113f"><path d="m192.989 157.427h126.02c6.397 0 11.584-5.186 11.584-11.584v-71.917c0-6.398-5.187-11.584-11.584-11.584h-126.02c-6.397 0-11.584 5.186-11.584 11.584v71.917c.001 6.398 5.188 11.584 11.584 11.584zm11.584-71.917h102.853v48.75h-102.853z"/><path d="m319.011 354.573h-126.022c-6.397 0-11.584 5.186-11.584 11.584v71.917c0 6.398 5.187 11.584 11.584 11.584h126.02c6.397 0 11.584-5.186 11.584-11.584v-71.917c.001-6.398-5.186-11.584-11.582-11.584zm-11.584 71.917h-102.853v-48.75h102.853z"/><path d="m500.416 354.573h-126.02c-6.397 0-11.584 5.186-11.584 11.584v71.917c0 6.398 5.187 11.584 11.584 11.584h126.02c6.397 0 11.584-5.186 11.584-11.584v-71.917c0-6.398-5.187-11.584-11.584-11.584zm-11.583 71.917h-102.853v-48.75h102.853z"/><path d="m137.604 354.573h-126.02c-6.397 0-11.584 5.186-11.584 11.583v71.917c0 6.398 5.187 11.584 11.584 11.584h126.02c6.397 0 11.584-5.186 11.584-11.584v-71.917c0-6.397-5.187-11.583-11.584-11.583zm-11.584 71.917h-102.853v-48.75h102.853z"/><path d="m244.416 290.172v41.233c0 6.398 5.187 11.584 11.584 11.584s11.584-5.186 11.584-11.584v-41.233c0-6.398-5.187-11.584-11.584-11.584s-11.584 5.186-11.584 11.584z"/><path d="m74.594 342.989c6.397 0 11.584-5.186 11.584-11.584v-63.822h339.645v63.822c0 6.398 5.187 11.584 11.584 11.584s11.584-5.186 11.584-11.584v-75.405c0-6.398-5.187-11.584-11.584-11.584h-169.823v-63.822c0-6.398-5.187-11.584-11.584-11.584s-11.584 5.186-11.584 11.584v63.822h-169.822c-6.397 0-11.584 5.186-11.584 11.584v75.405c.001 6.398 5.187 11.584 11.584 11.584z"/></g></svg>