<svg enable-background="new 0 0 512 512" viewBox="0 0 512 512" xmlns="http://www.w3.org/2000/svg"><path d="m388.315 500.494c25.312 0 46.022-20.71 46.022-46.022v-396.944c0-25.312-20.71-46.022-46.022-46.022h-264.63c-25.312 0-46.022 20.71-46.022 46.022v396.944c0 25.312 20.71 46.022 46.022 46.022z" fill="#3d3d3b"/><path d="m135.191 392.342h50.625v50.625h-50.625z" fill="#ada7a4"/><path d="m230.688 392.342h50.625v50.625h-50.625z" fill="#ada7a4"/><path d="m326.184 296.845h50.625v146.121h-50.625z" fill="#7a7674"/><path d="m135.191 296.845h50.625v50.625h-50.625z" fill="#ada7a4"/><path d="m230.688 296.845h50.625v50.625h-50.625z" fill="#ada7a4"/><path d="m135.191 201.348h50.625v50.625h-50.625z" fill="#ada7a4"/><path d="m230.688 201.348h50.625v50.625h-50.625z" fill="#ada7a4"/><path d="m326.184 201.348h50.625v50.625h-50.625z" fill="#ee3840"/><path d="m135.191 69.034v86.292h36.985l86.292-43.146v-43.146z" fill="#95a53b"/><path d="m376.809 69.034h-36.985l-86.292 43.146v43.146h123.277z" fill="#95a53b"/><path d="m258.468 69.034-86.292 86.292h81.356l86.292-86.292z" fill="#fff"/><g fill="#11113f"><path d="m185.816 380.836h-50.625c-6.353 0-11.506 5.152-11.506 11.506v50.625c0 6.353 5.152 11.506 11.506 11.506h50.625c6.353 0 11.506-5.152 11.506-11.506v-50.625c-.001-6.354-5.153-11.506-11.506-11.506zm-11.506 50.625h-27.613v-27.613h27.613z"/><path d="m281.312 380.836h-50.625c-6.353 0-11.506 5.152-11.506 11.506v50.625c0 6.353 5.152 11.506 11.506 11.506h50.625c6.353 0 11.506-5.152 11.506-11.506v-50.625c0-6.354-5.152-11.506-11.506-11.506zm-11.505 50.625h-27.613v-27.613h27.613z"/><path d="m376.809 285.339h-50.625c-6.353 0-11.506 5.152-11.506 11.506v146.121c0 6.353 5.152 11.506 11.506 11.506h50.625c6.353 0 11.506-5.152 11.506-11.506v-146.121c0-6.353-5.153-11.506-11.506-11.506zm-11.506 146.122h-27.613v-123.11h27.613z"/><path d="m185.816 285.339h-50.625c-6.353 0-11.506 5.152-11.506 11.506v50.625c0 6.353 5.152 11.506 11.506 11.506h50.625c6.353 0 11.506-5.152 11.506-11.506v-50.625c-.001-6.353-5.153-11.506-11.506-11.506zm-11.506 50.625h-27.613v-27.613h27.613z"/><path d="m281.312 285.339h-50.625c-6.353 0-11.506 5.152-11.506 11.506v50.625c0 6.353 5.152 11.506 11.506 11.506h50.625c6.353 0 11.506-5.152 11.506-11.506v-50.625c0-6.353-5.152-11.506-11.506-11.506zm-11.505 50.625h-27.613v-27.613h27.613z"/><path d="m388.315 0h-264.63c-31.721 0-57.528 25.807-57.528 57.528v396.944c0 31.721 25.807 57.528 57.528 57.528h264.629c31.721 0 57.528-25.807 57.528-57.528v-396.944c.001-31.721-25.806-57.528-57.527-57.528zm34.516 454.472c0 19.033-15.484 34.517-34.517 34.517h-264.629c-19.033 0-34.517-15.484-34.517-34.517v-396.944c0-19.033 15.484-34.517 34.517-34.517h264.629c19.033 0 34.517 15.484 34.517 34.517z"/><path d="m376.809 57.528h-241.618c-6.353 0-11.506 5.152-11.506 11.506v86.292c0 6.353 5.152 11.506 11.506 11.506h241.618c6.353 0 11.506-5.152 11.506-11.506v-86.292c0-6.354-5.153-11.506-11.506-11.506zm-230.112 23.011h83.993l-32.134 32.134c-4.493 4.493-4.493 11.778 0 16.272 2.247 2.246 5.191 3.37 8.136 3.37 2.944 0 5.889-1.124 8.136-3.37l48.406-48.406h48.814l-63.281 63.281h-102.07zm218.606 63.281h-83.993l63.281-63.281h20.712z"/><path d="m185.816 189.843h-50.625c-6.353 0-11.506 5.152-11.506 11.506v50.625c0 6.353 5.152 11.506 11.506 11.506h50.625c6.353 0 11.506-5.152 11.506-11.506v-50.625c-.001-6.354-5.153-11.506-11.506-11.506zm-11.506 50.624h-27.613v-27.613h27.613z"/><path d="m281.312 189.843h-50.625c-6.353 0-11.506 5.152-11.506 11.506v50.625c0 6.353 5.152 11.506 11.506 11.506h50.625c6.353 0 11.506-5.152 11.506-11.506v-50.625c0-6.354-5.152-11.506-11.506-11.506zm-11.505 50.624h-27.613v-27.613h27.613z"/><path d="m376.809 189.843h-50.625c-6.353 0-11.506 5.152-11.506 11.506v50.625c0 6.353 5.152 11.506 11.506 11.506h50.625c6.353 0 11.506-5.152 11.506-11.506v-50.625c0-6.354-5.153-11.506-11.506-11.506zm-11.506 50.624h-27.613v-27.613h27.613z"/></g></svg>