<svg enable-background="new 0 0 512 512" viewBox="0 0 512 512" xmlns="http://www.w3.org/2000/svg"><circle cx="237.13" cy="276.063" fill="#4c5870" r="225.546"/><circle cx="238.289" cy="276.063" fill="#fff" r="172.597"/><path d="m236.707 145.997-38.983 128.178h77.968z" fill="#ee3840"/><path d="m197.724 275.333 38.983 128.18 38.985-128.18z" fill="#269af2"/><g fill="#11113f"><path d="m350.984 388.765c-62.779 62.779-164.928 62.779-227.708 0-62.779-62.779-62.779-164.929 0-227.708 36.106-36.106 87.838-53.037 138.379-45.292 6.331.971 12.236-3.372 13.204-9.696s-3.372-12.236-9.696-13.204c-27.991-4.288-57.02-2.034-83.945 6.519-27.837 8.843-53.538 24.504-74.326 45.292-71.812 71.812-71.812 188.659 0 260.471 35.906 35.906 83.07 53.858 130.236 53.858 47.164 0 94.33-17.954 130.236-53.858 4.523-4.523 4.523-11.858 0-16.382s-11.854-4.523-16.38 0z"/><path d="m300.779 102.033c-6.005-2.207-12.662.872-14.868 6.877-2.207 6.005.871 12.662 6.877 14.869 21.944 8.065 41.525 20.607 58.195 37.278 54.854 54.855 62.854 141.006 19.02 204.848-3.621 5.274-2.281 12.485 2.993 16.106 2.003 1.376 4.286 2.035 6.546 2.035 3.688 0 7.314-1.758 9.56-5.029 50.149-73.041 41.006-171.596-21.738-234.342-19.06-19.063-41.463-33.41-66.585-42.642z"/><path d="m451.932 120.18c16.046 0 31.13-6.248 42.475-17.593 11.345-11.347 17.593-26.431 17.593-42.477s-6.248-31.13-17.593-42.475c-23.421-23.421-61.529-23.421-84.95 0-20.619 20.619-23.084 52.624-7.398 75.966l-5.638 5.638c-43.705-39.717-99.828-61.459-159.291-61.459-63.34 0-122.888 24.665-167.677 69.454s-69.453 104.338-69.453 167.678 24.665 122.888 69.454 167.675c46.234 46.234 106.945 69.348 167.677 69.344 60.716-.006 121.454-23.12 167.676-69.342 44.788-44.788 69.455-104.337 69.455-167.677 0-59.463-21.741-115.587-61.46-159.291l5.629-5.629c9.822 6.626 21.389 10.188 33.501 10.188zm-.838 154.732c0 57.151-22.257 110.882-62.67 151.295-40.412 40.412-94.142 62.668-151.294 62.668s-110.883-22.256-151.295-62.668c-40.412-40.413-62.668-94.144-62.668-151.295 0-57.152 22.256-110.883 62.668-151.295s94.143-62.668 151.295-62.668c57.137 0 110.858 22.248 151.268 62.641.008.009.017.019.025.027 40.414 40.412 62.671 94.143 62.671 151.295zm-25.256-240.895c14.387-14.388 37.799-14.388 52.186 0 6.971 6.97 10.809 16.237 10.809 26.093s-3.838 19.124-10.809 26.093c-6.97 6.97-16.237 10.809-26.092 10.809-5.861 0-11.512-1.356-16.597-3.922l5.51-5.509c4.523-4.523 4.523-11.858 0-16.382s-11.856-4.523-16.383 0l-5.498 5.499c-6.945-13.832-4.654-31.153 6.874-42.681z"/><path d="m236.707 135.571c-5.099 0-9.599 3.335-11.082 8.213l-38.905 127.919c-.374 1.134-.577 2.345-.58 3.603v.005.024.024.005c.003 1.257.206 2.467.58 3.6l38.905 127.919c1.484 4.878 5.984 8.213 11.082 8.213s9.598-3.334 11.082-8.213l38.907-127.922c.36-1.091.561-2.254.578-3.462 0-.003 0-.008 0-.012 0-.002 0-.003 0-.006.001-.097.001-.195 0-.291 0-.002 0-.006 0-.009s0-.006 0-.009c-.017-1.208-.218-2.372-.578-3.465l-38.906-127.922c-1.484-4.88-5.984-8.214-11.083-8.214zm0 228.132-23.354-76.786h46.707zm-23.352-99.953 23.354-76.786 23.354 76.786z"/></g></svg>