<?xml version="1.0" encoding="iso-8859-1"?>
<!-- Generator: Adobe Illustrator 19.0.0, SVG Export Plug-In . SVG Version: 6.00 Build 0)  -->
<svg version="1.1" id="Layer_1" xmlns="http://www.w3.org/2000/svg" xmlns:xlink="http://www.w3.org/1999/xlink" x="0px" y="0px"
	 viewBox="0 0 512 512" style="enable-background:new 0 0 512 512;" xml:space="preserve">
<circle style="fill:#4C5870;" cx="237.13" cy="276.063" r="225.546"/>
<circle style="fill:#FFFFFF;" cx="238.289" cy="276.063" r="172.597"/>
<polygon style="fill:#EE3840;" points="236.707,145.997 197.724,274.175 275.692,274.175 "/>
<polygon style="fill:#269AF2;" points="197.724,275.333 236.707,403.513 275.692,275.333 "/>
<g>
	<path style="fill:#11113F;" d="M350.984,388.765c-62.779,62.779-164.928,62.779-227.708,0c-62.779-62.779-62.779-164.929,0-227.708
		c36.106-36.106,87.838-53.037,138.379-45.292c6.331,0.971,12.236-3.372,13.204-9.696c0.968-6.324-3.372-12.236-9.696-13.204
		c-27.991-4.288-57.02-2.034-83.945,6.519c-27.837,8.843-53.538,24.504-74.326,45.292c-71.812,71.812-71.812,188.659,0,260.471
		c35.906,35.906,83.07,53.858,130.236,53.858c47.164,0,94.33-17.954,130.236-53.858c4.523-4.523,4.523-11.858,0-16.382
		S355.51,384.242,350.984,388.765z"/>
	<path style="fill:#11113F;" d="M300.779,102.033c-6.005-2.207-12.662,0.872-14.868,6.877c-2.207,6.005,0.871,12.662,6.877,14.869
		c21.944,8.065,41.525,20.607,58.195,37.278c54.854,54.855,62.854,141.006,19.02,204.848c-3.621,5.274-2.281,12.485,2.993,16.106
		c2.003,1.376,4.286,2.035,6.546,2.035c3.688,0,7.314-1.758,9.56-5.029c50.149-73.041,41.006-171.596-21.738-234.342
		C348.304,125.612,325.901,111.265,300.779,102.033z"/>
	<path style="fill:#11113F;" d="M451.932,120.18c16.046,0,31.13-6.248,42.475-17.593C505.752,91.24,512,76.156,512,60.11
		s-6.248-31.13-17.593-42.475c-23.421-23.421-61.529-23.421-84.95,0c-20.619,20.619-23.084,52.624-7.398,75.966l-5.638,5.638
		C352.716,59.522,296.593,37.78,237.13,37.78c-63.34,0-122.888,24.665-167.677,69.454S0,211.572,0,274.912
		S24.665,397.8,69.454,442.587c46.234,46.234,106.945,69.348,167.677,69.344c60.716-0.006,121.454-23.12,167.676-69.342
		c44.788-44.788,69.455-104.337,69.455-167.677c0-59.463-21.741-115.587-61.46-159.291l5.629-5.629
		C428.253,116.618,439.82,120.18,451.932,120.18z M451.094,274.912c0,57.151-22.257,110.882-62.67,151.295
		c-40.412,40.412-94.142,62.668-151.294,62.668s-110.883-22.256-151.295-62.668c-40.412-40.413-62.668-94.144-62.668-151.295
		c0-57.152,22.256-110.883,62.668-151.295s94.143-62.668,151.295-62.668c57.137,0,110.858,22.248,151.268,62.641
		c0.008,0.009,0.017,0.019,0.025,0.027l0,0C428.837,164.029,451.094,217.76,451.094,274.912z M425.838,34.017
		c14.387-14.388,37.799-14.388,52.186,0c6.971,6.97,10.809,16.237,10.809,26.093s-3.838,19.124-10.809,26.093
		c-6.97,6.97-16.237,10.809-26.092,10.809c-5.861,0-11.512-1.356-16.597-3.922l5.51-5.509c4.523-4.523,4.523-11.858,0-16.382
		s-11.856-4.523-16.383,0l-5.498,5.499C412.019,62.866,414.31,45.545,425.838,34.017z"/>
	<path style="fill:#11113F;" d="M236.707,135.571c-5.099,0-9.599,3.335-11.082,8.213L186.72,271.703
		c-0.374,1.134-0.577,2.345-0.58,3.603c0,0.001,0,0.002,0,0.005c0,0.008,0,0.016,0,0.024c0,0.008,0,0.016,0,0.024
		c0,0.001,0,0.003,0,0.005c0.003,1.257,0.206,2.467,0.58,3.6l38.905,127.919c1.484,4.878,5.984,8.213,11.082,8.213
		s9.598-3.334,11.082-8.213l38.907-127.922c0.36-1.091,0.561-2.254,0.578-3.462c0-0.003,0-0.008,0-0.012c0-0.002,0-0.003,0-0.006
		c0.001-0.097,0.001-0.195,0-0.291c0-0.002,0-0.006,0-0.009c0-0.003,0-0.006,0-0.009c-0.017-1.208-0.218-2.372-0.578-3.465
		l-38.906-127.922C246.306,138.905,241.806,135.571,236.707,135.571z M236.707,363.703l-23.354-76.786h46.707L236.707,363.703z
		 M213.355,263.75l23.354-76.786l23.354,76.786H213.355z"/>
</g>
<g>
</g>
<g>
</g>
<g>
</g>
<g>
</g>
<g>
</g>
<g>
</g>
<g>
</g>
<g>
</g>
<g>
</g>
<g>
</g>
<g>
</g>
<g>
</g>
<g>
</g>
<g>
</g>
<g>
</g>
</svg>
