<svg enable-background="new 0 0 512 512" viewBox="0 0 512 512" xmlns="http://www.w3.org/2000/svg"><path d="m454.081 296.474v-47.844h-99.491l-23.167 71.011z" fill="#ff9e24"/><path d="m454.081 296.474h-122.658l23.167 47.841h99.491z" fill="#ff8c00"/><path d="m103.639 248.633h250.949v95.681h-250.949z" fill="#ffb14d"/><path d="m454.081 154.391v-47.843h-99.491l-23.167 71.011z" fill="#ff9e24"/><path d="m354.59 202.233h99.491v-47.842h-122.658z" fill="#ff8c00"/><path d="m103.639 106.547h250.949v95.681h-250.949z" fill="#ffb14d"/><circle cx="118.038" cy="463.128" fill="#181818" r="37.288"/><circle cx="439.683" cy="463.128" fill="#181818" r="37.288"/><g fill="#11113f"><path d="m500.416 379.129h-431.53v-321.744c0-31.641-25.705-57.385-57.302-57.385-6.398 0-11.584 5.187-11.584 11.584s5.186 11.584 11.584 11.584c18.822 0 34.135 15.35 34.135 34.217v333.328c0 6.397 5.186 11.584 11.584 11.584h443.114c6.398 0 11.584-5.187 11.584-11.584-.001-6.397-5.187-11.584-11.585-11.584z"/><path d="m103.637 355.899h350.444c6.398 0 11.584-5.187 11.584-11.584v-95.685c0-6.397-5.186-11.584-11.584-11.584h-350.444c-6.398 0-11.584 5.187-11.584 11.584v95.685c0 6.398 5.186 11.584 11.584 11.584zm262.537-23.167v-24.676h76.324v24.676zm76.324-47.843h-76.324v-24.674h76.324zm-327.277-24.674h227.787v72.518h-227.787z"/><path d="m103.637 213.817h350.444c6.398 0 11.584-5.187 11.584-11.584v-95.685c0-6.397-5.186-11.584-11.584-11.584h-350.444c-6.398 0-11.584 5.187-11.584 11.584v95.685c0 6.397 5.186 11.584 11.584 11.584zm262.537-23.168v-24.674h76.324v24.674zm76.324-47.842h-76.324v-24.676h76.324zm-327.277-24.675h227.787v72.518h-227.787z"/><path d="m118.036 414.255c-26.948 0-48.872 21.924-48.872 48.872 0 26.947 21.923 48.873 48.872 48.873s48.872-21.924 48.872-48.872c-.001-26.947-21.924-48.873-48.872-48.873zm0 74.578c-14.174 0-25.704-11.532-25.704-25.704 0-14.173 11.532-25.704 25.704-25.704s25.704 11.532 25.704 25.704-11.53 25.704-25.704 25.704z"/><path d="m439.683 414.255c-26.948 0-48.872 21.924-48.872 48.872 0 26.947 21.923 48.873 48.872 48.873s48.872-21.924 48.872-48.872c0-26.947-21.925-48.873-48.872-48.873zm0 74.578c-14.174 0-25.704-11.532-25.704-25.704 0-14.173 11.532-25.704 25.704-25.704s25.704 11.532 25.704 25.704-11.53 25.704-25.704 25.704z"/></g></svg>