<svg enable-background="new 0 0 512 512" viewBox="0 0 512 512" xmlns="http://www.w3.org/2000/svg"><path d="m244.257 300.311h23.168v73.222h-23.168z" fill="#3d3d3b" transform="matrix(-1 -.0058 .0058 -1 509.7233 675.3212)"/><path d="m406.242 179.159v89.024h-300.483v-89.024h-23.168v100.608c0 6.397 5.186 11.584 11.584 11.584h323.651c6.398 0 11.584-5.187 11.584-11.584v-100.608z" fill="#3d3d3b"/><path d="m256.001 11.584c-51.287 0-92.863 41.576-92.863 92.863v42.983c0 51.287 26.081 69.944 92.863 69.944s92.863-18.657 92.863-69.944v-42.983c0-51.287-41.577-92.863-92.863-92.863z" fill="#7a7674"/><path d="m372.74 279.767c0 17.737-14.379 32.115-32.115 32.115h-169.25c-17.737 0-32.115-14.379-32.115-32.115s14.379-32.115 32.115-32.115h169.248c17.738.001 32.117 14.378 32.117 32.115z" fill="#7a7674"/><g fill="#181818"><path d="m106.428 154.618h-24.506c-7.592 0-13.746 6.154-13.746 13.746v22.377h51.999v-22.377c0-7.591-6.155-13.746-13.747-13.746z"/><path d="m430.079 154.618h-24.507c-7.592 0-13.746 6.154-13.746 13.746v22.377h51.999v-22.377c.001-7.591-6.154-13.746-13.746-13.746z"/><path d="m238.023 361.933h35.956v61.869h-35.956z"/></g><path d="m366.601 412.228h-221.201c-6.398 0-11.584 5.187-11.584 11.584v43.315c0 6.397 5.186 11.584 11.584 11.584s11.584-5.187 11.584-11.584v-31.731h87.433v31.731h23.167v-31.731h87.433v31.731c0 6.397 5.186 11.584 11.584 11.584s11.584-5.187 11.584-11.584v-43.315c-.001-6.396-5.188-11.584-11.584-11.584z" fill="#3d3d3b"/><path d="m305.48 116.031h-99.305c-6.398 0-11.584-5.187-11.584-11.584s5.186-11.584 11.584-11.584h99.305c6.398 0 11.584 5.187 11.584 11.584s-5.186 11.584-11.584 11.584z" fill="#524e4d"/><path d="m305.48 172.493h-99.305c-6.398 0-11.584-5.187-11.584-11.584s5.186-11.584 11.584-11.584h99.305c6.398 0 11.584 5.187 11.584 11.584s-5.186 11.584-11.584 11.584z" fill="#524e4d"/><circle cx="145.399" cy="477.979" fill="#181818" r="22.436"/><circle cx="366.602" cy="477.979" fill="#181818" r="22.436"/><circle cx="256.001" cy="477.979" fill="#181818" r="22.436"/><g fill="#11113f"><path d="m177.607 210.923c16.516 12.303 41.427 18.032 78.394 18.032s61.878-5.729 78.394-18.032c17.531-13.058 26.052-33.827 26.052-63.494v-42.983c0-57.592-46.855-104.446-104.446-104.446s-104.447 46.854-104.447 104.447v42.981c0 29.668 8.522 50.437 26.053 63.495zm-2.886-106.476c0-44.817 36.462-81.279 81.279-81.279s81.279 36.462 81.279 81.279v42.981c0 22.447-5.158 36.3-16.725 44.915-12.315 9.172-32.827 13.444-64.555 13.444s-52.24-4.272-64.555-13.444c-11.566-8.616-16.725-22.468-16.725-44.915v-42.981z"/><path d="m378.184 445.993v-22.18c0-6.397-5.186-11.584-11.584-11.584h-81.036v-50.29c0-6.397-5.186-11.584-11.584-11.584h-6.619l.155-26.889h73.107c24.095 0 43.698-19.603 43.698-43.7 0-24.095-19.603-43.698-43.698-43.698h-169.247c-24.095 0-43.698 19.603-43.698 43.698 0 24.096 19.603 43.7 43.698 43.7h72.974l-.155 26.889h-6.173c-6.398 0-11.584 5.187-11.584 11.584v50.29h-81.036c-6.398 0-11.584 5.187-11.584 11.584v22.18c-13.072 4.749-22.436 17.293-22.436 31.987 0 18.759 15.262 34.02 34.02 34.02s34.02-15.262 34.02-34.02c0-14.694-9.364-27.238-22.436-31.987v-10.597h81.036 6.395v10.597c-13.072 4.749-22.436 17.293-22.436 31.987 0 18.759 15.262 34.02 34.02 34.02 18.759 0 34.02-15.262 34.02-34.02 0-14.694-9.364-27.238-22.436-31.987v-10.597h6.397 81.036v10.597c-13.072 4.749-22.436 17.293-22.436 31.987 0 18.759 15.262 34.02 34.02 34.02s34.02-15.262 34.02-34.02c-.001-14.694-9.365-27.238-22.438-31.987zm-227.339-166.226c0-11.32 9.21-20.531 20.531-20.531h169.248c11.321 0 20.531 9.21 20.531 20.531s-9.21 20.532-20.531 20.532h-84.558-.068-84.622c-11.321-.001-20.531-9.211-20.531-20.532zm-5.445 209.066c-5.984 0-10.853-4.869-10.853-10.853s4.869-10.853 10.853-10.853 10.853 4.869 10.853 10.853-4.868 10.853-10.853 10.853zm110.601 0c-5.984 0-10.853-4.869-10.853-10.853s4.869-10.853 10.853-10.853 10.853 4.869 10.853 10.853-4.869 10.853-10.853 10.853zm-6.397-115.31h6.04.068 6.685v38.706h-12.793zm116.997 115.31c-5.984 0-10.853-4.869-10.853-10.853s4.869-10.853 10.853-10.853 10.853 4.869 10.853 10.853-4.869 10.853-10.853 10.853z"/><path d="m118.567 279.767c0-6.397-5.186-11.584-11.584-11.584h-1.224v-65.857h14.416c6.398 0 11.584-5.187 11.584-11.584v-22.377c0-13.968-11.364-25.33-25.331-25.33h-24.506c-13.968 0-25.33 11.364-25.33 25.33v22.377c0 6.397 5.186 11.584 11.584 11.584h14.416v77.441c0 6.397 5.186 11.584 11.584 11.584h12.808c6.397 0 11.583-5.187 11.583-11.584zm-38.808-111.401c0-1.192.97-2.163 2.163-2.163h24.507c1.193 0 2.164.971 2.164 2.163v10.794h-28.834z"/><path d="m430.079 143.035h-24.507c-13.968 0-25.331 11.364-25.331 25.33v22.377c0 6.397 5.186 11.584 11.584 11.584h14.416v65.857h-1.224c-6.398 0-11.584 5.187-11.584 11.584s5.186 11.584 11.584 11.584h12.808c6.398 0 11.584-5.187 11.584-11.584v-77.441h14.416c6.398 0 11.584-5.187 11.584-11.584v-22.377c.001-13.967-11.362-25.33-25.33-25.33zm2.163 36.124h-28.833v-10.794c0-1.192.971-2.163 2.164-2.163h24.507c1.193 0 2.163.971 2.163 2.163z"/><path d="m206.176 116.031h99.305c6.398 0 11.584-5.187 11.584-11.584s-5.186-11.584-11.584-11.584h-99.305c-6.398 0-11.584 5.187-11.584 11.584s5.186 11.584 11.584 11.584z"/><path d="m206.176 172.493h99.305c6.398 0 11.584-5.187 11.584-11.584s-5.186-11.584-11.584-11.584h-99.305c-6.398 0-11.584 5.187-11.584 11.584s5.186 11.584 11.584 11.584z"/></g></svg>