<svg enable-background="new 0 0 512 512" viewBox="0 0 512 512" xmlns="http://www.w3.org/2000/svg"><path d="m81.086 11.584v488.832h268.742l23.168-57.918 57.918-23.168v-407.746z" fill="#e6e2e0"/><path d="m349.828 419.33v81.086l81.086-81.086z" fill="#ccc4c1"/><g fill="#ee3840"><path d="m159.855 331.956c-2.602 0-5.142-.877-7.202-2.51l-20.851-16.547c-5.01-3.978-5.85-11.264-1.872-16.275 3.977-5.012 11.262-5.85 16.275-1.872l11.688 9.276 29.886-38.426c3.929-5.05 11.207-5.956 16.255-2.032 5.049 3.928 5.96 11.206 2.032 16.255l-37.068 47.659c-1.899 2.44-4.694 4.021-7.763 4.389-.46.056-.921.083-1.38.083z"/><path d="m159.855 250.87c-2.602 0-5.142-.877-7.202-2.51l-20.851-16.547c-5.01-3.978-5.85-11.264-1.872-16.275 3.977-5.011 11.262-5.851 16.275-1.872l11.688 9.276 29.886-38.425c3.929-5.049 11.207-5.958 16.255-2.032 5.049 3.928 5.96 11.206 2.032 16.255l-37.068 47.659c-1.899 2.44-4.694 4.021-7.763 4.389-.46.055-.921.082-1.38.082z"/><path d="m159.855 169.784c-2.602 0-5.142-.877-7.202-2.51l-20.851-16.547c-5.01-3.978-5.85-11.264-1.872-16.275 3.977-5.011 11.262-5.85 16.275-1.872l11.688 9.276 29.886-38.425c3.929-5.05 11.207-5.956 16.255-2.032 5.049 3.928 5.96 11.206 2.032 16.255l-37.068 47.659c-1.899 2.44-4.694 4.021-7.763 4.389-.46.055-.921.082-1.38.082z"/></g><g fill="#7a7674"><path d="m361.412 145.955h-129.738c-6.397 0-11.584-5.187-11.584-11.584s5.187-11.584 11.584-11.584h129.738c6.397 0 11.584 5.187 11.584 11.584s-5.188 11.584-11.584 11.584z"/><path d="m361.412 227.041h-129.738c-6.397 0-11.584-5.187-11.584-11.584s5.187-11.584 11.584-11.584h129.738c6.397 0 11.584 5.187 11.584 11.584s-5.188 11.584-11.584 11.584z"/><path d="m361.412 308.127h-129.738c-6.397 0-11.584-5.187-11.584-11.584s5.187-11.584 11.584-11.584h129.738c6.397 0 11.584 5.187 11.584 11.584s-5.188 11.584-11.584 11.584z"/></g><path d="m440.077 426.399c.159-.205.319-.41.463-.626.051-.078.095-.16.145-.239.154-.241.306-.484.441-.738.029-.053.051-.11.079-.163.146-.283.285-.568.408-.863.015-.035.025-.073.039-.108.126-.313.243-.63.343-.957.012-.039.019-.079.03-.118.094-.321.18-.645.246-.977.02-.097.028-.197.045-.294.047-.275.096-.549.124-.831.038-.382.058-.768.058-1.156v-407.745c0-6.397-5.187-11.584-11.584-11.584h-349.828c-6.397 0-11.584 5.187-11.584 11.584v488.833c0 6.397 5.187 11.584 11.584 11.584h268.742c.388 0 .774-.02 1.156-.058.286-.028.566-.078.846-.126.093-.016.187-.024.278-.043.332-.067.657-.152.979-.246.038-.012.079-.019.117-.03.326-.1.644-.217.957-.343.036-.015.073-.024.108-.039.295-.123.58-.262.863-.408.054-.028.11-.05.163-.079.255-.138.5-.29.744-.445.076-.049.156-.09.232-.141.218-.145.423-.306.629-.466.094-.073.192-.137.284-.212.212-.174.411-.363.609-.553.074-.071.154-.133.227-.205l81.086-81.086c.073-.073.134-.153.205-.227.189-.199.378-.397.553-.609.075-.092.14-.191.213-.286zm-347.407-403.232h326.66v384.579h-69.502c-6.397 0-11.584 5.187-11.584 11.584v69.502h-245.574zm310.278 407.747-41.536 41.536v-41.536z" fill="#11113f"/></svg>