<?xml version="1.0" encoding="iso-8859-1"?>
<!-- Generator: Adobe Illustrator 19.0.0, SVG Export Plug-In . SVG Version: 6.00 Build 0)  -->
<svg version="1.1" id="Layer_1" xmlns="http://www.w3.org/2000/svg" xmlns:xlink="http://www.w3.org/1999/xlink" x="0px" y="0px"
	 viewBox="0 0 512 512" style="enable-background:new 0 0 512 512;" xml:space="preserve">
<polygon style="fill:#7A7674;" points="335.415,8.109 335.415,51.658 286.124,51.658 286.124,8.109 225.879,8.109 225.879,51.658 
	176.588,51.658 176.588,8.109 116.344,8.109 116.344,105.92 256.002,129.088 395.661,105.92 395.661,8.109 "/>
<polygon style="fill:#181818;" points="395.661,105.92 116.344,105.92 151.311,154.776 140.496,350.859 256.002,374.026 
	371.509,350.859 360.693,154.776 "/>
<polygon style="fill:#7A7674;" points="371.509,350.859 140.495,350.859 108.05,399.714 256.002,422.882 403.954,399.714 "/>
<rect x="108.055" y="400.878" style="fill:#181818;" width="295.906" height="97.227"/>
<path style="fill:#11113F;" d="M415.538,488.833V403.19c0-0.52-0.046-1.029-0.112-1.531c-0.016-0.117-0.035-0.232-0.053-0.349
	c-0.08-0.484-0.181-0.961-0.319-1.424c-0.006-0.019-0.009-0.036-0.014-0.054c-0.152-0.5-0.342-0.982-0.556-1.451
	c-0.039-0.087-0.082-0.173-0.125-0.259c-0.215-0.441-0.452-0.871-0.721-1.279c-0.013-0.02-0.022-0.042-0.035-0.061l-0.032-0.049
	c-0.008-0.012-0.015-0.022-0.022-0.034L382.9,350.547l-10.417-188.869l32.597-45.543c0.035-0.047,0.063-0.098,0.096-0.146
	c0.075-0.108,0.145-0.218,0.217-0.329c0.114-0.176,0.221-0.353,0.326-0.535c0.072-0.125,0.141-0.25,0.208-0.376
	c0.095-0.183,0.182-0.368,0.268-0.555c0.058-0.126,0.119-0.251,0.173-0.38c0.122-0.294,0.232-0.594,0.329-0.898
	c0.041-0.126,0.071-0.256,0.108-0.383c0.058-0.207,0.114-0.415,0.161-0.626c0.03-0.138,0.057-0.278,0.082-0.417
	c0.041-0.222,0.074-0.446,0.102-0.671c0.015-0.122,0.032-0.242,0.043-0.365c0.032-0.351,0.053-0.703,0.053-1.059V11.584
	C407.244,5.187,402.057,0,395.661,0h-60.245c-6.397,0-11.584,5.187-11.584,11.584v31.965h-26.125V11.584
	C297.708,5.187,292.521,0,286.124,0h-60.245c-6.397,0-11.584,5.187-11.584,11.584v31.965h-26.125V11.584
	C188.171,5.187,182.984,0,176.587,0h-60.245c-6.397,0-11.584,5.187-11.584,11.584v97.812c0,0.354,0.021,0.707,0.053,1.058
	c0.012,0.123,0.028,0.244,0.043,0.367c0.028,0.225,0.061,0.447,0.102,0.668c0.025,0.14,0.052,0.28,0.082,0.418
	c0.046,0.211,0.102,0.418,0.161,0.626c0.036,0.129,0.067,0.257,0.108,0.383c0.097,0.303,0.207,0.604,0.329,0.898
	c0.053,0.13,0.116,0.255,0.174,0.381c0.085,0.187,0.171,0.372,0.266,0.554c0.067,0.127,0.138,0.254,0.209,0.378
	c0.103,0.181,0.212,0.359,0.324,0.535c0.072,0.11,0.141,0.221,0.217,0.329c0.034,0.049,0.063,0.098,0.096,0.146l32.597,45.543
	l-10.417,188.869l-30.649,46.151c-0.007,0.012-0.014,0.022-0.022,0.034l-0.032,0.049c-0.013,0.02-0.022,0.042-0.035,0.061
	c-0.268,0.409-0.505,0.837-0.721,1.279c-0.042,0.087-0.085,0.171-0.125,0.259c-0.214,0.469-0.405,0.951-0.556,1.451
	c-0.006,0.019-0.009,0.036-0.014,0.054c-0.138,0.462-0.24,0.939-0.319,1.424c-0.019,0.116-0.037,0.232-0.053,0.349
	c-0.066,0.502-0.112,1.01-0.112,1.531v85.643c-6.397,0-11.584,5.187-11.584,11.584c0,6.397,5.187,11.584,11.584,11.584h319.072
	c6.397,0,11.584-5.187,11.584-11.584C427.12,494.02,421.935,488.833,415.538,488.833z M162.272,169.835h187.459l9.538,172.915
	H152.735L162.272,169.835z M138.879,120.979h149.6c6.397,0,11.584-5.187,11.584-11.584s-5.187-11.584-11.584-11.584H127.928V23.167
	h37.077v31.965c0,6.397,5.187,11.584,11.584,11.584h49.292c6.397,0,11.584-5.187,11.584-11.584V23.167h37.077v31.965
	c0,6.397,5.187,11.584,11.584,11.584h49.292c6.397,0,11.584-5.187,11.584-11.584V23.167h37.077v74.644h-60.846
	c-6.397,0-11.584,5.187-11.584,11.584s5.187,11.584,11.584,11.584h49.895l-18.386,25.688H157.265L138.879,120.979z M119.633,414.773
	h34.751c6.397,0,11.584-5.187,11.584-11.584c0-6.397-5.187-11.584-11.584-11.584h-24.736l17.06-25.689h218.588l17.06,25.689H189.135
	c-6.397,0-11.584,5.187-11.584,11.584c0,6.397,5.187,11.584,11.584,11.584H392.37v74.059H119.633V414.773z"/>
<g>
</g>
<g>
</g>
<g>
</g>
<g>
</g>
<g>
</g>
<g>
</g>
<g>
</g>
<g>
</g>
<g>
</g>
<g>
</g>
<g>
</g>
<g>
</g>
<g>
</g>
<g>
</g>
<g>
</g>
</svg>
