<svg enable-background="new 0 0 512 512" viewBox="0 0 512 512" xmlns="http://www.w3.org/2000/svg"><path d="m335.415 8.109v43.549h-49.291v-43.549h-60.245v43.549h-49.291v-43.549h-60.244v97.811l139.658 23.168 139.659-23.168v-97.811z" fill="#7a7674"/><path d="m395.661 105.92h-279.317l34.967 48.856-10.815 196.083 115.506 23.167 115.507-23.167-10.816-196.083z" fill="#181818"/><path d="m371.509 350.859h-231.014l-32.445 48.855 147.952 23.168 147.952-23.168z" fill="#7a7674"/><path d="m108.055 400.878h295.906v97.227h-295.906z" fill="#181818"/><path d="m415.538 488.833v-85.643c0-.52-.046-1.029-.112-1.531-.016-.117-.035-.232-.053-.349-.08-.484-.181-.961-.319-1.424-.006-.019-.009-.036-.014-.054-.152-.5-.342-.982-.556-1.451-.039-.087-.082-.173-.125-.259-.215-.441-.452-.871-.721-1.279-.013-.02-.022-.042-.035-.061l-.032-.049c-.008-.012-.015-.022-.022-.034l-30.649-46.152-10.417-188.869 32.597-45.543c.035-.047.063-.098.096-.146.075-.108.145-.218.217-.329.114-.176.221-.353.326-.535.072-.125.141-.25.208-.376.095-.183.182-.368.268-.555.058-.126.119-.251.173-.38.122-.294.232-.594.329-.898.041-.126.071-.256.108-.383.058-.207.114-.415.161-.626.03-.138.057-.278.082-.417.041-.222.074-.446.102-.671.015-.122.032-.242.043-.365.032-.351.053-.703.053-1.059v-97.811c-.002-6.397-5.189-11.584-11.585-11.584h-60.245c-6.397 0-11.584 5.187-11.584 11.584v31.965h-26.125v-31.965c.001-6.397-5.186-11.584-11.583-11.584h-60.245c-6.397 0-11.584 5.187-11.584 11.584v31.965h-26.125v-31.965c.001-6.397-5.186-11.584-11.583-11.584h-60.245c-6.397 0-11.584 5.187-11.584 11.584v97.812c0 .354.021.707.053 1.058.012.123.028.244.043.367.028.225.061.447.102.668.025.14.052.28.082.418.046.211.102.418.161.626.036.129.067.257.108.383.097.303.207.604.329.898.053.13.116.255.174.381.085.187.171.372.266.554.067.127.138.254.209.378.103.181.212.359.324.535.072.11.141.221.217.329.034.049.063.098.096.146l32.597 45.543-10.417 188.869-30.649 46.151c-.007.012-.014.022-.022.034l-.032.049c-.013.02-.022.042-.035.061-.268.409-.505.837-.721 1.279-.042.087-.085.171-.125.259-.214.469-.405.951-.556 1.451-.006.019-.009.036-.014.054-.138.462-.24.939-.319 1.424-.019.116-.037.232-.053.349-.066.502-.112 1.01-.112 1.531v85.643c-6.397 0-11.584 5.187-11.584 11.584s5.187 11.584 11.584 11.584h319.072c6.397 0 11.584-5.187 11.584-11.584 0-6.398-5.185-11.585-11.582-11.585zm-253.266-318.998h187.459l9.538 172.915h-206.534zm-23.393-48.856h149.6c6.397 0 11.584-5.187 11.584-11.584s-5.187-11.584-11.584-11.584h-160.551v-74.644h37.077v31.965c0 6.397 5.187 11.584 11.584 11.584h49.292c6.397 0 11.584-5.187 11.584-11.584v-31.965h37.077v31.965c0 6.397 5.187 11.584 11.584 11.584h49.292c6.397 0 11.584-5.187 11.584-11.584v-31.965h37.077v74.644h-60.846c-6.397 0-11.584 5.187-11.584 11.584s5.187 11.584 11.584 11.584h49.895l-18.386 25.688h-197.477zm-19.246 293.794h34.751c6.397 0 11.584-5.187 11.584-11.584s-5.187-11.584-11.584-11.584h-24.736l17.06-25.689h218.588l17.06 25.689h-193.221c-6.397 0-11.584 5.187-11.584 11.584s5.187 11.584 11.584 11.584h203.235v74.059h-272.737z" fill="#11113f"/></svg>