<svg enable-background="new 0 0 512 512" viewBox="0 0 512 512" xmlns="http://www.w3.org/2000/svg"><circle cx="256" cy="256" fill="#ff9e24" r="244.416"/><circle cx="256" cy="256" fill="#fff" r="198.081"/><path d="m338.729 199.483c7.239-7.239 7.239-18.973 0-26.21-7.239-7.239-18.973-7.239-26.21 0l-70.275 70.275 26.21 26.21z" fill="#181818"/><path d="m174.909 148.699c-7.239-7.239-18.973-7.239-26.21 0-7.239 7.239-7.239 18.973 0 26.21l94.847 94.847 26.21-26.21z" fill="#181818"/><path d="m148.699 374.885c-2.964 0-5.93-1.132-8.191-3.393-4.523-4.523-4.525-11.858 0-16.383l86.833-86.834c4.523-4.522 11.859-4.522 16.382 0 4.523 4.523 4.523 11.858 0 16.383l-86.833 86.834c-2.261 2.261-5.227 3.393-8.191 3.393z" fill="#ee3840"/><g fill="#7a7674"><path d="m121.629 244.416h-17.376c-6.398 0-11.584 5.187-11.584 11.584s5.186 11.584 11.584 11.584h17.376c6.398 0 11.584-5.187 11.584-11.584s-5.186-11.584-11.584-11.584z"/><path d="m267.584 121.629v-17.376c0-6.397-5.186-11.584-11.584-11.584s-11.584 5.187-11.584 11.584v17.376c0 6.397 5.186 11.584 11.584 11.584s11.584-5.188 11.584-11.584z"/><path d="m419.33 256c0-6.397-5.186-11.584-11.584-11.584h-17.376c-6.398 0-11.584 5.187-11.584 11.584s5.186 11.584 11.584 11.584h17.376c6.398 0 11.584-5.187 11.584-11.584z"/><path d="m244.416 390.371v17.376c0 6.397 5.186 11.584 11.584 11.584s11.584-5.187 11.584-11.584v-17.376c0-6.397-5.186-11.584-11.584-11.584s-11.584 5.188-11.584 11.584z"/></g><path d="m256 284.959c-15.968 0-28.959-12.991-28.959-28.959s12.991-28.959 28.959-28.959 28.959 12.991 28.959 28.959-12.991 28.959-28.959 28.959z" fill="#524e4d"/><path d="m437.02 74.98c-48.353-48.351-112.64-74.98-181.02-74.98s-132.667 26.629-181.02 74.98c-48.351 48.353-74.98 112.64-74.98 181.02s26.629 132.667 74.98 181.02c48.353 48.351 112.64 74.98 181.02 74.98s132.667-26.629 181.02-74.98c48.351-48.353 74.98-112.64 74.98-181.02s-26.629-132.667-74.98-181.02zm-181.02 413.853c-128.385 0-232.833-104.448-232.833-232.833s104.448-232.833 232.833-232.833 232.833 104.448 232.833 232.833-104.448 232.833-232.833 232.833z" fill="#11113f"/><path d="m256 46.335c-115.609 0-209.665 94.055-209.665 209.665s94.055 209.665 209.665 209.665c48.217 0 95.334-16.845 132.672-47.433 4.949-4.054 5.674-11.352 1.621-16.301-4.054-4.947-11.352-5.675-16.302-1.619-33.208 27.203-75.111 42.186-117.991 42.186-102.834 0-186.498-83.663-186.498-186.498s83.664-186.498 186.498-186.498c102.836 0 186.498 83.663 186.498 186.498 0 42.879-14.982 84.782-42.187 117.991-4.054 4.947-3.329 12.246 1.619 16.301 4.949 4.055 12.247 3.329 16.302-1.619 30.588-37.337 47.433-84.455 47.433-132.672 0-115.611-94.055-209.666-209.665-209.666z" fill="#11113f"/><path d="m355.74 186.377c0-8.044-3.133-15.608-8.822-21.297-11.744-11.742-30.85-11.741-42.593 0l-48.325 48.327-72.899-72.897c-5.689-5.69-13.252-8.822-21.297-8.822s-15.608 3.132-21.296 8.821c-5.689 5.688-8.822 13.251-8.822 21.297s3.133 15.609 8.821 21.297l75.003 75.003c1.098 21.38 18.839 38.438 40.489 38.438s39.39-17.058 40.489-38.439l50.431-50.431c5.689-5.689 8.821-13.252 8.821-21.297zm-200.885-24.572c0-1.857.723-3.601 2.036-4.915 1.312-1.312 3.058-2.035 4.914-2.035 1.857 0 3.601.723 4.915 2.036l65.969 65.969c-3.812 2.69-7.139 6.017-9.829 9.829l-65.97-65.97c-1.313-1.313-2.035-3.059-2.035-4.914zm101.145 111.571c-9.581 0-17.376-7.795-17.376-17.376s7.795-17.376 17.376-17.376 17.376 7.795 17.376 17.376-7.795 17.376-17.376 17.376zm74.538-82.085-41.398 41.398c-2.69-3.812-6.017-7.139-9.829-9.829l41.397-41.397c2.711-2.709 7.119-2.711 9.829-.001 1.312 1.314 2.036 3.059 2.036 4.915s-.723 3.602-2.035 4.914z"/></svg>