<svg enable-background="new 0 0 512 512" viewBox="0 0 512 512" xmlns="http://www.w3.org/2000/svg"><path d="m421.537 405.43c43.564 0 78.879-35.316 78.879-78.88 0-37.422-26.069-68.737-61.032-76.827-.715-79.182-65.114-143.153-144.464-143.153-54.478 0-101.905 30.156-126.522 74.681-7.49-3.241-15.746-5.046-24.425-5.046-31.268 0-57.074 23.316-61.025 53.506-40.687 8.068-71.364 43.949-71.364 87.004 0 48.996 39.718 88.714 88.713 88.714 13.646.001 311.89.001 321.24.001z" fill="#269af2"/><path d="m421.537 417.014h-321.241c-55.304 0-100.296-44.994-100.296-100.297 0-45.055 30.245-84.444 72.968-96.513 7.949-32.195 37.158-55.581 71.005-55.581 6.589 0 13.049.865 19.308 2.581 28.561-44.783 78.137-72.217 131.64-72.217 41.436 0 80.457 16.068 109.876 45.241 27.327 27.1 43.42 62.578 45.853 100.681 16.137 5.502 30.603 15.579 41.383 28.962 12.875 15.986 19.967 36.115 19.967 56.678 0 49.882-40.581 90.465-90.463 90.465zm-277.564-229.225c-25.002 0-46.3 18.669-49.54 43.426-.645 4.925-4.359 8.893-9.232 9.859-35.945 7.127-62.033 38.94-62.033 75.643 0 42.528 34.601 77.129 77.129 77.129h321.241c37.106 0 67.296-30.189 67.296-67.297 0-31.496-21.408-58.448-52.061-65.542-5.215-1.207-8.924-5.829-8.972-11.181-.654-72.604-60.265-131.673-132.88-131.673-48.361 0-92.956 26.325-116.385 68.702-2.884 5.22-9.262 7.396-14.738 5.026-6.278-2.714-12.948-4.092-19.825-4.092z" fill="#11113f"/></svg>