<svg enable-background="new 0 0 512 512" viewBox="0 0 512 512" xmlns="http://www.w3.org/2000/svg"><path d="m311.961 219.218h-11.584v46.335h11.584c38.324 0 69.502 31.179 69.502 69.502s-31.179 69.502-69.502 69.502h-11.584v46.335h11.584c63.873 0 115.837-51.963 115.837-115.837 0-63.872-51.964-115.837-115.837-115.837z" fill="#ff9e24"/><path d="m84.202 169.696v295.97c0 19.113 15.638 34.751 34.751 34.751h158.256c19.113 0 34.751-15.638 34.751-34.751v-295.97z" fill="#ffb14d"/><g fill="#11113f"><path d="m439.382 335.055c0-66.355-50.986-121.016-115.837-126.889v-38.472c0-6.397-5.186-11.584-11.584-11.584h-227.759c-6.398 0-11.584 5.187-11.584 11.584v295.971c0 25.549 20.786 46.335 46.335 46.335h158.257c25.549 0 46.335-20.786 46.335-46.335v-3.721c64.85-5.872 115.837-60.534 115.837-126.889zm-127.421 104.254h-11.584c-6.398 0-11.584 5.187-11.584 11.584s5.186 11.584 11.584 11.584v3.189c0 12.775-10.393 23.167-23.167 23.167h-158.257c-12.775 0-23.167-10.393-23.167-23.167v-284.388h204.591v26.356c-6.398 0-11.584 5.187-11.584 11.584s5.186 11.584 11.584 11.584h11.584c57.485 0 104.253 46.768 104.253 104.253s-46.768 104.254-104.253 104.254z"/><path d="m311.961 253.969h-11.584c-6.398 0-11.584 5.187-11.584 11.584s5.186 11.584 11.584 11.584v115.837c-6.398 0-11.584 5.187-11.584 11.584s5.186 11.584 11.584 11.584h11.584c44.711 0 81.086-36.375 81.086-81.086s-36.375-81.087-81.086-81.087zm11.584 137.84v-113.506c26.405 5.382 46.335 28.782 46.335 56.753-.001 27.972-19.931 51.371-46.335 56.753z"/><path d="m155.222 134.944c0 6.397 5.186 11.584 11.584 11.584s11.584-5.187 11.584-11.584c0-13.317 2.341-19.55 5.052-26.766 3.062-8.151 6.532-17.391 6.532-34.914s-3.47-26.762-6.532-34.913c-2.711-7.217-5.052-13.45-5.052-26.766-.001-6.398-5.187-11.585-11.585-11.585s-11.584 5.187-11.584 11.584c0 17.524 3.47 26.763 6.532 34.914 2.711 7.217 5.052 13.45 5.052 26.765 0 13.317-2.341 19.55-5.052 26.766-3.061 8.154-6.531 17.392-6.531 34.915z"/><path d="m206.19 134.944c0 6.397 5.186 11.584 11.584 11.584s11.584-5.187 11.584-11.584c0-13.317 2.341-19.55 5.052-26.766 3.062-8.151 6.532-17.391 6.532-34.914s-3.47-26.762-6.532-34.913c-2.711-7.217-5.052-13.45-5.052-26.766-.001-6.398-5.187-11.585-11.584-11.585-6.398 0-11.584 5.187-11.584 11.584 0 17.524 3.47 26.763 6.532 34.914 2.711 7.217 5.052 13.45 5.052 26.765 0 13.317-2.341 19.55-5.052 26.766-3.061 8.154-6.532 17.392-6.532 34.915z"/></g></svg>