<svg enable-background="new 0 0 512 512" viewBox="0 0 512 512" xmlns="http://www.w3.org/2000/svg"><path d="m249.198 361.725c.329-17.991-4.295-36.055-13.87-51.951l31.814-31.814-33.104-33.104-31.814 31.814c-15.896-9.575-33.96-14.199-51.951-13.87l-11.659-43.513-45.222 12.117 11.644 43.456c-7.786 4.3-15.104 9.745-21.701 16.342s-12.042 13.914-16.342 21.7l-43.456-11.644-12.118 45.222 43.513 11.659c-.329 17.991 4.296 36.055 13.87 51.951l-31.814 31.814 33.104 33.104 31.814-31.814c15.896 9.574 33.96 14.199 51.951 13.87l11.659 43.513 45.222-12.117-11.644-43.456c7.786-4.3 15.104-9.745 21.701-16.342s12.042-13.914 16.342-21.701l43.456 11.644 12.117-45.222zm-61.507 33.833c-19.644 19.644-51.608 19.644-71.251 0-19.644-19.645-19.644-51.607 0-71.251s51.608-19.644 71.252 0c19.643 19.643 19.643 51.607-.001 71.251z" fill="#4c5870"/><path d="m453.819 177.223c2.382-8.892 3.436-17.964 3.258-26.953l43.5-11.656-12.117-45.222-43.499 11.656c-4.35-7.894-9.811-15.242-16.34-21.771-6.429-6.429-13.737-11.893-21.665-16.27l11.648-43.471-45.222-12.118-11.644 43.459c-18.553-.344-36.508 4.683-51.925 13.965l-31.854-31.854-33.104 33.104 31.812 31.812c-4.593 7.617-8.208 15.991-10.623 25.004-2.382 8.892-3.436 17.964-3.258 26.953l-43.5 11.657 12.117 45.222 43.499-11.656c4.348 7.894 9.811 15.242 16.339 21.77 6.429 6.429 13.738 11.893 21.665 16.27l-11.648 43.471 45.222 12.118 11.645-43.459c18.553.344 36.508-4.683 51.925-13.965l31.854 31.854 33.104-33.104-31.812-31.812c4.594-7.617 8.209-15.992 10.623-25.004zm-45.221-12.117c-7.191 26.834-34.871 42.816-61.705 35.626-8.546-2.29-16.343-6.78-22.546-12.983-12.714-12.714-17.726-31.383-13.081-48.724 7.191-26.834 34.871-42.816 61.706-35.626 8.546 2.29 16.342 6.78 22.546 12.983 12.714 12.714 17.726 31.385 13.08 48.724z" fill="#a2a9af"/><g fill="#11113f"><path d="m152.065 298.154c-16.524 0-32.043 6.42-43.7 18.078-11.658 11.658-18.079 27.178-18.079 43.701 0 16.524 6.421 32.043 18.078 43.701 12.048 12.048 27.874 18.071 43.7 18.071s31.652-6.022 43.701-18.071c11.657-11.658 18.078-27.178 18.078-43.701 0-16.524-6.42-32.043-18.078-43.701-11.656-11.658-27.176-18.078-43.7-18.078zm27.551 89.33c-15.192 15.192-39.911 15.191-55.102 0-7.345-7.345-11.39-17.129-11.39-27.551 0-10.423 4.045-20.207 11.39-27.551 7.344-7.345 17.129-11.39 27.551-11.39s20.207 4.045 27.551 11.39c7.344 7.344 11.388 17.128 11.388 27.551.001 10.422-4.044 20.207-11.388 27.551z"/><path d="m295.666 362.353-35.257-9.446c-.917-14.332-4.64-28.283-10.967-41.099l25.774-25.773c4.459-4.459 4.459-11.69 0-16.15l-33.104-33.104c-2.141-2.141-5.046-3.345-8.075-3.345s-5.933 1.204-8.075 3.345l-25.773 25.773c-12.817-6.326-26.767-10.049-41.099-10.967l-9.447-35.256c-.785-2.927-2.697-5.42-5.32-6.934-2.622-1.514-5.737-1.925-8.665-1.141l-45.222 12.117c-6.091 1.633-9.706 7.894-8.075 13.985l9.432 35.202c-5.927 3.956-11.465 8.496-16.534 13.566-5.07 5.069-9.612 10.607-13.566 16.534l-35.201-9.432c-6.093-1.636-12.353 1.982-13.986 8.075l-12.117 45.222c-.785 2.926-.373 6.042 1.141 8.665s4.008 4.537 6.934 5.32l35.257 9.446c.918 14.33 4.641 28.284 10.967 41.099l-25.773 25.773c-4.459 4.459-4.459 11.69 0 16.15l33.105 33.104c2.141 2.141 5.045 3.345 8.075 3.345 3.028 0 5.933-1.204 8.075-3.345l25.773-25.773c12.817 6.326 26.768 10.05 41.099 10.967l9.447 35.256c1.367 5.103 5.98 8.467 11.023 8.467.977-.001 1.973-.127 2.963-.393l45.222-12.117c6.091-1.633 9.706-7.894 8.075-13.985l-9.432-35.201c5.925-3.954 11.463-8.495 16.534-13.567 5.07-5.07 9.612-10.607 13.566-16.534l35.202 9.432c6.089 1.631 12.352-1.982 13.985-8.075l12.117-45.222c.785-2.926.373-6.042-1.141-8.665-1.515-2.622-4.011-4.534-6.937-5.319zm-23.148 42.267-32.426-8.688c-5.069-1.359-10.414.915-12.952 5.509-3.868 7.005-8.72 13.446-14.42 19.148-5.702 5.7-12.143 10.552-19.147 14.42-4.595 2.538-6.869 7.882-5.51 12.952l8.688 32.426-23.162 6.207-8.704-32.482c-1.339-5-5.869-8.464-11.028-8.464-.071 0-.142.001-.211.002-16.223.292-32.07-3.934-45.85-12.236-4.496-2.706-10.256-2.002-13.967 1.707l-23.739 23.739-16.955-16.955 23.739-23.739c3.71-3.71 4.415-9.472 1.707-13.966-8.301-13.781-12.53-29.635-12.233-45.85.096-5.245-3.395-9.881-8.462-11.239l-32.483-8.704 6.206-23.162 32.426 8.689c5.071 1.357 10.414-.916 12.952-5.509 3.869-7.007 8.721-13.447 14.42-19.149 5.698-5.697 12.14-10.549 19.148-14.421 4.594-2.539 6.868-7.88 5.509-12.951l-8.688-32.426 23.162-6.207 8.704 32.482c1.357 5.067 5.972 8.536 11.238 8.462 16.228-.297 32.072 3.935 45.852 12.236 4.496 2.708 10.256 2.004 13.967-1.707l23.739-23.739 16.955 16.955-23.74 23.74c-3.71 3.71-4.415 9.472-1.707 13.967 8.301 13.778 12.53 29.634 12.233 45.849-.096 5.245 3.395 9.881 8.462 11.239l32.483 8.704z"/><path d="m511.608 135.659-12.118-45.222c-1.633-6.093-7.894-9.706-13.986-8.075l-35.231 9.44c-3.973-5.981-8.52-11.541-13.577-16.599-5.026-5.024-10.55-9.544-16.495-13.501l9.435-35.209c.785-2.926.373-6.042-1.141-8.665s-4.008-4.537-6.934-5.32l-45.222-12.118c-2.927-.786-6.044-.375-8.665 1.141-2.623 1.514-4.537 4.008-5.32 6.934l-9.433 35.207c-14.261.93-28.207 4.682-41.075 11.053l-25.811-25.811c-4.459-4.458-11.69-4.458-16.149 0l-33.104 33.104c-4.46 4.459-4.46 11.69 0 16.15l25.769 25.769c-3.155 6.387-5.68 13.089-7.536 20.016-1.845 6.887-3 13.952-3.45 21.094l-35.233 9.441c-2.926.785-5.42 2.697-6.934 5.32s-1.925 5.739-1.141 8.665l12.117 45.222c1.633 6.091 7.891 9.707 13.986 8.075l35.231-9.44c3.972 5.979 8.518 11.538 13.577 16.599 5.026 5.024 10.55 9.544 16.496 13.501l-9.435 35.21c-1.633 6.091 1.982 12.352 8.075 13.985l45.222 12.117c.973.262 1.966.389 2.955.389 1.988 0 3.959-.518 5.71-1.53 2.623-1.514 4.537-4.008 5.32-6.934l9.433-35.207c14.26-.931 28.209-4.684 41.076-11.053l25.81 25.81c4.459 4.458 11.691 4.458 16.149 0l33.105-33.104c4.459-4.459 4.459-11.69 0-16.15l-25.769-25.769c3.155-6.388 5.68-13.09 7.536-20.016 1.845-6.887 3-13.951 3.45-21.092l35.234-9.443c6.09-1.632 9.705-7.893 8.073-13.984zm-57.486 3.582c-5.074 1.359-8.566 6.005-8.462 11.256.16 8.065-.806 16.062-2.871 23.77-2.086 7.786-5.239 15.208-9.372 22.061-2.711 4.496-2.008 10.259 1.704 13.971l23.737 23.737-16.955 16.955-23.778-23.778c-3.71-3.709-9.469-4.415-13.965-1.708-13.895 8.363-29.739 12.623-45.825 12.33-5.222-.075-9.883 3.394-11.241 8.462l-8.689 32.428-23.162-6.208 8.692-32.441c1.359-5.07-.915-10.414-5.51-12.952-7.056-3.896-13.486-8.724-19.11-14.347-5.66-5.662-10.51-12.124-14.412-19.206-2.535-4.602-7.882-6.876-12.957-5.52l-32.469 8.7-6.206-23.162 32.471-8.7c5.075-1.359 8.567-6.005 8.462-11.257-.161-8.065.805-16.061 2.871-23.769 2.087-7.787 5.24-15.21 9.372-22.062 2.711-4.496 2.007-10.259-1.704-13.971l-23.738-23.737 16.955-16.956 23.779 23.779c3.709 3.709 9.47 4.412 13.963 1.708 13.896-8.365 29.744-12.621 45.824-12.329 5.232.134 9.884-3.394 11.242-8.462l8.689-32.428 23.162 6.207-8.692 32.44c-1.359 5.07.915 10.414 5.51 12.952 7.055 3.896 13.485 8.724 19.11 14.348 5.658 5.657 10.507 12.119 14.412 19.206 2.535 4.601 7.882 6.878 12.957 5.519l32.469-8.7 6.206 23.162z"/><path d="m375.927 92.37c-32.915-8.82-66.871 10.783-75.691 43.701-5.699 21.267.445 44.164 16.035 59.752 7.619 7.621 17.186 13.132 27.665 15.939 5.31 1.423 10.699 2.126 16.057 2.126 10.71 0 21.29-2.814 30.828-8.321 14.309-8.261 24.54-21.581 28.806-37.505 5.699-21.268-.445-44.165-16.035-59.753-7.619-7.62-17.185-13.132-27.665-15.939zm21.641 69.78c-2.688 10.032-9.139 18.427-18.166 23.638-9.026 5.211-19.522 6.6-29.554 3.913-6.613-1.772-12.638-5.239-17.427-10.027-9.839-9.838-13.718-24.282-10.124-37.694 5.561-20.752 26.969-33.111 47.721-27.551 6.612 1.772 12.638 5.239 17.426 10.027 9.839 9.841 13.718 24.283 10.124 37.694z"/></g></svg>