<?xml version="1.0" encoding="iso-8859-1"?>
<!-- Generator: Adobe Illustrator 19.0.0, SVG Export Plug-In . SVG Version: 6.00 Build 0)  -->
<svg version="1.1" id="Layer_1" xmlns="http://www.w3.org/2000/svg" xmlns:xlink="http://www.w3.org/1999/xlink" x="0px" y="0px"
	 viewBox="0 0 512.002 512.002" style="enable-background:new 0 0 512.002 512.002;" xml:space="preserve">
<path style="fill:#CCC4C1;" d="M384.302,150.644l-18.312-18.312c-40.286-40.286-106.208-40.286-146.495,0l-18.312,18.312
	l93.958,91.724L384.302,150.644z"/>
<path style="fill:#E6E2E0;" d="M201.184,150.644l-18.312,18.312c-40.286,40.286-40.286,106.209,0,146.495l18.312,18.312
	l93.958-91.395L201.184,150.644z"/>
<path style="fill:#ADA7A4;" d="M462.556,228.899l-80.572-80.572L198.867,331.445l80.572,80.572
	c50.567,50.567,132.551,50.567,183.118,0C513.123,361.451,513.123,279.466,462.556,228.899z"/>
<g>
	<path style="fill:#11113F;" d="M350.903,163.039l-60.477,60.477l-60.477-60.477c-4.524-4.523-11.86-4.523-16.385,0
		c-4.524,4.524-4.524,11.86,0,16.385l60.477,60.477l-60.477,60.477c-4.524,4.524-4.524,11.86,0,16.385
		c2.263,2.261,5.227,3.393,8.192,3.393s5.93-1.132,8.192-3.393l137.339-137.339c4.524-4.524,4.524-11.86,0-16.385
		C362.761,158.517,355.428,158.517,350.903,163.039z"/>
	<path style="fill:#11113F;" d="M470.749,220.722l-98.884-98.884c-44.904-44.904-117.972-44.905-162.878,0l-10.12,10.12
		l-62.559-62.559c-25.169-25.168-66.125-25.168-91.296,0c-12.193,12.196-18.909,28.407-18.909,45.65
		c0,17.245,6.715,33.456,18.908,45.648l33.294,33.294c7.818,7.817,12.122,18.21,12.122,29.264s-4.305,21.448-12.122,29.264
		c-16.136,16.136-42.391,16.136-58.528,0c-4.524-4.523-11.86-4.523-16.384,0c-4.524,4.524-4.524,11.86,0,16.385
		c25.171,25.171,66.126,25.171,91.295,0c12.193-12.192,18.908-28.405,18.908-45.648s-6.715-33.455-18.908-45.648l-33.295-33.294
		c-7.817-7.817-12.122-18.21-12.122-29.264s4.305-21.448,12.122-29.264c16.137-16.136,42.393-16.136,58.528,0l62.559,62.558
		l-10.121,10.12c-44.905,44.905-44.905,117.972,0,162.88l98.884,98.884c27.501,27.501,63.626,41.251,99.752,41.251
		c36.125,0,72.249-13.75,99.752-41.251C525.753,365.222,525.753,275.725,470.749,220.722z M454.364,403.841
		c-22.987,22.987-53.171,34.48-83.367,34.476c-30.189-0.002-60.386-11.495-83.367-34.476l-98.884-98.884
		c-35.871-35.872-35.871-94.24,0-130.111l36.624-36.623c17.936-17.935,41.496-26.904,65.056-26.904
		c23.56,0,47.119,8.968,65.054,26.904l98.884,98.884C500.333,283.076,500.333,357.872,454.364,403.841z"/>
</g>
<g>
</g>
<g>
</g>
<g>
</g>
<g>
</g>
<g>
</g>
<g>
</g>
<g>
</g>
<g>
</g>
<g>
</g>
<g>
</g>
<g>
</g>
<g>
</g>
<g>
</g>
<g>
</g>
<g>
</g>
</svg>
