<svg enable-background="new 0 0 512.002 512.002" viewBox="0 0 512.002 512.002" xmlns="http://www.w3.org/2000/svg"><path d="m384.302 150.644-18.312-18.312c-40.286-40.286-106.208-40.286-146.495 0l-18.312 18.312 93.958 91.724z" fill="#ccc4c1"/><path d="m201.184 150.644-18.312 18.312c-40.286 40.286-40.286 106.209 0 146.495l18.312 18.312 93.958-91.395z" fill="#e6e2e0"/><path d="m462.556 228.899-80.572-80.572-183.117 183.118 80.572 80.572c50.567 50.567 132.551 50.567 183.118 0 50.566-50.566 50.566-132.551-.001-183.118z" fill="#ada7a4"/><g fill="#11113f"><path d="m350.903 163.039-60.477 60.477-60.477-60.477c-4.524-4.523-11.86-4.523-16.385 0-4.524 4.524-4.524 11.86 0 16.385l60.477 60.477-60.477 60.477c-4.524 4.524-4.524 11.86 0 16.385 2.263 2.261 5.227 3.393 8.192 3.393s5.93-1.132 8.192-3.393l137.339-137.339c4.524-4.524 4.524-11.86 0-16.385-4.526-4.522-11.859-4.522-16.384 0z"/><path d="m470.749 220.722-98.884-98.884c-44.904-44.904-117.972-44.905-162.878 0l-10.12 10.12-62.559-62.559c-25.169-25.168-66.125-25.168-91.296 0-12.193 12.196-18.909 28.407-18.909 45.65 0 17.245 6.715 33.456 18.908 45.648l33.294 33.294c7.818 7.817 12.122 18.21 12.122 29.264s-4.305 21.448-12.122 29.264c-16.136 16.136-42.391 16.136-58.528 0-4.524-4.523-11.86-4.523-16.384 0-4.524 4.524-4.524 11.86 0 16.385 25.171 25.171 66.126 25.171 91.295 0 12.193-12.192 18.908-28.405 18.908-45.648s-6.715-33.455-18.908-45.648l-33.295-33.294c-7.817-7.817-12.122-18.21-12.122-29.264s4.305-21.448 12.122-29.264c16.137-16.136 42.393-16.136 58.528 0l62.559 62.558-10.121 10.12c-44.905 44.905-44.905 117.972 0 162.88l98.884 98.884c27.501 27.501 63.626 41.251 99.752 41.251 36.125 0 72.249-13.75 99.752-41.251 55.006-55.006 55.006-144.503.002-199.506zm-16.385 183.119c-22.987 22.987-53.171 34.48-83.367 34.476-30.189-.002-60.386-11.495-83.367-34.476l-98.884-98.884c-35.871-35.872-35.871-94.24 0-130.111l36.624-36.623c17.936-17.935 41.496-26.904 65.056-26.904s47.119 8.968 65.054 26.904l98.884 98.884c45.969 45.969 45.969 120.765 0 166.734z"/></g></svg>