<svg enable-background="new 0 0 512 512" viewBox="0 0 512 512" xmlns="http://www.w3.org/2000/svg"><path d="m386.059 145.905-252.542 145.805c-10.809 6.241-14.548 20.19-8.307 30.999l39.551 68.503h22.693l-1.197 37.233 19.514 33.801c6.241 10.809 20.19 14.546 31 8.306l252.542-145.805c10.809-6.241 14.546-20.19 8.306-30.999l-19.514-33.801h-22.693l1.197-37.233-39.551-68.503c-6.24-10.809-20.19-14.546-30.999-8.306z" fill="#524e4d"/><path d="m299.936 157.096h42.982v336.988h-42.982z" fill="#181818" transform="matrix(.5 .866 -.866 .5 442.6779 -115.5709)"/><path d="m325.649 38.414h-291.609c-12.481 0-22.693 10.212-22.693 22.693v161.123c0 12.481 10.212 22.693 22.693 22.693h291.609c12.481 0 22.693-10.212 22.693-22.693v-161.123c.001-12.481-10.211-22.693-22.693-22.693z" fill="#bec8d6"/><path d="m127.88 132.054c0 12.481-10.212 22.693-22.693 22.693h-25.76c-12.481 0-22.693-10.212-22.693-22.693v-25.76c0-12.481 10.212-22.693 22.693-22.693h25.76c12.481 0 22.693 10.212 22.693 22.693z" fill="#ee3840"/><g fill="#11113f"><path d="m359.689 222.828v-161.921c0-18.77-15.27-34.04-34.04-34.04h-291.609c-18.77 0-34.04 15.271-34.04 34.04v161.92c0 18.77 15.27 34.04 34.04 34.04h291.609c18.77.001 34.04-15.27 34.04-34.039zm-336.996 0v-161.921c0-6.257 5.09-11.347 11.347-11.347h291.609c6.257 0 11.347 5.09 11.347 11.347v161.92c0 6.257-5.09 11.347-11.347 11.347h-291.609c-6.257 0-11.347-5.091-11.347-11.346z"/><path d="m507.447 288.274-80.96-140.227c-9.703-16.804-26.171-24.194-38.313-17.186l-11.465 6.618c-5.427 3.133-7.287 10.072-4.153 15.5 3.133 5.426 10.071 7.285 15.5 4.153l10.465-6.042c1.579.587 5.255 3.006 8.314 8.302l34.277 59.37-59.582 34.4c-5.427 3.134-7.287 10.072-4.153 15.5 2.101 3.64 5.915 5.676 9.836 5.676 1.924 0 3.876-.491 5.663-1.523l59.582-34.4 10.146 17.573-272.193 157.152-10.146-17.573 179.092-103.399c5.427-3.134 7.287-10.072 4.153-15.5-3.134-5.427-10.074-7.288-15.5-4.153l-179.092 103.4-34.277-59.37c-1.503-2.603-1.896-5.657-1.107-8.603.789-2.944 2.657-5.394 5.259-6.897l20.194-11.658c5.427-3.133 7.287-10.072 4.154-15.5-3.135-5.427-10.072-7.287-15.5-4.153l-20.195 11.658c-7.852 4.533-13.475 11.877-15.834 20.677-2.358 8.8-1.159 17.971 3.374 25.823l39.948 69.192c.001.001.001.003.002.005l.002.003 21.487 37.217c.001.002.002.003.002.006.001.001.002.002.002.003l19.514 33.801c4.534 7.853 11.877 13.475 20.676 15.834 2.949.79 5.938 1.181 8.906 1.18 5.89 0 11.696-1.539 16.918-4.555l252.54-145.805c16.259-9.384 21.848-30.244 12.464-46.499zm-18.547 19.951c-.789 2.944-2.657 5.394-5.26 6.897l-252.54 145.804c-2.604 1.502-5.659 1.894-8.603 1.107-2.944-.79-5.394-2.659-6.898-5.261l-13.844-23.978 272.194-157.151 13.844 23.978c1.503 2.601 1.896 5.658 1.107 8.604z"/><path d="m302.956 188.788h-56.271c-6.267 0-11.347 5.081-11.347 11.347s5.08 11.347 11.347 11.347h56.271c6.267 0 11.347-5.081 11.347-11.347s-5.08-11.347-11.347-11.347z"/><path d="m207.98 188.788h-56.271c-6.267 0-11.347 5.081-11.347 11.347s5.08 11.347 11.347 11.347h56.271c6.267 0 11.347-5.081 11.347-11.347s-5.08-11.347-11.347-11.347z"/><path d="m113.005 188.788h-56.272c-6.267 0-11.347 5.081-11.347 11.347s5.08 11.347 11.347 11.347h56.272c6.267 0 11.347-5.081 11.347-11.347s-5.08-11.347-11.347-11.347z"/></g></svg>