<svg enable-background="new 0 0 512 512" viewBox="0 0 512 512" xmlns="http://www.w3.org/2000/svg"><path d="m274.617 448.29h-43.439c-15.994 0-28.959 12.966-28.959 28.959 0 15.994 12.966 28.959 28.959 28.959h43.439c15.994 0 15.994-57.918 0-57.918z" fill="#ee3840"/><path d="m23.508 287.076c0 23.031 18.671 41.701 41.701 41.701h23.167v-83.403h-23.167c-23.03 0-41.701 18.671-41.701 41.702z" fill="#7a7674"/><path d="m446.791 245.374h-23.167v83.403h23.167c23.031 0 41.701-18.671 41.701-41.701 0-23.031-18.671-41.702-41.701-41.702z" fill="#7a7674"/><path d="m100.28 203.674c-19.192 0-34.751 15.558-34.751 34.751v83.403c0 19.192 15.558 34.751 34.751 34.751s34.751-15.559 34.751-34.751v-83.403c0-19.193-15.558-34.751-34.751-34.751z" fill="#181818"/><path d="m412.04 202.516c-19.193 0-34.751 15.558-34.751 34.751v83.403c0 19.192 15.558 34.751 34.751 34.751s34.751-15.559 34.751-34.751v-83.403c0-19.193-15.56-34.751-34.751-34.751z" fill="#181818"/><path d="m500.076 269.7h-1.283c-4.475-20.095-20.322-35.944-40.418-40.418v-26.908c-.001-111.589-90.786-202.374-202.375-202.374s-202.374 90.785-202.374 202.374v26.908c-20.095 4.475-35.944 20.322-40.418 40.418h-1.283c-6.398 0-11.584 5.187-11.584 11.584s5.186 11.584 11.584 11.584h1.283c4.589 20.614 21.148 36.761 41.982 40.743 4.818 20.442 23.199 35.709 45.091 35.709 25.549 0 46.335-20.786 46.335-46.335v-83.403c0-25.549-20.786-46.334-46.335-46.334-8.553 0-16.568 2.339-23.452 6.398 1.464-97.561 81.268-176.479 179.171-176.479 97.841 0 177.607 78.818 179.17 176.294-6.812-3.943-14.709-6.212-23.13-6.212-25.549 0-46.335 20.785-46.335 46.334v83.403c0 25.549 20.786 46.335 46.335 46.335 21.914 0 40.31-15.296 45.105-35.769 7.215-1.427 13.909-4.314 19.764-8.341v51.162c0 21.761-10.581 42.431-29.793 58.201-19.877 16.316-46.32 25.301-74.46 25.301h-75.186c-2.412-18.126-10.709-28.959-22.85-28.959h-43.44c-22.355 0-40.543 18.188-40.543 40.543s18.187 40.541 40.543 40.541h43.439c12.142 0 20.439-10.833 22.85-28.959h75.186c70.26 0 127.421-47.852 127.421-106.67v-83.503c6.398 0 11.584-5.187 11.584-11.584-.001-6.397-5.187-11.584-11.584-11.584zm-422.963 13.773v-43.891c0-12.773 10.393-23.166 23.167-23.166s23.167 10.393 23.167 23.166v83.403c0 12.775-10.393 23.167-23.167 23.167s-23.167-10.393-23.167-23.167c0-6.397-5.186-11.584-11.584-11.584-.054 0-.107.007-.16.008-.054 0-.107-.008-.16-.008-16.606 0-30.118-13.51-30.118-30.118 0-12.626 7.812-23.455 18.854-27.924v30.113c0 6.397 5.186 11.584 11.584 11.584s11.584-5.186 11.584-11.583zm195.032 205.36h-40.967c-9.581 0-17.376-7.795-17.376-17.376s7.795-17.376 17.376-17.376h40.967c1.215 2.506 2.883 8.422 2.883 17.376s-1.667 14.87-2.883 17.376zm174.646-177.432c-6.398 0-11.584 5.187-11.584 11.584 0 12.775-10.393 23.167-23.167 23.167s-23.167-10.393-23.167-23.167v-83.403c0-12.773 10.393-23.166 23.167-23.166s23.167 10.393 23.167 23.166v43.891c0 6.397 5.186 11.584 11.584 11.584s11.584-5.187 11.584-11.584v-29.987c10.874 4.548 18.534 15.294 18.534 27.797-.001 16.608-13.512 30.118-30.118 30.118z" fill="#11113f"/></svg>