<?xml version="1.0" encoding="iso-8859-1"?>
<!-- Generator: Adobe Illustrator 19.0.0, SVG Export Plug-In . SVG Version: 6.00 Build 0)  -->
<svg version="1.1" id="Layer_1" xmlns="http://www.w3.org/2000/svg" xmlns:xlink="http://www.w3.org/1999/xlink" x="0px" y="0px"
	 viewBox="0 0 512 512" style="enable-background:new 0 0 512 512;" xml:space="preserve">
<path style="fill:#EE3840;" d="M274.617,448.29h-43.439c-15.994,0-28.959,12.966-28.959,28.959
	c0,15.994,12.966,28.959,28.959,28.959h43.439C290.611,506.208,290.611,448.29,274.617,448.29z"/>
<g>
	<path style="fill:#7A7674;" d="M23.508,287.076c0,23.031,18.671,41.701,41.701,41.701h23.167v-83.403H65.209
		C42.179,245.374,23.508,264.045,23.508,287.076z"/>
	<path style="fill:#7A7674;" d="M446.791,245.374h-23.167v83.403h23.167c23.031,0,41.701-18.671,41.701-41.701
		C488.492,264.045,469.821,245.374,446.791,245.374z"/>
</g>
<g>
	<path style="fill:#181818;" d="M100.28,203.674c-19.192,0-34.751,15.558-34.751,34.751v83.403
		c0,19.192,15.558,34.751,34.751,34.751s34.751-15.559,34.751-34.751v-83.403C135.031,219.232,119.473,203.674,100.28,203.674z"/>
	<path style="fill:#181818;" d="M412.04,202.516c-19.193,0-34.751,15.558-34.751,34.751v83.403
		c0,19.192,15.558,34.751,34.751,34.751s34.751-15.559,34.751-34.751v-83.403C446.791,218.074,431.231,202.516,412.04,202.516z"/>
</g>
<path style="fill:#11113F;" d="M500.076,269.7h-1.283c-4.475-20.095-20.322-35.944-40.418-40.418v-26.908
	C458.374,90.785,367.589,0,256,0S53.626,90.785,53.626,202.374v26.908c-20.095,4.475-35.944,20.322-40.418,40.418h-1.283
	c-6.398,0-11.584,5.187-11.584,11.584c0,6.397,5.186,11.584,11.584,11.584h1.283c4.589,20.614,21.148,36.761,41.982,40.743
	c4.818,20.442,23.199,35.709,45.091,35.709c25.549,0,46.335-20.786,46.335-46.335v-83.403c0-25.549-20.786-46.334-46.335-46.334
	c-8.553,0-16.568,2.339-23.452,6.398C78.293,102.085,158.097,23.167,256,23.167c97.841,0,177.607,78.818,179.17,176.294
	c-6.812-3.943-14.709-6.212-23.13-6.212c-25.549,0-46.335,20.785-46.335,46.334v83.403c0,25.549,20.786,46.335,46.335,46.335
	c21.914,0,40.31-15.296,45.105-35.769c7.215-1.427,13.909-4.314,19.764-8.341v51.162c0,21.761-10.581,42.431-29.793,58.201
	c-19.877,16.316-46.32,25.301-74.46,25.301h-75.186c-2.412-18.126-10.709-28.959-22.85-28.959H231.18
	c-22.355,0-40.543,18.188-40.543,40.543S208.824,512,231.18,512h43.439c12.142,0,20.439-10.833,22.85-28.959h75.186
	c70.26,0,127.421-47.852,127.421-106.67v-83.503c6.398,0,11.584-5.187,11.584-11.584C511.659,274.887,506.473,269.7,500.076,269.7z
	 M77.113,283.473v-43.891c0-12.773,10.393-23.166,23.167-23.166s23.167,10.393,23.167,23.166v83.403
	c0,12.775-10.393,23.167-23.167,23.167s-23.167-10.393-23.167-23.167c0-6.397-5.186-11.584-11.584-11.584
	c-0.054,0-0.107,0.007-0.16,0.008c-0.054,0-0.107-0.008-0.16-0.008c-16.606,0-30.118-13.51-30.118-30.118
	c0-12.626,7.812-23.455,18.854-27.924v30.113c0,6.397,5.186,11.584,11.584,11.584S77.113,289.87,77.113,283.473z M272.145,488.833
	h-40.967c-9.581,0-17.376-7.795-17.376-17.376s7.795-17.376,17.376-17.376h40.967c1.215,2.506,2.883,8.422,2.883,17.376
	S273.361,486.327,272.145,488.833z M446.791,311.401c-6.398,0-11.584,5.187-11.584,11.584c0,12.775-10.393,23.167-23.167,23.167
	s-23.167-10.393-23.167-23.167v-83.403c0-12.773,10.393-23.166,23.167-23.166s23.167,10.393,23.167,23.166v43.891
	c0,6.397,5.186,11.584,11.584,11.584s11.584-5.187,11.584-11.584v-29.987c10.874,4.548,18.534,15.294,18.534,27.797
	C476.908,297.891,463.397,311.401,446.791,311.401z"/>
<g>
</g>
<g>
</g>
<g>
</g>
<g>
</g>
<g>
</g>
<g>
</g>
<g>
</g>
<g>
</g>
<g>
</g>
<g>
</g>
<g>
</g>
<g>
</g>
<g>
</g>
<g>
</g>
<g>
</g>
</svg>
