<?xml version="1.0" encoding="iso-8859-1"?>
<!-- Generator: Adobe Illustrator 19.0.0, SVG Export Plug-In . SVG Version: 6.00 Build 0)  -->
<svg version="1.1" id="Layer_1" xmlns="http://www.w3.org/2000/svg" xmlns:xlink="http://www.w3.org/1999/xlink" x="0px" y="0px"
	 viewBox="0 0 512 512" style="enable-background:new 0 0 512 512;" xml:space="preserve">
<rect x="11.584" y="11.584" style="fill:#269AF2;" width="139.781" height="488.833"/>
<rect x="360.636" y="11.584" style="fill:#524E4D;" width="139.781" height="488.833"/>
<rect x="186.115" y="11.584" style="fill:#EE3840;" width="139.781" height="488.833"/>
<circle style="fill:#1F5985;" cx="81.468" cy="430.532" r="23.553"/>
<circle style="fill:#181818;" cx="430.532" cy="430.532" r="23.553"/>
<circle style="fill:#C21B23;" cx="256" cy="430.532" r="23.553"/>
<g>
	<rect x="57.919" y="57.919" style="fill:#FFFFFF;" width="47.107" height="196.923"/>
	<rect x="406.97" y="57.919" style="fill:#FFFFFF;" width="47.107" height="196.923"/>
	<rect x="232.45" y="57.919" style="fill:#FFFFFF;" width="47.107" height="196.923"/>
</g>
<g>
	<path style="fill:#11113F;" d="M81.472,465.665c19.375,0,35.137-15.762,35.137-35.138c0-19.375-15.762-35.137-35.137-35.137
		s-35.137,15.762-35.137,35.137C46.335,449.903,62.097,465.665,81.472,465.665z M81.472,418.558c6.6,0,11.969,5.37,11.969,11.969
		c0,6.6-5.37,11.971-11.969,11.971c-6.6,0-11.969-5.37-11.969-11.971C69.502,423.928,74.871,418.558,81.472,418.558z"/>
	<path style="fill:#11113F;" d="M151.361,0H11.584C5.186,0,0,5.187,0,11.584v488.833C0,506.813,5.186,512,11.584,512h139.777
		c6.398,0,11.584-5.187,11.584-11.584V11.584C162.945,5.187,157.757,0,151.361,0z M139.777,488.833H23.167V23.167h116.61V488.833z"
		/>
	<path style="fill:#11113F;" d="M57.919,266.425h47.107c6.398,0,11.584-5.187,11.584-11.584V57.919
		c0-6.397-5.186-11.584-11.584-11.584H57.919c-6.398,0-11.584,5.187-11.584,11.584v196.923
		C46.335,261.238,51.521,266.425,57.919,266.425z M69.502,69.502h23.94v173.756h-23.94V69.502z"/>
	<path style="fill:#11113F;" d="M430.528,465.665c19.375,0,35.137-15.762,35.137-35.138c0-19.375-15.762-35.137-35.137-35.137
		c-19.376,0-35.138,15.762-35.138,35.137C395.39,449.903,411.152,465.665,430.528,465.665z M430.528,418.558
		c6.599,0,11.969,5.37,11.969,11.969c0,6.6-5.37,11.971-11.969,11.971c-6.6,0-11.971-5.37-11.971-11.971
		C418.558,423.928,423.928,418.558,430.528,418.558z"/>
	<path style="fill:#11113F;" d="M406.975,266.425h47.106c6.397,0,11.584-5.187,11.584-11.584V57.919
		c0-6.397-5.187-11.584-11.584-11.584h-47.106c-6.397,0-11.584,5.187-11.584,11.584v196.923
		C395.391,261.238,400.579,266.425,406.975,266.425z M418.559,69.502h23.939v173.756h-23.939L418.559,69.502L418.559,69.502z"/>
	<path style="fill:#11113F;" d="M500.416,0H360.639c-6.397,0-11.584,5.187-11.584,11.584v488.833
		c0,6.397,5.187,11.584,11.584,11.584h139.777c6.397,0,11.584-5.187,11.584-11.584V11.584C512,5.187,506.813,0,500.416,0z
		 M488.833,488.833h-116.61V23.167h116.61V488.833z"/>
	<path style="fill:#11113F;" d="M256,465.665c19.376,0,35.138-15.762,35.138-35.138c0-19.375-15.762-35.137-35.138-35.137
		c-19.375,0-35.137,15.762-35.137,35.137C220.863,449.903,236.625,465.665,256,465.665z M256,418.558
		c6.6,0,11.971,5.37,11.971,11.969c0,6.6-5.37,11.971-11.971,11.971c-6.6,0-11.969-5.37-11.969-11.971
		C244.031,423.928,249.4,418.558,256,418.558z"/>
	<path style="fill:#11113F;" d="M232.447,266.425h47.106c6.397,0,11.584-5.187,11.584-11.584V57.919
		c0-6.397-5.187-11.584-11.584-11.584h-47.106c-6.398,0-11.584,5.187-11.584,11.584v196.923
		C220.863,261.238,226.049,266.425,232.447,266.425z M244.031,69.502h23.939v173.756h-23.939V69.502z"/>
	<path style="fill:#11113F;" d="M325.888,0H186.112c-6.398,0-11.584,5.187-11.584,11.584v488.833
		c0,6.397,5.186,11.584,11.584,11.584h139.776c6.397,0,11.584-5.187,11.584-11.584V11.584C337.472,5.187,332.285,0,325.888,0z
		 M314.304,488.833H197.696V23.167h116.609V488.833z"/>
</g>
<g>
</g>
<g>
</g>
<g>
</g>
<g>
</g>
<g>
</g>
<g>
</g>
<g>
</g>
<g>
</g>
<g>
</g>
<g>
</g>
<g>
</g>
<g>
</g>
<g>
</g>
<g>
</g>
<g>
</g>
</svg>
