<svg enable-background="new 0 0 512 512" viewBox="0 0 512 512" xmlns="http://www.w3.org/2000/svg"><path d="m11.584 11.584h139.781v488.833h-139.781z" fill="#269af2"/><path d="m360.636 11.584h139.781v488.833h-139.781z" fill="#524e4d"/><path d="m186.115 11.584h139.781v488.833h-139.781z" fill="#ee3840"/><circle cx="81.468" cy="430.532" fill="#1f5985" r="23.553"/><circle cx="430.532" cy="430.532" fill="#181818" r="23.553"/><circle cx="256" cy="430.532" fill="#c21b23" r="23.553"/><g fill="#fff"><path d="m57.919 57.919h47.107v196.923h-47.107z"/><path d="m406.97 57.919h47.107v196.923h-47.107z"/><path d="m232.45 57.919h47.107v196.923h-47.107z"/></g><g fill="#11113f"><path d="m81.472 465.665c19.375 0 35.137-15.762 35.137-35.138 0-19.375-15.762-35.137-35.137-35.137s-35.137 15.762-35.137 35.137c0 19.376 15.762 35.138 35.137 35.138zm0-47.107c6.6 0 11.969 5.37 11.969 11.969 0 6.6-5.37 11.971-11.969 11.971-6.6 0-11.969-5.37-11.969-11.971-.001-6.599 5.368-11.969 11.969-11.969z"/><path d="m151.361 0h-139.777c-6.398 0-11.584 5.187-11.584 11.584v488.833c0 6.396 5.186 11.583 11.584 11.583h139.777c6.398 0 11.584-5.187 11.584-11.584v-488.832c0-6.397-5.188-11.584-11.584-11.584zm-11.584 488.833h-116.61v-465.666h116.61z"/><path d="m57.919 266.425h47.107c6.398 0 11.584-5.187 11.584-11.584v-196.922c0-6.397-5.186-11.584-11.584-11.584h-47.107c-6.398 0-11.584 5.187-11.584 11.584v196.923c0 6.396 5.186 11.583 11.584 11.583zm11.583-196.923h23.94v173.756h-23.94z"/><path d="m430.528 465.665c19.375 0 35.137-15.762 35.137-35.138 0-19.375-15.762-35.137-35.137-35.137-19.376 0-35.138 15.762-35.138 35.137 0 19.376 15.762 35.138 35.138 35.138zm0-47.107c6.599 0 11.969 5.37 11.969 11.969 0 6.6-5.37 11.971-11.969 11.971-6.6 0-11.971-5.37-11.971-11.971.001-6.599 5.371-11.969 11.971-11.969z"/><path d="m406.975 266.425h47.106c6.397 0 11.584-5.187 11.584-11.584v-196.922c0-6.397-5.187-11.584-11.584-11.584h-47.106c-6.397 0-11.584 5.187-11.584 11.584v196.923c0 6.396 5.188 11.583 11.584 11.583zm11.584-196.923h23.939v173.756h-23.939z"/><path d="m500.416 0h-139.777c-6.397 0-11.584 5.187-11.584 11.584v488.833c0 6.397 5.187 11.584 11.584 11.584h139.777c6.397 0 11.584-5.187 11.584-11.584v-488.833c0-6.397-5.187-11.584-11.584-11.584zm-11.583 488.833h-116.61v-465.666h116.61z"/><path d="m256 465.665c19.376 0 35.138-15.762 35.138-35.138 0-19.375-15.762-35.137-35.138-35.137-19.375 0-35.137 15.762-35.137 35.137 0 19.376 15.762 35.138 35.137 35.138zm0-47.107c6.6 0 11.971 5.37 11.971 11.969 0 6.6-5.37 11.971-11.971 11.971-6.6 0-11.969-5.37-11.969-11.971 0-6.599 5.369-11.969 11.969-11.969z"/><path d="m232.447 266.425h47.106c6.397 0 11.584-5.187 11.584-11.584v-196.922c0-6.397-5.187-11.584-11.584-11.584h-47.106c-6.398 0-11.584 5.187-11.584 11.584v196.923c0 6.396 5.186 11.583 11.584 11.583zm11.584-196.923h23.939v173.756h-23.939z"/><path d="m325.888 0h-139.776c-6.398 0-11.584 5.187-11.584 11.584v488.833c0 6.397 5.186 11.584 11.584 11.584h139.776c6.397 0 11.584-5.187 11.584-11.584v-488.833c0-6.397-5.187-11.584-11.584-11.584zm-11.584 488.833h-116.608v-465.666h116.609v465.666z"/></g></svg>