<svg enable-background="new 0 0 512 512" viewBox="0 0 512 512" xmlns="http://www.w3.org/2000/svg"><path d="m500.416 243.976v128.4l-181.864 1.079-.146-212.627h142.104z" fill="#bec8d6"/><path d="m10.425 73.096 1.159 251.69h306.822l.001-251.69z" fill="#95a53b"/><circle cx="400.217" cy="373.458" fill="#181818" r="65.448"/><path d="m454.668 243.977h-95.324v-43.365h75.117z" fill="#fff"/><circle cx="111.783" cy="373.458" fill="#181818" r="65.448"/><g fill="#11113f"><path d="m510.916 239.084-38.742-83.143c-1.902-4.081-5.997-6.691-10.499-6.691h-107.359c-6.397 0-11.584 5.186-11.584 11.584s5.187 11.584 11.584 11.584h99.977l34.54 74.125v115.329h-12.456c-5.604-37-37.62-65.448-76.159-65.448s-70.555 28.448-76.159 65.448h-136.117c-1.245-8.221-3.81-16.009-7.445-23.167h139.068c6.397 0 11.584-5.186 11.584-11.584v-254.025c0-6.398-5.187-11.584-11.584-11.584h-307.981c-6.397 0-11.584 5.186-11.584 11.584v254.025c0 6.398 5.187 11.584 11.584 11.584h31.486c-3.635 7.159-6.201 14.947-7.445 23.167h-24.041c-6.397 0-11.584 5.186-11.584 11.584s5.187 11.584 11.584 11.584h24.04c5.604 37 37.62 65.448 76.159 65.448s70.555-28.448 76.159-65.448h136.116c5.604 37 37.62 65.448 76.159 65.448s70.555-28.448 76.159-65.448h24.04c6.397 0 11.584-5.186 11.584-11.584v-129.479c0-1.69-.37-3.361-1.084-4.893zm-487.749-154.404h284.813v230.858h-145.494c-13.56-11.885-31.298-19.113-50.703-19.113s-37.143 7.228-50.703 19.113h-37.913zm88.616 342.639c-29.702 0-53.864-24.164-53.864-53.864 0-29.701 24.162-53.864 53.864-53.864s53.864 24.164 53.864 53.864-24.162 53.864-53.864 53.864zm288.434 0c-29.702 0-53.864-24.164-53.864-53.864 0-29.701 24.162-53.864 53.864-53.864 29.696 0 53.856 24.156 53.864 53.849 0 .005-.001.01-.001.015s.001.01.001.015c-.008 29.695-24.168 53.849-53.864 53.849z"/><path d="m454.668 255.56c3.958 0 7.642-2.021 9.77-5.359 2.127-3.337 2.402-7.529.731-11.118l-20.205-43.365c-1.902-4.081-5.997-6.691-10.499-6.691h-75.118c-6.397 0-11.584 5.186-11.584 11.584v43.365c0 6.398 5.187 11.584 11.584 11.584zm-83.74-43.363h56.152l9.412 20.197h-65.564z"/></g></svg>