<?xml version="1.0" encoding="iso-8859-1"?>
<!-- Generator: Adobe Illustrator 19.0.0, SVG Export Plug-In . SVG Version: 6.00 Build 0)  -->
<svg version="1.1" id="Layer_1" xmlns="http://www.w3.org/2000/svg" xmlns:xlink="http://www.w3.org/1999/xlink" x="0px" y="0px"
	 viewBox="0 0 512 512" style="enable-background:new 0 0 512 512;" xml:space="preserve">
<polygon style="fill:#BEC8D6;" points="500.416,243.976 500.416,372.376 318.552,373.455 318.406,160.828 460.51,160.828 "/>
<polygon style="fill:#95A53B;" points="10.425,73.096 11.584,324.786 318.406,324.786 318.407,73.096 "/>
<circle style="fill:#181818;" cx="400.217" cy="373.458" r="65.448"/>
<polygon style="fill:#FFFFFF;" points="454.668,243.977 359.344,243.977 359.344,200.612 434.461,200.612 "/>
<circle style="fill:#181818;" cx="111.783" cy="373.458" r="65.448"/>
<g>
	<path style="fill:#11113F;" d="M510.916,239.084l-38.742-83.143c-1.902-4.081-5.997-6.691-10.499-6.691H354.316
		c-6.397,0-11.584,5.186-11.584,11.584s5.187,11.584,11.584,11.584h99.977l34.54,74.125v115.329h-12.456
		c-5.604-37-37.62-65.448-76.159-65.448s-70.555,28.448-76.159,65.448H187.942c-1.245-8.221-3.81-16.009-7.445-23.167h139.068
		c6.397,0,11.584-5.186,11.584-11.584V73.096c0-6.398-5.187-11.584-11.584-11.584H11.584C5.187,61.512,0,66.698,0,73.096v254.025
		c0,6.398,5.187,11.584,11.584,11.584h31.486c-3.635,7.159-6.201,14.947-7.445,23.167H11.584C5.187,361.872,0,367.058,0,373.456
		c0,6.398,5.187,11.584,11.584,11.584h24.04c5.604,37,37.62,65.448,76.159,65.448s70.555-28.448,76.159-65.448h136.116
		c5.604,37,37.62,65.448,76.159,65.448s70.555-28.448,76.159-65.448h24.04c6.397,0,11.584-5.186,11.584-11.584V243.977
		C512,242.287,511.63,240.616,510.916,239.084z M23.167,84.68h284.813v230.858H162.486c-13.56-11.885-31.298-19.113-50.703-19.113
		s-37.143,7.228-50.703,19.113H23.167V84.68z M111.783,427.319c-29.702,0-53.864-24.164-53.864-53.864
		c0-29.701,24.162-53.864,53.864-53.864s53.864,24.164,53.864,53.864C165.647,403.155,141.485,427.319,111.783,427.319z
		 M400.217,427.319c-29.702,0-53.864-24.164-53.864-53.864c0-29.701,24.162-53.864,53.864-53.864
		c29.696,0,53.856,24.156,53.864,53.849c0,0.005-0.001,0.01-0.001,0.015c0,0.005,0.001,0.01,0.001,0.015
		C454.073,403.165,429.913,427.319,400.217,427.319z"/>
	<path style="fill:#11113F;" d="M454.668,255.56c3.958,0,7.642-2.021,9.77-5.359c2.127-3.337,2.402-7.529,0.731-11.118
		l-20.205-43.365c-1.902-4.081-5.997-6.691-10.499-6.691h-75.118c-6.397,0-11.584,5.186-11.584,11.584v43.365
		c0,6.398,5.187,11.584,11.584,11.584H454.668z M370.928,212.197h56.152l9.412,20.197h-65.564V212.197z"/>
</g>
<g>
</g>
<g>
</g>
<g>
</g>
<g>
</g>
<g>
</g>
<g>
</g>
<g>
</g>
<g>
</g>
<g>
</g>
<g>
</g>
<g>
</g>
<g>
</g>
<g>
</g>
<g>
</g>
<g>
</g>
</svg>
