<?xml version="1.0" encoding="iso-8859-1"?>
<!-- Generator: Adobe Illustrator 19.0.0, SVG Export Plug-In . SVG Version: 6.00 Build 0)  -->
<svg version="1.1" id="Layer_1" xmlns="http://www.w3.org/2000/svg" xmlns:xlink="http://www.w3.org/1999/xlink" x="0px" y="0px"
	 viewBox="0 0 512 512" style="enable-background:new 0 0 512 512;" xml:space="preserve">
<polygon style="fill:#BEC8D6;" points="264.144,255.993 11.688,500.278 11.815,436.823 231.859,216.779 "/>
<path style="fill:#A2A9AF;" d="M458.865,53.101c-55.347-55.359-145.098-55.359-200.456,0
	c-44.285,44.285-53.134,110.59-26.55,163.678c6.626,13.263,15.487,25.716,26.55,36.778L11.688,500.278l123.042,0.139v-59.841h59.853
	v-59.853h59.841v-59.841l40.763-40.775c53.1,26.585,119.393,17.735,163.678-26.55C514.224,198.198,514.224,108.459,458.865,53.101z
	 M420.229,152.354c-16.737,16.737-43.874,16.737-60.613,0c-16.737-16.737-16.737-43.874,0-60.613
	c16.737-16.737,43.876-16.737,60.613,0C436.966,108.478,436.966,135.616,420.229,152.354z"/>
<g>
	<path style="fill:#11113F;" d="M250.221,245.359L111.253,384.326c-4.523,4.523-4.523,11.858,0,16.383
		c2.262,2.261,5.227,3.393,8.191,3.393s5.929-1.132,8.191-3.393l138.967-138.966c4.523-4.523,4.523-11.858,0-16.382
		C262.079,240.836,254.744,240.837,250.221,245.359z"/>
	<path style="fill:#11113F;" d="M467.062,44.909C438.103,15.948,399.599,0,358.643,0s-79.458,15.948-108.419,44.909
		c-44.78,44.78-57.271,111.897-32.292,169.414L3.626,428.636c-2.166,2.166-3.386,5.103-3.393,8.167l-0.131,63.45
		c0,0.11,0.001,0.221,0.005,0.331c0,0.002,0,0.006,0,0.008c0,0.001,0,0.003,0,0.005c0.079,2.857,1.208,5.69,3.388,7.87
		c2.208,2.208,5.085,3.337,7.979,3.391c0,0,0.001,0,0.002,0c0.005,0,0.008,0,0.02,0c0.042-0.019,0.119,0.001,0.177,0.001
		L134.721,512c0.005,0,0.009,0,0.014,0c3.069,0,6.014-1.219,8.186-3.388c2.175-2.173,3.398-5.121,3.398-8.195v-48.264h48.262
		c6.397,0,11.584-5.186,11.584-11.584l0.001-48.264h48.262c6.397,0,11.584-5.186,11.584-11.584v-55.049l31.636-31.636
		c19.638,8.529,40.387,12.69,60.992,12.689c39.744-0.002,78.931-15.49,108.424-44.981
		C526.843,201.963,526.843,104.69,467.062,44.909z M450.679,245.363c-39.711,39.715-100.113,49.515-150.302,24.39
		c-4.462-2.234-9.851-1.36-13.377,2.167l-40.764,40.764c-2.172,2.172-3.393,5.119-3.393,8.191v48.264h-48.262
		c-6.397,0-11.584,5.186-11.584,11.584l-0.001,48.264h-48.262c-6.397,0-11.584,5.186-11.584,11.584v48.25l-83.531-0.096
		l55.253-55.253c4.523-4.523,4.523-11.858,0-16.382c-4.525-4.523-11.857-4.523-16.383,0l-55.163,55.163l0.064-30.619L240.05,224.966
		c3.527-3.527,4.401-8.916,2.167-13.376c-25.126-50.188-15.324-110.589,24.39-150.301c24.584-24.583,57.27-38.122,92.036-38.122
		s67.452,13.539,92.036,38.123c24.584,24.584,38.123,57.269,38.123,92.036S475.263,220.78,450.679,245.363z"/>
	<path style="fill:#11113F;" d="M351.427,83.548L351.427,83.548c-21.226,21.228-21.226,55.767,0,76.996
		c10.614,10.614,24.556,15.919,38.497,15.919c13.942,0,27.884-5.306,38.497-15.921c21.226-21.227,21.226-55.767,0-76.995
		C407.193,62.322,372.655,62.322,351.427,83.548z M412.039,144.162c-12.194,12.193-32.036,12.193-44.231,0
		c-12.194-12.194-12.194-32.037,0-44.232l0,0c12.194-12.194,32.038-12.193,44.231,0
		C424.234,112.125,424.234,131.967,412.039,144.162z"/>
</g>
<g>
</g>
<g>
</g>
<g>
</g>
<g>
</g>
<g>
</g>
<g>
</g>
<g>
</g>
<g>
</g>
<g>
</g>
<g>
</g>
<g>
</g>
<g>
</g>
<g>
</g>
<g>
</g>
<g>
</g>
</svg>
