<svg enable-background="new 0 0 512 512" viewBox="0 0 512 512" xmlns="http://www.w3.org/2000/svg"><path d="m264.144 255.993-252.456 244.285.127-63.455 220.044-220.044z" fill="#bec8d6"/><path d="m458.865 53.101c-55.347-55.359-145.098-55.359-200.456 0-44.285 44.285-53.134 110.59-26.55 163.678 6.626 13.263 15.487 25.716 26.55 36.778l-246.721 246.721 123.042.139v-59.841h59.853v-59.853h59.841v-59.841l40.763-40.775c53.1 26.585 119.393 17.735 163.678-26.55 55.359-55.359 55.359-145.098 0-200.456zm-38.636 99.253c-16.737 16.737-43.874 16.737-60.613 0-16.737-16.737-16.737-43.874 0-60.613 16.737-16.737 43.876-16.737 60.613 0s16.737 43.875 0 60.613z" fill="#a2a9af"/><g fill="#11113f"><path d="m250.221 245.359-138.968 138.967c-4.523 4.523-4.523 11.858 0 16.383 2.262 2.261 5.227 3.393 8.191 3.393s5.929-1.132 8.191-3.393l138.967-138.966c4.523-4.523 4.523-11.858 0-16.382-4.523-4.525-11.858-4.524-16.381-.002z"/><path d="m467.062 44.909c-28.959-28.961-67.463-44.909-108.419-44.909s-79.458 15.948-108.419 44.909c-44.78 44.78-57.271 111.897-32.292 169.414l-214.306 214.313c-2.166 2.166-3.386 5.103-3.393 8.167l-.131 63.45c0 .11.001.221.005.331v.008.005c.079 2.857 1.208 5.69 3.388 7.87 2.208 2.208 5.085 3.337 7.979 3.391h.002.02c.042-.019.119.001.177.001l123.048.141h.014c3.069 0 6.014-1.219 8.186-3.388 2.175-2.173 3.398-5.121 3.398-8.195v-48.264h48.262c6.397 0 11.584-5.186 11.584-11.584l.001-48.264h48.262c6.397 0 11.584-5.186 11.584-11.584v-55.049l31.636-31.636c19.638 8.529 40.387 12.69 60.992 12.689 39.744-.002 78.931-15.49 108.424-44.981 59.779-59.781 59.779-157.054-.002-216.835zm-16.383 200.454c-39.711 39.715-100.113 49.515-150.302 24.39-4.462-2.234-9.851-1.36-13.377 2.167l-40.764 40.764c-2.172 2.172-3.393 5.119-3.393 8.191v48.264h-48.262c-6.397 0-11.584 5.186-11.584 11.584l-.001 48.264h-48.262c-6.397 0-11.584 5.186-11.584 11.584v48.25l-83.531-.096 55.253-55.253c4.523-4.523 4.523-11.858 0-16.382-4.525-4.523-11.857-4.523-16.383 0l-55.163 55.163.064-30.619 216.66-216.668c3.527-3.527 4.401-8.916 2.167-13.376-25.126-50.188-15.324-110.589 24.39-150.301 24.584-24.583 57.27-38.122 92.036-38.122s67.452 13.539 92.036 38.123 38.123 57.269 38.123 92.036-13.539 67.454-38.123 92.037z"/><path d="m351.427 83.548c-21.226 21.228-21.226 55.767 0 76.996 10.614 10.614 24.556 15.919 38.497 15.919 13.942 0 27.884-5.306 38.497-15.921 21.226-21.227 21.226-55.767 0-76.995-21.228-21.225-55.766-21.225-76.994.001zm60.612 60.614c-12.194 12.193-32.036 12.193-44.231 0-12.194-12.194-12.194-32.037 0-44.232 12.194-12.194 32.038-12.193 44.231 0 12.195 12.195 12.195 32.037 0 44.232z"/></g></svg>