<?xml version="1.0" encoding="iso-8859-1"?>
<!-- Generator: Adobe Illustrator 19.0.0, SVG Export Plug-In . SVG Version: 6.00 Build 0)  -->
<svg version="1.1" id="Layer_1" xmlns="http://www.w3.org/2000/svg" xmlns:xlink="http://www.w3.org/1999/xlink" x="0px" y="0px"
	 viewBox="0 0 512 512" style="enable-background:new 0 0 512 512;" xml:space="preserve">
<polygon style="fill:#ADA7A4;" points="383.421,11.584 128.579,11.584 128.579,256 256,279.167 383.421,256 "/>
<rect x="128.579" y="256" style="fill:#7A7674;" width="254.842" height="244.416"/>
<g>
	<rect x="221.249" y="348.67" style="fill:#FFFFFF;" width="69.502" height="46.335"/>
	<rect x="221.249" y="104.253" style="fill:#FFFFFF;" width="69.502" height="46.335"/>
</g>
<g>
	<path style="fill:#11113F;" d="M383.421,0H128.579c-6.397,0-11.584,5.187-11.584,11.584v488.833
		c0,6.397,5.187,11.584,11.584,11.584h254.842c6.397,0,11.584-5.187,11.584-11.584V11.584C395.005,5.187,389.817,0,383.421,0z
		 M371.837,23.167v221.249H140.163V23.167H371.837z M140.163,488.833V267.584h231.674v221.249H140.163z"/>
	<path style="fill:#11113F;" d="M232.833,69.502h46.335c6.397,0,11.584-5.187,11.584-11.584s-5.187-11.584-11.584-11.584h-46.335
		c-6.397,0-11.584,5.187-11.584,11.584S226.436,69.502,232.833,69.502z"/>
	<path style="fill:#11113F;" d="M232.833,313.919h46.335c6.397,0,11.584-5.187,11.584-11.584c0-6.397-5.187-11.584-11.584-11.584
		h-46.335c-6.397,0-11.584,5.187-11.584,11.584C221.249,308.731,226.436,313.919,232.833,313.919z"/>
	<path style="fill:#11113F;" d="M290.751,337.086h-69.502c-6.397,0-11.584,5.187-11.584,11.584v46.335
		c0,6.397,5.187,11.584,11.584,11.584h69.502c6.397,0,11.584-5.187,11.584-11.584V348.67
		C302.335,342.273,297.148,337.086,290.751,337.086z M279.167,383.421h-46.335v-23.167h46.335V383.421z"/>
	<path style="fill:#11113F;" d="M221.249,162.172h69.502c6.397,0,11.584-5.187,11.584-11.584v-46.335
		c0-6.397-5.187-11.584-11.584-11.584h-69.502c-6.397,0-11.584,5.187-11.584,11.584v46.335
		C209.665,156.985,214.852,162.172,221.249,162.172z M232.833,115.837h46.335v23.167h-46.335V115.837z"/>
</g>
<g>
</g>
<g>
</g>
<g>
</g>
<g>
</g>
<g>
</g>
<g>
</g>
<g>
</g>
<g>
</g>
<g>
</g>
<g>
</g>
<g>
</g>
<g>
</g>
<g>
</g>
<g>
</g>
<g>
</g>
</svg>
