<svg enable-background="new 0 0 512 512" viewBox="0 0 512 512" xmlns="http://www.w3.org/2000/svg"><path d="m383.421 11.584h-254.842v244.416l127.421 23.167 127.421-23.167z" fill="#ada7a4"/><path d="m128.579 256h254.842v244.416h-254.842z" fill="#7a7674"/><path d="m221.249 348.67h69.502v46.335h-69.502z" fill="#fff"/><path d="m221.249 104.253h69.502v46.335h-69.502z" fill="#fff"/><g fill="#11113f"><path d="m383.421 0h-254.842c-6.397 0-11.584 5.187-11.584 11.584v488.833c0 6.397 5.187 11.584 11.584 11.584h254.842c6.397 0 11.584-5.187 11.584-11.584v-488.833c0-6.397-5.188-11.584-11.584-11.584zm-11.584 23.167v221.249h-231.674v-221.249zm-231.674 465.666v-221.249h231.674v221.249z"/><path d="m232.833 69.502h46.335c6.397 0 11.584-5.187 11.584-11.584s-5.187-11.584-11.584-11.584h-46.335c-6.397 0-11.584 5.187-11.584 11.584s5.187 11.584 11.584 11.584z"/><path d="m232.833 313.919h46.335c6.397 0 11.584-5.187 11.584-11.584s-5.187-11.584-11.584-11.584h-46.335c-6.397 0-11.584 5.187-11.584 11.584 0 6.396 5.187 11.584 11.584 11.584z"/><path d="m290.751 337.086h-69.502c-6.397 0-11.584 5.187-11.584 11.584v46.335c0 6.397 5.187 11.584 11.584 11.584h69.502c6.397 0 11.584-5.187 11.584-11.584v-46.335c0-6.397-5.187-11.584-11.584-11.584zm-11.584 46.335h-46.335v-23.167h46.335z"/><path d="m221.249 162.172h69.502c6.397 0 11.584-5.187 11.584-11.584v-46.335c0-6.397-5.187-11.584-11.584-11.584h-69.502c-6.397 0-11.584 5.187-11.584 11.584v46.335c0 6.397 5.187 11.584 11.584 11.584zm11.584-46.335h46.335v23.167h-46.335z"/></g></svg>