<?xml version="1.0" encoding="iso-8859-1"?>
<!-- Generator: Adobe Illustrator 19.0.0, SVG Export Plug-In . SVG Version: 6.00 Build 0)  -->
<svg version="1.1" id="Layer_1" xmlns="http://www.w3.org/2000/svg" xmlns:xlink="http://www.w3.org/1999/xlink" x="0px" y="0px"
	 viewBox="0 0 512.003 512.003" style="enable-background:new 0 0 512.003 512.003;" xml:space="preserve">
<polygon style="fill:#181818;" points="301.352,409.275 260.089,409.261 248.259,500.418 312.022,500.418 "/>
<path style="fill:#269AF2;" d="M281.266,45.728c-86.686,0-157.211,70.525-157.211,157.211s70.525,157.21,157.211,157.21
	s157.211-70.523,157.211-157.21S367.952,45.728,281.266,45.728z"/>
<g>
	<path style="fill:#11113F;" d="M281.266,34.647c-92.796,0-168.292,75.496-168.292,168.292s75.495,168.292,168.292,168.292
		s168.292-75.495,168.292-168.292S374.063,34.647,281.266,34.647z M281.266,348.063c-80.022,0-145.124-65.102-145.124-145.124
		S201.244,57.815,281.266,57.815s145.124,65.102,145.124,145.124S361.288,348.063,281.266,348.063z"/>
	<path style="fill:#11113F;" d="M388.316,488.832h-66.387l-9.061-69.466c17.521-2.558,35.007-7.299,52.09-14.375
		c5.911-2.448,8.717-9.224,6.269-15.134c-2.449-5.911-9.224-8.718-15.135-6.269c-99.608,41.26-214.218-6.211-255.477-105.821
		c-19.988-48.254-19.988-101.402-0.001-149.656c19.988-48.253,57.569-85.835,105.822-105.822c5.911-2.449,8.717-9.224,6.269-15.135
		c-2.449-5.911-9.224-8.717-15.135-6.269c-53.969,22.356-96.003,64.391-118.359,118.362c-22.355,53.97-22.355,113.417,0,167.387
		c30.501,73.634,96.821,121.794,170.46,132.667l-9.07,69.534h-66.386c-6.396,0-11.584,5.186-11.584,11.584
		c0,6.398,5.187,11.584,11.584,11.584h76.553c0.006,0,0.012,0.001,0.017,0.001c0.008,0,0.016-0.001,0.024-0.001h60.908
		c0.008,0,0.016,0.001,0.024,0.001c0.006,0,0.012-0.001,0.017-0.001h76.554c6.396,0,11.584-5.186,11.584-11.584
		C399.898,494.021,394.713,488.832,388.316,488.832z M263.966,488.832l8.787-67.374c2.927,0.118,5.859,0.183,8.798,0.183
		c2.738,0,5.483-0.067,8.229-0.171l8.786,67.362H263.966z"/>
</g>
<g>
</g>
<g>
</g>
<g>
</g>
<g>
</g>
<g>
</g>
<g>
</g>
<g>
</g>
<g>
</g>
<g>
</g>
<g>
</g>
<g>
</g>
<g>
</g>
<g>
</g>
<g>
</g>
<g>
</g>
</svg>
