<svg enable-background="new 0 0 512.003 512.003" viewBox="0 0 512.003 512.003" xmlns="http://www.w3.org/2000/svg"><path d="m301.352 409.275-41.263-.014-11.83 91.157h63.763z" fill="#181818"/><path d="m281.266 45.728c-86.686 0-157.211 70.525-157.211 157.211s70.525 157.21 157.211 157.21 157.211-70.523 157.211-157.21-70.525-157.211-157.211-157.211z" fill="#269af2"/><g fill="#11113f"><path d="m281.266 34.647c-92.796 0-168.292 75.496-168.292 168.292s75.495 168.292 168.292 168.292 168.292-75.495 168.292-168.292-75.495-168.292-168.292-168.292zm0 313.416c-80.022 0-145.124-65.102-145.124-145.124s65.102-145.124 145.124-145.124 145.124 65.102 145.124 145.124-65.102 145.124-145.124 145.124z"/><path d="m388.316 488.832h-66.387l-9.061-69.466c17.521-2.558 35.007-7.299 52.09-14.375 5.911-2.448 8.717-9.224 6.269-15.134-2.449-5.911-9.224-8.718-15.135-6.269-99.608 41.26-214.218-6.211-255.477-105.821-19.988-48.254-19.988-101.402-.001-149.656 19.988-48.253 57.569-85.835 105.822-105.822 5.911-2.449 8.717-9.224 6.269-15.135-2.449-5.911-9.224-8.717-15.135-6.269-53.969 22.356-96.003 64.391-118.359 118.362-22.355 53.97-22.355 113.417 0 167.387 30.501 73.634 96.821 121.794 170.46 132.667l-9.07 69.534h-66.386c-6.396 0-11.584 5.186-11.584 11.584s5.187 11.584 11.584 11.584h76.553c.006 0 .012.001.017.001.008 0 .016-.001.024-.001h60.908c.008 0 .016.001.024.001.006 0 .012-.001.017-.001h76.554c6.396 0 11.584-5.186 11.584-11.584.002-6.398-5.183-11.587-11.58-11.587zm-124.35 0 8.787-67.374c2.927.118 5.859.183 8.798.183 2.738 0 5.483-.067 8.229-.171l8.786 67.362z"/></g></svg>