<svg enable-background="new 0 0 512 512" viewBox="0 0 512 512" xmlns="http://www.w3.org/2000/svg"><path d="m128.579 11.584c-25.484 0-46.335 20.851-46.335 46.335v369.52l57.919-25.098v-390.757z" fill="#c21b23"/><path d="m325.502 8.109h-185.339v400.023l185.339-.395 104.254-112.655v-180.248z" fill="#ee3840"/><path d="m429.756 406.588v-104.253l-104.254 104.253z" fill="#ffb14d"/><path d="m325.502 10.425 104.254 104.254v-104.254z" fill="#ffb14d"/><path d="m128.579 407.747c-25.484 0-46.335 20.851-46.335 46.335s20.851 46.335 46.335 46.335h283.063v-92.67z" fill="#ebedec"/><path d="m441.339 303.487v-187.644-.012-104.247c0-6.397-5.187-11.584-11.583-11.584h-301.177c-31.936 0-57.918 25.982-57.918 57.919v396.163c0 31.936 25.982 57.919 57.919 57.919h301.176c6.397 0 11.584-5.187 11.584-11.584s-5.187-11.584-11.584-11.584h-6.531v-69.503h6.531c6.397 0 11.584-5.187 11.584-11.584v-104.247-.012zm-23.167 92.676h-64.703l64.703-64.703zm0-308.292-64.703-64.703h64.703zm-324.344-29.952c0-19.162 15.589-34.751 34.751-34.751v275.564c0 6.397 5.187 11.584 11.584 11.584s11.584-5.187 11.584-11.584v-275.565h168.957l97.469 97.469v178.059l-97.469 97.468h-168.957v-57.919c0-6.397-5.187-11.584-11.584-11.584s-11.584 5.187-11.584 11.584v57.919c-13.027 0-25.065 4.324-34.751 11.61zm306.229 430.914h-271.478c-19.162 0-34.751-15.589-34.751-34.751s15.589-34.751 34.751-34.751h271.478z" fill="#11113f"/></svg>