<svg enable-background="new 0 0 512 512" viewBox="0 0 512 512" xmlns="http://www.w3.org/2000/svg"><path d="m312.837 177.341-301.251 189.697 187.577 106.623 120.501-75.88 23.168-37.938h37.082l120.501-75.879z" fill="#181818"/><path d="m312.837 131.007-301.251 189.697 187.577 106.622 301.252-189.697z" fill="#1f5985"/><path d="m312.837 84.672-301.251 189.697 187.577 106.623 301.252-189.697z" fill="#269af2"/><path d="m312.837 38.338-120.5 75.878v37.94h-60.251l-120.5 75.879 187.577 106.622 301.252-189.697z" fill="#bec8d6"/><path d="m192.336 114.216-60.25 37.94 187.578 106.623 30.126 4.621 30.124-42.561z" fill="#e6e2e0"/><path d="m319.664 258.779v139.003l60.25-37.939v-139.004z" fill="#ccc4c1"/><g fill="#11113f"><path d="m391.408 219.481c-.012-.095-.019-.191-.032-.285-.067-.468-.156-.935-.283-1.396-.001-.005-.003-.009-.005-.015-.118-.431-.269-.856-.439-1.277-.049-.12-.102-.236-.154-.354-.134-.303-.284-.602-.446-.897-.071-.129-.139-.257-.215-.383-.041-.068-.073-.139-.116-.207-.171-.272-.359-.528-.549-.782-.036-.048-.065-.097-.101-.144-.29-.375-.602-.724-.93-1.054-.061-.063-.129-.12-.192-.181-.285-.275-.58-.532-.888-.774-.079-.061-.155-.123-.236-.182-.412-.306-.837-.591-1.281-.838l-170.656-97.005 98.258-61.873 164.727 93.633-69.376 43.685c-5.414 3.408-7.039 10.561-3.63 15.974 3.408 5.414 10.56 7.039 15.974 3.63l85.749-53.995c3.447-2.17 5.501-5.991 5.408-10.064-.092-4.073-2.314-7.796-5.857-9.809l-187.578-106.62c-3.71-2.111-8.282-2.006-11.896.268l-120.419 75.828c-.024.015-.05.031-.074.046l-60.174 37.891c-.028.017-.056.035-.082.052l-120.501 75.88c-3.447 2.17-5.501 5.991-5.408 10.064.092 4.073 2.314 7.796 5.857 9.809l187.578 106.623c1.777 1.011 3.751 1.514 5.723 1.514 2.146 0 4.289-.597 6.172-1.782l85.749-53.996c5.414-3.408 7.039-10.561 3.63-15.974-3.407-5.414-10.561-7.041-15.974-3.63l-79.882 50.301-164.727-93.636 98.259-61.874 175.689 99.865v132.264c0 4.219 2.292 8.103 5.985 10.141 1.746.964 3.673 1.442 5.598 1.442 2.148 0 4.291-.597 6.172-1.782l60.251-37.94c3.369-2.121 5.412-5.822 5.412-9.802v-139.002c0-.068-.012-.133-.014-.202-.006-.384-.031-.769-.076-1.155zm-60.16 157.319v-118.021c0-4.167-2.238-8.011-5.86-10.07l-170.755-97.06 38.009-23.935 164.726 93.634-14.423 9.082c-5.414 3.408-7.039 10.561-3.63 15.974 2.201 3.498 5.964 5.413 9.814 5.413 2.108 0 4.244-.576 6.16-1.783l13.042-8.212v111.627z"/><path d="m494.244 181.493-85.749 53.995c-5.414 3.408-7.039 10.561-3.63 15.974 2.201 3.498 5.964 5.413 9.814 5.413 2.108 0 4.244-.576 6.16-1.783l85.749-53.995c5.414-3.408 7.039-10.561 3.63-15.974-3.408-5.414-10.561-7.04-15.974-3.63z"/><path d="m278.741 317.194-79.882 50.301-181.549-103.195c-5.558-3.16-12.633-1.219-15.794 4.346-3.161 5.561-1.216 12.633 4.346 15.794l187.578 106.623c1.777 1.011 3.751 1.514 5.723 1.514 2.146 0 4.289-.597 6.172-1.782l85.749-53.996c5.414-3.408 7.039-10.561 3.63-15.974-3.406-5.415-10.56-7.041-15.973-3.631z"/><path d="m494.244 227.827-85.749 53.995c-5.414 3.408-7.039 10.561-3.63 15.974 2.201 3.498 5.964 5.413 9.814 5.413 2.108 0 4.244-.576 6.16-1.783l85.749-53.995c5.414-3.408 7.039-10.561 3.63-15.974-3.408-5.415-10.561-7.04-15.974-3.63z"/><path d="m278.741 363.528-79.882 50.301-181.549-103.195c-5.558-3.16-12.633-1.219-15.794 4.346-3.161 5.561-1.216 12.633 4.346 15.794l187.578 106.623c1.777 1.011 3.751 1.514 5.723 1.514 2.146 0 4.289-.597 6.172-1.782l85.749-53.996c5.414-3.408 7.039-10.561 3.63-15.974-3.406-5.416-10.56-7.041-15.973-3.631z"/><path d="m494.244 274.162-85.749 53.995c-5.414 3.408-7.039 10.561-3.63 15.974 2.201 3.498 5.964 5.413 9.814 5.413 2.108 0 4.244-.576 6.16-1.783l85.749-53.995c5.414-3.408 7.039-10.561 3.63-15.974-3.408-5.414-10.561-7.039-15.974-3.63z"/><path d="m278.741 409.863-79.882 50.301-181.549-103.195c-5.558-3.16-12.633-1.219-15.794 4.346-3.161 5.561-1.216 12.633 4.346 15.794l187.578 106.623c1.777 1.011 3.751 1.514 5.723 1.514 2.146 0 4.289-.597 6.172-1.782l85.749-53.996c5.414-3.408 7.039-10.561 3.63-15.974-3.406-5.415-10.56-7.041-15.973-3.631z"/></g></svg>