<svg enable-background="new 0 0 512 512" viewBox="0 0 512 512" xmlns="http://www.w3.org/2000/svg"><path d="m442.498 11.584h-372.996v488.832h185.34l55.022-46.335 55.023 46.335h77.611z" fill="#4c5870"/><path d="m119.312 61.394h57.919v75.294h-57.919z" fill="#ffb14d"/><path d="m227.041 61.394h57.919v75.294h-57.919z" fill="#ff8c00"/><path d="m334.769 61.394h57.919v75.294h-57.919z" fill="#ff8c00"/><path d="m119.312 186.498h57.919v75.294h-57.919z" fill="#ff8c00"/><path d="m227.041 186.498h57.919v75.294h-57.919z" fill="#ffb14d"/><path d="m334.769 186.498h57.919v75.294h-57.919z" fill="#ffb14d"/><path d="m263.529 311.602h92.67v188.814h-92.67z" fill="#181818"/><path d="m119.312 311.602h57.919v75.294h-57.919z" fill="#ffb14d"/><g fill="#11113f"><path d="m442.498 0h-372.996c-6.398 0-11.584 5.186-11.584 11.584v488.833c0 6.398 5.186 11.584 11.584 11.584h372.995c6.398 0 11.584-5.186 11.584-11.584v-488.833c0-6.398-5.186-11.584-11.583-11.584zm-100.779 488.833h-63.71v-165.647h63.71zm89.195 0h-66.027v-177.231c0-6.398-5.186-11.584-11.584-11.584h-86.878c-6.398 0-11.584 5.186-11.584 11.584v177.231h-173.755v-465.666h349.828z"/><path d="m119.312 148.271h57.919c6.398 0 11.584-5.186 11.584-11.584v-75.293c0-6.398-5.186-11.584-11.584-11.584h-57.919c-6.398 0-11.584 5.186-11.584 11.584v75.294c.001 6.397 5.187 11.583 11.584 11.583zm11.584-75.294h34.751v52.127h-34.751z"/><path d="m227.041 148.271h57.919c6.398 0 11.584-5.186 11.584-11.584v-75.293c0-6.398-5.186-11.584-11.584-11.584h-57.919c-6.398 0-11.584 5.186-11.584 11.584v75.294c0 6.397 5.186 11.583 11.584 11.583zm11.583-75.294h34.751v52.127h-34.751z"/><path d="m334.769 148.271h57.919c6.398 0 11.584-5.186 11.584-11.584v-75.293c0-6.398-5.186-11.584-11.584-11.584h-57.919c-6.398 0-11.584 5.186-11.584 11.584v75.294c.001 6.397 5.187 11.583 11.584 11.583zm11.584-75.294h34.751v52.127h-34.751z"/><path d="m119.312 273.376h57.919c6.398 0 11.584-5.186 11.584-11.584v-75.294c0-6.398-5.186-11.584-11.584-11.584h-57.919c-6.398 0-11.584 5.186-11.584 11.584v75.294c.001 6.398 5.187 11.584 11.584 11.584zm11.584-75.295h34.751v52.127h-34.751z"/><path d="m227.041 273.376h57.919c6.398 0 11.584-5.186 11.584-11.584v-75.294c0-6.398-5.186-11.584-11.584-11.584h-57.919c-6.398 0-11.584 5.186-11.584 11.584v75.294c0 6.398 5.186 11.584 11.584 11.584zm11.583-75.295h34.751v52.127h-34.751z"/><path d="m334.769 273.376h57.919c6.398 0 11.584-5.186 11.584-11.584v-75.294c0-6.398-5.186-11.584-11.584-11.584h-57.919c-6.398 0-11.584 5.186-11.584 11.584v75.294c.001 6.398 5.187 11.584 11.584 11.584zm11.584-75.295h34.751v52.127h-34.751z"/><path d="m119.312 398.48h57.919c6.398 0 11.584-5.186 11.584-11.584v-75.294c0-6.398-5.186-11.584-11.584-11.584h-57.919c-6.398 0-11.584 5.186-11.584 11.584v75.294c.001 6.398 5.187 11.584 11.584 11.584zm11.584-75.294h34.751v52.127h-34.751z"/></g></svg>