<?xml version="1.0" encoding="iso-8859-1"?>
<!-- Generator: Adobe Illustrator 19.0.0, SVG Export Plug-In . SVG Version: 6.00 Build 0)  -->
<svg version="1.1" id="Layer_1" xmlns="http://www.w3.org/2000/svg" xmlns:xlink="http://www.w3.org/1999/xlink" x="0px" y="0px"
	 viewBox="0 0 512 512" style="enable-background:new 0 0 512 512;" xml:space="preserve">
<polygon style="fill:#4C5870;" points="442.498,11.584 69.502,11.584 69.502,500.416 254.842,500.416 309.864,454.081 
	364.887,500.416 442.498,500.416 "/>
<rect x="119.312" y="61.394" style="fill:#FFB14D;" width="57.919" height="75.294"/>
<g>
	<rect x="227.041" y="61.394" style="fill:#FF8C00;" width="57.919" height="75.294"/>
	<rect x="334.769" y="61.394" style="fill:#FF8C00;" width="57.919" height="75.294"/>
	<rect x="119.312" y="186.498" style="fill:#FF8C00;" width="57.919" height="75.294"/>
</g>
<g>
	<rect x="227.041" y="186.498" style="fill:#FFB14D;" width="57.919" height="75.294"/>
	<rect x="334.769" y="186.498" style="fill:#FFB14D;" width="57.919" height="75.294"/>
</g>
<rect x="263.529" y="311.602" style="fill:#181818;" width="92.67" height="188.814"/>
<rect x="119.312" y="311.602" style="fill:#FFB14D;" width="57.919" height="75.294"/>
<g>
	<path style="fill:#11113F;" d="M442.498,0H69.502c-6.398,0-11.584,5.186-11.584,11.584v488.833c0,6.398,5.186,11.584,11.584,11.584
		h372.995c6.398,0,11.584-5.186,11.584-11.584V11.584C454.081,5.186,448.895,0,442.498,0z M341.719,488.833h-63.71V323.186h63.71
		V488.833z M430.914,488.833h-66.027V311.602c0-6.398-5.186-11.584-11.584-11.584h-86.878c-6.398,0-11.584,5.186-11.584,11.584
		v177.231H81.086V23.167h349.828V488.833z"/>
	<path style="fill:#11113F;" d="M119.312,148.271h57.919c6.398,0,11.584-5.186,11.584-11.584V61.394
		c0-6.398-5.186-11.584-11.584-11.584h-57.919c-6.398,0-11.584,5.186-11.584,11.584v75.294
		C107.729,143.085,112.915,148.271,119.312,148.271z M130.896,72.977h34.751v52.127h-34.751V72.977z"/>
	<path style="fill:#11113F;" d="M227.041,148.271h57.919c6.398,0,11.584-5.186,11.584-11.584V61.394
		c0-6.398-5.186-11.584-11.584-11.584h-57.919c-6.398,0-11.584,5.186-11.584,11.584v75.294
		C215.457,143.085,220.643,148.271,227.041,148.271z M238.624,72.977h34.751v52.127h-34.751V72.977z"/>
	<path style="fill:#11113F;" d="M334.769,148.271h57.919c6.398,0,11.584-5.186,11.584-11.584V61.394
		c0-6.398-5.186-11.584-11.584-11.584h-57.919c-6.398,0-11.584,5.186-11.584,11.584v75.294
		C323.186,143.085,328.372,148.271,334.769,148.271z M346.353,72.977h34.751v52.127h-34.751V72.977z"/>
	<path style="fill:#11113F;" d="M119.312,273.376h57.919c6.398,0,11.584-5.186,11.584-11.584v-75.294
		c0-6.398-5.186-11.584-11.584-11.584h-57.919c-6.398,0-11.584,5.186-11.584,11.584v75.294
		C107.729,268.19,112.915,273.376,119.312,273.376z M130.896,198.081h34.751v52.127h-34.751V198.081z"/>
	<path style="fill:#11113F;" d="M227.041,273.376h57.919c6.398,0,11.584-5.186,11.584-11.584v-75.294
		c0-6.398-5.186-11.584-11.584-11.584h-57.919c-6.398,0-11.584,5.186-11.584,11.584v75.294
		C215.457,268.19,220.643,273.376,227.041,273.376z M238.624,198.081h34.751v52.127h-34.751V198.081z"/>
	<path style="fill:#11113F;" d="M334.769,273.376h57.919c6.398,0,11.584-5.186,11.584-11.584v-75.294
		c0-6.398-5.186-11.584-11.584-11.584h-57.919c-6.398,0-11.584,5.186-11.584,11.584v75.294
		C323.186,268.19,328.372,273.376,334.769,273.376z M346.353,198.081h34.751v52.127h-34.751V198.081z"/>
	<path style="fill:#11113F;" d="M119.312,398.48h57.919c6.398,0,11.584-5.186,11.584-11.584v-75.294
		c0-6.398-5.186-11.584-11.584-11.584h-57.919c-6.398,0-11.584,5.186-11.584,11.584v75.294
		C107.729,393.294,112.915,398.48,119.312,398.48z M130.896,323.186h34.751v52.127h-34.751V323.186z"/>
</g>
<g>
</g>
<g>
</g>
<g>
</g>
<g>
</g>
<g>
</g>
<g>
</g>
<g>
</g>
<g>
</g>
<g>
</g>
<g>
</g>
<g>
</g>
<g>
</g>
<g>
</g>
<g>
</g>
<g>
</g>
</svg>
