<svg enable-background="new 0 0 512 512" viewBox="0 0 512 512" xmlns="http://www.w3.org/2000/svg"><path d="m266.828 238.651-89.125-227.067h50.045l144.457 227.067z" fill="#7a7674"/><path d="m487.009 259.036-13.9-6.687-6.439-13.637c-18.467-13.187-46.688-23.231-89.544-23.231-136.228 0-313.751 0-313.751 0l-19.822-50.807h-31.969v132.109h246.047l-79.928 203.635h50.045c20.589-35.357 125.031-196.664 129.545-203.635h143.123c0-6.895-2.521-22.231-13.407-37.747z" fill="#ada7a4"/><g fill="#11113f"><path d="m488.023 242.002c-23.832-25.286-61.145-38.106-110.898-38.106h-13.361c-3.803-5.879-10.542-16.302-19.023-29.45-33.608-52.103-92.2-143.305-106.982-168.691-2.074-3.563-5.887-5.755-10.011-5.755h-50.045c-3.831 0-7.414 1.894-9.572 5.059-2.157 3.165-2.611 7.191-1.212 10.757l66.391 169.149c2.338 5.955 9.06 8.888 15.015 6.551 5.955-2.338 8.888-9.06 6.551-15.015l-60.182-153.334h26.461c19.046 31.624 72.566 114.923 104.118 163.838 4.083 6.329 7.76 12.025 10.904 16.891h-264.887l-16.946-43.434c-1.735-4.446-6.019-7.373-10.791-7.373h-31.969c-6.398 0-11.584 5.187-11.584 11.584v132.11c0 6.397 5.186 11.584 11.584 11.584h229.056l-73.719 187.818c-1.399 3.565-.945 7.592 1.212 10.757s5.741 5.059 9.57 5.059h50.045c4.124 0 7.936-2.192 10.011-5.755 18.687-32.09 106.937-168.669 125.836-197.88h136.821c6.398 0 11.584-5.187 11.584-11.584 0-13.536-6.28-36.005-23.977-54.78zm-130.728 43.196c-3.928 0-7.587 1.99-9.723 5.286-4.236 6.541-99.557 153.753-126.417 198.348h-26.462l73.72-187.819c1.399-3.565.945-7.592-1.212-10.757s-5.741-5.059-9.57-5.059h-234.464v-108.943h12.471l16.946 43.434c1.735 4.446 6.019 7.373 10.791 7.373h294.081c.006 0 .013.001.019.001s.01-.001.016-.001h19.634c38.246 0 63.394 8.281 79.936 19.134-.468 1.258-.737 2.613-.737 4.033 0 6.397 5.186 11.584 11.584 11.584h6.604c6.839 8.447 10.415 16.903 12.282 23.384h-129.5v.002z"/><path d="m189.9 238.648h-11.584c-6.398 0-11.584 5.187-11.584 11.584s5.186 11.584 11.584 11.584h11.584c6.398 0 11.584-5.187 11.584-11.584s-5.188-11.584-11.584-11.584z"/><path d="m131.981 238.648h-11.584c-6.398 0-11.584 5.187-11.584 11.584s5.186 11.584 11.584 11.584h11.584c6.398 0 11.584-5.187 11.584-11.584s-5.187-11.584-11.584-11.584z"/><path d="m247.818 238.648h-11.584c-6.398 0-11.584 5.187-11.584 11.584s5.186 11.584 11.584 11.584h11.584c6.398 0 11.584-5.187 11.584-11.584s-5.187-11.584-11.584-11.584z"/><path d="m421.574 238.648h-11.584c-6.398 0-11.584 5.187-11.584 11.584s5.186 11.584 11.584 11.584h11.584c6.398 0 11.584-5.187 11.584-11.584s-5.187-11.584-11.584-11.584z"/><path d="m363.656 238.648h-11.584c-6.398 0-11.584 5.187-11.584 11.584s5.186 11.584 11.584 11.584h11.584c6.398 0 11.584-5.187 11.584-11.584-.001-6.397-5.188-11.584-11.584-11.584z"/><path d="m305.737 238.648h-11.584c-6.398 0-11.584 5.187-11.584 11.584s5.186 11.584 11.584 11.584h11.584c6.398 0 11.584-5.187 11.584-11.584s-5.187-11.584-11.584-11.584z"/></g></svg>