<?xml version="1.0" encoding="iso-8859-1"?>
<!-- Generator: Adobe Illustrator 19.0.0, SVG Export Plug-In . SVG Version: 6.00 Build 0)  -->
<svg version="1.1" id="Layer_1" xmlns="http://www.w3.org/2000/svg" xmlns:xlink="http://www.w3.org/1999/xlink" x="0px" y="0px"
	 viewBox="0 0 512 512" style="enable-background:new 0 0 512 512;" xml:space="preserve">
<path style="fill:#FF8C00;" d="M450.787,196.562c11.454,0,20.741,9.286,20.741,20.752c0,11.454-9.286,20.752-20.741,20.752
	l-134.703,11.175l22.35-52.679H450.787z"/>
<path style="fill:#FF9E24;" d="M480.077,238.066c11.454,0,20.752,9.286,20.752,20.741c0,11.465-9.298,20.752-20.752,20.752h-29.29
	l-134.703,22.35v-63.843h134.703H480.077z"/>
<path style="fill:#FF8C00;" d="M450.787,279.558c11.454,0,20.741,9.298,20.741,20.752c0,11.466-9.286,20.752-20.741,20.752h-29.301
	l-105.402,22.35v-63.854L450.787,279.558L450.787,279.558z"/>
<path style="fill:#FF9E24;" d="M421.486,321.062c11.466,0,20.752,9.286,20.752,20.752c0,11.454-9.286,20.741-20.752,20.741
	c0,0-39.749,0-83.052,0l-22.35-41.493H421.486z"/>
<path style="fill:#FFB14D;" d="M293.734,196.562l-189.371,82.974v48.846H167.3c15.254,20.92,39.928,34.173,67.799,34.173h103.335
	V196.562H293.734z"/>
<path style="fill:#FF8C00;" d="M357.275,138.05c0.693,11.432-8.024,21.266-19.467,21.959c-38.073,2.313-69.687,14.572-94.585,36.553
	h50.511c0,45.817-37.134,82.974-82.941,82.974h-106.43v-48.801H167.3c33.19-68.715,91.21-107.492,168.004-112.152
	C346.737,117.89,356.582,126.606,357.275,138.05z"/>
<rect x="11.175" y="175.437" style="fill:#181818;" width="39.99" height="218.024"/>
<rect x="51.165" y="196.568" style="fill:#4C5870;" width="75.554" height="175.76"/>
<g>
	<path style="fill:#11113F;" d="M512,258.812c0-17.215-13.697-31.291-30.766-31.903c0.957-3.03,1.473-6.253,1.473-9.595
		c0-17.603-14.321-31.925-31.925-31.925H280.275c17.112-8.147,36.58-12.913,58.215-14.223c8.512-0.515,16.313-4.315,21.967-10.699
		c5.653-6.384,8.484-14.587,7.968-23.098c-0.516-8.512-4.316-16.313-10.699-21.968c-6.384-5.655-14.588-8.489-23.099-7.968
		c-78.614,4.764-138.711,43.488-174.232,112.13h-22.506v-23c0-6.172-5.003-11.175-11.175-11.175H62.34v-9.956
		c0-6.172-5.003-11.175-11.175-11.175h-39.99C5.003,164.257,0,169.26,0,175.432c0,6.172,5.003,11.175,11.175,11.175H39.99v195.67
		H11.175C5.003,382.277,0,387.28,0,393.452c0,6.172,5.003,11.175,11.175,11.175h39.99c6.172,0,11.175-5.003,11.175-11.175v-9.956
		h64.373c6.172,0,11.175-5.003,11.175-11.175v-32.765h23.956c17.846,21.5,44.81,34.175,73.26,34.175h186.387
		c17.603,0,31.925-14.321,31.925-31.925c0-3.341-0.516-6.565-1.473-9.595c17.069-0.611,30.766-14.688,30.766-31.903
		c0-3.341-0.516-6.565-1.473-9.595C498.303,290.104,512,276.027,512,258.812z M115.538,361.149H62.34v-153.41h53.198V361.149z
		 M480.077,268.387h-29.293h-117.14c-6.172,0-11.175,5.003-11.175,11.175c0,6.172,5.003,11.175,11.175,11.175h117.14
		c5.279,0,9.575,4.296,9.575,9.575s-4.296,9.574-9.575,9.574h-29.293H313.425c-6.172,0-11.175,5.003-11.175,11.175
		c0,6.172,5.003,11.175,11.175,11.175h108.065c5.279,0,9.575,4.296,9.575,9.575s-4.296,9.575-9.575,9.575H235.103
		c-23.648,0-45.07-10.782-58.771-29.582c-2.103-2.887-5.46-4.593-9.032-4.593h-29.412v-75.295h29.411
		c4.288,0,8.197-2.453,10.062-6.314c31.33-64.862,86.179-101.466,158.616-105.857c2.559-0.155,5.013,0.694,6.927,2.39
		c1.914,1.696,3.054,4.035,3.208,6.589c0.155,2.552-0.694,5.012-2.389,6.927c-1.695,1.915-4.035,3.054-6.589,3.209
		c-40.442,2.451-74.528,15.683-101.312,39.329c-3.483,3.075-4.7,7.986-3.055,12.332c1.644,4.346,5.805,7.221,10.452,7.221h38.465
		c-5.382,34.299-35.122,60.622-70.897,60.622c-6.172,0-11.175,5.003-11.175,11.175c0,6.172,5.003,11.175,11.175,11.175
		c48.117,0,87.891-36.311,93.436-82.972h146.557c5.279,0,9.575,4.296,9.575,9.575s-4.296,9.574-9.575,9.574H323.532
		c-6.172,0-11.175,5.003-11.175,11.175c0,6.172,5.003,11.175,11.175,11.175h127.249h29.295c5.279,0,9.574,4.296,9.574,9.575
		C489.65,264.093,485.356,268.387,480.077,268.387z"/>
	<circle style="fill:#11113F;" cx="88.942" cy="328.388" r="11.175"/>
</g>
<g>
</g>
<g>
</g>
<g>
</g>
<g>
</g>
<g>
</g>
<g>
</g>
<g>
</g>
<g>
</g>
<g>
</g>
<g>
</g>
<g>
</g>
<g>
</g>
<g>
</g>
<g>
</g>
<g>
</g>
</svg>
