<svg enable-background="new 0 0 512.002 512.002" viewBox="0 0 512.002 512.002" xmlns="http://www.w3.org/2000/svg"><path d="m312.207 223.304-55.823 71.634-26.896-58.518c51.632-51.632 118.941-118.941 118.941-118.941 9.613-9.613 30.73-13.106 40.337-3.501 9.613 9.613 4.079 28.688-5.535 38.301z" fill="#ffb14d"/><path d="m322.445 282.669-31.259 47.07-42.707-42.707 63.728-63.728c9.613-9.613 29.259-15.695 38.864-6.089 9.613 9.613 5.55 31.277-4.064 40.89z" fill="#ff9e24"/><path d="m342.05 332.664-16.064 31.876-42.707-42.707 39.165-39.165c9.613-9.613 29.668-14.077 39.273-4.472 9.613 9.613 5.141 29.659-4.472 39.273z" fill="#ff8c00"/><path d="m376.852 367.465s-3.107 3.107-8.158 8.158l-50.612-18.99 23.97-23.97c9.613-9.613 29.338-19.675 42.627-4.472 8.947 10.236 1.786 29.661-7.827 39.274z" fill="#ff9e24"/><path d="m229.489 236.42-55.372 55.372c-23.369 23.369-32.959 55.19-28.2 85.517l-129.068 129.068h163.775l47.181-47.181c30.335 4.767 62.147-4.83 85.516-28.2l55.372-55.372z" fill="#ffb14d"/><g fill="#11113f"><path d="m377.249 310.853c6.894-13.456 4.716-30.397-6.536-41.65-3.356-3.355-7.219-5.904-11.344-7.646l1.107-1.107c6.76-6.76 10.482-15.748 10.482-25.307 0-9.56-3.722-18.548-10.482-25.308-3.308-3.307-7.149-5.889-11.329-7.661l47.55-47.55c6.76-6.76 10.483-15.748 10.483-25.308 0-9.559-3.723-18.547-10.483-25.307-13.953-13.953-36.659-13.953-50.614 0l-174.313 174.314c-24.026 24.026-35.547 56.333-32.09 89.412l-125.177 125.178c-4.366 4.366-4.366 11.445 0 15.812 4.367 4.365 11.444 4.365 15.812 0l129.069-129.069c2.527-2.527 3.693-6.109 3.139-9.639-4.379-27.919 4.755-55.577 25.061-75.881l174.313-174.313c2.537-2.537 5.908-3.933 9.494-3.933s6.959 1.396 9.494 3.933c5.237 5.236 5.237 13.755 0 18.99l-106.711 106.713c-4.366 4.366-4.366 11.445 0 15.812 4.367 4.365 11.444 4.365 15.812 0l35.662-35.662c.009-.01.019-.019.027-.027 5.235-5.237 13.755-5.237 18.989 0 2.537 2.537 3.933 5.908 3.933 9.495s-1.396 6.959-3.933 9.494l-24.392 24.393c-.058.057-.116.114-.173.171-.032.032-.065.066-.096.098l-17.141 17.139c-4.366 4.366-4.366 11.445 0 15.812 4.367 4.365 11.444 4.365 15.812 0l17.342-17.342c2.525-2.471 5.852-3.829 9.39-3.829 3.587 0 6.959 1.396 9.494 3.933 2.536 2.537 3.934 5.908 3.934 9.495s-1.398 6.959-3.934 9.494l-15.095 15.095c-.034.034-.067.067-.101.099-.019.019-.037.037-.056.056l-8.1 8.1c-4.366 4.366-4.366 11.445 0 15.812 4.366 4.365 11.443 4.366 15.812 0l8.218-8.219c2.53-2.497 5.876-3.872 9.434-3.872 3.588 0 6.96 1.398 9.496 3.934 2.536 2.537 3.933 5.908 3.933 9.494s-1.396 6.959-3.933 9.494l-63.529 63.529c-20.306 20.305-47.965 29.437-75.882 25.062-3.535-.552-7.112.614-9.639 3.139l-47.182 47.182c-4.366 4.366-4.366 11.445 0 15.812 2.184 2.182 5.045 3.275 7.906 3.275s5.722-1.092 7.906-3.275l43.292-43.293c33.083 3.455 65.386-8.065 89.413-32.091l63.529-63.529c6.76-6.76 10.482-15.748 10.482-25.307s-3.722-18.547-10.482-25.307c-3.765-3.755-8.217-6.576-13.073-8.339z"/><path d="m462.878 37.833c-50.443-50.443-132.522-50.445-182.971 0-30.439 30.439-43.72 73.872-35.526 116.187 1.174 6.062 7.036 10.032 13.101 8.85 6.063-1.174 10.025-7.039 8.852-13.101-6.779-35.011 4.207-70.945 29.385-96.124 41.727-41.727 109.623-41.725 151.348 0 20.213 20.213 31.345 47.087 31.345 75.673s-11.132 55.46-31.345 75.674c-14.033 14.034-31.597 23.865-50.794 28.431-6.007 1.429-9.718 7.457-8.289 13.465 1.222 5.137 5.807 8.595 10.867 8.595.858 0 1.727-.098 2.597-.305 23.226-5.524 44.468-17.41 61.43-34.372 24.436-24.436 37.895-56.927 37.895-91.486-.001-34.56-13.459-67.051-37.895-91.487z"/><path d="m410.363 184.1c2.184 2.182 5.045 3.275 7.906 3.275s5.722-1.092 7.906-3.275c30.206-30.207 30.206-79.357 0-109.564-14.633-14.633-34.089-22.692-54.783-22.692s-40.149 8.059-54.782 22.692c-4.366 4.366-4.366 11.445 0 15.812 4.367 4.365 11.444 4.365 15.812 0 10.409-10.41 24.248-16.142 38.969-16.142s28.561 5.733 38.97 16.142c21.489 21.489 21.489 56.453 0 77.941-4.364 4.366-4.364 11.445.002 15.811z"/></g></svg>