<svg enable-background="new 0 0 512 512" viewBox="0 0 512 512" xmlns="http://www.w3.org/2000/svg"><path d="m450.787 196.562c11.454 0 20.741 9.286 20.741 20.752 0 11.454-9.286 20.752-20.741 20.752l-134.703 11.175 22.35-52.679z" fill="#ff8c00"/><path d="m480.077 238.066c11.454 0 20.752 9.286 20.752 20.741 0 11.465-9.298 20.752-20.752 20.752h-29.29l-134.703 22.35v-63.843h134.703z" fill="#ff9e24"/><path d="m450.787 279.558c11.454 0 20.741 9.298 20.741 20.752 0 11.466-9.286 20.752-20.741 20.752h-29.301l-105.402 22.35v-63.854z" fill="#ff8c00"/><path d="m421.486 321.062c11.466 0 20.752 9.286 20.752 20.752 0 11.454-9.286 20.741-20.752 20.741 0 0-39.749 0-83.052 0l-22.35-41.493z" fill="#ff9e24"/><path d="m293.734 196.562-189.371 82.974v48.846h62.937c15.254 20.92 39.928 34.173 67.799 34.173h103.335v-165.993z" fill="#ffb14d"/><path d="m357.275 138.05c.693 11.432-8.024 21.266-19.467 21.959-38.073 2.313-69.687 14.572-94.585 36.553h50.511c0 45.817-37.134 82.974-82.941 82.974h-106.43v-48.801h62.937c33.19-68.715 91.21-107.492 168.004-112.152 11.433-.693 21.278 8.023 21.971 19.467z" fill="#ff8c00"/><path d="m11.175 175.437h39.99v218.024h-39.99z" fill="#181818"/><path d="m51.165 196.568h75.554v175.76h-75.554z" fill="#4c5870"/><g fill="#11113f"><path d="m512 258.812c0-17.215-13.697-31.291-30.766-31.903.957-3.03 1.473-6.253 1.473-9.595 0-17.603-14.321-31.925-31.925-31.925h-170.507c17.112-8.147 36.58-12.913 58.215-14.223 8.512-.515 16.313-4.315 21.967-10.699 5.653-6.384 8.484-14.587 7.968-23.098-.516-8.512-4.316-16.313-10.699-21.968-6.384-5.655-14.588-8.489-23.099-7.968-78.614 4.764-138.711 43.488-174.232 112.13h-22.506v-23c0-6.172-5.003-11.175-11.175-11.175h-64.374v-9.956c0-6.172-5.003-11.175-11.175-11.175h-39.99c-6.172 0-11.175 5.003-11.175 11.175s5.003 11.175 11.175 11.175h28.815v195.67h-28.815c-6.172 0-11.175 5.003-11.175 11.175s5.003 11.175 11.175 11.175h39.99c6.172 0 11.175-5.003 11.175-11.175v-9.956h64.373c6.172 0 11.175-5.003 11.175-11.175v-32.765h23.956c17.846 21.5 44.81 34.175 73.26 34.175h186.387c17.603 0 31.925-14.321 31.925-31.925 0-3.341-.516-6.565-1.473-9.595 17.069-.611 30.766-14.688 30.766-31.903 0-3.341-.516-6.565-1.473-9.595 17.067-.609 30.764-14.686 30.764-31.901zm-396.462 102.337h-53.198v-153.41h53.198zm364.539-92.762h-29.293-117.14c-6.172 0-11.175 5.003-11.175 11.175s5.003 11.175 11.175 11.175h117.14c5.279 0 9.575 4.296 9.575 9.575s-4.296 9.574-9.575 9.574h-29.293-108.066c-6.172 0-11.175 5.003-11.175 11.175s5.003 11.175 11.175 11.175h108.065c5.279 0 9.575 4.296 9.575 9.575s-4.296 9.575-9.575 9.575h-186.387c-23.648 0-45.07-10.782-58.771-29.582-2.103-2.887-5.46-4.593-9.032-4.593h-29.412v-75.295h29.411c4.288 0 8.197-2.453 10.062-6.314 31.33-64.862 86.179-101.466 158.616-105.857 2.559-.155 5.013.694 6.927 2.39s3.054 4.035 3.208 6.589c.155 2.552-.694 5.012-2.389 6.927s-4.035 3.054-6.589 3.209c-40.442 2.451-74.528 15.683-101.312 39.329-3.483 3.075-4.7 7.986-3.055 12.332 1.644 4.346 5.805 7.221 10.452 7.221h38.465c-5.382 34.299-35.122 60.622-70.897 60.622-6.172 0-11.175 5.003-11.175 11.175s5.003 11.175 11.175 11.175c48.117 0 87.891-36.311 93.436-82.972h146.557c5.279 0 9.575 4.296 9.575 9.575s-4.296 9.574-9.575 9.574h-127.248c-6.172 0-11.175 5.003-11.175 11.175s5.003 11.175 11.175 11.175h127.249 29.295c5.279 0 9.574 4.296 9.574 9.575 0 5.277-4.294 9.571-9.573 9.571z"/><circle cx="88.942" cy="328.388" r="11.175"/></g></svg>