<svg enable-background="new 0 0 512.001 512.001" viewBox="0 0 512.001 512.001" xmlns="http://www.w3.org/2000/svg"><path d="m303.092 452.629v-85.908h-94.18v85.908c0 26.007 21.083 47.09 47.09 47.09s47.09-21.083 47.09-47.09z" fill="#ccc4c1"/><path d="m303.092 366.721h-94.18v85.908l48.824.139 45.356-.139z" fill="#e6e2e0"/><path d="m416.36 171.92c0-88.564-71.795-160.358-160.358-160.358s-160.358 71.794-160.358 160.358c0 59.887 32.834 112.099 81.477 139.637 0 0 0 0 6.251 46.138 1.754 12.94 12.481 23.675 25.54 23.675h12.405l11.562-11.562 11.562 11.562h23.123l11.562-11.562 11.562 11.562h12.403c13.058 0 23.786-10.734 25.54-23.675 6.251-46.138 6.251-46.138 6.251-46.138 48.643-27.539 81.478-79.751 81.478-139.637z" fill="#ffb14d"/><path d="m256.002 0c-94.797 0-171.92 77.123-171.92 171.92 0 59.898 31.403 115.595 82.335 146.75l5.498 40.577c2.037 15.036 12.231 27.175 25.435 31.736v15.055h-1.902c-6.386 0-11.562 5.176-11.562 11.562s5.176 11.562 11.562 11.562h1.902v23.469c0 .135.012.269.016.405-.002.106-.016.209-.016.316 0 32.34 26.311 58.652 58.652 58.652s58.652-26.31 58.652-58.652c0-.242-.022-.479-.036-.717l.036-.003v-23.472h1.901c6.386 0 11.562-5.176 11.562-11.562s-5.176-11.562-11.562-11.562h-1.901v-15.055c13.204-4.561 23.397-16.701 25.435-31.736l5.498-40.577c50.932-31.154 82.335-86.853 82.335-146.75-.001-94.795-77.123-171.918-171.92-171.918zm0 488.394c-15.184 0-28.145-9.708-33.001-23.243h66.001c-4.855 13.535-17.816 23.243-33 23.243zm35.528-46.848h-71.056v-12.386h71.056zm0-35.509h-71.056v-13.107h71.056zm-41.587-63.885-35.567-133.028 3.637 2.847c2.093 1.638 4.609 2.457 7.125 2.457 2.517 0 5.033-.819 7.127-2.457l23.734-18.576 23.74 18.577c4.185 3.275 10.065 3.275 14.251 0l3.641-2.849-35.571 133.029c-1.385 5.178.983 10.465 5.426 13.007h-22.969c4.444-2.542 6.812-7.828 5.426-13.007zm79.243-40.658c-3.145 1.781-5.276 4.928-5.761 8.508l-6.251 46.138c-.377 2.781-1.437 5.336-2.955 7.471-1.36-4.873-5.82-8.453-11.127-8.453h-24.113c2.577-1.479 4.592-3.937 5.421-7.034l44.497-166.424c.021-.075.03-.151.049-.228.05-.205.092-.409.132-.615.035-.18.067-.361.092-.541.025-.179.043-.358.059-.539.02-.205.037-.408.045-.612.006-.161.005-.323.005-.483 0-.215-.001-.43-.014-.644-.009-.161-.028-.321-.043-.482-.021-.207-.042-.414-.073-.619-.028-.177-.065-.351-.101-.527-.038-.184-.074-.369-.12-.55-.049-.193-.109-.384-.168-.575-.051-.162-.099-.324-.156-.482-.071-.195-.15-.386-.231-.579-.066-.155-.129-.31-.201-.461-.084-.178-.178-.354-.273-.528-.089-.164-.178-.328-.275-.488-.091-.151-.19-.301-.289-.449-.119-.179-.242-.355-.371-.527-.045-.06-.083-.125-.131-.185-.054-.069-.114-.128-.17-.197-.142-.173-.289-.343-.442-.509-.111-.12-.222-.238-.338-.353-.15-.15-.306-.296-.466-.438-.129-.116-.259-.229-.393-.338-.154-.125-.312-.245-.473-.363-.149-.11-.299-.217-.453-.318-.155-.103-.314-.2-.475-.295-.17-.101-.34-.198-.513-.289-.155-.081-.313-.158-.473-.232-.19-.089-.382-.173-.576-.252-.154-.062-.31-.12-.468-.177-.207-.074-.416-.141-.627-.202-.087-.025-.168-.059-.256-.082-.076-.021-.153-.03-.229-.049-.202-.05-.406-.092-.61-.131-.183-.035-.364-.067-.546-.094-.177-.024-.354-.042-.532-.059-.207-.02-.413-.037-.619-.046-.158-.006-.316-.005-.474-.005-.219 0-.436.001-.653.014-.157.009-.313.027-.471.042-.212.021-.422.043-.631.075-.171.027-.341.062-.511.097-.191.038-.38.076-.568.124-.186.047-.37.105-.555.162-.169.052-.338.103-.503.163-.188.068-.375.146-.561.224-.161.068-.321.135-.48.209-.173.082-.345.173-.514.266-.169.091-.336.183-.501.282-.148.09-.294.185-.439.282-.182.12-.36.245-.534.376-.06.045-.124.082-.183.128l-23.736 18.579-23.74-18.577c-4.185-3.275-10.066-3.275-14.251 0l-23.734 18.576-23.736-18.576c-.06-.047-.124-.084-.185-.131-.172-.129-.348-.252-.527-.371-.148-.099-.296-.197-.447-.288-.161-.097-.325-.186-.489-.275-.175-.095-.349-.187-.527-.272-.153-.073-.308-.138-.464-.202-.191-.081-.383-.161-.577-.231-.16-.058-.323-.106-.484-.157-.191-.059-.38-.119-.572-.168-.183-.046-.367-.083-.551-.12-.175-.036-.349-.073-.525-.099-.205-.032-.413-.052-.62-.073-.161-.016-.32-.035-.481-.043-.214-.013-.428-.014-.644-.014-.162 0-.323-.001-.483.005-.203.008-.407.025-.612.045-.18.016-.36.035-.538.059-.182.025-.362.058-.543.092-.205.038-.409.081-.612.131-.076.019-.153.029-.229.049-.088.023-.169.057-.256.082-.21.061-.419.128-.625.201-.158.057-.316.114-.471.178-.193.077-.384.162-.573.251-.16.075-.318.151-.473.234-.173.091-.345.188-.513.289-.161.095-.319.192-.474.295-.154.102-.305.209-.454.319-.16.117-.317.236-.469.361-.135.11-.267.225-.398.342-.157.141-.31.283-.459.432-.117.117-.231.237-.345.36-.149.163-.294.328-.432.499-.057.069-.119.131-.175.201-.049.061-.087.127-.134.19-.126.169-.246.341-.363.516-.102.151-.201.304-.295.459-.095.156-.182.317-.268.477-.096.178-.192.357-.277.539-.071.148-.133.299-.198.451-.082.195-.164.39-.236.587-.057.156-.104.316-.154.474-.06.193-.12.386-.17.583-.046.179-.082.362-.119.543-.036.177-.074.354-.101.532-.031.203-.052.409-.073.615-.016.162-.035.323-.044.484-.013.213-.014.428-.014.643 0 .162-.001.323.005.483.008.203.027.408.045.613.016.179.034.357.059.536.025.182.058.363.092.545.038.205.081.408.131.61.019.076.029.153.049.229l44.498 166.425c.828 3.097 2.843 5.557 5.421 7.034h-24.113c-5.307 0-9.767 3.579-11.127 8.453-1.518-2.135-2.579-4.692-2.955-7.472l-6.251-46.138c-.486-3.581-2.616-6.729-5.761-8.508-46.638-26.402-75.61-76.053-75.61-129.575-.001-82.039 66.748-148.788 148.795-148.788s148.794 66.749 148.794 148.796c0 53.521-28.973 103.172-75.612 129.574z" fill="#11113f"/></svg>