<?xml version="1.0" encoding="iso-8859-1"?>
<!-- Generator: Adobe Illustrator 19.0.0, SVG Export Plug-In . SVG Version: 6.00 Build 0)  -->
<svg version="1.1" id="Layer_1" xmlns="http://www.w3.org/2000/svg" xmlns:xlink="http://www.w3.org/1999/xlink" x="0px" y="0px"
	 viewBox="0 0 512.001 512.001" style="enable-background:new 0 0 512.001 512.001;" xml:space="preserve">
<path style="fill:#CCC4C1;" d="M303.092,452.629v-85.908h-94.18v85.908l0,0c0,26.007,21.083,47.09,47.09,47.09
	S303.092,478.636,303.092,452.629L303.092,452.629z"/>
<polygon style="fill:#E6E2E0;" points="303.092,366.721 208.912,366.721 208.912,452.629 257.736,452.768 303.092,452.629 "/>
<path style="fill:#FFB14D;" d="M416.36,171.92c0-88.564-71.795-160.358-160.358-160.358S95.644,83.356,95.644,171.92
	c0,59.887,32.834,112.099,81.477,139.637c0,0,0,0,6.251,46.138c1.754,12.94,12.481,23.675,25.54,23.675h12.405l11.562-11.562
	l11.562,11.562h23.123l11.562-11.562l11.562,11.562h12.403c13.058,0,23.786-10.734,25.54-23.675
	c6.251-46.138,6.251-46.138,6.251-46.138C383.525,284.018,416.36,231.806,416.36,171.92z"/>
<path style="fill:#11113F;" d="M256.002,0c-94.797,0-171.92,77.123-171.92,171.92c0,59.898,31.403,115.595,82.335,146.75
	l5.498,40.577c2.037,15.036,12.231,27.175,25.435,31.736v15.055h-1.902c-6.386,0-11.562,5.176-11.562,11.562
	s5.176,11.562,11.562,11.562h1.902v23.469c0,0.135,0.012,0.269,0.016,0.405c-0.002,0.106-0.016,0.209-0.016,0.316
	c0,32.34,26.311,58.652,58.652,58.652s58.652-26.31,58.652-58.652c0-0.242-0.022-0.479-0.036-0.717l0.036-0.003V429.16h1.901
	c6.386,0,11.562-5.176,11.562-11.562s-5.176-11.562-11.562-11.562h-1.901v-15.055c13.204-4.561,23.397-16.701,25.435-31.736
	l5.498-40.577c50.932-31.154,82.335-86.853,82.335-146.75C427.921,77.123,350.799,0,256.002,0z M256.002,488.394
	c-15.184,0-28.145-9.708-33.001-23.243h66.001C284.147,478.686,271.186,488.394,256.002,488.394z M291.53,441.546h-71.056V429.16
	h71.056L291.53,441.546L291.53,441.546z M291.53,406.037h-71.056V392.93h71.056L291.53,406.037L291.53,406.037z M249.943,342.152
	l-35.567-133.028l3.637,2.847c2.093,1.638,4.609,2.457,7.125,2.457c2.517,0,5.033-0.819,7.127-2.457l23.734-18.576l23.74,18.577
	c4.185,3.275,10.065,3.275,14.251,0l3.641-2.849L262.06,342.152c-1.385,5.178,0.983,10.465,5.426,13.007h-22.969
	C248.961,352.617,251.329,347.331,249.943,342.152z M329.186,301.494c-3.145,1.781-5.276,4.928-5.761,8.508l-6.251,46.138
	c-0.377,2.781-1.437,5.336-2.955,7.471c-1.36-4.873-5.82-8.453-11.127-8.453h-24.113c2.577-1.479,4.592-3.937,5.421-7.034
	L328.897,181.7c0.021-0.075,0.03-0.151,0.049-0.228c0.05-0.205,0.092-0.409,0.132-0.615c0.035-0.18,0.067-0.361,0.092-0.541
	c0.025-0.179,0.043-0.358,0.059-0.539c0.02-0.205,0.037-0.408,0.045-0.612c0.006-0.161,0.005-0.323,0.005-0.483
	c0-0.215-0.001-0.43-0.014-0.644c-0.009-0.161-0.028-0.321-0.043-0.482c-0.021-0.207-0.042-0.414-0.073-0.619
	c-0.028-0.177-0.065-0.351-0.101-0.527c-0.038-0.184-0.074-0.369-0.12-0.55c-0.049-0.193-0.109-0.384-0.168-0.575
	c-0.051-0.162-0.099-0.324-0.156-0.482c-0.071-0.195-0.15-0.386-0.231-0.579c-0.066-0.155-0.129-0.31-0.201-0.461
	c-0.084-0.178-0.178-0.354-0.273-0.528c-0.089-0.164-0.178-0.328-0.275-0.488c-0.091-0.151-0.19-0.301-0.289-0.449
	c-0.119-0.179-0.242-0.355-0.371-0.527c-0.045-0.06-0.083-0.125-0.131-0.185c-0.054-0.069-0.114-0.128-0.17-0.197
	c-0.142-0.173-0.289-0.343-0.442-0.509c-0.111-0.12-0.222-0.238-0.338-0.353c-0.15-0.15-0.306-0.296-0.466-0.438
	c-0.129-0.116-0.259-0.229-0.393-0.338c-0.154-0.125-0.312-0.245-0.473-0.363c-0.149-0.11-0.299-0.217-0.453-0.318
	c-0.155-0.103-0.314-0.2-0.475-0.295c-0.17-0.101-0.34-0.198-0.513-0.289c-0.155-0.081-0.313-0.158-0.473-0.232
	c-0.19-0.089-0.382-0.173-0.576-0.252c-0.154-0.062-0.31-0.12-0.468-0.177c-0.207-0.074-0.416-0.141-0.627-0.202
	c-0.087-0.025-0.168-0.059-0.256-0.082c-0.076-0.021-0.153-0.03-0.229-0.049c-0.202-0.05-0.406-0.092-0.61-0.131
	c-0.183-0.035-0.364-0.067-0.546-0.094c-0.177-0.024-0.354-0.042-0.532-0.059c-0.207-0.02-0.413-0.037-0.619-0.046
	c-0.158-0.006-0.316-0.005-0.474-0.005c-0.219,0-0.436,0.001-0.653,0.014c-0.157,0.009-0.313,0.027-0.471,0.042
	c-0.212,0.021-0.422,0.043-0.631,0.075c-0.171,0.027-0.341,0.062-0.511,0.097c-0.191,0.038-0.38,0.076-0.568,0.124
	c-0.186,0.047-0.37,0.105-0.555,0.162c-0.169,0.052-0.338,0.103-0.503,0.163c-0.188,0.068-0.375,0.146-0.561,0.224
	c-0.161,0.068-0.321,0.135-0.48,0.209c-0.173,0.082-0.345,0.173-0.514,0.266c-0.169,0.091-0.336,0.183-0.501,0.282
	c-0.148,0.09-0.294,0.185-0.439,0.282c-0.182,0.12-0.36,0.245-0.534,0.376c-0.06,0.045-0.124,0.082-0.183,0.128L286.86,188.18
	l-23.74-18.577c-4.185-3.275-10.066-3.275-14.251,0l-23.734,18.576l-23.736-18.576c-0.06-0.047-0.124-0.084-0.185-0.131
	c-0.172-0.129-0.348-0.252-0.527-0.371c-0.148-0.099-0.296-0.197-0.447-0.288c-0.161-0.097-0.325-0.186-0.489-0.275
	c-0.175-0.095-0.349-0.187-0.527-0.272c-0.153-0.073-0.308-0.138-0.464-0.202c-0.191-0.081-0.383-0.161-0.577-0.231
	c-0.16-0.058-0.323-0.106-0.484-0.157c-0.191-0.059-0.38-0.119-0.572-0.168c-0.183-0.046-0.367-0.083-0.551-0.12
	c-0.175-0.036-0.349-0.073-0.525-0.099c-0.205-0.032-0.413-0.052-0.62-0.073c-0.161-0.016-0.32-0.035-0.481-0.043
	c-0.214-0.013-0.428-0.014-0.644-0.014c-0.162,0-0.323-0.001-0.483,0.005c-0.203,0.008-0.407,0.025-0.612,0.045
	c-0.18,0.016-0.36,0.035-0.538,0.059c-0.182,0.025-0.362,0.058-0.543,0.092c-0.205,0.038-0.409,0.081-0.612,0.131
	c-0.076,0.019-0.153,0.029-0.229,0.049c-0.088,0.023-0.169,0.057-0.256,0.082c-0.21,0.061-0.419,0.128-0.625,0.201
	c-0.158,0.057-0.316,0.114-0.471,0.178c-0.193,0.077-0.384,0.162-0.573,0.251c-0.16,0.075-0.318,0.151-0.473,0.234
	c-0.173,0.091-0.345,0.188-0.513,0.289c-0.161,0.095-0.319,0.192-0.474,0.295c-0.154,0.102-0.305,0.209-0.454,0.319
	c-0.16,0.117-0.317,0.236-0.469,0.361c-0.135,0.11-0.267,0.225-0.398,0.342c-0.157,0.141-0.31,0.283-0.459,0.432
	c-0.117,0.117-0.231,0.237-0.345,0.36c-0.149,0.163-0.294,0.328-0.432,0.499c-0.057,0.069-0.119,0.131-0.175,0.201
	c-0.049,0.061-0.087,0.127-0.134,0.19c-0.126,0.169-0.246,0.341-0.363,0.516c-0.102,0.151-0.201,0.304-0.295,0.459
	c-0.095,0.156-0.182,0.317-0.268,0.477c-0.096,0.178-0.192,0.357-0.277,0.539c-0.071,0.148-0.133,0.299-0.198,0.451
	c-0.082,0.195-0.164,0.39-0.236,0.587c-0.057,0.156-0.104,0.316-0.154,0.474c-0.06,0.193-0.12,0.386-0.17,0.583
	c-0.046,0.179-0.082,0.362-0.119,0.543c-0.036,0.177-0.074,0.354-0.101,0.532c-0.031,0.203-0.052,0.409-0.073,0.615
	c-0.016,0.162-0.035,0.323-0.044,0.484c-0.013,0.213-0.014,0.428-0.014,0.643c0,0.162-0.001,0.323,0.005,0.483
	c0.008,0.203,0.027,0.408,0.045,0.613c0.016,0.179,0.034,0.357,0.059,0.536c0.025,0.182,0.058,0.363,0.092,0.545
	c0.038,0.205,0.081,0.408,0.131,0.61c0.019,0.076,0.029,0.153,0.049,0.229l44.498,166.425c0.828,3.097,2.843,5.557,5.421,7.034
	h-24.113c-5.307,0-9.767,3.579-11.127,8.453c-1.518-2.135-2.579-4.692-2.955-7.472l-6.251-46.138
	c-0.486-3.581-2.616-6.729-5.761-8.508c-46.638-26.402-75.61-76.053-75.61-129.575c-0.001-82.039,66.748-148.788,148.795-148.788
	S404.798,89.873,404.798,171.92C404.798,225.441,375.825,275.092,329.186,301.494z"/>
<g>
</g>
<g>
</g>
<g>
</g>
<g>
</g>
<g>
</g>
<g>
</g>
<g>
</g>
<g>
</g>
<g>
</g>
<g>
</g>
<g>
</g>
<g>
</g>
<g>
</g>
<g>
</g>
<g>
</g>
</svg>
