<svg enable-background="new 0 0 512 512" viewBox="0 0 512 512" xmlns="http://www.w3.org/2000/svg"><path d="m256 11.584c-76.77 0-139.005 62.235-139.005 139.005v94.986h46.335v-94.986c0-51.098 41.572-92.67 92.67-92.67s92.67 41.572 92.67 92.67v94.986h46.335v-94.986c0-76.771-62.235-139.005-139.005-139.005z" fill="#4c5870"/><path d="m429.756 222.407h-92.67l-34.751 139.005 34.751 139.005h92.67c6.371 0 11.584-5.213 11.584-11.584v-254.842c-.001-6.371-5.213-11.584-11.584-11.584z" fill="#269af2"/><path d="m337.086 222.407h-254.842c-6.371 0-11.584 5.213-11.584 11.584v254.842c0 6.371 5.213 11.584 11.584 11.584h254.842c6.371 0 11.584-5.213 11.584-11.584v-254.842c0-6.371-5.213-11.584-11.584-11.584z" fill="#bec8d6"/><path d="m244.416 326.661c0-19.193-15.558-34.751-34.751-34.751-19.192 0-34.751 15.558-34.751 34.751 0 11.964 6.047 22.514 15.25 28.766l-15.25 75.488h69.502l-15.25-75.488c9.204-6.252 15.25-16.803 15.25-28.766z" fill="#4c5870"/><g fill="#11113f"><path d="m429.756 210.824h-23.167v-60.235c-.001-83.036-67.553-150.589-150.589-150.589s-150.588 67.553-150.588 150.588v60.235h-23.168c-12.775 0-23.167 10.393-23.167 23.167v254.842c0 12.775 10.393 23.168 23.167 23.168h254.842 92.67c12.775 0 23.167-10.393 23.167-23.167v-254.842c0-12.775-10.393-23.167-23.167-23.167zm-301.177-60.236c0-70.26 57.161-127.421 127.421-127.421s127.421 57.161 127.421 127.421v60.235h-23.167v-60.235c0-57.485-46.768-104.253-104.253-104.253s-104.254 46.768-104.254 104.253v60.235h-23.167v-60.235zm46.335 60.236v-60.235c0-44.711 36.375-81.086 81.086-81.086s81.086 36.375 81.086 81.086v60.235zm254.842 278.009h-69.502v-57.919c0-6.397-5.187-11.584-11.584-11.584s-11.584 5.187-11.584 11.584v57.919h-254.842v-254.842h254.842v157.41c0 6.397 5.187 11.584 11.584 11.584s11.584-5.187 11.584-11.584v-157.41h69.502z"/><path d="m209.665 280.326c-25.549 0-46.335 20.786-46.335 46.335 0 12.667 5.162 24.632 14.103 33.287l-13.874 68.672c-.688 3.406.189 6.94 2.39 9.63s5.491 4.249 8.965 4.249h69.502c3.474 0 6.765-1.56 8.965-4.249s3.077-6.223 2.39-9.63l-13.874-68.672c8.941-8.654 14.103-20.62 14.103-33.287 0-25.549-20.786-46.335-46.335-46.335zm8.147 77.394 12.446 61.61h-41.186l12.446-61.61c.924-4.573-.986-9.254-4.845-11.877-6.371-4.326-10.175-11.499-10.175-19.184 0-12.775 10.393-23.167 23.167-23.167s23.167 10.393 23.167 23.167c0 7.685-3.803 14.856-10.174 19.184-3.859 2.623-5.77 7.304-4.846 11.877z"/></g></svg>