<?xml version="1.0" encoding="iso-8859-1"?>
<!-- Generator: Adobe Illustrator 19.0.0, SVG Export Plug-In . SVG Version: 6.00 Build 0)  -->
<svg version="1.1" id="Layer_1" xmlns="http://www.w3.org/2000/svg" xmlns:xlink="http://www.w3.org/1999/xlink" x="0px" y="0px"
	 viewBox="0 0 512 512" style="enable-background:new 0 0 512 512;" xml:space="preserve">
<path style="fill:#4C5870;" d="M256,11.584c-76.77,0-139.005,62.235-139.005,139.005v94.986h46.335v-94.986
	c0-51.098,41.572-92.67,92.67-92.67s92.67,41.572,92.67,92.67v94.986h46.335v-94.986C395.005,73.818,332.77,11.584,256,11.584z"/>
<path style="fill:#269AF2;" d="M429.756,222.407h-92.67l-34.751,139.005l34.751,139.005h92.67c6.371,0,11.584-5.213,11.584-11.584
	V233.991C441.339,227.62,436.127,222.407,429.756,222.407z"/>
<path style="fill:#BEC8D6;" d="M337.086,222.407H82.244c-6.371,0-11.584,5.213-11.584,11.584v254.842
	c0,6.371,5.213,11.584,11.584,11.584h254.842c6.371,0,11.584-5.213,11.584-11.584V233.991
	C348.67,227.62,343.457,222.407,337.086,222.407z"/>
<path style="fill:#4C5870;" d="M244.416,326.661c0-19.193-15.558-34.751-34.751-34.751c-19.192,0-34.751,15.558-34.751,34.751
	c0,11.964,6.047,22.514,15.25,28.766l-15.25,75.488h69.502l-15.25-75.488C238.37,349.175,244.416,338.624,244.416,326.661z"/>
<g>
	<path style="fill:#11113F;" d="M429.756,210.824h-23.167v-60.235C406.588,67.553,339.036,0,256,0S105.412,67.553,105.412,150.588
		v60.235H82.244c-12.775,0-23.167,10.393-23.167,23.167v254.842C59.077,501.607,69.47,512,82.244,512h254.842h92.67
		c12.775,0,23.167-10.393,23.167-23.167V233.991C452.923,221.216,442.53,210.824,429.756,210.824z M128.579,150.588
		c0-70.26,57.161-127.421,127.421-127.421s127.421,57.161,127.421,127.421v60.235h-23.167v-60.235
		c0-57.485-46.768-104.253-104.253-104.253S151.747,93.103,151.747,150.588v60.235h-23.167V150.588z M174.914,210.824v-60.235
		c0-44.711,36.375-81.086,81.086-81.086s81.086,36.375,81.086,81.086v60.235H174.914z M429.756,488.833h-69.502v-57.919
		c0-6.397-5.187-11.584-11.584-11.584c-6.397,0-11.584,5.187-11.584,11.584v57.919H82.244V233.991h254.842v157.41
		c0,6.397,5.187,11.584,11.584,11.584c6.397,0,11.584-5.187,11.584-11.584v-157.41h69.502V488.833z"/>
	<path style="fill:#11113F;" d="M209.665,280.326c-25.549,0-46.335,20.786-46.335,46.335c0,12.667,5.162,24.632,14.103,33.287
		l-13.874,68.672c-0.688,3.406,0.189,6.94,2.39,9.63s5.491,4.249,8.965,4.249h69.502c3.474,0,6.765-1.56,8.965-4.249
		s3.077-6.223,2.39-9.63l-13.874-68.672c8.941-8.654,14.103-20.62,14.103-33.287C256,301.112,235.214,280.326,209.665,280.326z
		 M217.812,357.72l12.446,61.61h-41.186l12.446-61.61c0.924-4.573-0.986-9.254-4.845-11.877
		c-6.371-4.326-10.175-11.499-10.175-19.184c0-12.775,10.393-23.167,23.167-23.167s23.167,10.393,23.167,23.167
		c0,7.685-3.803,14.856-10.174,19.184C218.799,348.466,216.888,353.147,217.812,357.72z"/>
</g>
<g>
</g>
<g>
</g>
<g>
</g>
<g>
</g>
<g>
</g>
<g>
</g>
<g>
</g>
<g>
</g>
<g>
</g>
<g>
</g>
<g>
</g>
<g>
</g>
<g>
</g>
<g>
</g>
<g>
</g>
</svg>
