<svg enable-background="new 0 0 512 512" viewBox="0 0 512 512" xmlns="http://www.w3.org/2000/svg"><path d="m256 11.584c-115.795 0-209.665 93.871-209.665 209.665 15.102-22.353 40.675-37.434 69.682-37.434 29.17 0 54.86 14.869 69.929 37.434l35.177-83.769h69.502l35.175 83.769c15.067-22.565 40.758-37.434 69.929-37.434s54.869 14.869 69.937 37.434c-.001-115.794-93.872-209.665-209.666-209.665z" fill="#ee3840"/><path d="m222.904 362.153h66.189v46.335h-66.189z" fill="#ffb14d"/><path d="m256 11.584c-38.598 0-69.973 93.871-69.973 209.665 15.067-22.565 40.675-37.434 69.845-37.434s54.904 14.869 69.973 37.434c-.001-115.794-31.247-209.665-69.845-209.665z" fill="#ffe1d6"/><path d="m330.618 396.901h-149.236v46.335l74.618 23.167 74.618-23.167z" fill="#ff9e24"/><path d="m181.388 443.239h149.233v57.177h-149.233z" fill="#ffb14d"/><path d="m474.14 229.134c.134-.145.266-.291.393-.441.107-.126.208-.254.309-.385.11-.144.215-.291.32-.439.093-.133.186-.265.273-.401.122-.191.233-.388.343-.586.08-.144.159-.287.233-.434.124-.246.241-.496.348-.751.046-.112.086-.226.129-.338.081-.213.158-.427.227-.646.037-.119.071-.239.104-.359.06-.218.115-.439.163-.661.025-.12.052-.24.074-.36.042-.228.074-.46.102-.693.014-.116.032-.232.043-.348.023-.263.035-.528.041-.796.002-.089.009-.178.009-.268-.015-121.987-99.262-221.228-221.252-221.228-121.995 0-221.244 99.248-221.249 221.242 0 .07.007.139.008.208.005.285.017.568.043.847.01.108.027.214.039.322.029.242.063.483.105.721.021.114.045.226.069.339.05.232.105.46.169.686.031.112.063.224.097.336.072.231.153.456.239.68.039.102.074.205.116.307.119.288.25.571.393.848.056.109.118.215.178.322.115.206.232.411.358.61.083.131.174.258.263.387.107.154.215.306.33.454.097.126.197.251.3.374.13.155.266.306.404.454.095.102.188.206.287.305.241.241.492.475.755.695.037.031.078.059.116.09.243.198.496.386.756.565.032.023.063.049.095.072l179.14 120.385c-4.481 1.6-7.694 5.869-7.694 10.9v23.167h-29.937c-6.398 0-11.584 5.187-11.584 11.584v103.516c0 6.397 5.186 11.584 11.584 11.584h149.235c6.397 0 11.584-5.187 11.584-11.584v-103.515c0-6.397-5.187-11.584-11.584-11.584h-29.938v-23.167c0-5.03-3.212-9.299-7.693-10.899l179.14-120.387c.03-.021.057-.044.087-.065.275-.189.541-.386.797-.597.024-.021.052-.038.076-.059.263-.219.513-.453.755-.694.107-.103.202-.21.302-.315zm-274.587-6.853c13.71-16.943 34.307-26.883 56.319-26.883 22.096 0 42.765 10.018 56.474 27.08l-56.347 113.603zm-23.243 5.4c.053.08.118.149.174.228l49.736 100.271-163.034-109.562c13.691-14.703 32.737-23.22 52.83-23.22 24.256.001 46.797 12.07 60.294 32.283zm159.812-.998c13.567-19.609 35.753-31.284 59.606-31.284 20.364 0 39.514 8.506 53.125 23.192l-163.074 109.589zm115.541-36.4c-16.055-11.59-35.533-18.052-55.934-18.052-21.679 0-42.312 7.305-58.907 20.298-1.356-30.142-4.835-59.121-10.269-85.059-1.311-6.26-7.443-10.276-13.713-8.961-6.261 1.311-10.274 7.451-8.961 13.713 5.067 24.189 8.355 51.223 9.713 79.421-16.389-12.428-36.55-19.413-57.72-19.413-21.07 0-41.138 6.921-57.485 19.237 4.928-105.016 35.304-168.3 57.613-168.3 12.515 0 27.079 20.019 38.011 52.246 1.637 4.826 6.142 7.867 10.969 7.867 1.234 0 2.488-.199 3.722-.617 6.058-2.054 9.304-8.632 7.249-14.69-5.565-16.406-11.901-29.949-18.891-40.519 79.668 16.859 141.82 81.749 154.603 162.829zm-236.745-162.826c-7.174 10.86-13.656 24.862-19.326 41.873-11.299 33.897-18.371 76.933-20.431 123.379-16.634-13.108-37.363-20.479-59.144-20.479-20.223 0-39.626 6.492-55.692 18.127 12.753-81.106 74.909-146.026 154.593-162.9zm-21.953 461.376v-34.013h126.068v34.013zm126.068-57.181h-126.068v-23.167h126.068zm-84.547-46.335v-11.584h43.025v11.584z" fill="#11113f"/></svg>