<?xml version="1.0" encoding="iso-8859-1"?>
<!-- Generator: Adobe Illustrator 19.0.0, SVG Export Plug-In . SVG Version: 6.00 Build 0)  -->
<svg version="1.1" id="Layer_1" xmlns="http://www.w3.org/2000/svg" xmlns:xlink="http://www.w3.org/1999/xlink" x="0px" y="0px"
	 viewBox="0 0 512 512" style="enable-background:new 0 0 512 512;" xml:space="preserve">
<polygon style="fill:#4C5870;" points="500.416,461.369 11.584,461.369 11.584,409.779 256,386.612 500.416,409.779 "/>
<path style="fill:#181818;" d="M474.619,81.801v195.533L256,300.502L37.381,277.334V81.801c0-17.237,13.97-31.172,31.172-31.172
	h374.895C460.649,50.63,474.619,64.565,474.619,81.801z"/>
<polygon style="fill:#4C5870;" points="474.619,277.334 474.619,328.928 256,352.096 37.381,328.928 37.381,277.334 "/>
<polygon style="fill:#269AF2;" points="37.378,328.929 11.584,409.779 500.416,409.779 474.622,328.929 "/>
<path style="fill:#FFFFFF;" d="M281.394,385.371h-50.788c-6.398,0-11.584-5.186-11.584-11.584s5.186-11.584,11.584-11.584h50.788
	c6.398,0,11.584,5.186,11.584,11.584S287.792,385.371,281.394,385.371z"/>
<path style="fill:#11113F;" d="M511.975,409.279c-0.007-0.161-0.01-0.322-0.024-0.483c-0.028-0.33-0.074-0.653-0.129-0.975
	c-0.015-0.09-0.023-0.181-0.042-0.271c-0.086-0.437-0.193-0.865-0.327-1.282c0-0.001-0.001-0.003-0.001-0.006l-25.247-79.133V81.802
	c0-23.577-19.181-42.759-42.759-42.759H68.555c-23.577,0-42.76,19.181-42.76,42.759v245.327L0.548,406.261
	c0,0.001-0.001,0.003-0.001,0.006c-0.133,0.418-0.241,0.846-0.327,1.282c-0.017,0.09-0.025,0.181-0.042,0.271
	c-0.054,0.321-0.101,0.645-0.129,0.975c-0.014,0.161-0.017,0.322-0.024,0.483C0.019,409.447,0,409.612,0,409.782v51.59
	c0,6.398,5.186,11.584,11.584,11.584h488.833c6.398,0,11.584-5.186,11.584-11.584v-51.59
	C512,409.612,511.982,409.447,511.975,409.279z M463.037,317.348H48.963v-28.423h414.075v28.423H463.037z M45.843,340.515h420.316
	l18.404,57.683H27.438L45.843,340.515z M68.555,62.211h374.891c10.803,0,19.592,8.789,19.592,19.592v183.956H48.963V81.802
	C48.963,70.998,57.752,62.211,68.555,62.211z M488.833,449.788H23.167v-28.423h465.665V449.788z"/>
<g>
</g>
<g>
</g>
<g>
</g>
<g>
</g>
<g>
</g>
<g>
</g>
<g>
</g>
<g>
</g>
<g>
</g>
<g>
</g>
<g>
</g>
<g>
</g>
<g>
</g>
<g>
</g>
<g>
</g>
</svg>
