<svg enable-background="new 0 0 512 512" viewBox="0 0 512 512" xmlns="http://www.w3.org/2000/svg"><path d="m500.416 461.369h-488.832v-51.59l244.416-23.167 244.416 23.167z" fill="#4c5870"/><path d="m474.619 81.801v195.533l-218.619 23.168-218.619-23.168v-195.533c0-17.237 13.97-31.172 31.172-31.172h374.895c17.201.001 31.171 13.936 31.171 31.172z" fill="#181818"/><path d="m474.619 277.334v51.594l-218.619 23.168-218.619-23.168v-51.594z" fill="#4c5870"/><path d="m37.378 328.929-25.794 80.85h488.832l-25.794-80.85z" fill="#269af2"/><path d="m281.394 385.371h-50.788c-6.398 0-11.584-5.186-11.584-11.584s5.186-11.584 11.584-11.584h50.788c6.398 0 11.584 5.186 11.584 11.584s-5.186 11.584-11.584 11.584z" fill="#fff"/><path d="m511.975 409.279c-.007-.161-.01-.322-.024-.483-.028-.33-.074-.653-.129-.975-.015-.09-.023-.181-.042-.271-.086-.437-.193-.865-.327-1.282 0-.001-.001-.003-.001-.006l-25.247-79.133v-245.327c0-23.577-19.181-42.759-42.759-42.759h-374.891c-23.577 0-42.76 19.181-42.76 42.759v245.327l-25.247 79.132c0 .001-.001.003-.001.006-.133.418-.241.846-.327 1.282-.017.09-.025.181-.042.271-.054.321-.101.645-.129.975-.014.161-.017.322-.024.483-.006.169-.025.334-.025.504v51.59c0 6.398 5.186 11.584 11.584 11.584h488.833c6.398 0 11.584-5.186 11.584-11.584v-51.59c-.001-.17-.019-.335-.026-.503zm-48.938-91.931h-414.074v-28.423h414.075v28.423zm-417.194 23.167h420.316l18.404 57.683h-457.125zm22.712-278.304h374.891c10.803 0 19.592 8.789 19.592 19.592v183.956h-414.075v-183.957c0-10.804 8.789-19.591 19.592-19.591zm420.278 387.577h-465.666v-28.423h465.665v28.423z" fill="#11113f"/></svg>