<svg enable-background="new 0 0 512 512" viewBox="0 0 512 512" xmlns="http://www.w3.org/2000/svg"><path d="m184.795 327.206c-34.925-34.925-54.157-81.356-54.157-130.746.001-101.955 82.948-184.901 184.903-184.903 49.39 0 95.822 19.233 130.746 54.157s54.156 81.356 54.157 130.746c-.001 101.955-82.948 184.901-184.903 184.903-49.391-.001-95.823-19.235-130.746-54.157z" fill="#a2a9af"/><path d="m413.599 98.399h-49.751v-31.965c-15.043-5.591-31.317-8.652-48.307-8.652-76.589 0-138.677 62.088-138.677 138.677 0 16.99 3.061 33.265 8.652 48.308h31.965v49.752c25.095 25.096 59.764 40.617 98.06 40.617 76.589 0 138.677-62.088 138.677-138.677 0-38.294-15.523-72.964-40.619-98.06z" fill="#bec8d6"/><path d="m363.848 66.436-178.332 178.331c7.011 18.862 18.004 35.79 31.965 49.752l196.118-196.12c-13.961-13.961-30.888-24.952-49.751-31.963z" fill="#fff"/><path d="m5.553 407.056h152.543v46.225h-152.543z" fill="#a2a9af" transform="matrix(-.7071 .7071 -.7071 -.7071 443.8576 676.4848)"/><g fill="#11113f"><path d="m454.458 57.542c-37.106-37.106-86.441-57.542-138.917-57.542-108.328.001-196.459 88.133-196.459 196.459 0 48.605 17.544 94.506 49.615 130.501l-32.931 32.931-8.172-8.172c-4.513-4.512-11.83-4.512-16.344 0l-107.865 107.866c-4.513 4.513-4.513 11.83 0 16.344l32.686 32.686c2.257 2.256 5.214 3.385 8.172 3.385 2.957 0 5.916-1.129 8.172-3.385l107.864-107.865c4.513-4.513 4.513-11.83 0-16.344l-8.172-8.17 32.931-32.931c35.994 32.071 81.897 49.614 130.502 49.614 108.327-.002 196.459-88.134 196.46-196.46-.001-52.476-20.437-101.811-57.542-138.917zm-410.216 426.557-16.343-16.343 91.522-91.521 8.163 8.162c.002.002.005.006.008.009s.006.005.009.008l8.163 8.162zm271.299-114.294c-46.303 0-89.834-18.031-122.573-50.773-32.74-32.739-50.772-76.27-50.773-122.573.001-95.582 77.764-173.345 173.346-173.346 46.302 0 89.834 18.031 122.574 50.773 32.74 32.739 50.772 76.271 50.772 122.573-.001 95.582-77.764 173.345-173.346 173.346z"/><path d="m315.541 46.226c-82.839 0-150.233 67.394-150.233 150.233s67.395 150.233 150.233 150.233 150.233-67.394 150.233-150.233-67.394-150.233-150.233-150.233zm0 277.354c-70.094 0-127.121-57.026-127.121-127.121s57.027-127.121 127.121-127.121 127.121 57.026 127.121 127.121-57.027 127.121-127.121 127.121z"/><path d="m372.712 122.944-71.557 71.557c-4.513 4.513-4.513 11.83 0 16.344 2.257 2.256 5.214 3.385 8.172 3.385s5.916-1.129 8.172-3.385l71.557-71.557c4.513-4.513 4.513-11.83 0-16.344-4.514-4.512-11.832-4.512-16.344 0z"/><path d="m273.279 222.375-31.253 31.254c-4.513 4.513-4.513 11.83 0 16.344 2.257 2.256 5.214 3.385 8.172 3.385s5.916-1.129 8.172-3.385l31.253-31.254c4.513-4.513 4.513-11.83 0-16.344-4.514-4.511-11.83-4.511-16.344 0z"/><path d="m333.885 96.398c-4.513-4.512-11.83-4.512-16.344 0l-102.061 102.061c-4.513 4.513-4.513 11.83 0 16.344 2.257 2.256 5.214 3.385 8.172 3.385s5.916-1.129 8.172-3.385l102.062-102.062c4.512-4.512 4.512-11.829-.001-16.343z"/></g></svg>