<svg enable-background="new 0 0 512 512" viewBox="0 0 512 512" xmlns="http://www.w3.org/2000/svg"><g fill="#269af2"><circle cx="243.907" cy="241.3" r="28.959"/><circle cx="129.772" cy="382.228" r="28.959"/><circle cx="358.041" cy="310.884" r="28.959"/><circle cx="472.175" cy="74.321" r="28.959"/></g><path d="m500.416 444.804h-433.22v-433.22c0-6.398-5.187-11.584-11.584-11.584s-11.583 5.186-11.583 11.584v433.22h-32.445c-6.397 0-11.584 5.186-11.584 11.584s5.187 11.584 11.584 11.584h32.445v32.445c0 6.398 5.187 11.584 11.584 11.584s11.584-5.186 11.584-11.584v-32.445h433.22c6.397 0 11.584-5.186 11.584-11.584s-5.188-11.584-11.585-11.584z" fill="#11113f"/><path d="m472.173 34.906c-21.733 0-39.414 17.681-39.414 39.414 0 11.205 4.708 21.326 12.241 28.509l-81.108 169.074c-1.91-.285-3.863-.437-5.851-.437-10.011 0-19.155 3.758-26.114 9.928l-49.818-30.37c.792-3.11 1.215-6.366 1.215-9.72 0-21.733-17.681-39.415-39.414-39.415s-39.414 17.681-39.414 39.415c0 8.008 2.407 15.461 6.526 21.687l-67.752 82.198c-4.211-1.539-8.755-2.38-13.493-2.38-21.733 0-39.414 17.681-39.414 39.415 0 21.733 17.681 39.414 39.414 39.414s39.414-17.681 39.414-39.414c0-8.588-2.77-16.537-7.451-23.019l67.15-81.467c4.632 1.917 9.703 2.98 15.019 2.98 10.011 0 19.155-3.758 26.114-9.928l49.818 30.37c-.792 3.11-1.215 6.366-1.215 9.72 0 21.733 17.681 39.414 39.414 39.414 21.732 0 39.414-17.681 39.414-39.414 0-11.426-4.892-21.728-12.685-28.933l80.952-168.749c2.101.348 4.255.537 6.452.537 21.733 0 39.414-17.681 39.414-39.414s-17.681-39.415-39.414-39.415zm-342.396 363.563c-8.958 0-16.246-7.288-16.246-16.246 0-8.959 7.288-16.247 16.246-16.247s16.246 7.288 16.246 16.247c.001 8.958-7.287 16.246-16.246 16.246zm114.133-140.919c-8.958 0-16.246-7.288-16.246-16.246 0-8.959 7.288-16.247 16.246-16.247s16.246 7.288 16.246 16.247c0 8.957-7.288 16.246-16.246 16.246zm114.131 69.575c-8.958 0-16.246-7.288-16.246-16.246s7.288-16.246 16.246-16.246 16.246 7.288 16.246 16.246-7.288 16.246-16.246 16.246zm114.132-236.558c-8.958 0-16.246-7.288-16.246-16.246s7.288-16.246 16.246-16.246 16.246 7.288 16.246 16.246-7.287 16.246-16.246 16.246z" fill="#11113f"/></svg>