<svg enable-background="new 0 0 512 512" viewBox="0 0 512 512" xmlns="http://www.w3.org/2000/svg"><path d="m178.146 256-163.226 169.991c-2.062-2.085-3.336-4.958-3.336-8.109v-323.764c0-3.151 1.274-6.024 3.336-8.109z" fill="#ff9e24"/><path d="m500.416 94.118v323.765c0 3.151-1.274 6.024-3.336 8.109l-163.226-169.992 163.226-169.991c2.062 2.085 3.336 4.958 3.336 8.109z" fill="#ff9e24"/><path d="m488.833 82.534h-465.666c-3.22 0-6.139 1.332-8.248 3.475l241.081 246.444 241.08-246.444c-2.108-2.143-5.027-3.475-8.247-3.475z" fill="#ffe1d6"/><path d="m333.854 256 163.226 169.991c-2.108 2.143-5.027 3.475-8.248 3.475h-465.665c-3.22 0-6.139-1.332-8.248-3.475l163.227-169.991 77.854 76.453z" fill="#ffb14d"/><path d="m512 417.882v-323.764c0-5.995-2.307-11.446-6.057-15.564-.057-.067-.12-.131-.18-.198-4.233-4.543-10.247-7.405-16.931-7.405h-465.665c-6.676 0-12.683 2.855-16.915 7.388-.065.074-.136.145-.199.219-3.747 4.117-6.053 9.567-6.053 15.56v323.765c0 5.996 2.309 11.449 6.059 15.567.051.061.109.118.162.178 4.233 4.552 10.254 7.422 16.946 7.422h465.665c6.684 0 12.698-2.862 16.931-7.405.059-.067.123-.13.18-.198 3.75-4.119 6.057-9.57 6.057-15.565zm-398.433-94.628c-4.614-4.431-11.947-4.281-16.378.334l-74.021 77.09v-289.355l138.916 144.677-37.525 39.082c-4.431 4.614-4.281 11.947.334 16.378 2.245 2.156 5.135 3.228 8.021 3.228 3.043 0 6.083-1.192 8.358-3.561l36.873-38.402 53.455 55.672c6.473 6.742 15.139 10.454 24.401 10.454s17.928-3.714 24.401-10.454l53.455-55.672 139.379 145.157h-434.471l75.134-78.25c4.431-4.614 4.281-11.947-.332-16.378zm150.123-10.902c-2.063 2.149-4.795 3.333-7.69 3.333-2.896 0-5.626-1.184-7.69-3.333l-209.545-218.234h434.469zm86.226-56.352 138.917-144.677v289.355z" fill="#11113f"/></svg>