<?xml version="1.0" encoding="iso-8859-1"?>
<!-- Generator: Adobe Illustrator 19.0.0, SVG Export Plug-In . SVG Version: 6.00 Build 0)  -->
<svg version="1.1" id="Layer_1" xmlns="http://www.w3.org/2000/svg" xmlns:xlink="http://www.w3.org/1999/xlink" x="0px" y="0px"
	 viewBox="0 0 512 512" style="enable-background:new 0 0 512 512;" xml:space="preserve">
<polygon style="fill:#7A7674;" points="419.33,11.584 150.588,11.584 150.588,500.416 500.416,500.416 500.416,92.67 
	442.497,69.502 "/>
<polygon style="fill:#524E4D;" points="419.33,11.584 419.33,92.67 500.416,92.67 "/>
<g>
	<polygon style="fill:#FF9E24;" points="11.583,209.53 11.583,432.323 141.162,362.267 141.162,297.37 	"/>
	<polygon style="fill:#FF9E24;" points="325.502,209.53 195.923,297.371 195.923,362.267 325.502,432.323 	"/>
</g>
<polygon style="fill:#FFB14D;" points="195.923,297.371 141.162,297.37 11.583,432.323 325.502,432.323 "/>
<path style="fill:#FFE1D6;" d="M11.583,209.53l146.654,152.737c5.668,5.902,14.941,5.902,20.609,0L325.502,209.53H11.583z"/>
<g>
	<path style="fill:#11113F;" d="M305.88,149.916l19.619-18.257l19.622,18.258c2.223,2.069,5.056,3.103,7.891,3.103
		s5.668-1.034,7.891-3.103l27.514-25.6c4.684-4.359,4.947-11.688,0.591-16.371c-4.358-4.684-11.689-4.949-16.371-0.591
		l-19.623,18.258l-19.623-18.258c-4.446-4.138-11.333-4.137-15.782,0.001l-19.618,18.256l-19.618-18.256
		c-4.683-4.359-12.012-4.095-16.371,0.588c-4.359,4.683-4.095,12.013,0.588,16.371l27.509,25.6
		C294.544,154.054,301.432,154.054,305.88,149.916z"/>
	<path style="fill:#11113F;" d="M511.942,91.514c-0.028-0.28-0.076-0.555-0.124-0.829c-0.017-0.097-0.025-0.197-0.045-0.294
		c-0.066-0.331-0.152-0.656-0.246-0.977c-0.012-0.039-0.018-0.08-0.03-0.118c-0.1-0.326-0.217-0.644-0.343-0.957
		c-0.014-0.036-0.024-0.073-0.039-0.108c-0.123-0.295-0.262-0.58-0.408-0.863c-0.028-0.054-0.05-0.11-0.079-0.163
		c-0.136-0.254-0.287-0.496-0.441-0.738c-0.05-0.079-0.093-0.16-0.145-0.237c-0.145-0.217-0.305-0.42-0.463-0.626
		c-0.073-0.095-0.138-0.193-0.214-0.286c-0.175-0.212-0.363-0.411-0.553-0.609c-0.071-0.074-0.133-0.154-0.205-0.227L427.521,3.395
		c-0.073-0.073-0.153-0.134-0.227-0.205c-0.199-0.189-0.397-0.378-0.609-0.553c-0.093-0.076-0.192-0.141-0.286-0.214
		c-0.205-0.159-0.41-0.319-0.626-0.463c-0.078-0.051-0.16-0.095-0.237-0.145c-0.242-0.154-0.484-0.306-0.738-0.441
		c-0.053-0.029-0.11-0.051-0.163-0.079c-0.281-0.146-0.568-0.285-0.863-0.408c-0.036-0.015-0.073-0.025-0.108-0.039
		c-0.313-0.126-0.631-0.243-0.957-0.343c-0.039-0.012-0.079-0.019-0.118-0.03c-0.321-0.094-0.645-0.18-0.977-0.246
		c-0.097-0.02-0.197-0.028-0.294-0.045c-0.275-0.047-0.549-0.096-0.829-0.124C420.104,0.02,419.718,0,419.33,0H150.588
		c-6.397,0-11.584,5.187-11.584,11.584v163.195c0,6.397,5.187,11.584,11.584,11.584s11.584-5.187,11.584-11.584V23.167h245.575
		V92.67c0,6.397,5.187,11.584,11.584,11.584h69.502v384.579H162.171v-21.758c0-6.397-5.187-11.584-11.584-11.584
		s-11.584,5.187-11.584,11.584v33.341c0,6.397,5.187,11.584,11.584,11.584h349.828c6.397,0,11.584-5.187,11.584-11.584V92.67
		C511.999,92.282,511.98,91.896,511.942,91.514z M430.913,39.55l41.536,41.536h-41.536V39.55z"/>
	<path style="fill:#11113F;" d="M325.502,443.906L325.502,443.906C325.503,443.906,325.503,443.906,325.502,443.906
		c0.378,0,0.755-0.021,1.131-0.057c0.153-0.015,0.302-0.043,0.454-0.064c0.218-0.03,0.436-0.057,0.652-0.1
		c0.177-0.035,0.349-0.081,0.522-0.124c0.188-0.046,0.376-0.089,0.562-0.145c0.175-0.052,0.345-0.116,0.517-0.176
		c0.181-0.064,0.361-0.125,0.539-0.197c0.166-0.067,0.326-0.145,0.488-0.22c0.177-0.082,0.354-0.162,0.527-0.254
		c0.158-0.083,0.309-0.175,0.463-0.265c0.167-0.098,0.335-0.195,0.497-0.302c0.158-0.104,0.308-0.217,0.461-0.327
		c0.148-0.108,0.297-0.213,0.44-0.329c0.162-0.13,0.314-0.27,0.469-0.408c0.098-0.088,0.203-0.168,0.299-0.261
		c0.027-0.025,0.05-0.054,0.076-0.081c0.161-0.158,0.31-0.324,0.462-0.491c0.109-0.119,0.224-0.236,0.327-0.359
		c0.127-0.152,0.243-0.314,0.363-0.473c0.11-0.146,0.227-0.29,0.33-0.44c0.096-0.14,0.178-0.29,0.269-0.433
		c0.109-0.176,0.224-0.35,0.322-0.531c0.081-0.148,0.149-0.306,0.224-0.458c0.089-0.183,0.185-0.363,0.264-0.548
		c0.079-0.184,0.141-0.376,0.211-0.565c0.059-0.161,0.126-0.321,0.177-0.484c0.061-0.196,0.108-0.398,0.159-0.598
		c0.043-0.164,0.092-0.328,0.127-0.495c0.038-0.181,0.061-0.367,0.092-0.551c0.031-0.193,0.067-0.385,0.088-0.579
		c0.017-0.163,0.023-0.331,0.034-0.497c0.015-0.22,0.031-0.439,0.034-0.659c0-0.038,0.006-0.075,0.006-0.114V209.531
		c0-0.038-0.006-0.075-0.006-0.114c-0.002-0.22-0.019-0.439-0.034-0.659c-0.012-0.166-0.016-0.332-0.034-0.497
		c-0.021-0.193-0.057-0.386-0.088-0.579c-0.03-0.184-0.053-0.371-0.092-0.551c-0.035-0.167-0.085-0.329-0.127-0.495
		c-0.051-0.2-0.097-0.402-0.159-0.598c-0.052-0.163-0.118-0.323-0.177-0.484c-0.069-0.189-0.132-0.381-0.211-0.565
		c-0.079-0.185-0.175-0.366-0.264-0.548c-0.075-0.153-0.142-0.309-0.224-0.458c-0.098-0.181-0.214-0.356-0.323-0.532
		c-0.089-0.144-0.171-0.292-0.266-0.431c-0.103-0.152-0.22-0.295-0.331-0.443c-0.119-0.159-0.234-0.32-0.361-0.47
		c-0.103-0.123-0.218-0.24-0.327-0.359c-0.152-0.167-0.301-0.334-0.462-0.491c-0.027-0.025-0.049-0.054-0.076-0.081
		c-0.092-0.088-0.191-0.162-0.284-0.247c-0.163-0.147-0.326-0.293-0.497-0.431c-0.141-0.114-0.288-0.218-0.434-0.324
		c-0.158-0.115-0.315-0.231-0.48-0.338c-0.162-0.107-0.328-0.204-0.495-0.3c-0.158-0.093-0.315-0.184-0.477-0.27
		c-0.175-0.092-0.352-0.174-0.531-0.256c-0.164-0.075-0.329-0.151-0.497-0.219c-0.181-0.073-0.364-0.137-0.547-0.2
		c-0.174-0.06-0.346-0.119-0.524-0.171c-0.188-0.056-0.378-0.101-0.568-0.146c-0.176-0.042-0.351-0.085-0.529-0.118
		c-0.205-0.038-0.41-0.066-0.616-0.094c-0.168-0.022-0.334-0.048-0.503-0.063c-0.231-0.021-0.461-0.028-0.693-0.035
		c-0.117-0.003-0.231-0.017-0.349-0.017H11.583c-0.13,0-0.256,0.015-0.386,0.02c-0.215,0.007-0.431,0.014-0.645,0.032
		c-0.182,0.016-0.361,0.043-0.541,0.067c-0.193,0.027-0.386,0.052-0.578,0.088c-0.19,0.036-0.375,0.081-0.561,0.125
		c-0.18,0.043-0.359,0.086-0.537,0.138c-0.185,0.054-0.367,0.117-0.549,0.18c-0.175,0.06-0.35,0.122-0.524,0.192
		c-0.175,0.071-0.345,0.148-0.515,0.227c-0.174,0.08-0.345,0.16-0.515,0.249c-0.166,0.087-0.327,0.181-0.488,0.275
		c-0.163,0.096-0.327,0.191-0.487,0.297c-0.166,0.108-0.324,0.224-0.483,0.341c-0.145,0.105-0.29,0.21-0.431,0.322
		c-0.171,0.138-0.334,0.285-0.497,0.432c-0.094,0.085-0.192,0.159-0.284,0.247c-0.027,0.025-0.05,0.054-0.076,0.081
		c-0.161,0.158-0.31,0.324-0.462,0.491c-0.109,0.119-0.224,0.236-0.327,0.359c-0.127,0.152-0.242,0.313-0.361,0.47
		c-0.111,0.147-0.228,0.291-0.331,0.443c-0.095,0.14-0.178,0.287-0.266,0.431c-0.109,0.177-0.225,0.351-0.323,0.532
		c-0.081,0.148-0.149,0.306-0.224,0.458c-0.089,0.183-0.185,0.363-0.264,0.548c-0.079,0.184-0.141,0.376-0.211,0.565
		c-0.059,0.161-0.126,0.321-0.177,0.484c-0.061,0.196-0.108,0.398-0.159,0.598c-0.043,0.164-0.092,0.328-0.127,0.495
		c-0.038,0.181-0.061,0.367-0.092,0.551c-0.031,0.193-0.067,0.385-0.088,0.579c-0.017,0.163-0.023,0.331-0.034,0.497
		c-0.015,0.22-0.031,0.439-0.034,0.659c0,0.038-0.006,0.075-0.006,0.114v222.792c0,0.038,0.006,0.075,0.006,0.114
		c0.002,0.22,0.019,0.439,0.034,0.659c0.012,0.166,0.016,0.332,0.034,0.497c0.021,0.193,0.057,0.386,0.088,0.579
		c0.03,0.184,0.053,0.371,0.092,0.551c0.035,0.167,0.085,0.329,0.127,0.495c0.051,0.2,0.097,0.402,0.159,0.598
		c0.052,0.163,0.118,0.323,0.177,0.484c0.07,0.189,0.132,0.381,0.211,0.565c0.079,0.185,0.175,0.366,0.264,0.548
		c0.075,0.153,0.142,0.309,0.224,0.458c0.098,0.181,0.213,0.353,0.322,0.531c0.089,0.145,0.173,0.293,0.269,0.433
		c0.103,0.151,0.219,0.294,0.33,0.44c0.119,0.159,0.235,0.321,0.363,0.473c0.103,0.123,0.218,0.24,0.327,0.359
		c0.152,0.167,0.301,0.334,0.462,0.491c0.027,0.025,0.049,0.054,0.076,0.081c0.097,0.094,0.202,0.173,0.301,0.263
		c0.153,0.137,0.305,0.276,0.465,0.404c0.147,0.119,0.3,0.227,0.452,0.338c0.148,0.108,0.294,0.218,0.447,0.317
		c0.169,0.111,0.342,0.212,0.514,0.313c0.147,0.086,0.293,0.175,0.445,0.255c0.181,0.095,0.364,0.18,0.548,0.264
		c0.155,0.072,0.308,0.146,0.467,0.211c0.184,0.075,0.371,0.139,0.558,0.204c0.166,0.058,0.33,0.119,0.499,0.17
		c0.191,0.057,0.385,0.102,0.578,0.148c0.169,0.042,0.336,0.087,0.507,0.12c0.22,0.043,0.441,0.071,0.663,0.101
		c0.149,0.02,0.295,0.047,0.446,0.063c0.375,0.037,0.753,0.057,1.129,0.057l0,0l0,0h313.919V443.906z M58.819,383.127
		c-4.614-4.433-11.947-4.283-16.378,0.332l-19.274,20.075V238.319l79.318,82.608l-32.671,34.027
		c-4.431,4.614-4.282,11.947,0.332,16.378c2.245,2.157,5.136,3.228,8.022,3.228c3.043,0,6.083-1.192,8.356-3.561l32.019-33.347
		l31.34,32.639c4.946,5.149,11.572,7.987,18.659,7.987c7.087,0,13.714-2.837,18.659-7.988l31.34-32.639l79.779,83.088H38.764
		l20.388-21.234C63.584,394.89,63.435,387.557,58.819,383.127z M234.6,320.927l79.318-82.608v165.215L234.6,320.927z
		 M170.492,354.244c-0.687,0.716-1.439,0.866-1.95,0.866s-1.263-0.151-1.95-0.865L38.764,221.115h259.556L170.492,354.244z"/>
	<path style="fill:#11113F;" d="M119.721,272.588l20.467,19.044c4.446,4.138,11.335,4.135,15.78,0l12.576-11.703l12.574,11.702
		c2.224,2.069,5.057,3.104,7.892,3.104c2.835,0,5.669-1.036,7.892-3.104l20.464-19.044c4.683-4.359,4.947-11.688,0.588-16.371
		c-4.359-4.686-11.69-4.947-16.371-0.588l-12.573,11.701l-12.573-11.701c-4.448-4.14-11.336-4.139-15.782-0.001l-12.578,11.703
		l-12.576-11.703c-4.681-4.357-12.012-4.095-16.371,0.591C114.772,260.9,115.036,268.23,119.721,272.588z"/>
</g>
<g>
</g>
<g>
</g>
<g>
</g>
<g>
</g>
<g>
</g>
<g>
</g>
<g>
</g>
<g>
</g>
<g>
</g>
<g>
</g>
<g>
</g>
<g>
</g>
<g>
</g>
<g>
</g>
<g>
</g>
</svg>
