<svg enable-background="new 0 0 512 512" viewBox="0 0 512 512" xmlns="http://www.w3.org/2000/svg"><path d="m419.33 11.584h-268.742v488.832h349.828v-407.746l-57.919-23.168z" fill="#7a7674"/><path d="m419.33 11.584v81.086h81.086z" fill="#524e4d"/><path d="m11.583 209.53v222.793l129.579-70.056v-64.897z" fill="#ff9e24"/><path d="m325.502 209.53-129.579 87.841v64.896l129.579 70.056z" fill="#ff9e24"/><path d="m195.923 297.371-54.761-.001-129.579 134.953h313.919z" fill="#ffb14d"/><path d="m11.583 209.53 146.654 152.737c5.668 5.902 14.941 5.902 20.609 0l146.656-152.737z" fill="#ffe1d6"/><g fill="#11113f"><path d="m305.88 149.916 19.619-18.257 19.622 18.258c2.223 2.069 5.056 3.103 7.891 3.103s5.668-1.034 7.891-3.103l27.514-25.6c4.684-4.359 4.947-11.688.591-16.371-4.358-4.684-11.689-4.949-16.371-.591l-19.623 18.258-19.623-18.258c-4.446-4.138-11.333-4.137-15.782.001l-19.618 18.256-19.618-18.256c-4.683-4.359-12.012-4.095-16.371.588s-4.095 12.013.588 16.371l27.509 25.6c4.445 4.139 11.333 4.139 15.781.001z"/><path d="m511.942 91.514c-.028-.28-.076-.555-.124-.829-.017-.097-.025-.197-.045-.294-.066-.331-.152-.656-.246-.977-.012-.039-.018-.08-.03-.118-.1-.326-.217-.644-.343-.957-.014-.036-.024-.073-.039-.108-.123-.295-.262-.58-.408-.863-.028-.054-.05-.11-.079-.163-.136-.254-.287-.496-.441-.738-.05-.079-.093-.16-.145-.237-.145-.217-.305-.42-.463-.626-.073-.095-.138-.193-.214-.286-.175-.212-.363-.411-.553-.609-.071-.074-.133-.154-.205-.227l-81.086-81.087c-.073-.073-.153-.134-.227-.205-.199-.189-.397-.378-.609-.553-.093-.076-.192-.141-.286-.214-.205-.159-.41-.319-.626-.463-.078-.051-.16-.095-.237-.145-.242-.154-.484-.306-.738-.441-.053-.029-.11-.051-.163-.079-.281-.146-.568-.285-.863-.408-.036-.015-.073-.025-.108-.039-.313-.126-.631-.243-.957-.343-.039-.012-.079-.019-.118-.03-.321-.094-.645-.18-.977-.246-.097-.02-.197-.028-.294-.045-.275-.047-.549-.096-.829-.124-.385-.04-.771-.06-1.159-.06h-268.742c-6.397 0-11.584 5.187-11.584 11.584v163.195c0 6.397 5.187 11.584 11.584 11.584s11.584-5.187 11.584-11.584v-151.612h245.575v69.503c0 6.397 5.187 11.584 11.584 11.584h69.502v384.579h-326.662v-21.758c0-6.397-5.187-11.584-11.584-11.584s-11.584 5.187-11.584 11.584v33.341c0 6.397 5.187 11.584 11.584 11.584h349.828c6.397 0 11.584-5.187 11.584-11.584v-407.746c0-.388-.019-.774-.057-1.156zm-81.029-51.964 41.536 41.536h-41.536z"/><path d="m325.502 443.906c.001 0 .001 0 0 0 .378 0 .755-.021 1.131-.057.153-.015.302-.043.454-.064.218-.03.436-.057.652-.1.177-.035.349-.081.522-.124.188-.046.376-.089.562-.145.175-.052.345-.116.517-.176.181-.064.361-.125.539-.197.166-.067.326-.145.488-.22.177-.082.354-.162.527-.254.158-.083.309-.175.463-.265.167-.098.335-.195.497-.302.158-.104.308-.217.461-.327.148-.108.297-.213.44-.329.162-.13.314-.27.469-.408.098-.088.203-.168.299-.261.027-.025.05-.054.076-.081.161-.158.31-.324.462-.491.109-.119.224-.236.327-.359.127-.152.243-.314.363-.473.11-.146.227-.29.33-.44.096-.14.178-.29.269-.433.109-.176.224-.35.322-.531.081-.148.149-.306.224-.458.089-.183.185-.363.264-.548.079-.184.141-.376.211-.565.059-.161.126-.321.177-.484.061-.196.108-.398.159-.598.043-.164.092-.328.127-.495.038-.181.061-.367.092-.551.031-.193.067-.385.088-.579.017-.163.023-.331.034-.497.015-.22.031-.439.034-.659 0-.038.006-.075.006-.114v-222.79c0-.038-.006-.075-.006-.114-.002-.22-.019-.439-.034-.659-.012-.166-.016-.332-.034-.497-.021-.193-.057-.386-.088-.579-.03-.184-.053-.371-.092-.551-.035-.167-.085-.329-.127-.495-.051-.2-.097-.402-.159-.598-.052-.163-.118-.323-.177-.484-.069-.189-.132-.381-.211-.565-.079-.185-.175-.366-.264-.548-.075-.153-.142-.309-.224-.458-.098-.181-.214-.356-.323-.532-.089-.144-.171-.292-.266-.431-.103-.152-.22-.295-.331-.443-.119-.159-.234-.32-.361-.47-.103-.123-.218-.24-.327-.359-.152-.167-.301-.334-.462-.491-.027-.025-.049-.054-.076-.081-.092-.088-.191-.162-.284-.247-.163-.147-.326-.293-.497-.431-.141-.114-.288-.218-.434-.324-.158-.115-.315-.231-.48-.338-.162-.107-.328-.204-.495-.3-.158-.093-.315-.184-.477-.27-.175-.092-.352-.174-.531-.256-.164-.075-.329-.151-.497-.219-.181-.073-.364-.137-.547-.2-.174-.06-.346-.119-.524-.171-.188-.056-.378-.101-.568-.146-.176-.042-.351-.085-.529-.118-.205-.038-.41-.066-.616-.094-.168-.022-.334-.048-.503-.063-.231-.021-.461-.028-.693-.035-.117-.003-.231-.017-.349-.017h-313.919c-.13 0-.256.015-.386.02-.215.007-.431.014-.645.032-.182.016-.361.043-.541.067-.193.027-.386.052-.578.088-.19.036-.375.081-.561.125-.18.043-.359.086-.537.138-.185.054-.367.117-.549.18-.175.06-.35.122-.524.192-.175.071-.345.148-.515.227-.174.08-.345.16-.515.249-.166.087-.327.181-.488.275-.163.096-.327.191-.487.297-.166.108-.324.224-.483.341-.145.105-.29.21-.431.322-.171.138-.334.285-.497.432-.094.085-.192.159-.284.247-.027.025-.05.054-.076.081-.161.158-.31.324-.462.491-.109.119-.224.236-.327.359-.127.152-.242.313-.361.47-.111.147-.228.291-.331.443-.095.14-.178.287-.266.431-.109.177-.225.351-.323.532-.081.148-.149.306-.224.458-.089.183-.185.363-.264.548-.079.184-.141.376-.211.565-.059.161-.126.321-.177.484-.061.196-.108.398-.159.598-.043.164-.092.328-.127.495-.038.181-.061.367-.092.551-.031.193-.067.385-.088.579-.017.163-.023.331-.034.497-.015.22-.031.439-.034.659 0 .038-.006.075-.006.114v222.792c0 .038.006.075.006.114.002.22.019.439.034.659.012.166.016.332.034.497.021.193.057.386.088.579.03.184.053.371.092.551.035.167.085.329.127.495.051.2.097.402.159.598.052.163.118.323.177.484.07.189.132.381.211.565.079.185.175.366.264.548.075.153.142.309.224.458.098.181.213.353.322.531.089.145.173.293.269.433.103.151.219.294.33.44.119.159.235.321.363.473.103.123.218.24.327.359.152.167.301.334.462.491.027.025.049.054.076.081.097.094.202.173.301.263.153.137.305.276.465.404.147.119.3.227.452.338.148.108.294.218.447.317.169.111.342.212.514.313.147.086.293.175.445.255.181.095.364.18.548.264.155.072.308.146.467.211.184.075.371.139.558.204.166.058.33.119.499.17.191.057.385.102.578.148.169.042.336.087.507.12.22.043.441.071.663.101.149.02.295.047.446.063.375.037.753.057 1.129.057h313.919v-.004zm-266.683-60.779c-4.614-4.433-11.947-4.283-16.378.332l-19.274 20.075v-165.215l79.318 82.608-32.671 34.027c-4.431 4.614-4.282 11.947.332 16.378 2.245 2.157 5.136 3.228 8.022 3.228 3.043 0 6.083-1.192 8.356-3.561l32.019-33.347 31.34 32.639c4.946 5.149 11.572 7.987 18.659 7.987s13.714-2.837 18.659-7.988l31.34-32.639 79.779 83.088h-259.556l20.388-21.234c4.432-4.615 4.283-11.948-.333-16.378zm175.781-62.2 79.318-82.608v165.215zm-64.108 33.317c-.687.716-1.439.866-1.95.866s-1.263-.151-1.95-.865l-127.828-133.13h259.556z"/><path d="m119.721 272.588 20.467 19.044c4.446 4.138 11.335 4.135 15.78 0l12.576-11.703 12.574 11.702c2.224 2.069 5.057 3.104 7.892 3.104s5.669-1.036 7.892-3.104l20.464-19.044c4.683-4.359 4.947-11.688.588-16.371-4.359-4.686-11.69-4.947-16.371-.588l-12.573 11.701-12.573-11.701c-4.448-4.14-11.336-4.139-15.782-.001l-12.578 11.703-12.576-11.703c-4.681-4.357-12.012-4.095-16.371.591-4.358 4.682-4.094 12.012.591 16.37z"/></g></svg>