<?xml version="1.0" encoding="iso-8859-1"?>
<!-- Generator: Adobe Illustrator 19.0.0, SVG Export Plug-In . SVG Version: 6.00 Build 0)  -->
<svg version="1.1" id="Layer_1" xmlns="http://www.w3.org/2000/svg" xmlns:xlink="http://www.w3.org/1999/xlink" x="0px" y="0px"
	 viewBox="0 0 512 512" style="enable-background:new 0 0 512 512;" xml:space="preserve">
<polygon style="fill:#C21B23;" points="177.392,306.282 177.392,500.709 256,450.85 334.608,500.709 334.608,306.282 "/>
<polygon style="fill:#EE3840;" points="431.946,187.237 401.996,226.366 408.393,275.231 362.849,294.086 343.993,339.631 
	295.129,333.233 256,363.184 216.87,333.233 168.005,339.63 149.15,294.086 103.606,275.23 110.003,226.366 80.054,187.237 
	110.003,148.108 103.606,99.243 149.15,80.387 168.006,34.843 216.87,41.241 256,11.29 295.129,41.241 343.995,34.843 
	362.849,80.388 408.393,99.243 401.996,148.107 "/>
<circle style="fill:#C21B23;" cx="255.996" cy="187.238" r="107.258"/>
<g>
	<path style="fill:#11113F;" d="M440.912,180.373l-27.116-35.426l5.792-44.241c0.664-5.064-2.156-9.943-6.876-11.897l-41.221-17.066
		l-17.065-41.221c-1.952-4.719-6.827-7.536-11.897-6.876l-44.242,5.792L262.863,2.324c-4.051-3.099-9.674-3.099-13.724,0
		L213.712,29.44l-44.241-5.792c-5.063-0.662-9.943,2.156-11.897,6.876l-17.066,41.221L99.288,88.81
		c-4.719,1.954-7.54,6.833-6.876,11.898l5.792,44.242l-27.116,35.423c-3.1,4.05-3.1,9.675,0,13.724l27.116,35.426l-5.792,44.241
		c-0.664,5.064,2.156,9.943,6.876,11.897l41.221,17.065l17.065,41.222c1.512,3.655,4.778,6.163,8.529,6.804v149.957
		c0,4.118,2.241,7.909,5.851,9.894c3.606,1.984,8.01,1.846,11.488-0.359l72.56-46.024l72.56,46.024
		c1.843,1.169,3.943,1.757,6.047,1.757c1.87,0,3.743-0.464,5.44-1.397c3.608-1.985,5.851-5.776,5.851-9.894V350.751
		c3.744-0.644,7.016-3.15,8.528-6.801l17.066-41.221l41.221-17.065c4.719-1.954,7.54-6.833,6.876-11.898l-5.792-44.242
		l27.116-35.426C444.012,190.049,444.012,184.423,440.912,180.373z M323.318,480.178l-61.27-38.861
		c-3.692-2.342-8.403-2.342-12.095,0l-61.27,38.862V348.31l25.029-3.276l35.426,27.116c2.025,1.55,4.444,2.325,6.862,2.325
		c2.418,0,4.837-0.776,6.862-2.325l35.426-27.116l25.029,3.278v131.867H323.318z M393.032,219.503
		c-1.815,2.372-2.617,5.366-2.23,8.328l5.273,40.28l-37.544,15.543c-2.767,1.146-4.967,3.344-6.113,6.113l-15.544,37.544
		l-40.28-5.274c-2.96-0.386-5.956,0.414-8.328,2.23l-32.267,24.698l-32.267-24.698c-1.98-1.516-4.395-2.325-6.862-2.325
		c-0.488,0-0.977,0.032-1.465,0.095l-40.282,5.274l-15.543-37.545c-1.146-2.768-3.345-4.967-6.113-6.114l-37.544-15.543
		l5.273-40.279c0.388-2.961-0.413-5.956-2.23-8.328l-24.698-32.268l24.698-32.267c1.815-2.372,2.617-5.366,2.23-8.328l-5.273-40.28
		l37.545-15.541c2.767-1.146,4.967-3.344,6.113-6.113l15.544-37.544l40.28,5.274c2.963,0.388,5.956-0.414,8.328-2.23L256,25.509
		l32.267,24.698c2.372,1.815,5.369,2.618,8.328,2.23l40.281-5.274l15.543,37.544c1.146,2.768,3.344,4.967,6.113,6.113l37.544,15.544
		l-5.273,40.279c-0.388,2.963,0.413,5.957,2.23,8.328l24.698,32.267L393.032,219.503z"/>
	<path style="fill:#11113F;" d="M187.036,114.395c2.52,0,5.057-0.84,7.157-2.564C211.549,97.585,233.499,89.739,256,89.739
		c6.234,0,11.29-5.055,11.29-11.29c0-6.236-5.056-11.29-11.29-11.29c-27.711,0-54.749,9.667-76.135,27.218
		c-4.82,3.956-5.52,11.07-1.564,15.89C180.534,112.987,183.772,114.395,187.036,114.395z"/>
	<path style="fill:#11113F;" d="M296.26,74.079c-5.875-2.089-12.331,0.979-14.422,6.852c-2.09,5.874,0.978,12.331,6.852,14.421
		c38.763,13.791,64.806,50.717,64.806,91.884c0,53.76-43.736,97.496-97.496,97.496s-97.496-43.736-97.496-97.496
		c0-19.124,5.531-37.634,15.996-53.532c3.429-5.208,1.986-12.209-3.222-15.638c-5.207-3.428-12.209-1.987-15.638,3.222
		c-12.899,19.594-19.716,42.398-19.716,65.948c0,66.211,53.866,120.077,120.077,120.077s120.077-53.866,120.077-120.077
		C376.077,136.54,344.001,91.065,296.26,74.079z"/>
</g>
<g>
</g>
<g>
</g>
<g>
</g>
<g>
</g>
<g>
</g>
<g>
</g>
<g>
</g>
<g>
</g>
<g>
</g>
<g>
</g>
<g>
</g>
<g>
</g>
<g>
</g>
<g>
</g>
<g>
</g>
</svg>
