<svg enable-background="new 0 0 512 512" viewBox="0 0 512 512" xmlns="http://www.w3.org/2000/svg"><path d="m177.392 306.282v194.427l78.608-49.859 78.608 49.859v-194.427z" fill="#c21b23"/><path d="m431.946 187.237-29.95 39.129 6.397 48.865-45.544 18.855-18.856 45.545-48.864-6.398-39.129 29.951-39.13-29.951-48.865 6.397-18.855-45.544-45.544-18.856 6.397-48.864-29.949-39.129 29.949-39.129-6.397-48.865 45.544-18.856 18.856-45.544 48.864 6.398 39.13-29.951 39.129 29.951 48.866-6.398 18.854 45.545 45.544 18.855-6.397 48.864z" fill="#ee3840"/><circle cx="255.996" cy="187.238" fill="#c21b23" r="107.258"/><g fill="#11113f"><path d="m440.912 180.373-27.116-35.426 5.792-44.241c.664-5.064-2.156-9.943-6.876-11.897l-41.221-17.066-17.065-41.221c-1.952-4.719-6.827-7.536-11.897-6.876l-44.242 5.792-35.424-27.114c-4.051-3.099-9.674-3.099-13.724 0l-35.427 27.116-44.241-5.792c-5.063-.662-9.943 2.156-11.897 6.876l-17.066 41.221-41.22 17.065c-4.719 1.954-7.54 6.833-6.876 11.898l5.792 44.242-27.116 35.423c-3.1 4.05-3.1 9.675 0 13.724l27.116 35.426-5.792 44.241c-.664 5.064 2.156 9.943 6.876 11.897l41.221 17.065 17.065 41.222c1.512 3.655 4.778 6.163 8.529 6.804v149.957c0 4.118 2.241 7.909 5.851 9.894 3.606 1.984 8.01 1.846 11.488-.359l72.56-46.024 72.56 46.024c1.843 1.169 3.943 1.757 6.047 1.757 1.87 0 3.743-.464 5.44-1.397 3.608-1.985 5.851-5.776 5.851-9.894v-149.959c3.744-.644 7.016-3.15 8.528-6.801l17.066-41.221 41.221-17.065c4.719-1.954 7.54-6.833 6.876-11.898l-5.792-44.242 27.116-35.426c3.097-4.049 3.097-9.675-.003-13.725zm-117.594 299.805-61.27-38.861c-3.692-2.342-8.403-2.342-12.095 0l-61.27 38.862v-131.869l25.029-3.276 35.426 27.116c2.025 1.55 4.444 2.325 6.862 2.325s4.837-.776 6.862-2.325l35.426-27.116 25.029 3.278v131.867h.001zm69.714-260.675c-1.815 2.372-2.617 5.366-2.23 8.328l5.273 40.28-37.544 15.543c-2.767 1.146-4.967 3.344-6.113 6.113l-15.544 37.544-40.28-5.274c-2.96-.386-5.956.414-8.328 2.23l-32.267 24.698-32.267-24.698c-1.98-1.516-4.395-2.325-6.862-2.325-.488 0-.977.032-1.465.095l-40.282 5.274-15.543-37.545c-1.146-2.768-3.345-4.967-6.113-6.114l-37.544-15.543 5.273-40.279c.388-2.961-.413-5.956-2.23-8.328l-24.698-32.268 24.698-32.267c1.815-2.372 2.617-5.366 2.23-8.328l-5.273-40.28 37.545-15.541c2.767-1.146 4.967-3.344 6.113-6.113l15.544-37.544 40.28 5.274c2.963.388 5.956-.414 8.328-2.23l32.267-24.696 32.267 24.698c2.372 1.815 5.369 2.618 8.328 2.23l40.281-5.274 15.543 37.544c1.146 2.768 3.344 4.967 6.113 6.113l37.544 15.544-5.273 40.279c-.388 2.963.413 5.957 2.23 8.328l24.698 32.267z"/><path d="m187.036 114.395c2.52 0 5.057-.84 7.157-2.564 17.356-14.246 39.306-22.092 61.807-22.092 6.234 0 11.29-5.055 11.29-11.29 0-6.236-5.056-11.29-11.29-11.29-27.711 0-54.749 9.667-76.135 27.218-4.82 3.956-5.52 11.07-1.564 15.89 2.233 2.72 5.471 4.128 8.735 4.128z"/><path d="m296.26 74.079c-5.875-2.089-12.331.979-14.422 6.852-2.09 5.874.978 12.331 6.852 14.421 38.763 13.791 64.806 50.717 64.806 91.884 0 53.76-43.736 97.496-97.496 97.496s-97.496-43.736-97.496-97.496c0-19.124 5.531-37.634 15.996-53.532 3.429-5.208 1.986-12.209-3.222-15.638-5.207-3.428-12.209-1.987-15.638 3.222-12.899 19.594-19.716 42.398-19.716 65.948 0 66.211 53.866 120.077 120.077 120.077s120.077-53.866 120.077-120.077c-.001-50.696-32.077-96.171-79.818-113.157z"/></g></svg>