<svg enable-background="new 0 0 512 512" viewBox="0 0 512 512" xmlns="http://www.w3.org/2000/svg"><path d="m467.403 347.511h-56.76v104.253h56.76c12.742 0 23.167-10.425 23.167-23.167v-57.919c0-12.741-10.425-23.167-23.167-23.167z" fill="#269af2"/><path d="m467.403 202.715h-56.76v104.253h56.76c12.742 0 23.167-10.425 23.167-23.167v-57.919c0-12.742-10.425-23.167-23.167-23.167z" fill="#ee3840"/><path d="m467.403 57.919h-56.76v104.253h56.76c12.742 0 23.167-10.425 23.167-23.167v-57.919c0-12.742-10.425-23.167-23.167-23.167z" fill="#c21b23"/><path d="m154.643 11.584v488.833h-48.652c-25.484 0-46.335-20.851-46.335-46.335v-396.163c0-25.484 20.851-46.335 46.335-46.335z" fill="#181818"/><path d="m432.652 57.919v396.163c0 25.484-20.851 46.335-46.335 46.335h-231.674v-488.833h231.674c25.484 0 46.335 20.85 46.335 46.335z" fill="#4c5870"/><path d="m466.244 173.756c19.162 0 34.751-15.589 34.751-34.751v-57.919c0-19.162-15.589-34.751-34.751-34.751h-23.174c-5.382-26.405-28.783-46.335-56.753-46.335h-280.326c-31.936 0-57.919 25.982-57.919 57.919v12.742h-25.484c-6.397 0-11.584 5.186-11.584 11.584s5.187 11.584 11.584 11.584h25.484v92.67h-25.484c-6.397 0-11.584 5.186-11.584 11.584s5.187 11.584 11.584 11.584h25.484v92.67h-25.484c-6.397 0-11.584 5.186-11.584 11.584s5.187 11.584 11.584 11.584h25.484v92.67h-25.484c-6.397 0-11.584 5.186-11.584 11.584s5.187 11.584 11.584 11.584h25.484v12.742c0 31.936 25.982 57.919 57.919 57.919h280.326c27.97 0 51.371-19.93 56.753-46.335h23.174c19.162 0 34.751-15.589 34.751-34.751v-57.919c0-19.162-15.589-34.751-34.751-34.751h-22.009v-18.538h22.009c19.162 0 34.751-15.589 34.751-34.751v-57.919c0-19.162-15.589-34.751-34.751-34.751h-22.009v-18.534h22.009zm11.584-92.67v57.919c0 6.387-5.196 11.584-11.584 11.584h-22.009v-81.087h22.009c6.388 0 11.584 5.197 11.584 11.584zm-91.511 407.747h-220.091v-92.67c0-6.398-5.187-11.584-11.584-11.584s-11.584 5.186-11.584 11.584v92.67h-37.068c-19.162 0-34.751-15.589-34.751-34.751v-12.742h25.484c6.397 0 11.584-5.186 11.584-11.584s-5.187-11.584-11.584-11.584h-25.483v-92.67h25.484c6.397 0 11.584-5.186 11.584-11.584s-5.187-11.584-11.584-11.584h-25.484v-92.67h25.484c6.397 0 11.584-5.186 11.584-11.584s-5.187-11.584-11.584-11.584h-25.484v-92.67h25.484c6.397 0 11.584-5.186 11.584-11.584s-5.187-11.584-11.584-11.584h-25.484v-12.739c0-19.162 15.589-34.751 34.751-34.751h37.068v333.486c0 6.398 5.187 11.584 11.584 11.584s11.584-5.186 11.584-11.584v-333.487h220.091c19.162 0 34.751 15.589 34.751 34.751v396.163c-.001 19.162-15.59 34.752-34.752 34.752zm79.927-127.421c6.387 0 11.584 5.196 11.584 11.584v57.919c0 6.387-5.196 11.584-11.584 11.584h-22.009v-81.086h22.009zm0-145.955c6.387 0 11.584 5.196 11.584 11.584v57.919c0 6.387-5.196 11.584-11.584 11.584h-22.009v-81.086h22.009z" fill="#11113f"/></svg>