<svg enable-background="new 0 0 512 512" viewBox="0 0 512 512" xmlns="http://www.w3.org/2000/svg"><path d="m474.64 115.652-78.242-78.243-155.423 139.023 6.318 88.325 88.325 6.319z" fill="#c21b23"/><path d="m189.557 296.2-172.276 172.277-6.373 32.229 32.614-5.987 172.278-172.276z" fill="#ccc4c1"/><path d="m337.982 269.245-94.643-94.643c-58.378-22.204-126.909-9.799-173.934 37.227l231.351 231.351c47.024-47.026 59.43-115.558 37.226-173.935z" fill="#ee3840"/><path d="m508.604 130.843-24.531-24.531c-.043-.043-.086-.086-.129-.129l-78.127-78.127c-.043-.044-.086-.087-.13-.13l-24.53-24.53c-4.528-4.528-11.872-4.528-16.401 0-4.53 4.529-4.53 11.872 0 16.402l15.931 15.931-141.147 126.253c-62.735-20.98-132.504-4.771-179.541 42.266-2.175 2.175-3.397 5.125-3.397 8.201s1.222 6.026 3.397 8.201l94.353 94.353-139.473 139.474c-1.346 1.346-2.34 3.003-2.895 4.825l-11.481 37.723c-1.247 4.097-.135 8.548 2.895 11.578 2.208 2.207 5.17 3.397 8.201 3.397 1.127 0 2.265-.165 3.376-.502l37.723-11.481c1.821-.554 3.478-1.548 4.825-2.895l139.475-139.475 94.353 94.353c2.174 2.174 5.125 3.397 8.201 3.397s6.026-1.222 8.201-3.397c47.037-47.037 63.248-116.804 42.266-179.541l126.251-141.148 15.931 15.931c4.529 4.53 11.872 4.53 16.402 0 4.529-4.528 4.529-11.871.001-16.399zm-465.433 347.827-14.145 4.305 4.305-14.145 137.424-137.424 9.84 9.84zm293.137-225.675-32.865-32.865c-4.529-4.529-11.872-4.529-16.402 0-4.529 4.529-4.529 11.872 0 16.402l39.746 39.746c18.717 51.686 7.934 109.435-27.55 150.809l-93.973-93.973c-.022-.023-.044-.045-.066-.067-.023-.022-.045-.044-.067-.066l-26.108-26.108c-.022-.023-.044-.045-.066-.067-.023-.022-.045-.044-.067-.066l-93.973-93.973c41.373-35.485 99.121-46.268 150.809-27.55l23.343 23.343c4.529 4.529 11.872 4.529 16.402 0s4.529-11.872 0-16.402l-16.464-16.464 138.108-123.537 62.728 62.728z" fill="#11113f"/></svg>