<svg enable-background="new 0 0 512 512" viewBox="0 0 512 512" xmlns="http://www.w3.org/2000/svg"><path d="m198.714 10.51-157.331 157.33 17.745 47.471-17.745 47.47 140.278 140.277 98.432 98.432 204.8-204.801z" fill="#e6e2e0"/><path d="m42.434 167.84v94.941l47.47-47.47z" fill="#ccc4c1"/><path d="m125.111 413.967 215.666-215.665-44.727-44.727-215.665 215.666 7.499 37.227z" fill="#1f5985"/><path d="m78.283 371.343c-31.446 31.446-40.994 61.018-28.643 73.369s41.923 2.803 73.369-28.643z" fill="#ccc4c1"/><path d="m271.374 161.778 104.585-104.585c16.583-16.583 43.566-16.583 60.149 0s16.583 43.566 0 60.149l-104.585 104.585z" fill="#269af2"/><g fill="#11113f"><path d="m29.873 263.808c.009.09.027.179.039.269.03.251.063.501.111.749.016.077.039.152.056.229.057.259.117.516.193.771.017.055.039.107.057.162.087.272.18.542.289.808.016.037.035.073.05.109.118.276.244.551.387.819.022.042.049.081.073.122.141.256.288.51.453.757.067.101.146.197.218.295.128.179.252.359.394.532.222.272.457.534.707.784l50.962 50.961c2.053 2.052 4.742 3.078 7.431 3.078s5.38-1.027 7.431-3.078c4.104-4.104 4.104-10.759 0-14.864l-43.53-43.53 40.039-40.039c1.971-1.972 3.078-4.644 3.078-7.431s-1.108-5.46-3.078-7.431l-40.038-40.04 142.469-142.466 83.288 83.288c4.105 4.103 10.76 4.104 14.864 0s4.104-10.759 0-14.864l-90.72-90.72c-1.972-1.97-4.645-3.078-7.432-3.078s-5.461 1.108-7.431 3.078l-157.332 157.331c-.248.249-.482.509-.703.778-.184.224-.35.457-.512.692-.032.046-.068.088-.1.136-.184.274-.35.557-.506.845-.006.012-.015.022-.02.035-.154.289-.292.583-.417.883-.006.016-.015.03-.021.045-.116.282-.215.568-.307.855-.013.039-.028.077-.04.116-.081.267-.144.538-.203.81-.014.064-.034.127-.046.191-.051.26-.085.52-.117.782-.009.08-.026.158-.035.238-.034.342-.05.684-.05 1.027v94.942c0 .009.001.018.001.026 0 .332.015.666.048.998zm20.969-70.595 22.098 22.098-22.098 22.098z"/><path d="m324.091 230.41c2.053 2.051 4.742 3.078 7.431 3.078s5.379-1.027 7.431-3.078l104.586-104.586c20.68-20.682 20.68-54.331 0-75.013-20.683-20.679-54.332-20.679-75.013 0l-104.585 104.586c-4.104 4.104-4.104 10.759 0 14.864l.28.28-193.371 193.371c-29.833 29.833-42.571 60.024-34.586 79.313l-15.538 15.539c-4.104 4.104-4.104 10.759 0 14.864 2.053 2.051 4.742 3.078 7.431 3.078s5.38-1.027 7.431-3.078l15.561-15.562c3.406 1.41 7.603 2.397 12.712 2.396 5.306 0 11.586-1.058 18.957-3.792 15.033-5.578 31.5-17.047 47.622-33.168l193.372-193.372zm-248.583 206.553c-8.568 3.177-15.459 3.298-18.437.318-5.69-5.69-.858-25.883 21.42-50.865l29.444 29.443c-11.317 10.085-22.6 17.458-32.427 21.104zm47.501-35.757-29.863-29.863 185.939-185.939 7.5 7.5-6.89 6.89c-4.104 4.104-4.104 10.759 0 14.864 2.053 2.051 4.742 3.078 7.431 3.078s5.379-1.027 7.431-3.078l6.89-6.89 7.5 7.5zm293.402-323.265c-4.105-4.103-10.758-4.103-14.864 0l-100.099 100.099-14.922-14.922c-.003-.003-.006-.007-.009-.01s-.007-.006-.011-.009l-.269-.269 97.154-97.154c12.484-12.486 32.8-12.486 45.286 0s12.486 32.801 0 45.286l-97.154 97.154-.269-.269c-.003-.003-.006-.007-.009-.01s-.007-.006-.01-.009l-14.922-14.922 100.099-100.1c4.103-4.106 4.103-10.761-.001-14.865z"/><path d="m491.274 289.258-90.72-90.72c-4.105-4.103-10.758-4.103-14.864 0-4.104 4.104-4.104 10.759 0 14.864l83.288 83.288-189.936 189.936-91.001-91.001c-4.104-4.103-10.759-4.103-14.864 0-4.104 4.104-4.104 10.759 0 14.864l98.432 98.432c2.053 2.051 4.742 3.078 7.431 3.078s5.379-1.027 7.431-3.078l204.801-204.801c4.106-4.103 4.106-10.758.002-14.862z"/></g></svg>