<?xml version="1.0" encoding="iso-8859-1"?>
<!-- Generator: Adobe Illustrator 19.0.0, SVG Export Plug-In . SVG Version: 6.00 Build 0)  -->
<svg version="1.1" id="Layer_1" xmlns="http://www.w3.org/2000/svg" xmlns:xlink="http://www.w3.org/1999/xlink" x="0px" y="0px"
	 viewBox="0 0 511.999 511.999" style="enable-background:new 0 0 511.999 511.999;" xml:space="preserve">
<path style="fill:#CCC4C1;" d="M68.682,385.936c-35.568,35.568-46.37,69.016-32.395,82.991s47.423,3.173,82.991-32.395
	L68.682,385.936z"/>
<polygon style="fill:#4C5870;" points="342.675,206.856 118.439,435.125 71.815,387.662 296.051,159.394 "/>
<path style="fill:#269AF2;" d="M285.957,150.073L404.26,31.77c18.759-18.759,49.28-18.759,68.039,0s18.759,49.28,0,68.039
	L353.996,218.112L285.957,150.073z"/>
<path style="fill:#11113F;" d="M508.645,113.209c-4.474-4.473-11.725-4.473-16.201,0l-8.1,8.1l-8.099-8.1l4.769-4.77
	c23.223-23.224,23.223-61.014,0-84.238c-23.225-23.224-61.015-23.223-84.24,0L278.47,142.506c-2.148,2.148-3.355,5.061-3.355,8.1
	c0,3.039,1.207,5.952,3.355,8.1l0.623,0.622L60.053,378.369c-18.192,18.192-31.13,36.765-37.416,53.711
	c-6.093,16.424-4.779,28.005-1.48,35.778L3.355,485.66c-4.473,4.473-4.473,11.726,0,16.201c2.237,2.236,5.168,3.355,8.1,3.355
	s5.864-1.119,8.1-3.355l17.802-17.802c7.774,3.299,19.357,4.613,35.779-1.48c16.946-6.288,35.519-19.226,53.711-37.418
	l219.04-219.041l0.623,0.623c4.474,4.472,11.725,4.472,16.201,0l97.335-97.335l8.1,8.1L354.611,251.043
	c-4.473,4.473-4.473,11.726,0,16.201c4.474,4.473,11.725,4.473,16.201,0L508.645,129.41
	C513.118,124.935,513.118,117.682,508.645,113.209z M65.167,461.1c-9.84,3.651-17.798,3.753-21.297,0.276
	c-0.005-0.005-0.01-0.01-0.015-0.015c-0.006-0.005-0.01-0.01-0.016-0.015c-3.477-3.499-3.373-11.457,0.277-21.297
	c4.179-11.264,12.655-24.204,24.257-37.161l33.955,33.955C89.371,448.444,76.432,456.921,65.167,461.1z M118.746,420.862
	l-34.392-34.393l210.94-210.94l34.392,34.393L118.746,420.862z M464.813,92.241l-12.797,12.799c-0.024,0.023-0.048,0.047-0.072,0.07
	c-0.024,0.023-0.047,0.048-0.071,0.071l-97.264,97.265l-0.6-0.6c-0.008-0.007-0.015-0.015-0.023-0.023
	c-0.008-0.007-0.016-0.015-0.024-0.023l-50.509-50.509c-0.021-0.021-0.04-0.041-0.061-0.062c-0.022-0.021-0.041-0.041-0.062-0.061
	l-0.561-0.561L412.972,40.402c14.293-14.293,37.548-14.291,51.839,0C479.106,54.694,479.106,77.948,464.813,92.241z"/>
<g>
</g>
<g>
</g>
<g>
</g>
<g>
</g>
<g>
</g>
<g>
</g>
<g>
</g>
<g>
</g>
<g>
</g>
<g>
</g>
<g>
</g>
<g>
</g>
<g>
</g>
<g>
</g>
<g>
</g>
</svg>
