<svg enable-background="new 0 0 511.999 511.999" viewBox="0 0 511.999 511.999" xmlns="http://www.w3.org/2000/svg"><path d="m68.682 385.936c-35.568 35.568-46.37 69.016-32.395 82.991s47.423 3.173 82.991-32.395z" fill="#ccc4c1"/><path d="m342.675 206.856-224.236 228.269-46.624-47.463 224.236-228.268z" fill="#4c5870"/><path d="m285.957 150.073 118.303-118.303c18.759-18.759 49.28-18.759 68.039 0s18.759 49.28 0 68.039l-118.303 118.303z" fill="#269af2"/><path d="m508.645 113.209c-4.474-4.473-11.725-4.473-16.201 0l-8.1 8.1-8.099-8.1 4.769-4.77c23.223-23.224 23.223-61.014 0-84.238-23.225-23.224-61.015-23.223-84.24 0l-118.304 118.305c-2.148 2.148-3.355 5.061-3.355 8.1s1.207 5.952 3.355 8.1l.623.622-219.04 219.041c-18.192 18.192-31.13 36.765-37.416 53.711-6.093 16.424-4.779 28.005-1.48 35.778l-17.802 17.802c-4.473 4.473-4.473 11.726 0 16.201 2.237 2.236 5.168 3.355 8.1 3.355s5.864-1.119 8.1-3.355l17.802-17.802c7.774 3.299 19.357 4.613 35.779-1.48 16.946-6.288 35.519-19.226 53.711-37.418l219.04-219.041.623.623c4.474 4.472 11.725 4.472 16.201 0l97.335-97.335 8.1 8.1-113.535 113.535c-4.473 4.473-4.473 11.726 0 16.201 4.474 4.473 11.725 4.473 16.201 0l137.833-137.834c4.473-4.475 4.473-11.728 0-16.201zm-443.478 347.891c-9.84 3.651-17.798 3.753-21.297.276-.005-.005-.01-.01-.015-.015-.006-.005-.01-.01-.016-.015-3.477-3.499-3.373-11.457.277-21.297 4.179-11.264 12.655-24.204 24.257-37.161l33.955 33.955c-12.957 11.601-25.896 20.078-37.161 24.257zm53.579-40.238-34.392-34.393 210.94-210.94 34.392 34.393zm346.067-328.621-12.797 12.799c-.024.023-.048.047-.072.07s-.047.048-.071.071l-97.264 97.265-.6-.6c-.008-.007-.015-.015-.023-.023-.008-.007-.016-.015-.024-.023l-50.509-50.509c-.021-.021-.04-.041-.061-.062-.022-.021-.041-.041-.062-.061l-.561-.561 110.203-110.205c14.293-14.293 37.548-14.291 51.839 0 14.295 14.292 14.295 37.546.002 51.839z" fill="#11113f"/></svg>