<svg enable-background="new 0 0 512 512" viewBox="0 0 512 512" xmlns="http://www.w3.org/2000/svg"><path d="m58.433 105.412c.003.028 21.384 173.208 21.384 173.208l280.625 35.299 33.162-208.507z" fill="#e6e2e0"/><circle cx="124.594" cy="471.457" fill="#181818" r="30.118"/><circle cx="319.201" cy="471.457" fill="#181818" r="30.118"/><g fill="#11113f"><path d="m453.566 0h-46.335c-5.747 0-10.625 4.213-11.461 9.898l-12.171 82.772h-325.143-.012-.012c-.066 0-.13.009-.195.01-.338.006-.675.02-1.007.053-.144.015-.284.045-.427.065-.254.036-.507.07-.756.122-.156.034-.309.08-.465.119-.227.058-.455.112-.675.184-.175.056-.344.125-.514.189-.191.072-.382.14-.568.221-.195.085-.383.181-.573.277-.149.075-.3.148-.446.231-.21.117-.414.244-.616.374-.114.073-.226.145-.337.221-.218.151-.429.31-.637.476-.083.067-.166.133-.248.203-.218.184-.43.375-.635.577-.059.058-.116.118-.174.177-.134.138-.277.266-.405.412-.076.087-.141.182-.214.271-.031.038-.061.078-.093.117-1.977 2.44-2.897 5.575-2.51 8.705.046.379 21.384 173.207 21.384 173.207.65 5.262 4.79 9.412 10.051 10.073l271.343 34.131-10.406 70.76h-244.838c-6.398 0-11.584 5.187-11.584 11.584s5.186 11.584 11.584 11.584h254.842c5.747 0 10.625-4.213 11.461-9.898l56.462-383.948h36.33c6.397 0 11.584-5.187 11.584-11.584s-5.186-11.583-11.584-11.583zm-363.358 267.094c-11.57-93.72-16.539-133.968-18.674-151.257h308.657l-27.106 184.322z"/><path d="m124.589 428.597c-22.995 0-41.701 18.707-41.701 41.701 0 22.995 18.707 41.701 41.701 41.701s41.701-18.707 41.701-41.701-18.707-41.701-41.701-41.701zm0 60.236c-10.219 0-18.534-8.315-18.534-18.534s8.315-18.534 18.534-18.534 18.534 8.315 18.534 18.534c-.001 10.219-8.314 18.534-18.534 18.534z"/><path d="m319.195 428.597c-22.995 0-41.701 18.707-41.701 41.701 0 22.995 18.707 41.701 41.701 41.701s41.701-18.707 41.701-41.701-18.706-41.701-41.701-41.701zm0 60.236c-10.219 0-18.534-8.315-18.534-18.534s8.315-18.534 18.534-18.534 18.534 8.315 18.534 18.534-8.314 18.534-18.534 18.534z"/><path d="m347.138 184.033c.147.006.292.008.438.008 6.2 0 11.336-4.907 11.567-11.154.237-6.394-4.754-11.768-11.146-12.005l-56.825-2.109 1.831-18.634c.626-6.368-4.029-12.037-10.395-12.662-6.372-.62-12.037 4.03-12.662 10.395l-1.97 20.04-83.36-3.094.319-15.575c.131-6.397-4.947-11.688-11.344-11.819-.081-.001-.161-.002-.241-.002-6.288 0-11.447 5.032-11.577 11.346l-.31 15.191-60.297-2.238c-6.386-.251-11.768 4.754-12.005 11.146-.237 6.394 4.753 11.768 11.146 12.005l60.682 2.252-.775 37.875-51.257-4.037c-6.38-.507-11.956 4.26-12.457 10.638s4.26 11.954 10.638 12.457l52.602 4.142-.316 15.469c-.131 6.397 4.947 11.688 11.344 11.819.081.001.161.002.241.002 6.288 0 11.447-5.032 11.577-11.346l.29-14.122 76.441 6.02-1.873 19.053c-.625 6.368 4.029 12.037 10.395 12.662.386.037.768.057 1.147.057 5.887 0 10.927-4.47 11.514-10.451l1.917-19.501 53.417 4.207c.31.024.616.037.922.037 5.985 0 11.058-4.608 11.535-10.676.503-6.378-4.261-11.954-10.638-12.457l-52.969-4.171 4.22-42.93zm-85.556 38.949-78.233-6.161.795-38.838 81.564 3.027z"/></g></svg>