<?xml version="1.0" encoding="iso-8859-1"?>
<!-- Generator: Adobe Illustrator 19.0.0, SVG Export Plug-In . SVG Version: 6.00 Build 0)  -->
<svg version="1.1" id="Layer_1" xmlns="http://www.w3.org/2000/svg" xmlns:xlink="http://www.w3.org/1999/xlink" x="0px" y="0px"
	 viewBox="0 0 512 512" style="enable-background:new 0 0 512 512;" xml:space="preserve">
<path style="fill:#E6E2E0;" d="M58.433,105.412c0.003,0.028,21.384,173.208,21.384,173.208l280.625,35.299l33.162-208.507H58.433z"
	/>
<g>
	<circle style="fill:#181818;" cx="124.594" cy="471.457" r="30.118"/>
	<circle style="fill:#181818;" cx="319.201" cy="471.457" r="30.118"/>
</g>
<g>
	<path style="fill:#11113F;" d="M453.566,0h-46.335c-5.747,0-10.625,4.213-11.461,9.898L383.599,92.67H58.456h-0.012h-0.012
		c-0.066,0-0.13,0.009-0.195,0.01c-0.338,0.006-0.675,0.02-1.007,0.053c-0.144,0.015-0.284,0.045-0.427,0.065
		c-0.254,0.036-0.507,0.07-0.756,0.122c-0.156,0.034-0.309,0.08-0.465,0.119c-0.227,0.058-0.455,0.112-0.675,0.184
		c-0.175,0.056-0.344,0.125-0.514,0.189c-0.191,0.072-0.382,0.14-0.568,0.221c-0.195,0.085-0.383,0.181-0.573,0.277
		c-0.149,0.075-0.3,0.148-0.446,0.231c-0.21,0.117-0.414,0.244-0.616,0.374c-0.114,0.073-0.226,0.145-0.337,0.221
		c-0.218,0.151-0.429,0.31-0.637,0.476c-0.083,0.067-0.166,0.133-0.248,0.203c-0.218,0.184-0.43,0.375-0.635,0.577
		c-0.059,0.058-0.116,0.118-0.174,0.177c-0.134,0.138-0.277,0.266-0.405,0.412c-0.076,0.087-0.141,0.182-0.214,0.271
		c-0.031,0.038-0.061,0.078-0.093,0.117c-1.977,2.44-2.897,5.575-2.51,8.705c0.046,0.379,21.384,173.207,21.384,173.207
		c0.65,5.262,4.79,9.412,10.051,10.073l271.343,34.131l-10.406,70.76H94.471c-6.398,0-11.584,5.187-11.584,11.584
		c0,6.397,5.186,11.584,11.584,11.584h254.842c5.747,0,10.625-4.213,11.461-9.898l56.462-383.948h36.33
		c6.397,0,11.584-5.187,11.584-11.584S459.964,0,453.566,0z M90.208,267.094c-11.57-93.72-16.539-133.968-18.674-151.257h308.657
		l-27.106,184.322L90.208,267.094z"/>
	<path style="fill:#11113F;" d="M124.589,428.597c-22.995,0-41.701,18.707-41.701,41.701c0,22.995,18.707,41.701,41.701,41.701
		s41.701-18.707,41.701-41.701C166.29,447.304,147.583,428.597,124.589,428.597z M124.589,488.833
		c-10.219,0-18.534-8.315-18.534-18.534c0-10.219,8.315-18.534,18.534-18.534s18.534,8.315,18.534,18.534
		C143.122,480.518,134.809,488.833,124.589,488.833z"/>
	<path style="fill:#11113F;" d="M319.195,428.597c-22.995,0-41.701,18.707-41.701,41.701c0,22.995,18.707,41.701,41.701,41.701
		s41.701-18.707,41.701-41.701C360.896,447.304,342.19,428.597,319.195,428.597z M319.195,488.833
		c-10.219,0-18.534-8.315-18.534-18.534c0-10.219,8.315-18.534,18.534-18.534c10.219,0,18.534,8.315,18.534,18.534
		C337.729,480.518,329.415,488.833,319.195,488.833z"/>
	<path style="fill:#11113F;" d="M347.138,184.033c0.147,0.006,0.292,0.008,0.438,0.008c6.2,0,11.336-4.907,11.567-11.154
		c0.237-6.394-4.754-11.768-11.146-12.005l-56.825-2.109l1.831-18.634c0.626-6.368-4.029-12.037-10.395-12.662
		c-6.372-0.62-12.037,4.03-12.662,10.395l-1.97,20.04l-83.36-3.094l0.319-15.575c0.131-6.397-4.947-11.688-11.344-11.819
		c-0.081-0.001-0.161-0.002-0.241-0.002c-6.288,0-11.447,5.032-11.577,11.346l-0.31,15.191l-60.297-2.238
		c-6.386-0.251-11.768,4.754-12.005,11.146c-0.237,6.394,4.753,11.768,11.146,12.005l60.682,2.252l-0.775,37.875l-51.257-4.037
		c-6.38-0.507-11.956,4.26-12.457,10.638s4.26,11.954,10.638,12.457l52.602,4.142l-0.316,15.469
		c-0.131,6.397,4.947,11.688,11.344,11.819c0.081,0.001,0.161,0.002,0.241,0.002c6.288,0,11.447-5.032,11.577-11.346l0.29-14.122
		l76.441,6.02l-1.873,19.053c-0.625,6.368,4.029,12.037,10.395,12.662c0.386,0.037,0.768,0.057,1.147,0.057
		c5.887,0,10.927-4.47,11.514-10.451l1.917-19.501l53.417,4.207c0.31,0.024,0.616,0.037,0.922,0.037
		c5.985,0,11.058-4.608,11.535-10.676c0.503-6.378-4.261-11.954-10.638-12.457l-52.969-4.171l4.22-42.93L347.138,184.033z
		 M261.582,222.982l-78.233-6.161l0.795-38.838l81.564,3.027L261.582,222.982z"/>
</g>
<g>
</g>
<g>
</g>
<g>
</g>
<g>
</g>
<g>
</g>
<g>
</g>
<g>
</g>
<g>
</g>
<g>
</g>
<g>
</g>
<g>
</g>
<g>
</g>
<g>
</g>
<g>
</g>
<g>
</g>
</svg>
