<?xml version="1.0" encoding="iso-8859-1"?>
<!-- Generator: Adobe Illustrator 19.0.0, SVG Export Plug-In . SVG Version: 6.00 Build 0)  -->
<svg version="1.1" id="Layer_1" xmlns="http://www.w3.org/2000/svg" xmlns:xlink="http://www.w3.org/1999/xlink" x="0px" y="0px"
	 viewBox="0 0 512 512" style="enable-background:new 0 0 512 512;" xml:space="preserve">
<polygon style="fill:#3D3D3B;" points="252.025,358.908 152.023,451.088 169.049,317.034 "/>
<polygon style="fill:#CCC4C1;" points="11.584,235.463 116.089,289.601 169.049,317.034 362.479,414.649 500.415,60.915 "/>
<polygon style="fill:#7A7674;" points="500.415,60.915 116.089,289.601 152.023,451.088 169.049,317.034 "/>
<path style="fill:#11113F;" d="M510.463,55.148c-0.253-0.44-0.535-0.865-0.847-1.274c-1.646-2.155-3.929-3.589-6.41-4.204
	c-0.005-0.001-0.008-0.002-0.013-0.003c-0.003-0.001-0.012-0.002-0.017-0.003c-0.007-0.002-0.014-0.006-0.02-0.005
	c-0.196-0.049-0.392-0.09-0.59-0.127c-0.009,0.001-0.013-0.002-0.02-0.003c-0.006-0.001-0.01-0.001-0.016-0.002
	c-2.036-0.379-4.177-0.217-6.193,0.544L7.688,224.554c-4.342,1.55-7.351,5.528-7.661,10.128c-0.312,4.6,2.135,8.946,6.229,11.067
	l99.702,51.648l34.716,156.013c0.306,1.505,0.914,2.962,1.829,4.278c0.436,0.628,0.931,1.209,1.477,1.736
	c1.436,1.389,3.153,2.336,4.972,2.835c0.982,0.27,2.011,0.414,3.067,0.414c0.02,0,0.038,0,0.058,0
	c2.791-0.012,5.586-1.026,7.799-3.066l94.099-86.737l103.287,52.123c2.913,1.471,6.313,1.643,9.362,0.476
	c3.049-1.168,5.463-3.568,6.648-6.61L511.144,65.286c0.2-0.493,0.366-1.001,0.498-1.516c0.196-0.77,0.312-1.552,0.346-2.333
	C512.086,59.294,511.591,57.112,510.463,55.148z M40.546,237.421l351.535-125.523L115.7,276.353L40.546,237.421z M158.727,311.778
	c-0.001,0.002-0.002,0.006-0.005,0.008c-0.002,0.002-0.003,0.007-0.005,0.009c-0.003,0.006-0.007,0.013-0.009,0.019l-0.001,0.001
	c-0.001,0.002-0.002,0.006-0.005,0.009c0,0.001-0.001,0.003-0.002,0.005c-0.002,0.003-0.003,0.007-0.006,0.012
	c-0.001,0.001-0.001,0.002-0.002,0.005c-0.002,0.005-0.005,0.008-0.007,0.013c0,0,0,0.001-0.001,0.002
	c-0.642,1.285-1.022,2.632-1.161,3.982l-8.622,67.885l-19.683-88.46l213.122-126.816L162.156,307.721
	C160.756,308.756,159.57,310.122,158.727,311.778z M167.514,421.055l10.958-86.289l53.411,26.954L167.514,421.055z M356.316,398.565
	l-98.82-49.869c-0.166-0.089-0.334-0.174-0.504-0.255l-66.329-33.472L474.446,95.626L356.316,398.565z"/>
<g>
</g>
<g>
</g>
<g>
</g>
<g>
</g>
<g>
</g>
<g>
</g>
<g>
</g>
<g>
</g>
<g>
</g>
<g>
</g>
<g>
</g>
<g>
</g>
<g>
</g>
<g>
</g>
<g>
</g>
</svg>
