<svg enable-background="new 0 0 512 512" viewBox="0 0 512 512" xmlns="http://www.w3.org/2000/svg"><path d="m252.025 358.908-100.002 92.18 17.026-134.054z" fill="#3d3d3b"/><path d="m11.584 235.463 104.505 54.138 52.96 27.433 193.43 97.615 137.936-353.734z" fill="#ccc4c1"/><path d="m500.415 60.915-384.326 228.686 35.934 161.487 17.026-134.054z" fill="#7a7674"/><path d="m510.463 55.148c-.253-.44-.535-.865-.847-1.274-1.646-2.155-3.929-3.589-6.41-4.204-.005-.001-.008-.002-.013-.003-.003-.001-.012-.002-.017-.003-.007-.002-.014-.006-.02-.005-.196-.049-.392-.09-.59-.127-.009.001-.013-.002-.02-.003-.006-.001-.01-.001-.016-.002-2.036-.379-4.177-.217-6.193.544l-488.649 174.483c-4.342 1.55-7.351 5.528-7.661 10.128-.312 4.6 2.135 8.946 6.229 11.067l99.702 51.648 34.716 156.013c.306 1.505.914 2.962 1.829 4.278.436.628.931 1.209 1.477 1.736 1.436 1.389 3.153 2.336 4.972 2.835.982.27 2.011.414 3.067.414h.058c2.791-.012 5.586-1.026 7.799-3.066l94.099-86.737 103.287 52.123c2.913 1.471 6.313 1.643 9.362.476 3.049-1.168 5.463-3.568 6.648-6.61l137.872-353.573c.2-.493.366-1.001.498-1.516.196-.77.312-1.552.346-2.333.098-2.143-.397-4.325-1.525-6.289zm-469.917 182.273 351.535-125.523-276.381 164.455zm118.181 74.357c-.001.002-.002.006-.005.008-.002.002-.003.007-.005.009-.003.006-.007.013-.009.019l-.001.001c-.001.002-.002.006-.005.009 0 .001-.001.003-.002.005-.002.003-.003.007-.006.012-.001.001-.001.002-.002.005-.002.005-.005.008-.007.013 0 0 0 .001-.001.002-.642 1.285-1.022 2.632-1.161 3.982l-8.622 67.885-19.683-88.46 213.122-126.816-180.184 139.269c-1.4 1.035-2.586 2.401-3.429 4.057zm8.787 109.277 10.958-86.289 53.411 26.954zm188.802-22.49-98.82-49.869c-.166-.089-.334-.174-.504-.255l-66.329-33.472 283.783-219.343z" fill="#11113f"/></svg>