<svg enable-background="new 0 0 512.001 512.001" viewBox="0 0 512.001 512.001" xmlns="http://www.w3.org/2000/svg"><path d="m481.47 47.15c-19.72-19.719-45.937-30.579-73.825-30.579s-54.105 10.86-73.825 30.579l-310.153 310.154c-31.557 31.557-31.557 82.902 0 114.458 15.778 15.778 36.503 23.667 57.229 23.667 20.725 0 41.45-7.889 57.228-23.667l82.918-82.918s.576-.659.818-.818c3.344-2.205 9.114-5.175 15.592 1.078 5.466 5.274 3.617 8.657 2.375 12.217-.564 1.618-1.256 3.091-1.671 4.368-1.641 5.041.469 9.24 3.152 11.924 4.79 4.79 12.557 4.79 17.348 0l222.814-222.813c40.706-40.707 40.706-106.943 0-147.65z" fill="#ccc4c1"/><path d="m80.897 485.617c-19.022 0-36.881-7.384-50.29-20.793-27.73-27.731-27.73-72.851 0-100.582l310.152-310.153c17.865-17.865 41.62-27.704 66.886-27.704 25.267 0 49.02 9.839 66.886 27.704 36.88 36.881 36.88 96.891 0 133.772l-222.813 222.813c-.594.594-1.272.719-1.736.719s-1.141-.125-1.736-.719c-1.051-1.051-.876-1.591-.76-1.948.151-.46.358-.952.572-1.477.345-.852.705-1.755 1.034-2.697l.251-.698c1.363-3.746 4.553-12.517-5.078-21.81-5.568-5.372-11.193-6.501-14.93-6.501-6.373 0-11.27 3.232-12.879 4.293-.588.388-1.401.994-2.554 2.272l-82.717 82.717c-13.407 13.408-31.268 20.792-50.288 20.792z" fill="#ccc4c1"/><path d="m80.897 495.43c-20.726 0-41.45-7.889-57.229-23.667-31.557-31.557-31.557-82.902 0-114.458l310.152-310.155c19.719-19.719 45.937-30.579 73.825-30.579s54.105 10.86 73.825 30.579c40.707 40.707 40.707 106.943 0 147.65l-222.813 222.813c-4.79 4.79-12.557 4.79-17.348 0s-4.79-12.557 0-17.348l222.813-222.813c31.142-31.142 31.142-81.814 0-112.956-15.086-15.086-35.143-23.394-56.477-23.394s-41.393 8.308-56.479 23.394l-310.152 310.155c-10.653 10.653-16.52 24.816-16.52 39.883s5.867 29.23 16.52 39.883c21.992 21.992 57.774 21.99 79.765 0l244.27-244.27c12.817-12.818 12.817-33.672 0-46.488-12.815-12.817-33.671-12.817-46.487 0l-156.93 156.929c-4.789 4.79-12.557 4.79-17.346 0-4.79-4.79-4.79-12.557 0-17.348l156.93-156.929c22.382-22.382 58.8-22.382 81.182 0 22.382 22.383 22.382 58.8 0 81.182l-244.274 244.27c-15.777 15.777-36.502 23.667-57.227 23.667z" fill="#11113f"/></svg>