<svg enable-background="new 0 0 512 512" viewBox="0 0 512 512" xmlns="http://www.w3.org/2000/svg"><circle cx="256.012" cy="256" fill="#ebedec" r="244.416"/><path d="m348.062 397.239c-32.117 0-84.531-14.129-151.846-81.445-30.257-30.255-52.485-60.375-66.068-89.521-11.947-25.634-16.977-49.791-14.949-71.8 2.64-28.644 21.279-46.422 24.475-49.276 1.519-.783 3.271-1.522 4.082-1.719.817.167 2.589.84 4.121 1.564 3.38 2.658 23.262 18.485 42.817 38.04 21.043 21.043 37.711 42.391 38.409 43.289l.257.33c.258.39.973 1.667.945 3.75-.015 1.144-.88 2.614-1.39 3.289l-28.984 28.982 89.363 89.363 28.329-28.415.032-.053c.309-.299 1.539-1.373 3.765-1.911.295-.072.585-.107.885-.107 1.706 0 3.125 1.138 3.139 1.15l.21.199-.015-.041c.899.7 22.25 17.37 43.289 38.409 20.426 20.426 36.818 41.253 38.321 43.176.349.526 1.303 2.296 1.303 3.872 0 1.539-.977 3.069-1.352 3.527-.768.909-18.982 22.094-49.665 24.921-3.087.283-6.275.427-9.473.427z" fill="#4c5870"/><path d="m510.799 231.105c-5.715-58.819-31.915-114.265-73.774-156.125-48.353-48.351-112.64-74.98-181.02-74.98s-132.667 26.629-181.02 74.98c-48.352 48.353-74.98 112.64-74.98 181.02s26.629 132.667 74.98 181.02c48.353 48.352 112.64 74.98 181.02 74.98s132.667-26.629 181.02-74.98c2.172-2.172 3.393-5.119 3.393-8.191s-1.221-6.019-3.393-8.191l-35.593-35.594c6.322-4.906 9.846-9.009 10.184-9.409 3.533-4.183 3.654-10.269.291-14.59-.709-.91-17.607-22.55-38.885-43.827-21.277-21.277-42.917-38.176-43.827-38.884-4.61-3.59-11.174-3.182-15.307.95l-24.602 24.602-81.165-81.165 24.601-24.601c4.132-4.132 4.538-10.695.95-15.307-.709-.91-17.607-22.55-38.884-43.827-21.278-21.278-42.916-38.176-43.827-38.885-4.32-3.363-10.406-3.242-14.59.291-.974.822-23.901 20.534-26.943 53.55-2.123 23.043 3.08 48.202 15.467 74.779 13.87 29.761 36.488 60.436 67.221 91.171 30.735 30.735 61.41 53.351 91.171 67.221 26.575 12.385 51.735 17.586 74.779 15.467 8.435-.777 16.003-2.853 22.608-5.529l31.578 31.578c-91.274 82.702-232.85 80.043-320.883-7.989-90.782-90.782-90.782-238.495 0-329.275 90.782-90.782 238.495-90.782 329.276 0 77.638 77.638 90.347 200.512 30.222 292.167-3.509 5.349-2.018 12.53 3.331 16.04 5.352 3.51 12.531 2.018 16.04-3.331 31.792-48.471 46.197-107.116 40.561-165.136zm-154.86 148.403c-24.434 2.255-76.07-4.629-147.442-76s-78.251-123.011-76-147.442c1.268-13.764 7.555-24.474 12.52-30.962 8.067 6.702 20.902 17.775 33.388 30.261 12.649 12.649 23.88 25.697 30.558 33.748l-25.415 25.415c-4.523 4.523-4.523 11.858 0 16.383l97.546 97.546c4.523 4.523 11.858 4.523 16.383 0l25.416-25.416c8.041 6.67 21.074 17.888 33.747 30.559 12.464 12.464 23.551 25.315 30.262 33.391-6.488 4.964-17.197 11.248-30.963 12.517z" fill="#11113f"/></svg>