<svg enable-background="new 0 0 512 512" viewBox="0 0 512 512" xmlns="http://www.w3.org/2000/svg"><path d="m236.385 422.905v-128.666h-80.94v176.391h109.111v-37.369z" fill="#ee3840"/><path d="m19.311 162.224c-6.48 16.361-10.044 34.181-10.044 52.819s3.564 36.459 10.044 52.818h46.034l.002-105.638z" fill="#ee3840"/><path d="m233.657 112.609h-78.212c-56.574 0-102.435 45.861-102.435 102.435s45.862 102.435 102.435 102.435h78.231z" fill="#ada7a4"/><path d="m417.539 385.359v-340.63l-181.154 67.879h-2.728c-8.376 28.711-13.326 64.107-13.326 102.405 0 38.326 4.956 73.743 13.343 102.466h2.711z" fill="#e6e2e0"/><path d="m431.162 41.37c-31.855 0-58.683 53.929-66.763 127.357l39.233 46.285-39.233 46.285c8.08 73.428 34.908 127.357 66.763 127.357 38.248 0 69.254-77.743 69.254-173.642s-31.006-173.642-69.254-173.642z" fill="#7a7674"/><path d="m235.274 403.98h-10.473c-6.398 0-11.584-5.187-11.584-11.584s5.186-11.584 11.584-11.584h10.473c6.398 0 11.584 5.187 11.584 11.584 0 6.396-5.186 11.584-11.584 11.584z" fill="#c21b23"/><path d="m235.274 368.838h-10.473c-6.398 0-11.584-5.187-11.584-11.584s5.186-11.584 11.584-11.584h10.473c6.398 0 11.584 5.187 11.584 11.584s-5.186 11.584-11.584 11.584z" fill="#c21b23"/><path d="m403.631 168.728h-39.233c-1.622 14.737-2.492 30.256-2.492 46.285s.87 31.548 2.492 46.285h39.233c25.563 0 46.285-20.722 46.285-46.285.001-25.563-20.722-46.285-46.285-46.285z" fill="#181818"/><g fill="#11113f"><path d="m231.915 215.013c0-9.127.342-18.259 1.016-27.146.484-6.379-4.295-11.944-10.673-12.428-6.38-.477-11.943 4.295-12.427 10.674-.719 9.467-1.083 19.19-1.083 28.899 0 24.555 2.246 48.059 6.678 69.858 1.117 5.491 5.945 9.279 11.339 9.279.765 0 1.542-.075 2.32-.234 6.269-1.275 10.319-7.39 9.045-13.66-4.066-19.996-6.215-42.557-6.215-65.242z"/><path d="m403.631 157.143c-6.398 0-11.584 5.187-11.584 11.584s5.186 11.584 11.584 11.584c19.135 0 34.702 15.567 34.702 34.702s-15.567 34.701-34.702 34.701c-6.398 0-11.584 5.187-11.584 11.584s5.186 11.584 11.584 11.584c31.91 0 57.87-25.959 57.87-57.869s-25.96-57.87-57.87-57.87z"/><path d="m490.891 87.939c-14.956-37.5-36.168-58.151-59.729-58.151-6.171 0-12.178 1.429-17.956 4.194l-178.92 67.043h-78.841c-38.99 0-73.466 19.676-94.035 49.617h-39.782c-4.752 0-9.02 2.901-10.769 7.317-7.205 18.189-10.859 37.396-10.859 57.086s3.654 38.895 10.859 57.083c1.75 4.417 6.019 7.317 10.769 7.317h39.782c18.507 26.938 48.27 45.567 82.452 49.032v142.152c0 6.397 5.186 11.584 11.584 11.584h109.11c6.398 0 11.584-5.187 11.584-11.584v-37.368c0-4.856-3.029-9.196-7.586-10.872l-20.584-7.568v-10.897c5.876-.56 10.473-5.506 10.473-11.528s-4.596-10.969-10.473-11.528v-12.086c5.876-.56 10.473-5.506 10.473-11.528s-4.596-10.969-10.473-11.528v-11.537l165.506 62.017c.063.023.125.038.186.06 5.638 2.623 11.492 3.973 17.501 3.973 23.561 0 44.773-20.651 59.729-58.151 13.611-34.129 21.108-79.258 21.108-127.075s-7.497-92.945-21.109-127.074zm-441.746 168.339h-19.399c-4.368-13.264-6.578-27.1-6.578-41.233 0-14.134 2.21-27.97 6.578-41.236h19.4c-4.98 12.794-7.719 26.7-7.719 41.236 0 14.534 2.738 28.439 7.718 41.233zm203.827 185.066v17.701h-85.943v-129.983h57.773v16.609c-6.398 0-11.584 5.187-11.584 11.584s5.186 11.584 11.584 11.584v11.974c-6.398 0-11.584 5.187-11.584 11.584s5.186 11.584 11.584 11.584v18.925c0 4.856 3.029 9.196 7.586 10.872zm-11.481-134.322c-1.542-.76-3.271-1.198-5.106-1.198-.426 0-.846.027-1.259.072h-78.422c-.414-.045-.834-.072-1.259-.072-.317 0-.629.022-.939.047-49.663-.509-89.912-41.047-89.912-90.827 0-50.096 40.756-90.852 90.851-90.852h65.117c-2.513 8.647-4.66 17.884-6.412 27.628-1.132 6.298 3.055 12.319 9.352 13.45.694.125 1.382.185 2.063.185 5.5 0 10.38-3.934 11.388-9.536 2.255-12.546 5.198-24.1 8.76-34.436l133.191-49.908c-2.634 5.031-5.129 10.489-7.472 16.362-13.612 34.13-21.109 79.259-21.109 127.076 0 47.815 7.497 92.945 21.109 127.074 2.354 5.902 4.864 11.386 7.512 16.438zm227.882 26.483c-10.881 27.281-25.164 43.566-38.211 43.566s-27.331-16.287-38.211-43.566c-12.549-31.464-19.461-73.545-19.461-118.492s6.911-87.028 19.461-118.492c10.881-27.281 25.164-43.566 38.211-43.566s27.331 16.287 38.211 43.565c12.549 31.465 19.46 73.546 19.46 118.493s-6.911 87.029-19.46 118.492z"/></g></svg>