<svg enable-background="new 0 0 512.001 512.001" viewBox="0 0 512.001 512.001" xmlns="http://www.w3.org/2000/svg"><g fill="#bec8d6"><path d="m161.869 309.457-32.296 52.82-73.332 52.82c-13.09-11.497-20.908-26.107-20.908-41.998 0-37.155 42.759-67.263 95.516-67.263 10.862 0 21.299 1.28 31.02 3.621z"/><path d="m205.458 331.102c13.077 11.508 20.895 26.107 20.895 41.998 0 37.155-42.759 67.275-95.504 67.275-10.863 0-21.299-1.28-31.031-3.632l30.464-52.82z"/><path d="m412.172 309.468-29.831 52.814-75.798 52.814c-13.077-11.508-20.895-26.107-20.895-41.998 0-37.155 42.759-67.263 95.504-67.263 10.863.001 21.299 1.281 31.02 3.633z"/><path d="m455.773 331.102c13.077 11.508 20.895 26.107 20.895 41.998 0 37.155-42.759 67.275-95.516 67.275-10.863 0-21.299-1.28-31.02-3.632l32.153-52.82z"/></g><path d="m205.458 331.102-105.64 105.64c-17.309-4.186-32.369-11.774-43.578-21.645l105.629-105.64c17.32 4.197 32.38 11.785 43.589 21.645z" fill="#ebedec"/><path d="m455.773 331.102-105.64 105.64c-17.32-4.186-32.381-11.774-43.589-21.645l105.629-105.629c17.319 4.175 32.391 11.774 43.6 21.634z" fill="#ebedec"/><path d="m511.817 371.048-47.698-263.968c-2.635-14.949-10.935-27.978-23.371-36.685s-27.517-12.052-42.466-9.414c-6.272 1.106-10.46 7.087-9.353 13.358 1.106 6.272 7.088 10.461 13.358 9.354 18.335-3.238 35.886 9.055 39.129 27.439l44.14 244.284c-4.554-14.943-14.898-28.517-30.223-39.312-4.262-3.002-8.83-5.697-13.626-8.109-.225-.123-.454-.234-.686-.342-17.527-8.668-38.228-13.356-59.865-13.356-27.867 0-54.21 7.745-74.175 21.807-14.909 10.501-25.098 23.634-29.834 38.098-6.586-2.686-13.747-4.109-21.147-4.109-7.399 0-14.56 1.423-21.147 4.109-4.736-14.463-14.925-27.596-29.834-38.098-4.263-3.003-8.831-5.698-13.628-8.11-.223-.122-.449-.231-.677-.338-17.528-8.671-38.232-13.359-59.871-13.359-27.867 0-54.21 7.745-74.175 21.807-15.328 10.796-25.67 24.372-30.224 39.317l44.151-244.337c1.566-8.883 6.498-16.624 13.886-21.798 7.389-5.173 16.348-7.159 25.233-5.594 6.271 1.105 12.252-3.082 13.358-9.354 1.106-6.271-3.082-12.252-9.354-13.358-14.949-2.636-30.03.707-42.466 9.414s-20.734 21.735-23.362 36.636l-47.706 264.018c-.608 3.363.308 6.822 2.499 9.444s5.431 4.138 8.849 4.138h13.386c3.371 17.361 14.348 33.205 31.751 45.463 4.266 3.004 8.837 5.701 13.637 8.115.211.115.427.219.642.321 17.534 8.679 38.247 13.372 59.896 13.372 27.867 0 54.21-7.745 74.175-21.807 19.342-13.623 30.748-31.675 32.594-51.316 5.234-3.649 11.62-5.622 18.387-5.622s13.153 1.973 18.387 5.622c1.846 19.642 13.252 37.693 32.594 51.316 4.266 3.004 8.838 5.702 13.638 8.116.209.114.422.217.637.317 17.535 8.68 38.249 13.373 59.899 13.373 27.867 0 54.21-7.745 74.175-21.807 17.403-12.258 28.38-28.102 31.751-45.463h13.387c3.417 0 6.658-1.515 8.849-4.138 2.192-2.622 3.107-6.082 2.5-9.444zm-320.078 40.19c-16.113 11.349-37.739 17.599-60.895 17.599-12.098 0-23.768-1.722-34.462-4.969l48.919-48.918c4.503-4.503 4.504-11.805 0-16.308-4.503-4.504-11.805-4.503-16.308 0l-55.154 55.153c-1.325-.824-2.63-1.669-3.89-2.557-14.885-10.484-23.083-24.029-23.083-38.139s8.198-27.655 23.083-38.139c16.113-11.349 37.739-17.599 60.895-17.599 12.098 0 23.768 1.721 34.462 4.969l-13.106 13.106c-4.503 4.503-4.503 11.805 0 16.308 2.252 2.252 5.203 3.378 8.154 3.378s5.903-1.127 8.154-3.378l19.34-19.34c1.326.824 2.63 1.67 3.891 2.557 14.885 10.484 23.083 24.028 23.083 38.139-.001 14.11-8.198 27.653-23.083 38.138zm250.312 0c-16.113 11.349-37.739 17.599-60.895 17.599-12.098 0-23.768-1.722-34.462-4.969l48.919-48.919c4.503-4.503 4.503-11.805 0-16.308s-11.802-4.503-16.309 0l-55.153 55.153c-1.325-.824-2.63-1.669-3.89-2.557-14.885-10.484-23.084-24.029-23.084-38.139s8.198-27.655 23.084-38.139c16.113-11.349 37.739-17.599 60.895-17.599 12.098 0 23.768 1.722 34.462 4.969l-13.106 13.106c-4.503 4.503-4.503 11.805 0 16.308 2.252 2.252 5.203 3.378 8.154 3.378s5.902-1.127 8.154-3.378l19.34-19.34c1.325.825 2.63 1.67 3.891 2.557 14.885 10.484 23.084 24.029 23.084 38.139 0 14.109-8.199 27.654-23.084 38.139z" fill="#11113f"/></svg>