<?xml version="1.0" encoding="iso-8859-1"?>
<!-- Generator: Adobe Illustrator 19.0.0, SVG Export Plug-In . SVG Version: 6.00 Build 0)  -->
<svg version="1.1" id="Layer_1" xmlns="http://www.w3.org/2000/svg" xmlns:xlink="http://www.w3.org/1999/xlink" x="0px" y="0px"
	 viewBox="0 0 512.001 512.001" style="enable-background:new 0 0 512.001 512.001;" xml:space="preserve">
<g>
	<path style="fill:#BEC8D6;" d="M161.869,309.457l-32.296,52.82l-73.332,52.82C43.151,403.6,35.333,388.99,35.333,373.099
		c0-37.155,42.759-67.263,95.516-67.263C141.711,305.836,152.148,307.116,161.869,309.457z"/>
	<path style="fill:#BEC8D6;" d="M205.458,331.102c13.077,11.508,20.895,26.107,20.895,41.998c0,37.155-42.759,67.275-95.504,67.275
		c-10.863,0-21.299-1.28-31.031-3.632l30.464-52.82L205.458,331.102z"/>
	<path style="fill:#BEC8D6;" d="M412.172,309.468l-29.831,52.814l-75.798,52.814c-13.077-11.508-20.895-26.107-20.895-41.998
		c0-37.155,42.759-67.263,95.504-67.263C392.015,305.836,402.451,307.116,412.172,309.468z"/>
	<path style="fill:#BEC8D6;" d="M455.773,331.102c13.077,11.508,20.895,26.107,20.895,41.998c0,37.155-42.759,67.275-95.516,67.275
		c-10.863,0-21.299-1.28-31.02-3.632l32.153-52.82L455.773,331.102z"/>
</g>
<g>
	<path style="fill:#EBEDEC;" d="M205.458,331.102l-105.64,105.64c-17.309-4.186-32.369-11.774-43.578-21.645l105.629-105.64
		C179.189,313.654,194.249,321.242,205.458,331.102z"/>
	<path style="fill:#EBEDEC;" d="M455.773,331.102l-105.64,105.64c-17.32-4.186-32.381-11.774-43.589-21.645l105.629-105.629
		C429.492,313.643,444.564,321.242,455.773,331.102z"/>
</g>
<path style="fill:#11113F;" d="M511.817,371.048L464.119,107.08c-2.635-14.949-10.935-27.978-23.371-36.685
	s-27.517-12.052-42.466-9.414c-6.272,1.106-10.46,7.087-9.353,13.358c1.106,6.272,7.088,10.461,13.358,9.354
	c18.335-3.238,35.886,9.055,39.129,27.439l44.14,244.284c-4.554-14.943-14.898-28.517-30.223-39.312
	c-4.262-3.002-8.83-5.697-13.626-8.109c-0.225-0.123-0.454-0.234-0.686-0.342c-17.527-8.668-38.228-13.356-59.865-13.356
	c-27.867,0-54.21,7.745-74.175,21.807c-14.909,10.501-25.098,23.634-29.834,38.098c-6.586-2.686-13.747-4.109-21.147-4.109
	c-7.399,0-14.56,1.423-21.147,4.109c-4.736-14.463-14.925-27.596-29.834-38.098c-4.263-3.003-8.831-5.698-13.628-8.11
	c-0.223-0.122-0.449-0.231-0.677-0.338c-17.528-8.671-38.232-13.359-59.871-13.359c-27.867,0-54.21,7.745-74.175,21.807
	c-15.328,10.796-25.67,24.372-30.224,39.317l44.151-244.337c1.566-8.883,6.498-16.624,13.886-21.798
	c7.389-5.173,16.348-7.159,25.233-5.594c6.271,1.105,12.252-3.082,13.358-9.354c1.106-6.271-3.082-12.252-9.354-13.358
	c-14.949-2.636-30.03,0.707-42.466,9.414S50.518,92.129,47.89,107.03L0.184,371.048c-0.608,3.363,0.308,6.822,2.499,9.444
	c2.191,2.622,5.431,4.138,8.849,4.138h13.386c3.371,17.361,14.348,33.205,31.751,45.463c4.266,3.004,8.837,5.701,13.637,8.115
	c0.211,0.115,0.427,0.219,0.642,0.321c17.534,8.679,38.247,13.372,59.896,13.372c27.867,0,54.21-7.745,74.175-21.807
	c19.342-13.623,30.748-31.675,32.594-51.316c5.234-3.649,11.62-5.622,18.387-5.622c6.767,0,13.153,1.973,18.387,5.622
	c1.846,19.642,13.252,37.693,32.594,51.316c4.266,3.004,8.838,5.702,13.638,8.116c0.209,0.114,0.422,0.217,0.637,0.317
	c17.535,8.68,38.249,13.373,59.899,13.373c27.867,0,54.21-7.745,74.175-21.807c17.403-12.258,28.38-28.102,31.751-45.463h13.387
	c3.417,0,6.658-1.515,8.849-4.138C511.509,377.87,512.424,374.41,511.817,371.048z M191.739,411.238
	c-16.113,11.349-37.739,17.599-60.895,17.599c-12.098,0-23.768-1.722-34.462-4.969l48.919-48.918c4.503-4.503,4.504-11.805,0-16.308
	c-4.503-4.504-11.805-4.503-16.308,0l-55.154,55.153c-1.325-0.824-2.63-1.669-3.89-2.557
	c-14.885-10.484-23.083-24.029-23.083-38.139c0-14.11,8.198-27.655,23.083-38.139c16.113-11.349,37.739-17.599,60.895-17.599
	c12.098,0,23.768,1.721,34.462,4.969l-13.106,13.106c-4.503,4.503-4.503,11.805,0,16.308c2.252,2.252,5.203,3.378,8.154,3.378
	s5.903-1.127,8.154-3.378l19.34-19.34c1.326,0.824,2.63,1.67,3.891,2.557c14.885,10.484,23.083,24.028,23.083,38.139
	C214.821,387.21,206.624,400.753,191.739,411.238z M442.051,411.238c-16.113,11.349-37.739,17.599-60.895,17.599
	c-12.098,0-23.768-1.722-34.462-4.969l48.919-48.919c4.503-4.503,4.503-11.805,0-16.308s-11.802-4.503-16.309,0l-55.153,55.153
	c-1.325-0.824-2.63-1.669-3.89-2.557c-14.885-10.484-23.084-24.029-23.084-38.139c0-14.11,8.198-27.655,23.084-38.139
	c16.113-11.349,37.739-17.599,60.895-17.599c12.098,0,23.768,1.722,34.462,4.969l-13.106,13.106c-4.503,4.503-4.503,11.805,0,16.308
	c2.252,2.252,5.203,3.378,8.154,3.378c2.951,0,5.902-1.127,8.154-3.378l19.34-19.34c1.325,0.825,2.63,1.67,3.891,2.557
	c14.885,10.484,23.084,24.029,23.084,38.139C465.135,387.208,456.936,400.753,442.051,411.238z"/>
<g>
</g>
<g>
</g>
<g>
</g>
<g>
</g>
<g>
</g>
<g>
</g>
<g>
</g>
<g>
</g>
<g>
</g>
<g>
</g>
<g>
</g>
<g>
</g>
<g>
</g>
<g>
</g>
<g>
</g>
</svg>
