<svg enable-background="new 0 0 512.001 512.001" viewBox="0 0 512.001 512.001" xmlns="http://www.w3.org/2000/svg"><path d="m450.581 141.22v343.556h-131.121v-186.777h-126.92v186.777h-132.28v-343.556l195.74-112.837z" fill="#ffb14d"/><path d="m506.289 160.355-244.414-143.808c-3.626-2.134-8.124-2.134-11.749 0l-244.415 143.808c-5.514 3.245-7.353 10.344-4.109 15.858s10.343 7.354 15.858 4.109l34.721-20.429v325.578c0 6.398 5.186 11.584 11.584 11.584h129.853c6.398 0 11.584-5.186 11.584-11.584v-182.287h101.6v182.287c0 6.398 5.186 11.584 11.584 11.584h129.853c6.398 0 11.584-5.186 11.584-11.584v-325.577l34.721 20.429c1.845 1.085 3.867 1.602 5.864 1.602 3.97 0 7.836-2.042 9.994-5.711 3.241-5.515 1.401-12.614-4.113-15.859zm-69.636 313.532h-106.685v-182.287c0-6.398-5.186-11.584-11.584-11.584h-124.767c-6.398 0-11.584 5.186-11.584 11.584v182.287h-106.685v-327.625l180.653-106.292 180.653 106.293z" fill="#11113f"/></svg>