<svg enable-background="new 0 0 511.997 511.997" viewBox="0 0 511.997 511.997" xmlns="http://www.w3.org/2000/svg"><path d="m443.265 13.721.01 98.229-54.98 38.037-54.96-38.057-.047-98.229c-34.073 19.247-57.133 55.751-57.133 97.724 0 16.857 4.031 32.73 10.701 47.061l-262.5 262.519c-17.037 16.979-17.01 44.583-.038 61.572 17.036 17.036 44.611 16.999 61.61-.01l265.674-265.682s23.792 6.613 36.655 6.622c61.964.048 112.159-50.205 112.159-112.13-.009-41.916-23.058-78.418-57.151-97.656z" fill="#a2a9af"/><path d="m389.841 374.235-146.387-146.388-21.094 21.092 146.388 146.388 12.924 35.641 67.329 67.328 43.808-43.808-67.328-67.329z" fill="#4c5870"/><path d="m216.268 287.795-189.089-189.08c-18.244-18.234-18.285-47.811-.011-66.085 18.224-18.203 47.832-18.234 66.045.04l189.101 189.08z" fill="#ee3840"/><path d="m228.122 233.603c-4.523 4.523-11.858 4.523-16.382 0l-159.799-159.799c-4.523-4.523-4.523-11.858 0-16.382s11.858-4.523 16.382 0l159.798 159.798c4.523 4.524 4.524 11.859.001 16.383z" fill="#c21b23"/><path d="m295.612 224.834-76.26 76.26c-4.523 4.523-11.858 4.523-16.382 0s-4.523-11.858 0-16.382l76.26-76.26c4.523-4.523 11.858-4.523 16.382 0 4.523 4.523 4.523 11.858 0 16.382z" fill="#c21b23"/><circle cx="54.953" cy="451.949" fill="#fff" r="11.584"/><g fill="#11113f"><path d="m269.098 159.864c-4.522 4.525-4.522 11.858.002 16.383 4.525 4.525 11.859 4.523 16.382-.002l9.565-9.568c3.44-3.442 4.364-8.666 2.31-13.078-6.383-13.715-9.619-27.904-9.619-42.174 0-29.051 12.646-56.413 33.976-75.317l.037 75.828c.001 3.798 1.866 7.356 4.989 9.518l54.96 38.057c3.965 2.745 9.218 2.748 13.185.002l54.98-38.037c3.128-2.164 4.994-5.724 4.994-9.528l-.008-75.824c21.328 18.887 33.975 46.227 33.982 75.254 0 26.863-10.459 52.119-29.452 71.115-18.978 18.982-44.202 29.432-71.037 29.432-.026 0-.052 0-.079 0-9.233-.007-27.358-4.477-33.564-6.2-4.023-1.119-8.339.017-11.292 2.969l-35.217 35.218c-4.523 4.523-4.523 11.858 0 16.383 2.262 2.261 5.227 3.393 8.191 3.393s5.93-1.132 8.191-3.393l30.527-30.528c8.511 2.105 23.14 5.318 33.146 5.325h.097c33.019-.001 64.066-12.863 87.419-36.22 23.367-23.371 36.235-54.443 36.235-87.496-.01-44.521-24.167-85.805-63.042-107.744-3.586-2.024-7.978-1.992-11.535.085-3.556 2.077-5.743 5.886-5.742 10.005l.009 92.157-43.393 30.02-43.378-30.04-.045-92.163c-.002-4.118-2.19-7.926-5.747-10-3.556-2.076-7.948-2.105-11.534-.08-38.871 21.958-63.019 63.268-63.019 107.808 0 15.045 2.873 29.949 8.552 44.415z"/><path d="m238.425 313.682-160.691 160.697c-6.039 6.042-14.066 9.371-22.603 9.377-.006 0-.01 0-.017 0-8.535-.001-16.564-3.328-22.601-9.365-6.036-6.043-9.356-14.081-9.346-22.636.009-8.529 3.335-16.536 9.379-22.56l138.216-138.228c4.523-4.523 4.523-11.857 0-16.382-4.523-4.522-11.858-4.523-16.382.001l-138.201 138.214c-10.416 10.38-16.162 24.206-16.179 38.928-.017 14.747 5.708 28.611 16.127 39.041 10.418 10.418 24.263 16.155 38.986 16.155h.03c14.724-.008 28.567-5.75 38.976-16.165l160.688-160.694c4.523-4.523 4.523-11.858 0-16.383-4.525-4.522-11.858-4.522-16.382 0z"/><path d="m433.672 378.968c-1.2-1.199-2.648-2.12-4.242-2.699l-33.219-12.045-119.993-119.996 19.395-19.393c4.523-4.523 4.525-11.858 0-16.383-3.433-3.431-8.485-4.26-12.699-2.484l-181.496-181.475c-10.977-11.012-25.596-17.087-41.163-17.105-.023 0-.044 0-.067 0-15.567 0-30.2 6.054-41.21 17.051-11.025 11.024-17.091 25.675-17.082 41.255.008 15.567 6.079 30.205 17.092 41.211l181.498 181.49c-1.777 4.213-.95 9.265 2.484 12.698 4.525 4.522 11.859 4.525 16.382 0l19.39-19.39 119.995 119.993 12.046 33.22c.578 1.594 1.499 3.043 2.699 4.242l67.329 67.328c2.262 2.261 5.227 3.393 8.191 3.393s5.93-1.132 8.191-3.393l43.807-43.807c2.172-2.173 3.393-5.119 3.393-8.191s-1.221-6.018-3.393-8.191zm-182.029-142.931c-.024.024-.05.051-.074.075l-35.301 35.301-180.901-180.891c-6.64-6.636-10.299-15.457-10.304-24.839-.005-9.387 3.651-18.217 10.291-24.856 6.632-6.625 15.449-10.27 24.833-10.27h.041c9.375.01 18.174 3.666 24.793 10.306l180.909 180.89-14.211 14.211c-.025.024-.05.048-.076.073zm197.358 245.877-57.316-57.316-12.046-33.22c-.578-1.594-1.499-3.043-2.699-4.242l-121.816-121.814 4.712-4.711 121.814 121.815c1.2 1.199 2.648 2.12 4.242 2.699l33.219 12.045 57.316 57.316z"/><path d="m68.322 57.422c-4.523-4.522-11.858-4.522-16.382 0-4.523 4.523-4.523 11.858 0 16.383l159.798 159.797c2.261 2.261 5.227 3.393 8.191 3.393s5.93-1.132 8.191-3.393c4.523-4.523 4.523-11.858 0-16.383z"/></g></svg>