<svg enable-background="new 0 0 512.001 512.001" viewBox="0 0 512.001 512.001" xmlns="http://www.w3.org/2000/svg"><path d="m124.848 269.271-47.582 72.932 92.531 92.531 72.932-47.582z" fill="#e6e2e0"/><path d="m399.814 264.006-151.82-151.82-134.242 20.97-83.473 83.472 108.702 4.571 151.82 151.82 4.571 108.702 83.472-83.473z" fill="#ee3840"/><path d="m499.255 12.745c-89.728-24.901-173.329 21.509-212.564 60.744-11.723 11.723-187.004 187.004-187.004 187.004l151.82 151.82s158.682-158.682 187.003-187.003c39.235-39.235 85.646-122.837 60.745-212.565z" fill="#ccc4c1"/><circle cx="394.032" cy="119.129" fill="#fff" r="42.81"/><g fill="#11113f"><path d="m100.53 409.819c-4.524-4.523-11.86-4.523-16.384 0l-62.022 62.023c-4.524 4.524-4.524 11.86 0 16.385 2.263 2.261 5.227 3.393 8.192 3.393s5.93-1.132 8.192-3.393l62.022-62.023c4.524-4.525 4.524-11.861 0-16.385z"/><path d="m63.993 389.667c4.524-4.524 4.524-11.86 0-16.385-4.524-4.523-11.86-4.523-16.385 0l-44.214 44.217c-4.524 4.524-4.524 11.86 0 16.385 2.261 2.261 5.227 3.393 8.192 3.393s5.93-1.132 8.192-3.393z"/><path d="m504.624 15.441c-1.087-3.918-4.149-6.978-8.064-8.066-42.222-11.718-87.955-9.438-132.256 6.59-34.328 12.42-67.714 33.241-91.597 57.126l-36.025 36.025-130.51 20.386c-2.426.379-4.668 1.519-6.404 3.254l-83.472 83.472c-3.251 3.252-4.273 8.117-2.603 12.4s5.715 7.173 10.307 7.367l82.339 3.463-20.636 20.636c-4.524 4.524-4.524 11.86 0 16.385l12.045 12.044-35.975 55.144c-2.994 4.589-2.365 10.647 1.511 14.522l92.531 92.53c3.875 3.874 9.933 4.507 14.523 1.511l55.141-35.976 12.045 12.045c4.524 4.523 11.86 4.523 16.385 0l20.636-20.636 3.463 82.336c.193 4.593 3.084 8.638 7.367 10.307 1.367.533 2.792.791 4.205.791 3.017 0 5.98-1.181 8.194-3.393l83.472-83.472c1.737-1.737 2.875-3.979 3.255-6.404l20.387-130.509 36.024-36.025c23.884-23.884 44.706-57.27 57.126-91.596 16.025-44.302 18.304-90.036 6.586-132.257zm-339.075 410.245-79.235-79.235 28.176-43.187 38.93 38.931-4.578 4.578c-4.525 4.524-4.525 11.86 0 16.385 4.524 4.523 11.86 4.523 16.385 0l4.578-4.578 38.93 38.93zm258.976-202.776-38.695 38.696c-.005.005-.009.009-.014.014l-40.263 40.263c-4.524 4.524-4.524 11.86 0 16.385 4.524 4.523 11.86 4.523 16.385 0l15.156-15.156-14.904 95.408-62.142 62.143-3.248-77.256 32.372-32.372c4.524-4.524 4.524-11.86 0-16.385-4.524-4.523-11.86-4.523-16.385 0l-35.938 35.938c-.02.02-.038.038-.058.058l-31.076 31.075-10.33-10.33c-.118-.122-.236-.241-.359-.358l-48.837-48.838 140.114-140.115c4.524-4.524 4.525-11.86 0-16.385-4.523-4.522-11.858-4.523-16.384 0l-140.115 140.117-48.839-48.839c-.116-.12-.234-.239-.356-.356l-10.33-10.332 31.076-31.076c.02-.019.038-.037.057-.057l35.938-35.938c4.525-4.524 4.525-11.86 0-16.385-4.523-4.523-11.86-4.523-16.384 0l-32.372 32.372-77.256-3.25 62.142-62.142 95.408-14.903-15.156 15.154 16.384 16.385 40.141-40.141c.087-.085.174-.17.258-.258l38.574-38.574c32.239-32.236 108.788-80.002 194.864-59.426 20.576 86.077-27.19 162.628-59.428 194.864z"/><path d="m122.333 448.007-44.216 44.216c-4.524 4.524-4.524 11.86 0 16.385 2.263 2.261 5.227 3.393 8.192 3.393s5.93-1.132 8.192-3.393l44.216-44.216c4.524-4.524 4.524-11.86 0-16.385-4.523-4.524-11.859-4.524-16.384 0z"/><path d="m355.565 79.507c-10.274 10.275-15.932 23.935-15.932 38.464 0 14.53 5.658 28.19 15.932 38.464 10.604 10.604 24.534 15.905 38.464 15.905s27.859-5.301 38.462-15.905c10.275-10.274 15.932-23.934 15.932-38.464 0-14.529-5.658-28.189-15.932-38.464-21.208-21.208-55.716-21.208-76.926 0zm60.542 60.543c-12.175 12.177-31.983 12.176-44.159 0-5.898-5.898-9.145-13.738-9.145-22.08 0-8.34 3.248-16.182 9.145-22.08 6.088-6.088 14.083-9.131 22.08-9.131 7.995 0 15.993 3.045 22.079 9.131 5.898 5.898 9.146 13.739 9.146 22.08.001 8.343-3.248 16.182-9.146 22.08z"/></g></svg>