<svg enable-background="new 0 0 512 512" viewBox="0 0 512 512" xmlns="http://www.w3.org/2000/svg"><g fill="#ccc4c1"><path d="m56.4 56.4c-4.5 4.5-4.5 11.9 0 16.4l25.1 25.1 16.4-16.4-25.1-25.1c-4.5-4.5-11.8-4.5-16.4 0z"/><path d="m56.4 439.2c-4.5 4.5-4.5 11.9 0 16.4 2.3 2.3 5.2 3.4 8.2 3.4s5.9-1.1 8.2-3.4l25.1-25.1-16.4-16.4z"/><path d="m430.5 414.1-16.4 16.4 25.1 25.1c2.3 2.3 5.2 3.4 8.2 3.4s5.9-1.1 8.2-3.4c4.5-4.5 4.5-11.9 0-16.4z"/><path d="m455.6 72.8c4.5-4.5 4.5-11.9 0-16.4s-11.9-4.5-16.4 0l-25.1 25.1 16.4 16.4z"/></g><path d="m500.4 256c0-135-109.4-244.4-244.4-244.4s-244.4 109.4-244.4 244.4 109.4 244.4 244.4 244.4 244.4-109.4 244.4-244.4zm-244.4 39.7c-21.9 0-39.7-17.8-39.7-39.7s17.8-39.7 39.7-39.7 39.7 17.8 39.7 39.7-17.8 39.7-39.7 39.7z" fill="#ffe1d6"/><path d="m293.8 234.2 180.1-104c-22.1-38.2-53.9-70-92.1-92.1 0 0-103.9 180.2-103.9 180.2z" fill="#ee3840"/><path d="m218.5 277.7-180.4 104.1c22.1 38.2 53.9 70 92.1 92.1l104.3-180.3z" fill="#ee3840"/><path d="m234.5 218.3-104.3-180.2c-38.2 22.1-70 53.9-92.1 92.1 0 0 180.4 104 180.4 104z" fill="#ee3840"/><path d="m293.8 277.7-15.9 15.9 103.9 180.3c38.2-22.1 70-53.9 92.1-92.1z" fill="#ee3840"/><path d="m512 256c0-41.4-10-82.2-29.1-118.6 1-1.2 1.7-2.7 2.1-4.2.8-3 .4-6.1-1.2-8.8-9.6-16.6-21-32-33.9-46.1l5.5-5.5c4.5-4.5 4.5-11.9 0-16.4s-11.9-4.5-16.4 0l-5.5 5.5c-14-12.9-29.5-24.3-46.1-33.9-4.2-2.4-9.4-1.9-13 1-36.2-19-77-29-118.4-29s-82.2 10-118.6 29.1c-1.2-1-2.7-1.7-4.2-2.1-3-.8-6.1-.4-8.8 1.2-16.6 9.6-32 21-46.1 33.9l-5.5-5.5c-4.5-4.5-11.9-4.5-16.4 0s-4.5 11.9 0 16.4l5.5 5.5c-12.9 14-24.3 29.5-33.9 46.1-2.4 4.2-1.9 9.4 1 13-19 36.2-29 77-29 118.4s10 82.2 29.1 118.6c-1 1.2-1.7 2.7-2.1 4.2-.8 3-.4 6.1 1.2 8.8 9.6 16.6 21 32 33.9 46.1l-5.5 5.5c-4.5 4.5-4.5 11.9 0 16.4 2.3 2.3 5.2 3.4 8.2 3.4s5.9-1.1 8.2-3.4l5.5-5.5c14.1 12.9 29.5 24.3 46.1 33.9 1.8 1 3.8 1.5 5.8 1.5 2.6 0 5.2-.9 7.3-2.5 36.1 19 76.9 29 118.3 29s82.2-10 118.6-29.1c1.2 1 2.7 1.7 4.2 2.1 1 .3 2 .4 3 .4 2 0 4-.5 5.8-1.6 16.6-9.6 32-21 46.1-33.9l5.5 5.5c2.3 2.3 5.2 3.4 8.2 3.4s5.9-1.1 8.2-3.4c4.5-4.5 4.5-11.9 0-16.4l-5.5-5.5c12.9-14 24.3-29.5 33.9-46.1 2.4-4.2 1.9-9.4-1-13 19-36.2 29-77 29-118.4zm-54.2 129.9c-18.6 28.8-43.1 53.3-71.9 71.9l-120.2-207.9c-6.4 4.3-13.1 8.2-20.1 11.6l116.6 201.7c-32.7 16.8-69.2 25.6-106.2 25.6s-73.5-8.9-106.2-25.6l116.4-201.8c-7-3.4-13.7-7.3-20.1-11.6l-120 208c-28.8-18.6-53.3-43.1-71.9-71.9l209-118.4c-4.3-6.4-8.2-13.1-11.6-20l-202.8 114.7c-16.8-32.7-25.6-69.1-25.6-106.2s8.9-73.5 25.6-106.2l201.7 116.6c3.4-7 7.2-13.7 11.6-20.1l-207.9-120.2c18.6-28.8 43.1-53.3 71.9-71.9l120 208c6.4-4.3 13.1-8.2 20-11.6l-116.3-201.8c32.7-16.8 69.1-25.6 106.2-25.6s73.5 8.9 106.2 25.6l-116.5 201.7c7 3.4 13.7 7.3 20 11.6l120.1-208c28.8 18.6 53.3 43.1 71.9 71.9l-208 120.1c4.3 6.4 8.2 13.1 11.6 20.1l201.8-116.5c16.8 32.7 25.6 69.2 25.6 106.2s-8.9 73.5-25.6 106.2l-201-117.8c-3.4 7-7.3 13.7-11.6 20z" fill="#11113f"/><circle cx="256" cy="256" fill="#11113f" r="56.2"/><circle cx="256" cy="256" fill="#fff" r="33.6"/><circle cx="256" cy="256" fill="#11113f" r="14.1"/></svg>