<?xml version="1.0" encoding="utf-8"?>
<!-- Generator: Adobe Illustrator 24.1.0, SVG Export Plug-In . SVG Version: 6.00 Build 0)  -->
<svg version="1.1" xmlns="http://www.w3.org/2000/svg" xmlns:xlink="http://www.w3.org/1999/xlink" x="0px" y="0px"
	 viewBox="0 0 512 512" style="enable-background:new 0 0 512 512;" xml:space="preserve">
<style type="text/css">
	.st0{fill:#CCC4C1;}
	.st1{fill:#FFE1D6;}
	.st2{display:none;}
	.st3{display:inline;fill:#EE3840;}
	.st4{fill:#EE3840;}
	.st5{display:none;fill:#11113F;}
	.st6{display:none;fill:#913D3D;}
	.st7{fill:#11113F;}
	.st8{display:none;fill:#FFFFFF;}
	.st9{display:none;fill:#F431FF;}
	.st10{fill:#FFFFFF;}
</style>
<g id="Layer_1">
	<g>
		<path class="st0" d="M56.4,56.4c-4.5,4.5-4.5,11.9,0,16.4l25.1,25.1l16.4-16.4L72.8,56.4C68.3,51.9,61,51.9,56.4,56.4z"/>
		<path class="st0" d="M56.4,439.2c-4.5,4.5-4.5,11.9,0,16.4c2.3,2.3,5.2,3.4,8.2,3.4s5.9-1.1,8.2-3.4l25.1-25.1l-16.4-16.4
			L56.4,439.2z"/>
		<path class="st0" d="M430.5,414.1l-16.4,16.4l25.1,25.1c2.3,2.3,5.2,3.4,8.2,3.4s5.9-1.1,8.2-3.4c4.5-4.5,4.5-11.9,0-16.4
			L430.5,414.1z"/>
		<path class="st0" d="M455.6,72.8c4.5-4.5,4.5-11.9,0-16.4c-4.5-4.5-11.9-4.5-16.4,0l-25.1,25.1l16.4,16.4L455.6,72.8z"/>
	</g>
	<path class="st1" d="M500.4,256C500.4,121,391,11.6,256,11.6S11.6,121,11.6,256S121,500.4,256,500.4S500.4,391,500.4,256z
		 M256,295.7c-21.9,0-39.7-17.8-39.7-39.7s17.8-39.7,39.7-39.7s39.7,17.8,39.7,39.7S277.9,295.7,256,295.7z"/>
	<g class="st2">
		<path class="st3" d="M323.8,138.6c20.6,11.9,37.7,29,49.6,49.6l100.5-58c-22.1-38.2-53.9-70-92.1-92.1
			C381.8,38.1,323.8,138.6,323.8,138.6z"/>
		<path class="st3" d="M138.6,323.8l-100.5,58c22.1,38.2,53.9,70,92.1,92.1l58-100.5C167.7,361.5,150.5,344.3,138.6,323.8z"/>
		<path class="st3" d="M188.2,138.6l-58-100.5C92,60.2,60.2,92,38.1,130.2c0,0,100.5,58,100.5,58
			C150.5,167.6,167.7,150.5,188.2,138.6z"/>
		<path class="st3" d="M473.9,381.8l-100.5-58c-11.9,20.6-29,37.7-49.6,49.6l58,100.5C420,451.8,451.8,420,473.9,381.8z"/>
	</g>
	<g>
		<path class="st4" d="M293.8,234.2l180.1-104c-22.1-38.2-53.9-70-92.1-92.1c0,0-103.9,180.2-103.9,180.2L293.8,234.2z"/>
		<path class="st4" d="M218.5,277.7L38.1,381.8c22.1,38.2,53.9,70,92.1,92.1l104.3-180.3L218.5,277.7z"/>
		<path class="st4" d="M234.5,218.3L130.2,38.1C92,60.2,60.2,92,38.1,130.2c0,0,180.4,104,180.4,104L234.5,218.3z"/>
		<path class="st4" d="M293.8,277.7l-15.9,15.9l103.9,180.3c38.2-22.1,70-53.9,92.1-92.1L293.8,277.7z"/>
	</g>
	<path class="st5" d="M512,256c0-41.4-10-82.2-29.1-118.6c1-1.2,1.7-2.7,2.1-4.2c0.8-3,0.4-6.1-1.2-8.8c-9.6-16.6-21-32-33.9-46.1
		l5.5-5.5c4.5-4.5,4.5-11.9,0-16.4c-4.5-4.5-11.9-4.5-16.4,0l-5.5,5.5c-14-12.9-29.5-24.3-46.1-33.9c-4.2-2.4-9.4-1.9-13,1
		C338.2,10,297.4,0,256,0c-41.4,0-82.2,10-118.6,29.1c-1.2-1-2.7-1.7-4.2-2.1c-3-0.8-6.1-0.4-8.8,1.2c-16.6,9.6-32,21-46.1,33.9
		l-5.5-5.5c-4.5-4.5-11.9-4.5-16.4,0c-4.5,4.5-4.5,11.9,0,16.4l5.5,5.5c-12.9,14.1-24.3,29.5-33.9,46.1c-2.4,4.2-1.9,9.4,1,13
		C10,173.8,0,214.6,0,256c0,41.4,10,82.2,29.1,118.6c-1,1.2-1.7,2.7-2.1,4.2c-0.8,3-0.4,6.1,1.2,8.8c9.6,16.6,21,32,33.9,46.1
		l-5.5,5.5c-4.5,4.5-4.5,11.9,0,16.4c2.3,2.3,5.2,3.4,8.2,3.4s5.9-1.1,8.2-3.4l5.5-5.5c14.1,12.9,29.5,24.3,46.1,33.9
		c1.8,1,3.8,1.5,5.8,1.5c2.6,0,5.2-0.9,7.3-2.5C173.8,502,214.6,512,256,512c41.4,0,82.2-10,118.6-29.1c1.2,1,2.7,1.7,4.2,2.1
		c1,0.3,2,0.4,3,0.4c2,0,4-0.5,5.8-1.6c16.6-9.6,32-21,46.1-33.9l5.5,5.5c2.3,2.3,5.2,3.4,8.2,3.4s5.9-1.1,8.2-3.4
		c4.5-4.5,4.5-11.9,0-16.4l-5.5-5.5c12.9-14,24.3-29.5,33.9-46.1c2.4-4.2,1.9-9.4-1-13C502,338.2,512,297.4,512,256z M463.2,362.2
		l-68.9-39.8c9.7-20.1,15.2-42.7,15.2-66.5s-5.4-46.4-15.2-66.5l68.9-39.8c16.8,32.7,25.6,69.2,25.6,106.2S480,329.5,463.2,362.2z
		 M256,283.1c-14.9,0-27.1-12.1-27.1-27.1s12.1-27.1,27.1-27.1s27.1,12.1,27.1,27.1S270.9,283.1,256,283.1z M382.7,169.5
		c-10.8-15.7-24.4-29.4-40.2-40.2l43.4-75.1c28.8,18.6,53.3,43.1,71.9,71.9L382.7,169.5z M362.2,48.8l-39.8,68.9
		c-20.1-9.7-42.7-15.2-66.5-15.2c-23.8,0-46.4,5.4-66.5,15.2l-39.8-68.9C182.5,32,218.9,23.2,256,23.2
		C293.1,23.2,329.5,32,362.2,48.8z M126.1,54.2l43.4,75.1c-15.7,10.8-29.4,24.4-40.2,40.2l-75.1-43.4
		C72.7,97.3,97.3,72.8,126.1,54.2z M48.8,149.8l68.9,39.8c-9.7,20.1-15.2,42.7-15.2,66.5s5.4,46.4,15.2,66.5l-68.9,39.8
		C32,329.5,23.2,293.1,23.2,256C23.2,218.9,32,182.5,48.8,149.8z M129.3,342.5c10.8,15.7,24.4,29.4,40.2,40.2l-43.4,75.1
		c-28.8-18.6-53.3-43.1-71.9-71.9L129.3,342.5z M149.8,463.2l39.8-68.9c20.1,9.7,42.7,15.2,66.5,15.2c23.8,0,46.4-5.4,66.5-15.2
		l39.8,68.9c-32.7,16.8-69.2,25.6-106.2,25.6S182.5,480,149.8,463.2z M385.9,457.8l-43.4-75.1c15.7-10.8,29.4-24.4,40.2-40.2
		l75.1,43.4C439.3,414.7,414.7,439.2,385.9,457.8z"/>
</g>
<g id="Layer_2">
	<path class="st6" d="M293.8,277.7l0.8,0.5c3.8-6.5,6-14.1,6-22.2c0-8.1-2.2-15.7-5.9-22.2l-0.8,0.5c-3.8-6.6-9.3-12.1-15.9-15.9
		c0,0,0.2-0.3,0.5-0.8c-6.5-3.8-14.1-5.9-22.1-5.9c-8.1,0-15.7,2.2-22.2,6l0.4,0.7c-6.6,3.8-12.1,9.3-15.9,15.9c0,0-0.2-0.1-0.7-0.4
		c-3.8,6.5-5.9,14.1-5.9,22.1c0,8.1,2.2,15.6,5.9,22.1l0.7-0.4c3.8,6.6,9.3,12.1,15.9,15.9l-0.4,0.7c6.5,3.8,14.1,6,22.2,6
		c8,0,15.6-2.1,22.1-5.9l-0.4-0.8C284.5,289.8,290,284.3,293.8,277.7z"/>
	<path class="st5" d="M512,256c0-41.4-10-82.2-29.1-118.6c1-1.2,1.7-2.7,2.1-4.2c0.8-3,0.4-6.1-1.2-8.8c-9.6-16.6-21-32-33.9-46.1
		l5.5-5.5c4.5-4.5,4.5-11.9,0-16.4c-4.5-4.5-11.9-4.5-16.4,0l-5.5,5.5c-14-12.9-29.5-24.3-46.1-33.9c-4.2-2.4-9.4-1.9-13,1
		C338.2,10,297.4,0,256,0c-41.4,0-82.2,10-118.6,29.1c-1.2-1-2.7-1.7-4.2-2.1c-3-0.8-6.1-0.4-8.8,1.2c-16.6,9.6-32,21-46.1,33.9
		l-5.5-5.5c-4.5-4.5-11.9-4.5-16.4,0c-4.5,4.5-4.5,11.9,0,16.4l5.5,5.5c-12.9,14.1-24.3,29.5-33.9,46.1c-2.4,4.2-1.9,9.4,1,13
		C10,173.8,0,214.6,0,256c0,41.4,10,82.2,29.1,118.6c-1,1.2-1.7,2.7-2.1,4.2c-0.8,3-0.4,6.1,1.2,8.8c9.6,16.6,21,32,33.9,46.1
		l-5.5,5.5c-4.5,4.5-4.5,11.9,0,16.4c2.3,2.3,5.2,3.4,8.2,3.4s5.9-1.1,8.2-3.4l5.5-5.5c14.1,12.9,29.5,24.3,46.1,33.9
		c1.8,1,3.8,1.5,5.8,1.5c2.6,0,5.2-0.9,7.3-2.5C173.8,502,214.6,512,256,512c41.4,0,82.2-10,118.6-29.1c1.2,1,2.7,1.7,4.2,2.1
		c1,0.3,2,0.4,3,0.4c2,0,4-0.5,5.8-1.6c16.6-9.6,32-21,46.1-33.9l5.5,5.5c2.3,2.3,5.2,3.4,8.2,3.4s5.9-1.1,8.2-3.4
		c4.5-4.5,4.5-11.9,0-16.4l-5.5-5.5c12.9-14,24.3-29.5,33.9-46.1c2.4-4.2,1.9-9.4-1-13C502,338.2,512,297.4,512,256z M463.2,362.2
		l-68.9-39.8c9.7-20.1,15.2-42.7,15.2-66.5s-5.4-46.4-15.2-66.5l68.9-39.8c16.8,32.7,25.6,69.2,25.6,106.2S480,329.5,463.2,362.2z
		 M256,283.1c-14.9,0-27.1-12.1-27.1-27.1s12.1-27.1,27.1-27.1s27.1,12.1,27.1,27.1S270.9,283.1,256,283.1z M382.7,169.5
		c-10.8-15.7-24.4-29.4-40.2-40.2l43.4-75.1c28.8,18.6,53.3,43.1,71.9,71.9L382.7,169.5z M362.2,48.8l-39.8,68.9
		c-20.1-9.7-42.7-15.2-66.5-15.2c-23.8,0-46.4,5.4-66.5,15.2l-39.8-68.9C182.5,32,218.9,23.2,256,23.2
		C293.1,23.2,329.5,32,362.2,48.8z M126.1,54.2l43.4,75.1c-15.7,10.8-29.4,24.4-40.2,40.2l-75.1-43.4
		C72.7,97.3,97.3,72.8,126.1,54.2z M48.8,149.8l68.9,39.8c-9.7,20.1-15.2,42.7-15.2,66.5s5.4,46.4,15.2,66.5l-68.9,39.8
		C32,329.5,23.2,293.1,23.2,256C23.2,218.9,32,182.5,48.8,149.8z M129.3,342.5c10.8,15.7,24.4,29.4,40.2,40.2l-43.4,75.1
		c-28.8-18.6-53.3-43.1-71.9-71.9L129.3,342.5z M149.8,463.2l39.8-68.9c20.1,9.7,42.7,15.2,66.5,15.2c23.8,0,46.4-5.4,66.5-15.2
		l39.8,68.9c-32.7,16.8-69.2,25.6-106.2,25.6S182.5,480,149.8,463.2z M385.9,457.8l-43.4-75.1c15.7-10.8,29.4-24.4,40.2-40.2
		l75.1,43.4C439.3,414.7,414.7,439.2,385.9,457.8z"/>
	<path class="st7" d="M512,256c0-41.4-10-82.2-29.1-118.6c1-1.2,1.7-2.7,2.1-4.2c0.8-3,0.4-6.1-1.2-8.8c-9.6-16.6-21-32-33.9-46.1
		l5.5-5.5c4.5-4.5,4.5-11.9,0-16.4c-4.5-4.5-11.9-4.5-16.4,0l-5.5,5.5c-14-12.9-29.5-24.3-46.1-33.9c-4.2-2.4-9.4-1.9-13,1
		C338.2,10,297.4,0,256,0c-41.4,0-82.2,10-118.6,29.1c-1.2-1-2.7-1.7-4.2-2.1c-3-0.8-6.1-0.4-8.8,1.2c-16.6,9.6-32,21-46.1,33.9
		l-5.5-5.5c-4.5-4.5-11.9-4.5-16.4,0c-4.5,4.5-4.5,11.9,0,16.4l5.5,5.5c-12.9,14-24.3,29.5-33.9,46.1c-2.4,4.2-1.9,9.4,1,13
		C10,173.8,0,214.6,0,256c0,41.4,10,82.2,29.1,118.6c-1,1.2-1.7,2.7-2.1,4.2c-0.8,3-0.4,6.1,1.2,8.8c9.6,16.6,21,32,33.9,46.1
		l-5.5,5.5c-4.5,4.5-4.5,11.9,0,16.4c2.3,2.3,5.2,3.4,8.2,3.4s5.9-1.1,8.2-3.4l5.5-5.5c14.1,12.9,29.5,24.3,46.1,33.9
		c1.8,1,3.8,1.5,5.8,1.5c2.6,0,5.2-0.9,7.3-2.5C173.8,502,214.6,512,256,512c41.4,0,82.2-10,118.6-29.1c1.2,1,2.7,1.7,4.2,2.1
		c1,0.3,2,0.4,3,0.4c2,0,4-0.5,5.8-1.6c16.6-9.6,32-21,46.1-33.9l5.5,5.5c2.3,2.3,5.2,3.4,8.2,3.4c3,0,5.9-1.1,8.2-3.4
		c4.5-4.5,4.5-11.9,0-16.4l-5.5-5.5c12.9-14,24.3-29.5,33.9-46.1c2.4-4.2,1.9-9.4-1-13C502,338.2,512,297.4,512,256z M457.8,385.9
		c-18.6,28.8-43.1,53.3-71.9,71.9L265.7,249.9c-6.4,4.3-13.1,8.2-20.1,11.6l116.6,201.7c-32.7,16.8-69.2,25.6-106.2,25.6
		s-73.5-8.9-106.2-25.6l116.4-201.8c-7-3.4-13.7-7.3-20.1-11.6l-120,208c-28.8-18.6-53.3-43.1-71.9-71.9l209-118.4
		c-4.3-6.4-8.2-13.1-11.6-20L48.8,362.2C32,329.5,23.2,293.1,23.2,256c0-37.1,8.9-73.5,25.6-106.2l201.7,116.6
		c3.4-7,7.2-13.7,11.6-20.1L54.2,126.1c18.6-28.8,43.1-53.3,71.9-71.9l120,208c6.4-4.3,13.1-8.2,20-11.6L149.8,48.8
		C182.5,32,218.9,23.2,256,23.2c37.1,0,73.5,8.9,106.2,25.6L245.7,250.5c7,3.4,13.7,7.3,20,11.6l120.1-208
		c28.8,18.6,53.3,43.1,71.9,71.9l-208,120.1c4.3,6.4,8.2,13.1,11.6,20.1l201.8-116.5c16.8,32.7,25.6,69.2,25.6,106.2
		s-8.9,73.5-25.6,106.2l-201-117.8c-3.4,7-7.3,13.7-11.6,20L457.8,385.9z"/>
	<circle class="st8" cx="256" cy="256" r="27.1"/>
	<path class="st9" d="M295.6,275c2.8-5.8,4.3-12.2,4.3-19c0-6.8-1.6-13.3-4.3-19l1.2-0.7c-1-2-2.1-3.9-3.3-5.7l-1.2,0.7
		c-3.1-4.5-7-8.4-11.5-11.5l0.7-1.2c-1.8-1.2-3.7-2.4-5.7-3.3l-0.7,1.2c-5.8-2.8-12.2-4.3-19-4.3c-6.8,0-13.3,1.6-19,4.3l-0.7-1.1
		c-2,1-3.9,2.1-5.7,3.3l0.7,1.1c-4.5,3.1-8.4,7-11.5,11.5l-1.1-0.6c-1.2,1.8-2.3,3.7-3.3,5.7l1.1,0.6c-2.8,5.8-4.3,12.2-4.3,19
		c0,6.8,1.6,13.3,4.3,19l-1,0.6c1,2,2.1,3.9,3.3,5.7l1-0.6c3.1,4.5,7,8.4,11.5,11.5l-0.6,1c1.8,1.2,3.7,2.4,5.7,3.3l0.6-1
		c5.8,2.8,12.2,4.3,19,4.3c6.8,0,13.3-1.6,19-4.3l0.6,1.1c2-1,3.9-2.1,5.7-3.3l-0.6-1.1c4.5-3.1,8.4-7,11.5-11.5l1.1,0.6
		c1.2-1.8,2.4-3.7,3.3-5.7L295.6,275z M256,263.7c-4.3,0-7.7-3.5-7.7-7.7c0-4.3,3.5-7.7,7.7-7.7c4.3,0,7.7,3.5,7.7,7.7
		C263.7,260.3,260.3,263.7,256,263.7z"/>
	<circle class="st9" cx="256.1" cy="255.7" r="157.9"/>
	<circle class="st7" cx="256" cy="256" r="56.2"/>
	<circle class="st10" cx="256" cy="256" r="33.6"/>
	<circle class="st7" cx="256" cy="256" r="14.1"/>
</g>
</svg>
