<?xml version="1.0" encoding="iso-8859-1"?>
<!-- Generator: Adobe Illustrator 19.0.0, SVG Export Plug-In . SVG Version: 6.00 Build 0)  -->
<svg version="1.1" id="Layer_1" xmlns="http://www.w3.org/2000/svg" xmlns:xlink="http://www.w3.org/1999/xlink" x="0px" y="0px"
	 viewBox="0 0 512 512" style="enable-background:new 0 0 512 512;" xml:space="preserve">
<rect x="11.584" y="11.584" style="fill:#3D3D3B;" width="488.833" height="488.833"/>
<rect x="69.502" y="69.502" style="fill:#7A7674;" width="372.995" height="372.995"/>
<g>
	<path style="fill:#CCC4C1;" d="M346.707,274.686L256,256l61.544-69.223C341.43,208.042,353.625,241.103,346.707,274.686z"/>
	<path style="fill:#CCC4C1;" d="M256,256l-10.884,91.984c-15.635-1.829-31.01-7.686-44.524-17.776
		c-13.515-10.091-23.498-23.169-29.693-37.639L256,256z"/>
	<path style="fill:#CCC4C1;" d="M256,256l84.06,38.904c-6.592,14.294-16.933,27.092-30.721,36.805
		c-13.788,9.714-29.318,15.143-44.998,16.54L256,256z"/>
	<path style="fill:#CCC4C1;" d="M256,256l-46.307-80.219c13.622-7.887,29.447-12.393,46.313-12.392
		c16.866,0.001,32.689,4.508,46.311,12.397L256,256z"/>
	<path style="fill:#CCC4C1;" d="M194.281,186.932L256,256l-90.66,18.915C158.338,241.35,170.449,208.258,194.281,186.932z"/>
</g>
<circle style="fill:#E6E2E0;" cx="256" cy="256" r="46.335"/>
<g>
	<path style="fill:#CCC4C1;" d="M69.502,210.824c-10.237,0-18.534-8.297-18.534-18.534v-57.919c0-10.237,8.297-18.534,18.534-18.534
		s18.534,8.297,18.534,18.534v57.919C88.036,202.526,79.739,210.824,69.502,210.824z"/>
	<path style="fill:#CCC4C1;" d="M69.502,396.163c-10.237,0-18.534-8.297-18.534-18.534V319.71c0-10.237,8.297-18.534,18.534-18.534
		s18.534,8.297,18.534,18.534v57.919C88.036,387.866,79.739,396.163,69.502,396.163z"/>
</g>
<g>
	<path style="fill:#11113F;" d="M500.416,0H11.584C5.186,0,0,5.187,0,11.584v488.833C0,506.813,5.186,512,11.584,512h488.833
		c6.398,0,11.584-5.187,11.584-11.584V11.584C512,5.187,506.814,0,500.416,0z M488.833,488.833H23.167V23.167h465.665V488.833z"/>
	<path style="fill:#11113F;" d="M317.279,171.657c-0.234-0.17-0.476-0.319-0.718-0.468c-17.083-12.232-37.995-19.442-60.561-19.442
		c-22.566,0-43.478,7.21-60.561,19.442c-0.242,0.149-0.484,0.299-0.718,0.468c-0.255,0.185-0.491,0.385-0.726,0.586
		c-25.615,19.014-42.248,49.479-42.248,83.757c0,57.485,46.768,104.253,104.253,104.253S360.253,313.485,360.253,256
		c0-34.279-16.633-64.744-42.248-83.757C317.77,172.042,317.534,171.842,317.279,171.657z M256,290.751
		c-19.162,0-34.751-15.589-34.751-34.751s15.589-34.751,34.751-34.751s34.751,15.589,34.751,34.751S275.162,290.751,256,290.751z
		 M293.784,184.288l-13.811,19.01c-7.31-3.34-15.424-5.216-23.973-5.216c-8.549,0-16.662,1.877-23.972,5.215l-13.811-19.01
		c11.291-5.973,24.145-9.372,37.784-9.372C269.639,174.914,282.493,178.314,293.784,184.288z M199.49,197.929l13.801,18.996
		c-9.44,10.308-15.209,24.029-15.209,39.075c0,2.204,0.136,4.375,0.376,6.516l-22.348,7.262c-0.771-4.481-1.195-9.079-1.195-13.778
		C174.914,233.248,184.347,212.669,199.49,197.929z M183.275,291.81l22.36-7.265c8.136,14.299,22.171,24.823,38.781,28.209v23.493
		C217.541,332.383,194.888,315.298,183.275,291.81z M267.584,336.245v-23.493c16.61-3.386,30.646-13.91,38.781-28.209l22.36,7.265
		C317.112,315.298,294.459,332.383,267.584,336.245z M337.086,256c0,4.698-0.424,9.297-1.195,13.779l-22.348-7.262
		c0.241-2.141,0.376-4.313,0.376-6.516c0-15.046-5.77-28.767-15.209-39.075l13.801-18.996
		C327.653,212.669,337.086,233.248,337.086,256z"/>
	<path style="fill:#11113F;" d="M57.919,405.426v37.071c0,6.397,5.186,11.584,11.584,11.584h372.995
		c6.398,0,11.584-5.187,11.584-11.584v-263.98c0-6.397-5.186-11.584-11.584-11.584c-6.398,0-11.584,5.187-11.584,11.584v252.396
		H81.086v-25.488c10.874-4.548,18.534-15.293,18.534-27.797V319.71c0-12.505-7.66-23.25-18.534-27.797v-71.825
		c10.874-4.548,18.534-15.294,18.534-27.797v-57.919c0-12.505-7.66-23.25-18.534-27.797V81.086h349.828v57.919
		c0,6.397,5.186,11.584,11.584,11.584c6.398,0,11.584-5.187,11.584-11.584V69.502c0-6.397-5.186-11.584-11.584-11.584H69.502
		c-6.398,0-11.584,5.187-11.584,11.584v37.071c-10.874,4.548-18.534,15.293-18.534,27.797v57.919c0,12.505,7.66,23.25,18.534,27.797
		v71.825c-10.874,4.548-18.534,15.294-18.534,27.797v57.919C39.385,390.134,47.045,400.879,57.919,405.426z M76.452,319.71v57.919
		c0,3.833-3.117,6.95-6.95,6.95s-6.95-3.117-6.95-6.95V319.71c0-3.833,3.117-6.95,6.95-6.95S76.452,315.877,76.452,319.71z
		 M62.552,192.29v-57.919c0-3.833,3.117-6.95,6.95-6.95s6.95,3.117,6.95,6.95v57.919c0,3.833-3.117,6.95-6.95,6.95
		S62.552,196.123,62.552,192.29z"/>
</g>
<g>
</g>
<g>
</g>
<g>
</g>
<g>
</g>
<g>
</g>
<g>
</g>
<g>
</g>
<g>
</g>
<g>
</g>
<g>
</g>
<g>
</g>
<g>
</g>
<g>
</g>
<g>
</g>
<g>
</g>
</svg>
