<svg enable-background="new 0 0 512 512" viewBox="0 0 512 512" xmlns="http://www.w3.org/2000/svg"><path d="m11.584 11.584h488.833v488.833h-488.833z" fill="#3d3d3b"/><path d="m69.502 69.502h372.995v372.995h-372.995z" fill="#7a7674"/><g fill="#ccc4c1"><path d="m346.707 274.686-90.707-18.686 61.544-69.223c23.886 21.265 36.081 54.326 29.163 87.909z"/><path d="m256 256-10.884 91.984c-15.635-1.829-31.01-7.686-44.524-17.776-13.515-10.091-23.498-23.169-29.693-37.639z"/><path d="m256 256 84.06 38.904c-6.592 14.294-16.933 27.092-30.721 36.805-13.788 9.714-29.318 15.143-44.998 16.54z"/><path d="m256 256-46.307-80.219c13.622-7.887 29.447-12.393 46.313-12.392s32.689 4.508 46.311 12.397z"/><path d="m194.281 186.932 61.719 69.068-90.66 18.915c-7.002-33.565 5.109-66.657 28.941-87.983z"/></g><circle cx="256" cy="256" fill="#e6e2e0" r="46.335"/><path d="m69.502 210.824c-10.237 0-18.534-8.297-18.534-18.534v-57.919c0-10.237 8.297-18.534 18.534-18.534s18.534 8.297 18.534 18.534v57.919c0 10.236-8.297 18.534-18.534 18.534z" fill="#ccc4c1"/><path d="m69.502 396.163c-10.237 0-18.534-8.297-18.534-18.534v-57.919c0-10.237 8.297-18.534 18.534-18.534s18.534 8.297 18.534 18.534v57.919c0 10.237-8.297 18.534-18.534 18.534z" fill="#ccc4c1"/><g fill="#11113f"><path d="m500.416 0h-488.832c-6.398 0-11.584 5.187-11.584 11.584v488.833c0 6.396 5.186 11.583 11.584 11.583h488.833c6.398 0 11.584-5.187 11.584-11.584v-488.832c-.001-6.397-5.187-11.584-11.585-11.584zm-11.583 488.833h-465.666v-465.666h465.665v465.666z"/><path d="m317.279 171.657c-.234-.17-.476-.319-.718-.468-17.083-12.232-37.995-19.442-60.561-19.442s-43.478 7.21-60.561 19.442c-.242.149-.484.299-.718.468-.255.185-.491.385-.726.586-25.615 19.014-42.248 49.479-42.248 83.757 0 57.485 46.768 104.253 104.253 104.253s104.253-46.768 104.253-104.253c0-34.279-16.633-64.744-42.248-83.757-.235-.201-.471-.401-.726-.586zm-61.279 119.094c-19.162 0-34.751-15.589-34.751-34.751s15.589-34.751 34.751-34.751 34.751 15.589 34.751 34.751-15.589 34.751-34.751 34.751zm37.784-106.463-13.811 19.01c-7.31-3.34-15.424-5.216-23.973-5.216s-16.662 1.877-23.972 5.215l-13.811-19.01c11.291-5.973 24.145-9.372 37.784-9.372 13.638-.001 26.492 3.399 37.783 9.373zm-94.294 13.641 13.801 18.996c-9.44 10.308-15.209 24.029-15.209 39.075 0 2.204.136 4.375.376 6.516l-22.348 7.262c-.771-4.481-1.195-9.079-1.195-13.778-.001-22.752 9.432-43.331 24.575-58.071zm-16.215 93.881 22.36-7.265c8.136 14.299 22.171 24.823 38.781 28.209v23.493c-26.875-3.864-49.528-20.949-61.141-44.437zm84.309 44.435v-23.493c16.61-3.386 30.646-13.91 38.781-28.209l22.36 7.265c-11.613 23.49-34.266 40.575-61.141 44.437zm69.502-80.245c0 4.698-.424 9.297-1.195 13.779l-22.348-7.262c.241-2.141.376-4.313.376-6.516 0-15.046-5.77-28.767-15.209-39.075l13.801-18.996c15.142 14.739 24.575 35.318 24.575 58.07z"/><path d="m57.919 405.426v37.071c0 6.397 5.186 11.584 11.584 11.584h372.995c6.398 0 11.584-5.187 11.584-11.584v-263.98c0-6.397-5.186-11.584-11.584-11.584s-11.584 5.187-11.584 11.584v252.396h-349.828v-25.488c10.874-4.548 18.534-15.293 18.534-27.797v-57.918c0-12.505-7.66-23.25-18.534-27.797v-71.825c10.874-4.548 18.534-15.294 18.534-27.797v-57.919c0-12.505-7.66-23.25-18.534-27.797v-25.489h349.828v57.919c0 6.397 5.186 11.584 11.584 11.584s11.584-5.187 11.584-11.584v-69.503c0-6.397-5.186-11.584-11.584-11.584h-372.996c-6.398 0-11.584 5.187-11.584 11.584v37.071c-10.874 4.548-18.534 15.293-18.534 27.797v57.919c0 12.505 7.66 23.25 18.534 27.797v71.825c-10.874 4.548-18.534 15.294-18.534 27.797v57.919c.001 12.507 7.661 23.252 18.535 27.799zm18.533-85.716v57.919c0 3.833-3.117 6.95-6.95 6.95s-6.95-3.117-6.95-6.95v-57.919c0-3.833 3.117-6.95 6.95-6.95s6.95 3.117 6.95 6.95zm-13.9-127.42v-57.919c0-3.833 3.117-6.95 6.95-6.95s6.95 3.117 6.95 6.95v57.919c0 3.833-3.117 6.95-6.95 6.95s-6.95-3.117-6.95-6.95z"/></g></svg>