<svg enable-background="new 0 0 512 512" viewBox="0 0 512 512" xmlns="http://www.w3.org/2000/svg"><path d="m475.975 144.854h-54.994l-46.335 177.202 46.335 177.202h54.994z" fill="#ff9e24"/><path d="m365.987 144.854-46.335 177.202 46.335 177.202h54.994v-354.404z" fill="#ff8c00"/><path d="m36.025 144.854h329.962v354.404h-329.962z" fill="#ffb14d"/><path d="m475.975 134.429h-67.852v-37.3c0-53.557-43.572-97.129-97.129-97.129-7.79 0-15.595.945-23.198 2.81-6.214 1.522-10.015 7.795-8.492 14.008 1.522 6.214 7.8 10.015 14.008 8.492 5.801-1.422 11.75-2.143 17.683-2.143 40.783 0 73.963 33.179 73.963 73.962v37.3h-18.971-67.852v-37.3c.001-53.556-43.571-97.129-97.129-97.129-53.557 0-97.129 43.572-97.129 97.129v37.3h-67.852c-6.397 0-11.584 5.187-11.584 11.584v354.404c0 6.397 5.187 11.584 11.584 11.584h329.962 109.987c6.397 0 11.584-5.187 11.584-11.584v-354.404c0-6.398-5.186-11.584-11.583-11.584zm-348.931-37.3c0-40.783 33.18-73.962 73.963-73.962s73.962 33.179 73.962 73.962v37.3h-37.937v-37.3c0-10.989 2.363-21.579 7.024-31.474 2.727-5.787.246-12.689-5.542-15.416-5.787-2.729-12.69-.246-15.416 5.542-6.128 13.007-9.236 26.917-9.236 41.347v37.3h-86.82v-37.299zm-79.435 60.467h56.268v12.859c0 6.397 5.187 11.584 11.584 11.584s11.584-5.187 11.584-11.584v-12.859h147.924v12.859c0 6.397 5.187 11.584 11.584 11.584s11.584-5.187 11.584-11.584v-12.859h56.268v331.236h-306.796zm416.782 331.237h-31.827v-227.809c0-6.397-5.187-11.584-11.584-11.584s-11.584 5.187-11.584 11.584v227.809h-31.825v-331.237h31.826v61.741c0 6.397 5.187 11.584 11.584 11.584s11.584-5.187 11.584-11.584v-61.741h31.826z" fill="#11113f"/></svg>