<svg enable-background="new 0 0 512 512" viewBox="0 0 512 512" xmlns="http://www.w3.org/2000/svg"><path d="m72.818 193.801v306.821h232.106l42.667-22.755 42.667 22.755h48.924v-306.821z" fill="#ada7a4"/><path d="m304.924 315.164h85.333v185.458h-85.333z" fill="#181818"/><path d="m121.742 315.164h134.258v136.533h-134.258z" fill="#fff"/><path d="m118.329 11.378h275.342v63.716h-275.342z" fill="#ffb14d"/><path d="m72.818 120.604-34.134 73.197 72.439 22.756 72.438-22.756 28.173-36.598-16.795-36.599z" fill="#ee3840"/><path d="m439.182 120.604 34.134 73.197-72.439 22.756-72.438-22.756-28.173-36.598 16.795-36.599z" fill="#ee3840"/><path d="m38.684 193.801c0 40.008 32.431 72.439 72.439 72.439 40.007 0 72.439-32.431 72.439-72.439z" fill="#c21b23"/><path d="m317.061 120.604h-122.122l-11.378 73.197 72.439 22.756 72.439-22.756z" fill="#ffe1d6"/><path d="m183.561 193.801c0 40.008 32.432 72.439 72.439 72.439s72.439-32.431 72.439-72.439z" fill="#ffb14d"/><path d="m328.439 193.801c0 40.007 32.431 72.439 72.439 72.439s72.438-32.431 72.438-72.439z" fill="#c21b23"/><g fill="#11113f"><path d="m390.258 512c-6.283 0-11.378-5.095-11.378-11.378v-174.08h-62.578v174.08c0 6.283-5.095 11.378-11.378 11.378s-11.378-5.095-11.378-11.378v-185.458c0-6.283 5.095-11.378 11.378-11.378h85.333c6.283 0 11.378 5.095 11.378 11.378v185.458c.001 6.283-5.094 11.378-11.377 11.378z"/><path d="m256 463.076h-134.258c-6.283 0-11.378-5.095-11.378-11.378v-136.534c0-6.283 5.095-11.378 11.378-11.378h134.258c6.283 0 11.378 5.095 11.378 11.378v136.533c0 6.284-5.095 11.379-11.378 11.379zm-122.88-22.756h111.502v-113.778h-111.502z"/><path d="m393.671 86.471h-275.342c-6.283 0-11.378-5.095-11.378-11.378v-63.715c0-6.283 5.095-11.378 11.378-11.378h275.342c6.283 0 11.378 5.095 11.378 11.378v63.716c0 6.282-5.095 11.377-11.378 11.377zm-263.964-22.755h252.587v-40.96h-252.587z"/><path d="m439.182 512h-366.364c-6.283 0-11.378-5.095-11.378-11.378v-236.735c0-6.283 5.095-11.378 11.378-11.378s11.378 5.095 11.378 11.378v225.357h343.609v-225.357c0-6.283 5.095-11.378 11.378-11.378s11.378 5.095 11.378 11.378v236.735c-.001 6.283-5.096 11.378-11.379 11.378z"/><path d="m400.877 277.618c-30.868 0-57.894-16.774-72.438-41.686-14.545 24.912-41.57 41.686-72.439 41.686s-57.894-16.774-72.439-41.686c-14.544 24.912-41.57 41.686-72.438 41.686-46.217 0-83.817-37.6-83.817-83.817 0-1.661.363-3.303 1.066-4.809l34.133-73.197c1.868-4.006 5.889-6.568 10.312-6.568h366.364c4.423 0 8.443 2.562 10.312 6.568l34.133 73.197c.702 1.505 1.066 3.148 1.066 4.809.001 46.217-37.599 83.817-83.815 83.817zm-61.06-83.817c0 33.669 27.391 61.061 61.06 61.061 32.86 0 59.74-26.088 61.013-58.64l-29.955-64.24h-351.87l-29.955 64.24c1.273 32.552 28.153 58.64 61.013 58.64 33.669 0 61.06-27.392 61.06-61.061 0-6.283 5.095-11.378 11.378-11.378s11.378 5.095 11.378 11.378c0 33.669 27.392 61.061 61.061 61.061s61.061-27.392 61.061-61.061c0-6.283 5.095-11.378 11.378-11.378s11.378 5.095 11.378 11.378z"/><path d="m439.182 205.179h-366.364c-6.283 0-11.378-5.095-11.378-11.378s5.095-11.378 11.378-11.378h366.364c6.283 0 11.378 5.095 11.378 11.378s-5.095 11.378-11.378 11.378z"/><path d="m141.084 131.982c-6.283 0-11.378-5.095-11.378-11.378v-45.511c0-6.283 5.095-11.378 11.378-11.378s11.378 5.095 11.378 11.378v45.511c0 6.283-5.095 11.378-11.378 11.378z"/><path d="m370.916 131.982c-6.283 0-11.378-5.095-11.378-11.378v-45.511c0-6.283 5.095-11.378 11.378-11.378s11.378 5.095 11.378 11.378v45.511c-.001 6.283-5.096 11.378-11.378 11.378z"/><path d="m188.881 171.047c-.583 0-1.17-.044-1.762-.137-6.209-.965-10.46-6.781-9.495-12.99l6.072-39.063c.965-6.21 6.796-10.461 12.99-9.495 6.209.965 10.46 6.781 9.495 12.99l-6.072 39.063c-.873 5.618-5.715 9.632-11.228 9.632z"/><path d="m323.119 171.047c-5.513 0-10.356-4.014-11.228-9.631l-6.072-39.063c-.966-6.209 3.286-12.025 9.495-12.99 6.207-.969 12.025 3.286 12.99 9.495l6.072 39.063c.966 6.209-3.286 12.025-9.495 12.99-.592.091-1.181.136-1.762.136z"/></g></svg>