<svg enable-background="new 0 0 512 512" viewBox="0 0 512 512" xmlns="http://www.w3.org/2000/svg"><path d="m450.307 150.516-87.624-87.624c-26.56 26.56-69.622 26.56-96.182 0l-254.502 254.502 183.807 183.806 254.501-254.501c-26.559-26.561-26.559-69.623 0-96.183z" fill="#95a53b"/><g fill="#11113f"><path d="m256.857 181.637c-4.687-4.686-12.283-4.686-16.971 0l-139.265 139.263c-4.686 4.686-4.686 12.284 0 16.971 2.343 2.342 5.414 3.515 8.485 3.515s6.141-1.172 8.485-3.515l139.264-139.264c4.688-4.686 4.688-12.284.002-16.97z"/><path d="m264.991 303.545-90.863 90.862c-4.686 4.686-4.686 12.284 0 16.971 2.343 2.342 5.414 3.515 8.485 3.515s6.141-1.172 8.485-3.515l90.863-90.862c4.686-4.686 4.686-12.284 0-16.971-4.687-4.687-12.283-4.687-16.97 0z"/><path d="m276.639 218.39-139.264 139.264c-4.686 4.686-4.686 12.284 0 16.97 2.343 2.344 5.414 3.515 8.485 3.515s6.141-1.172 8.485-3.515l139.264-139.263c4.686-4.686 4.686-12.284 0-16.971-4.687-4.685-12.283-4.685-16.97 0z"/><path d="m508.485 3.514c-4.687-4.686-12.283-4.686-16.971 0l-85.02 85.021-35.326-35.328c-4.686-4.685-12.281-4.686-16.971 0-10.579 10.579-24.644 16.406-39.607 16.406-14.961 0-29.025-5.826-39.605-16.404-2.25-2.25-5.303-3.515-8.485-3.515s-6.234 1.265-8.485 3.515l-254.5 254.5c-2.25 2.25-3.515 5.303-3.515 8.485s1.265 6.235 3.515 8.485l183.806 183.806c2.343 2.343 5.414 3.515 8.485 3.515s6.141-1.171 8.485-3.515l254.502-254.501c2.25-2.25 3.515-5.303 3.515-8.485s-1.265-6.235-3.515-8.485c-10.579-10.579-16.406-24.646-16.406-39.605 0-14.961 5.826-29.027 16.406-39.607 2.25-2.25 3.515-5.303 3.515-8.485s-1.265-6.235-3.515-8.485l-35.326-35.326 85.02-85.02c4.684-4.688 4.684-12.286-.002-16.972zm-74.52 146.43c-10.113 13.669-15.576 30.146-15.576 47.464s5.465 33.794 15.576 47.463l-238.159 238.16-166.836-166.837 238.159-238.16c13.669 10.113 30.145 15.578 47.463 15.578s33.795-5.465 47.464-15.578l27.47 27.47-23.261 23.26c-15.328-8.077-34.784-5.676-47.668 7.206-7.67 7.67-11.894 17.868-11.894 28.716 0 10.849 4.225 21.046 11.894 28.716 15.833 15.832 41.596 15.833 57.432 0 7.67-7.67 11.894-17.868 11.894-28.716 0-6.72-1.621-13.189-4.676-18.963l23.249-23.249zm-88.625 16.715c4.687 4.687 12.283 4.687 16.971 0l1.612-1.612c-.091 4.302-1.81 8.332-4.862 11.384-6.475 6.479-17.016 6.476-23.491 0-3.138-3.137-4.866-7.309-4.866-11.746 0-4.436 1.727-8.608 4.866-11.745 3.051-3.051 7.081-4.77 11.381-4.862l-1.61 1.61c-4.687 4.687-4.687 12.285-.001 16.971z"/></g></svg>