<?xml version="1.0" encoding="iso-8859-1"?>
<!-- Generator: Adobe Illustrator 19.0.0, SVG Export Plug-In . SVG Version: 6.00 Build 0)  -->
<svg version="1.1" id="Layer_1" xmlns="http://www.w3.org/2000/svg" xmlns:xlink="http://www.w3.org/1999/xlink" x="0px" y="0px"
	 viewBox="0 0 512 512" style="enable-background:new 0 0 512 512;" xml:space="preserve">
<path style="fill:#95A53B;" d="M450.307,150.516l-87.624-87.624c-26.56,26.56-69.622,26.56-96.182,0L11.999,317.394L195.806,501.2
	l254.501-254.501C423.748,220.138,423.748,177.076,450.307,150.516z"/>
<g>
	<path style="fill:#11113F;" d="M256.857,181.637c-4.687-4.686-12.283-4.686-16.971,0L100.621,320.9
		c-4.686,4.686-4.686,12.284,0,16.971c2.343,2.342,5.414,3.515,8.485,3.515s6.141-1.172,8.485-3.515l139.264-139.264
		C261.543,193.921,261.543,186.323,256.857,181.637z"/>
	<path style="fill:#11113F;" d="M264.991,303.545l-90.863,90.862c-4.686,4.686-4.686,12.284,0,16.971
		c2.343,2.342,5.414,3.515,8.485,3.515c3.071,0,6.141-1.172,8.485-3.515l90.863-90.862c4.686-4.686,4.686-12.284,0-16.971
		C277.274,298.858,269.678,298.858,264.991,303.545z"/>
	<path style="fill:#11113F;" d="M276.639,218.39L137.375,357.654c-4.686,4.686-4.686,12.284,0,16.97
		c2.343,2.344,5.414,3.515,8.485,3.515c3.071,0,6.141-1.172,8.485-3.515l139.264-139.263c4.686-4.686,4.686-12.284,0-16.971
		C288.922,213.705,281.326,213.705,276.639,218.39z"/>
	<path style="fill:#11113F;" d="M508.485,3.514c-4.687-4.686-12.283-4.686-16.971,0l-85.02,85.021l-35.326-35.328
		c-4.686-4.685-12.281-4.686-16.971,0c-10.579,10.579-24.644,16.406-39.607,16.406c-14.961,0-29.025-5.826-39.605-16.404
		c-2.25-2.25-5.303-3.515-8.485-3.515s-6.234,1.265-8.485,3.515L3.515,307.709C1.265,309.959,0,313.012,0,316.194
		c0,3.182,1.265,6.235,3.515,8.485l183.806,183.806c2.343,2.343,5.414,3.515,8.485,3.515c3.071,0,6.141-1.171,8.485-3.515
		l254.502-254.501c2.25-2.25,3.515-5.303,3.515-8.485c0-3.182-1.265-6.235-3.515-8.485c-10.579-10.579-16.406-24.646-16.406-39.605
		c0-14.961,5.826-29.027,16.406-39.607c2.25-2.25,3.515-5.303,3.515-8.485c0-3.182-1.265-6.235-3.515-8.485l-35.326-35.326
		l85.02-85.02C513.171,15.798,513.171,8.2,508.485,3.514z M433.965,149.944c-10.113,13.669-15.576,30.146-15.576,47.464
		s5.465,33.794,15.576,47.463l-238.159,238.16L28.97,316.194l238.159-238.16c13.669,10.113,30.145,15.578,47.463,15.578
		s33.795-5.465,47.464-15.578l27.47,27.47l-23.261,23.26c-15.328-8.077-34.784-5.676-47.668,7.206
		c-7.67,7.67-11.894,17.868-11.894,28.716c0,10.849,4.225,21.046,11.894,28.716c15.833,15.832,41.596,15.833,57.432,0
		c7.67-7.67,11.894-17.868,11.894-28.716c0-6.72-1.621-13.189-4.676-18.963l23.249-23.249L433.965,149.944z M345.34,166.659
		c4.687,4.687,12.283,4.687,16.971,0l1.612-1.612c-0.091,4.302-1.81,8.332-4.862,11.384c-6.475,6.479-17.016,6.476-23.491,0
		c-3.138-3.137-4.866-7.309-4.866-11.746c0-4.436,1.727-8.608,4.866-11.745c3.051-3.051,7.081-4.77,11.381-4.862l-1.61,1.61
		C340.654,154.375,340.654,161.973,345.34,166.659z"/>
</g>
<g>
</g>
<g>
</g>
<g>
</g>
<g>
</g>
<g>
</g>
<g>
</g>
<g>
</g>
<g>
</g>
<g>
</g>
<g>
</g>
<g>
</g>
<g>
</g>
<g>
</g>
<g>
</g>
<g>
</g>
</svg>
