<?xml version="1.0" encoding="iso-8859-1"?>
<!-- Generator: Adobe Illustrator 19.0.0, SVG Export Plug-In . SVG Version: 6.00 Build 0)  -->
<svg version="1.1" id="Layer_1" xmlns="http://www.w3.org/2000/svg" xmlns:xlink="http://www.w3.org/1999/xlink" x="0px" y="0px"
	 viewBox="0 0 512 512" style="enable-background:new 0 0 512 512;" xml:space="preserve">
<path style="fill:#FF8C00;" d="M276.008,31.351c-19.126-19.117-50.118-19.117-69.195,0l-30.776,30.816l69.111,69.145l30.86-30.808
	C295.102,81.429,295.102,50.427,276.008,31.351z"/>
<path style="fill:#FF9E24;" d="M256.753,119.729l-69.145-69.145c-41.945-15.742-90.903-6.997-124.494,26.612l167.011,167.011
	C263.732,210.615,272.477,161.665,256.753,119.729z"/>
<path style="fill:#FFB14D;" d="M366.067,29.601c-1.051-2.887-3.205-5.238-5.99-6.538c-2.785-1.297-5.969-1.438-8.857-0.386
	l-33.725,12.275c-6.011,2.188-9.111,8.835-6.924,14.846l70.721,194.305l-77.257,212.265c-1.28,3.516-0.782,7.434,1.336,10.519
	c2.119,3.085,5.597,4.956,9.338,5.024l37.94,0.693c0.072,0.001,0.142,0.002,0.213,0.002c4.861,0,9.216-3.04,10.884-7.622
	l74.535-204.783l0.001-32.189L366.067,29.601z M344.804,449.288l-13.449-0.246l69.333-190.489l11.906,4.485L344.804,449.288z
	 M400.693,229.666L336.305,52.76l11.954-4.351l64.338,176.766L400.693,229.666z"/>
<g>
	<path style="fill:#FF8C00;" d="M377.309,244.106c0,19.779,16.003,35.783,35.782,35.783c19.779,0,35.798-16.003,35.798-35.783
		c0-19.739-16.019-35.79-35.798-35.79C393.312,208.316,377.309,224.368,377.309,244.106z"/>
	<polygon style="fill:#FF8C00;" points="169.083,437.855 122.365,500.415 408.832,500.415 408.832,437.855 	"/>
</g>
<path style="fill:#11113F;" d="M460.473,244.106c0-21.008-13.753-38.856-32.726-45.043l-61.68-169.462
	c-1.051-2.887-3.205-5.238-5.99-6.538c-2.785-1.297-5.969-1.438-8.857-0.386l-5.752,2.094C338.257,10.012,323.062,0,305.873,0
	c-12.689,0-24.43,5.423-32.625,14.481c-9.479-5.888-20.422-9.051-31.855-9.051c-16.171,0-31.363,6.299-42.775,17.736l-14.102,14.121
	c-45.648-14.159-95.79-2.101-129.597,31.721c-4.522,4.523-4.521,11.856,0.001,16.38l167.012,167.012
	c2.262,2.261,5.227,3.393,8.191,3.393c2.963,0,5.927-1.131,8.189-3.392c33.816-33.801,45.881-83.935,31.736-129.577l14.147-14.123
	c11.425-11.415,17.716-26.604,17.716-42.772c0-13.03-4.094-25.423-11.662-35.719c3.893-4.401,9.529-7.042,15.625-7.042
	c7.297,0,13.825,3.809,17.564,9.623l-5.941,2.163c-6.011,2.188-9.111,8.835-6.924,14.846l61.878,170.008
	c-4.266,7.11-6.725,15.421-6.725,24.3c0,8.877,2.459,17.187,6.724,24.294L314.99,426.27h-58.136v-14.476
	c0-6.397-5.186-11.584-11.584-11.584s-11.584,5.187-11.584,11.584v14.476h-64.603c-3.655,0-7.095,1.724-9.281,4.653l-43.244,57.908
	h-5.601c-6.398,0-11.584,5.187-11.584,11.584s5.186,11.584,11.584,11.584h11.369c0.009,0,0.02,0.001,0.029,0.001
	c0.007,0,0.013-0.001,0.02-0.001h297.866c6.398,0,11.584-5.187,11.584-11.584c0-6.337-5.092-11.479-11.408-11.574v-50.986
	c0-6.397-5.186-11.584-11.584-11.584h-30.998l49.911-137.129C446.719,282.957,460.473,265.112,460.473,244.106z M267.824,92.307
	l-11.066,11.047l-19.276-19.275c-4.523-4.522-11.858-4.522-16.382,0c-4.523,4.523-4.523,11.858,0,16.383l25.617,25.617
	c12.132,34.726,5.469,73.112-17.05,101.294L79.949,77.65c28.188-22.523,66.58-29.182,101.307-17.035l12.706,12.706
	c2.262,2.261,5.227,3.393,8.191,3.393c2.964,0,5.93-1.132,8.191-3.393c4.523-4.523,4.523-11.858,0-16.383l-6.361-6.361l11.03-11.045
	c7.037-7.052,16.406-10.935,26.378-10.935c9.719,0,18.866,3.695,25.862,10.409c0.371,0.426,0.766,0.833,1.201,1.205
	c6.636,6.959,10.29,16.05,10.29,25.717C278.744,75.902,274.865,85.272,267.824,92.307z M413.091,268.306
	c-13.343,0-24.198-10.855-24.198-24.199c0-13.347,10.855-24.205,24.198-24.205c13.353,0,24.215,10.859,24.215,24.205
	C437.305,257.451,426.443,268.306,413.091,268.306z M341.8,50.76c0.027-0.009,0.053-0.02,0.08-0.029l6.379-2.321l54.411,149.493
	c-4.211,0.95-8.214,2.453-11.921,4.445L336.304,52.76L341.8,50.76z M397.25,488.831H145.472l29.418-39.393h186.324
	c0.027,0,0.052,0.003,0.079,0.003c0.03,0,0.059-0.003,0.088-0.003h35.87V488.831z M339.643,426.271l51.106-140.412
	c3.707,1.991,7.709,3.495,11.921,4.445l-49.488,135.968h-13.539V426.271z"/>
<g>
</g>
<g>
</g>
<g>
</g>
<g>
</g>
<g>
</g>
<g>
</g>
<g>
</g>
<g>
</g>
<g>
</g>
<g>
</g>
<g>
</g>
<g>
</g>
<g>
</g>
<g>
</g>
<g>
</g>
</svg>
