<svg enable-background="new 0 0 512 512" viewBox="0 0 512 512" xmlns="http://www.w3.org/2000/svg"><path d="m276.008 31.351c-19.126-19.117-50.118-19.117-69.195 0l-30.776 30.816 69.111 69.145 30.86-30.808c19.094-19.075 19.094-50.077 0-69.153z" fill="#ff8c00"/><path d="m256.753 119.729-69.145-69.145c-41.945-15.742-90.903-6.997-124.494 26.612l167.011 167.011c33.607-33.592 42.352-82.542 26.628-124.478z" fill="#ff9e24"/><path d="m366.067 29.601c-1.051-2.887-3.205-5.238-5.99-6.538-2.785-1.297-5.969-1.438-8.857-.386l-33.725 12.275c-6.011 2.188-9.111 8.835-6.924 14.846l70.721 194.305-77.257 212.265c-1.28 3.516-.782 7.434 1.336 10.519 2.119 3.085 5.597 4.956 9.338 5.024l37.94.693c.072.001.142.002.213.002 4.861 0 9.216-3.04 10.884-7.622l74.535-204.783.001-32.189zm-21.263 419.687-13.449-.246 69.333-190.489 11.906 4.485zm55.889-219.622-64.388-176.906 11.954-4.351 64.338 176.766z" fill="#ffb14d"/><path d="m377.309 244.106c0 19.779 16.003 35.783 35.782 35.783s35.798-16.003 35.798-35.783c0-19.739-16.019-35.79-35.798-35.79s-35.782 16.052-35.782 35.79z" fill="#ff8c00"/><path d="m169.083 437.855-46.718 62.56h286.467v-62.56z" fill="#ff8c00"/><path d="m460.473 244.106c0-21.008-13.753-38.856-32.726-45.043l-61.68-169.462c-1.051-2.887-3.205-5.238-5.99-6.538-2.785-1.297-5.969-1.438-8.857-.386l-5.752 2.094c-7.211-14.759-22.406-24.771-39.595-24.771-12.689 0-24.43 5.423-32.625 14.481-9.479-5.888-20.422-9.051-31.855-9.051-16.171 0-31.363 6.299-42.775 17.736l-14.102 14.121c-45.648-14.159-95.79-2.101-129.597 31.721-4.522 4.523-4.521 11.856.001 16.38l167.012 167.012c2.262 2.261 5.227 3.393 8.191 3.393 2.963 0 5.927-1.131 8.189-3.392 33.816-33.801 45.881-83.935 31.736-129.577l14.147-14.123c11.425-11.415 17.716-26.604 17.716-42.772 0-13.03-4.094-25.423-11.662-35.719 3.893-4.401 9.529-7.042 15.625-7.042 7.297 0 13.825 3.809 17.564 9.623l-5.941 2.163c-6.011 2.188-9.111 8.835-6.924 14.846l61.878 170.008c-4.266 7.11-6.725 15.421-6.725 24.3 0 8.877 2.459 17.187 6.724 24.294l-57.46 157.868h-58.136v-14.476c0-6.397-5.186-11.584-11.584-11.584s-11.584 5.187-11.584 11.584v14.476h-64.603c-3.655 0-7.095 1.724-9.281 4.653l-43.244 57.908h-5.601c-6.398 0-11.584 5.187-11.584 11.584s5.186 11.584 11.584 11.584h11.369c.009 0 .02.001.029.001.007 0 .013-.001.02-.001h297.866c6.398 0 11.584-5.187 11.584-11.584 0-6.337-5.092-11.479-11.408-11.574v-50.986c0-6.397-5.186-11.584-11.584-11.584h-30.998l49.911-137.129c18.973-6.185 32.727-24.03 32.727-45.036zm-192.649-151.799-11.066 11.047-19.276-19.275c-4.523-4.522-11.858-4.522-16.382 0-4.523 4.523-4.523 11.858 0 16.383l25.617 25.617c12.132 34.726 5.469 73.112-17.05 101.294l-149.718-149.723c28.188-22.523 66.58-29.182 101.307-17.035l12.706 12.706c2.262 2.261 5.227 3.393 8.191 3.393s5.93-1.132 8.191-3.393c4.523-4.523 4.523-11.858 0-16.383l-6.361-6.361 11.03-11.045c7.037-7.052 16.406-10.935 26.378-10.935 9.719 0 18.866 3.695 25.862 10.409.371.426.766.833 1.201 1.205 6.636 6.959 10.29 16.05 10.29 25.717 0 9.974-3.879 19.344-10.92 26.379zm145.267 175.999c-13.343 0-24.198-10.855-24.198-24.199 0-13.347 10.855-24.205 24.198-24.205 13.353 0 24.215 10.859 24.215 24.205-.001 13.344-10.863 24.199-24.215 24.199zm-71.291-217.546c.027-.009.053-.02.08-.029l6.379-2.321 54.411 149.493c-4.211.95-8.214 2.453-11.921 4.445l-54.445-149.588zm55.45 438.071h-251.778l29.418-39.393h186.324c.027 0 .052.003.079.003.03 0 .059-.003.088-.003h35.87v39.393zm-57.607-62.56 51.106-140.412c3.707 1.991 7.709 3.495 11.921 4.445l-49.488 135.968h-13.539z" fill="#11113f"/></svg>