<svg enable-background="new 0 0 512 512" viewBox="0 0 512 512" xmlns="http://www.w3.org/2000/svg"><path d="m366.933 12.19h-307.2v487.62h392.534v-402.286h-85.334z" fill="#e6e2e0"/><path d="m120.686 60.952h175.543v175.543h-175.543z" fill="#fff"/><circle cx="208.457" cy="126.781" fill="#269af2" r="24.381"/><path d="m366.933 12.19v85.334h85.334z" fill="#ccc4c1"/><g fill="#11113f"><path d="m464.396 96.307c-.029-.296-.08-.586-.13-.877-.018-.101-.027-.205-.046-.306-.069-.35-.16-.692-.26-1.031-.012-.04-.02-.082-.03-.121-.105-.344-.229-.68-.362-1.011-.015-.037-.026-.074-.04-.11-.129-.312-.277-.614-.432-.912-.028-.055-.051-.113-.08-.168-.144-.267-.304-.523-.466-.778-.052-.082-.098-.168-.151-.249-.154-.229-.323-.446-.491-.663-.076-.098-.143-.2-.222-.296-.197-.24-.411-.467-.625-.691-.06-.062-.111-.129-.172-.19l-85.335-85.332c-.057-.057-.122-.107-.18-.163-.228-.218-.457-.434-.701-.634-.09-.074-.189-.139-.282-.21-.223-.173-.445-.346-.679-.502-.076-.051-.156-.093-.233-.141-.26-.166-.521-.329-.794-.474-.051-.027-.105-.049-.156-.076-.301-.156-.607-.305-.923-.436-.034-.015-.071-.024-.105-.039-.332-.134-.669-.258-1.015-.363-.04-.012-.083-.02-.124-.032-.338-.099-.679-.189-1.028-.258-.102-.021-.207-.029-.31-.048-.289-.05-.578-.101-.873-.13-.403-.045-.809-.066-1.218-.066h-307.2c-6.732 0-12.19 5.458-12.19 12.19v487.62c0 6.733 5.459 12.19 12.19 12.19h392.533c6.732 0 12.19-5.458 12.19-12.19v-402.286c.001-.409-.02-.815-.06-1.217zm-85.272-54.686 43.713 43.713h-43.713zm-307.2 445.998v-463.238h282.819v73.143c0 6.733 5.459 12.19 12.19 12.19h73.143v377.905z"/><path d="m157.257 187.733c0 6.733 5.459 12.19 12.19 12.19h78.019c6.732 0 12.19-5.458 12.19-12.19 0-6.733-5.459-12.19-12.19-12.19h-78.019c-6.731 0-12.19 5.458-12.19 12.19z"/><path d="m245.029 126.781c0-20.165-16.406-36.571-36.571-36.571s-36.571 16.406-36.571 36.571 16.406 36.571 36.571 36.571 36.571-16.406 36.571-36.571zm-48.762 0c0-6.722 5.469-12.19 12.19-12.19 6.722 0 12.19 5.469 12.19 12.19s-5.469 12.19-12.19 12.19c-6.722 0-12.19-5.468-12.19-12.19z"/><path d="m120.686 248.686h175.543c6.732 0 12.19-5.458 12.19-12.19v-38.878c0-6.733-5.459-12.19-12.19-12.19-6.732 0-12.19 5.458-12.19 12.19v26.687h-151.163v-151.162h151.162v82.895c0 6.733 5.459 12.19 12.19 12.19 6.732 0 12.19-5.458 12.19-12.19v-95.086c0-6.733-5.459-12.19-12.19-12.19h-175.542c-6.732 0-12.19 5.458-12.19 12.19v175.543c-.001 6.733 5.458 12.191 12.19 12.191z"/><path d="m391.314 285.257h-270.628c-6.732 0-12.19 5.458-12.19 12.19s5.459 12.19 12.19 12.19h270.629c6.732 0 12.19-5.458 12.19-12.19s-5.459-12.19-12.191-12.19z"/><path d="m391.314 346.21h-270.628c-6.732 0-12.19 5.458-12.19 12.19 0 6.733 5.459 12.19 12.19 12.19h270.629c6.732 0 12.19-5.458 12.19-12.19 0-6.733-5.459-12.19-12.191-12.19z"/><path d="m391.314 407.162h-270.628c-6.732 0-12.19 5.458-12.19 12.19 0 6.733 5.459 12.19 12.19 12.19h270.629c6.732 0 12.19-5.458 12.19-12.19s-5.459-12.19-12.191-12.19z"/></g></svg>