<svg enable-background="new 0 0 512 512" viewBox="0 0 512 512" xmlns="http://www.w3.org/2000/svg"><path d="m500.416 205.471c0-103.736-109.435-187.832-244.417-187.832-134.992 0-244.415 84.097-244.415 187.832 0 92.583 87.164 169.5 201.873 184.969 6.028 36.68-5.095 75.631-33.384 103.922 60.701 0 110.811-45.288 118.42-103.916 114.726-15.455 201.923-92.38 201.923-184.975z" fill="#ffb14d"/><g fill="#11113f"><path d="m340.898 131.262h-169.796c-6.397 0-11.584 5.186-11.584 11.584s5.187 11.584 11.584 11.584h169.796c6.397 0 11.584-5.186 11.584-11.584s-5.187-11.584-11.584-11.584z"/><path d="m340.898 193.887h-169.796c-6.397 0-11.584 5.186-11.584 11.584s5.187 11.584 11.584 11.584h169.796c6.397 0 11.584-5.186 11.584-11.584s-5.187-11.584-11.584-11.584z"/><path d="m340.898 256.49h-169.796c-6.397 0-11.584 5.186-11.584 11.584s5.187 11.584 11.584 11.584h169.796c6.397 0 11.584-5.186 11.584-11.584s-5.187-11.584-11.584-11.584z"/><path d="m435.885 63.469c-48.179-37.025-112.063-57.414-179.886-57.414-67.826 0-131.711 20.39-179.888 57.415-49.082 37.718-76.111 88.149-76.111 142.001 0 47.757 21.922 93.921 61.726 129.987 36.673 33.228 86.584 56.181 141.334 65.142 2.699 31.559-8.644 63.035-31.179 85.572-3.312 3.313-4.303 8.295-2.51 12.623 1.793 4.329 6.015 7.151 10.701 7.151 62.65 0 116.392-44.677 128.473-105.283 54.896-8.914 104.947-31.891 141.708-65.191 39.818-36.07 61.747-82.238 61.747-130.001 0-53.852-27.032-104.283-76.115-142.002zm-138.939 315.497c-5.191.7-9.267 4.796-9.941 9.99-5.768 44.444-38.482 79.807-80.371 90.495 16.729-26.776 23.474-59.126 18.254-90.888-.826-5.025-4.836-8.921-9.882-9.602-111.158-14.992-191.838-87.954-191.838-173.49 0-97.184 104.448-176.248 232.831-176.248 128.385 0 232.834 79.065 232.834 176.248 0 85.552-80.701 158.518-191.887 173.495z"/></g></svg>