<?xml version="1.0" encoding="iso-8859-1"?>
<!-- Generator: Adobe Illustrator 19.0.0, SVG Export Plug-In . SVG Version: 6.00 Build 0)  -->
<svg version="1.1" id="Layer_1" xmlns="http://www.w3.org/2000/svg" xmlns:xlink="http://www.w3.org/1999/xlink" x="0px" y="0px"
	 viewBox="0 0 512 512" style="enable-background:new 0 0 512 512;" xml:space="preserve">
<polygon style="fill:#E6E2E0;" points="366.933,12.19 59.733,12.19 59.733,499.81 452.267,499.81 452.267,97.524 366.933,97.524 "/>
<rect x="120.686" y="60.952" style="fill:#FFFFFF;" width="175.543" height="175.543"/>
<circle style="fill:#269AF2;" cx="208.457" cy="126.781" r="24.381"/>
<polygon style="fill:#CCC4C1;" points="366.933,12.19 366.933,97.524 452.267,97.524 "/>
<g>
	<path style="fill:#11113F;" d="M464.396,96.307c-0.029-0.296-0.08-0.586-0.13-0.877c-0.018-0.101-0.027-0.205-0.046-0.306
		c-0.069-0.35-0.16-0.692-0.26-1.031c-0.012-0.04-0.02-0.082-0.03-0.121c-0.105-0.344-0.229-0.68-0.362-1.011
		c-0.015-0.037-0.026-0.074-0.04-0.11c-0.129-0.312-0.277-0.614-0.432-0.912c-0.028-0.055-0.051-0.113-0.08-0.168
		c-0.144-0.267-0.304-0.523-0.466-0.778c-0.052-0.082-0.098-0.168-0.151-0.249c-0.154-0.229-0.323-0.446-0.491-0.663
		c-0.076-0.098-0.143-0.2-0.222-0.296c-0.197-0.24-0.411-0.467-0.625-0.691c-0.06-0.062-0.111-0.129-0.172-0.19L375.554,3.572
		c-0.057-0.057-0.122-0.107-0.18-0.163c-0.228-0.218-0.457-0.434-0.701-0.634c-0.09-0.074-0.189-0.139-0.282-0.21
		c-0.223-0.173-0.445-0.346-0.679-0.502c-0.076-0.051-0.156-0.093-0.233-0.141c-0.26-0.166-0.521-0.329-0.794-0.474
		c-0.051-0.027-0.105-0.049-0.156-0.076c-0.301-0.156-0.607-0.305-0.923-0.436c-0.034-0.015-0.071-0.024-0.105-0.039
		c-0.332-0.134-0.669-0.258-1.015-0.363c-0.04-0.012-0.083-0.02-0.124-0.032c-0.338-0.099-0.679-0.189-1.028-0.258
		c-0.102-0.021-0.207-0.029-0.31-0.048c-0.289-0.05-0.578-0.101-0.873-0.13C367.748,0.021,367.342,0,366.933,0h-307.2
		c-6.732,0-12.19,5.458-12.19,12.19V499.81c0,6.733,5.459,12.19,12.19,12.19h392.533c6.732,0,12.19-5.458,12.19-12.19V97.524
		C464.457,97.115,464.436,96.709,464.396,96.307z M379.124,41.621l43.713,43.713h-43.713V41.621z M71.924,487.619V24.381h282.819
		v73.143c0,6.733,5.459,12.19,12.19,12.19h73.143v377.905H71.924z"/>
	<path style="fill:#11113F;" d="M157.257,187.733c0,6.733,5.459,12.19,12.19,12.19h78.019c6.732,0,12.19-5.458,12.19-12.19
		c0-6.733-5.459-12.19-12.19-12.19h-78.019C162.716,175.543,157.257,181.001,157.257,187.733z"/>
	<path style="fill:#11113F;" d="M245.029,126.781c0-20.165-16.406-36.571-36.571-36.571s-36.571,16.406-36.571,36.571
		s16.406,36.571,36.571,36.571S245.029,146.946,245.029,126.781z M196.267,126.781c0-6.722,5.469-12.19,12.19-12.19
		c6.722,0,12.19,5.469,12.19,12.19s-5.469,12.19-12.19,12.19C201.735,138.971,196.267,133.503,196.267,126.781z"/>
	<path style="fill:#11113F;" d="M120.686,248.686h175.543c6.732,0,12.19-5.458,12.19-12.19v-38.878c0-6.733-5.459-12.19-12.19-12.19
		c-6.732,0-12.19,5.458-12.19,12.19v26.687H132.876V73.143h151.162v82.895c0,6.733,5.459,12.19,12.19,12.19
		c6.732,0,12.19-5.458,12.19-12.19V60.952c0-6.733-5.459-12.19-12.19-12.19H120.686c-6.732,0-12.19,5.458-12.19,12.19v175.543
		C108.495,243.228,113.954,248.686,120.686,248.686z"/>
	<path style="fill:#11113F;" d="M391.314,285.257H120.686c-6.732,0-12.19,5.458-12.19,12.19s5.459,12.19,12.19,12.19h270.629
		c6.732,0,12.19-5.458,12.19-12.19S398.046,285.257,391.314,285.257z"/>
	<path style="fill:#11113F;" d="M391.314,346.21H120.686c-6.732,0-12.19,5.458-12.19,12.19c0,6.733,5.459,12.19,12.19,12.19h270.629
		c6.732,0,12.19-5.458,12.19-12.19C403.505,351.667,398.046,346.21,391.314,346.21z"/>
	<path style="fill:#11113F;" d="M391.314,407.162H120.686c-6.732,0-12.19,5.458-12.19,12.19c0,6.733,5.459,12.19,12.19,12.19
		h270.629c6.732,0,12.19-5.458,12.19-12.19C403.505,412.62,398.046,407.162,391.314,407.162z"/>
</g>
<g>
</g>
<g>
</g>
<g>
</g>
<g>
</g>
<g>
</g>
<g>
</g>
<g>
</g>
<g>
</g>
<g>
</g>
<g>
</g>
<g>
</g>
<g>
</g>
<g>
</g>
<g>
</g>
<g>
</g>
</svg>
