<?xml version="1.0" encoding="iso-8859-1"?>
<!-- Generator: Adobe Illustrator 19.0.0, SVG Export Plug-In . SVG Version: 6.00 Build 0)  -->
<svg version="1.1" id="Layer_1" xmlns="http://www.w3.org/2000/svg" xmlns:xlink="http://www.w3.org/1999/xlink" x="0px" y="0px"
	 viewBox="0 0 512 512" style="enable-background:new 0 0 512 512;" xml:space="preserve">
<path style="fill:#269AF2;" d="M500.416,421.64c0,15.916-12.902,28.818-28.818,28.818H40.402c-15.916,0-28.818-12.902-28.818-28.818
	V90.362c0-15.916,12.902-28.818,28.818-28.818h431.197c15.916,0,28.818,12.902,28.818,28.818L500.416,421.64L500.416,421.64z"/>
<polygon style="fill:#181818;" points="418.45,121.78 418.45,344.419 244.416,344.419 70.383,344.419 70.383,121.78 "/>
<rect x="70.383" y="344.419" style="fill:#4C5870;" width="348.067" height="45.802"/>
<g>
	<path style="fill:#11113F;" d="M471.598,49.959H40.402C18.124,49.959,0,68.084,0,90.362V421.64
		c0,22.278,18.124,40.402,40.402,40.402h431.197c22.277,0,40.402-18.124,40.402-40.402V90.362
		C512,68.084,493.876,49.959,471.598,49.959z M488.833,421.64c0,9.503-7.731,17.234-17.234,17.234H40.402
		c-9.503,0-17.234-7.731-17.234-17.234V90.362c0-9.503,7.731-17.234,17.234-17.234h431.197c9.503,0,17.234,7.731,17.234,17.234
		L488.833,421.64L488.833,421.64z"/>
	<path style="fill:#11113F;" d="M418.452,110.194H70.38c-6.398,0-11.584,5.186-11.584,11.584v268.444
		c0,6.398,5.186,11.584,11.584,11.584h348.072c6.397,0,11.584-5.186,11.584-11.584V121.778
		C430.036,115.38,424.85,110.194,418.452,110.194z M406.869,378.64H81.964v-22.633h324.905V378.64z M406.869,332.839H81.964V133.362
		h324.905V332.839z"/>
	<path style="fill:#11113F;" d="M185.339,244.684h118.154c6.397,0,11.584-5.186,11.584-11.584s-5.187-11.584-11.584-11.584H185.339
		c-6.398,0-11.584,5.186-11.584,11.584S178.942,244.684,185.339,244.684z"/>
</g>
<circle style="fill:#FFFFFF;" cx="459.433" cy="256.001" r="11.584"/>
<g>
</g>
<g>
</g>
<g>
</g>
<g>
</g>
<g>
</g>
<g>
</g>
<g>
</g>
<g>
</g>
<g>
</g>
<g>
</g>
<g>
</g>
<g>
</g>
<g>
</g>
<g>
</g>
<g>
</g>
</svg>
