<?xml version="1.0" encoding="iso-8859-1"?>
<!-- Generator: Adobe Illustrator 19.0.0, SVG Export Plug-In . SVG Version: 6.00 Build 0)  -->
<svg version="1.1" id="Layer_1" xmlns="http://www.w3.org/2000/svg" xmlns:xlink="http://www.w3.org/1999/xlink" x="0px" y="0px"
	 viewBox="0 0 511.999 511.999" style="enable-background:new 0 0 511.999 511.999;" xml:space="preserve">
<polygon style="fill:#A2A9AF;" points="28.2,355.997 28.2,400.326 255.999,438.292 289.246,287.999 "/>
<polygon style="fill:#7A7674;" points="255.999,281.775 255.999,438.292 483.798,400.326 483.798,355.997 "/>
<polygon style="fill:#EE3840;" points="325.681,350.126 325.681,500.917 354.787,485.73 383.894,500.917 383.894,350.126 "/>
<polygon style="fill:#BEC8D6;" points="28.2,311.668 28.2,355.997 255.999,393.963 289.246,283.951 "/>
<polygon style="fill:#A2A9AF;" points="255.999,283.951 255.999,393.963 483.798,355.997 483.798,311.668 "/>
<polygon style="fill:#EBEDEC;" points="28.2,11.082 28.2,311.668 255.999,349.634 289.246,199.341 255.999,49.048 "/>
<polygon style="fill:#BEC8D6;" points="255.999,49.048 255.999,349.634 483.798,311.668 483.798,11.082 "/>
<g>
	<path style="fill:#11113F;" d="M485.621,322.598c5.343-0.891,9.259-5.515,9.259-10.932V11.082c0-3.257-1.433-6.35-3.919-8.456
		c-2.486-2.107-5.775-3.009-8.984-2.476L255.999,37.813L30.021,0.15c-3.209-0.533-6.5,0.369-8.984,2.476
		c-2.486,2.105-3.919,5.198-3.919,8.456v300.585c0,5.418,3.916,10.042,9.259,10.932l218.54,36.424v21.502L30.021,344.708
		c-6.025-1.005-11.747,3.073-12.753,9.111c-1.005,6.036,3.072,11.747,9.111,12.753l218.539,36.422v22.611L30.021,389.789
		c-6.035-1.003-11.747,3.072-12.753,9.111c-1.005,6.036,3.072,11.747,9.111,12.753l227.8,37.967c0.14,0.023,0.279,0.034,0.42,0.052
		c0.124,0.016,0.246,0.034,0.371,0.047c0.342,0.032,0.686,0.052,1.031,0.052c0.345,0,0.687-0.02,1.031-0.052
		c0.125-0.011,0.248-0.031,0.371-0.047c0.14-0.018,0.28-0.029,0.42-0.052l31.715-5.286c6.038-1.006,10.116-6.717,9.111-12.753
		c-1.006-6.038-6.726-10.115-12.753-9.111l-18.813,3.136v-22.611l47.517-7.919v105.842c0,3.874,2.024,7.468,5.337,9.478
		c3.314,2.008,7.437,2.139,10.872,0.348l23.981-12.512l23.98,12.512c1.609,0.839,3.369,1.257,5.127,1.257
		c1.994,0,3.984-0.537,5.745-1.605c3.314-2.009,5.337-5.603,5.337-9.478V381.679l90.644-15.107
		c6.038-1.006,10.116-6.717,9.111-12.753c-1.006-6.038-6.724-10.118-12.753-9.111l-214.897,35.817v-21.502L485.621,322.598z
		 M372.812,482.635l-12.898-6.729c-3.212-1.676-7.042-1.677-10.253,0l-12.899,6.73v-91.255l36.048-6.008v97.261H372.812z
		 M472.717,302.279l-205.636,34.274V58.436l205.636-34.273L472.717,302.279L472.717,302.279z M39.281,302.279V24.163l205.636,34.273
		v278.117L39.281,302.279z"/>
	<path style="fill:#11113F;" d="M70.704,149.994l139.147,23.191c0.617,0.103,1.229,0.153,1.834,0.153
		c5.319,0,10.015-3.842,10.919-9.263c1.005-6.037-3.072-11.747-9.111-12.753L74.347,128.131c-6.035-1.003-11.747,3.072-12.753,9.111
		C60.588,143.278,64.665,148.988,70.704,149.994z"/>
	<path style="fill:#11113F;" d="M300.315,182.614c0.605,0,1.219-0.05,1.834-0.153L441.29,159.27
		c6.038-1.006,10.116-6.717,9.111-12.753c-1.006-6.038-6.721-10.119-12.753-9.111l-139.141,23.191
		c-6.038,1.006-10.116,6.717-9.111,12.753C290.3,178.771,294.994,182.614,300.315,182.614z"/>
	<path style="fill:#11113F;" d="M70.707,90.055l139.138,23.191c0.617,0.103,1.23,0.153,1.835,0.153
		c5.319,0,10.015-3.842,10.919-9.263c1.005-6.036-3.072-11.747-9.111-12.753L74.351,68.192c-6.04-1.005-11.748,3.073-12.755,9.111
		C60.591,83.339,64.668,89.048,70.707,90.055z"/>
	<path style="fill:#11113F;" d="M300.316,118.037c0.605,0,1.219-0.05,1.834-0.153l139.141-23.191
		c6.038-1.006,10.116-6.717,9.111-12.753c-1.006-6.038-6.723-10.123-12.753-9.111L298.507,96.02
		c-6.038,1.006-10.116,6.717-9.111,12.753C290.301,114.195,294.995,118.037,300.316,118.037z"/>
	<path style="fill:#11113F;" d="M70.706,209.934l139.139,23.19c0.617,0.103,1.229,0.153,1.834,0.153
		c5.319,0,10.015-3.842,10.919-9.263c1.005-6.036-3.072-11.747-9.111-12.753l-139.139-23.19c-6.038-1.005-11.747,3.073-12.753,9.111
		C60.59,203.218,64.667,208.927,70.706,209.934z"/>
	<path style="fill:#11113F;" d="M300.315,247.19c0.605,0,1.219-0.05,1.834-0.153l139.142-23.19
		c6.038-1.006,10.116-6.717,9.111-12.753c-1.006-6.038-6.723-10.121-12.753-9.111l-139.142,23.19
		c-6.038,1.006-10.116,6.717-9.111,12.753C290.3,243.348,294.994,247.19,300.315,247.19z"/>
	<path style="fill:#11113F;" d="M213.492,271.199l-139.138-23.19c-6.038-1.002-11.747,3.073-12.753,9.111
		c-1.005,6.036,3.072,11.747,9.111,12.753l139.139,23.19c0.617,0.103,1.229,0.153,1.834,0.153c5.319,0,10.015-3.842,10.919-9.263
		C223.608,277.914,219.531,272.205,213.492,271.199z"/>
	<path style="fill:#11113F;" d="M368.078,266.56l-69.571,11.595c-6.038,1.006-10.116,6.717-9.111,12.753
		c0.903,5.421,5.599,9.263,10.919,9.263c0.605,0,1.219-0.05,1.834-0.153l69.571-11.595c6.038-1.006,10.116-6.717,9.111-12.753
		C379.824,269.633,374.106,265.552,368.078,266.56z"/>
	<path style="fill:#11113F;" d="M481.976,389.789l-61.939,10.323c-6.036,1.006-10.115,6.717-9.11,12.755
		c0.903,5.42,5.599,9.261,10.919,9.261c0.605,0,1.219-0.05,1.835-0.153l61.939-10.323c6.036-1.006,10.115-6.717,9.11-12.755
		C493.724,392.862,488.017,388.781,481.976,389.789z"/>
</g>
<g>
</g>
<g>
</g>
<g>
</g>
<g>
</g>
<g>
</g>
<g>
</g>
<g>
</g>
<g>
</g>
<g>
</g>
<g>
</g>
<g>
</g>
<g>
</g>
<g>
</g>
<g>
</g>
<g>
</g>
</svg>
