<svg enable-background="new 0 0 511.999 511.999" viewBox="0 0 511.999 511.999" xmlns="http://www.w3.org/2000/svg"><path d="m28.2 355.997v44.329l227.799 37.966 33.247-150.293z" fill="#a2a9af"/><path d="m255.999 281.775v156.517l227.799-37.966v-44.329z" fill="#7a7674"/><path d="m325.681 350.126v150.791l29.106-15.187 29.107 15.187v-150.791z" fill="#ee3840"/><path d="m28.2 311.668v44.329l227.799 37.966 33.247-110.012z" fill="#bec8d6"/><path d="m255.999 283.951v110.012l227.799-37.966v-44.329z" fill="#a2a9af"/><path d="m28.2 11.082v300.586l227.799 37.966 33.247-150.293-33.247-150.293z" fill="#ebedec"/><path d="m255.999 49.048v300.586l227.799-37.966v-300.586z" fill="#bec8d6"/><g fill="#11113f"><path d="m485.621 322.598c5.343-.891 9.259-5.515 9.259-10.932v-300.584c0-3.257-1.433-6.35-3.919-8.456-2.486-2.107-5.775-3.009-8.984-2.476l-225.978 37.663-225.978-37.663c-3.209-.533-6.5.369-8.984 2.476-2.486 2.105-3.919 5.198-3.919 8.456v300.585c0 5.418 3.916 10.042 9.259 10.932l218.54 36.424v21.502l-214.896-35.817c-6.025-1.005-11.747 3.073-12.753 9.111-1.005 6.036 3.072 11.747 9.111 12.753l218.539 36.422v22.611l-214.897-35.816c-6.035-1.003-11.747 3.072-12.753 9.111-1.005 6.036 3.072 11.747 9.111 12.753l227.8 37.967c.14.023.279.034.42.052.124.016.246.034.371.047.342.032.686.052 1.031.052s.687-.02 1.031-.052c.125-.011.248-.031.371-.047.14-.018.28-.029.42-.052l31.715-5.286c6.038-1.006 10.116-6.717 9.111-12.753-1.006-6.038-6.726-10.115-12.753-9.111l-18.813 3.136v-22.611l47.517-7.919v105.842c0 3.874 2.024 7.468 5.337 9.478 3.314 2.008 7.437 2.139 10.872.348l23.981-12.512 23.98 12.512c1.609.839 3.369 1.257 5.127 1.257 1.994 0 3.984-.537 5.745-1.605 3.314-2.009 5.337-5.603 5.337-9.478v-119.239l90.644-15.107c6.038-1.006 10.116-6.717 9.111-12.753-1.006-6.038-6.724-10.118-12.753-9.111l-214.897 35.817v-21.502zm-112.809 160.037-12.898-6.729c-3.212-1.676-7.042-1.677-10.253 0l-12.899 6.73v-91.255l36.048-6.008v97.261h.002zm99.905-180.356-205.636 34.274v-278.117l205.636-34.273zm-433.436 0v-278.116l205.636 34.273v278.117z"/><path d="m70.704 149.994 139.147 23.191c.617.103 1.229.153 1.834.153 5.319 0 10.015-3.842 10.919-9.263 1.005-6.037-3.072-11.747-9.111-12.753l-139.146-23.191c-6.035-1.003-11.747 3.072-12.753 9.111-1.006 6.036 3.071 11.746 9.11 12.752z"/><path d="m300.315 182.614c.605 0 1.219-.05 1.834-.153l139.141-23.191c6.038-1.006 10.116-6.717 9.111-12.753-1.006-6.038-6.721-10.119-12.753-9.111l-139.141 23.191c-6.038 1.006-10.116 6.717-9.111 12.753.904 5.421 5.598 9.264 10.919 9.264z"/><path d="m70.707 90.055 139.138 23.191c.617.103 1.23.153 1.835.153 5.319 0 10.015-3.842 10.919-9.263 1.005-6.036-3.072-11.747-9.111-12.753l-139.137-23.191c-6.04-1.005-11.748 3.073-12.755 9.111-1.005 6.036 3.072 11.745 9.111 12.752z"/><path d="m300.316 118.037c.605 0 1.219-.05 1.834-.153l139.141-23.191c6.038-1.006 10.116-6.717 9.111-12.753-1.006-6.038-6.723-10.123-12.753-9.111l-139.142 23.191c-6.038 1.006-10.116 6.717-9.111 12.753.905 5.422 5.599 9.264 10.92 9.264z"/><path d="m70.706 209.934 139.139 23.19c.617.103 1.229.153 1.834.153 5.319 0 10.015-3.842 10.919-9.263 1.005-6.036-3.072-11.747-9.111-12.753l-139.139-23.19c-6.038-1.005-11.747 3.073-12.753 9.111-1.005 6.036 3.072 11.745 9.111 12.752z"/><path d="m300.315 247.19c.605 0 1.219-.05 1.834-.153l139.142-23.19c6.038-1.006 10.116-6.717 9.111-12.753-1.006-6.038-6.723-10.121-12.753-9.111l-139.142 23.19c-6.038 1.006-10.116 6.717-9.111 12.753.904 5.422 5.598 9.264 10.919 9.264z"/><path d="m213.492 271.199-139.138-23.19c-6.038-1.002-11.747 3.073-12.753 9.111-1.005 6.036 3.072 11.747 9.111 12.753l139.139 23.19c.617.103 1.229.153 1.834.153 5.319 0 10.015-3.842 10.919-9.263 1.004-6.039-3.073-11.748-9.112-12.754z"/><path d="m368.078 266.56-69.571 11.595c-6.038 1.006-10.116 6.717-9.111 12.753.903 5.421 5.599 9.263 10.919 9.263.605 0 1.219-.05 1.834-.153l69.571-11.595c6.038-1.006 10.116-6.717 9.111-12.753-1.007-6.037-6.725-10.118-12.753-9.11z"/><path d="m481.976 389.789-61.939 10.323c-6.036 1.006-10.115 6.717-9.11 12.755.903 5.42 5.599 9.261 10.919 9.261.605 0 1.219-.05 1.835-.153l61.939-10.323c6.036-1.006 10.115-6.717 9.11-12.755-1.006-6.035-6.713-10.116-12.754-9.108z"/></g></svg>