<svg enable-background="new 0 0 512 512" viewBox="0 0 512 512" xmlns="http://www.w3.org/2000/svg"><path d="m391.946 106.373v299.254h-135.946-135.946v-299.254h135.946z" fill="#181818"/><path d="m391.946 405.627v60.664c0 18.835-15.291 34.126-34.126 34.126h-203.641c-18.858 0-34.126-15.291-34.126-34.126v-60.664z" fill="#269af2"/><path d="m391.946 45.709v60.664h-271.892v-60.664c0-18.824 15.267-34.126 34.126-34.126h203.642c18.834.001 34.124 15.303 34.124 34.126z" fill="#269af2"/><path d="m357.816 0h-203.632c-25.207 0-45.714 20.508-45.714 45.714v420.571c0 25.207 20.508 45.715 45.714 45.715h177.422 26.21c25.207 0 45.714-20.508 45.714-45.715v-420.571c0-25.206-20.506-45.714-45.714-45.714zm-226.179 117.956h248.725v276.087h-248.725zm22.547-94.789h203.632c12.433 0 22.547 10.115 22.547 22.547v49.074h-248.726v-49.074c0-12.432 10.114-22.547 22.547-22.547zm203.632 465.666h-203.632c-12.433 0-22.547-10.115-22.547-22.548v-49.074h248.725v49.074c.001 12.433-10.113 22.548-22.546 22.548z" fill="#11113f"/><g fill="#fff"><path d="m183.681 71.136c-6.703 0-12.158-5.454-12.158-12.157s5.454-12.158 12.158-12.158 12.157 5.454 12.157 12.158c0 6.703-5.454 12.157-12.157 12.157z"/><path d="m288.243 70.562h-64.487c-6.398 0-11.584-5.186-11.584-11.584s5.186-11.584 11.584-11.584h64.487c6.398 0 11.584 5.186 11.584 11.584s-5.186 11.584-11.584 11.584z"/><path d="m268.054 464.605h-24.108c-6.398 0-11.584-5.186-11.584-11.584s5.186-11.584 11.584-11.584h24.108c6.398 0 11.584 5.186 11.584 11.584s-5.186 11.584-11.584 11.584z"/></g></svg>