<svg enable-background="new 0 0 512 512" viewBox="0 0 512 512" xmlns="http://www.w3.org/2000/svg"><path d="m184.194 307.591h-48.258l-19.378 84.529h87.014z" fill="#181818"/><path d="m291.941 280.402c0 14.801-11.998 26.798-26.798 26.798h-222.159c-14.801 0-26.798-11.998-26.798-26.798v-135.709c0-14.801 11.998-26.798 26.798-26.798h222.159c14.8 0 26.798 11.998 26.798 26.798z" fill="#bec8d6"/><path d="m349.26 117.714h151.156v276.573h-151.156z" fill="#4c5870"/><circle cx="424.833" cy="330.577" fill="#ffd440" r="17.376"/><g fill="#11113f"><path d="m267.725 106.126h-227.323c-22.278 0-40.402 18.124-40.402 40.402v134.356c0 22.278 18.124 40.402 40.402 40.402h227.323c22.277 0 40.402-18.124 40.402-40.402v-134.356c0-22.278-18.124-40.402-40.402-40.402zm17.234 174.758c0 9.503-7.731 17.234-17.234 17.234h-227.323c-9.503 0-17.234-7.731-17.234-17.234v-134.356c0-9.503 7.731-17.234 17.234-17.234h227.323c9.503 0 17.234 7.731 17.234 17.234z"/><path d="m239.558 382.704h-26.485l-9.501-40.874c-1.448-6.232-7.671-10.113-13.905-8.66-6.231 1.448-10.109 7.674-8.66 13.905l8.281 35.628h-56.549l8.281-35.628c1.448-6.231-2.429-12.457-8.66-13.905-6.232-1.451-12.457 2.429-13.905 8.66l-9.501 40.874h-26.485c-6.398 0-11.584 5.186-11.584 11.584s5.186 11.584 11.584 11.584h35.645c.016 0 .034.002.05.002.022 0 .044-.002.066-.002h85.567c.022 0 .044.002.066.002.016 0 .034-.002.05-.002h35.645c6.398 0 11.584-5.186 11.584-11.584s-5.186-11.584-11.584-11.584z"/><path d="m500.416 106.126h-151.159c-6.397 0-11.584 5.186-11.584 11.584v276.578c0 6.398 5.187 11.584 11.584 11.584h151.159c6.397 0 11.584-5.186 11.584-11.584v-276.578c0-6.397-5.187-11.584-11.584-11.584zm-11.583 276.578h-127.992v-253.411h127.992z"/><path d="m395.592 187.212h58.49c6.397 0 11.584-5.186 11.584-11.584s-5.187-11.584-11.584-11.584h-58.49c-6.397 0-11.584 5.186-11.584 11.584s5.186 11.584 11.584 11.584z"/><path d="m395.592 233.547h58.49c6.397 0 11.584-5.186 11.584-11.584s-5.187-11.584-11.584-11.584h-58.49c-6.397 0-11.584 5.186-11.584 11.584s5.186 11.584 11.584 11.584z"/><path d="m424.836 313.202c-9.581 0-17.376 7.795-17.376 17.376s7.795 17.376 17.376 17.376 17.376-7.795 17.376-17.376-7.795-17.376-17.376-17.376zm0 23.168c-3.194 0-5.792-2.598-5.792-5.792s2.598-5.792 5.792-5.792 5.792 2.598 5.792 5.792c0 3.193-2.598 5.792-5.792 5.792z"/></g></svg>