<?xml version="1.0" encoding="iso-8859-1"?>
<!-- Generator: Adobe Illustrator 19.0.0, SVG Export Plug-In . SVG Version: 6.00 Build 0)  -->
<svg version="1.1" id="Layer_1" xmlns="http://www.w3.org/2000/svg" xmlns:xlink="http://www.w3.org/1999/xlink" x="0px" y="0px"
	 viewBox="0 0 512 512" style="enable-background:new 0 0 512 512;" xml:space="preserve">
<rect x="194.317" y="354.879" style="fill:#181818;" width="123.367" height="119.335"/>
<path style="fill:#BEC8D6;" d="M500.416,349.228c0,15.916-12.902,28.818-28.818,28.818H40.402
	c-15.916,0-28.818-12.902-28.818-28.818V64.285c0-15.916,12.902-28.818,28.818-28.818h431.197c15.916,0,28.818,12.902,28.818,28.818
	L500.416,349.228L500.416,349.228z"/>
<g>
	<path style="fill:#11113F;" d="M256,106.557c-55.889,0-101.357,45.468-101.357,101.357S200.111,309.272,256,309.272
		c18.893,0,37.332-5.237,53.321-15.145c5.439-3.37,7.116-10.51,3.746-15.948c-3.37-5.436-10.509-7.115-15.948-3.745
		c-12.323,7.635-26.542,11.671-41.12,11.671c-43.115,0-78.19-35.075-78.19-78.19s35.075-78.19,78.19-78.19s78.19,35.075,78.19,78.19
		c0,7.336-1.723,13.474-4.85,17.284c-2.099,2.557-4.764,3.964-7.507,3.964c-5.992,0-12.44-6.649-12.44-21.248
		c0-29.441-23.952-53.393-53.393-53.393c-29.441,0-53.393,23.952-53.393,53.393s23.952,53.392,53.393,53.392
		c16.815,0,31.829-7.82,41.623-20.006c6.664,7.294,15.462,11.03,24.21,11.03c9.668,0,18.931-4.532,25.416-12.434
		c6.613-8.059,10.109-19.117,10.109-31.981C357.357,152.027,311.889,106.557,256,106.557z M256,238.14
		c-16.667,0-30.225-13.559-30.225-30.224c0-16.667,13.559-30.225,30.225-30.225c16.667,0,30.225,13.559,30.225,30.225
		C286.225,224.58,272.667,238.14,256,238.14z"/>
	<path style="fill:#11113F;" d="M471.598,25.042H40.402C18.124,25.042,0,43.166,0,65.443v284.944
		c0,22.278,18.124,40.402,40.402,40.402h431.197c22.277,0,40.402-18.124,40.402-40.402V65.443
		C512,43.166,493.876,25.042,471.598,25.042z M488.833,350.386c0,9.503-7.731,17.234-17.234,17.234H40.402
		c-9.503,0-17.234-7.731-17.234-17.234V65.443c0-9.503,7.731-17.234,17.234-17.234h431.197c9.503,0,17.234,7.731,17.234,17.234
		L488.833,350.386L488.833,350.386z"/>
	<path style="fill:#11113F;" d="M380.879,463.791h-54.704v-49.834c0-6.398-5.187-11.584-11.584-11.584
		c-6.397,0-11.584,5.186-11.584,11.584v49.834h-94.016v-49.834c0-6.398-5.187-11.584-11.584-11.584s-11.584,5.186-11.584,11.584
		v49.834h-54.704c-6.397,0-11.584,5.186-11.584,11.584c0,6.398,5.187,11.584,11.584,11.584h249.758
		c6.397,0,11.584-5.186,11.584-11.584C392.462,468.977,387.276,463.791,380.879,463.791z"/>
</g>
<g>
</g>
<g>
</g>
<g>
</g>
<g>
</g>
<g>
</g>
<g>
</g>
<g>
</g>
<g>
</g>
<g>
</g>
<g>
</g>
<g>
</g>
<g>
</g>
<g>
</g>
<g>
</g>
<g>
</g>
</svg>
