<svg enable-background="new 0 0 512 512" viewBox="0 0 512 512" xmlns="http://www.w3.org/2000/svg"><path d="m194.317 354.879h123.367v119.335h-123.367z" fill="#181818"/><path d="m500.416 349.228c0 15.916-12.902 28.818-28.818 28.818h-431.196c-15.916 0-28.818-12.902-28.818-28.818v-284.943c0-15.916 12.902-28.818 28.818-28.818h431.197c15.916 0 28.818 12.902 28.818 28.818z" fill="#bec8d6"/><g fill="#11113f"><path d="m256 106.557c-55.889 0-101.357 45.468-101.357 101.357s45.468 101.358 101.357 101.358c18.893 0 37.332-5.237 53.321-15.145 5.439-3.37 7.116-10.51 3.746-15.948-3.37-5.436-10.509-7.115-15.948-3.745-12.323 7.635-26.542 11.671-41.12 11.671-43.115 0-78.19-35.075-78.19-78.19s35.075-78.19 78.19-78.19 78.19 35.075 78.19 78.19c0 7.336-1.723 13.474-4.85 17.284-2.099 2.557-4.764 3.964-7.507 3.964-5.992 0-12.44-6.649-12.44-21.248 0-29.441-23.952-53.393-53.393-53.393s-53.393 23.952-53.393 53.393 23.952 53.392 53.393 53.392c16.815 0 31.829-7.82 41.623-20.006 6.664 7.294 15.462 11.03 24.21 11.03 9.668 0 18.931-4.532 25.416-12.434 6.613-8.059 10.109-19.117 10.109-31.981 0-55.889-45.468-101.359-101.357-101.359zm0 131.583c-16.667 0-30.225-13.559-30.225-30.224 0-16.667 13.559-30.225 30.225-30.225 16.667 0 30.225 13.559 30.225 30.225 0 16.664-13.558 30.224-30.225 30.224z"/><path d="m471.598 25.042h-431.196c-22.278 0-40.402 18.124-40.402 40.401v284.944c0 22.278 18.124 40.402 40.402 40.402h431.197c22.277 0 40.402-18.124 40.402-40.402v-284.944c-.001-22.277-18.125-40.401-40.403-40.401zm17.235 325.344c0 9.503-7.731 17.234-17.234 17.234h-431.197c-9.503 0-17.234-7.731-17.234-17.234v-284.943c0-9.503 7.731-17.234 17.234-17.234h431.197c9.503 0 17.234 7.731 17.234 17.234z"/><path d="m380.879 463.791h-54.704v-49.834c0-6.398-5.187-11.584-11.584-11.584s-11.584 5.186-11.584 11.584v49.834h-94.016v-49.834c0-6.398-5.187-11.584-11.584-11.584s-11.584 5.186-11.584 11.584v49.834h-54.704c-6.397 0-11.584 5.186-11.584 11.584s5.187 11.584 11.584 11.584h249.758c6.397 0 11.584-5.186 11.584-11.584.001-6.398-5.185-11.584-11.582-11.584z"/></g></svg>