<svg enable-background="new 0 0 512 512" viewBox="0 0 512 512" xmlns="http://www.w3.org/2000/svg"><circle cx="372.995" cy="167.107" fill="#4c5870" r="63.71"/><path d="m372.995 277.035c-70.372 0-127.421 57.049-127.421 127.421h254.842c0-70.374-57.048-127.421-127.421-127.421z" fill="#a2a9af"/><circle cx="139.005" cy="167.107" fill="#269af2" r="66.583"/><path d="m137.846 277.035c-70.372 0-127.421 57.049-127.421 127.421h254.842c0-70.374-57.049-127.421-127.421-127.421z" fill="#bec8d6"/><g fill="#11113f"><path d="m372.995 242.396c41.517 0 75.294-33.777 75.294-75.294s-33.777-75.294-75.294-75.294-75.294 33.777-75.294 75.294 33.777 75.294 75.294 75.294zm0-127.421c28.743 0 52.127 23.384 52.127 52.127s-23.384 52.127-52.127 52.127-52.127-23.384-52.127-52.127 23.385-52.127 52.127-52.127z"/><path d="m372.995 269.152c-39.832 0-77.812 17.132-104.204 47.003-4.235 4.794-3.783 12.114 1.011 16.35 4.796 4.235 12.114 3.782 16.35-1.011 19.42-21.981 46.37-35.678 75.258-38.586v11.446c0 6.398 5.187 11.584 11.584 11.584s11.584-5.186 11.584-11.584v-11.459c58.455 5.83 104.253 55.296 104.253 115.259 0 6.398 5.187 11.584 11.584 11.584s11.584-5.186 11.584-11.584c.001-76.644-62.356-139.002-139.004-139.002z"/><path d="m139.005 242.396c41.517 0 75.294-33.777 75.294-75.294s-33.777-75.294-75.294-75.294-75.295 33.777-75.295 75.294 33.777 75.294 75.295 75.294zm0-127.421c28.743 0 52.127 23.384 52.127 52.127s-23.384 52.127-52.127 52.127-52.127-23.384-52.127-52.127 23.384-52.127 52.127-52.127z"/><path d="m139.005 269.152c-76.648 0-139.005 62.358-139.005 139.005 0 6.398 5.186 11.584 11.584 11.584s11.584-5.186 11.584-11.584c0-59.963 45.8-109.429 104.253-115.259v11.459c0 6.398 5.186 11.584 11.584 11.584s11.584-5.186 11.584-11.584v-11.459c58.454 5.83 104.253 55.296 104.253 115.259 0 6.398 5.187 11.584 11.584 11.584s11.584-5.186 11.584-11.584c-.001-76.647-62.358-139.005-139.005-139.005z"/><path d="m139.005 327.522c-6.398 0-11.584 5.186-11.584 11.584v69.502c0 6.398 5.186 11.584 11.584 11.584s11.584-5.186 11.584-11.584v-69.502c-.001-6.397-5.187-11.584-11.584-11.584z"/><path d="m372.995 327.522c-6.397 0-11.584 5.186-11.584 11.584v69.502c0 6.398 5.187 11.584 11.584 11.584s11.584-5.186 11.584-11.584v-69.502c0-6.397-5.187-11.584-11.584-11.584z"/></g></svg>