<svg enable-background="new 0 0 512 512" viewBox="0 0 512 512" xmlns="http://www.w3.org/2000/svg"><path d="m187.275 183.266c0-37.956 30.769-68.725 68.725-68.725s68.725 30.769 68.725 68.725v72.734h-137.45z" fill="#181818"/><path d="m152.913 217.629 16.608 248.554h172.958l16.608-248.554z" fill="#4c5870"/><circle cx="256" cy="45.817" fill="#181818" r="40.089"/><path d="m256 149.179c-6.326 0-11.454 5.129-11.454 11.454v56.996h22.908v-56.996c0-6.325-5.129-11.454-11.454-11.454z" fill="#4c5870"/><path d="m393.45 229.083h-274.9c-6.326 0-11.454-5.129-11.454-11.454s5.128-11.454 11.454-11.454h274.9c6.325 0 11.454 5.129 11.454 11.454s-5.129 11.454-11.454 11.454z" fill="#a2a9af"/><g fill="#269af2"><circle cx="256" cy="363.096" r="37.226"/><path d="m256 431.821c-37.956 0-68.725 30.769-68.725 68.725h137.45c0-37.956-30.769-68.725-68.725-68.725z"/><circle cx="427.812" cy="363.096" r="37.226"/><path d="m428.957 431.821c-37.956 0-68.725 30.769-68.725 68.725h137.45c0-37.956-30.769-68.725-68.725-68.725z"/><circle cx="83.043" cy="363.096" r="37.226"/><path d="m83.043 431.821c-37.956 0-68.725 30.769-68.725 68.725h137.45c-.001-37.956-30.77-68.725-68.725-68.725z"/></g><g fill="#11113f"><path d="m256 91.633c25.263 0 45.817-20.553 45.817-45.817s-20.554-45.816-45.817-45.816-45.817 20.553-45.817 45.817 20.554 45.816 45.817 45.816zm0-68.725c12.632 0 22.908 10.277 22.908 22.908s-10.276 22.909-22.908 22.909-22.908-10.277-22.908-22.908 10.276-22.909 22.908-22.909z"/><path d="m187.275 194.72c6.326 0 11.454-5.129 11.454-11.454 0-31.579 25.692-57.271 57.271-57.271s57.271 25.692 57.271 57.271c0 6.325 5.129 11.454 11.454 11.454s11.454-5.129 11.454-11.454c0-44.211-35.968-80.179-80.179-80.179s-80.179 35.968-80.179 80.179c0 6.325 5.128 11.454 11.454 11.454z"/><path d="m353.9 433.458 15.792-204.375h35.212c6.325 0 11.454-5.129 11.454-11.454s-5.129-11.454-11.454-11.454h-137.45v-45.542c0-6.325-5.129-11.454-11.454-11.454-6.326 0-11.454 5.129-11.454 11.454v45.542h-137.45c-6.326 0-11.454 5.129-11.454 11.454s5.128 11.454 11.454 11.454h35.213l15.792 204.375c.464 6.007 5.482 10.572 11.407 10.572.296 0 .596-.013.895-.034 6.307-.488 11.025-5.995 10.538-12.303l-15.656-202.61h181.428l-15.656 202.61c-.487 6.308 4.231 11.815 10.538 12.303.301.023.598.034.895.034 5.927 0 10.945-4.566 11.41-10.572z"/><path d="m301.817 363.096c0-25.263-20.553-45.817-45.817-45.817s-45.817 20.553-45.817 45.817 20.553 45.817 45.817 45.817 45.817-20.554 45.817-45.817zm-68.725 0c0-12.632 10.277-22.908 22.908-22.908s22.908 10.277 22.908 22.908c0 12.632-10.277 22.908-22.908 22.908s-22.908-10.276-22.908-22.908z"/><path d="m256 420.367c-44.211 0-80.179 35.968-80.179 80.179 0 6.325 5.128 11.454 11.454 11.454s11.454-5.129 11.454-11.454c0-31.579 25.692-57.271 57.271-57.271s57.271 25.692 57.271 57.271c0 6.325 5.129 11.454 11.454 11.454s11.454-5.129 11.454-11.454c0-44.211-35.968-80.179-80.179-80.179z"/><path d="m383.141 363.096c0 25.263 20.553 45.817 45.817 45.817s45.817-20.553 45.817-45.817-20.553-45.817-45.817-45.817-45.817 20.554-45.817 45.817zm45.816-22.908c12.632 0 22.908 10.277 22.908 22.908 0 12.632-10.277 22.908-22.908 22.908-12.632 0-22.908-10.277-22.908-22.908s10.277-22.908 22.908-22.908z"/><path d="m428.957 420.367c-44.211 0-80.179 35.968-80.179 80.179 0 6.325 5.129 11.454 11.454 11.454s11.454-5.129 11.454-11.454c0-31.579 25.692-57.271 57.271-57.271s57.271 25.692 57.271 57.271c0 6.325 5.129 11.454 11.454 11.454s11.454-5.129 11.454-11.454c0-44.211-35.968-80.179-80.179-80.179z"/><path d="m83.043 408.913c25.263 0 45.817-20.553 45.817-45.817s-20.553-45.817-45.817-45.817-45.817 20.553-45.817 45.817 20.553 45.817 45.817 45.817zm0-68.725c12.632 0 22.908 10.277 22.908 22.908 0 12.632-10.277 22.908-22.908 22.908s-22.908-10.277-22.908-22.908c-.001-12.631 10.276-22.908 22.908-22.908z"/><path d="m83.043 420.367c-44.211 0-80.179 35.968-80.179 80.179 0 6.325 5.128 11.454 11.454 11.454s11.454-5.129 11.454-11.454c0-31.579 25.692-57.271 57.271-57.271s57.271 25.692 57.271 57.271c0 6.325 5.128 11.454 11.454 11.454s11.454-5.129 11.454-11.454c-.001-44.211-35.969-80.179-80.179-80.179z"/></g></svg>