<svg enable-background="new 0 0 512 512" viewBox="0 0 512 512" xmlns="http://www.w3.org/2000/svg"><path d="m106.583 182.754h392.21v240.344h-392.21z" fill="#524e4d"/><path d="m59.901 136.058h392.21v240.344h-392.21z" fill="#7a7674"/><path d="m13.206 88.914h392.21v240.344h-392.21z" fill="#bec8d6"/><circle cx="124.583" cy="170.776" fill="#ffe1d6" r="26.411"/><path d="m123.265 230.837c-25.24 0-46.479 17.08-52.823 40.309h105.646c-6.343-23.229-27.583-40.309-52.823-40.309z" fill="#fff"/><g fill="#11113f"><path d="m123.266 209.312c10.537-.001 20.091-4.288 27.011-11.208 6.92-6.921 11.208-16.474 11.208-27.011 0-10.209-3.976-19.806-11.194-27.025-7.22-7.22-16.817-11.194-27.025-11.194s-19.806 3.976-27.025 11.194c-7.218 7.218-11.193 16.816-11.194 27.024 0 10.208 3.975 19.806 11.194 27.025 7.218 7.219 16.814 11.195 27.025 11.195zm-8.35-46.569c2.23-2.23 5.195-3.459 8.35-3.459 3.154 0 6.118 1.228 8.349 3.459 2.229 2.229 3.457 5.195 3.459 8.349-.001 6.51-5.298 11.809-11.807 11.807-3.154 0-6.12-1.228-8.35-3.457-2.23-2.23-3.459-5.195-3.459-8.35 0-3.154 1.228-6.12 3.458-8.349z"/><path d="m233.324 221.285h112.06c3.646 0 6.948-1.479 9.338-3.868 2.39-2.39 3.868-5.692 3.868-9.338 0-7.294-5.912-13.206-13.206-13.206h-112.06c-7.292.001-13.206 5.914-13.206 13.206 0 7.293 5.912 13.206 13.206 13.206z"/><path d="m233.324 173.722h56.031c3.646 0 6.948-1.478 9.338-3.868s3.868-5.692 3.868-9.338c0-7.294-5.912-13.207-13.206-13.207h-56.031c-7.292.001-13.204 5.914-13.206 13.206 0 7.294 5.912 13.207 13.206 13.207z"/><path d="m233.324 271.311h112.06c3.646 0 6.949-1.479 9.338-3.868 2.39-2.39 3.868-5.692 3.868-9.338 0-7.294-5.914-13.206-13.207-13.206h-112.06c-7.292.001-13.204 5.914-13.206 13.206.001 7.294 5.915 13.206 13.207 13.206z"/><path d="m498.794 168.847c-7.292.001-13.206 5.914-13.206 13.206v228.067h-379.003c-7.292.001-13.206 5.914-13.206 13.206 0 7.294 5.912 13.206 13.206 13.206h392.21c3.646 0 6.949-1.479 9.338-3.868 2.39-2.39 3.868-5.692 3.868-9.338v-241.272c-.001-7.294-5.913-13.207-13.207-13.207z"/><path d="m461.443 385.974c2.39-2.39 3.868-5.692 3.868-9.338v-241.272c0-7.294-5.912-13.206-13.206-13.206-7.292 0-13.206 5.914-13.206 13.206v228.065h-379.003c-7.292.001-13.206 5.914-13.206 13.206 0 7.294 5.912 13.206 13.206 13.206h392.21c3.646.001 6.947-1.477 9.337-3.867z"/><path d="m71.534 285.282c7.036 1.923 14.297-2.225 16.219-9.26 4.355-15.955 18.959-27.094 35.513-27.094s31.156 11.142 35.511 27.093c1.921 7.037 9.183 11.181 16.218 9.26 2.295-.626 4.283-1.821 5.853-3.39 3.243-3.243 4.703-8.086 3.408-12.828-7.484-27.406-32.564-46.548-60.991-46.548-28.425.001-53.506 19.142-60.992 46.548-1.92 7.037 2.225 14.297 9.261 16.219z"/><path d="m414.753 339.285c2.39-2.389 3.868-5.692 3.868-9.338v-241.272c0-7.294-5.912-13.206-13.206-13.206h-392.209c-7.292.002-13.206 5.914-13.206 13.206v241.272c0 7.293 5.912 13.206 13.206 13.206h392.21c3.645 0 6.948-1.479 9.337-3.868zm-22.543-22.543h-365.799v-214.861h365.799z"/></g></svg>