<svg enable-background="new 0 0 512 512" viewBox="0 0 512 512" xmlns="http://www.w3.org/2000/svg"><path d="m11.584 171.646h488.833v286.558h-488.833z" fill="#e6e2e0"/><path d="m11.584 93.178h488.833v78.468h-488.833z" fill="#ee3840"/><g fill="#ada7a4"><path d="m111.765 260.547h-37.66c-6.398 0-11.584-5.186-11.584-11.584s5.186-11.584 11.584-11.584h37.66c6.398 0 11.584 5.186 11.584 11.584s-5.186 11.584-11.584 11.584z"/><path d="m220.452 260.547h-37.66c-6.398 0-11.584-5.186-11.584-11.584s5.186-11.584 11.584-11.584h37.66c6.398 0 11.584 5.186 11.584 11.584s-5.186 11.584-11.584 11.584z"/><path d="m329.14 260.547h-37.66c-6.398 0-11.584-5.186-11.584-11.584s5.186-11.584 11.584-11.584h37.66c6.398 0 11.584 5.186 11.584 11.584s-5.187 11.584-11.584 11.584z"/></g><path d="m437.826 260.547h-37.66c-6.398 0-11.584-5.186-11.584-11.584s5.186-11.584 11.584-11.584h37.66c6.398 0 11.584 5.186 11.584 11.584s-5.186 11.584-11.584 11.584z" fill="#ee3840"/><path d="m111.765 325.935h-37.66c-6.398 0-11.584-5.186-11.584-11.584s5.186-11.584 11.584-11.584h37.66c6.398 0 11.584 5.186 11.584 11.584s-5.186 11.584-11.584 11.584z" fill="#ada7a4"/><path d="m220.452 325.935h-37.66c-6.398 0-11.584-5.186-11.584-11.584s5.186-11.584 11.584-11.584h37.66c6.398 0 11.584 5.186 11.584 11.584s-5.186 11.584-11.584 11.584z" fill="#ada7a4"/><path d="m329.14 325.935h-37.66c-6.398 0-11.584-5.186-11.584-11.584s5.186-11.584 11.584-11.584h37.66c6.398 0 11.584 5.186 11.584 11.584-.001 6.398-5.187 11.584-11.584 11.584z" fill="#ada7a4"/><path d="m437.826 325.935h-37.66c-6.398 0-11.584-5.186-11.584-11.584s5.186-11.584 11.584-11.584h37.66c6.398 0 11.584 5.186 11.584 11.584s-5.186 11.584-11.584 11.584z" fill="#ee3840"/><path d="m111.765 391.323h-37.66c-6.398 0-11.584-5.186-11.584-11.584s5.186-11.584 11.584-11.584h37.66c6.398 0 11.584 5.186 11.584 11.584s-5.186 11.584-11.584 11.584z" fill="#ada7a4"/><path d="m220.452 391.323h-37.66c-6.398 0-11.584-5.186-11.584-11.584s5.186-11.584 11.584-11.584h37.66c6.398 0 11.584 5.186 11.584 11.584s-5.186 11.584-11.584 11.584z" fill="#ada7a4"/><path d="m329.14 391.323h-37.66c-6.398 0-11.584-5.186-11.584-11.584s5.186-11.584 11.584-11.584h37.66c6.398 0 11.584 5.186 11.584 11.584-.001 6.398-5.187 11.584-11.584 11.584z" fill="#ada7a4"/><path d="m437.826 391.323h-37.66c-6.398 0-11.584-5.186-11.584-11.584s5.186-11.584 11.584-11.584h37.66c6.398 0 11.584 5.186 11.584 11.584s-5.186 11.584-11.584 11.584z" fill="#ee3840"/><g fill="#181818"><path d="m118.258 110.29c0 12.298-9.97 22.269-22.269 22.269s-22.269-9.97-22.269-22.269v-34.228c0-12.298 9.97-22.269 22.269-22.269s22.269 9.97 22.269 22.269z"/><path d="m224.931 110.29c0 12.298-9.97 22.269-22.269 22.269s-22.269-9.97-22.269-22.269v-34.228c0-12.298 9.97-22.269 22.269-22.269s22.269 9.97 22.269 22.269z"/><path d="m438.279 110.29c0 12.298-9.97 22.269-22.269 22.269s-22.269-9.97-22.269-22.269v-34.228c0-12.298 9.97-22.269 22.269-22.269s22.269 9.97 22.269 22.269z"/><path d="m331.606 110.29c0 12.298-9.97 22.269-22.269 22.269s-22.269-9.97-22.269-22.269v-34.228c0-12.298 9.97-22.269 22.269-22.269s22.269 9.97 22.269 22.269z"/></g><g fill="#11113f"><path d="m500.416 81.592h-50.554v-5.53c0-18.666-15.186-33.852-33.852-33.852s-33.852 15.186-33.852 33.852v5.53h-38.969v-5.53c0-18.666-15.186-33.852-33.852-33.852s-33.852 15.186-33.852 33.852v5.53h-38.97v-5.53c0-18.666-15.186-33.852-33.852-33.852s-33.852 15.186-33.852 33.852v5.53h-38.97v-5.53c0-18.666-15.186-33.852-33.852-33.852s-33.853 15.186-33.853 33.852v5.53h-50.552c-6.398 0-11.584 5.186-11.584 11.584v365.031c0 6.398 5.186 11.584 11.584 11.584h488.833c6.398 0 11.584-5.186 11.584-11.584v-365.031c-.001-6.398-5.187-11.584-11.585-11.584zm-84.406-16.216c5.891 0 10.685 4.793 10.685 10.685v34.228c0 5.891-4.793 10.685-10.685 10.685-5.891 0-10.685-4.793-10.685-10.685v-17.103c0-.003 0-.007 0-.012s0-.007 0-.012v-17.101c.001-5.892 4.794-10.685 10.685-10.685zm-106.673 0c5.891 0 10.685 4.793 10.685 10.685v34.228c0 5.891-4.793 10.685-10.685 10.685s-10.685-4.793-10.685-10.685v-17.103c0-.003 0-.007 0-.012s0-.007 0-.012v-17.101c0-5.892 4.793-10.685 10.685-10.685zm-117.359 10.685c0-5.891 4.793-10.685 10.685-10.685 5.891 0 10.685 4.793 10.685 10.685v17.103.012.012 17.102c0 5.891-4.793 10.685-10.685 10.685-5.891 0-10.685-4.793-10.685-10.685zm-95.988-10.685c5.891 0 10.685 4.793 10.685 10.685v34.228c0 5.891-4.793 10.685-10.685 10.685-5.891 0-10.685-4.793-10.685-10.685v-17.103c0-.003 0-.007 0-.012s0-.007 0-.012v-17.101c0-5.892 4.792-10.685 10.685-10.685zm-33.853 39.384v5.53c0 18.666 15.186 33.852 33.852 33.852s33.852-15.186 33.852-33.852v-5.53h38.97v5.53c0 18.666 15.186 33.852 33.852 33.852s33.852-15.186 33.852-33.852v-5.53h38.97v5.53c0 18.666 15.186 33.852 33.852 33.852s33.852-15.186 33.852-33.852v-5.53h38.969v5.53c0 18.666 15.186 33.852 33.852 33.852s33.852-15.186 33.852-33.852v-5.53h38.969v55.298h-465.664v-55.298zm-38.97 341.862v-263.398h465.665v263.397h-465.665z"/><path d="m111.765 237.379h-37.66c-6.398 0-11.584 5.186-11.584 11.584s5.186 11.584 11.584 11.584h37.66c6.398 0 11.584-5.186 11.584-11.584s-5.186-11.584-11.584-11.584z"/><path d="m220.452 237.379h-37.66c-6.398 0-11.584 5.186-11.584 11.584s5.186 11.584 11.584 11.584h37.66c6.398 0 11.584-5.186 11.584-11.584s-5.186-11.584-11.584-11.584z"/><path d="m329.14 237.379h-37.66c-6.398 0-11.584 5.186-11.584 11.584s5.186 11.584 11.584 11.584h37.66c6.398 0 11.584-5.186 11.584-11.584s-5.187-11.584-11.584-11.584z"/><path d="m437.826 237.379h-37.66c-6.398 0-11.584 5.186-11.584 11.584s5.186 11.584 11.584 11.584h37.66c6.398 0 11.584-5.186 11.584-11.584s-5.186-11.584-11.584-11.584z"/><path d="m111.765 302.768h-37.66c-6.398 0-11.584 5.186-11.584 11.584s5.186 11.584 11.584 11.584h37.66c6.398 0 11.584-5.186 11.584-11.584s-5.186-11.584-11.584-11.584z"/><path d="m220.452 302.768h-37.66c-6.398 0-11.584 5.186-11.584 11.584s5.186 11.584 11.584 11.584h37.66c6.398 0 11.584-5.186 11.584-11.584s-5.186-11.584-11.584-11.584z"/><path d="m329.14 302.768h-37.66c-6.398 0-11.584 5.186-11.584 11.584s5.186 11.584 11.584 11.584h37.66c6.398 0 11.584-5.186 11.584-11.584-.001-6.398-5.187-11.584-11.584-11.584z"/><path d="m437.826 302.768h-37.66c-6.398 0-11.584 5.186-11.584 11.584s5.186 11.584 11.584 11.584h37.66c6.398 0 11.584-5.186 11.584-11.584s-5.186-11.584-11.584-11.584z"/><path d="m111.765 368.156h-37.66c-6.398 0-11.584 5.186-11.584 11.584s5.186 11.584 11.584 11.584h37.66c6.398 0 11.584-5.186 11.584-11.584s-5.186-11.584-11.584-11.584z"/><path d="m220.452 368.156h-37.66c-6.398 0-11.584 5.186-11.584 11.584s5.186 11.584 11.584 11.584h37.66c6.398 0 11.584-5.186 11.584-11.584s-5.186-11.584-11.584-11.584z"/><path d="m329.14 368.156h-37.66c-6.398 0-11.584 5.186-11.584 11.584s5.186 11.584 11.584 11.584h37.66c6.398 0 11.584-5.186 11.584-11.584-.001-6.398-5.187-11.584-11.584-11.584z"/><path d="m437.826 368.156h-37.66c-6.398 0-11.584 5.186-11.584 11.584s5.186 11.584 11.584 11.584h37.66c6.398 0 11.584-5.186 11.584-11.584s-5.186-11.584-11.584-11.584z"/></g></svg>