<?xml version="1.0" encoding="iso-8859-1"?>
<!-- Generator: Adobe Illustrator 19.0.0, SVG Export Plug-In . SVG Version: 6.00 Build 0)  -->
<svg version="1.1" id="Layer_1" xmlns="http://www.w3.org/2000/svg" xmlns:xlink="http://www.w3.org/1999/xlink" x="0px" y="0px"
	 viewBox="0 0 512 512" style="enable-background:new 0 0 512 512;" xml:space="preserve">
<rect x="11.584" y="171.646" style="fill:#E6E2E0;" width="488.833" height="286.558"/>
<rect x="11.584" y="93.178" style="fill:#EE3840;" width="488.833" height="78.468"/>
<g>
	<path style="fill:#ADA7A4;" d="M111.765,260.547h-37.66c-6.398,0-11.584-5.186-11.584-11.584s5.186-11.584,11.584-11.584h37.66
		c6.398,0,11.584,5.186,11.584,11.584S118.163,260.547,111.765,260.547z"/>
	<path style="fill:#ADA7A4;" d="M220.452,260.547h-37.66c-6.398,0-11.584-5.186-11.584-11.584s5.186-11.584,11.584-11.584h37.66
		c6.398,0,11.584,5.186,11.584,11.584S226.85,260.547,220.452,260.547z"/>
	<path style="fill:#ADA7A4;" d="M329.14,260.547h-37.66c-6.398,0-11.584-5.186-11.584-11.584s5.186-11.584,11.584-11.584h37.66
		c6.398,0,11.584,5.186,11.584,11.584S335.537,260.547,329.14,260.547z"/>
</g>
<path style="fill:#EE3840;" d="M437.826,260.547h-37.66c-6.398,0-11.584-5.186-11.584-11.584s5.186-11.584,11.584-11.584h37.66
	c6.398,0,11.584,5.186,11.584,11.584S444.224,260.547,437.826,260.547z"/>
<g>
	<path style="fill:#ADA7A4;" d="M111.765,325.935h-37.66c-6.398,0-11.584-5.186-11.584-11.584c0-6.398,5.186-11.584,11.584-11.584
		h37.66c6.398,0,11.584,5.186,11.584,11.584C123.349,320.749,118.163,325.935,111.765,325.935z"/>
	<path style="fill:#ADA7A4;" d="M220.452,325.935h-37.66c-6.398,0-11.584-5.186-11.584-11.584c0-6.398,5.186-11.584,11.584-11.584
		h37.66c6.398,0,11.584,5.186,11.584,11.584C232.036,320.749,226.85,325.935,220.452,325.935z"/>
	<path style="fill:#ADA7A4;" d="M329.14,325.935h-37.66c-6.398,0-11.584-5.186-11.584-11.584c0-6.398,5.186-11.584,11.584-11.584
		h37.66c6.398,0,11.584,5.186,11.584,11.584C340.723,320.749,335.537,325.935,329.14,325.935z"/>
</g>
<path style="fill:#EE3840;" d="M437.826,325.935h-37.66c-6.398,0-11.584-5.186-11.584-11.584c0-6.398,5.186-11.584,11.584-11.584
	h37.66c6.398,0,11.584,5.186,11.584,11.584C449.41,320.749,444.224,325.935,437.826,325.935z"/>
<g>
	<path style="fill:#ADA7A4;" d="M111.765,391.323h-37.66c-6.398,0-11.584-5.186-11.584-11.584c0-6.398,5.186-11.584,11.584-11.584
		h37.66c6.398,0,11.584,5.186,11.584,11.584C123.349,386.137,118.163,391.323,111.765,391.323z"/>
	<path style="fill:#ADA7A4;" d="M220.452,391.323h-37.66c-6.398,0-11.584-5.186-11.584-11.584c0-6.398,5.186-11.584,11.584-11.584
		h37.66c6.398,0,11.584,5.186,11.584,11.584C232.036,386.137,226.85,391.323,220.452,391.323z"/>
	<path style="fill:#ADA7A4;" d="M329.14,391.323h-37.66c-6.398,0-11.584-5.186-11.584-11.584c0-6.398,5.186-11.584,11.584-11.584
		h37.66c6.398,0,11.584,5.186,11.584,11.584C340.723,386.137,335.537,391.323,329.14,391.323z"/>
</g>
<path style="fill:#EE3840;" d="M437.826,391.323h-37.66c-6.398,0-11.584-5.186-11.584-11.584c0-6.398,5.186-11.584,11.584-11.584
	h37.66c6.398,0,11.584,5.186,11.584,11.584C449.41,386.137,444.224,391.323,437.826,391.323z"/>
<g>
	<path style="fill:#181818;" d="M118.258,110.29c0,12.298-9.97,22.269-22.269,22.269s-22.269-9.97-22.269-22.269V76.062
		c0-12.298,9.97-22.269,22.269-22.269s22.269,9.97,22.269,22.269V110.29z"/>
	<path style="fill:#181818;" d="M224.931,110.29c0,12.298-9.97,22.269-22.269,22.269s-22.269-9.97-22.269-22.269V76.062
		c0-12.298,9.97-22.269,22.269-22.269s22.269,9.97,22.269,22.269V110.29z"/>
	<path style="fill:#181818;" d="M438.279,110.29c0,12.298-9.97,22.269-22.269,22.269s-22.269-9.97-22.269-22.269V76.062
		c0-12.298,9.97-22.269,22.269-22.269s22.269,9.97,22.269,22.269V110.29z"/>
	<path style="fill:#181818;" d="M331.606,110.29c0,12.298-9.97,22.269-22.269,22.269s-22.269-9.97-22.269-22.269V76.062
		c0-12.298,9.97-22.269,22.269-22.269s22.269,9.97,22.269,22.269V110.29z"/>
</g>
<g>
	<path style="fill:#11113F;" d="M500.416,81.592h-50.554v-5.53c0-18.666-15.186-33.852-33.852-33.852
		c-18.666,0-33.852,15.186-33.852,33.852v5.53h-38.969v-5.53c0-18.666-15.186-33.852-33.852-33.852s-33.852,15.186-33.852,33.852
		v5.53h-38.97v-5.53c0-18.666-15.186-33.852-33.852-33.852s-33.852,15.186-33.852,33.852v5.53h-38.97v-5.53
		c0-18.666-15.186-33.852-33.852-33.852S62.136,57.396,62.136,76.062v5.53H11.584C5.186,81.592,0,86.778,0,93.176v365.031
		c0,6.398,5.186,11.584,11.584,11.584h488.833c6.398,0,11.584-5.186,11.584-11.584V93.176C512,86.778,506.814,81.592,500.416,81.592
		z M416.01,65.376c5.891,0,10.685,4.793,10.685,10.685v34.228c0,5.891-4.793,10.685-10.685,10.685
		c-5.891,0-10.685-4.793-10.685-10.685V93.186c0-0.003,0-0.007,0-0.012c0-0.005,0-0.007,0-0.012V76.061
		C405.326,70.169,410.119,65.376,416.01,65.376z M309.337,65.376c5.891,0,10.685,4.793,10.685,10.685v34.228
		c0,5.891-4.793,10.685-10.685,10.685s-10.685-4.793-10.685-10.685V93.186c0-0.003,0-0.007,0-0.012c0-0.005,0-0.007,0-0.012V76.061
		C298.652,70.169,303.445,65.376,309.337,65.376z M191.978,76.061c0-5.891,4.793-10.685,10.685-10.685
		c5.891,0,10.685,4.793,10.685,10.685v17.103c0,0.003,0,0.007,0,0.012c0,0.005,0,0.007,0,0.012v17.102
		c0,5.891-4.793,10.685-10.685,10.685c-5.891,0-10.685-4.793-10.685-10.685V76.061z M95.99,65.376
		c5.891,0,10.685,4.793,10.685,10.685v34.228c0,5.891-4.793,10.685-10.685,10.685c-5.891,0-10.685-4.793-10.685-10.685V93.186
		c0-0.003,0-0.007,0-0.012c0-0.005,0-0.007,0-0.012V76.061C85.305,70.169,90.097,65.376,95.99,65.376z M62.137,104.76v5.53
		c0,18.666,15.186,33.852,33.852,33.852s33.852-15.186,33.852-33.852v-5.53h38.97v5.53c0,18.666,15.186,33.852,33.852,33.852
		s33.852-15.186,33.852-33.852v-5.53h38.97v5.53c0,18.666,15.186,33.852,33.852,33.852s33.852-15.186,33.852-33.852v-5.53h38.969
		v5.53c0,18.666,15.186,33.852,33.852,33.852c18.666,0,33.852-15.186,33.852-33.852v-5.53h38.969v55.298H23.167V104.76H62.137z
		 M23.167,446.622V183.224h465.665v263.397H23.167z"/>
	<path style="fill:#11113F;" d="M111.765,237.379h-37.66c-6.398,0-11.584,5.186-11.584,11.584s5.186,11.584,11.584,11.584h37.66
		c6.398,0,11.584-5.186,11.584-11.584S118.163,237.379,111.765,237.379z"/>
	<path style="fill:#11113F;" d="M220.452,237.379h-37.66c-6.398,0-11.584,5.186-11.584,11.584s5.186,11.584,11.584,11.584h37.66
		c6.398,0,11.584-5.186,11.584-11.584S226.85,237.379,220.452,237.379z"/>
	<path style="fill:#11113F;" d="M329.14,237.379h-37.66c-6.398,0-11.584,5.186-11.584,11.584s5.186,11.584,11.584,11.584h37.66
		c6.398,0,11.584-5.186,11.584-11.584S335.537,237.379,329.14,237.379z"/>
	<path style="fill:#11113F;" d="M437.826,237.379h-37.66c-6.398,0-11.584,5.186-11.584,11.584s5.186,11.584,11.584,11.584h37.66
		c6.398,0,11.584-5.186,11.584-11.584S444.224,237.379,437.826,237.379z"/>
	<path style="fill:#11113F;" d="M111.765,302.768h-37.66c-6.398,0-11.584,5.186-11.584,11.584c0,6.398,5.186,11.584,11.584,11.584
		h37.66c6.398,0,11.584-5.186,11.584-11.584C123.349,307.954,118.163,302.768,111.765,302.768z"/>
	<path style="fill:#11113F;" d="M220.452,302.768h-37.66c-6.398,0-11.584,5.186-11.584,11.584c0,6.398,5.186,11.584,11.584,11.584
		h37.66c6.398,0,11.584-5.186,11.584-11.584C232.036,307.954,226.85,302.768,220.452,302.768z"/>
	<path style="fill:#11113F;" d="M329.14,302.768h-37.66c-6.398,0-11.584,5.186-11.584,11.584c0,6.398,5.186,11.584,11.584,11.584
		h37.66c6.398,0,11.584-5.186,11.584-11.584C340.723,307.954,335.537,302.768,329.14,302.768z"/>
	<path style="fill:#11113F;" d="M437.826,302.768h-37.66c-6.398,0-11.584,5.186-11.584,11.584c0,6.398,5.186,11.584,11.584,11.584
		h37.66c6.398,0,11.584-5.186,11.584-11.584C449.41,307.954,444.224,302.768,437.826,302.768z"/>
	<path style="fill:#11113F;" d="M111.765,368.156h-37.66c-6.398,0-11.584,5.186-11.584,11.584c0,6.398,5.186,11.584,11.584,11.584
		h37.66c6.398,0,11.584-5.186,11.584-11.584C123.349,373.342,118.163,368.156,111.765,368.156z"/>
	<path style="fill:#11113F;" d="M220.452,368.156h-37.66c-6.398,0-11.584,5.186-11.584,11.584c0,6.398,5.186,11.584,11.584,11.584
		h37.66c6.398,0,11.584-5.186,11.584-11.584C232.036,373.342,226.85,368.156,220.452,368.156z"/>
	<path style="fill:#11113F;" d="M329.14,368.156h-37.66c-6.398,0-11.584,5.186-11.584,11.584c0,6.398,5.186,11.584,11.584,11.584
		h37.66c6.398,0,11.584-5.186,11.584-11.584C340.723,373.342,335.537,368.156,329.14,368.156z"/>
	<path style="fill:#11113F;" d="M437.826,368.156h-37.66c-6.398,0-11.584,5.186-11.584,11.584c0,6.398,5.186,11.584,11.584,11.584
		h37.66c6.398,0,11.584-5.186,11.584-11.584C449.41,373.342,444.224,368.156,437.826,368.156z"/>
</g>
<g>
</g>
<g>
</g>
<g>
</g>
<g>
</g>
<g>
</g>
<g>
</g>
<g>
</g>
<g>
</g>
<g>
</g>
<g>
</g>
<g>
</g>
<g>
</g>
<g>
</g>
<g>
</g>
<g>
</g>
</svg>
