<svg enable-background="new 0 0 512 512" viewBox="0 0 512 512" xmlns="http://www.w3.org/2000/svg"><path d="m499.808 128.943v325.889h-487.615v-325.889l243.808-36.595z" fill="#ebedec"/><path d="m418.853 57.168h80.96v71.775h-80.96z" fill="#ee3840"/><path d="m12.193 55.948h406.654v71.775h-406.654z" fill="#4c5870"/><g fill="#11113f"><path d="m162.534 275.376h181.755c6.737 0 12.198-5.461 12.198-12.198s-5.461-12.198-12.198-12.198h-181.755c-6.737 0-12.198 5.461-12.198 12.198-.001 6.737 5.461 12.198 12.198 12.198z"/><path d="m176.204 308.404h-59.114c-6.737 0-12.198 5.461-12.198 12.198s5.461 12.198 12.198 12.198h59.114c6.737 0 12.198-5.461 12.198-12.198.001-6.737-5.461-12.198-12.198-12.198z"/><path d="m285.557 308.404h-59.114c-6.737 0-12.198 5.461-12.198 12.198s5.461 12.198 12.198 12.198h59.114c6.737 0 12.198-5.461 12.198-12.198s-5.461-12.198-12.198-12.198z"/><path d="m394.911 308.404h-59.114c-6.737 0-12.198 5.461-12.198 12.198s5.461 12.198 12.198 12.198h59.114c6.737 0 12.198-5.461 12.198-12.198s-5.461-12.198-12.198-12.198z"/><path d="m499.802 44.97h-487.604c-6.737 0-12.198 5.461-12.198 12.198v397.664c0 6.737 5.461 12.198 12.198 12.198h487.603c6.737 0 12.198-5.461 12.198-12.198v-397.664c.001-6.737-5.46-12.198-12.197-12.198zm-12.199 71.779h-56.552v-47.383h56.554v47.383zm-80.949-47.383v47.383h-382.257v-47.383zm-382.257 373.268v-301.488h463.207v301.487h-463.207z"/></g></svg>