<?xml version="1.0" encoding="iso-8859-1"?>
<!-- Generator: Adobe Illustrator 19.0.0, SVG Export Plug-In . SVG Version: 6.00 Build 0)  -->
<svg version="1.1" id="Layer_1" xmlns="http://www.w3.org/2000/svg" xmlns:xlink="http://www.w3.org/1999/xlink" x="0px" y="0px"
	 viewBox="0 0 512 512" style="enable-background:new 0 0 512 512;" xml:space="preserve">
<polygon style="fill:#E6E2E0;" points="81.086,500.416 430.914,500.416 430.914,92.67 372.995,69.502 349.828,11.584 81.086,11.584 
	"/>
<polygon style="fill:#CCC4C1;" points="349.828,11.584 349.828,92.67 430.914,92.67 "/>
<path style="fill:#EE3840;" d="M256,151.549H150.588c-6.398,0-11.584-5.187-11.584-11.584s5.186-11.584,11.584-11.584H256
	c6.397,0,11.584,5.187,11.584,11.584S262.397,151.549,256,151.549z"/>
<path style="fill:#7A7674;" d="M361.412,186.3H150.588c-6.398,0-11.584,5.187-11.584,11.584v173.756
	c0,6.397,5.186,11.584,11.584,11.584h210.824c6.397,0,11.584-5.187,11.584-11.584v-34.751c0-6.397-5.187-11.584-11.584-11.584
	c-6.397,0-11.584,5.187-11.584,11.584v23.167h-47.107v-92.67h47.107v29.989c0,6.397,5.187,11.584,11.584,11.584
	c6.397,0,11.584-5.187,11.584-11.584v-99.491C372.995,191.487,367.808,186.3,361.412,186.3z M279.553,209.467v34.751h-47.107
	v-34.751H279.553z M209.279,209.467v34.751h-47.107v-34.751H209.279z M162.172,267.386h47.107v92.67h-47.107V267.386z
	 M279.553,360.055h-47.107v-92.67h47.107L279.553,360.055L279.553,360.055z M302.721,244.218v-34.751h47.107v34.751H302.721z"/>
<path style="fill:#269AF2;" d="M361.412,442.498H256c-6.398,0-11.584-5.187-11.584-11.584c0-6.397,5.186-11.584,11.584-11.584
	h105.412c6.397,0,11.584,5.187,11.584,11.584C372.995,437.311,367.808,442.498,361.412,442.498z"/>
<path style="fill:#11113F;" d="M442.44,91.514c-0.028-0.281-0.076-0.555-0.124-0.831c-0.017-0.097-0.025-0.197-0.045-0.294
	c-0.066-0.331-0.152-0.656-0.246-0.977c-0.012-0.039-0.019-0.079-0.03-0.118c-0.1-0.326-0.217-0.644-0.343-0.957
	c-0.014-0.036-0.024-0.073-0.039-0.108c-0.123-0.295-0.262-0.58-0.408-0.863c-0.028-0.053-0.05-0.11-0.079-0.163
	c-0.136-0.254-0.287-0.496-0.441-0.738c-0.05-0.079-0.093-0.161-0.145-0.239c-0.145-0.217-0.305-0.42-0.463-0.626
	c-0.073-0.095-0.138-0.195-0.214-0.287c-0.175-0.212-0.364-0.41-0.553-0.609c-0.071-0.074-0.133-0.154-0.205-0.227L358.019,3.392
	c-0.073-0.073-0.153-0.136-0.227-0.205c-0.199-0.189-0.397-0.378-0.609-0.553c-0.093-0.075-0.192-0.141-0.286-0.214
	c-0.205-0.159-0.41-0.319-0.626-0.463c-0.078-0.051-0.16-0.095-0.237-0.145c-0.242-0.154-0.484-0.306-0.738-0.441
	c-0.053-0.028-0.11-0.051-0.163-0.079c-0.281-0.146-0.568-0.285-0.863-0.408c-0.036-0.015-0.073-0.024-0.108-0.039
	c-0.313-0.126-0.631-0.243-0.957-0.343c-0.039-0.012-0.079-0.019-0.118-0.03c-0.321-0.094-0.645-0.18-0.977-0.246
	c-0.097-0.02-0.197-0.028-0.294-0.045c-0.275-0.047-0.549-0.096-0.829-0.124C350.602,0.02,350.216,0,349.828,0H81.086
	c-6.398,0-11.584,5.187-11.584,11.584v488.833c0,6.397,5.186,11.584,11.584,11.584h349.828c6.397,0,11.584-5.187,11.584-11.584
	V92.67C442.498,92.282,442.478,91.896,442.44,91.514z M361.412,39.55l41.536,41.536h-41.536V39.55z M92.67,488.833V23.167h245.575
	V92.67c0,6.397,5.187,11.584,11.584,11.584h69.502v384.579H92.67z"/>
<g>
</g>
<g>
</g>
<g>
</g>
<g>
</g>
<g>
</g>
<g>
</g>
<g>
</g>
<g>
</g>
<g>
</g>
<g>
</g>
<g>
</g>
<g>
</g>
<g>
</g>
<g>
</g>
<g>
</g>
</svg>
