<svg enable-background="new 0 0 512 512" viewBox="0 0 512 512" xmlns="http://www.w3.org/2000/svg"><path d="m81.086 500.416h349.828v-407.746l-57.919-23.168-23.167-57.918h-268.742z" fill="#e6e2e0"/><path d="m349.828 11.584v81.086h81.086z" fill="#ccc4c1"/><path d="m256 151.549h-105.412c-6.398 0-11.584-5.187-11.584-11.584s5.186-11.584 11.584-11.584h105.412c6.397 0 11.584 5.187 11.584 11.584s-5.187 11.584-11.584 11.584z" fill="#ee3840"/><path d="m361.412 186.3h-210.824c-6.398 0-11.584 5.187-11.584 11.584v173.756c0 6.397 5.186 11.584 11.584 11.584h210.824c6.397 0 11.584-5.187 11.584-11.584v-34.751c0-6.397-5.187-11.584-11.584-11.584s-11.584 5.187-11.584 11.584v23.167h-47.107v-92.67h47.107v29.989c0 6.397 5.187 11.584 11.584 11.584s11.584-5.187 11.584-11.584v-99.491c-.001-6.397-5.188-11.584-11.584-11.584zm-81.859 23.167v34.751h-47.107v-34.751zm-70.274 0v34.751h-47.107v-34.751zm-47.107 57.919h47.107v92.67h-47.107zm117.381 92.669h-47.107v-92.67h47.107zm23.168-115.837v-34.751h47.107v34.751z" fill="#7a7674"/><path d="m361.412 442.498h-105.412c-6.398 0-11.584-5.187-11.584-11.584s5.186-11.584 11.584-11.584h105.412c6.397 0 11.584 5.187 11.584 11.584-.001 6.397-5.188 11.584-11.584 11.584z" fill="#269af2"/><path d="m442.44 91.514c-.028-.281-.076-.555-.124-.831-.017-.097-.025-.197-.045-.294-.066-.331-.152-.656-.246-.977-.012-.039-.019-.079-.03-.118-.1-.326-.217-.644-.343-.957-.014-.036-.024-.073-.039-.108-.123-.295-.262-.58-.408-.863-.028-.053-.05-.11-.079-.163-.136-.254-.287-.496-.441-.738-.05-.079-.093-.161-.145-.239-.145-.217-.305-.42-.463-.626-.073-.095-.138-.195-.214-.287-.175-.212-.364-.41-.553-.609-.071-.074-.133-.154-.205-.227l-81.086-81.085c-.073-.073-.153-.136-.227-.205-.199-.189-.397-.378-.609-.553-.093-.075-.192-.141-.286-.214-.205-.159-.41-.319-.626-.463-.078-.051-.16-.095-.237-.145-.242-.154-.484-.306-.738-.441-.053-.028-.11-.051-.163-.079-.281-.146-.568-.285-.863-.408-.036-.015-.073-.024-.108-.039-.313-.126-.631-.243-.957-.343-.039-.012-.079-.019-.118-.03-.321-.094-.645-.18-.977-.246-.097-.02-.197-.028-.294-.045-.275-.047-.549-.096-.829-.124-.385-.037-.771-.057-1.159-.057h-268.742c-6.398 0-11.584 5.187-11.584 11.584v488.833c0 6.397 5.186 11.584 11.584 11.584h349.828c6.397 0 11.584-5.187 11.584-11.584v-407.747c0-.388-.02-.774-.058-1.156zm-81.028-51.964 41.536 41.536h-41.536zm-268.742 449.283v-465.666h245.575v69.503c0 6.397 5.187 11.584 11.584 11.584h69.502v384.579z" fill="#11113f"/></svg>