<svg enable-background="new 0 0 512 512" viewBox="0 0 512 512" xmlns="http://www.w3.org/2000/svg"><path d="m491.915 321.03-14.666-309.446h-69.502l-12.527 258.578z" fill="#ada7a4"/><path d="m256 162.172v64.29l-122.208-64.29v64.29l-122.208-64.29v338.244h341.333l50.582-23.167 50.582 23.167h46.335v-209.665z" fill="#ccc4c1"/><path d="m57.919 337.086v86.878h39.938l86.878-43.439v-43.439z" fill="#ebedec"/><path d="m306.583 337.086h-39.94l-86.878 43.439v43.439h126.818z" fill="#ebedec"/><path d="m184.735 337.086-86.878 86.878h81.908l86.878-86.878z" fill="#fff"/><path d="m352.921 337.086h101.161v163.33h-101.161z" fill="#ee3840"/><g fill="#11113f"><path d="m46.335 337.086v86.878c0 6.397 5.187 11.584 11.584 11.584h248.664c6.397 0 11.584-5.187 11.584-11.584v-86.878c0-6.397-5.187-11.584-11.584-11.584h-248.664c-6.397 0-11.584 5.187-11.584 11.584zm248.664 75.294h-87.267l63.71-63.71h23.557zm-225.497-63.71h87.266l-32.351 32.352c-4.523 4.523-4.523 11.858 0 16.383 2.262 2.261 5.227 3.393 8.191 3.393s5.929-1.132 8.191-3.393l48.734-48.735h49.145l-63.71 63.71h-105.466z"/><path d="m398.158 209.554c6.353.276 11.821-4.621 12.13-11.01l8.494-175.376h47.419l10.545 222.501c.294 6.203 5.417 11.035 11.562 11.035.184 0 .371-.005.557-.013 6.391-.303 11.324-5.729 11.023-12.12l-11.068-233.536c-.293-6.178-5.387-11.035-11.571-11.035h-69.502c-6.18 0-11.271 4.851-11.57 11.024l-9.03 186.4c-.31 6.389 4.62 11.821 11.011 12.13z"/><path d="m505.81 280.5-244.417-128.58c-3.592-1.89-7.908-1.762-11.381.335-3.474 2.098-5.596 5.859-5.596 9.917v45.107l-105.231-55.359c-3.592-1.89-7.908-1.762-11.381.335-3.474 2.098-5.596 5.859-5.596 9.917v45.107l-105.231-55.359c-3.593-1.89-7.908-1.762-11.381.335-3.474 2.098-5.596 5.859-5.596 9.917v338.244c0 6.397 5.187 11.584 11.584 11.584h341.334 101.164 46.335c6.397 0 11.584-5.187 11.584-11.584v-209.665c-.001-4.302-2.385-8.249-6.191-10.251zm-141.309 208.333v-140.163h77.997v140.163zm124.332 0h-23.167v-151.747c0-6.397-5.187-11.584-11.584-11.584h-101.165c-6.397 0-11.584 5.187-11.584 11.584v151.747h-318.166v-307.478l105.231 55.359c3.593 1.89 7.908 1.762 11.381-.335 3.474-2.098 5.596-5.859 5.596-9.917v-45.107l105.231 55.359c3.593 1.89 7.908 1.762 11.381-.335 3.474-2.098 5.596-5.859 5.596-9.917v-45.107l221.249 116.392v191.086z"/></g></svg>