<svg enable-background="new 0 0 512 512" viewBox="0 0 512 512" xmlns="http://www.w3.org/2000/svg"><path d="m57.229 403.185-26.291 53.659 23.067 23.066 53.658-26.29z" fill="#ffe1d6"/><path d="m449.449 110.045-39.394 39.393-48.645-48.575 39.393-39.393z" fill="#ebedec"/><path d="m407.578 149.66-298.488 300.483-48.384-47.549c0-.012 298.488-300.483 298.488-300.483z" fill="#ffb14d"/><path d="m491.411 21.226c15.968 15.715 11.344 44.703-4.623 60.42l-28.886 28.43-57.922-57.008 28.873-28.43c15.966-15.729 46.576-19.141 62.558-3.412z" fill="#ee3840"/><path d="m498.024 13.979c-9.014-9.014-21.014-13.979-33.789-13.979-12.774 0-24.774 4.965-33.788 13.979l-30.526 30.527c-4.525-4.526-11.861-4.526-16.391 0-4.526 4.526-4.526 11.864 0 16.39l-24.585 24.585c-4.525-4.526-11.861-4.526-16.391 0-4.526 4.526-4.526 11.864 0 16.39l-289.986 289.986c-.007.007-.013.013-.02.02-.001.001-.002.001-.002.002-.987.992-1.757 2.117-2.311 3.318l-26.442 53.971c-.082.16-.162.321-.238.484l-22.37 45.658c-2.18 4.449-1.29 9.791 2.212 13.294 2.226 2.225 5.192 3.396 8.199 3.396 1.729 0 3.472-.387 5.095-1.183l45.652-22.367c.168-.077.333-.159.498-.243l53.965-26.44c1.2-.554 2.324-1.324 3.315-2.309.001-.001.002-.001.002-.002.007-.007.014-.013.021-.02l289.986-289.986c4.527 4.527 11.863 4.527 16.391 0 4.526-4.526 4.526-11.864 0-16.391l24.585-24.585c4.527 4.527 11.863 4.527 16.391 0 4.526-4.526 4.526-11.864 0-16.39l30.527-30.527c18.63-18.632 18.63-48.946 0-67.578zm-438.192 449.891-11.7-11.698 15.902-32.455 28.253 28.253zm52.118-29.02-34.796-34.798 281.792-281.791 34.796 34.798zm298.181-298.182-34.796-34.798 24.585-24.585 34.798 34.798zm71.503-71.501-30.527 30.527-34.796-34.798 30.527-30.527c4.636-4.636 10.815-7.19 17.398-7.19 6.584 0 12.764 2.553 17.399 7.19 9.593 9.594 9.593 25.204-.001 34.798z" fill="#11113f"/></svg>