<svg enable-background="new 0 0 512 512" viewBox="0 0 512 512" xmlns="http://www.w3.org/2000/svg"><path d="m423.854 60.717h-335.709c-7.293 0-13.205 5.912-13.205 13.205v413.288c0 7.293 5.912 13.205 13.205 13.205h335.711c7.293 0 13.205-5.912 13.205-13.205v-413.287c-.001-7.293-5.914-13.206-13.207-13.206z" fill="#ff8c00"/><path d="m115.57 104.879h280.859v354.902h-280.859z" fill="#fff"/><path d="m310.253 95.296c0-8.485 0-18.594 0-29.459 0-29.964-24.29-54.253-54.253-54.253s-54.253 24.29-54.253 54.253v29.459c-24.685 0-44.696 20.011-44.696 44.696h197.898c0-24.685-20.011-44.696-44.696-44.696z" fill="#4c5870"/><circle cx="255.999" cy="65.837" fill="#181818" r="17.376"/><path d="m423.854 49.133h-104.171c-7.412-28.238-33.151-49.133-63.684-49.133s-56.271 20.895-63.684 49.133h-104.17c-13.669 0-24.789 11.12-24.789 24.789v413.288c-.001 13.67 11.121 24.79 24.789 24.79h335.711c13.669 0 24.789-11.12 24.789-24.789v-413.288c0-13.669-11.122-24.79-24.791-24.79zm-167.855-25.966c23.529 0 42.67 19.142 42.67 42.67v29.459c0 6.398 5.187 11.584 11.584 11.584 14.184 0 26.316 8.966 31.021 21.528h-170.549c4.706-12.563 16.837-21.528 31.021-21.528 6.397 0 11.584-5.186 11.584-11.584v-29.459c0-23.527 19.141-42.67 42.669-42.67zm-98.949 128.408h197.898c6.397 0 11.584-5.186 11.584-11.584 0-8.394-1.85-16.362-5.159-23.524h23.47v331.732h-257.688v-331.732h23.47c-3.308 7.162-5.159 15.131-5.159 23.524.001 6.398 5.188 11.584 11.584 11.584zm268.427 335.636c0 .894-.727 1.622-1.622 1.622h-335.71c-.894 0-1.622-.727-1.622-1.622v-413.288c0-.894.727-1.622 1.622-1.622h102.018v12.61c-7.2 1.513-13.897 4.406-19.802 8.39h-54.789c-6.397 0-11.584 5.186-11.584 11.584v354.899c0 6.398 5.187 11.584 11.584 11.584h280.855c6.397 0 11.584-5.186 11.584-11.584v-354.9c0-6.398-5.187-11.584-11.584-11.584h-54.787c-5.905-3.982-12.603-6.877-19.802-8.39v-12.609h102.018c.894 0 1.622.727 1.622 1.622v413.288z" fill="#11113f"/></svg>