<?xml version="1.0" encoding="iso-8859-1"?>
<!-- Generator: Adobe Illustrator 19.0.0, SVG Export Plug-In . SVG Version: 6.00 Build 0)  -->
<svg version="1.1" id="Layer_1" xmlns="http://www.w3.org/2000/svg" xmlns:xlink="http://www.w3.org/1999/xlink" x="0px" y="0px"
	 viewBox="0 0 512 512" style="enable-background:new 0 0 512 512;" xml:space="preserve">
<path style="fill:#FF8C00;" d="M423.854,60.717H88.145c-7.293,0-13.205,5.912-13.205,13.205v413.288
	c0,7.293,5.912,13.205,13.205,13.205h335.711c7.293,0,13.205-5.912,13.205-13.205V73.923
	C437.06,66.63,431.147,60.717,423.854,60.717z"/>
<rect x="115.57" y="104.879" style="fill:#FFFFFF;" width="280.859" height="354.902"/>
<path style="fill:#4C5870;" d="M310.253,95.296c0-8.485,0-18.594,0-29.459c0-29.964-24.29-54.253-54.253-54.253
	s-54.253,24.29-54.253,54.253c0,10.864,0,20.973,0,29.459c-24.685,0-44.696,20.011-44.696,44.696h197.898
	C354.949,115.307,334.938,95.296,310.253,95.296z"/>
<circle style="fill:#181818;" cx="255.999" cy="65.837" r="17.376"/>
<path style="fill:#11113F;" d="M423.854,49.133H319.683C312.271,20.895,286.532,0,255.999,0s-56.271,20.895-63.684,49.133H88.145
	c-13.669,0-24.789,11.12-24.789,24.789v413.288C63.355,500.88,74.477,512,88.145,512h335.711c13.669,0,24.789-11.12,24.789-24.789
	V73.923C448.645,60.254,437.523,49.133,423.854,49.133z M255.999,23.167c23.529,0,42.67,19.142,42.67,42.67v29.459
	c0,6.398,5.187,11.584,11.584,11.584c14.184,0,26.316,8.966,31.021,21.528H170.725c4.706-12.563,16.837-21.528,31.021-21.528
	c6.397,0,11.584-5.186,11.584-11.584V65.837C213.33,42.31,232.471,23.167,255.999,23.167z M157.05,151.575h197.898
	c6.397,0,11.584-5.186,11.584-11.584c0-8.394-1.85-16.362-5.159-23.524h23.47v331.732H127.155V116.467h23.47
	c-3.308,7.162-5.159,15.131-5.159,23.524C145.467,146.389,150.654,151.575,157.05,151.575z M425.477,487.211
	c0,0.894-0.727,1.622-1.622,1.622H88.145c-0.894,0-1.622-0.727-1.622-1.622V73.923c0-0.894,0.727-1.622,1.622-1.622h102.018v12.61
	c-7.2,1.513-13.897,4.406-19.802,8.39h-54.789c-6.397,0-11.584,5.186-11.584,11.584v354.899c0,6.398,5.187,11.584,11.584,11.584
	h280.855c6.397,0,11.584-5.186,11.584-11.584V104.884c0-6.398-5.187-11.584-11.584-11.584h-54.787
	c-5.905-3.982-12.603-6.877-19.802-8.39V72.301h102.018c0.894,0,1.622,0.727,1.622,1.622v413.288H425.477z"/>
<g>
</g>
<g>
</g>
<g>
</g>
<g>
</g>
<g>
</g>
<g>
</g>
<g>
</g>
<g>
</g>
<g>
</g>
<g>
</g>
<g>
</g>
<g>
</g>
<g>
</g>
<g>
</g>
<g>
</g>
</svg>
