<?xml version="1.0" encoding="iso-8859-1"?>
<!-- Generator: Adobe Illustrator 19.0.0, SVG Export Plug-In . SVG Version: 6.00 Build 0)  -->
<svg version="1.1" id="Layer_1" xmlns="http://www.w3.org/2000/svg" xmlns:xlink="http://www.w3.org/1999/xlink" x="0px" y="0px"
	 viewBox="0 0 512 512" style="enable-background:new 0 0 512 512;" xml:space="preserve">
<path style="fill:#95A53B;" d="M390.208,57.374c-16.665,0-30.176,13.51-30.176,30.177v80.923c0,6.656-5.415,12.07-12.07,12.07
	h-34.036V69.646c0-32.067-25.995-58.062-58.062-58.062s-58.062,25.995-58.062,58.062v169.475h-34.036
	c-6.656,0-12.07-5.415-12.07-12.07v-60.805c0-16.665-13.51-30.177-30.176-30.177s-30.176,13.51-30.176,30.177v60.805
	c0,39.934,32.489,72.423,72.423,72.423h34.036v61.32h116.124V240.896h34.036c39.934,0,72.423-32.489,72.423-72.423V87.551
	C420.385,70.885,406.874,57.374,390.208,57.374z"/>
<path style="fill:#C21B23;" d="M340.226,360.798l-3.707,44.609L256,440.158l-81.155-34.751c-0.012,0-3.707-44.609-3.707-44.609
	H340.226z"/>
<polygon style="fill:#EE3840;" points="336.519,405.407 328.642,500.416 182.722,500.416 174.845,405.407 "/>
<path style="fill:#11113F;" d="M440.231,37.123c-4.518-4.53-11.852-4.538-16.382-0.021l-13.764,13.729
	c-2.609-1.418-5.389-2.554-8.293-3.394V28.262c0-6.398-5.186-11.584-11.584-11.584s-11.584,5.186-11.584,11.584v19.176
	c-2.962,0.857-5.792,2.025-8.446,3.481l-13.327-13.327c-4.523-4.523-11.858-4.523-16.383,0c-4.523,4.523-4.523,11.858,0,16.383
	l13.268,13.268c-3.364,6.015-5.289,12.94-5.289,20.309v80.924c0,0.259-0.227,0.487-0.487,0.487H325.51V69.646
	C325.51,31.244,294.266,0,255.864,0s-69.646,31.244-69.646,69.646v157.893h-22.453c-0.259,0-0.487-0.227-0.487-0.487v-60.806
	c0-7.431-1.96-14.409-5.377-20.461l13.619-13.584c4.529-4.518,4.538-11.852,0.021-16.382c-4.518-4.53-11.852-4.538-16.382-0.021
	l-13.765,13.729c-2.609-1.418-5.388-2.554-8.293-3.394v-19.176c0-6.398-5.186-11.584-11.584-11.584
	c-6.398,0-11.584,5.186-11.584,11.584v19.176c-2.962,0.857-5.792,2.025-8.446,3.481l-13.327-13.327
	c-4.523-4.523-11.858-4.523-16.383,0c-4.523,4.523-4.523,11.858,0,16.383l13.268,13.268c-3.364,6.015-5.289,12.94-5.289,20.309
	v60.806c0,46.321,37.685,84.006,84.006,84.006h22.453v38.152h-15.084h-19.748c-6.398,0-11.584,5.186-11.584,11.584
	c0,6.398,5.186,11.584,11.584,11.584h9.085l10.702,128.996C171.67,507.38,176.69,512,182.716,512h145.922
	c6.026,0,11.046-4.621,11.544-10.626l7.556-91.079c0.695-1.487,1.095-3.14,1.095-4.891c0-1.074-0.158-2.111-0.431-3.097l2.484-29.93
	h6.194c6.398,0,11.584-5.186,11.584-11.584s-5.186-11.584-11.584-11.584h-16.857h-14.712v-96.73h22.453
	c46.321,0,84.006-37.685,84.006-84.006V87.55c0-7.431-1.96-14.409-5.377-20.46l13.619-13.584
	C444.74,48.988,444.749,41.653,440.231,37.123z M325.858,393.821h-77.968c-6.398,0-11.584,5.186-11.584,11.584
	s5.186,11.584,11.584,11.584h76.046l-5.961,71.845H193.379l-5.961-71.845h25.722c6.398,0,11.584-5.186,11.584-11.584
	s-5.186-11.584-11.584-11.584h-27.643l-1.779-21.444h143.921L325.858,393.821z M408.801,168.473
	c0,33.546-27.292,60.839-60.839,60.839h-34.036c-6.398,0-11.584,5.186-11.584,11.584V349.21h-92.957v-49.736
	c0-6.398-5.186-11.584-11.584-11.584h-34.036c-33.546,0-60.839-27.292-60.839-60.839v-60.806c0-4.353,1.515-8.353,4.031-11.525
	c0.632-0.421,1.234-0.907,1.791-1.465c0.52-0.52,0.974-1.082,1.375-1.668c3.152-2.456,7.101-3.934,11.396-3.934
	c10.252,0,18.592,8.34,18.592,18.592v60.806c0,13.043,10.612,23.654,23.654,23.654h34.036c6.398,0,11.584-5.186,11.584-11.584
	V69.646c0-25.629,20.851-46.478,46.478-46.478s46.478,20.851,46.478,46.478v110.898c0,6.398,5.186,11.584,11.584,11.584h34.036
	c13.043,0,23.654-10.611,23.654-23.654V87.55c0-4.353,1.515-8.353,4.031-11.525c0.632-0.42,1.234-0.907,1.791-1.465
	c0.52-0.52,0.974-1.082,1.375-1.668c3.152-2.456,7.101-3.934,11.396-3.934c10.252,0,18.592,8.34,18.592,18.592L408.801,168.473
	L408.801,168.473z"/>
<g>
</g>
<g>
</g>
<g>
</g>
<g>
</g>
<g>
</g>
<g>
</g>
<g>
</g>
<g>
</g>
<g>
</g>
<g>
</g>
<g>
</g>
<g>
</g>
<g>
</g>
<g>
</g>
<g>
</g>
</svg>
