<svg enable-background="new 0 0 512 512" viewBox="0 0 512 512" xmlns="http://www.w3.org/2000/svg"><path d="m390.208 57.374c-16.665 0-30.176 13.51-30.176 30.177v80.923c0 6.656-5.415 12.07-12.07 12.07h-34.036v-110.898c0-32.067-25.995-58.062-58.062-58.062s-58.062 25.995-58.062 58.062v169.475h-34.036c-6.656 0-12.07-5.415-12.07-12.07v-60.805c0-16.665-13.51-30.177-30.176-30.177s-30.176 13.51-30.176 30.177v60.805c0 39.934 32.489 72.423 72.423 72.423h34.036v61.32h116.124v-119.898h34.036c39.934 0 72.423-32.489 72.423-72.423v-80.922c-.001-16.666-13.512-30.177-30.178-30.177z" fill="#95a53b"/><path d="m340.226 360.798-3.707 44.609-80.519 34.751-81.155-34.751c-.012 0-3.707-44.609-3.707-44.609z" fill="#c21b23"/><path d="m336.519 405.407-7.877 95.009h-145.92l-7.877-95.009z" fill="#ee3840"/><path d="m440.231 37.123c-4.518-4.53-11.852-4.538-16.382-.021l-13.764 13.729c-2.609-1.418-5.389-2.554-8.293-3.394v-19.175c0-6.398-5.186-11.584-11.584-11.584s-11.584 5.186-11.584 11.584v19.176c-2.962.857-5.792 2.025-8.446 3.481l-13.327-13.327c-4.523-4.523-11.858-4.523-16.383 0-4.523 4.523-4.523 11.858 0 16.383l13.268 13.268c-3.364 6.015-5.289 12.94-5.289 20.309v80.924c0 .259-.227.487-.487.487h-22.45v-99.317c0-38.402-31.244-69.646-69.646-69.646s-69.646 31.244-69.646 69.646v157.893h-22.453c-.259 0-.487-.227-.487-.487v-60.806c0-7.431-1.96-14.409-5.377-20.461l13.619-13.584c4.529-4.518 4.538-11.852.021-16.382-4.518-4.53-11.852-4.538-16.382-.021l-13.765 13.729c-2.609-1.418-5.388-2.554-8.293-3.394v-19.176c0-6.398-5.186-11.584-11.584-11.584s-11.584 5.186-11.584 11.584v19.176c-2.962.857-5.792 2.025-8.446 3.481l-13.327-13.327c-4.523-4.523-11.858-4.523-16.383 0-4.523 4.523-4.523 11.858 0 16.383l13.268 13.268c-3.364 6.015-5.289 12.94-5.289 20.309v60.806c0 46.321 37.685 84.006 84.006 84.006h22.453v38.152h-15.084-19.748c-6.398 0-11.584 5.186-11.584 11.584s5.186 11.584 11.584 11.584h9.085l10.702 128.996c.5 6.005 5.52 10.625 11.546 10.625h145.922c6.026 0 11.046-4.621 11.544-10.626l7.556-91.079c.695-1.487 1.095-3.14 1.095-4.891 0-1.074-.158-2.111-.431-3.097l2.484-29.93h6.194c6.398 0 11.584-5.186 11.584-11.584s-5.186-11.584-11.584-11.584h-16.857-14.712v-96.73h22.453c46.321 0 84.006-37.685 84.006-84.006v-80.923c0-7.431-1.96-14.409-5.377-20.46l13.619-13.584c4.528-4.518 4.537-11.853.019-16.383zm-114.373 356.698h-77.968c-6.398 0-11.584 5.186-11.584 11.584s5.186 11.584 11.584 11.584h76.046l-5.961 71.845h-124.596l-5.961-71.845h25.722c6.398 0 11.584-5.186 11.584-11.584s-5.186-11.584-11.584-11.584h-27.643l-1.779-21.444h143.921zm82.943-225.348c0 33.546-27.292 60.839-60.839 60.839h-34.036c-6.398 0-11.584 5.186-11.584 11.584v108.314h-92.957v-49.736c0-6.398-5.186-11.584-11.584-11.584h-34.036c-33.546 0-60.839-27.292-60.839-60.839v-60.806c0-4.353 1.515-8.353 4.031-11.525.632-.421 1.234-.907 1.791-1.465.52-.52.974-1.082 1.375-1.668 3.152-2.456 7.101-3.934 11.396-3.934 10.252 0 18.592 8.34 18.592 18.592v60.806c0 13.043 10.612 23.654 23.654 23.654h34.036c6.398 0 11.584-5.186 11.584-11.584v-169.475c0-25.629 20.851-46.478 46.478-46.478s46.478 20.851 46.478 46.478v110.898c0 6.398 5.186 11.584 11.584 11.584h34.036c13.043 0 23.654-10.611 23.654-23.654v-80.924c0-4.353 1.515-8.353 4.031-11.525.632-.42 1.234-.907 1.791-1.465.52-.52.974-1.082 1.375-1.668 3.152-2.456 7.101-3.934 11.396-3.934 10.252 0 18.592 8.34 18.592 18.592z" fill="#11113f"/></svg>